<?xml version="1.0" encoding="UTF-8" standalone="no"?>
<!DOCTYPE svg PUBLIC "-//W3C//DTD SVG 1.1//EN"
 "http://www.w3.org/Graphics/SVG/1.1/DTD/svg11.dtd">
<!-- Generated by graphviz version 2.43.0 (0)
 -->
<!-- Title: list Pages: 1 -->
<svg width="1012pt" height="158pt"
 viewBox="0.00 0.00 1012.00 157.76" xmlns="http://www.w3.org/2000/svg" xmlns:xlink="http://www.w3.org/1999/xlink">
<g id="graph0" class="graph" transform="scale(1 1) rotate(0) translate(4 153.76)">
<title>list</title>
<polygon fill="white" stroke="transparent" points="-4,4 -4,-153.76 1008,-153.76 1008,4 -4,4"/>
<!-- node9 -->
<g id="node1" class="node">
<title>node9</title>
<polygon fill="#ebebeb" stroke="transparent" points="9,-70.44 9,-91.44 59,-91.44 59,-70.44 9,-70.44"/>
<polygon fill="none" stroke="black" points="9,-70.44 9,-91.44 59,-91.44 59,-70.44 9,-70.44"/>
<text text-anchor="start" x="29" y="-77.24" font-family="Times,serif" font-size="14.00">9</text>
<polygon fill="none" stroke="crimson" points="9,-48.44 9,-69.44 25,-69.44 25,-48.44 9,-48.44"/>
<text text-anchor="start" x="12" y="-55.24" font-family="Times,serif" font-size="14.00">7</text>
<polygon fill="lightsalmon" stroke="transparent" points="26,-48.44 26,-69.44 42,-69.44 42,-48.44 26,-48.44"/>
<polygon fill="none" stroke="black" points="26,-48.44 26,-69.44 42,-69.44 42,-48.44 26,-48.44"/>
<text text-anchor="start" x="29" y="-55.24" font-family="Times,serif" font-size="14.00">9</text>
<polygon fill="none" stroke="#1c86ee" points="43,-48.44 43,-69.44 59,-69.44 59,-48.44 43,-48.44"/>
<text text-anchor="start" x="46" y="-55.24" font-family="Times,serif" font-size="14.00">0</text>
</g>
<!-- node7 -->
<g id="node2" class="node">
<title>node7</title>
<polygon fill="#ebebeb" stroke="transparent" points="945,-70.44 945,-91.44 995,-91.44 995,-70.44 945,-70.44"/>
<polygon fill="none" stroke="black" points="945,-70.44 945,-91.44 995,-91.44 995,-70.44 945,-70.44"/>
<text text-anchor="start" x="965" y="-77.24" font-family="Times,serif" font-size="14.00">7</text>
<polygon fill="none" stroke="crimson" points="945,-48.44 945,-69.44 961,-69.44 961,-48.44 945,-48.44"/>
<text text-anchor="start" x="948" y="-55.24" font-family="Times,serif" font-size="14.00">4</text>
<polygon fill="lightsalmon" stroke="transparent" points="962,-48.44 962,-69.44 978,-69.44 978,-48.44 962,-48.44"/>
<polygon fill="none" stroke="black" points="962,-48.44 962,-69.44 978,-69.44 978,-48.44 962,-48.44"/>
<text text-anchor="start" x="965" y="-55.24" font-family="Times,serif" font-size="14.00">7</text>
<polygon fill="none" stroke="#1c86ee" points="979,-48.44 979,-69.44 995,-69.44 995,-48.44 979,-48.44"/>
<text text-anchor="start" x="982" y="-55.24" font-family="Times,serif" font-size="14.00">9</text>
</g>
<!-- node9&#45;&gt;node7 -->
<g id="edge1" class="edge">
<title>node9:index&#45;&gt;node7:index</title>
<path fill="none" stroke="crimson" d="M60,-81.44C88.61,-81.44 78.59,-115.27 104,-128.44 158.58,-156.72 179.53,-147.44 241,-147.44 241,-147.44 241,-147.44 763,-147.44 824.47,-147.44 845.42,-156.72 900,-128.44 921.83,-117.13 917.5,-90.55 934.01,-83.29"/>
<polygon fill="crimson" stroke="crimson" points="934.81,-86.71 944,-81.44 933.53,-79.82 934.81,-86.71"/>
</g>
<!-- node0 -->
<g id="node10" class="node">
<title>node0</title>
<polygon fill="#ebebeb" stroke="transparent" points="113,-92.44 113,-113.44 163,-113.44 163,-92.44 113,-92.44"/>
<polygon fill="none" stroke="black" points="113,-92.44 113,-113.44 163,-113.44 163,-92.44 113,-92.44"/>
<text text-anchor="start" x="133" y="-99.24" font-family="Times,serif" font-size="14.00">0</text>
<polygon fill="none" stroke="crimson" points="113,-70.44 113,-91.44 129,-91.44 129,-70.44 113,-70.44"/>
<text text-anchor="start" x="116" y="-77.24" font-family="Times,serif" font-size="14.00">9</text>
<polygon fill="lightsalmon" stroke="transparent" points="130,-70.44 130,-91.44 146,-91.44 146,-70.44 130,-70.44"/>
<polygon fill="none" stroke="black" points="130,-70.44 130,-91.44 146,-91.44 146,-70.44 130,-70.44"/>
<text text-anchor="start" x="133" y="-77.24" font-family="Times,serif" font-size="14.00">0</text>
<polygon fill="none" stroke="#1c86ee" points="147,-70.44 147,-91.44 163,-91.44 163,-70.44 147,-70.44"/>
<text text-anchor="start" x="150" y="-77.24" font-family="Times,serif" font-size="14.00">8</text>
</g>
<!-- node9&#45;&gt;node0 -->
<g id="edge20" class="edge">
<title>node9:next&#45;&gt;node0:prev</title>
<path fill="none" stroke="#1c86ee" d="M60,-58.44C81.17,-58.44 85.77,-74.1 101.76,-78.99"/>
<polygon fill="#1c86ee" stroke="#1c86ee" points="101.61,-82.51 112,-80.44 102.59,-75.58 101.61,-82.51"/>
</g>
<!-- node7&#45;&gt;node9 -->
<g id="edge2" class="edge">
<title>node7:next&#45;&gt;node9:prev</title>
<path fill="none" stroke="#1c86ee" d="M987,-47.44C987,52.22 862.65,-37.44 763,-37.44 241,-37.44 241,-37.44 241,-37.44 144.95,-37.44 25.95,45.85 17.48,-37.36"/>
<polygon fill="#1c86ee" stroke="#1c86ee" points="13.98,-37.28 17,-47.44 20.97,-37.62 13.98,-37.28"/>
</g>
<!-- node4 -->
<g id="node3" class="node">
<title>node4</title>
<polygon fill="#ebebeb" stroke="transparent" points="841,-92.44 841,-113.44 891,-113.44 891,-92.44 841,-92.44"/>
<polygon fill="none" stroke="black" points="841,-92.44 841,-113.44 891,-113.44 891,-92.44 841,-92.44"/>
<text text-anchor="start" x="861" y="-99.24" font-family="Times,serif" font-size="14.00">4</text>
<polygon fill="none" stroke="crimson" points="841,-70.44 841,-91.44 857,-91.44 857,-70.44 841,-70.44"/>
<text text-anchor="start" x="844" y="-77.24" font-family="Times,serif" font-size="14.00">1</text>
<polygon fill="lightsalmon" stroke="transparent" points="858,-70.44 858,-91.44 874,-91.44 874,-70.44 858,-70.44"/>
<polygon fill="none" stroke="black" points="858,-70.44 858,-91.44 874,-91.44 874,-70.44 858,-70.44"/>
<text text-anchor="start" x="861" y="-77.24" font-family="Times,serif" font-size="14.00">4</text>
<polygon fill="none" stroke="#1c86ee" points="875,-70.44 875,-91.44 891,-91.44 891,-70.44 875,-70.44"/>
<text text-anchor="start" x="878" y="-77.24" font-family="Times,serif" font-size="14.00">7</text>
</g>
<!-- node7&#45;&gt;node4 -->
<g id="edge3" class="edge">
<title>node7:index&#45;&gt;node4:index</title>
<path fill="none" stroke="crimson" d="M944,-81.44C922.83,-81.44 918.23,-97.1 902.24,-101.99"/>
<polygon fill="crimson" stroke="crimson" points="901.41,-98.58 892,-103.44 902.39,-105.51 901.41,-98.58"/>
</g>
<!-- node4&#45;&gt;node7 -->
<g id="edge4" class="edge">
<title>node4:next&#45;&gt;node7:prev</title>
<path fill="none" stroke="#1c86ee" d="M892,-80.44C913.17,-80.44 917.77,-64.78 933.76,-59.88"/>
<polygon fill="#1c86ee" stroke="#1c86ee" points="934.59,-63.3 944,-58.44 933.61,-56.37 934.59,-63.3"/>
</g>
<!-- node1 -->
<g id="node4" class="node">
<title>node1</title>
<polygon fill="#ebebeb" stroke="transparent" points="737,-92.44 737,-113.44 787,-113.44 787,-92.44 737,-92.44"/>
<polygon fill="none" stroke="black" points="737,-92.44 737,-113.44 787,-113.44 787,-92.44 737,-92.44"/>
<text text-anchor="start" x="757" y="-99.24" font-family="Times,serif" font-size="14.00">1</text>
<polygon fill="none" stroke="crimson" points="737,-70.44 737,-91.44 753,-91.44 753,-70.44 737,-70.44"/>
<text text-anchor="start" x="740" y="-77.24" font-family="Times,serif" font-size="14.00">2</text>
<polygon fill="lightsalmon" stroke="transparent" points="754,-70.44 754,-91.44 770,-91.44 770,-70.44 754,-70.44"/>
<polygon fill="none" stroke="black" points="754,-70.44 754,-91.44 770,-91.44 770,-70.44 754,-70.44"/>
<text text-anchor="start" x="757" y="-77.24" font-family="Times,serif" font-size="14.00">1</text>
<polygon fill="none" stroke="#1c86ee" points="771,-70.44 771,-91.44 787,-91.44 787,-70.44 771,-70.44"/>
<text text-anchor="start" x="774" y="-77.24" font-family="Times,serif" font-size="14.00">4</text>
</g>
<!-- node4&#45;&gt;node1 -->
<g id="edge5" class="edge">
<title>node4:index&#45;&gt;node1:index</title>
<path fill="none" stroke="crimson" d="M840,-103.44C820.68,-103.44 813.47,-103.44 798.13,-103.44"/>
<polygon fill="crimson" stroke="crimson" points="798,-99.94 788,-103.44 798,-106.94 798,-99.94"/>
</g>
<!-- node1&#45;&gt;node4 -->
<g id="edge6" class="edge">
<title>node1:next&#45;&gt;node4:prev</title>
<path fill="none" stroke="#1c86ee" d="M788,-80.44C807.32,-80.44 814.53,-80.44 829.87,-80.44"/>
<polygon fill="#1c86ee" stroke="#1c86ee" points="830,-83.94 840,-80.44 830,-76.94 830,-83.94"/>
</g>
<!-- node2 -->
<g id="node5" class="node">
<title>node2</title>
<polygon fill="#ebebeb" stroke="transparent" points="633,-92.44 633,-113.44 683,-113.44 683,-92.44 633,-92.44"/>
<polygon fill="none" stroke="black" points="633,-92.44 633,-113.44 683,-113.44 683,-92.44 633,-92.44"/>
<text text-anchor="start" x="653" y="-99.24" font-family="Times,serif" font-size="14.00">2</text>
<polygon fill="none" stroke="crimson" points="633,-70.44 633,-91.44 649,-91.44 649,-70.44 633,-70.44"/>
<text text-anchor="start" x="636" y="-77.24" font-family="Times,serif" font-size="14.00">3</text>
<polygon fill="lightsalmon" stroke="transparent" points="650,-70.44 650,-91.44 666,-91.44 666,-70.44 650,-70.44"/>
<polygon fill="none" stroke="black" points="650,-70.44 650,-91.44 666,-91.44 666,-70.44 650,-70.44"/>
<text text-anchor="start" x="653" y="-77.24" font-family="Times,serif" font-size="14.00">2</text>
<polygon fill="none" stroke="#1c86ee" points="667,-70.44 667,-91.44 683,-91.44 683,-70.44 667,-70.44"/>
<text text-anchor="start" x="670" y="-77.24" font-family="Times,serif" font-size="14.00">1</text>
</g>
<!-- node1&#45;&gt;node2 -->
<g id="edge7" class="edge">
<title>node1:index&#45;&gt;node2:index</title>
<path fill="none" stroke="crimson" d="M736,-103.44C716.68,-103.44 709.47,-103.44 694.13,-103.44"/>
<polygon fill="crimson" stroke="crimson" points="694,-99.94 684,-103.44 694,-106.94 694,-99.94"/>
</g>
<!-- node2&#45;&gt;node1 -->
<g id="edge8" class="edge">
<title>node2:next&#45;&gt;node1:prev</title>
<path fill="none" stroke="#1c86ee" d="M684,-80.44C703.32,-80.44 710.53,-80.44 725.87,-80.44"/>
<polygon fill="#1c86ee" stroke="#1c86ee" points="726,-83.94 736,-80.44 726,-76.94 726,-83.94"/>
</g>
<!-- node3 -->
<g id="node6" class="node">
<title>node3</title>
<polygon fill="#ebebeb" stroke="transparent" points="529,-92.44 529,-113.44 579,-113.44 579,-92.44 529,-92.44"/>
<polygon fill="none" stroke="black" points="529,-92.44 529,-113.44 579,-113.44 579,-92.44 529,-92.44"/>
<text text-anchor="start" x="549" y="-99.24" font-family="Times,serif" font-size="14.00">3</text>
<polygon fill="none" stroke="crimson" points="529,-70.44 529,-91.44 545,-91.44 545,-70.44 529,-70.44"/>
<text text-anchor="start" x="532" y="-77.24" font-family="Times,serif" font-size="14.00">5</text>
<polygon fill="lightsalmon" stroke="transparent" points="546,-70.44 546,-91.44 562,-91.44 562,-70.44 546,-70.44"/>
<polygon fill="none" stroke="black" points="546,-70.44 546,-91.44 562,-91.44 562,-70.44 546,-70.44"/>
<text text-anchor="start" x="549" y="-77.24" font-family="Times,serif" font-size="14.00">3</text>
<polygon fill="none" stroke="#1c86ee" points="563,-70.44 563,-91.44 579,-91.44 579,-70.44 563,-70.44"/>
<text text-anchor="start" x="566" y="-77.24" font-family="Times,serif" font-size="14.00">2</text>
</g>
<!-- node2&#45;&gt;node3 -->
<g id="edge9" class="edge">
<title>node2:index&#45;&gt;node3:index</title>
<path fill="none" stroke="crimson" d="M632,-103.44C612.68,-103.44 605.47,-103.44 590.13,-103.44"/>
<polygon fill="crimson" stroke="crimson" points="590,-99.94 580,-103.44 590,-106.94 590,-99.94"/>
</g>
<!-- node3&#45;&gt;node2 -->
<g id="edge10" class="edge">
<title>node3:next&#45;&gt;node2:prev</title>
<path fill="none" stroke="#1c86ee" d="M580,-80.44C599.32,-80.44 606.53,-80.44 621.87,-80.44"/>
<polygon fill="#1c86ee" stroke="#1c86ee" points="622,-83.94 632,-80.44 622,-76.94 622,-83.94"/>
</g>
<!-- node5 -->
<g id="node7" class="node">
<title>node5</title>
<polygon fill="#ebebeb" stroke="transparent" points="425,-92.44 425,-113.44 475,-113.44 475,-92.44 425,-92.44"/>
<polygon fill="none" stroke="black" points="425,-92.44 425,-113.44 475,-113.44 475,-92.44 425,-92.44"/>
<text text-anchor="start" x="445" y="-99.24" font-family="Times,serif" font-size="14.00">5</text>
<polygon fill="none" stroke="crimson" points="425,-70.44 425,-91.44 441,-91.44 441,-70.44 425,-70.44"/>
<text text-anchor="start" x="428" y="-77.24" font-family="Times,serif" font-size="14.00">6</text>
<polygon fill="lightsalmon" stroke="transparent" points="442,-70.44 442,-91.44 458,-91.44 458,-70.44 442,-70.44"/>
<polygon fill="none" stroke="black" points="442,-70.44 442,-91.44 458,-91.44 458,-70.44 442,-70.44"/>
<text text-anchor="start" x="445" y="-77.24" font-family="Times,serif" font-size="14.00">5</text>
<polygon fill="none" stroke="#1c86ee" points="459,-70.44 459,-91.44 475,-91.44 475,-70.44 459,-70.44"/>
<text text-anchor="start" x="462" y="-77.24" font-family="Times,serif" font-size="14.00">3</text>
</g>
<!-- node3&#45;&gt;node5 -->
<g id="edge11" class="edge">
<title>node3:index&#45;&gt;node5:index</title>
<path fill="none" stroke="crimson" d="M528,-103.44C508.68,-103.44 501.47,-103.44 486.13,-103.44"/>
<polygon fill="crimson" stroke="crimson" points="486,-99.94 476,-103.44 486,-106.94 486,-99.94"/>
</g>
<!-- node5&#45;&gt;node3 -->
<g id="edge12" class="edge">
<title>node5:next&#45;&gt;node3:prev</title>
<path fill="none" stroke="#1c86ee" d="M476,-80.44C495.32,-80.44 502.53,-80.44 517.87,-80.44"/>
<polygon fill="#1c86ee" stroke="#1c86ee" points="518,-83.94 528,-80.44 518,-76.94 518,-83.94"/>
</g>
<!-- node6 -->
<g id="node8" class="node">
<title>node6</title>
<polygon fill="#ebebeb" stroke="transparent" points="321,-92.44 321,-113.44 371,-113.44 371,-92.44 321,-92.44"/>
<polygon fill="none" stroke="black" points="321,-92.44 321,-113.44 371,-113.44 371,-92.44 321,-92.44"/>
<text text-anchor="start" x="341" y="-99.24" font-family="Times,serif" font-size="14.00">6</text>
<polygon fill="none" stroke="crimson" points="321,-70.44 321,-91.44 337,-91.44 337,-70.44 321,-70.44"/>
<text text-anchor="start" x="324" y="-77.24" font-family="Times,serif" font-size="14.00">8</text>
<polygon fill="lightsalmon" stroke="transparent" points="338,-70.44 338,-91.44 354,-91.44 354,-70.44 338,-70.44"/>
<polygon fill="none" stroke="black" points="338,-70.44 338,-91.44 354,-91.44 354,-70.44 338,-70.44"/>
<text text-anchor="start" x="341" y="-77.24" font-family="Times,serif" font-size="14.00">6</text>
<polygon fill="none" stroke="#1c86ee" points="355,-70.44 355,-91.44 371,-91.44 371,-70.44 355,-70.44"/>
<text text-anchor="start" x="358" y="-77.24" font-family="Times,serif" font-size="14.00">5</text>
</g>
<!-- node5&#45;&gt;node6 -->
<g id="edge13" class="edge">
<title>node5:index&#45;&gt;node6:index</title>
<path fill="none" stroke="crimson" d="M424,-103.44C404.68,-103.44 397.47,-103.44 382.13,-103.44"/>
<polygon fill="crimson" stroke="crimson" points="382,-99.94 372,-103.44 382,-106.94 382,-99.94"/>
</g>
<!-- node6&#45;&gt;node5 -->
<g id="edge14" class="edge">
<title>node6:next&#45;&gt;node5:prev</title>
<path fill="none" stroke="#1c86ee" d="M372,-80.44C391.32,-80.44 398.53,-80.44 413.87,-80.44"/>
<polygon fill="#1c86ee" stroke="#1c86ee" points="414,-83.94 424,-80.44 414,-76.94 414,-83.94"/>
</g>
<!-- node8 -->
<g id="node9" class="node">
<title>node8</title>
<polygon fill="#ebebeb" stroke="transparent" points="217,-92.44 217,-113.44 267,-113.44 267,-92.44 217,-92.44"/>
<polygon fill="none" stroke="black" points="217,-92.44 217,-113.44 267,-113.44 267,-92.44 217,-92.44"/>
<text text-anchor="start" x="237" y="-99.24" font-family="Times,serif" font-size="14.00">8</text>
<polygon fill="none" stroke="crimson" points="217,-70.44 217,-91.44 233,-91.44 233,-70.44 217,-70.44"/>
<text text-anchor="start" x="220" y="-77.24" font-family="Times,serif" font-size="14.00">0</text>
<polygon fill="lightsalmon" stroke="transparent" points="234,-70.44 234,-91.44 250,-91.44 250,-70.44 234,-70.44"/>
<polygon fill="none" stroke="black" points="234,-70.44 234,-91.44 250,-91.44 250,-70.44 234,-70.44"/>
<text text-anchor="start" x="237" y="-77.24" font-family="Times,serif" font-size="14.00">8</text>
<polygon fill="none" stroke="#1c86ee" points="251,-70.44 251,-91.44 267,-91.44 267,-70.44 251,-70.44"/>
<text text-anchor="start" x="254" y="-77.24" font-family="Times,serif" font-size="14.00">6</text>
</g>
<!-- node6&#45;&gt;node8 -->
<g id="edge15" class="edge">
<title>node6:index&#45;&gt;node8:index</title>
<path fill="none" stroke="crimson" d="M320,-103.44C300.68,-103.44 293.47,-103.44 278.13,-103.44"/>
<polygon fill="crimson" stroke="crimson" points="278,-99.94 268,-103.44 278,-106.94 278,-99.94"/>
</g>
<!-- node8&#45;&gt;node6 -->
<g id="edge16" class="edge">
<title>node8:next&#45;&gt;node6:prev</title>
<path fill="none" stroke="#1c86ee" d="M268,-80.44C287.32,-80.44 294.53,-80.44 309.87,-80.44"/>
<polygon fill="#1c86ee" stroke="#1c86ee" points="310,-83.94 320,-80.44 310,-76.94 310,-83.94"/>
</g>
<!-- node8&#45;&gt;node0 -->
<g id="edge17" class="edge">
<title>node8:index&#45;&gt;node0:index</title>
<path fill="none" stroke="crimson" d="M216,-103.44C196.68,-103.44 189.47,-103.44 174.13,-103.44"/>
<polygon fill="crimson" stroke="crimson" points="174,-99.94 164,-103.44 174,-106.94 174,-99.94"/>
</g>
<!-- node0&#45;&gt;node9 -->
<g id="edge19" class="edge">
<title>node0:index&#45;&gt;node9:index</title>
<path fill="none" stroke="crimson" d="M112,-103.44C90.83,-103.44 86.23,-87.78 70.24,-82.88"/>
<polygon fill="crimson" stroke="crimson" points="70.39,-79.37 60,-81.44 69.41,-86.3 70.39,-79.37"/>
</g>
<!-- node0&#45;&gt;node8 -->
<g id="edge18" class="edge">
<title>node0:next&#45;&gt;node8:prev</title>
<path fill="none" stroke="#1c86ee" d="M164,-80.44C183.32,-80.44 190.53,-80.44 205.87,-80.44"/>
<polygon fill="#1c86ee" stroke="#1c86ee" points="206,-83.94 216,-80.44 206,-76.94 206,-83.94"/>
</g>
</g>
</svg>
