<?xml version="1.0" encoding="UTF-8" standalone="no"?>
<!DOCTYPE svg PUBLIC "-//W3C//DTD SVG 1.1//EN"
 "http://www.w3.org/Graphics/SVG/1.1/DTD/svg11.dtd">
<!-- Generated by graphviz version 2.43.0 (0)
 -->
<!-- Title: list Pages: 1 -->
<svg width="364pt" height="347pt"
 viewBox="0.00 0.00 364.47 346.68" xmlns="http://www.w3.org/2000/svg" xmlns:xlink="http://www.w3.org/1999/xlink">
<g id="graph0" class="graph" transform="scale(1 1) rotate(0) translate(4 342.68)">
<title>list</title>
<polygon fill="white" stroke="transparent" points="-4,4 -4,-342.68 360.47,-342.68 360.47,4 -4,4"/>
<!-- node10 -->
<g id="node1" class="node">
<title>node10</title>
<polygon fill="#f2f2f2" stroke="transparent" points="9.5,-133.07 9.5,-154.07 68.5,-154.07 68.5,-133.07 9.5,-133.07"/>
<polygon fill="none" stroke="black" points="9.5,-133.07 9.5,-154.07 68.5,-154.07 68.5,-133.07 9.5,-133.07"/>
<text text-anchor="start" x="29.5" y="-139.87" font-family="Times,serif" font-size="14.00">10</text>
<polygon fill="none" stroke="#1c86ee" points="9.5,-111.07 9.5,-132.07 25.5,-132.07 25.5,-111.07 9.5,-111.07"/>
<text text-anchor="start" x="12.5" y="-117.87" font-family="Times,serif" font-size="14.00">0</text>
<polygon fill="none" stroke="#528b8b" points="26.5,-111.07 26.5,-132.07 51.5,-132.07 51.5,-111.07 26.5,-111.07"/>
<text text-anchor="start" x="29.5" y="-117.87" font-family="Times,serif" font-size="14.00">10</text>
<polygon fill="none" stroke="crimson" points="52.5,-111.07 52.5,-132.07 68.5,-132.07 68.5,-111.07 52.5,-111.07"/>
<text text-anchor="start" x="55.5" y="-117.87" font-family="Times,serif" font-size="14.00">7</text>
</g>
<!-- node7 -->
<g id="node2" class="node">
<title>node7</title>
<polygon fill="#f2f2f2" stroke="transparent" points="12.53,-214.27 12.53,-235.27 71.53,-235.27 71.53,-214.27 12.53,-214.27"/>
<polygon fill="none" stroke="black" points="12.53,-214.27 12.53,-235.27 71.53,-235.27 71.53,-214.27 12.53,-214.27"/>
<text text-anchor="start" x="37.03" y="-221.07" font-family="Times,serif" font-size="14.00">7</text>
<polygon fill="none" stroke="#1c86ee" points="12.53,-192.27 12.53,-213.27 37.53,-213.27 37.53,-192.27 12.53,-192.27"/>
<text text-anchor="start" x="15.53" y="-199.07" font-family="Times,serif" font-size="14.00">10</text>
<polygon fill="none" stroke="#528b8b" points="38.53,-192.27 38.53,-213.27 54.53,-213.27 54.53,-192.27 38.53,-192.27"/>
<text text-anchor="start" x="41.53" y="-199.07" font-family="Times,serif" font-size="14.00">7</text>
<polygon fill="none" stroke="crimson" points="55.53,-192.27 55.53,-213.27 71.53,-213.27 71.53,-192.27 55.53,-192.27"/>
<text text-anchor="start" x="58.53" y="-199.07" font-family="Times,serif" font-size="14.00">5</text>
</g>
<!-- node10&#45;&gt;node7 -->
<g id="edge1" class="edge">
<title>node10:next&#45;&gt;node7:index</title>
<path fill="none" stroke="crimson" d="M68.5,-121.07C68.5,-121.07 30.84,-191.19 17.3,-216.39"/>
<polygon fill="crimson" stroke="crimson" points="14.18,-214.81 12.53,-225.27 20.35,-218.12 14.18,-214.81"/>
</g>
<!-- node0 -->
<g id="node3" class="node">
<title>node0</title>
<polygon fill="#f2f2f2" stroke="transparent" points="50.86,-63.11 50.86,-84.11 109.86,-84.11 109.86,-63.11 50.86,-63.11"/>
<polygon fill="none" stroke="black" points="50.86,-63.11 50.86,-84.11 109.86,-84.11 109.86,-63.11 50.86,-63.11"/>
<text text-anchor="start" x="75.36" y="-69.91" font-family="Times,serif" font-size="14.00">0</text>
<polygon fill="none" stroke="#1c86ee" points="50.86,-41.11 50.86,-62.11 66.86,-62.11 66.86,-41.11 50.86,-41.11"/>
<text text-anchor="start" x="53.86" y="-47.91" font-family="Times,serif" font-size="14.00">9</text>
<polygon fill="none" stroke="#528b8b" points="67.86,-41.11 67.86,-62.11 83.86,-62.11 83.86,-41.11 67.86,-41.11"/>
<text text-anchor="start" x="70.86" y="-47.91" font-family="Times,serif" font-size="14.00">0</text>
<polygon fill="none" stroke="crimson" points="84.86,-41.11 84.86,-62.11 109.86,-62.11 109.86,-41.11 84.86,-41.11"/>
<text text-anchor="start" x="87.86" y="-47.91" font-family="Times,serif" font-size="14.00">10</text>
</g>
<!-- node10&#45;&gt;node0 -->
<g id="edge2" class="edge">
<title>node10:prev&#45;&gt;node0:index</title>
<path fill="none" stroke="#1c86ee" d="M17.5,-111.07C17.5,-111.07 34.36,-92.39 44.11,-81.59"/>
<polygon fill="#1c86ee" stroke="#1c86ee" points="46.76,-83.88 50.86,-74.11 41.56,-79.19 46.76,-83.88"/>
</g>
<!-- node7&#45;&gt;node10 -->
<g id="edge4" class="edge">
<title>node7:prev&#45;&gt;node10:index</title>
<path fill="none" stroke="#1c86ee" d="M24.53,-192.27C24.53,-192.27 31.29,-175.03 35.72,-163.71"/>
<polygon fill="#1c86ee" stroke="#1c86ee" points="39.11,-164.66 39.5,-154.07 32.59,-162.1 39.11,-164.66"/>
</g>
<!-- node5 -->
<g id="node4" class="node">
<title>node5</title>
<polygon fill="#f2f2f2" stroke="transparent" points="62.79,-281.08 62.79,-302.08 112.79,-302.08 112.79,-281.08 62.79,-281.08"/>
<polygon fill="none" stroke="black" points="62.79,-281.08 62.79,-302.08 112.79,-302.08 112.79,-281.08 62.79,-281.08"/>
<text text-anchor="start" x="82.79" y="-287.88" font-family="Times,serif" font-size="14.00">5</text>
<polygon fill="none" stroke="#1c86ee" points="62.79,-259.08 62.79,-280.08 78.79,-280.08 78.79,-259.08 62.79,-259.08"/>
<text text-anchor="start" x="65.79" y="-265.88" font-family="Times,serif" font-size="14.00">7</text>
<polygon fill="none" stroke="#528b8b" points="79.79,-259.08 79.79,-280.08 95.79,-280.08 95.79,-259.08 79.79,-259.08"/>
<text text-anchor="start" x="82.79" y="-265.88" font-family="Times,serif" font-size="14.00">5</text>
<polygon fill="none" stroke="crimson" points="96.79,-259.08 96.79,-280.08 112.79,-280.08 112.79,-259.08 96.79,-259.08"/>
<text text-anchor="start" x="99.79" y="-265.88" font-family="Times,serif" font-size="14.00">3</text>
</g>
<!-- node7&#45;&gt;node5 -->
<g id="edge3" class="edge">
<title>node7:next&#45;&gt;node5:index</title>
<path fill="none" stroke="crimson" d="M71.53,-202.27C71.53,-202.27 66.04,-258.74 63.76,-282.12"/>
<polygon fill="crimson" stroke="crimson" points="60.28,-281.79 62.79,-292.08 67.25,-282.46 60.28,-281.79"/>
</g>
<!-- node0&#45;&gt;node10 -->
<g id="edge21" class="edge">
<title>node0:next&#45;&gt;node10:index</title>
<path fill="none" stroke="crimson" d="M109.86,-51.11C109.86,-51.11 83.08,-111.3 72.62,-134.82"/>
<polygon fill="crimson" stroke="crimson" points="69.37,-133.51 68.5,-144.07 75.76,-136.36 69.37,-133.51"/>
</g>
<!-- node9 -->
<g id="node11" class="node">
<title>node9</title>
<polygon fill="#f2f2f2" stroke="transparent" points="127.41,-26.5 127.41,-47.5 177.41,-47.5 177.41,-26.5 127.41,-26.5"/>
<polygon fill="none" stroke="black" points="127.41,-26.5 127.41,-47.5 177.41,-47.5 177.41,-26.5 127.41,-26.5"/>
<text text-anchor="start" x="147.41" y="-33.3" font-family="Times,serif" font-size="14.00">9</text>
<polygon fill="none" stroke="#1c86ee" points="127.41,-4.5 127.41,-25.5 143.41,-25.5 143.41,-4.5 127.41,-4.5"/>
<text text-anchor="start" x="130.41" y="-11.3" font-family="Times,serif" font-size="14.00">8</text>
<polygon fill="none" stroke="#528b8b" points="144.41,-4.5 144.41,-25.5 160.41,-25.5 160.41,-4.5 144.41,-4.5"/>
<text text-anchor="start" x="147.41" y="-11.3" font-family="Times,serif" font-size="14.00">9</text>
<polygon fill="none" stroke="crimson" points="161.41,-4.5 161.41,-25.5 177.41,-25.5 177.41,-4.5 161.41,-4.5"/>
<text text-anchor="start" x="164.41" y="-11.3" font-family="Times,serif" font-size="14.00">0</text>
</g>
<!-- node0&#45;&gt;node9 -->
<g id="edge22" class="edge">
<title>node0:prev&#45;&gt;node9:index</title>
<path fill="none" stroke="#1c86ee" d="M58.86,-41.11C58.86,-41.11 98.23,-39.04 117.3,-38.03"/>
<polygon fill="#1c86ee" stroke="#1c86ee" points="117.61,-41.52 127.41,-37.5 117.24,-34.53 117.61,-41.52"/>
</g>
<!-- node5&#45;&gt;node7 -->
<g id="edge6" class="edge">
<title>node5:prev&#45;&gt;node7:index</title>
<path fill="none" stroke="#1c86ee" d="M70.79,-259.08C70.79,-259.08 71.09,-245.54 71.31,-235.6"/>
<polygon fill="#1c86ee" stroke="#1c86ee" points="74.81,-235.35 71.53,-225.27 67.81,-235.19 74.81,-235.35"/>
</g>
<!-- node3 -->
<g id="node5" class="node">
<title>node3</title>
<polygon fill="#f2f2f2" stroke="transparent" points="137.93,-312.18 137.93,-333.18 187.93,-333.18 187.93,-312.18 137.93,-312.18"/>
<polygon fill="none" stroke="black" points="137.93,-312.18 137.93,-333.18 187.93,-333.18 187.93,-312.18 137.93,-312.18"/>
<text text-anchor="start" x="157.93" y="-318.98" font-family="Times,serif" font-size="14.00">3</text>
<polygon fill="none" stroke="#1c86ee" points="137.93,-290.18 137.93,-311.18 153.93,-311.18 153.93,-290.18 137.93,-290.18"/>
<text text-anchor="start" x="140.93" y="-296.98" font-family="Times,serif" font-size="14.00">5</text>
<polygon fill="none" stroke="#528b8b" points="154.93,-290.18 154.93,-311.18 170.93,-311.18 170.93,-290.18 154.93,-290.18"/>
<text text-anchor="start" x="157.93" y="-296.98" font-family="Times,serif" font-size="14.00">3</text>
<polygon fill="none" stroke="crimson" points="171.93,-290.18 171.93,-311.18 187.93,-311.18 187.93,-290.18 171.93,-290.18"/>
<text text-anchor="start" x="174.93" y="-296.98" font-family="Times,serif" font-size="14.00">1</text>
</g>
<!-- node5&#45;&gt;node3 -->
<g id="edge5" class="edge">
<title>node5:next&#45;&gt;node3:index</title>
<path fill="none" stroke="crimson" d="M112.79,-269.08C112.79,-269.08 126.35,-298.25 133.55,-313.75"/>
<polygon fill="crimson" stroke="crimson" points="130.54,-315.58 137.93,-323.18 136.89,-312.63 130.54,-315.58"/>
</g>
<!-- node3&#45;&gt;node5 -->
<g id="edge8" class="edge">
<title>node3:prev&#45;&gt;node5:index</title>
<path fill="none" stroke="#1c86ee" d="M137.93,-300.18C137.93,-300.18 129.53,-297.47 122.44,-295.19"/>
<polygon fill="#1c86ee" stroke="#1c86ee" points="123.38,-291.81 112.79,-292.08 121.24,-298.48 123.38,-291.81"/>
</g>
<!-- node1 -->
<g id="node6" class="node">
<title>node1</title>
<polygon fill="#f2f2f2" stroke="transparent" points="217.8,-297.08 217.8,-318.08 267.8,-318.08 267.8,-297.08 217.8,-297.08"/>
<polygon fill="none" stroke="black" points="217.8,-297.08 217.8,-318.08 267.8,-318.08 267.8,-297.08 217.8,-297.08"/>
<text text-anchor="start" x="237.8" y="-303.88" font-family="Times,serif" font-size="14.00">1</text>
<polygon fill="none" stroke="#1c86ee" points="217.8,-275.08 217.8,-296.08 233.8,-296.08 233.8,-275.08 217.8,-275.08"/>
<text text-anchor="start" x="220.8" y="-281.88" font-family="Times,serif" font-size="14.00">3</text>
<polygon fill="none" stroke="#528b8b" points="234.8,-275.08 234.8,-296.08 250.8,-296.08 250.8,-275.08 234.8,-275.08"/>
<text text-anchor="start" x="237.8" y="-281.88" font-family="Times,serif" font-size="14.00">1</text>
<polygon fill="none" stroke="crimson" points="251.8,-275.08 251.8,-296.08 267.8,-296.08 267.8,-275.08 251.8,-275.08"/>
<text text-anchor="start" x="254.8" y="-281.88" font-family="Times,serif" font-size="14.00">2</text>
</g>
<!-- node3&#45;&gt;node1 -->
<g id="edge7" class="edge">
<title>node3:next&#45;&gt;node1:index</title>
<path fill="none" stroke="crimson" d="M187.93,-300.18C187.93,-300.18 199.31,-303.19 208.02,-305.49"/>
<polygon fill="crimson" stroke="crimson" points="207.23,-308.91 217.8,-308.08 209.02,-302.14 207.23,-308.91"/>
</g>
<!-- node1&#45;&gt;node3 -->
<g id="edge10" class="edge">
<title>node1:prev&#45;&gt;node3:index</title>
<path fill="none" stroke="#1c86ee" d="M217.8,-285.08C217.8,-285.08 203.03,-303.91 194.26,-315.1"/>
<polygon fill="#1c86ee" stroke="#1c86ee" points="191.35,-313.15 187.93,-323.18 196.85,-317.47 191.35,-313.15"/>
</g>
<!-- node2 -->
<g id="node7" class="node">
<title>node2</title>
<polygon fill="#f2f2f2" stroke="transparent" points="277.1,-241.59 277.1,-262.59 327.1,-262.59 327.1,-241.59 277.1,-241.59"/>
<polygon fill="none" stroke="black" points="277.1,-241.59 277.1,-262.59 327.1,-262.59 327.1,-241.59 277.1,-241.59"/>
<text text-anchor="start" x="297.1" y="-248.39" font-family="Times,serif" font-size="14.00">2</text>
<polygon fill="none" stroke="#1c86ee" points="277.1,-219.59 277.1,-240.59 293.1,-240.59 293.1,-219.59 277.1,-219.59"/>
<text text-anchor="start" x="280.1" y="-226.39" font-family="Times,serif" font-size="14.00">1</text>
<polygon fill="none" stroke="#528b8b" points="294.1,-219.59 294.1,-240.59 310.1,-240.59 310.1,-219.59 294.1,-219.59"/>
<text text-anchor="start" x="297.1" y="-226.39" font-family="Times,serif" font-size="14.00">2</text>
<polygon fill="none" stroke="crimson" points="311.1,-219.59 311.1,-240.59 327.1,-240.59 327.1,-219.59 311.1,-219.59"/>
<text text-anchor="start" x="314.1" y="-226.39" font-family="Times,serif" font-size="14.00">4</text>
</g>
<!-- node1&#45;&gt;node2 -->
<g id="edge9" class="edge">
<title>node1:next&#45;&gt;node2:index</title>
<path fill="none" stroke="crimson" d="M259.8,-275.08C259.8,-275.08 265.9,-267.15 270.86,-260.71"/>
<polygon fill="crimson" stroke="crimson" points="273.78,-262.65 277.1,-252.59 268.23,-258.38 273.78,-262.65"/>
</g>
<!-- node2&#45;&gt;node1 -->
<g id="edge12" class="edge">
<title>node2:prev&#45;&gt;node1:index</title>
<path fill="none" stroke="#1c86ee" d="M277.1,-229.59C277.1,-229.59 271.48,-277.02 268.98,-298.14"/>
<polygon fill="#1c86ee" stroke="#1c86ee" points="265.5,-297.74 267.8,-308.08 272.45,-298.56 265.5,-297.74"/>
</g>
<!-- node4 -->
<g id="node8" class="node">
<title>node4</title>
<polygon fill="#f2f2f2" stroke="transparent" points="297.47,-162.9 297.47,-183.9 347.47,-183.9 347.47,-162.9 297.47,-162.9"/>
<polygon fill="none" stroke="black" points="297.47,-162.9 297.47,-183.9 347.47,-183.9 347.47,-162.9 297.47,-162.9"/>
<text text-anchor="start" x="317.47" y="-169.7" font-family="Times,serif" font-size="14.00">4</text>
<polygon fill="none" stroke="#1c86ee" points="297.47,-140.9 297.47,-161.9 313.47,-161.9 313.47,-140.9 297.47,-140.9"/>
<text text-anchor="start" x="300.47" y="-147.7" font-family="Times,serif" font-size="14.00">2</text>
<polygon fill="none" stroke="#528b8b" points="314.47,-140.9 314.47,-161.9 330.47,-161.9 330.47,-140.9 314.47,-140.9"/>
<text text-anchor="start" x="317.47" y="-147.7" font-family="Times,serif" font-size="14.00">4</text>
<polygon fill="none" stroke="crimson" points="331.47,-140.9 331.47,-161.9 347.47,-161.9 347.47,-140.9 331.47,-140.9"/>
<text text-anchor="start" x="334.47" y="-147.7" font-family="Times,serif" font-size="14.00">6</text>
</g>
<!-- node2&#45;&gt;node4 -->
<g id="edge11" class="edge">
<title>node2:next&#45;&gt;node4:index</title>
<path fill="none" stroke="crimson" d="M319.1,-219.59C319.1,-219.59 320.52,-204.58 321.51,-194.03"/>
<polygon fill="crimson" stroke="crimson" points="325.01,-194.18 322.47,-183.9 318.05,-193.52 325.01,-194.18"/>
</g>
<!-- node4&#45;&gt;node2 -->
<g id="edge14" class="edge">
<title>node4:prev&#45;&gt;node2:index</title>
<path fill="none" stroke="#1c86ee" d="M297.47,-150.9C297.47,-150.9 316.85,-217.39 324.26,-242.84"/>
<polygon fill="#1c86ee" stroke="#1c86ee" points="320.95,-243.97 327.1,-252.59 327.67,-242.01 320.95,-243.97"/>
</g>
<!-- node6 -->
<g id="node9" class="node">
<title>node6</title>
<polygon fill="#f2f2f2" stroke="transparent" points="271.57,-85.84 271.57,-106.84 321.57,-106.84 321.57,-85.84 271.57,-85.84"/>
<polygon fill="none" stroke="black" points="271.57,-85.84 271.57,-106.84 321.57,-106.84 321.57,-85.84 271.57,-85.84"/>
<text text-anchor="start" x="291.57" y="-92.64" font-family="Times,serif" font-size="14.00">6</text>
<polygon fill="none" stroke="#1c86ee" points="271.57,-63.84 271.57,-84.84 287.57,-84.84 287.57,-63.84 271.57,-63.84"/>
<text text-anchor="start" x="274.57" y="-70.64" font-family="Times,serif" font-size="14.00">4</text>
<polygon fill="none" stroke="#528b8b" points="288.57,-63.84 288.57,-84.84 304.57,-84.84 304.57,-63.84 288.57,-63.84"/>
<text text-anchor="start" x="291.57" y="-70.64" font-family="Times,serif" font-size="14.00">6</text>
<polygon fill="none" stroke="crimson" points="305.57,-63.84 305.57,-84.84 321.57,-84.84 321.57,-63.84 305.57,-63.84"/>
<text text-anchor="start" x="308.57" y="-70.64" font-family="Times,serif" font-size="14.00">8</text>
</g>
<!-- node4&#45;&gt;node6 -->
<g id="edge13" class="edge">
<title>node4:next&#45;&gt;node6:index</title>
<path fill="none" stroke="crimson" d="M339.47,-140.9C339.47,-140.9 316.82,-122.92 304.44,-113.09"/>
<polygon fill="crimson" stroke="crimson" points="306.58,-110.32 296.57,-106.84 302.23,-115.8 306.58,-110.32"/>
</g>
<!-- node6&#45;&gt;node4 -->
<g id="edge16" class="edge">
<title>node6:prev&#45;&gt;node4:index</title>
<path fill="none" stroke="#1c86ee" d="M271.57,-73.84C271.57,-73.84 288.34,-138.63 294.89,-163.94"/>
<polygon fill="#1c86ee" stroke="#1c86ee" points="291.57,-165.09 297.47,-173.9 298.35,-163.34 291.57,-165.09"/>
</g>
<!-- node8 -->
<g id="node10" class="node">
<title>node8</title>
<polygon fill="#f2f2f2" stroke="transparent" points="208.26,-34.86 208.26,-55.86 258.26,-55.86 258.26,-34.86 208.26,-34.86"/>
<polygon fill="none" stroke="black" points="208.26,-34.86 208.26,-55.86 258.26,-55.86 258.26,-34.86 208.26,-34.86"/>
<text text-anchor="start" x="228.26" y="-41.66" font-family="Times,serif" font-size="14.00">8</text>
<polygon fill="none" stroke="#1c86ee" points="208.26,-12.86 208.26,-33.86 224.26,-33.86 224.26,-12.86 208.26,-12.86"/>
<text text-anchor="start" x="211.26" y="-19.66" font-family="Times,serif" font-size="14.00">6</text>
<polygon fill="none" stroke="#528b8b" points="225.26,-12.86 225.26,-33.86 241.26,-33.86 241.26,-12.86 225.26,-12.86"/>
<text text-anchor="start" x="228.26" y="-19.66" font-family="Times,serif" font-size="14.00">8</text>
<polygon fill="none" stroke="crimson" points="242.26,-12.86 242.26,-33.86 258.26,-33.86 258.26,-12.86 242.26,-12.86"/>
<text text-anchor="start" x="245.26" y="-19.66" font-family="Times,serif" font-size="14.00">9</text>
</g>
<!-- node6&#45;&gt;node8 -->
<g id="edge15" class="edge">
<title>node6:next&#45;&gt;node8:index</title>
<path fill="none" stroke="crimson" d="M313.57,-63.84C313.57,-63.84 283.75,-54.14 267.9,-48.99"/>
<polygon fill="crimson" stroke="crimson" points="268.86,-45.62 258.26,-45.86 266.69,-52.28 268.86,-45.62"/>
</g>
<!-- node8&#45;&gt;node6 -->
<g id="edge18" class="edge">
<title>node8:prev&#45;&gt;node6:index</title>
<path fill="none" stroke="#1c86ee" d="M208.26,-22.86C208.26,-22.86 248.86,-70.3 265.04,-89.2"/>
<polygon fill="#1c86ee" stroke="#1c86ee" points="262.41,-91.52 271.57,-96.84 267.73,-86.97 262.41,-91.52"/>
</g>
<!-- node8&#45;&gt;node9 -->
<g id="edge17" class="edge">
<title>node8:next&#45;&gt;node9:index</title>
<path fill="none" stroke="crimson" d="M250.26,-12.86C250.26,-12.86 206.68,-27.6 186.94,-34.28"/>
<polygon fill="crimson" stroke="crimson" points="185.76,-30.98 177.41,-37.5 188.01,-37.61 185.76,-30.98"/>
</g>
<!-- node9&#45;&gt;node0 -->
<g id="edge19" class="edge">
<title>node9:next&#45;&gt;node0:index</title>
<path fill="none" stroke="crimson" d="M169.41,-4.5C169.41,-4.5 131.97,-48.27 116.46,-66.39"/>
<polygon fill="crimson" stroke="crimson" points="113.7,-64.23 109.86,-74.11 119.02,-68.79 113.7,-64.23"/>
</g>
<!-- node9&#45;&gt;node8 -->
<g id="edge20" class="edge">
<title>node9:prev&#45;&gt;node8:index</title>
<path fill="none" stroke="#1c86ee" d="M135.41,-4.5C135.41,-4.5 179.88,-29.74 199.33,-40.79"/>
<polygon fill="#1c86ee" stroke="#1c86ee" points="197.84,-43.96 208.26,-45.86 201.3,-37.88 197.84,-43.96"/>
</g>
</g>
</svg>
