<?xml version="1.0" encoding="UTF-8" standalone="no"?>
<!DOCTYPE svg PUBLIC "-//W3C//DTD SVG 1.1//EN"
 "http://www.w3.org/Graphics/SVG/1.1/DTD/svg11.dtd">
<!-- Generated by graphviz version 2.43.0 (0)
 -->
<!-- Title: list Pages: 1 -->
<svg width="1063pt" height="118pt"
 viewBox="0.00 0.00 1063.49 118.00" xmlns="http://www.w3.org/2000/svg" xmlns:xlink="http://www.w3.org/1999/xlink">
<g id="graph0" class="graph" transform="scale(1 1) rotate(0) translate(4 114)">
<title>list</title>
<polygon fill="white" stroke="transparent" points="-4,4 -4,-114 1059.49,-114 1059.49,4 -4,4"/>
<!-- node8 -->
<g id="node1" class="node">
<title>node8</title>
<polygon fill="#ebebeb" stroke="transparent" points="9,-55 9,-76 59,-76 59,-55 9,-55"/>
<polygon fill="none" stroke="black" points="9,-55 9,-76 59,-76 59,-55 9,-55"/>
<text text-anchor="start" x="29" y="-61.8" font-family="Times,serif" font-size="14.00">8</text>
<polygon fill="none" stroke="crimson" points="9,-33 9,-54 25,-54 25,-33 9,-33"/>
<text text-anchor="start" x="12" y="-39.8" font-family="Times,serif" font-size="14.00">0</text>
<polygon fill="lightsalmon" stroke="transparent" points="26,-33 26,-54 42,-54 42,-33 26,-33"/>
<polygon fill="none" stroke="black" points="26,-33 26,-54 42,-54 42,-33 26,-33"/>
<text text-anchor="start" x="29" y="-39.8" font-family="Times,serif" font-size="14.00">8</text>
<polygon fill="none" stroke="#1c86ee" points="43,-33 43,-54 59,-54 59,-33 43,-33"/>
<text text-anchor="start" x="46" y="-39.8" font-family="Times,serif" font-size="14.00">6</text>
</g>
<!-- node6 -->
<g id="node2" class="node">
<title>node6</title>
<polygon fill="#ebebeb" stroke="transparent" points="113,-55 113,-76 163,-76 163,-55 113,-55"/>
<polygon fill="none" stroke="black" points="113,-55 113,-76 163,-76 163,-55 113,-55"/>
<text text-anchor="start" x="133" y="-61.8" font-family="Times,serif" font-size="14.00">6</text>
<polygon fill="none" stroke="crimson" points="113,-33 113,-54 129,-54 129,-33 113,-33"/>
<text text-anchor="start" x="116" y="-39.8" font-family="Times,serif" font-size="14.00">8</text>
<polygon fill="lightsalmon" stroke="transparent" points="130,-33 130,-54 146,-54 146,-33 130,-33"/>
<polygon fill="none" stroke="black" points="130,-33 130,-54 146,-54 146,-33 130,-33"/>
<text text-anchor="start" x="133" y="-39.8" font-family="Times,serif" font-size="14.00">6</text>
<polygon fill="none" stroke="#1c86ee" points="147,-33 147,-54 163,-54 163,-33 147,-33"/>
<text text-anchor="start" x="150" y="-39.8" font-family="Times,serif" font-size="14.00">5</text>
</g>
<!-- node8&#45;&gt;node6 -->
<g id="edge1" class="edge">
<title>node8:next&#45;&gt;node6:index</title>
<path fill="none" stroke="#1c86ee" d="M60,-43C81.32,-43 85.69,-59.37 101.72,-64.49"/>
<polygon fill="#1c86ee" stroke="#1c86ee" points="101.6,-68.01 112,-66 102.61,-61.09 101.6,-68.01"/>
</g>
<!-- node0 -->
<g id="node3" class="node">
<title>node0</title>
<polygon fill="none" stroke="black" points="995.75,-72 935.75,-54 995.75,-36 1055.74,-54 995.75,-72"/>
<text text-anchor="middle" x="995.75" y="-50.3" font-family="Times,serif" font-size="14.00">Fictive</text>
</g>
<!-- node8&#45;&gt;node0 -->
<g id="edge2" class="edge">
<title>node8:prev&#45;&gt;node0</title>
<path fill="none" stroke="black" d="M17,-32C17,-25.11 184.41,0 241,0 241,0 241,0 763,0 824.47,0 840.38,-4.04 900,-19 920.81,-24.22 943.37,-32.45 961.25,-39.61"/>
<polygon fill="black" stroke="black" points="960.08,-42.91 970.66,-43.46 962.73,-36.43 960.08,-42.91"/>
</g>
<!-- node6&#45;&gt;node8 -->
<g id="edge4" class="edge">
<title>node6:prev&#45;&gt;node8:index</title>
<path fill="none" stroke="crimson" d="M112,-43C90.68,-43 86.31,-59.37 70.28,-64.49"/>
<polygon fill="crimson" stroke="crimson" points="69.39,-61.09 60,-66 70.4,-68.01 69.39,-61.09"/>
</g>
<!-- node5 -->
<g id="node4" class="node">
<title>node5</title>
<polygon fill="#ebebeb" stroke="transparent" points="217,-55 217,-76 267,-76 267,-55 217,-55"/>
<polygon fill="none" stroke="black" points="217,-55 217,-76 267,-76 267,-55 217,-55"/>
<text text-anchor="start" x="237" y="-61.8" font-family="Times,serif" font-size="14.00">5</text>
<polygon fill="none" stroke="crimson" points="217,-33 217,-54 233,-54 233,-33 217,-33"/>
<text text-anchor="start" x="220" y="-39.8" font-family="Times,serif" font-size="14.00">6</text>
<polygon fill="lightsalmon" stroke="transparent" points="234,-33 234,-54 250,-54 250,-33 234,-33"/>
<polygon fill="none" stroke="black" points="234,-33 234,-54 250,-54 250,-33 234,-33"/>
<text text-anchor="start" x="237" y="-39.8" font-family="Times,serif" font-size="14.00">5</text>
<polygon fill="none" stroke="#1c86ee" points="251,-33 251,-54 267,-54 267,-33 251,-33"/>
<text text-anchor="start" x="254" y="-39.8" font-family="Times,serif" font-size="14.00">2</text>
</g>
<!-- node6&#45;&gt;node5 -->
<g id="edge3" class="edge">
<title>node6:next&#45;&gt;node5:index</title>
<path fill="none" stroke="#1c86ee" d="M164,-43C185.32,-43 189.69,-59.37 205.72,-64.49"/>
<polygon fill="#1c86ee" stroke="#1c86ee" points="205.6,-68.01 216,-66 206.61,-61.09 205.6,-68.01"/>
</g>
<!-- node0&#45;&gt;node8 -->
<g id="edge19" class="edge">
<title>node0&#45;&gt;node8:index</title>
<path fill="none" stroke="black" d="M971.07,-64.65C952.19,-72.74 924.87,-83.54 900,-90 840.44,-105.46 824.53,-110 763,-110 241,-110 241,-110 241,-110 179.47,-110 162.37,-109.48 104,-90 86.67,-84.21 83.15,-71.77 70.15,-67.49"/>
<polygon fill="black" stroke="black" points="70.4,-63.99 60,-66 69.39,-70.91 70.4,-63.99"/>
</g>
<!-- node9 -->
<g id="node10" class="node">
<title>node9</title>
<polygon fill="#ebebeb" stroke="transparent" points="841,-55 841,-76 891,-76 891,-55 841,-55"/>
<polygon fill="none" stroke="black" points="841,-55 841,-76 891,-76 891,-55 841,-55"/>
<text text-anchor="start" x="861" y="-61.8" font-family="Times,serif" font-size="14.00">9</text>
<polygon fill="none" stroke="crimson" points="841,-33 841,-54 857,-54 857,-33 841,-33"/>
<text text-anchor="start" x="844" y="-39.8" font-family="Times,serif" font-size="14.00">7</text>
<polygon fill="lightsalmon" stroke="transparent" points="858,-33 858,-54 874,-54 874,-33 858,-33"/>
<polygon fill="none" stroke="black" points="858,-33 858,-54 874,-54 874,-33 858,-33"/>
<text text-anchor="start" x="861" y="-39.8" font-family="Times,serif" font-size="14.00">9</text>
<polygon fill="none" stroke="#1c86ee" points="875,-33 875,-54 891,-54 891,-33 875,-33"/>
<text text-anchor="start" x="878" y="-39.8" font-family="Times,serif" font-size="14.00">0</text>
</g>
<!-- node0&#45;&gt;node9 -->
<g id="edge20" class="edge">
<title>node0&#45;&gt;node9:index</title>
<path fill="none" stroke="black" d="M957.29,-60.49C940.83,-62.89 920.98,-65.18 902.07,-65.82"/>
<polygon fill="black" stroke="black" points="901.94,-62.32 892,-66 902.06,-69.32 901.94,-62.32"/>
</g>
<!-- node5&#45;&gt;node6 -->
<g id="edge6" class="edge">
<title>node5:prev&#45;&gt;node6:index</title>
<path fill="none" stroke="crimson" d="M216,-43C194.68,-43 190.31,-59.37 174.28,-64.49"/>
<polygon fill="crimson" stroke="crimson" points="173.39,-61.09 164,-66 174.4,-68.01 173.39,-61.09"/>
</g>
<!-- node2 -->
<g id="node5" class="node">
<title>node2</title>
<polygon fill="#ebebeb" stroke="transparent" points="321,-55 321,-76 371,-76 371,-55 321,-55"/>
<polygon fill="none" stroke="black" points="321,-55 321,-76 371,-76 371,-55 321,-55"/>
<text text-anchor="start" x="341" y="-61.8" font-family="Times,serif" font-size="14.00">2</text>
<polygon fill="none" stroke="crimson" points="321,-33 321,-54 337,-54 337,-33 321,-33"/>
<text text-anchor="start" x="324" y="-39.8" font-family="Times,serif" font-size="14.00">5</text>
<polygon fill="lightsalmon" stroke="transparent" points="338,-33 338,-54 354,-54 354,-33 338,-33"/>
<polygon fill="none" stroke="black" points="338,-33 338,-54 354,-54 354,-33 338,-33"/>
<text text-anchor="start" x="341" y="-39.8" font-family="Times,serif" font-size="14.00">2</text>
<polygon fill="none" stroke="#1c86ee" points="355,-33 355,-54 371,-54 371,-33 355,-33"/>
<text text-anchor="start" x="358" y="-39.8" font-family="Times,serif" font-size="14.00">1</text>
</g>
<!-- node5&#45;&gt;node2 -->
<g id="edge5" class="edge">
<title>node5:next&#45;&gt;node2:index</title>
<path fill="none" stroke="#1c86ee" d="M268,-43C289.32,-43 293.69,-59.37 309.72,-64.49"/>
<polygon fill="#1c86ee" stroke="#1c86ee" points="309.6,-68.01 320,-66 310.61,-61.09 309.6,-68.01"/>
</g>
<!-- node2&#45;&gt;node5 -->
<g id="edge8" class="edge">
<title>node2:prev&#45;&gt;node5:index</title>
<path fill="none" stroke="crimson" d="M320,-43C298.68,-43 294.31,-59.37 278.28,-64.49"/>
<polygon fill="crimson" stroke="crimson" points="277.39,-61.09 268,-66 278.4,-68.01 277.39,-61.09"/>
</g>
<!-- node1 -->
<g id="node6" class="node">
<title>node1</title>
<polygon fill="#ebebeb" stroke="transparent" points="425,-55 425,-76 475,-76 475,-55 425,-55"/>
<polygon fill="none" stroke="black" points="425,-55 425,-76 475,-76 475,-55 425,-55"/>
<text text-anchor="start" x="445" y="-61.8" font-family="Times,serif" font-size="14.00">1</text>
<polygon fill="none" stroke="crimson" points="425,-33 425,-54 441,-54 441,-33 425,-33"/>
<text text-anchor="start" x="428" y="-39.8" font-family="Times,serif" font-size="14.00">2</text>
<polygon fill="lightsalmon" stroke="transparent" points="442,-33 442,-54 458,-54 458,-33 442,-33"/>
<polygon fill="none" stroke="black" points="442,-33 442,-54 458,-54 458,-33 442,-33"/>
<text text-anchor="start" x="445" y="-39.8" font-family="Times,serif" font-size="14.00">1</text>
<polygon fill="none" stroke="#1c86ee" points="459,-33 459,-54 475,-54 475,-33 459,-33"/>
<text text-anchor="start" x="462" y="-39.8" font-family="Times,serif" font-size="14.00">3</text>
</g>
<!-- node2&#45;&gt;node1 -->
<g id="edge7" class="edge">
<title>node2:next&#45;&gt;node1:index</title>
<path fill="none" stroke="#1c86ee" d="M372,-43C393.32,-43 397.69,-59.37 413.72,-64.49"/>
<polygon fill="#1c86ee" stroke="#1c86ee" points="413.6,-68.01 424,-66 414.61,-61.09 413.6,-68.01"/>
</g>
<!-- node1&#45;&gt;node2 -->
<g id="edge10" class="edge">
<title>node1:prev&#45;&gt;node2:index</title>
<path fill="none" stroke="crimson" d="M424,-43C402.68,-43 398.31,-59.37 382.28,-64.49"/>
<polygon fill="crimson" stroke="crimson" points="381.39,-61.09 372,-66 382.4,-68.01 381.39,-61.09"/>
</g>
<!-- node3 -->
<g id="node7" class="node">
<title>node3</title>
<polygon fill="#ebebeb" stroke="transparent" points="529,-55 529,-76 579,-76 579,-55 529,-55"/>
<polygon fill="none" stroke="black" points="529,-55 529,-76 579,-76 579,-55 529,-55"/>
<text text-anchor="start" x="549" y="-61.8" font-family="Times,serif" font-size="14.00">3</text>
<polygon fill="none" stroke="crimson" points="529,-33 529,-54 545,-54 545,-33 529,-33"/>
<text text-anchor="start" x="532" y="-39.8" font-family="Times,serif" font-size="14.00">1</text>
<polygon fill="lightsalmon" stroke="transparent" points="546,-33 546,-54 562,-54 562,-33 546,-33"/>
<polygon fill="none" stroke="black" points="546,-33 546,-54 562,-54 562,-33 546,-33"/>
<text text-anchor="start" x="549" y="-39.8" font-family="Times,serif" font-size="14.00">3</text>
<polygon fill="none" stroke="#1c86ee" points="563,-33 563,-54 579,-54 579,-33 563,-33"/>
<text text-anchor="start" x="566" y="-39.8" font-family="Times,serif" font-size="14.00">4</text>
</g>
<!-- node1&#45;&gt;node3 -->
<g id="edge9" class="edge">
<title>node1:next&#45;&gt;node3:index</title>
<path fill="none" stroke="#1c86ee" d="M476,-43C497.32,-43 501.69,-59.37 517.72,-64.49"/>
<polygon fill="#1c86ee" stroke="#1c86ee" points="517.6,-68.01 528,-66 518.61,-61.09 517.6,-68.01"/>
</g>
<!-- node3&#45;&gt;node1 -->
<g id="edge12" class="edge">
<title>node3:prev&#45;&gt;node1:index</title>
<path fill="none" stroke="crimson" d="M528,-43C506.68,-43 502.31,-59.37 486.28,-64.49"/>
<polygon fill="crimson" stroke="crimson" points="485.39,-61.09 476,-66 486.4,-68.01 485.39,-61.09"/>
</g>
<!-- node4 -->
<g id="node8" class="node">
<title>node4</title>
<polygon fill="#ebebeb" stroke="transparent" points="633,-55 633,-76 683,-76 683,-55 633,-55"/>
<polygon fill="none" stroke="black" points="633,-55 633,-76 683,-76 683,-55 633,-55"/>
<text text-anchor="start" x="653" y="-61.8" font-family="Times,serif" font-size="14.00">4</text>
<polygon fill="none" stroke="crimson" points="633,-33 633,-54 649,-54 649,-33 633,-33"/>
<text text-anchor="start" x="636" y="-39.8" font-family="Times,serif" font-size="14.00">3</text>
<polygon fill="lightsalmon" stroke="transparent" points="650,-33 650,-54 666,-54 666,-33 650,-33"/>
<polygon fill="none" stroke="black" points="650,-33 650,-54 666,-54 666,-33 650,-33"/>
<text text-anchor="start" x="653" y="-39.8" font-family="Times,serif" font-size="14.00">4</text>
<polygon fill="none" stroke="#1c86ee" points="667,-33 667,-54 683,-54 683,-33 667,-33"/>
<text text-anchor="start" x="670" y="-39.8" font-family="Times,serif" font-size="14.00">7</text>
</g>
<!-- node3&#45;&gt;node4 -->
<g id="edge11" class="edge">
<title>node3:next&#45;&gt;node4:index</title>
<path fill="none" stroke="#1c86ee" d="M580,-43C601.32,-43 605.69,-59.37 621.72,-64.49"/>
<polygon fill="#1c86ee" stroke="#1c86ee" points="621.6,-68.01 632,-66 622.61,-61.09 621.6,-68.01"/>
</g>
<!-- node4&#45;&gt;node3 -->
<g id="edge14" class="edge">
<title>node4:prev&#45;&gt;node3:index</title>
<path fill="none" stroke="crimson" d="M632,-43C610.68,-43 606.31,-59.37 590.28,-64.49"/>
<polygon fill="crimson" stroke="crimson" points="589.39,-61.09 580,-66 590.4,-68.01 589.39,-61.09"/>
</g>
<!-- node7 -->
<g id="node9" class="node">
<title>node7</title>
<polygon fill="#ebebeb" stroke="transparent" points="737,-55 737,-76 787,-76 787,-55 737,-55"/>
<polygon fill="none" stroke="black" points="737,-55 737,-76 787,-76 787,-55 737,-55"/>
<text text-anchor="start" x="757" y="-61.8" font-family="Times,serif" font-size="14.00">7</text>
<polygon fill="none" stroke="crimson" points="737,-33 737,-54 753,-54 753,-33 737,-33"/>
<text text-anchor="start" x="740" y="-39.8" font-family="Times,serif" font-size="14.00">4</text>
<polygon fill="lightsalmon" stroke="transparent" points="754,-33 754,-54 770,-54 770,-33 754,-33"/>
<polygon fill="none" stroke="black" points="754,-33 754,-54 770,-54 770,-33 754,-33"/>
<text text-anchor="start" x="757" y="-39.8" font-family="Times,serif" font-size="14.00">7</text>
<polygon fill="none" stroke="#1c86ee" points="771,-33 771,-54 787,-54 787,-33 771,-33"/>
<text text-anchor="start" x="774" y="-39.8" font-family="Times,serif" font-size="14.00">9</text>
</g>
<!-- node4&#45;&gt;node7 -->
<g id="edge13" class="edge">
<title>node4:next&#45;&gt;node7:index</title>
<path fill="none" stroke="#1c86ee" d="M684,-43C705.32,-43 709.69,-59.37 725.72,-64.49"/>
<polygon fill="#1c86ee" stroke="#1c86ee" points="725.6,-68.01 736,-66 726.61,-61.09 725.6,-68.01"/>
</g>
<!-- node7&#45;&gt;node4 -->
<g id="edge16" class="edge">
<title>node7:prev&#45;&gt;node4:index</title>
<path fill="none" stroke="crimson" d="M736,-43C714.68,-43 710.31,-59.37 694.28,-64.49"/>
<polygon fill="crimson" stroke="crimson" points="693.39,-61.09 684,-66 694.4,-68.01 693.39,-61.09"/>
</g>
<!-- node7&#45;&gt;node9 -->
<g id="edge15" class="edge">
<title>node7:next&#45;&gt;node9:index</title>
<path fill="none" stroke="#1c86ee" d="M788,-43C809.32,-43 813.69,-59.37 829.72,-64.49"/>
<polygon fill="#1c86ee" stroke="#1c86ee" points="829.6,-68.01 840,-66 830.61,-61.09 829.6,-68.01"/>
</g>
<!-- node9&#45;&gt;node0 -->
<g id="edge17" class="edge">
<title>node9:next&#45;&gt;node0</title>
<path fill="none" stroke="black" d="M892,-43C909.53,-43 928.65,-44.6 945.59,-46.58"/>
<polygon fill="black" stroke="black" points="945.46,-50.1 955.82,-47.86 946.33,-43.15 945.46,-50.1"/>
</g>
<!-- node9&#45;&gt;node7 -->
<g id="edge18" class="edge">
<title>node9:prev&#45;&gt;node7:index</title>
<path fill="none" stroke="crimson" d="M840,-43C818.68,-43 814.31,-59.37 798.28,-64.49"/>
<polygon fill="crimson" stroke="crimson" points="797.39,-61.09 788,-66 798.4,-68.01 797.39,-61.09"/>
</g>
</g>
</svg>
