<?xml version="1.0" encoding="UTF-8" standalone="no"?>
<!DOCTYPE svg PUBLIC "-//W3C//DTD SVG 1.1//EN"
 "http://www.w3.org/Graphics/SVG/1.1/DTD/svg11.dtd">
<!-- Generated by graphviz version 2.43.0 (0)
 -->
<!-- Title: list Pages: 1 -->
<svg width="3010pt" height="121pt"
 viewBox="0.00 0.00 3010.49 120.50" xmlns="http://www.w3.org/2000/svg" xmlns:xlink="http://www.w3.org/1999/xlink">
<g id="graph0" class="graph" transform="scale(1 1) rotate(0) translate(4 116.5)">
<title>list</title>
<polygon fill="white" stroke="transparent" points="-4,4 -4,-116.5 3006.49,-116.5 3006.49,4 -4,4"/>
<!-- node24 -->
<g id="node1" class="node">
<title>node24</title>
<polygon fill="#ebebeb" stroke="transparent" points="2770,-56.17 2770,-77.17 2838,-77.17 2838,-56.17 2770,-56.17"/>
<polygon fill="none" stroke="black" points="2770,-56.17 2770,-77.17 2838,-77.17 2838,-56.17 2770,-56.17"/>
<text text-anchor="start" x="2794.5" y="-62.97" font-family="Times,serif" font-size="14.00">24</text>
<polygon fill="none" stroke="crimson" points="2770,-34.17 2770,-55.17 2795,-55.17 2795,-34.17 2770,-34.17"/>
<text text-anchor="start" x="2773" y="-40.97" font-family="Times,serif" font-size="14.00">16</text>
<polygon fill="lightsalmon" stroke="transparent" points="2796,-34.17 2796,-55.17 2821,-55.17 2821,-34.17 2796,-34.17"/>
<polygon fill="none" stroke="black" points="2796,-34.17 2796,-55.17 2821,-55.17 2821,-34.17 2796,-34.17"/>
<text text-anchor="start" x="2799" y="-40.97" font-family="Times,serif" font-size="14.00">24</text>
<polygon fill="none" stroke="#1c86ee" points="2822,-34.17 2822,-55.17 2838,-55.17 2838,-34.17 2822,-34.17"/>
<text text-anchor="start" x="2825" y="-40.97" font-family="Times,serif" font-size="14.00">0</text>
</g>
<!-- node16 -->
<g id="node2" class="node">
<title>node16</title>
<polygon fill="#ebebeb" stroke="transparent" points="2639.5,-56.17 2639.5,-77.17 2716.5,-77.17 2716.5,-56.17 2639.5,-56.17"/>
<polygon fill="none" stroke="black" points="2639.5,-56.17 2639.5,-77.17 2716.5,-77.17 2716.5,-56.17 2639.5,-56.17"/>
<text text-anchor="start" x="2668.5" y="-62.97" font-family="Times,serif" font-size="14.00">16</text>
<polygon fill="none" stroke="crimson" points="2639.5,-34.17 2639.5,-55.17 2664.5,-55.17 2664.5,-34.17 2639.5,-34.17"/>
<text text-anchor="start" x="2642.5" y="-40.97" font-family="Times,serif" font-size="14.00">15</text>
<polygon fill="lightsalmon" stroke="transparent" points="2665.5,-34.17 2665.5,-55.17 2690.5,-55.17 2690.5,-34.17 2665.5,-34.17"/>
<polygon fill="none" stroke="black" points="2665.5,-34.17 2665.5,-55.17 2690.5,-55.17 2690.5,-34.17 2665.5,-34.17"/>
<text text-anchor="start" x="2668.5" y="-40.97" font-family="Times,serif" font-size="14.00">16</text>
<polygon fill="none" stroke="#1c86ee" points="2691.5,-34.17 2691.5,-55.17 2716.5,-55.17 2716.5,-34.17 2691.5,-34.17"/>
<text text-anchor="start" x="2694.5" y="-40.97" font-family="Times,serif" font-size="14.00">24</text>
</g>
<!-- node24&#45;&gt;node16 -->
<g id="edge1" class="edge">
<title>node24:index&#45;&gt;node16:index</title>
<path fill="none" stroke="crimson" d="M2769,-67.17C2749.87,-67.17 2742.73,-67.17 2727.53,-67.17"/>
<polygon fill="crimson" stroke="crimson" points="2727.5,-63.67 2717.5,-67.17 2727.5,-70.67 2727.5,-63.67"/>
</g>
<!-- node0 -->
<g id="node3" class="node">
<title>node0</title>
<polygon fill="none" stroke="black" points="2942.75,-73.17 2882.75,-55.17 2942.75,-37.17 3002.74,-55.17 2942.75,-73.17"/>
<text text-anchor="middle" x="2942.75" y="-51.47" font-family="Times,serif" font-size="14.00">Fictive</text>
</g>
<!-- node24&#45;&gt;node0 -->
<g id="edge2" class="edge">
<title>node24:next&#45;&gt;node0</title>
<path fill="none" stroke="black" d="M2839,-44.17C2856.53,-44.17 2875.65,-45.77 2892.59,-47.75"/>
<polygon fill="black" stroke="black" points="2892.46,-51.26 2902.82,-49.03 2893.33,-44.32 2892.46,-51.26"/>
</g>
<!-- node16&#45;&gt;node24 -->
<g id="edge4" class="edge">
<title>node16:next&#45;&gt;node24:prev</title>
<path fill="none" stroke="#1c86ee" d="M2717.5,-44.17C2736.63,-44.17 2743.77,-44.17 2758.97,-44.17"/>
<polygon fill="#1c86ee" stroke="#1c86ee" points="2759,-47.67 2769,-44.17 2759,-40.67 2759,-47.67"/>
</g>
<!-- node15 -->
<g id="node4" class="node">
<title>node15</title>
<polygon fill="#ebebeb" stroke="transparent" points="2508.5,-56.17 2508.5,-77.17 2585.5,-77.17 2585.5,-56.17 2508.5,-56.17"/>
<polygon fill="none" stroke="black" points="2508.5,-56.17 2508.5,-77.17 2585.5,-77.17 2585.5,-56.17 2508.5,-56.17"/>
<text text-anchor="start" x="2537.5" y="-62.97" font-family="Times,serif" font-size="14.00">15</text>
<polygon fill="none" stroke="crimson" points="2508.5,-34.17 2508.5,-55.17 2533.5,-55.17 2533.5,-34.17 2508.5,-34.17"/>
<text text-anchor="start" x="2511.5" y="-40.97" font-family="Times,serif" font-size="14.00">14</text>
<polygon fill="lightsalmon" stroke="transparent" points="2534.5,-34.17 2534.5,-55.17 2559.5,-55.17 2559.5,-34.17 2534.5,-34.17"/>
<polygon fill="none" stroke="black" points="2534.5,-34.17 2534.5,-55.17 2559.5,-55.17 2559.5,-34.17 2534.5,-34.17"/>
<text text-anchor="start" x="2537.5" y="-40.97" font-family="Times,serif" font-size="14.00">15</text>
<polygon fill="none" stroke="#1c86ee" points="2560.5,-34.17 2560.5,-55.17 2585.5,-55.17 2585.5,-34.17 2560.5,-34.17"/>
<text text-anchor="start" x="2563.5" y="-40.97" font-family="Times,serif" font-size="14.00">16</text>
</g>
<!-- node16&#45;&gt;node15 -->
<g id="edge3" class="edge">
<title>node16:index&#45;&gt;node15:index</title>
<path fill="none" stroke="crimson" d="M2638.5,-67.17C2619.18,-67.17 2611.97,-67.17 2596.63,-67.17"/>
<polygon fill="crimson" stroke="crimson" points="2596.5,-63.67 2586.5,-67.17 2596.5,-70.67 2596.5,-63.67"/>
</g>
<!-- node0&#45;&gt;node24 -->
<g id="edge49" class="edge">
<title>node0&#45;&gt;node24:index</title>
<path fill="none" stroke="black" d="M2904.29,-61.66C2887.83,-64.06 2867.98,-66.35 2849.07,-66.99"/>
<polygon fill="black" stroke="black" points="2848.94,-63.49 2839,-67.17 2849.06,-70.49 2848.94,-63.49"/>
</g>
<!-- node15&#45;&gt;node16 -->
<g id="edge6" class="edge">
<title>node15:next&#45;&gt;node16:prev</title>
<path fill="none" stroke="#1c86ee" d="M2586.5,-44.17C2605.82,-44.17 2613.03,-44.17 2628.37,-44.17"/>
<polygon fill="#1c86ee" stroke="#1c86ee" points="2628.5,-47.67 2638.5,-44.17 2628.5,-40.67 2628.5,-47.67"/>
</g>
<!-- node14 -->
<g id="node5" class="node">
<title>node14</title>
<polygon fill="#ebebeb" stroke="transparent" points="2377.5,-56.17 2377.5,-77.17 2454.5,-77.17 2454.5,-56.17 2377.5,-56.17"/>
<polygon fill="none" stroke="black" points="2377.5,-56.17 2377.5,-77.17 2454.5,-77.17 2454.5,-56.17 2377.5,-56.17"/>
<text text-anchor="start" x="2406.5" y="-62.97" font-family="Times,serif" font-size="14.00">14</text>
<polygon fill="none" stroke="crimson" points="2377.5,-34.17 2377.5,-55.17 2402.5,-55.17 2402.5,-34.17 2377.5,-34.17"/>
<text text-anchor="start" x="2380.5" y="-40.97" font-family="Times,serif" font-size="14.00">13</text>
<polygon fill="lightsalmon" stroke="transparent" points="2403.5,-34.17 2403.5,-55.17 2428.5,-55.17 2428.5,-34.17 2403.5,-34.17"/>
<polygon fill="none" stroke="black" points="2403.5,-34.17 2403.5,-55.17 2428.5,-55.17 2428.5,-34.17 2403.5,-34.17"/>
<text text-anchor="start" x="2406.5" y="-40.97" font-family="Times,serif" font-size="14.00">14</text>
<polygon fill="none" stroke="#1c86ee" points="2429.5,-34.17 2429.5,-55.17 2454.5,-55.17 2454.5,-34.17 2429.5,-34.17"/>
<text text-anchor="start" x="2432.5" y="-40.97" font-family="Times,serif" font-size="14.00">15</text>
</g>
<!-- node15&#45;&gt;node14 -->
<g id="edge5" class="edge">
<title>node15:index&#45;&gt;node14:index</title>
<path fill="none" stroke="crimson" d="M2507.5,-67.17C2488.18,-67.17 2480.97,-67.17 2465.63,-67.17"/>
<polygon fill="crimson" stroke="crimson" points="2465.5,-63.67 2455.5,-67.17 2465.5,-70.67 2465.5,-63.67"/>
</g>
<!-- node14&#45;&gt;node15 -->
<g id="edge8" class="edge">
<title>node14:next&#45;&gt;node15:prev</title>
<path fill="none" stroke="#1c86ee" d="M2455.5,-44.17C2474.82,-44.17 2482.03,-44.17 2497.37,-44.17"/>
<polygon fill="#1c86ee" stroke="#1c86ee" points="2497.5,-47.67 2507.5,-44.17 2497.5,-40.67 2497.5,-47.67"/>
</g>
<!-- node13 -->
<g id="node6" class="node">
<title>node13</title>
<polygon fill="#ebebeb" stroke="transparent" points="2246.5,-56.17 2246.5,-77.17 2323.5,-77.17 2323.5,-56.17 2246.5,-56.17"/>
<polygon fill="none" stroke="black" points="2246.5,-56.17 2246.5,-77.17 2323.5,-77.17 2323.5,-56.17 2246.5,-56.17"/>
<text text-anchor="start" x="2275.5" y="-62.97" font-family="Times,serif" font-size="14.00">13</text>
<polygon fill="none" stroke="crimson" points="2246.5,-34.17 2246.5,-55.17 2271.5,-55.17 2271.5,-34.17 2246.5,-34.17"/>
<text text-anchor="start" x="2249.5" y="-40.97" font-family="Times,serif" font-size="14.00">12</text>
<polygon fill="lightsalmon" stroke="transparent" points="2272.5,-34.17 2272.5,-55.17 2297.5,-55.17 2297.5,-34.17 2272.5,-34.17"/>
<polygon fill="none" stroke="black" points="2272.5,-34.17 2272.5,-55.17 2297.5,-55.17 2297.5,-34.17 2272.5,-34.17"/>
<text text-anchor="start" x="2275.5" y="-40.97" font-family="Times,serif" font-size="14.00">13</text>
<polygon fill="none" stroke="#1c86ee" points="2298.5,-34.17 2298.5,-55.17 2323.5,-55.17 2323.5,-34.17 2298.5,-34.17"/>
<text text-anchor="start" x="2301.5" y="-40.97" font-family="Times,serif" font-size="14.00">14</text>
</g>
<!-- node14&#45;&gt;node13 -->
<g id="edge7" class="edge">
<title>node14:index&#45;&gt;node13:index</title>
<path fill="none" stroke="crimson" d="M2376.5,-67.17C2357.18,-67.17 2349.97,-67.17 2334.63,-67.17"/>
<polygon fill="crimson" stroke="crimson" points="2334.5,-63.67 2324.5,-67.17 2334.5,-70.67 2334.5,-63.67"/>
</g>
<!-- node13&#45;&gt;node14 -->
<g id="edge10" class="edge">
<title>node13:next&#45;&gt;node14:prev</title>
<path fill="none" stroke="#1c86ee" d="M2324.5,-44.17C2343.82,-44.17 2351.03,-44.17 2366.37,-44.17"/>
<polygon fill="#1c86ee" stroke="#1c86ee" points="2366.5,-47.67 2376.5,-44.17 2366.5,-40.67 2366.5,-47.67"/>
</g>
<!-- node12 -->
<g id="node7" class="node">
<title>node12</title>
<polygon fill="#ebebeb" stroke="transparent" points="2115.5,-56.17 2115.5,-77.17 2192.5,-77.17 2192.5,-56.17 2115.5,-56.17"/>
<polygon fill="none" stroke="black" points="2115.5,-56.17 2115.5,-77.17 2192.5,-77.17 2192.5,-56.17 2115.5,-56.17"/>
<text text-anchor="start" x="2144.5" y="-62.97" font-family="Times,serif" font-size="14.00">12</text>
<polygon fill="none" stroke="crimson" points="2115.5,-34.17 2115.5,-55.17 2140.5,-55.17 2140.5,-34.17 2115.5,-34.17"/>
<text text-anchor="start" x="2118.5" y="-40.97" font-family="Times,serif" font-size="14.00">11</text>
<polygon fill="lightsalmon" stroke="transparent" points="2141.5,-34.17 2141.5,-55.17 2166.5,-55.17 2166.5,-34.17 2141.5,-34.17"/>
<polygon fill="none" stroke="black" points="2141.5,-34.17 2141.5,-55.17 2166.5,-55.17 2166.5,-34.17 2141.5,-34.17"/>
<text text-anchor="start" x="2144.5" y="-40.97" font-family="Times,serif" font-size="14.00">12</text>
<polygon fill="none" stroke="#1c86ee" points="2167.5,-34.17 2167.5,-55.17 2192.5,-55.17 2192.5,-34.17 2167.5,-34.17"/>
<text text-anchor="start" x="2170.5" y="-40.97" font-family="Times,serif" font-size="14.00">13</text>
</g>
<!-- node13&#45;&gt;node12 -->
<g id="edge9" class="edge">
<title>node13:index&#45;&gt;node12:index</title>
<path fill="none" stroke="crimson" d="M2245.5,-67.17C2226.18,-67.17 2218.97,-67.17 2203.63,-67.17"/>
<polygon fill="crimson" stroke="crimson" points="2203.5,-63.67 2193.5,-67.17 2203.5,-70.67 2203.5,-63.67"/>
</g>
<!-- node12&#45;&gt;node13 -->
<g id="edge12" class="edge">
<title>node12:next&#45;&gt;node13:prev</title>
<path fill="none" stroke="#1c86ee" d="M2193.5,-44.17C2212.82,-44.17 2220.03,-44.17 2235.37,-44.17"/>
<polygon fill="#1c86ee" stroke="#1c86ee" points="2235.5,-47.67 2245.5,-44.17 2235.5,-40.67 2235.5,-47.67"/>
</g>
<!-- node11 -->
<g id="node8" class="node">
<title>node11</title>
<polygon fill="#ebebeb" stroke="transparent" points="1993,-56.17 1993,-77.17 2061,-77.17 2061,-56.17 1993,-56.17"/>
<polygon fill="none" stroke="black" points="1993,-56.17 1993,-77.17 2061,-77.17 2061,-56.17 1993,-56.17"/>
<text text-anchor="start" x="2017.5" y="-62.97" font-family="Times,serif" font-size="14.00">11</text>
<polygon fill="none" stroke="crimson" points="1993,-34.17 1993,-55.17 2009,-55.17 2009,-34.17 1993,-34.17"/>
<text text-anchor="start" x="1996" y="-40.97" font-family="Times,serif" font-size="14.00">9</text>
<polygon fill="lightsalmon" stroke="transparent" points="2010,-34.17 2010,-55.17 2035,-55.17 2035,-34.17 2010,-34.17"/>
<polygon fill="none" stroke="black" points="2010,-34.17 2010,-55.17 2035,-55.17 2035,-34.17 2010,-34.17"/>
<text text-anchor="start" x="2013" y="-40.97" font-family="Times,serif" font-size="14.00">11</text>
<polygon fill="none" stroke="#1c86ee" points="2036,-34.17 2036,-55.17 2061,-55.17 2061,-34.17 2036,-34.17"/>
<text text-anchor="start" x="2039" y="-40.97" font-family="Times,serif" font-size="14.00">12</text>
</g>
<!-- node12&#45;&gt;node11 -->
<g id="edge11" class="edge">
<title>node12:index&#45;&gt;node11:index</title>
<path fill="none" stroke="crimson" d="M2114.5,-67.17C2094.99,-67.17 2087.72,-67.17 2072.23,-67.17"/>
<polygon fill="crimson" stroke="crimson" points="2072,-63.67 2062,-67.17 2072,-70.67 2072,-63.67"/>
</g>
<!-- node11&#45;&gt;node12 -->
<g id="edge14" class="edge">
<title>node11:next&#45;&gt;node12:prev</title>
<path fill="none" stroke="#1c86ee" d="M2062,-44.17C2081.51,-44.17 2088.78,-44.17 2104.27,-44.17"/>
<polygon fill="#1c86ee" stroke="#1c86ee" points="2104.5,-47.67 2114.5,-44.17 2104.5,-40.67 2104.5,-47.67"/>
</g>
<!-- node9 -->
<g id="node9" class="node">
<title>node9</title>
<polygon fill="#ebebeb" stroke="transparent" points="1880.5,-56.17 1880.5,-77.17 1939.5,-77.17 1939.5,-56.17 1880.5,-56.17"/>
<polygon fill="none" stroke="black" points="1880.5,-56.17 1880.5,-77.17 1939.5,-77.17 1939.5,-56.17 1880.5,-56.17"/>
<text text-anchor="start" x="1905" y="-62.97" font-family="Times,serif" font-size="14.00">9</text>
<polygon fill="none" stroke="crimson" points="1880.5,-34.17 1880.5,-55.17 1896.5,-55.17 1896.5,-34.17 1880.5,-34.17"/>
<text text-anchor="start" x="1883.5" y="-40.97" font-family="Times,serif" font-size="14.00">7</text>
<polygon fill="lightsalmon" stroke="transparent" points="1897.5,-34.17 1897.5,-55.17 1913.5,-55.17 1913.5,-34.17 1897.5,-34.17"/>
<polygon fill="none" stroke="black" points="1897.5,-34.17 1897.5,-55.17 1913.5,-55.17 1913.5,-34.17 1897.5,-34.17"/>
<text text-anchor="start" x="1900.5" y="-40.97" font-family="Times,serif" font-size="14.00">9</text>
<polygon fill="none" stroke="#1c86ee" points="1914.5,-34.17 1914.5,-55.17 1939.5,-55.17 1939.5,-34.17 1914.5,-34.17"/>
<text text-anchor="start" x="1917.5" y="-40.97" font-family="Times,serif" font-size="14.00">11</text>
</g>
<!-- node11&#45;&gt;node9 -->
<g id="edge13" class="edge">
<title>node11:index&#45;&gt;node9:index</title>
<path fill="none" stroke="crimson" d="M1992,-67.17C1972.87,-67.17 1965.73,-67.17 1950.53,-67.17"/>
<polygon fill="crimson" stroke="crimson" points="1950.5,-63.67 1940.5,-67.17 1950.5,-70.67 1950.5,-63.67"/>
</g>
<!-- node9&#45;&gt;node11 -->
<g id="edge16" class="edge">
<title>node9:next&#45;&gt;node11:prev</title>
<path fill="none" stroke="#1c86ee" d="M1940.5,-44.17C1959.63,-44.17 1966.77,-44.17 1981.97,-44.17"/>
<polygon fill="#1c86ee" stroke="#1c86ee" points="1982,-47.67 1992,-44.17 1982,-40.67 1982,-47.67"/>
</g>
<!-- node7 -->
<g id="node10" class="node">
<title>node7</title>
<polygon fill="#ebebeb" stroke="transparent" points="1776,-56.17 1776,-77.17 1826,-77.17 1826,-56.17 1776,-56.17"/>
<polygon fill="none" stroke="black" points="1776,-56.17 1776,-77.17 1826,-77.17 1826,-56.17 1776,-56.17"/>
<text text-anchor="start" x="1796" y="-62.97" font-family="Times,serif" font-size="14.00">7</text>
<polygon fill="none" stroke="crimson" points="1776,-34.17 1776,-55.17 1792,-55.17 1792,-34.17 1776,-34.17"/>
<text text-anchor="start" x="1779" y="-40.97" font-family="Times,serif" font-size="14.00">6</text>
<polygon fill="lightsalmon" stroke="transparent" points="1793,-34.17 1793,-55.17 1809,-55.17 1809,-34.17 1793,-34.17"/>
<polygon fill="none" stroke="black" points="1793,-34.17 1793,-55.17 1809,-55.17 1809,-34.17 1793,-34.17"/>
<text text-anchor="start" x="1796" y="-40.97" font-family="Times,serif" font-size="14.00">7</text>
<polygon fill="none" stroke="#1c86ee" points="1810,-34.17 1810,-55.17 1826,-55.17 1826,-34.17 1810,-34.17"/>
<text text-anchor="start" x="1813" y="-40.97" font-family="Times,serif" font-size="14.00">9</text>
</g>
<!-- node9&#45;&gt;node7 -->
<g id="edge15" class="edge">
<title>node9:index&#45;&gt;node7:index</title>
<path fill="none" stroke="crimson" d="M1879.5,-67.17C1859.99,-67.17 1852.72,-67.17 1837.23,-67.17"/>
<polygon fill="crimson" stroke="crimson" points="1837,-63.67 1827,-67.17 1837,-70.67 1837,-63.67"/>
</g>
<!-- node7&#45;&gt;node9 -->
<g id="edge18" class="edge">
<title>node7:next&#45;&gt;node9:prev</title>
<path fill="none" stroke="#1c86ee" d="M1827,-44.17C1846.51,-44.17 1853.78,-44.17 1869.27,-44.17"/>
<polygon fill="#1c86ee" stroke="#1c86ee" points="1869.5,-47.67 1879.5,-44.17 1869.5,-40.67 1869.5,-47.67"/>
</g>
<!-- node6 -->
<g id="node11" class="node">
<title>node6</title>
<polygon fill="#ebebeb" stroke="transparent" points="1672,-56.17 1672,-77.17 1722,-77.17 1722,-56.17 1672,-56.17"/>
<polygon fill="none" stroke="black" points="1672,-56.17 1672,-77.17 1722,-77.17 1722,-56.17 1672,-56.17"/>
<text text-anchor="start" x="1692" y="-62.97" font-family="Times,serif" font-size="14.00">6</text>
<polygon fill="none" stroke="crimson" points="1672,-34.17 1672,-55.17 1688,-55.17 1688,-34.17 1672,-34.17"/>
<text text-anchor="start" x="1675" y="-40.97" font-family="Times,serif" font-size="14.00">5</text>
<polygon fill="lightsalmon" stroke="transparent" points="1689,-34.17 1689,-55.17 1705,-55.17 1705,-34.17 1689,-34.17"/>
<polygon fill="none" stroke="black" points="1689,-34.17 1689,-55.17 1705,-55.17 1705,-34.17 1689,-34.17"/>
<text text-anchor="start" x="1692" y="-40.97" font-family="Times,serif" font-size="14.00">6</text>
<polygon fill="none" stroke="#1c86ee" points="1706,-34.17 1706,-55.17 1722,-55.17 1722,-34.17 1706,-34.17"/>
<text text-anchor="start" x="1709" y="-40.97" font-family="Times,serif" font-size="14.00">7</text>
</g>
<!-- node7&#45;&gt;node6 -->
<g id="edge17" class="edge">
<title>node7:index&#45;&gt;node6:index</title>
<path fill="none" stroke="crimson" d="M1775,-67.17C1755.68,-67.17 1748.47,-67.17 1733.13,-67.17"/>
<polygon fill="crimson" stroke="crimson" points="1733,-63.67 1723,-67.17 1733,-70.67 1733,-63.67"/>
</g>
<!-- node6&#45;&gt;node7 -->
<g id="edge20" class="edge">
<title>node6:next&#45;&gt;node7:prev</title>
<path fill="none" stroke="#1c86ee" d="M1723,-44.17C1742.32,-44.17 1749.53,-44.17 1764.87,-44.17"/>
<polygon fill="#1c86ee" stroke="#1c86ee" points="1765,-47.67 1775,-44.17 1765,-40.67 1765,-47.67"/>
</g>
<!-- node5 -->
<g id="node12" class="node">
<title>node5</title>
<polygon fill="#ebebeb" stroke="transparent" points="1568,-56.17 1568,-77.17 1618,-77.17 1618,-56.17 1568,-56.17"/>
<polygon fill="none" stroke="black" points="1568,-56.17 1568,-77.17 1618,-77.17 1618,-56.17 1568,-56.17"/>
<text text-anchor="start" x="1588" y="-62.97" font-family="Times,serif" font-size="14.00">5</text>
<polygon fill="none" stroke="crimson" points="1568,-34.17 1568,-55.17 1584,-55.17 1584,-34.17 1568,-34.17"/>
<text text-anchor="start" x="1571" y="-40.97" font-family="Times,serif" font-size="14.00">4</text>
<polygon fill="lightsalmon" stroke="transparent" points="1585,-34.17 1585,-55.17 1601,-55.17 1601,-34.17 1585,-34.17"/>
<polygon fill="none" stroke="black" points="1585,-34.17 1585,-55.17 1601,-55.17 1601,-34.17 1585,-34.17"/>
<text text-anchor="start" x="1588" y="-40.97" font-family="Times,serif" font-size="14.00">5</text>
<polygon fill="none" stroke="#1c86ee" points="1602,-34.17 1602,-55.17 1618,-55.17 1618,-34.17 1602,-34.17"/>
<text text-anchor="start" x="1605" y="-40.97" font-family="Times,serif" font-size="14.00">6</text>
</g>
<!-- node6&#45;&gt;node5 -->
<g id="edge19" class="edge">
<title>node6:index&#45;&gt;node5:index</title>
<path fill="none" stroke="crimson" d="M1671,-67.17C1651.68,-67.17 1644.47,-67.17 1629.13,-67.17"/>
<polygon fill="crimson" stroke="crimson" points="1629,-63.67 1619,-67.17 1629,-70.67 1629,-63.67"/>
</g>
<!-- node5&#45;&gt;node6 -->
<g id="edge22" class="edge">
<title>node5:next&#45;&gt;node6:prev</title>
<path fill="none" stroke="#1c86ee" d="M1619,-44.17C1638.32,-44.17 1645.53,-44.17 1660.87,-44.17"/>
<polygon fill="#1c86ee" stroke="#1c86ee" points="1661,-47.67 1671,-44.17 1661,-40.67 1661,-47.67"/>
</g>
<!-- node4 -->
<g id="node13" class="node">
<title>node4</title>
<polygon fill="#ebebeb" stroke="transparent" points="1464,-56.17 1464,-77.17 1514,-77.17 1514,-56.17 1464,-56.17"/>
<polygon fill="none" stroke="black" points="1464,-56.17 1464,-77.17 1514,-77.17 1514,-56.17 1464,-56.17"/>
<text text-anchor="start" x="1484" y="-62.97" font-family="Times,serif" font-size="14.00">4</text>
<polygon fill="none" stroke="crimson" points="1464,-34.17 1464,-55.17 1480,-55.17 1480,-34.17 1464,-34.17"/>
<text text-anchor="start" x="1467" y="-40.97" font-family="Times,serif" font-size="14.00">3</text>
<polygon fill="lightsalmon" stroke="transparent" points="1481,-34.17 1481,-55.17 1497,-55.17 1497,-34.17 1481,-34.17"/>
<polygon fill="none" stroke="black" points="1481,-34.17 1481,-55.17 1497,-55.17 1497,-34.17 1481,-34.17"/>
<text text-anchor="start" x="1484" y="-40.97" font-family="Times,serif" font-size="14.00">4</text>
<polygon fill="none" stroke="#1c86ee" points="1498,-34.17 1498,-55.17 1514,-55.17 1514,-34.17 1498,-34.17"/>
<text text-anchor="start" x="1501" y="-40.97" font-family="Times,serif" font-size="14.00">5</text>
</g>
<!-- node5&#45;&gt;node4 -->
<g id="edge21" class="edge">
<title>node5:index&#45;&gt;node4:index</title>
<path fill="none" stroke="crimson" d="M1567,-67.17C1547.68,-67.17 1540.47,-67.17 1525.13,-67.17"/>
<polygon fill="crimson" stroke="crimson" points="1525,-63.67 1515,-67.17 1525,-70.67 1525,-63.67"/>
</g>
<!-- node4&#45;&gt;node5 -->
<g id="edge24" class="edge">
<title>node4:next&#45;&gt;node5:prev</title>
<path fill="none" stroke="#1c86ee" d="M1515,-44.17C1534.32,-44.17 1541.53,-44.17 1556.87,-44.17"/>
<polygon fill="#1c86ee" stroke="#1c86ee" points="1557,-47.67 1567,-44.17 1557,-40.67 1557,-47.67"/>
</g>
<!-- node3 -->
<g id="node14" class="node">
<title>node3</title>
<polygon fill="#ebebeb" stroke="transparent" points="1360,-56.17 1360,-77.17 1410,-77.17 1410,-56.17 1360,-56.17"/>
<polygon fill="none" stroke="black" points="1360,-56.17 1360,-77.17 1410,-77.17 1410,-56.17 1360,-56.17"/>
<text text-anchor="start" x="1380" y="-62.97" font-family="Times,serif" font-size="14.00">3</text>
<polygon fill="none" stroke="crimson" points="1360,-34.17 1360,-55.17 1376,-55.17 1376,-34.17 1360,-34.17"/>
<text text-anchor="start" x="1363" y="-40.97" font-family="Times,serif" font-size="14.00">2</text>
<polygon fill="lightsalmon" stroke="transparent" points="1377,-34.17 1377,-55.17 1393,-55.17 1393,-34.17 1377,-34.17"/>
<polygon fill="none" stroke="black" points="1377,-34.17 1377,-55.17 1393,-55.17 1393,-34.17 1377,-34.17"/>
<text text-anchor="start" x="1380" y="-40.97" font-family="Times,serif" font-size="14.00">3</text>
<polygon fill="none" stroke="#1c86ee" points="1394,-34.17 1394,-55.17 1410,-55.17 1410,-34.17 1394,-34.17"/>
<text text-anchor="start" x="1397" y="-40.97" font-family="Times,serif" font-size="14.00">4</text>
</g>
<!-- node4&#45;&gt;node3 -->
<g id="edge23" class="edge">
<title>node4:index&#45;&gt;node3:index</title>
<path fill="none" stroke="crimson" d="M1463,-67.17C1443.68,-67.17 1436.47,-67.17 1421.13,-67.17"/>
<polygon fill="crimson" stroke="crimson" points="1421,-63.67 1411,-67.17 1421,-70.67 1421,-63.67"/>
</g>
<!-- node3&#45;&gt;node4 -->
<g id="edge26" class="edge">
<title>node3:next&#45;&gt;node4:prev</title>
<path fill="none" stroke="#1c86ee" d="M1411,-44.17C1430.32,-44.17 1437.53,-44.17 1452.87,-44.17"/>
<polygon fill="#1c86ee" stroke="#1c86ee" points="1453,-47.67 1463,-44.17 1453,-40.67 1453,-47.67"/>
</g>
<!-- node2 -->
<g id="node15" class="node">
<title>node2</title>
<polygon fill="#ebebeb" stroke="transparent" points="1256,-56.17 1256,-77.17 1306,-77.17 1306,-56.17 1256,-56.17"/>
<polygon fill="none" stroke="black" points="1256,-56.17 1256,-77.17 1306,-77.17 1306,-56.17 1256,-56.17"/>
<text text-anchor="start" x="1276" y="-62.97" font-family="Times,serif" font-size="14.00">2</text>
<polygon fill="none" stroke="crimson" points="1256,-34.17 1256,-55.17 1272,-55.17 1272,-34.17 1256,-34.17"/>
<text text-anchor="start" x="1259" y="-40.97" font-family="Times,serif" font-size="14.00">1</text>
<polygon fill="lightsalmon" stroke="transparent" points="1273,-34.17 1273,-55.17 1289,-55.17 1289,-34.17 1273,-34.17"/>
<polygon fill="none" stroke="black" points="1273,-34.17 1273,-55.17 1289,-55.17 1289,-34.17 1273,-34.17"/>
<text text-anchor="start" x="1276" y="-40.97" font-family="Times,serif" font-size="14.00">2</text>
<polygon fill="none" stroke="#1c86ee" points="1290,-34.17 1290,-55.17 1306,-55.17 1306,-34.17 1290,-34.17"/>
<text text-anchor="start" x="1293" y="-40.97" font-family="Times,serif" font-size="14.00">3</text>
</g>
<!-- node3&#45;&gt;node2 -->
<g id="edge25" class="edge">
<title>node3:index&#45;&gt;node2:index</title>
<path fill="none" stroke="crimson" d="M1359,-67.17C1339.68,-67.17 1332.47,-67.17 1317.13,-67.17"/>
<polygon fill="crimson" stroke="crimson" points="1317,-63.67 1307,-67.17 1317,-70.67 1317,-63.67"/>
</g>
<!-- node2&#45;&gt;node3 -->
<g id="edge28" class="edge">
<title>node2:next&#45;&gt;node3:prev</title>
<path fill="none" stroke="#1c86ee" d="M1307,-44.17C1326.32,-44.17 1333.53,-44.17 1348.87,-44.17"/>
<polygon fill="#1c86ee" stroke="#1c86ee" points="1349,-47.67 1359,-44.17 1349,-40.67 1349,-47.67"/>
</g>
<!-- node1 -->
<g id="node16" class="node">
<title>node1</title>
<polygon fill="#ebebeb" stroke="transparent" points="1152,-56.17 1152,-77.17 1202,-77.17 1202,-56.17 1152,-56.17"/>
<polygon fill="none" stroke="black" points="1152,-56.17 1152,-77.17 1202,-77.17 1202,-56.17 1152,-56.17"/>
<text text-anchor="start" x="1172" y="-62.97" font-family="Times,serif" font-size="14.00">1</text>
<polygon fill="none" stroke="crimson" points="1152,-34.17 1152,-55.17 1168,-55.17 1168,-34.17 1152,-34.17"/>
<text text-anchor="start" x="1155" y="-40.97" font-family="Times,serif" font-size="14.00">8</text>
<polygon fill="lightsalmon" stroke="transparent" points="1169,-34.17 1169,-55.17 1185,-55.17 1185,-34.17 1169,-34.17"/>
<polygon fill="none" stroke="black" points="1169,-34.17 1169,-55.17 1185,-55.17 1185,-34.17 1169,-34.17"/>
<text text-anchor="start" x="1172" y="-40.97" font-family="Times,serif" font-size="14.00">1</text>
<polygon fill="none" stroke="#1c86ee" points="1186,-34.17 1186,-55.17 1202,-55.17 1202,-34.17 1186,-34.17"/>
<text text-anchor="start" x="1189" y="-40.97" font-family="Times,serif" font-size="14.00">2</text>
</g>
<!-- node2&#45;&gt;node1 -->
<g id="edge27" class="edge">
<title>node2:index&#45;&gt;node1:index</title>
<path fill="none" stroke="crimson" d="M1255,-67.17C1235.68,-67.17 1228.47,-67.17 1213.13,-67.17"/>
<polygon fill="crimson" stroke="crimson" points="1213,-63.67 1203,-67.17 1213,-70.67 1213,-63.67"/>
</g>
<!-- node1&#45;&gt;node2 -->
<g id="edge30" class="edge">
<title>node1:next&#45;&gt;node2:prev</title>
<path fill="none" stroke="#1c86ee" d="M1203,-44.17C1222.32,-44.17 1229.53,-44.17 1244.87,-44.17"/>
<polygon fill="#1c86ee" stroke="#1c86ee" points="1245,-47.67 1255,-44.17 1245,-40.67 1245,-47.67"/>
</g>
<!-- node8 -->
<g id="node17" class="node">
<title>node8</title>
<polygon fill="#ebebeb" stroke="transparent" points="1039.5,-56.17 1039.5,-77.17 1098.5,-77.17 1098.5,-56.17 1039.5,-56.17"/>
<polygon fill="none" stroke="black" points="1039.5,-56.17 1039.5,-77.17 1098.5,-77.17 1098.5,-56.17 1039.5,-56.17"/>
<text text-anchor="start" x="1064" y="-62.97" font-family="Times,serif" font-size="14.00">8</text>
<polygon fill="none" stroke="crimson" points="1039.5,-34.17 1039.5,-55.17 1064.5,-55.17 1064.5,-34.17 1039.5,-34.17"/>
<text text-anchor="start" x="1042.5" y="-40.97" font-family="Times,serif" font-size="14.00">10</text>
<polygon fill="lightsalmon" stroke="transparent" points="1065.5,-34.17 1065.5,-55.17 1081.5,-55.17 1081.5,-34.17 1065.5,-34.17"/>
<polygon fill="none" stroke="black" points="1065.5,-34.17 1065.5,-55.17 1081.5,-55.17 1081.5,-34.17 1065.5,-34.17"/>
<text text-anchor="start" x="1068.5" y="-40.97" font-family="Times,serif" font-size="14.00">8</text>
<polygon fill="none" stroke="#1c86ee" points="1082.5,-34.17 1082.5,-55.17 1098.5,-55.17 1098.5,-34.17 1082.5,-34.17"/>
<text text-anchor="start" x="1085.5" y="-40.97" font-family="Times,serif" font-size="14.00">1</text>
</g>
<!-- node1&#45;&gt;node8 -->
<g id="edge29" class="edge">
<title>node1:index&#45;&gt;node8:index</title>
<path fill="none" stroke="crimson" d="M1151,-67.17C1131.87,-67.17 1124.73,-67.17 1109.53,-67.17"/>
<polygon fill="crimson" stroke="crimson" points="1109.5,-63.67 1099.5,-67.17 1109.5,-70.67 1109.5,-63.67"/>
</g>
<!-- node8&#45;&gt;node1 -->
<g id="edge32" class="edge">
<title>node8:next&#45;&gt;node1:prev</title>
<path fill="none" stroke="#1c86ee" d="M1099.5,-44.17C1118.63,-44.17 1125.77,-44.17 1140.97,-44.17"/>
<polygon fill="#1c86ee" stroke="#1c86ee" points="1141,-47.67 1151,-44.17 1141,-40.67 1141,-47.67"/>
</g>
<!-- node10 -->
<g id="node18" class="node">
<title>node10</title>
<polygon fill="#ebebeb" stroke="transparent" points="917,-56.17 917,-77.17 985,-77.17 985,-56.17 917,-56.17"/>
<polygon fill="none" stroke="black" points="917,-56.17 917,-77.17 985,-77.17 985,-56.17 917,-56.17"/>
<text text-anchor="start" x="941.5" y="-62.97" font-family="Times,serif" font-size="14.00">10</text>
<polygon fill="none" stroke="crimson" points="917,-34.17 917,-55.17 942,-55.17 942,-34.17 917,-34.17"/>
<text text-anchor="start" x="920" y="-40.97" font-family="Times,serif" font-size="14.00">17</text>
<polygon fill="lightsalmon" stroke="transparent" points="943,-34.17 943,-55.17 968,-55.17 968,-34.17 943,-34.17"/>
<polygon fill="none" stroke="black" points="943,-34.17 943,-55.17 968,-55.17 968,-34.17 943,-34.17"/>
<text text-anchor="start" x="946" y="-40.97" font-family="Times,serif" font-size="14.00">10</text>
<polygon fill="none" stroke="#1c86ee" points="969,-34.17 969,-55.17 985,-55.17 985,-34.17 969,-34.17"/>
<text text-anchor="start" x="972" y="-40.97" font-family="Times,serif" font-size="14.00">8</text>
</g>
<!-- node8&#45;&gt;node10 -->
<g id="edge31" class="edge">
<title>node8:index&#45;&gt;node10:index</title>
<path fill="none" stroke="crimson" d="M1038.5,-67.17C1018.99,-67.17 1011.72,-67.17 996.23,-67.17"/>
<polygon fill="crimson" stroke="crimson" points="996,-63.67 986,-67.17 996,-70.67 996,-63.67"/>
</g>
<!-- node10&#45;&gt;node8 -->
<g id="edge34" class="edge">
<title>node10:next&#45;&gt;node8:prev</title>
<path fill="none" stroke="#1c86ee" d="M986,-44.17C1005.51,-44.17 1012.78,-44.17 1028.27,-44.17"/>
<polygon fill="#1c86ee" stroke="#1c86ee" points="1028.5,-47.67 1038.5,-44.17 1028.5,-40.67 1028.5,-47.67"/>
</g>
<!-- node17 -->
<g id="node19" class="node">
<title>node17</title>
<polygon fill="#ebebeb" stroke="transparent" points="786.5,-56.17 786.5,-77.17 863.5,-77.17 863.5,-56.17 786.5,-56.17"/>
<polygon fill="none" stroke="black" points="786.5,-56.17 786.5,-77.17 863.5,-77.17 863.5,-56.17 786.5,-56.17"/>
<text text-anchor="start" x="815.5" y="-62.97" font-family="Times,serif" font-size="14.00">17</text>
<polygon fill="none" stroke="crimson" points="786.5,-34.17 786.5,-55.17 811.5,-55.17 811.5,-34.17 786.5,-34.17"/>
<text text-anchor="start" x="789.5" y="-40.97" font-family="Times,serif" font-size="14.00">18</text>
<polygon fill="lightsalmon" stroke="transparent" points="812.5,-34.17 812.5,-55.17 837.5,-55.17 837.5,-34.17 812.5,-34.17"/>
<polygon fill="none" stroke="black" points="812.5,-34.17 812.5,-55.17 837.5,-55.17 837.5,-34.17 812.5,-34.17"/>
<text text-anchor="start" x="815.5" y="-40.97" font-family="Times,serif" font-size="14.00">17</text>
<polygon fill="none" stroke="#1c86ee" points="838.5,-34.17 838.5,-55.17 863.5,-55.17 863.5,-34.17 838.5,-34.17"/>
<text text-anchor="start" x="841.5" y="-40.97" font-family="Times,serif" font-size="14.00">10</text>
</g>
<!-- node10&#45;&gt;node17 -->
<g id="edge33" class="edge">
<title>node10:index&#45;&gt;node17:index</title>
<path fill="none" stroke="crimson" d="M916,-67.17C896.87,-67.17 889.73,-67.17 874.53,-67.17"/>
<polygon fill="crimson" stroke="crimson" points="874.5,-63.67 864.5,-67.17 874.5,-70.67 874.5,-63.67"/>
</g>
<!-- node17&#45;&gt;node10 -->
<g id="edge36" class="edge">
<title>node17:next&#45;&gt;node10:prev</title>
<path fill="none" stroke="#1c86ee" d="M864.5,-44.17C883.63,-44.17 890.77,-44.17 905.97,-44.17"/>
<polygon fill="#1c86ee" stroke="#1c86ee" points="906,-47.67 916,-44.17 906,-40.67 906,-47.67"/>
</g>
<!-- node18 -->
<g id="node20" class="node">
<title>node18</title>
<polygon fill="#ebebeb" stroke="transparent" points="655.5,-56.17 655.5,-77.17 732.5,-77.17 732.5,-56.17 655.5,-56.17"/>
<polygon fill="none" stroke="black" points="655.5,-56.17 655.5,-77.17 732.5,-77.17 732.5,-56.17 655.5,-56.17"/>
<text text-anchor="start" x="684.5" y="-62.97" font-family="Times,serif" font-size="14.00">18</text>
<polygon fill="none" stroke="crimson" points="655.5,-34.17 655.5,-55.17 680.5,-55.17 680.5,-34.17 655.5,-34.17"/>
<text text-anchor="start" x="658.5" y="-40.97" font-family="Times,serif" font-size="14.00">19</text>
<polygon fill="lightsalmon" stroke="transparent" points="681.5,-34.17 681.5,-55.17 706.5,-55.17 706.5,-34.17 681.5,-34.17"/>
<polygon fill="none" stroke="black" points="681.5,-34.17 681.5,-55.17 706.5,-55.17 706.5,-34.17 681.5,-34.17"/>
<text text-anchor="start" x="684.5" y="-40.97" font-family="Times,serif" font-size="14.00">18</text>
<polygon fill="none" stroke="#1c86ee" points="707.5,-34.17 707.5,-55.17 732.5,-55.17 732.5,-34.17 707.5,-34.17"/>
<text text-anchor="start" x="710.5" y="-40.97" font-family="Times,serif" font-size="14.00">17</text>
</g>
<!-- node17&#45;&gt;node18 -->
<g id="edge35" class="edge">
<title>node17:index&#45;&gt;node18:index</title>
<path fill="none" stroke="crimson" d="M785.5,-67.17C766.18,-67.17 758.97,-67.17 743.63,-67.17"/>
<polygon fill="crimson" stroke="crimson" points="743.5,-63.67 733.5,-67.17 743.5,-70.67 743.5,-63.67"/>
</g>
<!-- node18&#45;&gt;node17 -->
<g id="edge38" class="edge">
<title>node18:next&#45;&gt;node17:prev</title>
<path fill="none" stroke="#1c86ee" d="M733.5,-44.17C752.82,-44.17 760.03,-44.17 775.37,-44.17"/>
<polygon fill="#1c86ee" stroke="#1c86ee" points="775.5,-47.67 785.5,-44.17 775.5,-40.67 775.5,-47.67"/>
</g>
<!-- node19 -->
<g id="node21" class="node">
<title>node19</title>
<polygon fill="#ebebeb" stroke="transparent" points="524.5,-56.17 524.5,-77.17 601.5,-77.17 601.5,-56.17 524.5,-56.17"/>
<polygon fill="none" stroke="black" points="524.5,-56.17 524.5,-77.17 601.5,-77.17 601.5,-56.17 524.5,-56.17"/>
<text text-anchor="start" x="553.5" y="-62.97" font-family="Times,serif" font-size="14.00">19</text>
<polygon fill="none" stroke="crimson" points="524.5,-34.17 524.5,-55.17 549.5,-55.17 549.5,-34.17 524.5,-34.17"/>
<text text-anchor="start" x="527.5" y="-40.97" font-family="Times,serif" font-size="14.00">20</text>
<polygon fill="lightsalmon" stroke="transparent" points="550.5,-34.17 550.5,-55.17 575.5,-55.17 575.5,-34.17 550.5,-34.17"/>
<polygon fill="none" stroke="black" points="550.5,-34.17 550.5,-55.17 575.5,-55.17 575.5,-34.17 550.5,-34.17"/>
<text text-anchor="start" x="553.5" y="-40.97" font-family="Times,serif" font-size="14.00">19</text>
<polygon fill="none" stroke="#1c86ee" points="576.5,-34.17 576.5,-55.17 601.5,-55.17 601.5,-34.17 576.5,-34.17"/>
<text text-anchor="start" x="579.5" y="-40.97" font-family="Times,serif" font-size="14.00">18</text>
</g>
<!-- node18&#45;&gt;node19 -->
<g id="edge37" class="edge">
<title>node18:index&#45;&gt;node19:index</title>
<path fill="none" stroke="crimson" d="M654.5,-67.17C635.18,-67.17 627.97,-67.17 612.63,-67.17"/>
<polygon fill="crimson" stroke="crimson" points="612.5,-63.67 602.5,-67.17 612.5,-70.67 612.5,-63.67"/>
</g>
<!-- node19&#45;&gt;node18 -->
<g id="edge40" class="edge">
<title>node19:next&#45;&gt;node18:prev</title>
<path fill="none" stroke="#1c86ee" d="M602.5,-44.17C621.82,-44.17 629.03,-44.17 644.37,-44.17"/>
<polygon fill="#1c86ee" stroke="#1c86ee" points="644.5,-47.67 654.5,-44.17 644.5,-40.67 644.5,-47.67"/>
</g>
<!-- node20 -->
<g id="node22" class="node">
<title>node20</title>
<polygon fill="#ebebeb" stroke="transparent" points="393.5,-56.17 393.5,-77.17 470.5,-77.17 470.5,-56.17 393.5,-56.17"/>
<polygon fill="none" stroke="black" points="393.5,-56.17 393.5,-77.17 470.5,-77.17 470.5,-56.17 393.5,-56.17"/>
<text text-anchor="start" x="422.5" y="-62.97" font-family="Times,serif" font-size="14.00">20</text>
<polygon fill="none" stroke="crimson" points="393.5,-34.17 393.5,-55.17 418.5,-55.17 418.5,-34.17 393.5,-34.17"/>
<text text-anchor="start" x="396.5" y="-40.97" font-family="Times,serif" font-size="14.00">21</text>
<polygon fill="lightsalmon" stroke="transparent" points="419.5,-34.17 419.5,-55.17 444.5,-55.17 444.5,-34.17 419.5,-34.17"/>
<polygon fill="none" stroke="black" points="419.5,-34.17 419.5,-55.17 444.5,-55.17 444.5,-34.17 419.5,-34.17"/>
<text text-anchor="start" x="422.5" y="-40.97" font-family="Times,serif" font-size="14.00">20</text>
<polygon fill="none" stroke="#1c86ee" points="445.5,-34.17 445.5,-55.17 470.5,-55.17 470.5,-34.17 445.5,-34.17"/>
<text text-anchor="start" x="448.5" y="-40.97" font-family="Times,serif" font-size="14.00">19</text>
</g>
<!-- node19&#45;&gt;node20 -->
<g id="edge39" class="edge">
<title>node19:index&#45;&gt;node20:index</title>
<path fill="none" stroke="crimson" d="M523.5,-67.17C504.18,-67.17 496.97,-67.17 481.63,-67.17"/>
<polygon fill="crimson" stroke="crimson" points="481.5,-63.67 471.5,-67.17 481.5,-70.67 481.5,-63.67"/>
</g>
<!-- node20&#45;&gt;node19 -->
<g id="edge42" class="edge">
<title>node20:next&#45;&gt;node19:prev</title>
<path fill="none" stroke="#1c86ee" d="M471.5,-44.17C490.82,-44.17 498.03,-44.17 513.37,-44.17"/>
<polygon fill="#1c86ee" stroke="#1c86ee" points="513.5,-47.67 523.5,-44.17 513.5,-40.67 513.5,-47.67"/>
</g>
<!-- node21 -->
<g id="node23" class="node">
<title>node21</title>
<polygon fill="#ebebeb" stroke="transparent" points="262.5,-56.17 262.5,-77.17 339.5,-77.17 339.5,-56.17 262.5,-56.17"/>
<polygon fill="none" stroke="black" points="262.5,-56.17 262.5,-77.17 339.5,-77.17 339.5,-56.17 262.5,-56.17"/>
<text text-anchor="start" x="291.5" y="-62.97" font-family="Times,serif" font-size="14.00">21</text>
<polygon fill="none" stroke="crimson" points="262.5,-34.17 262.5,-55.17 287.5,-55.17 287.5,-34.17 262.5,-34.17"/>
<text text-anchor="start" x="265.5" y="-40.97" font-family="Times,serif" font-size="14.00">22</text>
<polygon fill="lightsalmon" stroke="transparent" points="288.5,-34.17 288.5,-55.17 313.5,-55.17 313.5,-34.17 288.5,-34.17"/>
<polygon fill="none" stroke="black" points="288.5,-34.17 288.5,-55.17 313.5,-55.17 313.5,-34.17 288.5,-34.17"/>
<text text-anchor="start" x="291.5" y="-40.97" font-family="Times,serif" font-size="14.00">21</text>
<polygon fill="none" stroke="#1c86ee" points="314.5,-34.17 314.5,-55.17 339.5,-55.17 339.5,-34.17 314.5,-34.17"/>
<text text-anchor="start" x="317.5" y="-40.97" font-family="Times,serif" font-size="14.00">20</text>
</g>
<!-- node20&#45;&gt;node21 -->
<g id="edge41" class="edge">
<title>node20:index&#45;&gt;node21:index</title>
<path fill="none" stroke="crimson" d="M392.5,-67.17C373.18,-67.17 365.97,-67.17 350.63,-67.17"/>
<polygon fill="crimson" stroke="crimson" points="350.5,-63.67 340.5,-67.17 350.5,-70.67 350.5,-63.67"/>
</g>
<!-- node21&#45;&gt;node20 -->
<g id="edge44" class="edge">
<title>node21:next&#45;&gt;node20:prev</title>
<path fill="none" stroke="#1c86ee" d="M340.5,-44.17C359.82,-44.17 367.03,-44.17 382.37,-44.17"/>
<polygon fill="#1c86ee" stroke="#1c86ee" points="382.5,-47.67 392.5,-44.17 382.5,-40.67 382.5,-47.67"/>
</g>
<!-- node22 -->
<g id="node24" class="node">
<title>node22</title>
<polygon fill="#ebebeb" stroke="transparent" points="131.5,-56.17 131.5,-77.17 208.5,-77.17 208.5,-56.17 131.5,-56.17"/>
<polygon fill="none" stroke="black" points="131.5,-56.17 131.5,-77.17 208.5,-77.17 208.5,-56.17 131.5,-56.17"/>
<text text-anchor="start" x="160.5" y="-62.97" font-family="Times,serif" font-size="14.00">22</text>
<polygon fill="none" stroke="crimson" points="131.5,-34.17 131.5,-55.17 156.5,-55.17 156.5,-34.17 131.5,-34.17"/>
<text text-anchor="start" x="134.5" y="-40.97" font-family="Times,serif" font-size="14.00">23</text>
<polygon fill="lightsalmon" stroke="transparent" points="157.5,-34.17 157.5,-55.17 182.5,-55.17 182.5,-34.17 157.5,-34.17"/>
<polygon fill="none" stroke="black" points="157.5,-34.17 157.5,-55.17 182.5,-55.17 182.5,-34.17 157.5,-34.17"/>
<text text-anchor="start" x="160.5" y="-40.97" font-family="Times,serif" font-size="14.00">22</text>
<polygon fill="none" stroke="#1c86ee" points="183.5,-34.17 183.5,-55.17 208.5,-55.17 208.5,-34.17 183.5,-34.17"/>
<text text-anchor="start" x="186.5" y="-40.97" font-family="Times,serif" font-size="14.00">21</text>
</g>
<!-- node21&#45;&gt;node22 -->
<g id="edge43" class="edge">
<title>node21:index&#45;&gt;node22:index</title>
<path fill="none" stroke="crimson" d="M261.5,-67.17C242.18,-67.17 234.97,-67.17 219.63,-67.17"/>
<polygon fill="crimson" stroke="crimson" points="219.5,-63.67 209.5,-67.17 219.5,-70.67 219.5,-63.67"/>
</g>
<!-- node22&#45;&gt;node21 -->
<g id="edge46" class="edge">
<title>node22:next&#45;&gt;node21:prev</title>
<path fill="none" stroke="#1c86ee" d="M209.5,-44.17C228.82,-44.17 236.03,-44.17 251.37,-44.17"/>
<polygon fill="#1c86ee" stroke="#1c86ee" points="251.5,-47.67 261.5,-44.17 251.5,-40.67 251.5,-47.67"/>
</g>
<!-- node23 -->
<g id="node25" class="node">
<title>node23</title>
<polygon fill="#ebebeb" stroke="transparent" points="9,-56.17 9,-77.17 77,-77.17 77,-56.17 9,-56.17"/>
<polygon fill="none" stroke="black" points="9,-56.17 9,-77.17 77,-77.17 77,-56.17 9,-56.17"/>
<text text-anchor="start" x="33.5" y="-62.97" font-family="Times,serif" font-size="14.00">23</text>
<polygon fill="none" stroke="crimson" points="9,-34.17 9,-55.17 25,-55.17 25,-34.17 9,-34.17"/>
<text text-anchor="start" x="12" y="-40.97" font-family="Times,serif" font-size="14.00">0</text>
<polygon fill="lightsalmon" stroke="transparent" points="26,-34.17 26,-55.17 51,-55.17 51,-34.17 26,-34.17"/>
<polygon fill="none" stroke="black" points="26,-34.17 26,-55.17 51,-55.17 51,-34.17 26,-34.17"/>
<text text-anchor="start" x="29" y="-40.97" font-family="Times,serif" font-size="14.00">23</text>
<polygon fill="none" stroke="#1c86ee" points="52,-34.17 52,-55.17 77,-55.17 77,-34.17 52,-34.17"/>
<text text-anchor="start" x="55" y="-40.97" font-family="Times,serif" font-size="14.00">22</text>
</g>
<!-- node22&#45;&gt;node23 -->
<g id="edge45" class="edge">
<title>node22:index&#45;&gt;node23:index</title>
<path fill="none" stroke="crimson" d="M130.5,-67.17C110.99,-67.17 103.72,-67.17 88.23,-67.17"/>
<polygon fill="crimson" stroke="crimson" points="88,-63.67 78,-67.17 88,-70.67 88,-63.67"/>
</g>
<!-- node23&#45;&gt;node0 -->
<g id="edge47" class="edge">
<title>node23:index&#45;&gt;node0</title>
<path fill="none" stroke="black" d="M78,-67.17C100.49,-67.17 100.59,-85.27 122,-92.17 197.52,-116.5 220.16,-111.17 299.5,-111.17 299.5,-111.17 299.5,-111.17 2678.5,-111.17 2753.86,-111.17 2773.84,-110.25 2847,-92.17 2868.26,-86.91 2891.16,-78.06 2909.12,-70.34"/>
<polygon fill="black" stroke="black" points="2910.8,-73.42 2918.55,-66.19 2907.99,-67.01 2910.8,-73.42"/>
</g>
<!-- node23&#45;&gt;node0 -->
<g id="edge50" class="edge">
<title>node23:next&#45;&gt;node0</title>
<path fill="none" stroke="black" d="M78,-44.17C100.28,-44.17 100.74,-26.81 122,-20.17 197.73,3.5 220.16,-1.17 299.5,-1.17 299.5,-1.17 299.5,-1.17 2678.5,-1.17 2753.86,-1.17 2773.67,-2.76 2847,-20.17 2867.87,-25.12 2890.43,-33.34 2908.3,-40.56"/>
<polygon fill="black" stroke="black" points="2907.13,-43.86 2917.71,-44.45 2909.8,-37.39 2907.13,-43.86"/>
</g>
<!-- node23&#45;&gt;node22 -->
<g id="edge48" class="edge">
<title>node23:next&#45;&gt;node22:prev</title>
<path fill="none" stroke="#1c86ee" d="M78,-44.17C97.51,-44.17 104.78,-44.17 120.27,-44.17"/>
<polygon fill="#1c86ee" stroke="#1c86ee" points="120.5,-47.67 130.5,-44.17 120.5,-40.67 120.5,-47.67"/>
</g>
</g>
</svg>
