<?xml version="1.0" encoding="UTF-8" standalone="no"?>
<!DOCTYPE svg PUBLIC "-//W3C//DTD SVG 1.1//EN"
 "http://www.w3.org/Graphics/SVG/1.1/DTD/svg11.dtd">
<!-- Generated by graphviz version 2.43.0 (0)
 -->
<!-- Title: list Pages: 1 -->
<svg width="1185pt" height="118pt"
 viewBox="0.00 0.00 1185.49 118.15" xmlns="http://www.w3.org/2000/svg" xmlns:xlink="http://www.w3.org/1999/xlink">
<g id="graph0" class="graph" transform="scale(1 1) rotate(0) translate(4 114.15)">
<title>list</title>
<polygon fill="white" stroke="transparent" points="-4,4 -4,-114.15 1181.49,-114.15 1181.49,4 -4,4"/>
<!-- node10 -->
<g id="node1" class="node">
<title>node10</title>
<polygon fill="#ebebeb" stroke="transparent" points="9.5,-55 9.5,-76 68.5,-76 68.5,-55 9.5,-55"/>
<polygon fill="none" stroke="black" points="9.5,-55 9.5,-76 68.5,-76 68.5,-55 9.5,-55"/>
<text text-anchor="start" x="29.5" y="-61.8" font-family="Times,serif" font-size="14.00">10</text>
<polygon fill="none" stroke="crimson" points="9.5,-33 9.5,-54 25.5,-54 25.5,-33 9.5,-33"/>
<text text-anchor="start" x="12.5" y="-39.8" font-family="Times,serif" font-size="14.00">0</text>
<polygon fill="lightsalmon" stroke="transparent" points="26.5,-33 26.5,-54 51.5,-54 51.5,-33 26.5,-33"/>
<polygon fill="none" stroke="black" points="26.5,-33 26.5,-54 51.5,-54 51.5,-33 26.5,-33"/>
<text text-anchor="start" x="29.5" y="-39.8" font-family="Times,serif" font-size="14.00">10</text>
<polygon fill="none" stroke="#1c86ee" points="52.5,-33 52.5,-54 68.5,-54 68.5,-33 52.5,-33"/>
<text text-anchor="start" x="55.5" y="-39.8" font-family="Times,serif" font-size="14.00">8</text>
</g>
<!-- node8 -->
<g id="node2" class="node">
<title>node8</title>
<polygon fill="#ebebeb" stroke="transparent" points="122.5,-55 122.5,-76 181.5,-76 181.5,-55 122.5,-55"/>
<polygon fill="none" stroke="black" points="122.5,-55 122.5,-76 181.5,-76 181.5,-55 122.5,-55"/>
<text text-anchor="start" x="147" y="-61.8" font-family="Times,serif" font-size="14.00">8</text>
<polygon fill="none" stroke="crimson" points="122.5,-33 122.5,-54 147.5,-54 147.5,-33 122.5,-33"/>
<text text-anchor="start" x="125.5" y="-39.8" font-family="Times,serif" font-size="14.00">10</text>
<polygon fill="lightsalmon" stroke="transparent" points="148.5,-33 148.5,-54 164.5,-54 164.5,-33 148.5,-33"/>
<polygon fill="none" stroke="black" points="148.5,-33 148.5,-54 164.5,-54 164.5,-33 148.5,-33"/>
<text text-anchor="start" x="151.5" y="-39.8" font-family="Times,serif" font-size="14.00">8</text>
<polygon fill="none" stroke="#1c86ee" points="165.5,-33 165.5,-54 181.5,-54 181.5,-33 165.5,-33"/>
<text text-anchor="start" x="168.5" y="-39.8" font-family="Times,serif" font-size="14.00">6</text>
</g>
<!-- node10&#45;&gt;node8 -->
<g id="edge1" class="edge">
<title>node10:next&#45;&gt;node8:index</title>
<path fill="none" stroke="#1c86ee" d="M69.5,-43C90.82,-43 95.19,-59.37 111.22,-64.49"/>
<polygon fill="#1c86ee" stroke="#1c86ee" points="111.1,-68.01 121.5,-66 112.11,-61.09 111.1,-68.01"/>
</g>
<!-- node0 -->
<g id="node3" class="node">
<title>node0</title>
<polygon fill="none" stroke="black" points="1117.75,-72 1057.75,-54 1117.75,-36 1177.74,-54 1117.75,-72"/>
<text text-anchor="middle" x="1117.75" y="-50.3" font-family="Times,serif" font-size="14.00">Fictive</text>
</g>
<!-- node10&#45;&gt;node0 -->
<g id="edge2" class="edge">
<title>node10:prev&#45;&gt;node0</title>
<path fill="none" stroke="black" d="M17.5,-32C17.5,-26.04 202.58,0 259,0 259,0 259,0 885,0 946.47,0 962.38,-4.04 1022,-19 1042.81,-24.22 1065.37,-32.45 1083.25,-39.61"/>
<polygon fill="black" stroke="black" points="1082.08,-42.91 1092.66,-43.46 1084.73,-36.43 1082.08,-42.91"/>
</g>
<!-- node8&#45;&gt;node10 -->
<g id="edge4" class="edge">
<title>node8:prev&#45;&gt;node10:index</title>
<path fill="none" stroke="crimson" d="M121.5,-43C100.18,-43 95.81,-59.37 79.78,-64.49"/>
<polygon fill="crimson" stroke="crimson" points="78.89,-61.09 69.5,-66 79.9,-68.01 78.89,-61.09"/>
</g>
<!-- node6 -->
<g id="node4" class="node">
<title>node6</title>
<polygon fill="#ebebeb" stroke="transparent" points="235,-55 235,-76 285,-76 285,-55 235,-55"/>
<polygon fill="none" stroke="black" points="235,-55 235,-76 285,-76 285,-55 235,-55"/>
<text text-anchor="start" x="255" y="-61.8" font-family="Times,serif" font-size="14.00">6</text>
<polygon fill="none" stroke="crimson" points="235,-33 235,-54 251,-54 251,-33 235,-33"/>
<text text-anchor="start" x="238" y="-39.8" font-family="Times,serif" font-size="14.00">8</text>
<polygon fill="lightsalmon" stroke="transparent" points="252,-33 252,-54 268,-54 268,-33 252,-33"/>
<polygon fill="none" stroke="black" points="252,-33 252,-54 268,-54 268,-33 252,-33"/>
<text text-anchor="start" x="255" y="-39.8" font-family="Times,serif" font-size="14.00">6</text>
<polygon fill="none" stroke="#1c86ee" points="269,-33 269,-54 285,-54 285,-33 269,-33"/>
<text text-anchor="start" x="272" y="-39.8" font-family="Times,serif" font-size="14.00">5</text>
</g>
<!-- node8&#45;&gt;node6 -->
<g id="edge3" class="edge">
<title>node8:next&#45;&gt;node6:index</title>
<path fill="none" stroke="#1c86ee" d="M182.5,-43C203.65,-43 207.93,-59.37 223.8,-64.49"/>
<polygon fill="#1c86ee" stroke="#1c86ee" points="223.6,-68 234,-66 224.62,-61.07 223.6,-68"/>
</g>
<!-- node0&#45;&gt;node10 -->
<g id="edge21" class="edge">
<title>node0&#45;&gt;node10:index</title>
<path fill="none" stroke="black" d="M1093.07,-64.65C1074.19,-72.74 1046.87,-83.54 1022,-90 962.44,-105.46 946.53,-110 885,-110 259,-110 259,-110 259,-110 193.51,-110 175.17,-110.61 113,-90 95.81,-84.3 92.41,-71.8 79.55,-67.49"/>
<polygon fill="black" stroke="black" points="79.91,-64.01 69.5,-66 78.88,-70.93 79.91,-64.01"/>
</g>
<!-- node9 -->
<g id="node11" class="node">
<title>node9</title>
<polygon fill="#ebebeb" stroke="transparent" points="963,-55 963,-76 1013,-76 1013,-55 963,-55"/>
<polygon fill="none" stroke="black" points="963,-55 963,-76 1013,-76 1013,-55 963,-55"/>
<text text-anchor="start" x="983" y="-61.8" font-family="Times,serif" font-size="14.00">9</text>
<polygon fill="none" stroke="crimson" points="963,-33 963,-54 979,-54 979,-33 963,-33"/>
<text text-anchor="start" x="966" y="-39.8" font-family="Times,serif" font-size="14.00">7</text>
<polygon fill="lightsalmon" stroke="transparent" points="980,-33 980,-54 996,-54 996,-33 980,-33"/>
<polygon fill="none" stroke="black" points="980,-33 980,-54 996,-54 996,-33 980,-33"/>
<text text-anchor="start" x="983" y="-39.8" font-family="Times,serif" font-size="14.00">9</text>
<polygon fill="none" stroke="#1c86ee" points="997,-33 997,-54 1013,-54 1013,-33 997,-33"/>
<text text-anchor="start" x="1000" y="-39.8" font-family="Times,serif" font-size="14.00">0</text>
</g>
<!-- node0&#45;&gt;node9 -->
<g id="edge22" class="edge">
<title>node0&#45;&gt;node9:index</title>
<path fill="none" stroke="black" d="M1079.29,-60.49C1062.83,-62.89 1042.98,-65.18 1024.07,-65.82"/>
<polygon fill="black" stroke="black" points="1023.94,-62.32 1014,-66 1024.06,-69.32 1023.94,-62.32"/>
</g>
<!-- node6&#45;&gt;node8 -->
<g id="edge6" class="edge">
<title>node6:prev&#45;&gt;node8:index</title>
<path fill="none" stroke="crimson" d="M234,-43C212.85,-43 208.57,-59.37 192.7,-64.49"/>
<polygon fill="crimson" stroke="crimson" points="191.88,-61.07 182.5,-66 192.9,-68 191.88,-61.07"/>
</g>
<!-- node5 -->
<g id="node5" class="node">
<title>node5</title>
<polygon fill="#ebebeb" stroke="transparent" points="339,-55 339,-76 389,-76 389,-55 339,-55"/>
<polygon fill="none" stroke="black" points="339,-55 339,-76 389,-76 389,-55 339,-55"/>
<text text-anchor="start" x="359" y="-61.8" font-family="Times,serif" font-size="14.00">5</text>
<polygon fill="none" stroke="crimson" points="339,-33 339,-54 355,-54 355,-33 339,-33"/>
<text text-anchor="start" x="342" y="-39.8" font-family="Times,serif" font-size="14.00">6</text>
<polygon fill="lightsalmon" stroke="transparent" points="356,-33 356,-54 372,-54 372,-33 356,-33"/>
<polygon fill="none" stroke="black" points="356,-33 356,-54 372,-54 372,-33 356,-33"/>
<text text-anchor="start" x="359" y="-39.8" font-family="Times,serif" font-size="14.00">5</text>
<polygon fill="none" stroke="#1c86ee" points="373,-33 373,-54 389,-54 389,-33 373,-33"/>
<text text-anchor="start" x="376" y="-39.8" font-family="Times,serif" font-size="14.00">2</text>
</g>
<!-- node6&#45;&gt;node5 -->
<g id="edge5" class="edge">
<title>node6:next&#45;&gt;node5:index</title>
<path fill="none" stroke="#1c86ee" d="M286,-43C307.32,-43 311.69,-59.37 327.72,-64.49"/>
<polygon fill="#1c86ee" stroke="#1c86ee" points="327.6,-68.01 338,-66 328.61,-61.09 327.6,-68.01"/>
</g>
<!-- node5&#45;&gt;node6 -->
<g id="edge8" class="edge">
<title>node5:prev&#45;&gt;node6:index</title>
<path fill="none" stroke="crimson" d="M338,-43C316.68,-43 312.31,-59.37 296.28,-64.49"/>
<polygon fill="crimson" stroke="crimson" points="295.39,-61.09 286,-66 296.4,-68.01 295.39,-61.09"/>
</g>
<!-- node2 -->
<g id="node6" class="node">
<title>node2</title>
<polygon fill="#ebebeb" stroke="transparent" points="443,-55 443,-76 493,-76 493,-55 443,-55"/>
<polygon fill="none" stroke="black" points="443,-55 443,-76 493,-76 493,-55 443,-55"/>
<text text-anchor="start" x="463" y="-61.8" font-family="Times,serif" font-size="14.00">2</text>
<polygon fill="none" stroke="crimson" points="443,-33 443,-54 459,-54 459,-33 443,-33"/>
<text text-anchor="start" x="446" y="-39.8" font-family="Times,serif" font-size="14.00">5</text>
<polygon fill="lightsalmon" stroke="transparent" points="460,-33 460,-54 476,-54 476,-33 460,-33"/>
<polygon fill="none" stroke="black" points="460,-33 460,-54 476,-54 476,-33 460,-33"/>
<text text-anchor="start" x="463" y="-39.8" font-family="Times,serif" font-size="14.00">2</text>
<polygon fill="none" stroke="#1c86ee" points="477,-33 477,-54 493,-54 493,-33 477,-33"/>
<text text-anchor="start" x="480" y="-39.8" font-family="Times,serif" font-size="14.00">1</text>
</g>
<!-- node5&#45;&gt;node2 -->
<g id="edge7" class="edge">
<title>node5:next&#45;&gt;node2:index</title>
<path fill="none" stroke="#1c86ee" d="M390,-43C411.32,-43 415.69,-59.37 431.72,-64.49"/>
<polygon fill="#1c86ee" stroke="#1c86ee" points="431.6,-68.01 442,-66 432.61,-61.09 431.6,-68.01"/>
</g>
<!-- node2&#45;&gt;node5 -->
<g id="edge10" class="edge">
<title>node2:prev&#45;&gt;node5:index</title>
<path fill="none" stroke="crimson" d="M442,-43C420.68,-43 416.31,-59.37 400.28,-64.49"/>
<polygon fill="crimson" stroke="crimson" points="399.39,-61.09 390,-66 400.4,-68.01 399.39,-61.09"/>
</g>
<!-- node1 -->
<g id="node7" class="node">
<title>node1</title>
<polygon fill="#ebebeb" stroke="transparent" points="547,-55 547,-76 597,-76 597,-55 547,-55"/>
<polygon fill="none" stroke="black" points="547,-55 547,-76 597,-76 597,-55 547,-55"/>
<text text-anchor="start" x="567" y="-61.8" font-family="Times,serif" font-size="14.00">1</text>
<polygon fill="none" stroke="crimson" points="547,-33 547,-54 563,-54 563,-33 547,-33"/>
<text text-anchor="start" x="550" y="-39.8" font-family="Times,serif" font-size="14.00">2</text>
<polygon fill="lightsalmon" stroke="transparent" points="564,-33 564,-54 580,-54 580,-33 564,-33"/>
<polygon fill="none" stroke="black" points="564,-33 564,-54 580,-54 580,-33 564,-33"/>
<text text-anchor="start" x="567" y="-39.8" font-family="Times,serif" font-size="14.00">1</text>
<polygon fill="none" stroke="#1c86ee" points="581,-33 581,-54 597,-54 597,-33 581,-33"/>
<text text-anchor="start" x="584" y="-39.8" font-family="Times,serif" font-size="14.00">3</text>
</g>
<!-- node2&#45;&gt;node1 -->
<g id="edge9" class="edge">
<title>node2:next&#45;&gt;node1:index</title>
<path fill="none" stroke="#1c86ee" d="M494,-43C515.32,-43 519.69,-59.37 535.72,-64.49"/>
<polygon fill="#1c86ee" stroke="#1c86ee" points="535.6,-68.01 546,-66 536.61,-61.09 535.6,-68.01"/>
</g>
<!-- node1&#45;&gt;node2 -->
<g id="edge12" class="edge">
<title>node1:prev&#45;&gt;node2:index</title>
<path fill="none" stroke="crimson" d="M546,-43C524.68,-43 520.31,-59.37 504.28,-64.49"/>
<polygon fill="crimson" stroke="crimson" points="503.39,-61.09 494,-66 504.4,-68.01 503.39,-61.09"/>
</g>
<!-- node3 -->
<g id="node8" class="node">
<title>node3</title>
<polygon fill="#ebebeb" stroke="transparent" points="651,-55 651,-76 701,-76 701,-55 651,-55"/>
<polygon fill="none" stroke="black" points="651,-55 651,-76 701,-76 701,-55 651,-55"/>
<text text-anchor="start" x="671" y="-61.8" font-family="Times,serif" font-size="14.00">3</text>
<polygon fill="none" stroke="crimson" points="651,-33 651,-54 667,-54 667,-33 651,-33"/>
<text text-anchor="start" x="654" y="-39.8" font-family="Times,serif" font-size="14.00">1</text>
<polygon fill="lightsalmon" stroke="transparent" points="668,-33 668,-54 684,-54 684,-33 668,-33"/>
<polygon fill="none" stroke="black" points="668,-33 668,-54 684,-54 684,-33 668,-33"/>
<text text-anchor="start" x="671" y="-39.8" font-family="Times,serif" font-size="14.00">3</text>
<polygon fill="none" stroke="#1c86ee" points="685,-33 685,-54 701,-54 701,-33 685,-33"/>
<text text-anchor="start" x="688" y="-39.8" font-family="Times,serif" font-size="14.00">4</text>
</g>
<!-- node1&#45;&gt;node3 -->
<g id="edge11" class="edge">
<title>node1:next&#45;&gt;node3:index</title>
<path fill="none" stroke="#1c86ee" d="M598,-43C619.32,-43 623.69,-59.37 639.72,-64.49"/>
<polygon fill="#1c86ee" stroke="#1c86ee" points="639.6,-68.01 650,-66 640.61,-61.09 639.6,-68.01"/>
</g>
<!-- node3&#45;&gt;node1 -->
<g id="edge14" class="edge">
<title>node3:prev&#45;&gt;node1:index</title>
<path fill="none" stroke="crimson" d="M650,-43C628.68,-43 624.31,-59.37 608.28,-64.49"/>
<polygon fill="crimson" stroke="crimson" points="607.39,-61.09 598,-66 608.4,-68.01 607.39,-61.09"/>
</g>
<!-- node4 -->
<g id="node9" class="node">
<title>node4</title>
<polygon fill="#ebebeb" stroke="transparent" points="755,-55 755,-76 805,-76 805,-55 755,-55"/>
<polygon fill="none" stroke="black" points="755,-55 755,-76 805,-76 805,-55 755,-55"/>
<text text-anchor="start" x="775" y="-61.8" font-family="Times,serif" font-size="14.00">4</text>
<polygon fill="none" stroke="crimson" points="755,-33 755,-54 771,-54 771,-33 755,-33"/>
<text text-anchor="start" x="758" y="-39.8" font-family="Times,serif" font-size="14.00">3</text>
<polygon fill="lightsalmon" stroke="transparent" points="772,-33 772,-54 788,-54 788,-33 772,-33"/>
<polygon fill="none" stroke="black" points="772,-33 772,-54 788,-54 788,-33 772,-33"/>
<text text-anchor="start" x="775" y="-39.8" font-family="Times,serif" font-size="14.00">4</text>
<polygon fill="none" stroke="#1c86ee" points="789,-33 789,-54 805,-54 805,-33 789,-33"/>
<text text-anchor="start" x="792" y="-39.8" font-family="Times,serif" font-size="14.00">7</text>
</g>
<!-- node3&#45;&gt;node4 -->
<g id="edge13" class="edge">
<title>node3:next&#45;&gt;node4:index</title>
<path fill="none" stroke="#1c86ee" d="M702,-43C723.32,-43 727.69,-59.37 743.72,-64.49"/>
<polygon fill="#1c86ee" stroke="#1c86ee" points="743.6,-68.01 754,-66 744.61,-61.09 743.6,-68.01"/>
</g>
<!-- node4&#45;&gt;node3 -->
<g id="edge16" class="edge">
<title>node4:prev&#45;&gt;node3:index</title>
<path fill="none" stroke="crimson" d="M754,-43C732.68,-43 728.31,-59.37 712.28,-64.49"/>
<polygon fill="crimson" stroke="crimson" points="711.39,-61.09 702,-66 712.4,-68.01 711.39,-61.09"/>
</g>
<!-- node7 -->
<g id="node10" class="node">
<title>node7</title>
<polygon fill="#ebebeb" stroke="transparent" points="859,-55 859,-76 909,-76 909,-55 859,-55"/>
<polygon fill="none" stroke="black" points="859,-55 859,-76 909,-76 909,-55 859,-55"/>
<text text-anchor="start" x="879" y="-61.8" font-family="Times,serif" font-size="14.00">7</text>
<polygon fill="none" stroke="crimson" points="859,-33 859,-54 875,-54 875,-33 859,-33"/>
<text text-anchor="start" x="862" y="-39.8" font-family="Times,serif" font-size="14.00">4</text>
<polygon fill="lightsalmon" stroke="transparent" points="876,-33 876,-54 892,-54 892,-33 876,-33"/>
<polygon fill="none" stroke="black" points="876,-33 876,-54 892,-54 892,-33 876,-33"/>
<text text-anchor="start" x="879" y="-39.8" font-family="Times,serif" font-size="14.00">7</text>
<polygon fill="none" stroke="#1c86ee" points="893,-33 893,-54 909,-54 909,-33 893,-33"/>
<text text-anchor="start" x="896" y="-39.8" font-family="Times,serif" font-size="14.00">9</text>
</g>
<!-- node4&#45;&gt;node7 -->
<g id="edge15" class="edge">
<title>node4:next&#45;&gt;node7:index</title>
<path fill="none" stroke="#1c86ee" d="M806,-43C827.32,-43 831.69,-59.37 847.72,-64.49"/>
<polygon fill="#1c86ee" stroke="#1c86ee" points="847.6,-68.01 858,-66 848.61,-61.09 847.6,-68.01"/>
</g>
<!-- node7&#45;&gt;node4 -->
<g id="edge18" class="edge">
<title>node7:prev&#45;&gt;node4:index</title>
<path fill="none" stroke="crimson" d="M858,-43C836.68,-43 832.31,-59.37 816.28,-64.49"/>
<polygon fill="crimson" stroke="crimson" points="815.39,-61.09 806,-66 816.4,-68.01 815.39,-61.09"/>
</g>
<!-- node7&#45;&gt;node9 -->
<g id="edge17" class="edge">
<title>node7:next&#45;&gt;node9:index</title>
<path fill="none" stroke="#1c86ee" d="M910,-43C931.32,-43 935.69,-59.37 951.72,-64.49"/>
<polygon fill="#1c86ee" stroke="#1c86ee" points="951.6,-68.01 962,-66 952.61,-61.09 951.6,-68.01"/>
</g>
<!-- node9&#45;&gt;node0 -->
<g id="edge19" class="edge">
<title>node9:next&#45;&gt;node0</title>
<path fill="none" stroke="black" d="M1014,-43C1031.53,-43 1050.65,-44.6 1067.59,-46.58"/>
<polygon fill="black" stroke="black" points="1067.46,-50.1 1077.82,-47.86 1068.33,-43.15 1067.46,-50.1"/>
</g>
<!-- node9&#45;&gt;node7 -->
<g id="edge20" class="edge">
<title>node9:prev&#45;&gt;node7:index</title>
<path fill="none" stroke="crimson" d="M962,-43C940.68,-43 936.31,-59.37 920.28,-64.49"/>
<polygon fill="crimson" stroke="crimson" points="919.39,-61.09 910,-66 920.4,-68.01 919.39,-61.09"/>
</g>
</g>
</svg>
