<?xml version="1.0" encoding="UTF-8" standalone="no"?>
<!DOCTYPE svg PUBLIC "-//W3C//DTD SVG 1.1//EN"
 "http://www.w3.org/Graphics/SVG/1.1/DTD/svg11.dtd">
<!-- Generated by graphviz version 2.43.0 (0)
 -->
<!-- Title: list Pages: 1 -->
<svg width="1831pt" height="119pt"
 viewBox="0.00 0.00 1831.49 118.83" xmlns="http://www.w3.org/2000/svg" xmlns:xlink="http://www.w3.org/1999/xlink">
<g id="graph0" class="graph" transform="scale(1 1) rotate(0) translate(4 114.83)">
<title>list</title>
<polygon fill="white" stroke="transparent" points="-4,4 -4,-114.83 1827.49,-114.83 1827.49,4 -4,4"/>
<!-- node15 -->
<g id="node1" class="node">
<title>node15</title>
<polygon fill="#ebebeb" stroke="transparent" points="1591,-55.35 1591,-76.35 1659,-76.35 1659,-55.35 1591,-55.35"/>
<polygon fill="none" stroke="black" points="1591,-55.35 1591,-76.35 1659,-76.35 1659,-55.35 1591,-55.35"/>
<text text-anchor="start" x="1615.5" y="-62.15" font-family="Times,serif" font-size="14.00">15</text>
<polygon fill="none" stroke="crimson" points="1591,-33.35 1591,-54.35 1616,-54.35 1616,-33.35 1591,-33.35"/>
<text text-anchor="start" x="1594" y="-40.15" font-family="Times,serif" font-size="14.00">14</text>
<polygon fill="lightsalmon" stroke="transparent" points="1617,-33.35 1617,-54.35 1642,-54.35 1642,-33.35 1617,-33.35"/>
<polygon fill="none" stroke="black" points="1617,-33.35 1617,-54.35 1642,-54.35 1642,-33.35 1617,-33.35"/>
<text text-anchor="start" x="1620" y="-40.15" font-family="Times,serif" font-size="14.00">15</text>
<polygon fill="none" stroke="#1c86ee" points="1643,-33.35 1643,-54.35 1659,-54.35 1659,-33.35 1643,-33.35"/>
<text text-anchor="start" x="1646" y="-40.15" font-family="Times,serif" font-size="14.00">0</text>
</g>
<!-- node14 -->
<g id="node2" class="node">
<title>node14</title>
<polygon fill="#ebebeb" stroke="transparent" points="1460.5,-55.35 1460.5,-76.35 1537.5,-76.35 1537.5,-55.35 1460.5,-55.35"/>
<polygon fill="none" stroke="black" points="1460.5,-55.35 1460.5,-76.35 1537.5,-76.35 1537.5,-55.35 1460.5,-55.35"/>
<text text-anchor="start" x="1489.5" y="-62.15" font-family="Times,serif" font-size="14.00">14</text>
<polygon fill="none" stroke="crimson" points="1460.5,-33.35 1460.5,-54.35 1485.5,-54.35 1485.5,-33.35 1460.5,-33.35"/>
<text text-anchor="start" x="1463.5" y="-40.15" font-family="Times,serif" font-size="14.00">13</text>
<polygon fill="lightsalmon" stroke="transparent" points="1486.5,-33.35 1486.5,-54.35 1511.5,-54.35 1511.5,-33.35 1486.5,-33.35"/>
<polygon fill="none" stroke="black" points="1486.5,-33.35 1486.5,-54.35 1511.5,-54.35 1511.5,-33.35 1486.5,-33.35"/>
<text text-anchor="start" x="1489.5" y="-40.15" font-family="Times,serif" font-size="14.00">14</text>
<polygon fill="none" stroke="#1c86ee" points="1512.5,-33.35 1512.5,-54.35 1537.5,-54.35 1537.5,-33.35 1512.5,-33.35"/>
<text text-anchor="start" x="1515.5" y="-40.15" font-family="Times,serif" font-size="14.00">15</text>
</g>
<!-- node15&#45;&gt;node14 -->
<g id="edge1" class="edge">
<title>node15:index&#45;&gt;node14:index</title>
<path fill="none" stroke="crimson" d="M1590,-66.35C1570.87,-66.35 1563.73,-66.35 1548.53,-66.35"/>
<polygon fill="crimson" stroke="crimson" points="1548.5,-62.85 1538.5,-66.35 1548.5,-69.85 1548.5,-62.85"/>
</g>
<!-- node0 -->
<g id="node3" class="node">
<title>node0</title>
<polygon fill="none" stroke="black" points="1763.75,-72.35 1703.75,-54.35 1763.75,-36.35 1823.74,-54.35 1763.75,-72.35"/>
<text text-anchor="middle" x="1763.75" y="-50.65" font-family="Times,serif" font-size="14.00">Fictive</text>
</g>
<!-- node15&#45;&gt;node0 -->
<g id="edge2" class="edge">
<title>node15:next&#45;&gt;node0</title>
<path fill="none" stroke="black" d="M1660,-43.35C1677.53,-43.35 1696.65,-44.95 1713.59,-46.93"/>
<polygon fill="black" stroke="black" points="1713.46,-50.44 1723.82,-48.2 1714.33,-43.5 1713.46,-50.44"/>
</g>
<!-- node14&#45;&gt;node15 -->
<g id="edge4" class="edge">
<title>node14:next&#45;&gt;node15:prev</title>
<path fill="none" stroke="#1c86ee" d="M1538.5,-43.35C1557.63,-43.35 1564.77,-43.35 1579.97,-43.35"/>
<polygon fill="#1c86ee" stroke="#1c86ee" points="1580,-46.85 1590,-43.35 1580,-39.85 1580,-46.85"/>
</g>
<!-- node13 -->
<g id="node4" class="node">
<title>node13</title>
<polygon fill="#ebebeb" stroke="transparent" points="1329.5,-55.35 1329.5,-76.35 1406.5,-76.35 1406.5,-55.35 1329.5,-55.35"/>
<polygon fill="none" stroke="black" points="1329.5,-55.35 1329.5,-76.35 1406.5,-76.35 1406.5,-55.35 1329.5,-55.35"/>
<text text-anchor="start" x="1358.5" y="-62.15" font-family="Times,serif" font-size="14.00">13</text>
<polygon fill="none" stroke="crimson" points="1329.5,-33.35 1329.5,-54.35 1354.5,-54.35 1354.5,-33.35 1329.5,-33.35"/>
<text text-anchor="start" x="1332.5" y="-40.15" font-family="Times,serif" font-size="14.00">12</text>
<polygon fill="lightsalmon" stroke="transparent" points="1355.5,-33.35 1355.5,-54.35 1380.5,-54.35 1380.5,-33.35 1355.5,-33.35"/>
<polygon fill="none" stroke="black" points="1355.5,-33.35 1355.5,-54.35 1380.5,-54.35 1380.5,-33.35 1355.5,-33.35"/>
<text text-anchor="start" x="1358.5" y="-40.15" font-family="Times,serif" font-size="14.00">13</text>
<polygon fill="none" stroke="#1c86ee" points="1381.5,-33.35 1381.5,-54.35 1406.5,-54.35 1406.5,-33.35 1381.5,-33.35"/>
<text text-anchor="start" x="1384.5" y="-40.15" font-family="Times,serif" font-size="14.00">14</text>
</g>
<!-- node14&#45;&gt;node13 -->
<g id="edge3" class="edge">
<title>node14:index&#45;&gt;node13:index</title>
<path fill="none" stroke="crimson" d="M1459.5,-66.35C1440.18,-66.35 1432.97,-66.35 1417.63,-66.35"/>
<polygon fill="crimson" stroke="crimson" points="1417.5,-62.85 1407.5,-66.35 1417.5,-69.85 1417.5,-62.85"/>
</g>
<!-- node0&#45;&gt;node15 -->
<g id="edge31" class="edge">
<title>node0&#45;&gt;node15:index</title>
<path fill="none" stroke="black" d="M1725.29,-60.84C1708.83,-63.23 1688.98,-65.53 1670.07,-66.17"/>
<polygon fill="black" stroke="black" points="1669.94,-62.67 1660,-66.35 1670.06,-69.67 1669.94,-62.67"/>
</g>
<!-- node13&#45;&gt;node14 -->
<g id="edge6" class="edge">
<title>node13:next&#45;&gt;node14:prev</title>
<path fill="none" stroke="#1c86ee" d="M1407.5,-43.35C1426.82,-43.35 1434.03,-43.35 1449.37,-43.35"/>
<polygon fill="#1c86ee" stroke="#1c86ee" points="1449.5,-46.85 1459.5,-43.35 1449.5,-39.85 1449.5,-46.85"/>
</g>
<!-- node12 -->
<g id="node5" class="node">
<title>node12</title>
<polygon fill="#ebebeb" stroke="transparent" points="1198.5,-55.35 1198.5,-76.35 1275.5,-76.35 1275.5,-55.35 1198.5,-55.35"/>
<polygon fill="none" stroke="black" points="1198.5,-55.35 1198.5,-76.35 1275.5,-76.35 1275.5,-55.35 1198.5,-55.35"/>
<text text-anchor="start" x="1227.5" y="-62.15" font-family="Times,serif" font-size="14.00">12</text>
<polygon fill="none" stroke="crimson" points="1198.5,-33.35 1198.5,-54.35 1223.5,-54.35 1223.5,-33.35 1198.5,-33.35"/>
<text text-anchor="start" x="1201.5" y="-40.15" font-family="Times,serif" font-size="14.00">11</text>
<polygon fill="lightsalmon" stroke="transparent" points="1224.5,-33.35 1224.5,-54.35 1249.5,-54.35 1249.5,-33.35 1224.5,-33.35"/>
<polygon fill="none" stroke="black" points="1224.5,-33.35 1224.5,-54.35 1249.5,-54.35 1249.5,-33.35 1224.5,-33.35"/>
<text text-anchor="start" x="1227.5" y="-40.15" font-family="Times,serif" font-size="14.00">12</text>
<polygon fill="none" stroke="#1c86ee" points="1250.5,-33.35 1250.5,-54.35 1275.5,-54.35 1275.5,-33.35 1250.5,-33.35"/>
<text text-anchor="start" x="1253.5" y="-40.15" font-family="Times,serif" font-size="14.00">13</text>
</g>
<!-- node13&#45;&gt;node12 -->
<g id="edge5" class="edge">
<title>node13:index&#45;&gt;node12:index</title>
<path fill="none" stroke="crimson" d="M1328.5,-66.35C1309.18,-66.35 1301.97,-66.35 1286.63,-66.35"/>
<polygon fill="crimson" stroke="crimson" points="1286.5,-62.85 1276.5,-66.35 1286.5,-69.85 1286.5,-62.85"/>
</g>
<!-- node12&#45;&gt;node13 -->
<g id="edge8" class="edge">
<title>node12:next&#45;&gt;node13:prev</title>
<path fill="none" stroke="#1c86ee" d="M1276.5,-43.35C1295.82,-43.35 1303.03,-43.35 1318.37,-43.35"/>
<polygon fill="#1c86ee" stroke="#1c86ee" points="1318.5,-46.85 1328.5,-43.35 1318.5,-39.85 1318.5,-46.85"/>
</g>
<!-- node11 -->
<g id="node6" class="node">
<title>node11</title>
<polygon fill="#ebebeb" stroke="transparent" points="1076,-55.35 1076,-76.35 1144,-76.35 1144,-55.35 1076,-55.35"/>
<polygon fill="none" stroke="black" points="1076,-55.35 1076,-76.35 1144,-76.35 1144,-55.35 1076,-55.35"/>
<text text-anchor="start" x="1100.5" y="-62.15" font-family="Times,serif" font-size="14.00">11</text>
<polygon fill="none" stroke="crimson" points="1076,-33.35 1076,-54.35 1092,-54.35 1092,-33.35 1076,-33.35"/>
<text text-anchor="start" x="1079" y="-40.15" font-family="Times,serif" font-size="14.00">9</text>
<polygon fill="lightsalmon" stroke="transparent" points="1093,-33.35 1093,-54.35 1118,-54.35 1118,-33.35 1093,-33.35"/>
<polygon fill="none" stroke="black" points="1093,-33.35 1093,-54.35 1118,-54.35 1118,-33.35 1093,-33.35"/>
<text text-anchor="start" x="1096" y="-40.15" font-family="Times,serif" font-size="14.00">11</text>
<polygon fill="none" stroke="#1c86ee" points="1119,-33.35 1119,-54.35 1144,-54.35 1144,-33.35 1119,-33.35"/>
<text text-anchor="start" x="1122" y="-40.15" font-family="Times,serif" font-size="14.00">12</text>
</g>
<!-- node12&#45;&gt;node11 -->
<g id="edge7" class="edge">
<title>node12:index&#45;&gt;node11:index</title>
<path fill="none" stroke="crimson" d="M1197.5,-66.35C1177.99,-66.35 1170.72,-66.35 1155.23,-66.35"/>
<polygon fill="crimson" stroke="crimson" points="1155,-62.85 1145,-66.35 1155,-69.85 1155,-62.85"/>
</g>
<!-- node11&#45;&gt;node12 -->
<g id="edge10" class="edge">
<title>node11:next&#45;&gt;node12:prev</title>
<path fill="none" stroke="#1c86ee" d="M1145,-43.35C1164.51,-43.35 1171.78,-43.35 1187.27,-43.35"/>
<polygon fill="#1c86ee" stroke="#1c86ee" points="1187.5,-46.85 1197.5,-43.35 1187.5,-39.85 1187.5,-46.85"/>
</g>
<!-- node9 -->
<g id="node7" class="node">
<title>node9</title>
<polygon fill="#ebebeb" stroke="transparent" points="963.5,-55.35 963.5,-76.35 1022.5,-76.35 1022.5,-55.35 963.5,-55.35"/>
<polygon fill="none" stroke="black" points="963.5,-55.35 963.5,-76.35 1022.5,-76.35 1022.5,-55.35 963.5,-55.35"/>
<text text-anchor="start" x="988" y="-62.15" font-family="Times,serif" font-size="14.00">9</text>
<polygon fill="none" stroke="crimson" points="963.5,-33.35 963.5,-54.35 979.5,-54.35 979.5,-33.35 963.5,-33.35"/>
<text text-anchor="start" x="966.5" y="-40.15" font-family="Times,serif" font-size="14.00">7</text>
<polygon fill="lightsalmon" stroke="transparent" points="980.5,-33.35 980.5,-54.35 996.5,-54.35 996.5,-33.35 980.5,-33.35"/>
<polygon fill="none" stroke="black" points="980.5,-33.35 980.5,-54.35 996.5,-54.35 996.5,-33.35 980.5,-33.35"/>
<text text-anchor="start" x="983.5" y="-40.15" font-family="Times,serif" font-size="14.00">9</text>
<polygon fill="none" stroke="#1c86ee" points="997.5,-33.35 997.5,-54.35 1022.5,-54.35 1022.5,-33.35 997.5,-33.35"/>
<text text-anchor="start" x="1000.5" y="-40.15" font-family="Times,serif" font-size="14.00">11</text>
</g>
<!-- node11&#45;&gt;node9 -->
<g id="edge9" class="edge">
<title>node11:index&#45;&gt;node9:index</title>
<path fill="none" stroke="crimson" d="M1075,-66.35C1055.87,-66.35 1048.73,-66.35 1033.53,-66.35"/>
<polygon fill="crimson" stroke="crimson" points="1033.5,-62.85 1023.5,-66.35 1033.5,-69.85 1033.5,-62.85"/>
</g>
<!-- node9&#45;&gt;node11 -->
<g id="edge12" class="edge">
<title>node9:next&#45;&gt;node11:prev</title>
<path fill="none" stroke="#1c86ee" d="M1023.5,-43.35C1042.63,-43.35 1049.77,-43.35 1064.97,-43.35"/>
<polygon fill="#1c86ee" stroke="#1c86ee" points="1065,-46.85 1075,-43.35 1065,-39.85 1065,-46.85"/>
</g>
<!-- node7 -->
<g id="node8" class="node">
<title>node7</title>
<polygon fill="#ebebeb" stroke="transparent" points="859,-55.35 859,-76.35 909,-76.35 909,-55.35 859,-55.35"/>
<polygon fill="none" stroke="black" points="859,-55.35 859,-76.35 909,-76.35 909,-55.35 859,-55.35"/>
<text text-anchor="start" x="879" y="-62.15" font-family="Times,serif" font-size="14.00">7</text>
<polygon fill="none" stroke="crimson" points="859,-33.35 859,-54.35 875,-54.35 875,-33.35 859,-33.35"/>
<text text-anchor="start" x="862" y="-40.15" font-family="Times,serif" font-size="14.00">6</text>
<polygon fill="lightsalmon" stroke="transparent" points="876,-33.35 876,-54.35 892,-54.35 892,-33.35 876,-33.35"/>
<polygon fill="none" stroke="black" points="876,-33.35 876,-54.35 892,-54.35 892,-33.35 876,-33.35"/>
<text text-anchor="start" x="879" y="-40.15" font-family="Times,serif" font-size="14.00">7</text>
<polygon fill="none" stroke="#1c86ee" points="893,-33.35 893,-54.35 909,-54.35 909,-33.35 893,-33.35"/>
<text text-anchor="start" x="896" y="-40.15" font-family="Times,serif" font-size="14.00">9</text>
</g>
<!-- node9&#45;&gt;node7 -->
<g id="edge11" class="edge">
<title>node9:index&#45;&gt;node7:index</title>
<path fill="none" stroke="crimson" d="M962.5,-66.35C942.99,-66.35 935.72,-66.35 920.23,-66.35"/>
<polygon fill="crimson" stroke="crimson" points="920,-62.85 910,-66.35 920,-69.85 920,-62.85"/>
</g>
<!-- node7&#45;&gt;node9 -->
<g id="edge14" class="edge">
<title>node7:next&#45;&gt;node9:prev</title>
<path fill="none" stroke="#1c86ee" d="M910,-43.35C929.51,-43.35 936.78,-43.35 952.27,-43.35"/>
<polygon fill="#1c86ee" stroke="#1c86ee" points="952.5,-46.85 962.5,-43.35 952.5,-39.85 952.5,-46.85"/>
</g>
<!-- node6 -->
<g id="node9" class="node">
<title>node6</title>
<polygon fill="#ebebeb" stroke="transparent" points="755,-55.35 755,-76.35 805,-76.35 805,-55.35 755,-55.35"/>
<polygon fill="none" stroke="black" points="755,-55.35 755,-76.35 805,-76.35 805,-55.35 755,-55.35"/>
<text text-anchor="start" x="775" y="-62.15" font-family="Times,serif" font-size="14.00">6</text>
<polygon fill="none" stroke="crimson" points="755,-33.35 755,-54.35 771,-54.35 771,-33.35 755,-33.35"/>
<text text-anchor="start" x="758" y="-40.15" font-family="Times,serif" font-size="14.00">5</text>
<polygon fill="lightsalmon" stroke="transparent" points="772,-33.35 772,-54.35 788,-54.35 788,-33.35 772,-33.35"/>
<polygon fill="none" stroke="black" points="772,-33.35 772,-54.35 788,-54.35 788,-33.35 772,-33.35"/>
<text text-anchor="start" x="775" y="-40.15" font-family="Times,serif" font-size="14.00">6</text>
<polygon fill="none" stroke="#1c86ee" points="789,-33.35 789,-54.35 805,-54.35 805,-33.35 789,-33.35"/>
<text text-anchor="start" x="792" y="-40.15" font-family="Times,serif" font-size="14.00">7</text>
</g>
<!-- node7&#45;&gt;node6 -->
<g id="edge13" class="edge">
<title>node7:index&#45;&gt;node6:index</title>
<path fill="none" stroke="crimson" d="M858,-66.35C838.68,-66.35 831.47,-66.35 816.13,-66.35"/>
<polygon fill="crimson" stroke="crimson" points="816,-62.85 806,-66.35 816,-69.85 816,-62.85"/>
</g>
<!-- node6&#45;&gt;node7 -->
<g id="edge16" class="edge">
<title>node6:next&#45;&gt;node7:prev</title>
<path fill="none" stroke="#1c86ee" d="M806,-43.35C825.32,-43.35 832.53,-43.35 847.87,-43.35"/>
<polygon fill="#1c86ee" stroke="#1c86ee" points="848,-46.85 858,-43.35 848,-39.85 848,-46.85"/>
</g>
<!-- node5 -->
<g id="node10" class="node">
<title>node5</title>
<polygon fill="#ebebeb" stroke="transparent" points="651,-55.35 651,-76.35 701,-76.35 701,-55.35 651,-55.35"/>
<polygon fill="none" stroke="black" points="651,-55.35 651,-76.35 701,-76.35 701,-55.35 651,-55.35"/>
<text text-anchor="start" x="671" y="-62.15" font-family="Times,serif" font-size="14.00">5</text>
<polygon fill="none" stroke="crimson" points="651,-33.35 651,-54.35 667,-54.35 667,-33.35 651,-33.35"/>
<text text-anchor="start" x="654" y="-40.15" font-family="Times,serif" font-size="14.00">4</text>
<polygon fill="lightsalmon" stroke="transparent" points="668,-33.35 668,-54.35 684,-54.35 684,-33.35 668,-33.35"/>
<polygon fill="none" stroke="black" points="668,-33.35 668,-54.35 684,-54.35 684,-33.35 668,-33.35"/>
<text text-anchor="start" x="671" y="-40.15" font-family="Times,serif" font-size="14.00">5</text>
<polygon fill="none" stroke="#1c86ee" points="685,-33.35 685,-54.35 701,-54.35 701,-33.35 685,-33.35"/>
<text text-anchor="start" x="688" y="-40.15" font-family="Times,serif" font-size="14.00">6</text>
</g>
<!-- node6&#45;&gt;node5 -->
<g id="edge15" class="edge">
<title>node6:index&#45;&gt;node5:index</title>
<path fill="none" stroke="crimson" d="M754,-66.35C734.68,-66.35 727.47,-66.35 712.13,-66.35"/>
<polygon fill="crimson" stroke="crimson" points="712,-62.85 702,-66.35 712,-69.85 712,-62.85"/>
</g>
<!-- node5&#45;&gt;node6 -->
<g id="edge18" class="edge">
<title>node5:next&#45;&gt;node6:prev</title>
<path fill="none" stroke="#1c86ee" d="M702,-43.35C721.32,-43.35 728.53,-43.35 743.87,-43.35"/>
<polygon fill="#1c86ee" stroke="#1c86ee" points="744,-46.85 754,-43.35 744,-39.85 744,-46.85"/>
</g>
<!-- node4 -->
<g id="node11" class="node">
<title>node4</title>
<polygon fill="#ebebeb" stroke="transparent" points="547,-55.35 547,-76.35 597,-76.35 597,-55.35 547,-55.35"/>
<polygon fill="none" stroke="black" points="547,-55.35 547,-76.35 597,-76.35 597,-55.35 547,-55.35"/>
<text text-anchor="start" x="567" y="-62.15" font-family="Times,serif" font-size="14.00">4</text>
<polygon fill="none" stroke="crimson" points="547,-33.35 547,-54.35 563,-54.35 563,-33.35 547,-33.35"/>
<text text-anchor="start" x="550" y="-40.15" font-family="Times,serif" font-size="14.00">3</text>
<polygon fill="lightsalmon" stroke="transparent" points="564,-33.35 564,-54.35 580,-54.35 580,-33.35 564,-33.35"/>
<polygon fill="none" stroke="black" points="564,-33.35 564,-54.35 580,-54.35 580,-33.35 564,-33.35"/>
<text text-anchor="start" x="567" y="-40.15" font-family="Times,serif" font-size="14.00">4</text>
<polygon fill="none" stroke="#1c86ee" points="581,-33.35 581,-54.35 597,-54.35 597,-33.35 581,-33.35"/>
<text text-anchor="start" x="584" y="-40.15" font-family="Times,serif" font-size="14.00">5</text>
</g>
<!-- node5&#45;&gt;node4 -->
<g id="edge17" class="edge">
<title>node5:index&#45;&gt;node4:index</title>
<path fill="none" stroke="crimson" d="M650,-66.35C630.68,-66.35 623.47,-66.35 608.13,-66.35"/>
<polygon fill="crimson" stroke="crimson" points="608,-62.85 598,-66.35 608,-69.85 608,-62.85"/>
</g>
<!-- node4&#45;&gt;node5 -->
<g id="edge20" class="edge">
<title>node4:next&#45;&gt;node5:prev</title>
<path fill="none" stroke="#1c86ee" d="M598,-43.35C617.32,-43.35 624.53,-43.35 639.87,-43.35"/>
<polygon fill="#1c86ee" stroke="#1c86ee" points="640,-46.85 650,-43.35 640,-39.85 640,-46.85"/>
</g>
<!-- node3 -->
<g id="node12" class="node">
<title>node3</title>
<polygon fill="#ebebeb" stroke="transparent" points="443,-55.35 443,-76.35 493,-76.35 493,-55.35 443,-55.35"/>
<polygon fill="none" stroke="black" points="443,-55.35 443,-76.35 493,-76.35 493,-55.35 443,-55.35"/>
<text text-anchor="start" x="463" y="-62.15" font-family="Times,serif" font-size="14.00">3</text>
<polygon fill="none" stroke="crimson" points="443,-33.35 443,-54.35 459,-54.35 459,-33.35 443,-33.35"/>
<text text-anchor="start" x="446" y="-40.15" font-family="Times,serif" font-size="14.00">2</text>
<polygon fill="lightsalmon" stroke="transparent" points="460,-33.35 460,-54.35 476,-54.35 476,-33.35 460,-33.35"/>
<polygon fill="none" stroke="black" points="460,-33.35 460,-54.35 476,-54.35 476,-33.35 460,-33.35"/>
<text text-anchor="start" x="463" y="-40.15" font-family="Times,serif" font-size="14.00">3</text>
<polygon fill="none" stroke="#1c86ee" points="477,-33.35 477,-54.35 493,-54.35 493,-33.35 477,-33.35"/>
<text text-anchor="start" x="480" y="-40.15" font-family="Times,serif" font-size="14.00">4</text>
</g>
<!-- node4&#45;&gt;node3 -->
<g id="edge19" class="edge">
<title>node4:index&#45;&gt;node3:index</title>
<path fill="none" stroke="crimson" d="M546,-66.35C526.68,-66.35 519.47,-66.35 504.13,-66.35"/>
<polygon fill="crimson" stroke="crimson" points="504,-62.85 494,-66.35 504,-69.85 504,-62.85"/>
</g>
<!-- node3&#45;&gt;node4 -->
<g id="edge22" class="edge">
<title>node3:next&#45;&gt;node4:prev</title>
<path fill="none" stroke="#1c86ee" d="M494,-43.35C513.32,-43.35 520.53,-43.35 535.87,-43.35"/>
<polygon fill="#1c86ee" stroke="#1c86ee" points="536,-46.85 546,-43.35 536,-39.85 536,-46.85"/>
</g>
<!-- node2 -->
<g id="node13" class="node">
<title>node2</title>
<polygon fill="#ebebeb" stroke="transparent" points="339,-55.35 339,-76.35 389,-76.35 389,-55.35 339,-55.35"/>
<polygon fill="none" stroke="black" points="339,-55.35 339,-76.35 389,-76.35 389,-55.35 339,-55.35"/>
<text text-anchor="start" x="359" y="-62.15" font-family="Times,serif" font-size="14.00">2</text>
<polygon fill="none" stroke="crimson" points="339,-33.35 339,-54.35 355,-54.35 355,-33.35 339,-33.35"/>
<text text-anchor="start" x="342" y="-40.15" font-family="Times,serif" font-size="14.00">1</text>
<polygon fill="lightsalmon" stroke="transparent" points="356,-33.35 356,-54.35 372,-54.35 372,-33.35 356,-33.35"/>
<polygon fill="none" stroke="black" points="356,-33.35 356,-54.35 372,-54.35 372,-33.35 356,-33.35"/>
<text text-anchor="start" x="359" y="-40.15" font-family="Times,serif" font-size="14.00">2</text>
<polygon fill="none" stroke="#1c86ee" points="373,-33.35 373,-54.35 389,-54.35 389,-33.35 373,-33.35"/>
<text text-anchor="start" x="376" y="-40.15" font-family="Times,serif" font-size="14.00">3</text>
</g>
<!-- node3&#45;&gt;node2 -->
<g id="edge21" class="edge">
<title>node3:index&#45;&gt;node2:index</title>
<path fill="none" stroke="crimson" d="M442,-66.35C422.68,-66.35 415.47,-66.35 400.13,-66.35"/>
<polygon fill="crimson" stroke="crimson" points="400,-62.85 390,-66.35 400,-69.85 400,-62.85"/>
</g>
<!-- node2&#45;&gt;node3 -->
<g id="edge24" class="edge">
<title>node2:next&#45;&gt;node3:prev</title>
<path fill="none" stroke="#1c86ee" d="M390,-43.35C409.32,-43.35 416.53,-43.35 431.87,-43.35"/>
<polygon fill="#1c86ee" stroke="#1c86ee" points="432,-46.85 442,-43.35 432,-39.85 432,-46.85"/>
</g>
<!-- node1 -->
<g id="node14" class="node">
<title>node1</title>
<polygon fill="#ebebeb" stroke="transparent" points="235,-55.35 235,-76.35 285,-76.35 285,-55.35 235,-55.35"/>
<polygon fill="none" stroke="black" points="235,-55.35 235,-76.35 285,-76.35 285,-55.35 235,-55.35"/>
<text text-anchor="start" x="255" y="-62.15" font-family="Times,serif" font-size="14.00">1</text>
<polygon fill="none" stroke="crimson" points="235,-33.35 235,-54.35 251,-54.35 251,-33.35 235,-33.35"/>
<text text-anchor="start" x="238" y="-40.15" font-family="Times,serif" font-size="14.00">8</text>
<polygon fill="lightsalmon" stroke="transparent" points="252,-33.35 252,-54.35 268,-54.35 268,-33.35 252,-33.35"/>
<polygon fill="none" stroke="black" points="252,-33.35 252,-54.35 268,-54.35 268,-33.35 252,-33.35"/>
<text text-anchor="start" x="255" y="-40.15" font-family="Times,serif" font-size="14.00">1</text>
<polygon fill="none" stroke="#1c86ee" points="269,-33.35 269,-54.35 285,-54.35 285,-33.35 269,-33.35"/>
<text text-anchor="start" x="272" y="-40.15" font-family="Times,serif" font-size="14.00">2</text>
</g>
<!-- node2&#45;&gt;node1 -->
<g id="edge23" class="edge">
<title>node2:index&#45;&gt;node1:index</title>
<path fill="none" stroke="crimson" d="M338,-66.35C318.68,-66.35 311.47,-66.35 296.13,-66.35"/>
<polygon fill="crimson" stroke="crimson" points="296,-62.85 286,-66.35 296,-69.85 296,-62.85"/>
</g>
<!-- node1&#45;&gt;node2 -->
<g id="edge26" class="edge">
<title>node1:next&#45;&gt;node2:prev</title>
<path fill="none" stroke="#1c86ee" d="M286,-43.35C305.32,-43.35 312.53,-43.35 327.87,-43.35"/>
<polygon fill="#1c86ee" stroke="#1c86ee" points="328,-46.85 338,-43.35 328,-39.85 328,-46.85"/>
</g>
<!-- node8 -->
<g id="node15" class="node">
<title>node8</title>
<polygon fill="#ebebeb" stroke="transparent" points="122.5,-55.35 122.5,-76.35 181.5,-76.35 181.5,-55.35 122.5,-55.35"/>
<polygon fill="none" stroke="black" points="122.5,-55.35 122.5,-76.35 181.5,-76.35 181.5,-55.35 122.5,-55.35"/>
<text text-anchor="start" x="147" y="-62.15" font-family="Times,serif" font-size="14.00">8</text>
<polygon fill="none" stroke="crimson" points="122.5,-33.35 122.5,-54.35 147.5,-54.35 147.5,-33.35 122.5,-33.35"/>
<text text-anchor="start" x="125.5" y="-40.15" font-family="Times,serif" font-size="14.00">10</text>
<polygon fill="lightsalmon" stroke="transparent" points="148.5,-33.35 148.5,-54.35 164.5,-54.35 164.5,-33.35 148.5,-33.35"/>
<polygon fill="none" stroke="black" points="148.5,-33.35 148.5,-54.35 164.5,-54.35 164.5,-33.35 148.5,-33.35"/>
<text text-anchor="start" x="151.5" y="-40.15" font-family="Times,serif" font-size="14.00">8</text>
<polygon fill="none" stroke="#1c86ee" points="165.5,-33.35 165.5,-54.35 181.5,-54.35 181.5,-33.35 165.5,-33.35"/>
<text text-anchor="start" x="168.5" y="-40.15" font-family="Times,serif" font-size="14.00">1</text>
</g>
<!-- node1&#45;&gt;node8 -->
<g id="edge25" class="edge">
<title>node1:index&#45;&gt;node8:index</title>
<path fill="none" stroke="crimson" d="M234,-66.35C214.87,-66.35 207.73,-66.35 192.53,-66.35"/>
<polygon fill="crimson" stroke="crimson" points="192.5,-62.85 182.5,-66.35 192.5,-69.85 192.5,-62.85"/>
</g>
<!-- node8&#45;&gt;node1 -->
<g id="edge28" class="edge">
<title>node8:next&#45;&gt;node1:prev</title>
<path fill="none" stroke="#1c86ee" d="M182.5,-43.35C201.63,-43.35 208.77,-43.35 223.97,-43.35"/>
<polygon fill="#1c86ee" stroke="#1c86ee" points="224,-46.85 234,-43.35 224,-39.85 224,-46.85"/>
</g>
<!-- node10 -->
<g id="node16" class="node">
<title>node10</title>
<polygon fill="#ebebeb" stroke="transparent" points="9.5,-55.35 9.5,-76.35 68.5,-76.35 68.5,-55.35 9.5,-55.35"/>
<polygon fill="none" stroke="black" points="9.5,-55.35 9.5,-76.35 68.5,-76.35 68.5,-55.35 9.5,-55.35"/>
<text text-anchor="start" x="29.5" y="-62.15" font-family="Times,serif" font-size="14.00">10</text>
<polygon fill="none" stroke="crimson" points="9.5,-33.35 9.5,-54.35 25.5,-54.35 25.5,-33.35 9.5,-33.35"/>
<text text-anchor="start" x="12.5" y="-40.15" font-family="Times,serif" font-size="14.00">0</text>
<polygon fill="lightsalmon" stroke="transparent" points="26.5,-33.35 26.5,-54.35 51.5,-54.35 51.5,-33.35 26.5,-33.35"/>
<polygon fill="none" stroke="black" points="26.5,-33.35 26.5,-54.35 51.5,-54.35 51.5,-33.35 26.5,-33.35"/>
<text text-anchor="start" x="29.5" y="-40.15" font-family="Times,serif" font-size="14.00">10</text>
<polygon fill="none" stroke="#1c86ee" points="52.5,-33.35 52.5,-54.35 68.5,-54.35 68.5,-33.35 52.5,-33.35"/>
<text text-anchor="start" x="55.5" y="-40.15" font-family="Times,serif" font-size="14.00">8</text>
</g>
<!-- node8&#45;&gt;node10 -->
<g id="edge27" class="edge">
<title>node8:index&#45;&gt;node10:index</title>
<path fill="none" stroke="crimson" d="M121.5,-66.35C102.18,-66.35 94.97,-66.35 79.63,-66.35"/>
<polygon fill="crimson" stroke="crimson" points="79.5,-62.85 69.5,-66.35 79.5,-69.85 79.5,-62.85"/>
</g>
<!-- node10&#45;&gt;node0 -->
<g id="edge29" class="edge">
<title>node10:index&#45;&gt;node0</title>
<path fill="none" stroke="black" d="M69.5,-66.35C91.8,-66.35 91.87,-84.22 113,-91.35 175,-112.27 193.56,-110.35 259,-110.35 259,-110.35 259,-110.35 1499.5,-110.35 1574.86,-110.35 1594.84,-109.43 1668,-91.35 1689.26,-86.09 1712.16,-77.24 1730.12,-69.52"/>
<polygon fill="black" stroke="black" points="1731.8,-72.6 1739.55,-65.37 1728.99,-66.19 1731.8,-72.6"/>
</g>
<!-- node10&#45;&gt;node0 -->
<g id="edge32" class="edge">
<title>node10:next&#45;&gt;node0</title>
<path fill="none" stroke="black" d="M69.5,-43.35C91.58,-43.35 92.02,-26.22 113,-19.35 175.18,1.04 193.56,-0.35 259,-0.35 259,-0.35 259,-0.35 1499.5,-0.35 1574.86,-0.35 1594.67,-1.94 1668,-19.35 1688.87,-24.3 1711.43,-32.51 1729.3,-39.74"/>
<polygon fill="black" stroke="black" points="1728.13,-43.04 1738.71,-43.62 1730.8,-36.57 1728.13,-43.04"/>
</g>
<!-- node10&#45;&gt;node8 -->
<g id="edge30" class="edge">
<title>node10:next&#45;&gt;node8:prev</title>
<path fill="none" stroke="#1c86ee" d="M69.5,-43.35C88.82,-43.35 96.03,-43.35 111.37,-43.35"/>
<polygon fill="#1c86ee" stroke="#1c86ee" points="111.5,-46.85 121.5,-43.35 111.5,-39.85 111.5,-46.85"/>
</g>
</g>
</svg>
