<?xml version="1.0" encoding="UTF-8" standalone="no"?>
<!DOCTYPE svg PUBLIC "-//W3C//DTD SVG 1.1//EN"
 "http://www.w3.org/Graphics/SVG/1.1/DTD/svg11.dtd">
<!-- Generated by graphviz version 2.43.0 (0)
 -->
<!-- Title: list Pages: 1 -->
<svg width="231pt" height="61pt"
 viewBox="0.00 0.00 231.49 61.00" xmlns="http://www.w3.org/2000/svg" xmlns:xlink="http://www.w3.org/1999/xlink">
<g id="graph0" class="graph" transform="scale(1 1) rotate(0) translate(4 57)">
<title>list</title>
<polygon fill="white" stroke="transparent" points="-4,4 -4,-57 227.49,-57 227.49,4 -4,4"/>
<!-- node1 -->
<g id="node1" class="node">
<title>node1</title>
<polygon fill="#ebebeb" stroke="transparent" points="9,-26.5 9,-47.5 59,-47.5 59,-26.5 9,-26.5"/>
<polygon fill="none" stroke="black" points="9,-26.5 9,-47.5 59,-47.5 59,-26.5 9,-26.5"/>
<text text-anchor="start" x="29" y="-33.3" font-family="Times,serif" font-size="14.00">1</text>
<polygon fill="none" stroke="crimson" points="9,-4.5 9,-25.5 25,-25.5 25,-4.5 9,-4.5"/>
<text text-anchor="start" x="12" y="-11.3" font-family="Times,serif" font-size="14.00">0</text>
<polygon fill="lightsalmon" stroke="transparent" points="26,-4.5 26,-25.5 42,-25.5 42,-4.5 26,-4.5"/>
<polygon fill="none" stroke="black" points="26,-4.5 26,-25.5 42,-25.5 42,-4.5 26,-4.5"/>
<text text-anchor="start" x="29" y="-11.3" font-family="Times,serif" font-size="14.00">1</text>
<polygon fill="none" stroke="#1c86ee" points="43,-4.5 43,-25.5 59,-25.5 59,-4.5 43,-4.5"/>
<text text-anchor="start" x="46" y="-11.3" font-family="Times,serif" font-size="14.00">0</text>
</g>
<!-- node0 -->
<g id="node2" class="node">
<title>node0</title>
<polygon fill="none" stroke="black" points="163.75,-44.5 103.75,-26.5 163.75,-8.5 223.74,-26.5 163.75,-44.5"/>
<text text-anchor="middle" x="163.75" y="-22.8" font-family="Times,serif" font-size="14.00">Fictive</text>
</g>
<!-- node1&#45;&gt;node0 -->
<g id="edge1" class="edge">
<title>node1:index&#45;&gt;node0</title>
<path fill="none" stroke="black" d="M60,-37.5C77.53,-37.5 96.65,-35.9 113.59,-33.92"/>
<polygon fill="black" stroke="black" points="114.33,-37.35 123.82,-32.64 113.46,-30.4 114.33,-37.35"/>
</g>
<!-- node1&#45;&gt;node0 -->
<g id="edge2" class="edge">
<title>node1:next&#45;&gt;node0</title>
<path fill="none" stroke="black" d="M60,-14.5C83.4,-9.92 109.59,-10.78 129.68,-13.91"/>
<polygon fill="black" stroke="black" points="129.11,-17.37 139.58,-15.74 130.38,-10.48 129.11,-17.37"/>
</g>
<!-- node1&#45;&gt;node0 -->
<g id="edge4" class="edge">
<title>node1:next&#45;&gt;node0</title>
<path fill="none" stroke="black" d="M60.27,-14.55C73.42,-17.13 87.45,-19.95 100.76,-22.44"/>
<polygon fill="black" stroke="black" points="100.31,-25.92 110.78,-24.28 101.58,-19.03 100.31,-25.92"/>
</g>
<!-- node0&#45;&gt;node1 -->
<g id="edge3" class="edge">
<title>node0&#45;&gt;node1:index</title>
<path fill="none" stroke="black" d="M123.82,-32.64C107.65,-34.77 88.4,-36.77 70.07,-37.34"/>
<polygon fill="black" stroke="black" points="69.94,-33.84 60,-37.5 70.06,-40.84 69.94,-33.84"/>
</g>
</g>
</svg>
