<?xml version="1.0" encoding="UTF-8" standalone="no"?>
<!DOCTYPE svg PUBLIC "-//W3C//DTD SVG 1.1//EN"
 "http://www.w3.org/Graphics/SVG/1.1/DTD/svg11.dtd">
<!-- Generated by graphviz version 2.43.0 (0)
 -->
<!-- Title: list Pages: 1 -->
<svg width="2224pt" height="120pt"
 viewBox="0.00 0.00 2224.49 120.25" xmlns="http://www.w3.org/2000/svg" xmlns:xlink="http://www.w3.org/1999/xlink">
<g id="graph0" class="graph" transform="scale(1 1) rotate(0) translate(4 116.25)">
<title>list</title>
<polygon fill="white" stroke="transparent" points="-4,4 -4,-116.25 2220.49,-116.25 2220.49,4 -4,4"/>
<!-- node16 -->
<g id="node1" class="node">
<title>node16</title>
<polygon fill="#ebebeb" stroke="transparent" points="1984,-56.05 1984,-77.05 2052,-77.05 2052,-56.05 1984,-56.05"/>
<polygon fill="none" stroke="black" points="1984,-56.05 1984,-77.05 2052,-77.05 2052,-56.05 1984,-56.05"/>
<text text-anchor="start" x="2008.5" y="-62.85" font-family="Times,serif" font-size="14.00">16</text>
<polygon fill="none" stroke="crimson" points="1984,-34.05 1984,-55.05 2009,-55.05 2009,-34.05 1984,-34.05"/>
<text text-anchor="start" x="1987" y="-40.85" font-family="Times,serif" font-size="14.00">15</text>
<polygon fill="lightsalmon" stroke="transparent" points="2010,-34.05 2010,-55.05 2035,-55.05 2035,-34.05 2010,-34.05"/>
<polygon fill="none" stroke="black" points="2010,-34.05 2010,-55.05 2035,-55.05 2035,-34.05 2010,-34.05"/>
<text text-anchor="start" x="2013" y="-40.85" font-family="Times,serif" font-size="14.00">16</text>
<polygon fill="none" stroke="#1c86ee" points="2036,-34.05 2036,-55.05 2052,-55.05 2052,-34.05 2036,-34.05"/>
<text text-anchor="start" x="2039" y="-40.85" font-family="Times,serif" font-size="14.00">0</text>
</g>
<!-- node15 -->
<g id="node2" class="node">
<title>node15</title>
<polygon fill="#ebebeb" stroke="transparent" points="1853.5,-56.05 1853.5,-77.05 1930.5,-77.05 1930.5,-56.05 1853.5,-56.05"/>
<polygon fill="none" stroke="black" points="1853.5,-56.05 1853.5,-77.05 1930.5,-77.05 1930.5,-56.05 1853.5,-56.05"/>
<text text-anchor="start" x="1882.5" y="-62.85" font-family="Times,serif" font-size="14.00">15</text>
<polygon fill="none" stroke="crimson" points="1853.5,-34.05 1853.5,-55.05 1878.5,-55.05 1878.5,-34.05 1853.5,-34.05"/>
<text text-anchor="start" x="1856.5" y="-40.85" font-family="Times,serif" font-size="14.00">14</text>
<polygon fill="lightsalmon" stroke="transparent" points="1879.5,-34.05 1879.5,-55.05 1904.5,-55.05 1904.5,-34.05 1879.5,-34.05"/>
<polygon fill="none" stroke="black" points="1879.5,-34.05 1879.5,-55.05 1904.5,-55.05 1904.5,-34.05 1879.5,-34.05"/>
<text text-anchor="start" x="1882.5" y="-40.85" font-family="Times,serif" font-size="14.00">15</text>
<polygon fill="none" stroke="#1c86ee" points="1905.5,-34.05 1905.5,-55.05 1930.5,-55.05 1930.5,-34.05 1905.5,-34.05"/>
<text text-anchor="start" x="1908.5" y="-40.85" font-family="Times,serif" font-size="14.00">16</text>
</g>
<!-- node16&#45;&gt;node15 -->
<g id="edge1" class="edge">
<title>node16:index&#45;&gt;node15:index</title>
<path fill="none" stroke="crimson" d="M1983,-67.05C1963.87,-67.05 1956.73,-67.05 1941.53,-67.05"/>
<polygon fill="crimson" stroke="crimson" points="1941.5,-63.55 1931.5,-67.05 1941.5,-70.55 1941.5,-63.55"/>
</g>
<!-- node0 -->
<g id="node3" class="node">
<title>node0</title>
<polygon fill="none" stroke="black" points="2156.75,-73.05 2096.75,-55.05 2156.75,-37.05 2216.74,-55.05 2156.75,-73.05"/>
<text text-anchor="middle" x="2156.75" y="-51.35" font-family="Times,serif" font-size="14.00">Fictive</text>
</g>
<!-- node16&#45;&gt;node0 -->
<g id="edge2" class="edge">
<title>node16:next&#45;&gt;node0</title>
<path fill="none" stroke="black" d="M2053,-44.05C2070.53,-44.05 2089.65,-45.65 2106.59,-47.63"/>
<polygon fill="black" stroke="black" points="2106.46,-51.14 2116.82,-48.9 2107.33,-44.19 2106.46,-51.14"/>
</g>
<!-- node15&#45;&gt;node16 -->
<g id="edge4" class="edge">
<title>node15:next&#45;&gt;node16:prev</title>
<path fill="none" stroke="#1c86ee" d="M1931.5,-44.05C1950.63,-44.05 1957.77,-44.05 1972.97,-44.05"/>
<polygon fill="#1c86ee" stroke="#1c86ee" points="1973,-47.55 1983,-44.05 1973,-40.55 1973,-47.55"/>
</g>
<!-- node14 -->
<g id="node4" class="node">
<title>node14</title>
<polygon fill="#ebebeb" stroke="transparent" points="1722.5,-56.05 1722.5,-77.05 1799.5,-77.05 1799.5,-56.05 1722.5,-56.05"/>
<polygon fill="none" stroke="black" points="1722.5,-56.05 1722.5,-77.05 1799.5,-77.05 1799.5,-56.05 1722.5,-56.05"/>
<text text-anchor="start" x="1751.5" y="-62.85" font-family="Times,serif" font-size="14.00">14</text>
<polygon fill="none" stroke="crimson" points="1722.5,-34.05 1722.5,-55.05 1747.5,-55.05 1747.5,-34.05 1722.5,-34.05"/>
<text text-anchor="start" x="1725.5" y="-40.85" font-family="Times,serif" font-size="14.00">13</text>
<polygon fill="lightsalmon" stroke="transparent" points="1748.5,-34.05 1748.5,-55.05 1773.5,-55.05 1773.5,-34.05 1748.5,-34.05"/>
<polygon fill="none" stroke="black" points="1748.5,-34.05 1748.5,-55.05 1773.5,-55.05 1773.5,-34.05 1748.5,-34.05"/>
<text text-anchor="start" x="1751.5" y="-40.85" font-family="Times,serif" font-size="14.00">14</text>
<polygon fill="none" stroke="#1c86ee" points="1774.5,-34.05 1774.5,-55.05 1799.5,-55.05 1799.5,-34.05 1774.5,-34.05"/>
<text text-anchor="start" x="1777.5" y="-40.85" font-family="Times,serif" font-size="14.00">15</text>
</g>
<!-- node15&#45;&gt;node14 -->
<g id="edge3" class="edge">
<title>node15:index&#45;&gt;node14:index</title>
<path fill="none" stroke="crimson" d="M1852.5,-67.05C1833.18,-67.05 1825.97,-67.05 1810.63,-67.05"/>
<polygon fill="crimson" stroke="crimson" points="1810.5,-63.55 1800.5,-67.05 1810.5,-70.55 1810.5,-63.55"/>
</g>
<!-- node0&#45;&gt;node16 -->
<g id="edge37" class="edge">
<title>node0&#45;&gt;node16:index</title>
<path fill="none" stroke="black" d="M2118.29,-61.54C2101.83,-63.93 2081.98,-66.23 2063.07,-66.87"/>
<polygon fill="black" stroke="black" points="2062.94,-63.37 2053,-67.05 2063.06,-70.37 2062.94,-63.37"/>
</g>
<!-- node14&#45;&gt;node15 -->
<g id="edge6" class="edge">
<title>node14:next&#45;&gt;node15:prev</title>
<path fill="none" stroke="#1c86ee" d="M1800.5,-44.05C1819.82,-44.05 1827.03,-44.05 1842.37,-44.05"/>
<polygon fill="#1c86ee" stroke="#1c86ee" points="1842.5,-47.55 1852.5,-44.05 1842.5,-40.55 1842.5,-47.55"/>
</g>
<!-- node13 -->
<g id="node5" class="node">
<title>node13</title>
<polygon fill="#ebebeb" stroke="transparent" points="1591.5,-56.05 1591.5,-77.05 1668.5,-77.05 1668.5,-56.05 1591.5,-56.05"/>
<polygon fill="none" stroke="black" points="1591.5,-56.05 1591.5,-77.05 1668.5,-77.05 1668.5,-56.05 1591.5,-56.05"/>
<text text-anchor="start" x="1620.5" y="-62.85" font-family="Times,serif" font-size="14.00">13</text>
<polygon fill="none" stroke="crimson" points="1591.5,-34.05 1591.5,-55.05 1616.5,-55.05 1616.5,-34.05 1591.5,-34.05"/>
<text text-anchor="start" x="1594.5" y="-40.85" font-family="Times,serif" font-size="14.00">12</text>
<polygon fill="lightsalmon" stroke="transparent" points="1617.5,-34.05 1617.5,-55.05 1642.5,-55.05 1642.5,-34.05 1617.5,-34.05"/>
<polygon fill="none" stroke="black" points="1617.5,-34.05 1617.5,-55.05 1642.5,-55.05 1642.5,-34.05 1617.5,-34.05"/>
<text text-anchor="start" x="1620.5" y="-40.85" font-family="Times,serif" font-size="14.00">13</text>
<polygon fill="none" stroke="#1c86ee" points="1643.5,-34.05 1643.5,-55.05 1668.5,-55.05 1668.5,-34.05 1643.5,-34.05"/>
<text text-anchor="start" x="1646.5" y="-40.85" font-family="Times,serif" font-size="14.00">14</text>
</g>
<!-- node14&#45;&gt;node13 -->
<g id="edge5" class="edge">
<title>node14:index&#45;&gt;node13:index</title>
<path fill="none" stroke="crimson" d="M1721.5,-67.05C1702.18,-67.05 1694.97,-67.05 1679.63,-67.05"/>
<polygon fill="crimson" stroke="crimson" points="1679.5,-63.55 1669.5,-67.05 1679.5,-70.55 1679.5,-63.55"/>
</g>
<!-- node13&#45;&gt;node14 -->
<g id="edge8" class="edge">
<title>node13:next&#45;&gt;node14:prev</title>
<path fill="none" stroke="#1c86ee" d="M1669.5,-44.05C1688.82,-44.05 1696.03,-44.05 1711.37,-44.05"/>
<polygon fill="#1c86ee" stroke="#1c86ee" points="1711.5,-47.55 1721.5,-44.05 1711.5,-40.55 1711.5,-47.55"/>
</g>
<!-- node12 -->
<g id="node6" class="node">
<title>node12</title>
<polygon fill="#ebebeb" stroke="transparent" points="1460.5,-56.05 1460.5,-77.05 1537.5,-77.05 1537.5,-56.05 1460.5,-56.05"/>
<polygon fill="none" stroke="black" points="1460.5,-56.05 1460.5,-77.05 1537.5,-77.05 1537.5,-56.05 1460.5,-56.05"/>
<text text-anchor="start" x="1489.5" y="-62.85" font-family="Times,serif" font-size="14.00">12</text>
<polygon fill="none" stroke="crimson" points="1460.5,-34.05 1460.5,-55.05 1485.5,-55.05 1485.5,-34.05 1460.5,-34.05"/>
<text text-anchor="start" x="1463.5" y="-40.85" font-family="Times,serif" font-size="14.00">11</text>
<polygon fill="lightsalmon" stroke="transparent" points="1486.5,-34.05 1486.5,-55.05 1511.5,-55.05 1511.5,-34.05 1486.5,-34.05"/>
<polygon fill="none" stroke="black" points="1486.5,-34.05 1486.5,-55.05 1511.5,-55.05 1511.5,-34.05 1486.5,-34.05"/>
<text text-anchor="start" x="1489.5" y="-40.85" font-family="Times,serif" font-size="14.00">12</text>
<polygon fill="none" stroke="#1c86ee" points="1512.5,-34.05 1512.5,-55.05 1537.5,-55.05 1537.5,-34.05 1512.5,-34.05"/>
<text text-anchor="start" x="1515.5" y="-40.85" font-family="Times,serif" font-size="14.00">13</text>
</g>
<!-- node13&#45;&gt;node12 -->
<g id="edge7" class="edge">
<title>node13:index&#45;&gt;node12:index</title>
<path fill="none" stroke="crimson" d="M1590.5,-67.05C1571.18,-67.05 1563.97,-67.05 1548.63,-67.05"/>
<polygon fill="crimson" stroke="crimson" points="1548.5,-63.55 1538.5,-67.05 1548.5,-70.55 1548.5,-63.55"/>
</g>
<!-- node12&#45;&gt;node13 -->
<g id="edge10" class="edge">
<title>node12:next&#45;&gt;node13:prev</title>
<path fill="none" stroke="#1c86ee" d="M1538.5,-44.05C1557.82,-44.05 1565.03,-44.05 1580.37,-44.05"/>
<polygon fill="#1c86ee" stroke="#1c86ee" points="1580.5,-47.55 1590.5,-44.05 1580.5,-40.55 1580.5,-47.55"/>
</g>
<!-- node11 -->
<g id="node7" class="node">
<title>node11</title>
<polygon fill="#ebebeb" stroke="transparent" points="1338,-56.05 1338,-77.05 1406,-77.05 1406,-56.05 1338,-56.05"/>
<polygon fill="none" stroke="black" points="1338,-56.05 1338,-77.05 1406,-77.05 1406,-56.05 1338,-56.05"/>
<text text-anchor="start" x="1362.5" y="-62.85" font-family="Times,serif" font-size="14.00">11</text>
<polygon fill="none" stroke="crimson" points="1338,-34.05 1338,-55.05 1354,-55.05 1354,-34.05 1338,-34.05"/>
<text text-anchor="start" x="1341" y="-40.85" font-family="Times,serif" font-size="14.00">9</text>
<polygon fill="lightsalmon" stroke="transparent" points="1355,-34.05 1355,-55.05 1380,-55.05 1380,-34.05 1355,-34.05"/>
<polygon fill="none" stroke="black" points="1355,-34.05 1355,-55.05 1380,-55.05 1380,-34.05 1355,-34.05"/>
<text text-anchor="start" x="1358" y="-40.85" font-family="Times,serif" font-size="14.00">11</text>
<polygon fill="none" stroke="#1c86ee" points="1381,-34.05 1381,-55.05 1406,-55.05 1406,-34.05 1381,-34.05"/>
<text text-anchor="start" x="1384" y="-40.85" font-family="Times,serif" font-size="14.00">12</text>
</g>
<!-- node12&#45;&gt;node11 -->
<g id="edge9" class="edge">
<title>node12:index&#45;&gt;node11:index</title>
<path fill="none" stroke="crimson" d="M1459.5,-67.05C1439.99,-67.05 1432.72,-67.05 1417.23,-67.05"/>
<polygon fill="crimson" stroke="crimson" points="1417,-63.55 1407,-67.05 1417,-70.55 1417,-63.55"/>
</g>
<!-- node11&#45;&gt;node12 -->
<g id="edge12" class="edge">
<title>node11:next&#45;&gt;node12:prev</title>
<path fill="none" stroke="#1c86ee" d="M1407,-44.05C1426.51,-44.05 1433.78,-44.05 1449.27,-44.05"/>
<polygon fill="#1c86ee" stroke="#1c86ee" points="1449.5,-47.55 1459.5,-44.05 1449.5,-40.55 1449.5,-47.55"/>
</g>
<!-- node9 -->
<g id="node8" class="node">
<title>node9</title>
<polygon fill="#ebebeb" stroke="transparent" points="1225.5,-56.05 1225.5,-77.05 1284.5,-77.05 1284.5,-56.05 1225.5,-56.05"/>
<polygon fill="none" stroke="black" points="1225.5,-56.05 1225.5,-77.05 1284.5,-77.05 1284.5,-56.05 1225.5,-56.05"/>
<text text-anchor="start" x="1250" y="-62.85" font-family="Times,serif" font-size="14.00">9</text>
<polygon fill="none" stroke="crimson" points="1225.5,-34.05 1225.5,-55.05 1241.5,-55.05 1241.5,-34.05 1225.5,-34.05"/>
<text text-anchor="start" x="1228.5" y="-40.85" font-family="Times,serif" font-size="14.00">7</text>
<polygon fill="lightsalmon" stroke="transparent" points="1242.5,-34.05 1242.5,-55.05 1258.5,-55.05 1258.5,-34.05 1242.5,-34.05"/>
<polygon fill="none" stroke="black" points="1242.5,-34.05 1242.5,-55.05 1258.5,-55.05 1258.5,-34.05 1242.5,-34.05"/>
<text text-anchor="start" x="1245.5" y="-40.85" font-family="Times,serif" font-size="14.00">9</text>
<polygon fill="none" stroke="#1c86ee" points="1259.5,-34.05 1259.5,-55.05 1284.5,-55.05 1284.5,-34.05 1259.5,-34.05"/>
<text text-anchor="start" x="1262.5" y="-40.85" font-family="Times,serif" font-size="14.00">11</text>
</g>
<!-- node11&#45;&gt;node9 -->
<g id="edge11" class="edge">
<title>node11:index&#45;&gt;node9:index</title>
<path fill="none" stroke="crimson" d="M1337,-67.05C1317.87,-67.05 1310.73,-67.05 1295.53,-67.05"/>
<polygon fill="crimson" stroke="crimson" points="1295.5,-63.55 1285.5,-67.05 1295.5,-70.55 1295.5,-63.55"/>
</g>
<!-- node9&#45;&gt;node11 -->
<g id="edge14" class="edge">
<title>node9:next&#45;&gt;node11:prev</title>
<path fill="none" stroke="#1c86ee" d="M1285.5,-44.05C1304.63,-44.05 1311.77,-44.05 1326.97,-44.05"/>
<polygon fill="#1c86ee" stroke="#1c86ee" points="1327,-47.55 1337,-44.05 1327,-40.55 1327,-47.55"/>
</g>
<!-- node7 -->
<g id="node9" class="node">
<title>node7</title>
<polygon fill="#ebebeb" stroke="transparent" points="1121,-56.05 1121,-77.05 1171,-77.05 1171,-56.05 1121,-56.05"/>
<polygon fill="none" stroke="black" points="1121,-56.05 1121,-77.05 1171,-77.05 1171,-56.05 1121,-56.05"/>
<text text-anchor="start" x="1141" y="-62.85" font-family="Times,serif" font-size="14.00">7</text>
<polygon fill="none" stroke="crimson" points="1121,-34.05 1121,-55.05 1137,-55.05 1137,-34.05 1121,-34.05"/>
<text text-anchor="start" x="1124" y="-40.85" font-family="Times,serif" font-size="14.00">6</text>
<polygon fill="lightsalmon" stroke="transparent" points="1138,-34.05 1138,-55.05 1154,-55.05 1154,-34.05 1138,-34.05"/>
<polygon fill="none" stroke="black" points="1138,-34.05 1138,-55.05 1154,-55.05 1154,-34.05 1138,-34.05"/>
<text text-anchor="start" x="1141" y="-40.85" font-family="Times,serif" font-size="14.00">7</text>
<polygon fill="none" stroke="#1c86ee" points="1155,-34.05 1155,-55.05 1171,-55.05 1171,-34.05 1155,-34.05"/>
<text text-anchor="start" x="1158" y="-40.85" font-family="Times,serif" font-size="14.00">9</text>
</g>
<!-- node9&#45;&gt;node7 -->
<g id="edge13" class="edge">
<title>node9:index&#45;&gt;node7:index</title>
<path fill="none" stroke="crimson" d="M1224.5,-67.05C1204.99,-67.05 1197.72,-67.05 1182.23,-67.05"/>
<polygon fill="crimson" stroke="crimson" points="1182,-63.55 1172,-67.05 1182,-70.55 1182,-63.55"/>
</g>
<!-- node7&#45;&gt;node9 -->
<g id="edge16" class="edge">
<title>node7:next&#45;&gt;node9:prev</title>
<path fill="none" stroke="#1c86ee" d="M1172,-44.05C1191.51,-44.05 1198.78,-44.05 1214.27,-44.05"/>
<polygon fill="#1c86ee" stroke="#1c86ee" points="1214.5,-47.55 1224.5,-44.05 1214.5,-40.55 1214.5,-47.55"/>
</g>
<!-- node6 -->
<g id="node10" class="node">
<title>node6</title>
<polygon fill="#ebebeb" stroke="transparent" points="1017,-56.05 1017,-77.05 1067,-77.05 1067,-56.05 1017,-56.05"/>
<polygon fill="none" stroke="black" points="1017,-56.05 1017,-77.05 1067,-77.05 1067,-56.05 1017,-56.05"/>
<text text-anchor="start" x="1037" y="-62.85" font-family="Times,serif" font-size="14.00">6</text>
<polygon fill="none" stroke="crimson" points="1017,-34.05 1017,-55.05 1033,-55.05 1033,-34.05 1017,-34.05"/>
<text text-anchor="start" x="1020" y="-40.85" font-family="Times,serif" font-size="14.00">5</text>
<polygon fill="lightsalmon" stroke="transparent" points="1034,-34.05 1034,-55.05 1050,-55.05 1050,-34.05 1034,-34.05"/>
<polygon fill="none" stroke="black" points="1034,-34.05 1034,-55.05 1050,-55.05 1050,-34.05 1034,-34.05"/>
<text text-anchor="start" x="1037" y="-40.85" font-family="Times,serif" font-size="14.00">6</text>
<polygon fill="none" stroke="#1c86ee" points="1051,-34.05 1051,-55.05 1067,-55.05 1067,-34.05 1051,-34.05"/>
<text text-anchor="start" x="1054" y="-40.85" font-family="Times,serif" font-size="14.00">7</text>
</g>
<!-- node7&#45;&gt;node6 -->
<g id="edge15" class="edge">
<title>node7:index&#45;&gt;node6:index</title>
<path fill="none" stroke="crimson" d="M1120,-67.05C1100.68,-67.05 1093.47,-67.05 1078.13,-67.05"/>
<polygon fill="crimson" stroke="crimson" points="1078,-63.55 1068,-67.05 1078,-70.55 1078,-63.55"/>
</g>
<!-- node6&#45;&gt;node7 -->
<g id="edge18" class="edge">
<title>node6:next&#45;&gt;node7:prev</title>
<path fill="none" stroke="#1c86ee" d="M1068,-44.05C1087.32,-44.05 1094.53,-44.05 1109.87,-44.05"/>
<polygon fill="#1c86ee" stroke="#1c86ee" points="1110,-47.55 1120,-44.05 1110,-40.55 1110,-47.55"/>
</g>
<!-- node5 -->
<g id="node11" class="node">
<title>node5</title>
<polygon fill="#ebebeb" stroke="transparent" points="913,-56.05 913,-77.05 963,-77.05 963,-56.05 913,-56.05"/>
<polygon fill="none" stroke="black" points="913,-56.05 913,-77.05 963,-77.05 963,-56.05 913,-56.05"/>
<text text-anchor="start" x="933" y="-62.85" font-family="Times,serif" font-size="14.00">5</text>
<polygon fill="none" stroke="crimson" points="913,-34.05 913,-55.05 929,-55.05 929,-34.05 913,-34.05"/>
<text text-anchor="start" x="916" y="-40.85" font-family="Times,serif" font-size="14.00">4</text>
<polygon fill="lightsalmon" stroke="transparent" points="930,-34.05 930,-55.05 946,-55.05 946,-34.05 930,-34.05"/>
<polygon fill="none" stroke="black" points="930,-34.05 930,-55.05 946,-55.05 946,-34.05 930,-34.05"/>
<text text-anchor="start" x="933" y="-40.85" font-family="Times,serif" font-size="14.00">5</text>
<polygon fill="none" stroke="#1c86ee" points="947,-34.05 947,-55.05 963,-55.05 963,-34.05 947,-34.05"/>
<text text-anchor="start" x="950" y="-40.85" font-family="Times,serif" font-size="14.00">6</text>
</g>
<!-- node6&#45;&gt;node5 -->
<g id="edge17" class="edge">
<title>node6:index&#45;&gt;node5:index</title>
<path fill="none" stroke="crimson" d="M1016,-67.05C996.68,-67.05 989.47,-67.05 974.13,-67.05"/>
<polygon fill="crimson" stroke="crimson" points="974,-63.55 964,-67.05 974,-70.55 974,-63.55"/>
</g>
<!-- node5&#45;&gt;node6 -->
<g id="edge20" class="edge">
<title>node5:next&#45;&gt;node6:prev</title>
<path fill="none" stroke="#1c86ee" d="M964,-44.05C983.32,-44.05 990.53,-44.05 1005.87,-44.05"/>
<polygon fill="#1c86ee" stroke="#1c86ee" points="1006,-47.55 1016,-44.05 1006,-40.55 1006,-47.55"/>
</g>
<!-- node4 -->
<g id="node12" class="node">
<title>node4</title>
<polygon fill="#ebebeb" stroke="transparent" points="809,-56.05 809,-77.05 859,-77.05 859,-56.05 809,-56.05"/>
<polygon fill="none" stroke="black" points="809,-56.05 809,-77.05 859,-77.05 859,-56.05 809,-56.05"/>
<text text-anchor="start" x="829" y="-62.85" font-family="Times,serif" font-size="14.00">4</text>
<polygon fill="none" stroke="crimson" points="809,-34.05 809,-55.05 825,-55.05 825,-34.05 809,-34.05"/>
<text text-anchor="start" x="812" y="-40.85" font-family="Times,serif" font-size="14.00">3</text>
<polygon fill="lightsalmon" stroke="transparent" points="826,-34.05 826,-55.05 842,-55.05 842,-34.05 826,-34.05"/>
<polygon fill="none" stroke="black" points="826,-34.05 826,-55.05 842,-55.05 842,-34.05 826,-34.05"/>
<text text-anchor="start" x="829" y="-40.85" font-family="Times,serif" font-size="14.00">4</text>
<polygon fill="none" stroke="#1c86ee" points="843,-34.05 843,-55.05 859,-55.05 859,-34.05 843,-34.05"/>
<text text-anchor="start" x="846" y="-40.85" font-family="Times,serif" font-size="14.00">5</text>
</g>
<!-- node5&#45;&gt;node4 -->
<g id="edge19" class="edge">
<title>node5:index&#45;&gt;node4:index</title>
<path fill="none" stroke="crimson" d="M912,-67.05C892.68,-67.05 885.47,-67.05 870.13,-67.05"/>
<polygon fill="crimson" stroke="crimson" points="870,-63.55 860,-67.05 870,-70.55 870,-63.55"/>
</g>
<!-- node4&#45;&gt;node5 -->
<g id="edge22" class="edge">
<title>node4:next&#45;&gt;node5:prev</title>
<path fill="none" stroke="#1c86ee" d="M860,-44.05C879.32,-44.05 886.53,-44.05 901.87,-44.05"/>
<polygon fill="#1c86ee" stroke="#1c86ee" points="902,-47.55 912,-44.05 902,-40.55 902,-47.55"/>
</g>
<!-- node3 -->
<g id="node13" class="node">
<title>node3</title>
<polygon fill="#ebebeb" stroke="transparent" points="705,-56.05 705,-77.05 755,-77.05 755,-56.05 705,-56.05"/>
<polygon fill="none" stroke="black" points="705,-56.05 705,-77.05 755,-77.05 755,-56.05 705,-56.05"/>
<text text-anchor="start" x="725" y="-62.85" font-family="Times,serif" font-size="14.00">3</text>
<polygon fill="none" stroke="crimson" points="705,-34.05 705,-55.05 721,-55.05 721,-34.05 705,-34.05"/>
<text text-anchor="start" x="708" y="-40.85" font-family="Times,serif" font-size="14.00">2</text>
<polygon fill="lightsalmon" stroke="transparent" points="722,-34.05 722,-55.05 738,-55.05 738,-34.05 722,-34.05"/>
<polygon fill="none" stroke="black" points="722,-34.05 722,-55.05 738,-55.05 738,-34.05 722,-34.05"/>
<text text-anchor="start" x="725" y="-40.85" font-family="Times,serif" font-size="14.00">3</text>
<polygon fill="none" stroke="#1c86ee" points="739,-34.05 739,-55.05 755,-55.05 755,-34.05 739,-34.05"/>
<text text-anchor="start" x="742" y="-40.85" font-family="Times,serif" font-size="14.00">4</text>
</g>
<!-- node4&#45;&gt;node3 -->
<g id="edge21" class="edge">
<title>node4:index&#45;&gt;node3:index</title>
<path fill="none" stroke="crimson" d="M808,-67.05C788.68,-67.05 781.47,-67.05 766.13,-67.05"/>
<polygon fill="crimson" stroke="crimson" points="766,-63.55 756,-67.05 766,-70.55 766,-63.55"/>
</g>
<!-- node3&#45;&gt;node4 -->
<g id="edge24" class="edge">
<title>node3:next&#45;&gt;node4:prev</title>
<path fill="none" stroke="#1c86ee" d="M756,-44.05C775.32,-44.05 782.53,-44.05 797.87,-44.05"/>
<polygon fill="#1c86ee" stroke="#1c86ee" points="798,-47.55 808,-44.05 798,-40.55 798,-47.55"/>
</g>
<!-- node2 -->
<g id="node14" class="node">
<title>node2</title>
<polygon fill="#ebebeb" stroke="transparent" points="601,-56.05 601,-77.05 651,-77.05 651,-56.05 601,-56.05"/>
<polygon fill="none" stroke="black" points="601,-56.05 601,-77.05 651,-77.05 651,-56.05 601,-56.05"/>
<text text-anchor="start" x="621" y="-62.85" font-family="Times,serif" font-size="14.00">2</text>
<polygon fill="none" stroke="crimson" points="601,-34.05 601,-55.05 617,-55.05 617,-34.05 601,-34.05"/>
<text text-anchor="start" x="604" y="-40.85" font-family="Times,serif" font-size="14.00">1</text>
<polygon fill="lightsalmon" stroke="transparent" points="618,-34.05 618,-55.05 634,-55.05 634,-34.05 618,-34.05"/>
<polygon fill="none" stroke="black" points="618,-34.05 618,-55.05 634,-55.05 634,-34.05 618,-34.05"/>
<text text-anchor="start" x="621" y="-40.85" font-family="Times,serif" font-size="14.00">2</text>
<polygon fill="none" stroke="#1c86ee" points="635,-34.05 635,-55.05 651,-55.05 651,-34.05 635,-34.05"/>
<text text-anchor="start" x="638" y="-40.85" font-family="Times,serif" font-size="14.00">3</text>
</g>
<!-- node3&#45;&gt;node2 -->
<g id="edge23" class="edge">
<title>node3:index&#45;&gt;node2:index</title>
<path fill="none" stroke="crimson" d="M704,-67.05C684.68,-67.05 677.47,-67.05 662.13,-67.05"/>
<polygon fill="crimson" stroke="crimson" points="662,-63.55 652,-67.05 662,-70.55 662,-63.55"/>
</g>
<!-- node2&#45;&gt;node3 -->
<g id="edge26" class="edge">
<title>node2:next&#45;&gt;node3:prev</title>
<path fill="none" stroke="#1c86ee" d="M652,-44.05C671.32,-44.05 678.53,-44.05 693.87,-44.05"/>
<polygon fill="#1c86ee" stroke="#1c86ee" points="694,-47.55 704,-44.05 694,-40.55 694,-47.55"/>
</g>
<!-- node1 -->
<g id="node15" class="node">
<title>node1</title>
<polygon fill="#ebebeb" stroke="transparent" points="497,-56.05 497,-77.05 547,-77.05 547,-56.05 497,-56.05"/>
<polygon fill="none" stroke="black" points="497,-56.05 497,-77.05 547,-77.05 547,-56.05 497,-56.05"/>
<text text-anchor="start" x="517" y="-62.85" font-family="Times,serif" font-size="14.00">1</text>
<polygon fill="none" stroke="crimson" points="497,-34.05 497,-55.05 513,-55.05 513,-34.05 497,-34.05"/>
<text text-anchor="start" x="500" y="-40.85" font-family="Times,serif" font-size="14.00">8</text>
<polygon fill="lightsalmon" stroke="transparent" points="514,-34.05 514,-55.05 530,-55.05 530,-34.05 514,-34.05"/>
<polygon fill="none" stroke="black" points="514,-34.05 514,-55.05 530,-55.05 530,-34.05 514,-34.05"/>
<text text-anchor="start" x="517" y="-40.85" font-family="Times,serif" font-size="14.00">1</text>
<polygon fill="none" stroke="#1c86ee" points="531,-34.05 531,-55.05 547,-55.05 547,-34.05 531,-34.05"/>
<text text-anchor="start" x="534" y="-40.85" font-family="Times,serif" font-size="14.00">2</text>
</g>
<!-- node2&#45;&gt;node1 -->
<g id="edge25" class="edge">
<title>node2:index&#45;&gt;node1:index</title>
<path fill="none" stroke="crimson" d="M600,-67.05C580.68,-67.05 573.47,-67.05 558.13,-67.05"/>
<polygon fill="crimson" stroke="crimson" points="558,-63.55 548,-67.05 558,-70.55 558,-63.55"/>
</g>
<!-- node1&#45;&gt;node2 -->
<g id="edge28" class="edge">
<title>node1:next&#45;&gt;node2:prev</title>
<path fill="none" stroke="#1c86ee" d="M548,-44.05C567.32,-44.05 574.53,-44.05 589.87,-44.05"/>
<polygon fill="#1c86ee" stroke="#1c86ee" points="590,-47.55 600,-44.05 590,-40.55 590,-47.55"/>
</g>
<!-- node8 -->
<g id="node16" class="node">
<title>node8</title>
<polygon fill="#ebebeb" stroke="transparent" points="384.5,-56.05 384.5,-77.05 443.5,-77.05 443.5,-56.05 384.5,-56.05"/>
<polygon fill="none" stroke="black" points="384.5,-56.05 384.5,-77.05 443.5,-77.05 443.5,-56.05 384.5,-56.05"/>
<text text-anchor="start" x="409" y="-62.85" font-family="Times,serif" font-size="14.00">8</text>
<polygon fill="none" stroke="crimson" points="384.5,-34.05 384.5,-55.05 409.5,-55.05 409.5,-34.05 384.5,-34.05"/>
<text text-anchor="start" x="387.5" y="-40.85" font-family="Times,serif" font-size="14.00">10</text>
<polygon fill="lightsalmon" stroke="transparent" points="410.5,-34.05 410.5,-55.05 426.5,-55.05 426.5,-34.05 410.5,-34.05"/>
<polygon fill="none" stroke="black" points="410.5,-34.05 410.5,-55.05 426.5,-55.05 426.5,-34.05 410.5,-34.05"/>
<text text-anchor="start" x="413.5" y="-40.85" font-family="Times,serif" font-size="14.00">8</text>
<polygon fill="none" stroke="#1c86ee" points="427.5,-34.05 427.5,-55.05 443.5,-55.05 443.5,-34.05 427.5,-34.05"/>
<text text-anchor="start" x="430.5" y="-40.85" font-family="Times,serif" font-size="14.00">1</text>
</g>
<!-- node1&#45;&gt;node8 -->
<g id="edge27" class="edge">
<title>node1:index&#45;&gt;node8:index</title>
<path fill="none" stroke="crimson" d="M496,-67.05C476.87,-67.05 469.73,-67.05 454.53,-67.05"/>
<polygon fill="crimson" stroke="crimson" points="454.5,-63.55 444.5,-67.05 454.5,-70.55 454.5,-63.55"/>
</g>
<!-- node8&#45;&gt;node1 -->
<g id="edge30" class="edge">
<title>node8:next&#45;&gt;node1:prev</title>
<path fill="none" stroke="#1c86ee" d="M444.5,-44.05C463.63,-44.05 470.77,-44.05 485.97,-44.05"/>
<polygon fill="#1c86ee" stroke="#1c86ee" points="486,-47.55 496,-44.05 486,-40.55 486,-47.55"/>
</g>
<!-- node10 -->
<g id="node17" class="node">
<title>node10</title>
<polygon fill="#ebebeb" stroke="transparent" points="262,-56.05 262,-77.05 330,-77.05 330,-56.05 262,-56.05"/>
<polygon fill="none" stroke="black" points="262,-56.05 262,-77.05 330,-77.05 330,-56.05 262,-56.05"/>
<text text-anchor="start" x="286.5" y="-62.85" font-family="Times,serif" font-size="14.00">10</text>
<polygon fill="none" stroke="crimson" points="262,-34.05 262,-55.05 287,-55.05 287,-34.05 262,-34.05"/>
<text text-anchor="start" x="265" y="-40.85" font-family="Times,serif" font-size="14.00">17</text>
<polygon fill="lightsalmon" stroke="transparent" points="288,-34.05 288,-55.05 313,-55.05 313,-34.05 288,-34.05"/>
<polygon fill="none" stroke="black" points="288,-34.05 288,-55.05 313,-55.05 313,-34.05 288,-34.05"/>
<text text-anchor="start" x="291" y="-40.85" font-family="Times,serif" font-size="14.00">10</text>
<polygon fill="none" stroke="#1c86ee" points="314,-34.05 314,-55.05 330,-55.05 330,-34.05 314,-34.05"/>
<text text-anchor="start" x="317" y="-40.85" font-family="Times,serif" font-size="14.00">8</text>
</g>
<!-- node8&#45;&gt;node10 -->
<g id="edge29" class="edge">
<title>node8:index&#45;&gt;node10:index</title>
<path fill="none" stroke="crimson" d="M383.5,-67.05C363.99,-67.05 356.72,-67.05 341.23,-67.05"/>
<polygon fill="crimson" stroke="crimson" points="341,-63.55 331,-67.05 341,-70.55 341,-63.55"/>
</g>
<!-- node10&#45;&gt;node8 -->
<g id="edge32" class="edge">
<title>node10:next&#45;&gt;node8:prev</title>
<path fill="none" stroke="#1c86ee" d="M331,-44.05C350.51,-44.05 357.78,-44.05 373.27,-44.05"/>
<polygon fill="#1c86ee" stroke="#1c86ee" points="373.5,-47.55 383.5,-44.05 373.5,-40.55 373.5,-47.55"/>
</g>
<!-- node17 -->
<g id="node18" class="node">
<title>node17</title>
<polygon fill="#ebebeb" stroke="transparent" points="131.5,-56.05 131.5,-77.05 208.5,-77.05 208.5,-56.05 131.5,-56.05"/>
<polygon fill="none" stroke="black" points="131.5,-56.05 131.5,-77.05 208.5,-77.05 208.5,-56.05 131.5,-56.05"/>
<text text-anchor="start" x="160.5" y="-62.85" font-family="Times,serif" font-size="14.00">17</text>
<polygon fill="none" stroke="crimson" points="131.5,-34.05 131.5,-55.05 156.5,-55.05 156.5,-34.05 131.5,-34.05"/>
<text text-anchor="start" x="134.5" y="-40.85" font-family="Times,serif" font-size="14.00">18</text>
<polygon fill="lightsalmon" stroke="transparent" points="157.5,-34.05 157.5,-55.05 182.5,-55.05 182.5,-34.05 157.5,-34.05"/>
<polygon fill="none" stroke="black" points="157.5,-34.05 157.5,-55.05 182.5,-55.05 182.5,-34.05 157.5,-34.05"/>
<text text-anchor="start" x="160.5" y="-40.85" font-family="Times,serif" font-size="14.00">17</text>
<polygon fill="none" stroke="#1c86ee" points="183.5,-34.05 183.5,-55.05 208.5,-55.05 208.5,-34.05 183.5,-34.05"/>
<text text-anchor="start" x="186.5" y="-40.85" font-family="Times,serif" font-size="14.00">10</text>
</g>
<!-- node10&#45;&gt;node17 -->
<g id="edge31" class="edge">
<title>node10:index&#45;&gt;node17:index</title>
<path fill="none" stroke="crimson" d="M261,-67.05C241.87,-67.05 234.73,-67.05 219.53,-67.05"/>
<polygon fill="crimson" stroke="crimson" points="219.5,-63.55 209.5,-67.05 219.5,-70.55 219.5,-63.55"/>
</g>
<!-- node17&#45;&gt;node10 -->
<g id="edge34" class="edge">
<title>node17:next&#45;&gt;node10:prev</title>
<path fill="none" stroke="#1c86ee" d="M209.5,-44.05C228.63,-44.05 235.77,-44.05 250.97,-44.05"/>
<polygon fill="#1c86ee" stroke="#1c86ee" points="251,-47.55 261,-44.05 251,-40.55 251,-47.55"/>
</g>
<!-- node18 -->
<g id="node19" class="node">
<title>node18</title>
<polygon fill="#ebebeb" stroke="transparent" points="9,-56.05 9,-77.05 77,-77.05 77,-56.05 9,-56.05"/>
<polygon fill="none" stroke="black" points="9,-56.05 9,-77.05 77,-77.05 77,-56.05 9,-56.05"/>
<text text-anchor="start" x="33.5" y="-62.85" font-family="Times,serif" font-size="14.00">18</text>
<polygon fill="none" stroke="crimson" points="9,-34.05 9,-55.05 25,-55.05 25,-34.05 9,-34.05"/>
<text text-anchor="start" x="12" y="-40.85" font-family="Times,serif" font-size="14.00">0</text>
<polygon fill="lightsalmon" stroke="transparent" points="26,-34.05 26,-55.05 51,-55.05 51,-34.05 26,-34.05"/>
<polygon fill="none" stroke="black" points="26,-34.05 26,-55.05 51,-55.05 51,-34.05 26,-34.05"/>
<text text-anchor="start" x="29" y="-40.85" font-family="Times,serif" font-size="14.00">18</text>
<polygon fill="none" stroke="#1c86ee" points="52,-34.05 52,-55.05 77,-55.05 77,-34.05 52,-34.05"/>
<text text-anchor="start" x="55" y="-40.85" font-family="Times,serif" font-size="14.00">17</text>
</g>
<!-- node17&#45;&gt;node18 -->
<g id="edge33" class="edge">
<title>node17:index&#45;&gt;node18:index</title>
<path fill="none" stroke="crimson" d="M130.5,-67.05C110.99,-67.05 103.72,-67.05 88.23,-67.05"/>
<polygon fill="crimson" stroke="crimson" points="88,-63.55 78,-67.05 88,-70.55 88,-63.55"/>
</g>
<!-- node18&#45;&gt;node0 -->
<g id="edge35" class="edge">
<title>node18:index&#45;&gt;node0</title>
<path fill="none" stroke="black" d="M78,-67.05C100.49,-67.05 100.6,-85.12 122,-92.05 195.59,-115.87 217.65,-111.05 295,-111.05 295,-111.05 295,-111.05 1892.5,-111.05 1967.86,-111.05 1987.84,-110.13 2061,-92.05 2082.26,-86.79 2105.16,-77.94 2123.12,-70.22"/>
<polygon fill="black" stroke="black" points="2124.8,-73.3 2132.55,-66.07 2121.99,-66.89 2124.8,-73.3"/>
</g>
<!-- node18&#45;&gt;node0 -->
<g id="edge38" class="edge">
<title>node18:next&#45;&gt;node0</title>
<path fill="none" stroke="black" d="M78,-44.05C100.28,-44.05 100.75,-26.72 122,-20.05 195.8,3.14 217.65,-1.05 295,-1.05 295,-1.05 295,-1.05 1892.5,-1.05 1967.86,-1.05 1987.67,-2.64 2061,-20.05 2081.87,-25 2104.43,-33.21 2122.3,-40.44"/>
<polygon fill="black" stroke="black" points="2121.13,-43.74 2131.71,-44.32 2123.8,-37.27 2121.13,-43.74"/>
</g>
<!-- node18&#45;&gt;node17 -->
<g id="edge36" class="edge">
<title>node18:next&#45;&gt;node17:prev</title>
<path fill="none" stroke="#1c86ee" d="M78,-44.05C97.51,-44.05 104.78,-44.05 120.27,-44.05"/>
<polygon fill="#1c86ee" stroke="#1c86ee" points="120.5,-47.55 130.5,-44.05 120.5,-40.55 120.5,-47.55"/>
</g>
</g>
</svg>
