<?xml version="1.0" encoding="UTF-8" standalone="no"?>
<!DOCTYPE svg PUBLIC "-//W3C//DTD SVG 1.1//EN"
 "http://www.w3.org/Graphics/SVG/1.1/DTD/svg11.dtd">
<!-- Generated by graphviz version 2.43.0 (0)
 -->
<!-- Title: list Pages: 1 -->
<svg width="2355pt" height="121pt"
 viewBox="0.00 0.00 2355.49 120.50" xmlns="http://www.w3.org/2000/svg" xmlns:xlink="http://www.w3.org/1999/xlink">
<g id="graph0" class="graph" transform="scale(1 1) rotate(0) translate(4 116.5)">
<title>list</title>
<polygon fill="white" stroke="transparent" points="-4,4 -4,-116.5 2351.49,-116.5 2351.49,4 -4,4"/>
<!-- node16 -->
<g id="node1" class="node">
<title>node16</title>
<polygon fill="#ebebeb" stroke="transparent" points="2115,-56.17 2115,-77.17 2183,-77.17 2183,-56.17 2115,-56.17"/>
<polygon fill="none" stroke="black" points="2115,-56.17 2115,-77.17 2183,-77.17 2183,-56.17 2115,-56.17"/>
<text text-anchor="start" x="2139.5" y="-62.97" font-family="Times,serif" font-size="14.00">16</text>
<polygon fill="none" stroke="crimson" points="2115,-34.17 2115,-55.17 2140,-55.17 2140,-34.17 2115,-34.17"/>
<text text-anchor="start" x="2118" y="-40.97" font-family="Times,serif" font-size="14.00">15</text>
<polygon fill="lightsalmon" stroke="transparent" points="2141,-34.17 2141,-55.17 2166,-55.17 2166,-34.17 2141,-34.17"/>
<polygon fill="none" stroke="black" points="2141,-34.17 2141,-55.17 2166,-55.17 2166,-34.17 2141,-34.17"/>
<text text-anchor="start" x="2144" y="-40.97" font-family="Times,serif" font-size="14.00">16</text>
<polygon fill="none" stroke="#1c86ee" points="2167,-34.17 2167,-55.17 2183,-55.17 2183,-34.17 2167,-34.17"/>
<text text-anchor="start" x="2170" y="-40.97" font-family="Times,serif" font-size="14.00">0</text>
</g>
<!-- node15 -->
<g id="node2" class="node">
<title>node15</title>
<polygon fill="#ebebeb" stroke="transparent" points="1984.5,-56.17 1984.5,-77.17 2061.5,-77.17 2061.5,-56.17 1984.5,-56.17"/>
<polygon fill="none" stroke="black" points="1984.5,-56.17 1984.5,-77.17 2061.5,-77.17 2061.5,-56.17 1984.5,-56.17"/>
<text text-anchor="start" x="2013.5" y="-62.97" font-family="Times,serif" font-size="14.00">15</text>
<polygon fill="none" stroke="crimson" points="1984.5,-34.17 1984.5,-55.17 2009.5,-55.17 2009.5,-34.17 1984.5,-34.17"/>
<text text-anchor="start" x="1987.5" y="-40.97" font-family="Times,serif" font-size="14.00">14</text>
<polygon fill="lightsalmon" stroke="transparent" points="2010.5,-34.17 2010.5,-55.17 2035.5,-55.17 2035.5,-34.17 2010.5,-34.17"/>
<polygon fill="none" stroke="black" points="2010.5,-34.17 2010.5,-55.17 2035.5,-55.17 2035.5,-34.17 2010.5,-34.17"/>
<text text-anchor="start" x="2013.5" y="-40.97" font-family="Times,serif" font-size="14.00">15</text>
<polygon fill="none" stroke="#1c86ee" points="2036.5,-34.17 2036.5,-55.17 2061.5,-55.17 2061.5,-34.17 2036.5,-34.17"/>
<text text-anchor="start" x="2039.5" y="-40.97" font-family="Times,serif" font-size="14.00">16</text>
</g>
<!-- node16&#45;&gt;node15 -->
<g id="edge1" class="edge">
<title>node16:index&#45;&gt;node15:index</title>
<path fill="none" stroke="crimson" d="M2114,-67.17C2094.87,-67.17 2087.73,-67.17 2072.53,-67.17"/>
<polygon fill="crimson" stroke="crimson" points="2072.5,-63.67 2062.5,-67.17 2072.5,-70.67 2072.5,-63.67"/>
</g>
<!-- node0 -->
<g id="node3" class="node">
<title>node0</title>
<polygon fill="none" stroke="black" points="2287.75,-73.17 2227.75,-55.17 2287.75,-37.17 2347.74,-55.17 2287.75,-73.17"/>
<text text-anchor="middle" x="2287.75" y="-51.47" font-family="Times,serif" font-size="14.00">Fictive</text>
</g>
<!-- node16&#45;&gt;node0 -->
<g id="edge2" class="edge">
<title>node16:next&#45;&gt;node0</title>
<path fill="none" stroke="black" d="M2184,-44.17C2201.53,-44.17 2220.65,-45.77 2237.59,-47.75"/>
<polygon fill="black" stroke="black" points="2237.46,-51.26 2247.82,-49.03 2238.33,-44.32 2237.46,-51.26"/>
</g>
<!-- node15&#45;&gt;node16 -->
<g id="edge4" class="edge">
<title>node15:next&#45;&gt;node16:prev</title>
<path fill="none" stroke="#1c86ee" d="M2062.5,-44.17C2081.63,-44.17 2088.77,-44.17 2103.97,-44.17"/>
<polygon fill="#1c86ee" stroke="#1c86ee" points="2104,-47.67 2114,-44.17 2104,-40.67 2104,-47.67"/>
</g>
<!-- node14 -->
<g id="node4" class="node">
<title>node14</title>
<polygon fill="#ebebeb" stroke="transparent" points="1853.5,-56.17 1853.5,-77.17 1930.5,-77.17 1930.5,-56.17 1853.5,-56.17"/>
<polygon fill="none" stroke="black" points="1853.5,-56.17 1853.5,-77.17 1930.5,-77.17 1930.5,-56.17 1853.5,-56.17"/>
<text text-anchor="start" x="1882.5" y="-62.97" font-family="Times,serif" font-size="14.00">14</text>
<polygon fill="none" stroke="crimson" points="1853.5,-34.17 1853.5,-55.17 1878.5,-55.17 1878.5,-34.17 1853.5,-34.17"/>
<text text-anchor="start" x="1856.5" y="-40.97" font-family="Times,serif" font-size="14.00">13</text>
<polygon fill="lightsalmon" stroke="transparent" points="1879.5,-34.17 1879.5,-55.17 1904.5,-55.17 1904.5,-34.17 1879.5,-34.17"/>
<polygon fill="none" stroke="black" points="1879.5,-34.17 1879.5,-55.17 1904.5,-55.17 1904.5,-34.17 1879.5,-34.17"/>
<text text-anchor="start" x="1882.5" y="-40.97" font-family="Times,serif" font-size="14.00">14</text>
<polygon fill="none" stroke="#1c86ee" points="1905.5,-34.17 1905.5,-55.17 1930.5,-55.17 1930.5,-34.17 1905.5,-34.17"/>
<text text-anchor="start" x="1908.5" y="-40.97" font-family="Times,serif" font-size="14.00">15</text>
</g>
<!-- node15&#45;&gt;node14 -->
<g id="edge3" class="edge">
<title>node15:index&#45;&gt;node14:index</title>
<path fill="none" stroke="crimson" d="M1983.5,-67.17C1964.18,-67.17 1956.97,-67.17 1941.63,-67.17"/>
<polygon fill="crimson" stroke="crimson" points="1941.5,-63.67 1931.5,-67.17 1941.5,-70.67 1941.5,-63.67"/>
</g>
<!-- node0&#45;&gt;node16 -->
<g id="edge39" class="edge">
<title>node0&#45;&gt;node16:index</title>
<path fill="none" stroke="black" d="M2249.29,-61.66C2232.83,-64.06 2212.98,-66.35 2194.07,-66.99"/>
<polygon fill="black" stroke="black" points="2193.94,-63.49 2184,-67.17 2194.06,-70.49 2193.94,-63.49"/>
</g>
<!-- node14&#45;&gt;node15 -->
<g id="edge6" class="edge">
<title>node14:next&#45;&gt;node15:prev</title>
<path fill="none" stroke="#1c86ee" d="M1931.5,-44.17C1950.82,-44.17 1958.03,-44.17 1973.37,-44.17"/>
<polygon fill="#1c86ee" stroke="#1c86ee" points="1973.5,-47.67 1983.5,-44.17 1973.5,-40.67 1973.5,-47.67"/>
</g>
<!-- node13 -->
<g id="node5" class="node">
<title>node13</title>
<polygon fill="#ebebeb" stroke="transparent" points="1722.5,-56.17 1722.5,-77.17 1799.5,-77.17 1799.5,-56.17 1722.5,-56.17"/>
<polygon fill="none" stroke="black" points="1722.5,-56.17 1722.5,-77.17 1799.5,-77.17 1799.5,-56.17 1722.5,-56.17"/>
<text text-anchor="start" x="1751.5" y="-62.97" font-family="Times,serif" font-size="14.00">13</text>
<polygon fill="none" stroke="crimson" points="1722.5,-34.17 1722.5,-55.17 1747.5,-55.17 1747.5,-34.17 1722.5,-34.17"/>
<text text-anchor="start" x="1725.5" y="-40.97" font-family="Times,serif" font-size="14.00">12</text>
<polygon fill="lightsalmon" stroke="transparent" points="1748.5,-34.17 1748.5,-55.17 1773.5,-55.17 1773.5,-34.17 1748.5,-34.17"/>
<polygon fill="none" stroke="black" points="1748.5,-34.17 1748.5,-55.17 1773.5,-55.17 1773.5,-34.17 1748.5,-34.17"/>
<text text-anchor="start" x="1751.5" y="-40.97" font-family="Times,serif" font-size="14.00">13</text>
<polygon fill="none" stroke="#1c86ee" points="1774.5,-34.17 1774.5,-55.17 1799.5,-55.17 1799.5,-34.17 1774.5,-34.17"/>
<text text-anchor="start" x="1777.5" y="-40.97" font-family="Times,serif" font-size="14.00">14</text>
</g>
<!-- node14&#45;&gt;node13 -->
<g id="edge5" class="edge">
<title>node14:index&#45;&gt;node13:index</title>
<path fill="none" stroke="crimson" d="M1852.5,-67.17C1833.18,-67.17 1825.97,-67.17 1810.63,-67.17"/>
<polygon fill="crimson" stroke="crimson" points="1810.5,-63.67 1800.5,-67.17 1810.5,-70.67 1810.5,-63.67"/>
</g>
<!-- node13&#45;&gt;node14 -->
<g id="edge8" class="edge">
<title>node13:next&#45;&gt;node14:prev</title>
<path fill="none" stroke="#1c86ee" d="M1800.5,-44.17C1819.82,-44.17 1827.03,-44.17 1842.37,-44.17"/>
<polygon fill="#1c86ee" stroke="#1c86ee" points="1842.5,-47.67 1852.5,-44.17 1842.5,-40.67 1842.5,-47.67"/>
</g>
<!-- node12 -->
<g id="node6" class="node">
<title>node12</title>
<polygon fill="#ebebeb" stroke="transparent" points="1591.5,-56.17 1591.5,-77.17 1668.5,-77.17 1668.5,-56.17 1591.5,-56.17"/>
<polygon fill="none" stroke="black" points="1591.5,-56.17 1591.5,-77.17 1668.5,-77.17 1668.5,-56.17 1591.5,-56.17"/>
<text text-anchor="start" x="1620.5" y="-62.97" font-family="Times,serif" font-size="14.00">12</text>
<polygon fill="none" stroke="crimson" points="1591.5,-34.17 1591.5,-55.17 1616.5,-55.17 1616.5,-34.17 1591.5,-34.17"/>
<text text-anchor="start" x="1594.5" y="-40.97" font-family="Times,serif" font-size="14.00">11</text>
<polygon fill="lightsalmon" stroke="transparent" points="1617.5,-34.17 1617.5,-55.17 1642.5,-55.17 1642.5,-34.17 1617.5,-34.17"/>
<polygon fill="none" stroke="black" points="1617.5,-34.17 1617.5,-55.17 1642.5,-55.17 1642.5,-34.17 1617.5,-34.17"/>
<text text-anchor="start" x="1620.5" y="-40.97" font-family="Times,serif" font-size="14.00">12</text>
<polygon fill="none" stroke="#1c86ee" points="1643.5,-34.17 1643.5,-55.17 1668.5,-55.17 1668.5,-34.17 1643.5,-34.17"/>
<text text-anchor="start" x="1646.5" y="-40.97" font-family="Times,serif" font-size="14.00">13</text>
</g>
<!-- node13&#45;&gt;node12 -->
<g id="edge7" class="edge">
<title>node13:index&#45;&gt;node12:index</title>
<path fill="none" stroke="crimson" d="M1721.5,-67.17C1702.18,-67.17 1694.97,-67.17 1679.63,-67.17"/>
<polygon fill="crimson" stroke="crimson" points="1679.5,-63.67 1669.5,-67.17 1679.5,-70.67 1679.5,-63.67"/>
</g>
<!-- node12&#45;&gt;node13 -->
<g id="edge10" class="edge">
<title>node12:next&#45;&gt;node13:prev</title>
<path fill="none" stroke="#1c86ee" d="M1669.5,-44.17C1688.82,-44.17 1696.03,-44.17 1711.37,-44.17"/>
<polygon fill="#1c86ee" stroke="#1c86ee" points="1711.5,-47.67 1721.5,-44.17 1711.5,-40.67 1711.5,-47.67"/>
</g>
<!-- node11 -->
<g id="node7" class="node">
<title>node11</title>
<polygon fill="#ebebeb" stroke="transparent" points="1469,-56.17 1469,-77.17 1537,-77.17 1537,-56.17 1469,-56.17"/>
<polygon fill="none" stroke="black" points="1469,-56.17 1469,-77.17 1537,-77.17 1537,-56.17 1469,-56.17"/>
<text text-anchor="start" x="1493.5" y="-62.97" font-family="Times,serif" font-size="14.00">11</text>
<polygon fill="none" stroke="crimson" points="1469,-34.17 1469,-55.17 1485,-55.17 1485,-34.17 1469,-34.17"/>
<text text-anchor="start" x="1472" y="-40.97" font-family="Times,serif" font-size="14.00">9</text>
<polygon fill="lightsalmon" stroke="transparent" points="1486,-34.17 1486,-55.17 1511,-55.17 1511,-34.17 1486,-34.17"/>
<polygon fill="none" stroke="black" points="1486,-34.17 1486,-55.17 1511,-55.17 1511,-34.17 1486,-34.17"/>
<text text-anchor="start" x="1489" y="-40.97" font-family="Times,serif" font-size="14.00">11</text>
<polygon fill="none" stroke="#1c86ee" points="1512,-34.17 1512,-55.17 1537,-55.17 1537,-34.17 1512,-34.17"/>
<text text-anchor="start" x="1515" y="-40.97" font-family="Times,serif" font-size="14.00">12</text>
</g>
<!-- node12&#45;&gt;node11 -->
<g id="edge9" class="edge">
<title>node12:index&#45;&gt;node11:index</title>
<path fill="none" stroke="crimson" d="M1590.5,-67.17C1570.99,-67.17 1563.72,-67.17 1548.23,-67.17"/>
<polygon fill="crimson" stroke="crimson" points="1548,-63.67 1538,-67.17 1548,-70.67 1548,-63.67"/>
</g>
<!-- node11&#45;&gt;node12 -->
<g id="edge12" class="edge">
<title>node11:next&#45;&gt;node12:prev</title>
<path fill="none" stroke="#1c86ee" d="M1538,-44.17C1557.51,-44.17 1564.78,-44.17 1580.27,-44.17"/>
<polygon fill="#1c86ee" stroke="#1c86ee" points="1580.5,-47.67 1590.5,-44.17 1580.5,-40.67 1580.5,-47.67"/>
</g>
<!-- node9 -->
<g id="node8" class="node">
<title>node9</title>
<polygon fill="#ebebeb" stroke="transparent" points="1356.5,-56.17 1356.5,-77.17 1415.5,-77.17 1415.5,-56.17 1356.5,-56.17"/>
<polygon fill="none" stroke="black" points="1356.5,-56.17 1356.5,-77.17 1415.5,-77.17 1415.5,-56.17 1356.5,-56.17"/>
<text text-anchor="start" x="1381" y="-62.97" font-family="Times,serif" font-size="14.00">9</text>
<polygon fill="none" stroke="crimson" points="1356.5,-34.17 1356.5,-55.17 1372.5,-55.17 1372.5,-34.17 1356.5,-34.17"/>
<text text-anchor="start" x="1359.5" y="-40.97" font-family="Times,serif" font-size="14.00">7</text>
<polygon fill="lightsalmon" stroke="transparent" points="1373.5,-34.17 1373.5,-55.17 1389.5,-55.17 1389.5,-34.17 1373.5,-34.17"/>
<polygon fill="none" stroke="black" points="1373.5,-34.17 1373.5,-55.17 1389.5,-55.17 1389.5,-34.17 1373.5,-34.17"/>
<text text-anchor="start" x="1376.5" y="-40.97" font-family="Times,serif" font-size="14.00">9</text>
<polygon fill="none" stroke="#1c86ee" points="1390.5,-34.17 1390.5,-55.17 1415.5,-55.17 1415.5,-34.17 1390.5,-34.17"/>
<text text-anchor="start" x="1393.5" y="-40.97" font-family="Times,serif" font-size="14.00">11</text>
</g>
<!-- node11&#45;&gt;node9 -->
<g id="edge11" class="edge">
<title>node11:index&#45;&gt;node9:index</title>
<path fill="none" stroke="crimson" d="M1468,-67.17C1448.87,-67.17 1441.73,-67.17 1426.53,-67.17"/>
<polygon fill="crimson" stroke="crimson" points="1426.5,-63.67 1416.5,-67.17 1426.5,-70.67 1426.5,-63.67"/>
</g>
<!-- node9&#45;&gt;node11 -->
<g id="edge14" class="edge">
<title>node9:next&#45;&gt;node11:prev</title>
<path fill="none" stroke="#1c86ee" d="M1416.5,-44.17C1435.63,-44.17 1442.77,-44.17 1457.97,-44.17"/>
<polygon fill="#1c86ee" stroke="#1c86ee" points="1458,-47.67 1468,-44.17 1458,-40.67 1458,-47.67"/>
</g>
<!-- node7 -->
<g id="node9" class="node">
<title>node7</title>
<polygon fill="#ebebeb" stroke="transparent" points="1252,-56.17 1252,-77.17 1302,-77.17 1302,-56.17 1252,-56.17"/>
<polygon fill="none" stroke="black" points="1252,-56.17 1252,-77.17 1302,-77.17 1302,-56.17 1252,-56.17"/>
<text text-anchor="start" x="1272" y="-62.97" font-family="Times,serif" font-size="14.00">7</text>
<polygon fill="none" stroke="crimson" points="1252,-34.17 1252,-55.17 1268,-55.17 1268,-34.17 1252,-34.17"/>
<text text-anchor="start" x="1255" y="-40.97" font-family="Times,serif" font-size="14.00">6</text>
<polygon fill="lightsalmon" stroke="transparent" points="1269,-34.17 1269,-55.17 1285,-55.17 1285,-34.17 1269,-34.17"/>
<polygon fill="none" stroke="black" points="1269,-34.17 1269,-55.17 1285,-55.17 1285,-34.17 1269,-34.17"/>
<text text-anchor="start" x="1272" y="-40.97" font-family="Times,serif" font-size="14.00">7</text>
<polygon fill="none" stroke="#1c86ee" points="1286,-34.17 1286,-55.17 1302,-55.17 1302,-34.17 1286,-34.17"/>
<text text-anchor="start" x="1289" y="-40.97" font-family="Times,serif" font-size="14.00">9</text>
</g>
<!-- node9&#45;&gt;node7 -->
<g id="edge13" class="edge">
<title>node9:index&#45;&gt;node7:index</title>
<path fill="none" stroke="crimson" d="M1355.5,-67.17C1335.99,-67.17 1328.72,-67.17 1313.23,-67.17"/>
<polygon fill="crimson" stroke="crimson" points="1313,-63.67 1303,-67.17 1313,-70.67 1313,-63.67"/>
</g>
<!-- node7&#45;&gt;node9 -->
<g id="edge16" class="edge">
<title>node7:next&#45;&gt;node9:prev</title>
<path fill="none" stroke="#1c86ee" d="M1303,-44.17C1322.51,-44.17 1329.78,-44.17 1345.27,-44.17"/>
<polygon fill="#1c86ee" stroke="#1c86ee" points="1345.5,-47.67 1355.5,-44.17 1345.5,-40.67 1345.5,-47.67"/>
</g>
<!-- node6 -->
<g id="node10" class="node">
<title>node6</title>
<polygon fill="#ebebeb" stroke="transparent" points="1148,-56.17 1148,-77.17 1198,-77.17 1198,-56.17 1148,-56.17"/>
<polygon fill="none" stroke="black" points="1148,-56.17 1148,-77.17 1198,-77.17 1198,-56.17 1148,-56.17"/>
<text text-anchor="start" x="1168" y="-62.97" font-family="Times,serif" font-size="14.00">6</text>
<polygon fill="none" stroke="crimson" points="1148,-34.17 1148,-55.17 1164,-55.17 1164,-34.17 1148,-34.17"/>
<text text-anchor="start" x="1151" y="-40.97" font-family="Times,serif" font-size="14.00">5</text>
<polygon fill="lightsalmon" stroke="transparent" points="1165,-34.17 1165,-55.17 1181,-55.17 1181,-34.17 1165,-34.17"/>
<polygon fill="none" stroke="black" points="1165,-34.17 1165,-55.17 1181,-55.17 1181,-34.17 1165,-34.17"/>
<text text-anchor="start" x="1168" y="-40.97" font-family="Times,serif" font-size="14.00">6</text>
<polygon fill="none" stroke="#1c86ee" points="1182,-34.17 1182,-55.17 1198,-55.17 1198,-34.17 1182,-34.17"/>
<text text-anchor="start" x="1185" y="-40.97" font-family="Times,serif" font-size="14.00">7</text>
</g>
<!-- node7&#45;&gt;node6 -->
<g id="edge15" class="edge">
<title>node7:index&#45;&gt;node6:index</title>
<path fill="none" stroke="crimson" d="M1251,-67.17C1231.68,-67.17 1224.47,-67.17 1209.13,-67.17"/>
<polygon fill="crimson" stroke="crimson" points="1209,-63.67 1199,-67.17 1209,-70.67 1209,-63.67"/>
</g>
<!-- node6&#45;&gt;node7 -->
<g id="edge18" class="edge">
<title>node6:next&#45;&gt;node7:prev</title>
<path fill="none" stroke="#1c86ee" d="M1199,-44.17C1218.32,-44.17 1225.53,-44.17 1240.87,-44.17"/>
<polygon fill="#1c86ee" stroke="#1c86ee" points="1241,-47.67 1251,-44.17 1241,-40.67 1241,-47.67"/>
</g>
<!-- node5 -->
<g id="node11" class="node">
<title>node5</title>
<polygon fill="#ebebeb" stroke="transparent" points="1044,-56.17 1044,-77.17 1094,-77.17 1094,-56.17 1044,-56.17"/>
<polygon fill="none" stroke="black" points="1044,-56.17 1044,-77.17 1094,-77.17 1094,-56.17 1044,-56.17"/>
<text text-anchor="start" x="1064" y="-62.97" font-family="Times,serif" font-size="14.00">5</text>
<polygon fill="none" stroke="crimson" points="1044,-34.17 1044,-55.17 1060,-55.17 1060,-34.17 1044,-34.17"/>
<text text-anchor="start" x="1047" y="-40.97" font-family="Times,serif" font-size="14.00">4</text>
<polygon fill="lightsalmon" stroke="transparent" points="1061,-34.17 1061,-55.17 1077,-55.17 1077,-34.17 1061,-34.17"/>
<polygon fill="none" stroke="black" points="1061,-34.17 1061,-55.17 1077,-55.17 1077,-34.17 1061,-34.17"/>
<text text-anchor="start" x="1064" y="-40.97" font-family="Times,serif" font-size="14.00">5</text>
<polygon fill="none" stroke="#1c86ee" points="1078,-34.17 1078,-55.17 1094,-55.17 1094,-34.17 1078,-34.17"/>
<text text-anchor="start" x="1081" y="-40.97" font-family="Times,serif" font-size="14.00">6</text>
</g>
<!-- node6&#45;&gt;node5 -->
<g id="edge17" class="edge">
<title>node6:index&#45;&gt;node5:index</title>
<path fill="none" stroke="crimson" d="M1147,-67.17C1127.68,-67.17 1120.47,-67.17 1105.13,-67.17"/>
<polygon fill="crimson" stroke="crimson" points="1105,-63.67 1095,-67.17 1105,-70.67 1105,-63.67"/>
</g>
<!-- node5&#45;&gt;node6 -->
<g id="edge20" class="edge">
<title>node5:next&#45;&gt;node6:prev</title>
<path fill="none" stroke="#1c86ee" d="M1095,-44.17C1114.32,-44.17 1121.53,-44.17 1136.87,-44.17"/>
<polygon fill="#1c86ee" stroke="#1c86ee" points="1137,-47.67 1147,-44.17 1137,-40.67 1137,-47.67"/>
</g>
<!-- node4 -->
<g id="node12" class="node">
<title>node4</title>
<polygon fill="#ebebeb" stroke="transparent" points="940,-56.17 940,-77.17 990,-77.17 990,-56.17 940,-56.17"/>
<polygon fill="none" stroke="black" points="940,-56.17 940,-77.17 990,-77.17 990,-56.17 940,-56.17"/>
<text text-anchor="start" x="960" y="-62.97" font-family="Times,serif" font-size="14.00">4</text>
<polygon fill="none" stroke="crimson" points="940,-34.17 940,-55.17 956,-55.17 956,-34.17 940,-34.17"/>
<text text-anchor="start" x="943" y="-40.97" font-family="Times,serif" font-size="14.00">3</text>
<polygon fill="lightsalmon" stroke="transparent" points="957,-34.17 957,-55.17 973,-55.17 973,-34.17 957,-34.17"/>
<polygon fill="none" stroke="black" points="957,-34.17 957,-55.17 973,-55.17 973,-34.17 957,-34.17"/>
<text text-anchor="start" x="960" y="-40.97" font-family="Times,serif" font-size="14.00">4</text>
<polygon fill="none" stroke="#1c86ee" points="974,-34.17 974,-55.17 990,-55.17 990,-34.17 974,-34.17"/>
<text text-anchor="start" x="977" y="-40.97" font-family="Times,serif" font-size="14.00">5</text>
</g>
<!-- node5&#45;&gt;node4 -->
<g id="edge19" class="edge">
<title>node5:index&#45;&gt;node4:index</title>
<path fill="none" stroke="crimson" d="M1043,-67.17C1023.68,-67.17 1016.47,-67.17 1001.13,-67.17"/>
<polygon fill="crimson" stroke="crimson" points="1001,-63.67 991,-67.17 1001,-70.67 1001,-63.67"/>
</g>
<!-- node4&#45;&gt;node5 -->
<g id="edge22" class="edge">
<title>node4:next&#45;&gt;node5:prev</title>
<path fill="none" stroke="#1c86ee" d="M991,-44.17C1010.32,-44.17 1017.53,-44.17 1032.87,-44.17"/>
<polygon fill="#1c86ee" stroke="#1c86ee" points="1033,-47.67 1043,-44.17 1033,-40.67 1033,-47.67"/>
</g>
<!-- node3 -->
<g id="node13" class="node">
<title>node3</title>
<polygon fill="#ebebeb" stroke="transparent" points="836,-56.17 836,-77.17 886,-77.17 886,-56.17 836,-56.17"/>
<polygon fill="none" stroke="black" points="836,-56.17 836,-77.17 886,-77.17 886,-56.17 836,-56.17"/>
<text text-anchor="start" x="856" y="-62.97" font-family="Times,serif" font-size="14.00">3</text>
<polygon fill="none" stroke="crimson" points="836,-34.17 836,-55.17 852,-55.17 852,-34.17 836,-34.17"/>
<text text-anchor="start" x="839" y="-40.97" font-family="Times,serif" font-size="14.00">2</text>
<polygon fill="lightsalmon" stroke="transparent" points="853,-34.17 853,-55.17 869,-55.17 869,-34.17 853,-34.17"/>
<polygon fill="none" stroke="black" points="853,-34.17 853,-55.17 869,-55.17 869,-34.17 853,-34.17"/>
<text text-anchor="start" x="856" y="-40.97" font-family="Times,serif" font-size="14.00">3</text>
<polygon fill="none" stroke="#1c86ee" points="870,-34.17 870,-55.17 886,-55.17 886,-34.17 870,-34.17"/>
<text text-anchor="start" x="873" y="-40.97" font-family="Times,serif" font-size="14.00">4</text>
</g>
<!-- node4&#45;&gt;node3 -->
<g id="edge21" class="edge">
<title>node4:index&#45;&gt;node3:index</title>
<path fill="none" stroke="crimson" d="M939,-67.17C919.68,-67.17 912.47,-67.17 897.13,-67.17"/>
<polygon fill="crimson" stroke="crimson" points="897,-63.67 887,-67.17 897,-70.67 897,-63.67"/>
</g>
<!-- node3&#45;&gt;node4 -->
<g id="edge24" class="edge">
<title>node3:next&#45;&gt;node4:prev</title>
<path fill="none" stroke="#1c86ee" d="M887,-44.17C906.32,-44.17 913.53,-44.17 928.87,-44.17"/>
<polygon fill="#1c86ee" stroke="#1c86ee" points="929,-47.67 939,-44.17 929,-40.67 929,-47.67"/>
</g>
<!-- node2 -->
<g id="node14" class="node">
<title>node2</title>
<polygon fill="#ebebeb" stroke="transparent" points="732,-56.17 732,-77.17 782,-77.17 782,-56.17 732,-56.17"/>
<polygon fill="none" stroke="black" points="732,-56.17 732,-77.17 782,-77.17 782,-56.17 732,-56.17"/>
<text text-anchor="start" x="752" y="-62.97" font-family="Times,serif" font-size="14.00">2</text>
<polygon fill="none" stroke="crimson" points="732,-34.17 732,-55.17 748,-55.17 748,-34.17 732,-34.17"/>
<text text-anchor="start" x="735" y="-40.97" font-family="Times,serif" font-size="14.00">1</text>
<polygon fill="lightsalmon" stroke="transparent" points="749,-34.17 749,-55.17 765,-55.17 765,-34.17 749,-34.17"/>
<polygon fill="none" stroke="black" points="749,-34.17 749,-55.17 765,-55.17 765,-34.17 749,-34.17"/>
<text text-anchor="start" x="752" y="-40.97" font-family="Times,serif" font-size="14.00">2</text>
<polygon fill="none" stroke="#1c86ee" points="766,-34.17 766,-55.17 782,-55.17 782,-34.17 766,-34.17"/>
<text text-anchor="start" x="769" y="-40.97" font-family="Times,serif" font-size="14.00">3</text>
</g>
<!-- node3&#45;&gt;node2 -->
<g id="edge23" class="edge">
<title>node3:index&#45;&gt;node2:index</title>
<path fill="none" stroke="crimson" d="M835,-67.17C815.68,-67.17 808.47,-67.17 793.13,-67.17"/>
<polygon fill="crimson" stroke="crimson" points="793,-63.67 783,-67.17 793,-70.67 793,-63.67"/>
</g>
<!-- node2&#45;&gt;node3 -->
<g id="edge26" class="edge">
<title>node2:next&#45;&gt;node3:prev</title>
<path fill="none" stroke="#1c86ee" d="M783,-44.17C802.32,-44.17 809.53,-44.17 824.87,-44.17"/>
<polygon fill="#1c86ee" stroke="#1c86ee" points="825,-47.67 835,-44.17 825,-40.67 825,-47.67"/>
</g>
<!-- node1 -->
<g id="node15" class="node">
<title>node1</title>
<polygon fill="#ebebeb" stroke="transparent" points="628,-56.17 628,-77.17 678,-77.17 678,-56.17 628,-56.17"/>
<polygon fill="none" stroke="black" points="628,-56.17 628,-77.17 678,-77.17 678,-56.17 628,-56.17"/>
<text text-anchor="start" x="648" y="-62.97" font-family="Times,serif" font-size="14.00">1</text>
<polygon fill="none" stroke="crimson" points="628,-34.17 628,-55.17 644,-55.17 644,-34.17 628,-34.17"/>
<text text-anchor="start" x="631" y="-40.97" font-family="Times,serif" font-size="14.00">8</text>
<polygon fill="lightsalmon" stroke="transparent" points="645,-34.17 645,-55.17 661,-55.17 661,-34.17 645,-34.17"/>
<polygon fill="none" stroke="black" points="645,-34.17 645,-55.17 661,-55.17 661,-34.17 645,-34.17"/>
<text text-anchor="start" x="648" y="-40.97" font-family="Times,serif" font-size="14.00">1</text>
<polygon fill="none" stroke="#1c86ee" points="662,-34.17 662,-55.17 678,-55.17 678,-34.17 662,-34.17"/>
<text text-anchor="start" x="665" y="-40.97" font-family="Times,serif" font-size="14.00">2</text>
</g>
<!-- node2&#45;&gt;node1 -->
<g id="edge25" class="edge">
<title>node2:index&#45;&gt;node1:index</title>
<path fill="none" stroke="crimson" d="M731,-67.17C711.68,-67.17 704.47,-67.17 689.13,-67.17"/>
<polygon fill="crimson" stroke="crimson" points="689,-63.67 679,-67.17 689,-70.67 689,-63.67"/>
</g>
<!-- node1&#45;&gt;node2 -->
<g id="edge28" class="edge">
<title>node1:next&#45;&gt;node2:prev</title>
<path fill="none" stroke="#1c86ee" d="M679,-44.17C698.32,-44.17 705.53,-44.17 720.87,-44.17"/>
<polygon fill="#1c86ee" stroke="#1c86ee" points="721,-47.67 731,-44.17 721,-40.67 721,-47.67"/>
</g>
<!-- node8 -->
<g id="node16" class="node">
<title>node8</title>
<polygon fill="#ebebeb" stroke="transparent" points="515.5,-56.17 515.5,-77.17 574.5,-77.17 574.5,-56.17 515.5,-56.17"/>
<polygon fill="none" stroke="black" points="515.5,-56.17 515.5,-77.17 574.5,-77.17 574.5,-56.17 515.5,-56.17"/>
<text text-anchor="start" x="540" y="-62.97" font-family="Times,serif" font-size="14.00">8</text>
<polygon fill="none" stroke="crimson" points="515.5,-34.17 515.5,-55.17 540.5,-55.17 540.5,-34.17 515.5,-34.17"/>
<text text-anchor="start" x="518.5" y="-40.97" font-family="Times,serif" font-size="14.00">10</text>
<polygon fill="lightsalmon" stroke="transparent" points="541.5,-34.17 541.5,-55.17 557.5,-55.17 557.5,-34.17 541.5,-34.17"/>
<polygon fill="none" stroke="black" points="541.5,-34.17 541.5,-55.17 557.5,-55.17 557.5,-34.17 541.5,-34.17"/>
<text text-anchor="start" x="544.5" y="-40.97" font-family="Times,serif" font-size="14.00">8</text>
<polygon fill="none" stroke="#1c86ee" points="558.5,-34.17 558.5,-55.17 574.5,-55.17 574.5,-34.17 558.5,-34.17"/>
<text text-anchor="start" x="561.5" y="-40.97" font-family="Times,serif" font-size="14.00">1</text>
</g>
<!-- node1&#45;&gt;node8 -->
<g id="edge27" class="edge">
<title>node1:index&#45;&gt;node8:index</title>
<path fill="none" stroke="crimson" d="M627,-67.17C607.87,-67.17 600.73,-67.17 585.53,-67.17"/>
<polygon fill="crimson" stroke="crimson" points="585.5,-63.67 575.5,-67.17 585.5,-70.67 585.5,-63.67"/>
</g>
<!-- node8&#45;&gt;node1 -->
<g id="edge30" class="edge">
<title>node8:next&#45;&gt;node1:prev</title>
<path fill="none" stroke="#1c86ee" d="M575.5,-44.17C594.63,-44.17 601.77,-44.17 616.97,-44.17"/>
<polygon fill="#1c86ee" stroke="#1c86ee" points="617,-47.67 627,-44.17 617,-40.67 617,-47.67"/>
</g>
<!-- node10 -->
<g id="node17" class="node">
<title>node10</title>
<polygon fill="#ebebeb" stroke="transparent" points="393,-56.17 393,-77.17 461,-77.17 461,-56.17 393,-56.17"/>
<polygon fill="none" stroke="black" points="393,-56.17 393,-77.17 461,-77.17 461,-56.17 393,-56.17"/>
<text text-anchor="start" x="417.5" y="-62.97" font-family="Times,serif" font-size="14.00">10</text>
<polygon fill="none" stroke="crimson" points="393,-34.17 393,-55.17 418,-55.17 418,-34.17 393,-34.17"/>
<text text-anchor="start" x="396" y="-40.97" font-family="Times,serif" font-size="14.00">17</text>
<polygon fill="lightsalmon" stroke="transparent" points="419,-34.17 419,-55.17 444,-55.17 444,-34.17 419,-34.17"/>
<polygon fill="none" stroke="black" points="419,-34.17 419,-55.17 444,-55.17 444,-34.17 419,-34.17"/>
<text text-anchor="start" x="422" y="-40.97" font-family="Times,serif" font-size="14.00">10</text>
<polygon fill="none" stroke="#1c86ee" points="445,-34.17 445,-55.17 461,-55.17 461,-34.17 445,-34.17"/>
<text text-anchor="start" x="448" y="-40.97" font-family="Times,serif" font-size="14.00">8</text>
</g>
<!-- node8&#45;&gt;node10 -->
<g id="edge29" class="edge">
<title>node8:index&#45;&gt;node10:index</title>
<path fill="none" stroke="crimson" d="M514.5,-67.17C494.99,-67.17 487.72,-67.17 472.23,-67.17"/>
<polygon fill="crimson" stroke="crimson" points="472,-63.67 462,-67.17 472,-70.67 472,-63.67"/>
</g>
<!-- node10&#45;&gt;node8 -->
<g id="edge32" class="edge">
<title>node10:next&#45;&gt;node8:prev</title>
<path fill="none" stroke="#1c86ee" d="M462,-44.17C481.51,-44.17 488.78,-44.17 504.27,-44.17"/>
<polygon fill="#1c86ee" stroke="#1c86ee" points="504.5,-47.67 514.5,-44.17 504.5,-40.67 504.5,-47.67"/>
</g>
<!-- node17 -->
<g id="node18" class="node">
<title>node17</title>
<polygon fill="#ebebeb" stroke="transparent" points="262.5,-56.17 262.5,-77.17 339.5,-77.17 339.5,-56.17 262.5,-56.17"/>
<polygon fill="none" stroke="black" points="262.5,-56.17 262.5,-77.17 339.5,-77.17 339.5,-56.17 262.5,-56.17"/>
<text text-anchor="start" x="291.5" y="-62.97" font-family="Times,serif" font-size="14.00">17</text>
<polygon fill="none" stroke="crimson" points="262.5,-34.17 262.5,-55.17 287.5,-55.17 287.5,-34.17 262.5,-34.17"/>
<text text-anchor="start" x="265.5" y="-40.97" font-family="Times,serif" font-size="14.00">18</text>
<polygon fill="lightsalmon" stroke="transparent" points="288.5,-34.17 288.5,-55.17 313.5,-55.17 313.5,-34.17 288.5,-34.17"/>
<polygon fill="none" stroke="black" points="288.5,-34.17 288.5,-55.17 313.5,-55.17 313.5,-34.17 288.5,-34.17"/>
<text text-anchor="start" x="291.5" y="-40.97" font-family="Times,serif" font-size="14.00">17</text>
<polygon fill="none" stroke="#1c86ee" points="314.5,-34.17 314.5,-55.17 339.5,-55.17 339.5,-34.17 314.5,-34.17"/>
<text text-anchor="start" x="317.5" y="-40.97" font-family="Times,serif" font-size="14.00">10</text>
</g>
<!-- node10&#45;&gt;node17 -->
<g id="edge31" class="edge">
<title>node10:index&#45;&gt;node17:index</title>
<path fill="none" stroke="crimson" d="M392,-67.17C372.87,-67.17 365.73,-67.17 350.53,-67.17"/>
<polygon fill="crimson" stroke="crimson" points="350.5,-63.67 340.5,-67.17 350.5,-70.67 350.5,-63.67"/>
</g>
<!-- node17&#45;&gt;node10 -->
<g id="edge34" class="edge">
<title>node17:next&#45;&gt;node10:prev</title>
<path fill="none" stroke="#1c86ee" d="M340.5,-44.17C359.63,-44.17 366.77,-44.17 381.97,-44.17"/>
<polygon fill="#1c86ee" stroke="#1c86ee" points="382,-47.67 392,-44.17 382,-40.67 382,-47.67"/>
</g>
<!-- node18 -->
<g id="node19" class="node">
<title>node18</title>
<polygon fill="#ebebeb" stroke="transparent" points="131.5,-56.17 131.5,-77.17 208.5,-77.17 208.5,-56.17 131.5,-56.17"/>
<polygon fill="none" stroke="black" points="131.5,-56.17 131.5,-77.17 208.5,-77.17 208.5,-56.17 131.5,-56.17"/>
<text text-anchor="start" x="160.5" y="-62.97" font-family="Times,serif" font-size="14.00">18</text>
<polygon fill="none" stroke="crimson" points="131.5,-34.17 131.5,-55.17 156.5,-55.17 156.5,-34.17 131.5,-34.17"/>
<text text-anchor="start" x="134.5" y="-40.97" font-family="Times,serif" font-size="14.00">19</text>
<polygon fill="lightsalmon" stroke="transparent" points="157.5,-34.17 157.5,-55.17 182.5,-55.17 182.5,-34.17 157.5,-34.17"/>
<polygon fill="none" stroke="black" points="157.5,-34.17 157.5,-55.17 182.5,-55.17 182.5,-34.17 157.5,-34.17"/>
<text text-anchor="start" x="160.5" y="-40.97" font-family="Times,serif" font-size="14.00">18</text>
<polygon fill="none" stroke="#1c86ee" points="183.5,-34.17 183.5,-55.17 208.5,-55.17 208.5,-34.17 183.5,-34.17"/>
<text text-anchor="start" x="186.5" y="-40.97" font-family="Times,serif" font-size="14.00">17</text>
</g>
<!-- node17&#45;&gt;node18 -->
<g id="edge33" class="edge">
<title>node17:index&#45;&gt;node18:index</title>
<path fill="none" stroke="crimson" d="M261.5,-67.17C242.18,-67.17 234.97,-67.17 219.63,-67.17"/>
<polygon fill="crimson" stroke="crimson" points="219.5,-63.67 209.5,-67.17 219.5,-70.67 219.5,-63.67"/>
</g>
<!-- node18&#45;&gt;node17 -->
<g id="edge36" class="edge">
<title>node18:next&#45;&gt;node17:prev</title>
<path fill="none" stroke="#1c86ee" d="M209.5,-44.17C228.82,-44.17 236.03,-44.17 251.37,-44.17"/>
<polygon fill="#1c86ee" stroke="#1c86ee" points="251.5,-47.67 261.5,-44.17 251.5,-40.67 251.5,-47.67"/>
</g>
<!-- node19 -->
<g id="node20" class="node">
<title>node19</title>
<polygon fill="#ebebeb" stroke="transparent" points="9,-56.17 9,-77.17 77,-77.17 77,-56.17 9,-56.17"/>
<polygon fill="none" stroke="black" points="9,-56.17 9,-77.17 77,-77.17 77,-56.17 9,-56.17"/>
<text text-anchor="start" x="33.5" y="-62.97" font-family="Times,serif" font-size="14.00">19</text>
<polygon fill="none" stroke="crimson" points="9,-34.17 9,-55.17 25,-55.17 25,-34.17 9,-34.17"/>
<text text-anchor="start" x="12" y="-40.97" font-family="Times,serif" font-size="14.00">0</text>
<polygon fill="lightsalmon" stroke="transparent" points="26,-34.17 26,-55.17 51,-55.17 51,-34.17 26,-34.17"/>
<polygon fill="none" stroke="black" points="26,-34.17 26,-55.17 51,-55.17 51,-34.17 26,-34.17"/>
<text text-anchor="start" x="29" y="-40.97" font-family="Times,serif" font-size="14.00">19</text>
<polygon fill="none" stroke="#1c86ee" points="52,-34.17 52,-55.17 77,-55.17 77,-34.17 52,-34.17"/>
<text text-anchor="start" x="55" y="-40.97" font-family="Times,serif" font-size="14.00">18</text>
</g>
<!-- node18&#45;&gt;node19 -->
<g id="edge35" class="edge">
<title>node18:index&#45;&gt;node19:index</title>
<path fill="none" stroke="crimson" d="M130.5,-67.17C110.99,-67.17 103.72,-67.17 88.23,-67.17"/>
<polygon fill="crimson" stroke="crimson" points="88,-63.67 78,-67.17 88,-70.67 88,-63.67"/>
</g>
<!-- node19&#45;&gt;node0 -->
<g id="edge37" class="edge">
<title>node19:index&#45;&gt;node0</title>
<path fill="none" stroke="black" d="M78,-67.17C100.49,-67.17 100.59,-85.27 122,-92.17 197.52,-116.5 220.16,-111.17 299.5,-111.17 299.5,-111.17 299.5,-111.17 2023.5,-111.17 2098.86,-111.17 2118.84,-110.25 2192,-92.17 2213.26,-86.91 2236.16,-78.06 2254.12,-70.34"/>
<polygon fill="black" stroke="black" points="2255.8,-73.42 2263.55,-66.19 2252.99,-67.01 2255.8,-73.42"/>
</g>
<!-- node19&#45;&gt;node0 -->
<g id="edge40" class="edge">
<title>node19:next&#45;&gt;node0</title>
<path fill="none" stroke="black" d="M78,-44.17C100.28,-44.17 100.74,-26.81 122,-20.17 197.73,3.5 220.16,-1.17 299.5,-1.17 299.5,-1.17 299.5,-1.17 2023.5,-1.17 2098.86,-1.17 2118.67,-2.76 2192,-20.17 2212.87,-25.12 2235.43,-33.34 2253.3,-40.56"/>
<polygon fill="black" stroke="black" points="2252.13,-43.86 2262.71,-44.45 2254.8,-37.39 2252.13,-43.86"/>
</g>
<!-- node19&#45;&gt;node18 -->
<g id="edge38" class="edge">
<title>node19:next&#45;&gt;node18:prev</title>
<path fill="none" stroke="#1c86ee" d="M78,-44.17C97.51,-44.17 104.78,-44.17 120.27,-44.17"/>
<polygon fill="#1c86ee" stroke="#1c86ee" points="120.5,-47.67 130.5,-44.17 120.5,-40.67 120.5,-47.67"/>
</g>
</g>
</svg>
