<?xml version="1.0" encoding="UTF-8" standalone="no"?>
<!DOCTYPE svg PUBLIC "-//W3C//DTD SVG 1.1//EN"
 "http://www.w3.org/Graphics/SVG/1.1/DTD/svg11.dtd">
<!-- Generated by graphviz version 2.43.0 (0)
 -->
<!-- Title: list Pages: 1 -->
<svg width="3141pt" height="121pt"
 viewBox="0.00 0.00 3141.49 120.50" xmlns="http://www.w3.org/2000/svg" xmlns:xlink="http://www.w3.org/1999/xlink">
<g id="graph0" class="graph" transform="scale(1 1) rotate(0) translate(4 116.5)">
<title>list</title>
<polygon fill="white" stroke="transparent" points="-4,4 -4,-116.5 3137.49,-116.5 3137.49,4 -4,4"/>
<!-- node24 -->
<g id="node1" class="node">
<title>node24</title>
<polygon fill="#ebebeb" stroke="transparent" points="2901,-56.17 2901,-77.17 2969,-77.17 2969,-56.17 2901,-56.17"/>
<polygon fill="none" stroke="black" points="2901,-56.17 2901,-77.17 2969,-77.17 2969,-56.17 2901,-56.17"/>
<text text-anchor="start" x="2925.5" y="-62.97" font-family="Times,serif" font-size="14.00">24</text>
<polygon fill="none" stroke="crimson" points="2901,-34.17 2901,-55.17 2926,-55.17 2926,-34.17 2901,-34.17"/>
<text text-anchor="start" x="2904" y="-40.97" font-family="Times,serif" font-size="14.00">16</text>
<polygon fill="lightsalmon" stroke="transparent" points="2927,-34.17 2927,-55.17 2952,-55.17 2952,-34.17 2927,-34.17"/>
<polygon fill="none" stroke="black" points="2927,-34.17 2927,-55.17 2952,-55.17 2952,-34.17 2927,-34.17"/>
<text text-anchor="start" x="2930" y="-40.97" font-family="Times,serif" font-size="14.00">24</text>
<polygon fill="none" stroke="#1c86ee" points="2953,-34.17 2953,-55.17 2969,-55.17 2969,-34.17 2953,-34.17"/>
<text text-anchor="start" x="2956" y="-40.97" font-family="Times,serif" font-size="14.00">0</text>
</g>
<!-- node16 -->
<g id="node2" class="node">
<title>node16</title>
<polygon fill="#ebebeb" stroke="transparent" points="2770.5,-56.17 2770.5,-77.17 2847.5,-77.17 2847.5,-56.17 2770.5,-56.17"/>
<polygon fill="none" stroke="black" points="2770.5,-56.17 2770.5,-77.17 2847.5,-77.17 2847.5,-56.17 2770.5,-56.17"/>
<text text-anchor="start" x="2799.5" y="-62.97" font-family="Times,serif" font-size="14.00">16</text>
<polygon fill="none" stroke="crimson" points="2770.5,-34.17 2770.5,-55.17 2795.5,-55.17 2795.5,-34.17 2770.5,-34.17"/>
<text text-anchor="start" x="2773.5" y="-40.97" font-family="Times,serif" font-size="14.00">15</text>
<polygon fill="lightsalmon" stroke="transparent" points="2796.5,-34.17 2796.5,-55.17 2821.5,-55.17 2821.5,-34.17 2796.5,-34.17"/>
<polygon fill="none" stroke="black" points="2796.5,-34.17 2796.5,-55.17 2821.5,-55.17 2821.5,-34.17 2796.5,-34.17"/>
<text text-anchor="start" x="2799.5" y="-40.97" font-family="Times,serif" font-size="14.00">16</text>
<polygon fill="none" stroke="#1c86ee" points="2822.5,-34.17 2822.5,-55.17 2847.5,-55.17 2847.5,-34.17 2822.5,-34.17"/>
<text text-anchor="start" x="2825.5" y="-40.97" font-family="Times,serif" font-size="14.00">24</text>
</g>
<!-- node24&#45;&gt;node16 -->
<g id="edge1" class="edge">
<title>node24:index&#45;&gt;node16:index</title>
<path fill="none" stroke="crimson" d="M2900,-67.17C2880.87,-67.17 2873.73,-67.17 2858.53,-67.17"/>
<polygon fill="crimson" stroke="crimson" points="2858.5,-63.67 2848.5,-67.17 2858.5,-70.67 2858.5,-63.67"/>
</g>
<!-- node0 -->
<g id="node3" class="node">
<title>node0</title>
<polygon fill="none" stroke="black" points="3073.75,-73.17 3013.75,-55.17 3073.75,-37.17 3133.74,-55.17 3073.75,-73.17"/>
<text text-anchor="middle" x="3073.75" y="-51.47" font-family="Times,serif" font-size="14.00">Fictive</text>
</g>
<!-- node24&#45;&gt;node0 -->
<g id="edge2" class="edge">
<title>node24:next&#45;&gt;node0</title>
<path fill="none" stroke="black" d="M2970,-44.17C2987.53,-44.17 3006.65,-45.77 3023.59,-47.75"/>
<polygon fill="black" stroke="black" points="3023.46,-51.26 3033.82,-49.03 3024.33,-44.32 3023.46,-51.26"/>
</g>
<!-- node16&#45;&gt;node24 -->
<g id="edge4" class="edge">
<title>node16:next&#45;&gt;node24:prev</title>
<path fill="none" stroke="#1c86ee" d="M2848.5,-44.17C2867.63,-44.17 2874.77,-44.17 2889.97,-44.17"/>
<polygon fill="#1c86ee" stroke="#1c86ee" points="2890,-47.67 2900,-44.17 2890,-40.67 2890,-47.67"/>
</g>
<!-- node15 -->
<g id="node4" class="node">
<title>node15</title>
<polygon fill="#ebebeb" stroke="transparent" points="2639.5,-56.17 2639.5,-77.17 2716.5,-77.17 2716.5,-56.17 2639.5,-56.17"/>
<polygon fill="none" stroke="black" points="2639.5,-56.17 2639.5,-77.17 2716.5,-77.17 2716.5,-56.17 2639.5,-56.17"/>
<text text-anchor="start" x="2668.5" y="-62.97" font-family="Times,serif" font-size="14.00">15</text>
<polygon fill="none" stroke="crimson" points="2639.5,-34.17 2639.5,-55.17 2664.5,-55.17 2664.5,-34.17 2639.5,-34.17"/>
<text text-anchor="start" x="2642.5" y="-40.97" font-family="Times,serif" font-size="14.00">14</text>
<polygon fill="lightsalmon" stroke="transparent" points="2665.5,-34.17 2665.5,-55.17 2690.5,-55.17 2690.5,-34.17 2665.5,-34.17"/>
<polygon fill="none" stroke="black" points="2665.5,-34.17 2665.5,-55.17 2690.5,-55.17 2690.5,-34.17 2665.5,-34.17"/>
<text text-anchor="start" x="2668.5" y="-40.97" font-family="Times,serif" font-size="14.00">15</text>
<polygon fill="none" stroke="#1c86ee" points="2691.5,-34.17 2691.5,-55.17 2716.5,-55.17 2716.5,-34.17 2691.5,-34.17"/>
<text text-anchor="start" x="2694.5" y="-40.97" font-family="Times,serif" font-size="14.00">16</text>
</g>
<!-- node16&#45;&gt;node15 -->
<g id="edge3" class="edge">
<title>node16:index&#45;&gt;node15:index</title>
<path fill="none" stroke="crimson" d="M2769.5,-67.17C2750.18,-67.17 2742.97,-67.17 2727.63,-67.17"/>
<polygon fill="crimson" stroke="crimson" points="2727.5,-63.67 2717.5,-67.17 2727.5,-70.67 2727.5,-63.67"/>
</g>
<!-- node0&#45;&gt;node24 -->
<g id="edge51" class="edge">
<title>node0&#45;&gt;node24:index</title>
<path fill="none" stroke="black" d="M3035.29,-61.66C3018.83,-64.06 2998.98,-66.35 2980.07,-66.99"/>
<polygon fill="black" stroke="black" points="2979.94,-63.49 2970,-67.17 2980.06,-70.49 2979.94,-63.49"/>
</g>
<!-- node15&#45;&gt;node16 -->
<g id="edge6" class="edge">
<title>node15:next&#45;&gt;node16:prev</title>
<path fill="none" stroke="#1c86ee" d="M2717.5,-44.17C2736.82,-44.17 2744.03,-44.17 2759.37,-44.17"/>
<polygon fill="#1c86ee" stroke="#1c86ee" points="2759.5,-47.67 2769.5,-44.17 2759.5,-40.67 2759.5,-47.67"/>
</g>
<!-- node14 -->
<g id="node5" class="node">
<title>node14</title>
<polygon fill="#ebebeb" stroke="transparent" points="2508.5,-56.17 2508.5,-77.17 2585.5,-77.17 2585.5,-56.17 2508.5,-56.17"/>
<polygon fill="none" stroke="black" points="2508.5,-56.17 2508.5,-77.17 2585.5,-77.17 2585.5,-56.17 2508.5,-56.17"/>
<text text-anchor="start" x="2537.5" y="-62.97" font-family="Times,serif" font-size="14.00">14</text>
<polygon fill="none" stroke="crimson" points="2508.5,-34.17 2508.5,-55.17 2533.5,-55.17 2533.5,-34.17 2508.5,-34.17"/>
<text text-anchor="start" x="2511.5" y="-40.97" font-family="Times,serif" font-size="14.00">13</text>
<polygon fill="lightsalmon" stroke="transparent" points="2534.5,-34.17 2534.5,-55.17 2559.5,-55.17 2559.5,-34.17 2534.5,-34.17"/>
<polygon fill="none" stroke="black" points="2534.5,-34.17 2534.5,-55.17 2559.5,-55.17 2559.5,-34.17 2534.5,-34.17"/>
<text text-anchor="start" x="2537.5" y="-40.97" font-family="Times,serif" font-size="14.00">14</text>
<polygon fill="none" stroke="#1c86ee" points="2560.5,-34.17 2560.5,-55.17 2585.5,-55.17 2585.5,-34.17 2560.5,-34.17"/>
<text text-anchor="start" x="2563.5" y="-40.97" font-family="Times,serif" font-size="14.00">15</text>
</g>
<!-- node15&#45;&gt;node14 -->
<g id="edge5" class="edge">
<title>node15:index&#45;&gt;node14:index</title>
<path fill="none" stroke="crimson" d="M2638.5,-67.17C2619.18,-67.17 2611.97,-67.17 2596.63,-67.17"/>
<polygon fill="crimson" stroke="crimson" points="2596.5,-63.67 2586.5,-67.17 2596.5,-70.67 2596.5,-63.67"/>
</g>
<!-- node14&#45;&gt;node15 -->
<g id="edge8" class="edge">
<title>node14:next&#45;&gt;node15:prev</title>
<path fill="none" stroke="#1c86ee" d="M2586.5,-44.17C2605.82,-44.17 2613.03,-44.17 2628.37,-44.17"/>
<polygon fill="#1c86ee" stroke="#1c86ee" points="2628.5,-47.67 2638.5,-44.17 2628.5,-40.67 2628.5,-47.67"/>
</g>
<!-- node13 -->
<g id="node6" class="node">
<title>node13</title>
<polygon fill="#ebebeb" stroke="transparent" points="2377.5,-56.17 2377.5,-77.17 2454.5,-77.17 2454.5,-56.17 2377.5,-56.17"/>
<polygon fill="none" stroke="black" points="2377.5,-56.17 2377.5,-77.17 2454.5,-77.17 2454.5,-56.17 2377.5,-56.17"/>
<text text-anchor="start" x="2406.5" y="-62.97" font-family="Times,serif" font-size="14.00">13</text>
<polygon fill="none" stroke="crimson" points="2377.5,-34.17 2377.5,-55.17 2402.5,-55.17 2402.5,-34.17 2377.5,-34.17"/>
<text text-anchor="start" x="2380.5" y="-40.97" font-family="Times,serif" font-size="14.00">12</text>
<polygon fill="lightsalmon" stroke="transparent" points="2403.5,-34.17 2403.5,-55.17 2428.5,-55.17 2428.5,-34.17 2403.5,-34.17"/>
<polygon fill="none" stroke="black" points="2403.5,-34.17 2403.5,-55.17 2428.5,-55.17 2428.5,-34.17 2403.5,-34.17"/>
<text text-anchor="start" x="2406.5" y="-40.97" font-family="Times,serif" font-size="14.00">13</text>
<polygon fill="none" stroke="#1c86ee" points="2429.5,-34.17 2429.5,-55.17 2454.5,-55.17 2454.5,-34.17 2429.5,-34.17"/>
<text text-anchor="start" x="2432.5" y="-40.97" font-family="Times,serif" font-size="14.00">14</text>
</g>
<!-- node14&#45;&gt;node13 -->
<g id="edge7" class="edge">
<title>node14:index&#45;&gt;node13:index</title>
<path fill="none" stroke="crimson" d="M2507.5,-67.17C2488.18,-67.17 2480.97,-67.17 2465.63,-67.17"/>
<polygon fill="crimson" stroke="crimson" points="2465.5,-63.67 2455.5,-67.17 2465.5,-70.67 2465.5,-63.67"/>
</g>
<!-- node13&#45;&gt;node14 -->
<g id="edge10" class="edge">
<title>node13:next&#45;&gt;node14:prev</title>
<path fill="none" stroke="#1c86ee" d="M2455.5,-44.17C2474.82,-44.17 2482.03,-44.17 2497.37,-44.17"/>
<polygon fill="#1c86ee" stroke="#1c86ee" points="2497.5,-47.67 2507.5,-44.17 2497.5,-40.67 2497.5,-47.67"/>
</g>
<!-- node12 -->
<g id="node7" class="node">
<title>node12</title>
<polygon fill="#ebebeb" stroke="transparent" points="2246.5,-56.17 2246.5,-77.17 2323.5,-77.17 2323.5,-56.17 2246.5,-56.17"/>
<polygon fill="none" stroke="black" points="2246.5,-56.17 2246.5,-77.17 2323.5,-77.17 2323.5,-56.17 2246.5,-56.17"/>
<text text-anchor="start" x="2275.5" y="-62.97" font-family="Times,serif" font-size="14.00">12</text>
<polygon fill="none" stroke="crimson" points="2246.5,-34.17 2246.5,-55.17 2271.5,-55.17 2271.5,-34.17 2246.5,-34.17"/>
<text text-anchor="start" x="2249.5" y="-40.97" font-family="Times,serif" font-size="14.00">11</text>
<polygon fill="lightsalmon" stroke="transparent" points="2272.5,-34.17 2272.5,-55.17 2297.5,-55.17 2297.5,-34.17 2272.5,-34.17"/>
<polygon fill="none" stroke="black" points="2272.5,-34.17 2272.5,-55.17 2297.5,-55.17 2297.5,-34.17 2272.5,-34.17"/>
<text text-anchor="start" x="2275.5" y="-40.97" font-family="Times,serif" font-size="14.00">12</text>
<polygon fill="none" stroke="#1c86ee" points="2298.5,-34.17 2298.5,-55.17 2323.5,-55.17 2323.5,-34.17 2298.5,-34.17"/>
<text text-anchor="start" x="2301.5" y="-40.97" font-family="Times,serif" font-size="14.00">13</text>
</g>
<!-- node13&#45;&gt;node12 -->
<g id="edge9" class="edge">
<title>node13:index&#45;&gt;node12:index</title>
<path fill="none" stroke="crimson" d="M2376.5,-67.17C2357.18,-67.17 2349.97,-67.17 2334.63,-67.17"/>
<polygon fill="crimson" stroke="crimson" points="2334.5,-63.67 2324.5,-67.17 2334.5,-70.67 2334.5,-63.67"/>
</g>
<!-- node12&#45;&gt;node13 -->
<g id="edge12" class="edge">
<title>node12:next&#45;&gt;node13:prev</title>
<path fill="none" stroke="#1c86ee" d="M2324.5,-44.17C2343.82,-44.17 2351.03,-44.17 2366.37,-44.17"/>
<polygon fill="#1c86ee" stroke="#1c86ee" points="2366.5,-47.67 2376.5,-44.17 2366.5,-40.67 2366.5,-47.67"/>
</g>
<!-- node11 -->
<g id="node8" class="node">
<title>node11</title>
<polygon fill="#ebebeb" stroke="transparent" points="2124,-56.17 2124,-77.17 2192,-77.17 2192,-56.17 2124,-56.17"/>
<polygon fill="none" stroke="black" points="2124,-56.17 2124,-77.17 2192,-77.17 2192,-56.17 2124,-56.17"/>
<text text-anchor="start" x="2148.5" y="-62.97" font-family="Times,serif" font-size="14.00">11</text>
<polygon fill="none" stroke="crimson" points="2124,-34.17 2124,-55.17 2140,-55.17 2140,-34.17 2124,-34.17"/>
<text text-anchor="start" x="2127" y="-40.97" font-family="Times,serif" font-size="14.00">9</text>
<polygon fill="lightsalmon" stroke="transparent" points="2141,-34.17 2141,-55.17 2166,-55.17 2166,-34.17 2141,-34.17"/>
<polygon fill="none" stroke="black" points="2141,-34.17 2141,-55.17 2166,-55.17 2166,-34.17 2141,-34.17"/>
<text text-anchor="start" x="2144" y="-40.97" font-family="Times,serif" font-size="14.00">11</text>
<polygon fill="none" stroke="#1c86ee" points="2167,-34.17 2167,-55.17 2192,-55.17 2192,-34.17 2167,-34.17"/>
<text text-anchor="start" x="2170" y="-40.97" font-family="Times,serif" font-size="14.00">12</text>
</g>
<!-- node12&#45;&gt;node11 -->
<g id="edge11" class="edge">
<title>node12:index&#45;&gt;node11:index</title>
<path fill="none" stroke="crimson" d="M2245.5,-67.17C2225.99,-67.17 2218.72,-67.17 2203.23,-67.17"/>
<polygon fill="crimson" stroke="crimson" points="2203,-63.67 2193,-67.17 2203,-70.67 2203,-63.67"/>
</g>
<!-- node11&#45;&gt;node12 -->
<g id="edge14" class="edge">
<title>node11:next&#45;&gt;node12:prev</title>
<path fill="none" stroke="#1c86ee" d="M2193,-44.17C2212.51,-44.17 2219.78,-44.17 2235.27,-44.17"/>
<polygon fill="#1c86ee" stroke="#1c86ee" points="2235.5,-47.67 2245.5,-44.17 2235.5,-40.67 2235.5,-47.67"/>
</g>
<!-- node9 -->
<g id="node9" class="node">
<title>node9</title>
<polygon fill="#ebebeb" stroke="transparent" points="2011.5,-56.17 2011.5,-77.17 2070.5,-77.17 2070.5,-56.17 2011.5,-56.17"/>
<polygon fill="none" stroke="black" points="2011.5,-56.17 2011.5,-77.17 2070.5,-77.17 2070.5,-56.17 2011.5,-56.17"/>
<text text-anchor="start" x="2036" y="-62.97" font-family="Times,serif" font-size="14.00">9</text>
<polygon fill="none" stroke="crimson" points="2011.5,-34.17 2011.5,-55.17 2027.5,-55.17 2027.5,-34.17 2011.5,-34.17"/>
<text text-anchor="start" x="2014.5" y="-40.97" font-family="Times,serif" font-size="14.00">7</text>
<polygon fill="lightsalmon" stroke="transparent" points="2028.5,-34.17 2028.5,-55.17 2044.5,-55.17 2044.5,-34.17 2028.5,-34.17"/>
<polygon fill="none" stroke="black" points="2028.5,-34.17 2028.5,-55.17 2044.5,-55.17 2044.5,-34.17 2028.5,-34.17"/>
<text text-anchor="start" x="2031.5" y="-40.97" font-family="Times,serif" font-size="14.00">9</text>
<polygon fill="none" stroke="#1c86ee" points="2045.5,-34.17 2045.5,-55.17 2070.5,-55.17 2070.5,-34.17 2045.5,-34.17"/>
<text text-anchor="start" x="2048.5" y="-40.97" font-family="Times,serif" font-size="14.00">11</text>
</g>
<!-- node11&#45;&gt;node9 -->
<g id="edge13" class="edge">
<title>node11:index&#45;&gt;node9:index</title>
<path fill="none" stroke="crimson" d="M2123,-67.17C2103.87,-67.17 2096.73,-67.17 2081.53,-67.17"/>
<polygon fill="crimson" stroke="crimson" points="2081.5,-63.67 2071.5,-67.17 2081.5,-70.67 2081.5,-63.67"/>
</g>
<!-- node9&#45;&gt;node11 -->
<g id="edge16" class="edge">
<title>node9:next&#45;&gt;node11:prev</title>
<path fill="none" stroke="#1c86ee" d="M2071.5,-44.17C2090.63,-44.17 2097.77,-44.17 2112.97,-44.17"/>
<polygon fill="#1c86ee" stroke="#1c86ee" points="2113,-47.67 2123,-44.17 2113,-40.67 2113,-47.67"/>
</g>
<!-- node7 -->
<g id="node10" class="node">
<title>node7</title>
<polygon fill="#ebebeb" stroke="transparent" points="1907,-56.17 1907,-77.17 1957,-77.17 1957,-56.17 1907,-56.17"/>
<polygon fill="none" stroke="black" points="1907,-56.17 1907,-77.17 1957,-77.17 1957,-56.17 1907,-56.17"/>
<text text-anchor="start" x="1927" y="-62.97" font-family="Times,serif" font-size="14.00">7</text>
<polygon fill="none" stroke="crimson" points="1907,-34.17 1907,-55.17 1923,-55.17 1923,-34.17 1907,-34.17"/>
<text text-anchor="start" x="1910" y="-40.97" font-family="Times,serif" font-size="14.00">6</text>
<polygon fill="lightsalmon" stroke="transparent" points="1924,-34.17 1924,-55.17 1940,-55.17 1940,-34.17 1924,-34.17"/>
<polygon fill="none" stroke="black" points="1924,-34.17 1924,-55.17 1940,-55.17 1940,-34.17 1924,-34.17"/>
<text text-anchor="start" x="1927" y="-40.97" font-family="Times,serif" font-size="14.00">7</text>
<polygon fill="none" stroke="#1c86ee" points="1941,-34.17 1941,-55.17 1957,-55.17 1957,-34.17 1941,-34.17"/>
<text text-anchor="start" x="1944" y="-40.97" font-family="Times,serif" font-size="14.00">9</text>
</g>
<!-- node9&#45;&gt;node7 -->
<g id="edge15" class="edge">
<title>node9:index&#45;&gt;node7:index</title>
<path fill="none" stroke="crimson" d="M2010.5,-67.17C1990.99,-67.17 1983.72,-67.17 1968.23,-67.17"/>
<polygon fill="crimson" stroke="crimson" points="1968,-63.67 1958,-67.17 1968,-70.67 1968,-63.67"/>
</g>
<!-- node7&#45;&gt;node9 -->
<g id="edge18" class="edge">
<title>node7:next&#45;&gt;node9:prev</title>
<path fill="none" stroke="#1c86ee" d="M1958,-44.17C1977.51,-44.17 1984.78,-44.17 2000.27,-44.17"/>
<polygon fill="#1c86ee" stroke="#1c86ee" points="2000.5,-47.67 2010.5,-44.17 2000.5,-40.67 2000.5,-47.67"/>
</g>
<!-- node6 -->
<g id="node11" class="node">
<title>node6</title>
<polygon fill="#ebebeb" stroke="transparent" points="1803,-56.17 1803,-77.17 1853,-77.17 1853,-56.17 1803,-56.17"/>
<polygon fill="none" stroke="black" points="1803,-56.17 1803,-77.17 1853,-77.17 1853,-56.17 1803,-56.17"/>
<text text-anchor="start" x="1823" y="-62.97" font-family="Times,serif" font-size="14.00">6</text>
<polygon fill="none" stroke="crimson" points="1803,-34.17 1803,-55.17 1819,-55.17 1819,-34.17 1803,-34.17"/>
<text text-anchor="start" x="1806" y="-40.97" font-family="Times,serif" font-size="14.00">5</text>
<polygon fill="lightsalmon" stroke="transparent" points="1820,-34.17 1820,-55.17 1836,-55.17 1836,-34.17 1820,-34.17"/>
<polygon fill="none" stroke="black" points="1820,-34.17 1820,-55.17 1836,-55.17 1836,-34.17 1820,-34.17"/>
<text text-anchor="start" x="1823" y="-40.97" font-family="Times,serif" font-size="14.00">6</text>
<polygon fill="none" stroke="#1c86ee" points="1837,-34.17 1837,-55.17 1853,-55.17 1853,-34.17 1837,-34.17"/>
<text text-anchor="start" x="1840" y="-40.97" font-family="Times,serif" font-size="14.00">7</text>
</g>
<!-- node7&#45;&gt;node6 -->
<g id="edge17" class="edge">
<title>node7:index&#45;&gt;node6:index</title>
<path fill="none" stroke="crimson" d="M1906,-67.17C1886.68,-67.17 1879.47,-67.17 1864.13,-67.17"/>
<polygon fill="crimson" stroke="crimson" points="1864,-63.67 1854,-67.17 1864,-70.67 1864,-63.67"/>
</g>
<!-- node6&#45;&gt;node7 -->
<g id="edge20" class="edge">
<title>node6:next&#45;&gt;node7:prev</title>
<path fill="none" stroke="#1c86ee" d="M1854,-44.17C1873.32,-44.17 1880.53,-44.17 1895.87,-44.17"/>
<polygon fill="#1c86ee" stroke="#1c86ee" points="1896,-47.67 1906,-44.17 1896,-40.67 1896,-47.67"/>
</g>
<!-- node5 -->
<g id="node12" class="node">
<title>node5</title>
<polygon fill="#ebebeb" stroke="transparent" points="1699,-56.17 1699,-77.17 1749,-77.17 1749,-56.17 1699,-56.17"/>
<polygon fill="none" stroke="black" points="1699,-56.17 1699,-77.17 1749,-77.17 1749,-56.17 1699,-56.17"/>
<text text-anchor="start" x="1719" y="-62.97" font-family="Times,serif" font-size="14.00">5</text>
<polygon fill="none" stroke="crimson" points="1699,-34.17 1699,-55.17 1715,-55.17 1715,-34.17 1699,-34.17"/>
<text text-anchor="start" x="1702" y="-40.97" font-family="Times,serif" font-size="14.00">4</text>
<polygon fill="lightsalmon" stroke="transparent" points="1716,-34.17 1716,-55.17 1732,-55.17 1732,-34.17 1716,-34.17"/>
<polygon fill="none" stroke="black" points="1716,-34.17 1716,-55.17 1732,-55.17 1732,-34.17 1716,-34.17"/>
<text text-anchor="start" x="1719" y="-40.97" font-family="Times,serif" font-size="14.00">5</text>
<polygon fill="none" stroke="#1c86ee" points="1733,-34.17 1733,-55.17 1749,-55.17 1749,-34.17 1733,-34.17"/>
<text text-anchor="start" x="1736" y="-40.97" font-family="Times,serif" font-size="14.00">6</text>
</g>
<!-- node6&#45;&gt;node5 -->
<g id="edge19" class="edge">
<title>node6:index&#45;&gt;node5:index</title>
<path fill="none" stroke="crimson" d="M1802,-67.17C1782.68,-67.17 1775.47,-67.17 1760.13,-67.17"/>
<polygon fill="crimson" stroke="crimson" points="1760,-63.67 1750,-67.17 1760,-70.67 1760,-63.67"/>
</g>
<!-- node5&#45;&gt;node6 -->
<g id="edge22" class="edge">
<title>node5:next&#45;&gt;node6:prev</title>
<path fill="none" stroke="#1c86ee" d="M1750,-44.17C1769.32,-44.17 1776.53,-44.17 1791.87,-44.17"/>
<polygon fill="#1c86ee" stroke="#1c86ee" points="1792,-47.67 1802,-44.17 1792,-40.67 1792,-47.67"/>
</g>
<!-- node4 -->
<g id="node13" class="node">
<title>node4</title>
<polygon fill="#ebebeb" stroke="transparent" points="1595,-56.17 1595,-77.17 1645,-77.17 1645,-56.17 1595,-56.17"/>
<polygon fill="none" stroke="black" points="1595,-56.17 1595,-77.17 1645,-77.17 1645,-56.17 1595,-56.17"/>
<text text-anchor="start" x="1615" y="-62.97" font-family="Times,serif" font-size="14.00">4</text>
<polygon fill="none" stroke="crimson" points="1595,-34.17 1595,-55.17 1611,-55.17 1611,-34.17 1595,-34.17"/>
<text text-anchor="start" x="1598" y="-40.97" font-family="Times,serif" font-size="14.00">3</text>
<polygon fill="lightsalmon" stroke="transparent" points="1612,-34.17 1612,-55.17 1628,-55.17 1628,-34.17 1612,-34.17"/>
<polygon fill="none" stroke="black" points="1612,-34.17 1612,-55.17 1628,-55.17 1628,-34.17 1612,-34.17"/>
<text text-anchor="start" x="1615" y="-40.97" font-family="Times,serif" font-size="14.00">4</text>
<polygon fill="none" stroke="#1c86ee" points="1629,-34.17 1629,-55.17 1645,-55.17 1645,-34.17 1629,-34.17"/>
<text text-anchor="start" x="1632" y="-40.97" font-family="Times,serif" font-size="14.00">5</text>
</g>
<!-- node5&#45;&gt;node4 -->
<g id="edge21" class="edge">
<title>node5:index&#45;&gt;node4:index</title>
<path fill="none" stroke="crimson" d="M1698,-67.17C1678.68,-67.17 1671.47,-67.17 1656.13,-67.17"/>
<polygon fill="crimson" stroke="crimson" points="1656,-63.67 1646,-67.17 1656,-70.67 1656,-63.67"/>
</g>
<!-- node4&#45;&gt;node5 -->
<g id="edge24" class="edge">
<title>node4:next&#45;&gt;node5:prev</title>
<path fill="none" stroke="#1c86ee" d="M1646,-44.17C1665.32,-44.17 1672.53,-44.17 1687.87,-44.17"/>
<polygon fill="#1c86ee" stroke="#1c86ee" points="1688,-47.67 1698,-44.17 1688,-40.67 1688,-47.67"/>
</g>
<!-- node3 -->
<g id="node14" class="node">
<title>node3</title>
<polygon fill="#ebebeb" stroke="transparent" points="1491,-56.17 1491,-77.17 1541,-77.17 1541,-56.17 1491,-56.17"/>
<polygon fill="none" stroke="black" points="1491,-56.17 1491,-77.17 1541,-77.17 1541,-56.17 1491,-56.17"/>
<text text-anchor="start" x="1511" y="-62.97" font-family="Times,serif" font-size="14.00">3</text>
<polygon fill="none" stroke="crimson" points="1491,-34.17 1491,-55.17 1507,-55.17 1507,-34.17 1491,-34.17"/>
<text text-anchor="start" x="1494" y="-40.97" font-family="Times,serif" font-size="14.00">2</text>
<polygon fill="lightsalmon" stroke="transparent" points="1508,-34.17 1508,-55.17 1524,-55.17 1524,-34.17 1508,-34.17"/>
<polygon fill="none" stroke="black" points="1508,-34.17 1508,-55.17 1524,-55.17 1524,-34.17 1508,-34.17"/>
<text text-anchor="start" x="1511" y="-40.97" font-family="Times,serif" font-size="14.00">3</text>
<polygon fill="none" stroke="#1c86ee" points="1525,-34.17 1525,-55.17 1541,-55.17 1541,-34.17 1525,-34.17"/>
<text text-anchor="start" x="1528" y="-40.97" font-family="Times,serif" font-size="14.00">4</text>
</g>
<!-- node4&#45;&gt;node3 -->
<g id="edge23" class="edge">
<title>node4:index&#45;&gt;node3:index</title>
<path fill="none" stroke="crimson" d="M1594,-67.17C1574.68,-67.17 1567.47,-67.17 1552.13,-67.17"/>
<polygon fill="crimson" stroke="crimson" points="1552,-63.67 1542,-67.17 1552,-70.67 1552,-63.67"/>
</g>
<!-- node3&#45;&gt;node4 -->
<g id="edge26" class="edge">
<title>node3:next&#45;&gt;node4:prev</title>
<path fill="none" stroke="#1c86ee" d="M1542,-44.17C1561.32,-44.17 1568.53,-44.17 1583.87,-44.17"/>
<polygon fill="#1c86ee" stroke="#1c86ee" points="1584,-47.67 1594,-44.17 1584,-40.67 1584,-47.67"/>
</g>
<!-- node2 -->
<g id="node15" class="node">
<title>node2</title>
<polygon fill="#ebebeb" stroke="transparent" points="1387,-56.17 1387,-77.17 1437,-77.17 1437,-56.17 1387,-56.17"/>
<polygon fill="none" stroke="black" points="1387,-56.17 1387,-77.17 1437,-77.17 1437,-56.17 1387,-56.17"/>
<text text-anchor="start" x="1407" y="-62.97" font-family="Times,serif" font-size="14.00">2</text>
<polygon fill="none" stroke="crimson" points="1387,-34.17 1387,-55.17 1403,-55.17 1403,-34.17 1387,-34.17"/>
<text text-anchor="start" x="1390" y="-40.97" font-family="Times,serif" font-size="14.00">1</text>
<polygon fill="lightsalmon" stroke="transparent" points="1404,-34.17 1404,-55.17 1420,-55.17 1420,-34.17 1404,-34.17"/>
<polygon fill="none" stroke="black" points="1404,-34.17 1404,-55.17 1420,-55.17 1420,-34.17 1404,-34.17"/>
<text text-anchor="start" x="1407" y="-40.97" font-family="Times,serif" font-size="14.00">2</text>
<polygon fill="none" stroke="#1c86ee" points="1421,-34.17 1421,-55.17 1437,-55.17 1437,-34.17 1421,-34.17"/>
<text text-anchor="start" x="1424" y="-40.97" font-family="Times,serif" font-size="14.00">3</text>
</g>
<!-- node3&#45;&gt;node2 -->
<g id="edge25" class="edge">
<title>node3:index&#45;&gt;node2:index</title>
<path fill="none" stroke="crimson" d="M1490,-67.17C1470.68,-67.17 1463.47,-67.17 1448.13,-67.17"/>
<polygon fill="crimson" stroke="crimson" points="1448,-63.67 1438,-67.17 1448,-70.67 1448,-63.67"/>
</g>
<!-- node2&#45;&gt;node3 -->
<g id="edge28" class="edge">
<title>node2:next&#45;&gt;node3:prev</title>
<path fill="none" stroke="#1c86ee" d="M1438,-44.17C1457.32,-44.17 1464.53,-44.17 1479.87,-44.17"/>
<polygon fill="#1c86ee" stroke="#1c86ee" points="1480,-47.67 1490,-44.17 1480,-40.67 1480,-47.67"/>
</g>
<!-- node1 -->
<g id="node16" class="node">
<title>node1</title>
<polygon fill="#ebebeb" stroke="transparent" points="1283,-56.17 1283,-77.17 1333,-77.17 1333,-56.17 1283,-56.17"/>
<polygon fill="none" stroke="black" points="1283,-56.17 1283,-77.17 1333,-77.17 1333,-56.17 1283,-56.17"/>
<text text-anchor="start" x="1303" y="-62.97" font-family="Times,serif" font-size="14.00">1</text>
<polygon fill="none" stroke="crimson" points="1283,-34.17 1283,-55.17 1299,-55.17 1299,-34.17 1283,-34.17"/>
<text text-anchor="start" x="1286" y="-40.97" font-family="Times,serif" font-size="14.00">8</text>
<polygon fill="lightsalmon" stroke="transparent" points="1300,-34.17 1300,-55.17 1316,-55.17 1316,-34.17 1300,-34.17"/>
<polygon fill="none" stroke="black" points="1300,-34.17 1300,-55.17 1316,-55.17 1316,-34.17 1300,-34.17"/>
<text text-anchor="start" x="1303" y="-40.97" font-family="Times,serif" font-size="14.00">1</text>
<polygon fill="none" stroke="#1c86ee" points="1317,-34.17 1317,-55.17 1333,-55.17 1333,-34.17 1317,-34.17"/>
<text text-anchor="start" x="1320" y="-40.97" font-family="Times,serif" font-size="14.00">2</text>
</g>
<!-- node2&#45;&gt;node1 -->
<g id="edge27" class="edge">
<title>node2:index&#45;&gt;node1:index</title>
<path fill="none" stroke="crimson" d="M1386,-67.17C1366.68,-67.17 1359.47,-67.17 1344.13,-67.17"/>
<polygon fill="crimson" stroke="crimson" points="1344,-63.67 1334,-67.17 1344,-70.67 1344,-63.67"/>
</g>
<!-- node1&#45;&gt;node2 -->
<g id="edge30" class="edge">
<title>node1:next&#45;&gt;node2:prev</title>
<path fill="none" stroke="#1c86ee" d="M1334,-44.17C1353.32,-44.17 1360.53,-44.17 1375.87,-44.17"/>
<polygon fill="#1c86ee" stroke="#1c86ee" points="1376,-47.67 1386,-44.17 1376,-40.67 1376,-47.67"/>
</g>
<!-- node8 -->
<g id="node17" class="node">
<title>node8</title>
<polygon fill="#ebebeb" stroke="transparent" points="1170.5,-56.17 1170.5,-77.17 1229.5,-77.17 1229.5,-56.17 1170.5,-56.17"/>
<polygon fill="none" stroke="black" points="1170.5,-56.17 1170.5,-77.17 1229.5,-77.17 1229.5,-56.17 1170.5,-56.17"/>
<text text-anchor="start" x="1195" y="-62.97" font-family="Times,serif" font-size="14.00">8</text>
<polygon fill="none" stroke="crimson" points="1170.5,-34.17 1170.5,-55.17 1195.5,-55.17 1195.5,-34.17 1170.5,-34.17"/>
<text text-anchor="start" x="1173.5" y="-40.97" font-family="Times,serif" font-size="14.00">10</text>
<polygon fill="lightsalmon" stroke="transparent" points="1196.5,-34.17 1196.5,-55.17 1212.5,-55.17 1212.5,-34.17 1196.5,-34.17"/>
<polygon fill="none" stroke="black" points="1196.5,-34.17 1196.5,-55.17 1212.5,-55.17 1212.5,-34.17 1196.5,-34.17"/>
<text text-anchor="start" x="1199.5" y="-40.97" font-family="Times,serif" font-size="14.00">8</text>
<polygon fill="none" stroke="#1c86ee" points="1213.5,-34.17 1213.5,-55.17 1229.5,-55.17 1229.5,-34.17 1213.5,-34.17"/>
<text text-anchor="start" x="1216.5" y="-40.97" font-family="Times,serif" font-size="14.00">1</text>
</g>
<!-- node1&#45;&gt;node8 -->
<g id="edge29" class="edge">
<title>node1:index&#45;&gt;node8:index</title>
<path fill="none" stroke="crimson" d="M1282,-67.17C1262.87,-67.17 1255.73,-67.17 1240.53,-67.17"/>
<polygon fill="crimson" stroke="crimson" points="1240.5,-63.67 1230.5,-67.17 1240.5,-70.67 1240.5,-63.67"/>
</g>
<!-- node8&#45;&gt;node1 -->
<g id="edge32" class="edge">
<title>node8:next&#45;&gt;node1:prev</title>
<path fill="none" stroke="#1c86ee" d="M1230.5,-44.17C1249.63,-44.17 1256.77,-44.17 1271.97,-44.17"/>
<polygon fill="#1c86ee" stroke="#1c86ee" points="1272,-47.67 1282,-44.17 1272,-40.67 1272,-47.67"/>
</g>
<!-- node10 -->
<g id="node18" class="node">
<title>node10</title>
<polygon fill="#ebebeb" stroke="transparent" points="1048,-56.17 1048,-77.17 1116,-77.17 1116,-56.17 1048,-56.17"/>
<polygon fill="none" stroke="black" points="1048,-56.17 1048,-77.17 1116,-77.17 1116,-56.17 1048,-56.17"/>
<text text-anchor="start" x="1072.5" y="-62.97" font-family="Times,serif" font-size="14.00">10</text>
<polygon fill="none" stroke="crimson" points="1048,-34.17 1048,-55.17 1073,-55.17 1073,-34.17 1048,-34.17"/>
<text text-anchor="start" x="1051" y="-40.97" font-family="Times,serif" font-size="14.00">17</text>
<polygon fill="lightsalmon" stroke="transparent" points="1074,-34.17 1074,-55.17 1099,-55.17 1099,-34.17 1074,-34.17"/>
<polygon fill="none" stroke="black" points="1074,-34.17 1074,-55.17 1099,-55.17 1099,-34.17 1074,-34.17"/>
<text text-anchor="start" x="1077" y="-40.97" font-family="Times,serif" font-size="14.00">10</text>
<polygon fill="none" stroke="#1c86ee" points="1100,-34.17 1100,-55.17 1116,-55.17 1116,-34.17 1100,-34.17"/>
<text text-anchor="start" x="1103" y="-40.97" font-family="Times,serif" font-size="14.00">8</text>
</g>
<!-- node8&#45;&gt;node10 -->
<g id="edge31" class="edge">
<title>node8:index&#45;&gt;node10:index</title>
<path fill="none" stroke="crimson" d="M1169.5,-67.17C1149.99,-67.17 1142.72,-67.17 1127.23,-67.17"/>
<polygon fill="crimson" stroke="crimson" points="1127,-63.67 1117,-67.17 1127,-70.67 1127,-63.67"/>
</g>
<!-- node10&#45;&gt;node8 -->
<g id="edge34" class="edge">
<title>node10:next&#45;&gt;node8:prev</title>
<path fill="none" stroke="#1c86ee" d="M1117,-44.17C1136.51,-44.17 1143.78,-44.17 1159.27,-44.17"/>
<polygon fill="#1c86ee" stroke="#1c86ee" points="1159.5,-47.67 1169.5,-44.17 1159.5,-40.67 1159.5,-47.67"/>
</g>
<!-- node17 -->
<g id="node19" class="node">
<title>node17</title>
<polygon fill="#ebebeb" stroke="transparent" points="917.5,-56.17 917.5,-77.17 994.5,-77.17 994.5,-56.17 917.5,-56.17"/>
<polygon fill="none" stroke="black" points="917.5,-56.17 917.5,-77.17 994.5,-77.17 994.5,-56.17 917.5,-56.17"/>
<text text-anchor="start" x="946.5" y="-62.97" font-family="Times,serif" font-size="14.00">17</text>
<polygon fill="none" stroke="crimson" points="917.5,-34.17 917.5,-55.17 942.5,-55.17 942.5,-34.17 917.5,-34.17"/>
<text text-anchor="start" x="920.5" y="-40.97" font-family="Times,serif" font-size="14.00">18</text>
<polygon fill="lightsalmon" stroke="transparent" points="943.5,-34.17 943.5,-55.17 968.5,-55.17 968.5,-34.17 943.5,-34.17"/>
<polygon fill="none" stroke="black" points="943.5,-34.17 943.5,-55.17 968.5,-55.17 968.5,-34.17 943.5,-34.17"/>
<text text-anchor="start" x="946.5" y="-40.97" font-family="Times,serif" font-size="14.00">17</text>
<polygon fill="none" stroke="#1c86ee" points="969.5,-34.17 969.5,-55.17 994.5,-55.17 994.5,-34.17 969.5,-34.17"/>
<text text-anchor="start" x="972.5" y="-40.97" font-family="Times,serif" font-size="14.00">10</text>
</g>
<!-- node10&#45;&gt;node17 -->
<g id="edge33" class="edge">
<title>node10:index&#45;&gt;node17:index</title>
<path fill="none" stroke="crimson" d="M1047,-67.17C1027.87,-67.17 1020.73,-67.17 1005.53,-67.17"/>
<polygon fill="crimson" stroke="crimson" points="1005.5,-63.67 995.5,-67.17 1005.5,-70.67 1005.5,-63.67"/>
</g>
<!-- node17&#45;&gt;node10 -->
<g id="edge36" class="edge">
<title>node17:next&#45;&gt;node10:prev</title>
<path fill="none" stroke="#1c86ee" d="M995.5,-44.17C1014.63,-44.17 1021.77,-44.17 1036.97,-44.17"/>
<polygon fill="#1c86ee" stroke="#1c86ee" points="1037,-47.67 1047,-44.17 1037,-40.67 1037,-47.67"/>
</g>
<!-- node18 -->
<g id="node20" class="node">
<title>node18</title>
<polygon fill="#ebebeb" stroke="transparent" points="786.5,-56.17 786.5,-77.17 863.5,-77.17 863.5,-56.17 786.5,-56.17"/>
<polygon fill="none" stroke="black" points="786.5,-56.17 786.5,-77.17 863.5,-77.17 863.5,-56.17 786.5,-56.17"/>
<text text-anchor="start" x="815.5" y="-62.97" font-family="Times,serif" font-size="14.00">18</text>
<polygon fill="none" stroke="crimson" points="786.5,-34.17 786.5,-55.17 811.5,-55.17 811.5,-34.17 786.5,-34.17"/>
<text text-anchor="start" x="789.5" y="-40.97" font-family="Times,serif" font-size="14.00">19</text>
<polygon fill="lightsalmon" stroke="transparent" points="812.5,-34.17 812.5,-55.17 837.5,-55.17 837.5,-34.17 812.5,-34.17"/>
<polygon fill="none" stroke="black" points="812.5,-34.17 812.5,-55.17 837.5,-55.17 837.5,-34.17 812.5,-34.17"/>
<text text-anchor="start" x="815.5" y="-40.97" font-family="Times,serif" font-size="14.00">18</text>
<polygon fill="none" stroke="#1c86ee" points="838.5,-34.17 838.5,-55.17 863.5,-55.17 863.5,-34.17 838.5,-34.17"/>
<text text-anchor="start" x="841.5" y="-40.97" font-family="Times,serif" font-size="14.00">17</text>
</g>
<!-- node17&#45;&gt;node18 -->
<g id="edge35" class="edge">
<title>node17:index&#45;&gt;node18:index</title>
<path fill="none" stroke="crimson" d="M916.5,-67.17C897.18,-67.17 889.97,-67.17 874.63,-67.17"/>
<polygon fill="crimson" stroke="crimson" points="874.5,-63.67 864.5,-67.17 874.5,-70.67 874.5,-63.67"/>
</g>
<!-- node18&#45;&gt;node17 -->
<g id="edge38" class="edge">
<title>node18:next&#45;&gt;node17:prev</title>
<path fill="none" stroke="#1c86ee" d="M864.5,-44.17C883.82,-44.17 891.03,-44.17 906.37,-44.17"/>
<polygon fill="#1c86ee" stroke="#1c86ee" points="906.5,-47.67 916.5,-44.17 906.5,-40.67 906.5,-47.67"/>
</g>
<!-- node19 -->
<g id="node21" class="node">
<title>node19</title>
<polygon fill="#ebebeb" stroke="transparent" points="655.5,-56.17 655.5,-77.17 732.5,-77.17 732.5,-56.17 655.5,-56.17"/>
<polygon fill="none" stroke="black" points="655.5,-56.17 655.5,-77.17 732.5,-77.17 732.5,-56.17 655.5,-56.17"/>
<text text-anchor="start" x="684.5" y="-62.97" font-family="Times,serif" font-size="14.00">19</text>
<polygon fill="none" stroke="crimson" points="655.5,-34.17 655.5,-55.17 680.5,-55.17 680.5,-34.17 655.5,-34.17"/>
<text text-anchor="start" x="658.5" y="-40.97" font-family="Times,serif" font-size="14.00">20</text>
<polygon fill="lightsalmon" stroke="transparent" points="681.5,-34.17 681.5,-55.17 706.5,-55.17 706.5,-34.17 681.5,-34.17"/>
<polygon fill="none" stroke="black" points="681.5,-34.17 681.5,-55.17 706.5,-55.17 706.5,-34.17 681.5,-34.17"/>
<text text-anchor="start" x="684.5" y="-40.97" font-family="Times,serif" font-size="14.00">19</text>
<polygon fill="none" stroke="#1c86ee" points="707.5,-34.17 707.5,-55.17 732.5,-55.17 732.5,-34.17 707.5,-34.17"/>
<text text-anchor="start" x="710.5" y="-40.97" font-family="Times,serif" font-size="14.00">18</text>
</g>
<!-- node18&#45;&gt;node19 -->
<g id="edge37" class="edge">
<title>node18:index&#45;&gt;node19:index</title>
<path fill="none" stroke="crimson" d="M785.5,-67.17C766.18,-67.17 758.97,-67.17 743.63,-67.17"/>
<polygon fill="crimson" stroke="crimson" points="743.5,-63.67 733.5,-67.17 743.5,-70.67 743.5,-63.67"/>
</g>
<!-- node19&#45;&gt;node18 -->
<g id="edge40" class="edge">
<title>node19:next&#45;&gt;node18:prev</title>
<path fill="none" stroke="#1c86ee" d="M733.5,-44.17C752.82,-44.17 760.03,-44.17 775.37,-44.17"/>
<polygon fill="#1c86ee" stroke="#1c86ee" points="775.5,-47.67 785.5,-44.17 775.5,-40.67 775.5,-47.67"/>
</g>
<!-- node20 -->
<g id="node22" class="node">
<title>node20</title>
<polygon fill="#ebebeb" stroke="transparent" points="524.5,-56.17 524.5,-77.17 601.5,-77.17 601.5,-56.17 524.5,-56.17"/>
<polygon fill="none" stroke="black" points="524.5,-56.17 524.5,-77.17 601.5,-77.17 601.5,-56.17 524.5,-56.17"/>
<text text-anchor="start" x="553.5" y="-62.97" font-family="Times,serif" font-size="14.00">20</text>
<polygon fill="none" stroke="crimson" points="524.5,-34.17 524.5,-55.17 549.5,-55.17 549.5,-34.17 524.5,-34.17"/>
<text text-anchor="start" x="527.5" y="-40.97" font-family="Times,serif" font-size="14.00">21</text>
<polygon fill="lightsalmon" stroke="transparent" points="550.5,-34.17 550.5,-55.17 575.5,-55.17 575.5,-34.17 550.5,-34.17"/>
<polygon fill="none" stroke="black" points="550.5,-34.17 550.5,-55.17 575.5,-55.17 575.5,-34.17 550.5,-34.17"/>
<text text-anchor="start" x="553.5" y="-40.97" font-family="Times,serif" font-size="14.00">20</text>
<polygon fill="none" stroke="#1c86ee" points="576.5,-34.17 576.5,-55.17 601.5,-55.17 601.5,-34.17 576.5,-34.17"/>
<text text-anchor="start" x="579.5" y="-40.97" font-family="Times,serif" font-size="14.00">19</text>
</g>
<!-- node19&#45;&gt;node20 -->
<g id="edge39" class="edge">
<title>node19:index&#45;&gt;node20:index</title>
<path fill="none" stroke="crimson" d="M654.5,-67.17C635.18,-67.17 627.97,-67.17 612.63,-67.17"/>
<polygon fill="crimson" stroke="crimson" points="612.5,-63.67 602.5,-67.17 612.5,-70.67 612.5,-63.67"/>
</g>
<!-- node20&#45;&gt;node19 -->
<g id="edge42" class="edge">
<title>node20:next&#45;&gt;node19:prev</title>
<path fill="none" stroke="#1c86ee" d="M602.5,-44.17C621.82,-44.17 629.03,-44.17 644.37,-44.17"/>
<polygon fill="#1c86ee" stroke="#1c86ee" points="644.5,-47.67 654.5,-44.17 644.5,-40.67 644.5,-47.67"/>
</g>
<!-- node21 -->
<g id="node23" class="node">
<title>node21</title>
<polygon fill="#ebebeb" stroke="transparent" points="393.5,-56.17 393.5,-77.17 470.5,-77.17 470.5,-56.17 393.5,-56.17"/>
<polygon fill="none" stroke="black" points="393.5,-56.17 393.5,-77.17 470.5,-77.17 470.5,-56.17 393.5,-56.17"/>
<text text-anchor="start" x="422.5" y="-62.97" font-family="Times,serif" font-size="14.00">21</text>
<polygon fill="none" stroke="crimson" points="393.5,-34.17 393.5,-55.17 418.5,-55.17 418.5,-34.17 393.5,-34.17"/>
<text text-anchor="start" x="396.5" y="-40.97" font-family="Times,serif" font-size="14.00">22</text>
<polygon fill="lightsalmon" stroke="transparent" points="419.5,-34.17 419.5,-55.17 444.5,-55.17 444.5,-34.17 419.5,-34.17"/>
<polygon fill="none" stroke="black" points="419.5,-34.17 419.5,-55.17 444.5,-55.17 444.5,-34.17 419.5,-34.17"/>
<text text-anchor="start" x="422.5" y="-40.97" font-family="Times,serif" font-size="14.00">21</text>
<polygon fill="none" stroke="#1c86ee" points="445.5,-34.17 445.5,-55.17 470.5,-55.17 470.5,-34.17 445.5,-34.17"/>
<text text-anchor="start" x="448.5" y="-40.97" font-family="Times,serif" font-size="14.00">20</text>
</g>
<!-- node20&#45;&gt;node21 -->
<g id="edge41" class="edge">
<title>node20:index&#45;&gt;node21:index</title>
<path fill="none" stroke="crimson" d="M523.5,-67.17C504.18,-67.17 496.97,-67.17 481.63,-67.17"/>
<polygon fill="crimson" stroke="crimson" points="481.5,-63.67 471.5,-67.17 481.5,-70.67 481.5,-63.67"/>
</g>
<!-- node21&#45;&gt;node20 -->
<g id="edge44" class="edge">
<title>node21:next&#45;&gt;node20:prev</title>
<path fill="none" stroke="#1c86ee" d="M471.5,-44.17C490.82,-44.17 498.03,-44.17 513.37,-44.17"/>
<polygon fill="#1c86ee" stroke="#1c86ee" points="513.5,-47.67 523.5,-44.17 513.5,-40.67 513.5,-47.67"/>
</g>
<!-- node22 -->
<g id="node24" class="node">
<title>node22</title>
<polygon fill="#ebebeb" stroke="transparent" points="262.5,-56.17 262.5,-77.17 339.5,-77.17 339.5,-56.17 262.5,-56.17"/>
<polygon fill="none" stroke="black" points="262.5,-56.17 262.5,-77.17 339.5,-77.17 339.5,-56.17 262.5,-56.17"/>
<text text-anchor="start" x="291.5" y="-62.97" font-family="Times,serif" font-size="14.00">22</text>
<polygon fill="none" stroke="crimson" points="262.5,-34.17 262.5,-55.17 287.5,-55.17 287.5,-34.17 262.5,-34.17"/>
<text text-anchor="start" x="265.5" y="-40.97" font-family="Times,serif" font-size="14.00">23</text>
<polygon fill="lightsalmon" stroke="transparent" points="288.5,-34.17 288.5,-55.17 313.5,-55.17 313.5,-34.17 288.5,-34.17"/>
<polygon fill="none" stroke="black" points="288.5,-34.17 288.5,-55.17 313.5,-55.17 313.5,-34.17 288.5,-34.17"/>
<text text-anchor="start" x="291.5" y="-40.97" font-family="Times,serif" font-size="14.00">22</text>
<polygon fill="none" stroke="#1c86ee" points="314.5,-34.17 314.5,-55.17 339.5,-55.17 339.5,-34.17 314.5,-34.17"/>
<text text-anchor="start" x="317.5" y="-40.97" font-family="Times,serif" font-size="14.00">21</text>
</g>
<!-- node21&#45;&gt;node22 -->
<g id="edge43" class="edge">
<title>node21:index&#45;&gt;node22:index</title>
<path fill="none" stroke="crimson" d="M392.5,-67.17C373.18,-67.17 365.97,-67.17 350.63,-67.17"/>
<polygon fill="crimson" stroke="crimson" points="350.5,-63.67 340.5,-67.17 350.5,-70.67 350.5,-63.67"/>
</g>
<!-- node22&#45;&gt;node21 -->
<g id="edge46" class="edge">
<title>node22:next&#45;&gt;node21:prev</title>
<path fill="none" stroke="#1c86ee" d="M340.5,-44.17C359.82,-44.17 367.03,-44.17 382.37,-44.17"/>
<polygon fill="#1c86ee" stroke="#1c86ee" points="382.5,-47.67 392.5,-44.17 382.5,-40.67 382.5,-47.67"/>
</g>
<!-- node23 -->
<g id="node25" class="node">
<title>node23</title>
<polygon fill="#ebebeb" stroke="transparent" points="131.5,-56.17 131.5,-77.17 208.5,-77.17 208.5,-56.17 131.5,-56.17"/>
<polygon fill="none" stroke="black" points="131.5,-56.17 131.5,-77.17 208.5,-77.17 208.5,-56.17 131.5,-56.17"/>
<text text-anchor="start" x="160.5" y="-62.97" font-family="Times,serif" font-size="14.00">23</text>
<polygon fill="none" stroke="crimson" points="131.5,-34.17 131.5,-55.17 156.5,-55.17 156.5,-34.17 131.5,-34.17"/>
<text text-anchor="start" x="134.5" y="-40.97" font-family="Times,serif" font-size="14.00">25</text>
<polygon fill="lightsalmon" stroke="transparent" points="157.5,-34.17 157.5,-55.17 182.5,-55.17 182.5,-34.17 157.5,-34.17"/>
<polygon fill="none" stroke="black" points="157.5,-34.17 157.5,-55.17 182.5,-55.17 182.5,-34.17 157.5,-34.17"/>
<text text-anchor="start" x="160.5" y="-40.97" font-family="Times,serif" font-size="14.00">23</text>
<polygon fill="none" stroke="#1c86ee" points="183.5,-34.17 183.5,-55.17 208.5,-55.17 208.5,-34.17 183.5,-34.17"/>
<text text-anchor="start" x="186.5" y="-40.97" font-family="Times,serif" font-size="14.00">22</text>
</g>
<!-- node22&#45;&gt;node23 -->
<g id="edge45" class="edge">
<title>node22:index&#45;&gt;node23:index</title>
<path fill="none" stroke="crimson" d="M261.5,-67.17C242.18,-67.17 234.97,-67.17 219.63,-67.17"/>
<polygon fill="crimson" stroke="crimson" points="219.5,-63.67 209.5,-67.17 219.5,-70.67 219.5,-63.67"/>
</g>
<!-- node23&#45;&gt;node22 -->
<g id="edge48" class="edge">
<title>node23:next&#45;&gt;node22:prev</title>
<path fill="none" stroke="#1c86ee" d="M209.5,-44.17C228.82,-44.17 236.03,-44.17 251.37,-44.17"/>
<polygon fill="#1c86ee" stroke="#1c86ee" points="251.5,-47.67 261.5,-44.17 251.5,-40.67 251.5,-47.67"/>
</g>
<!-- node25 -->
<g id="node26" class="node">
<title>node25</title>
<polygon fill="#ebebeb" stroke="transparent" points="9,-56.17 9,-77.17 77,-77.17 77,-56.17 9,-56.17"/>
<polygon fill="none" stroke="black" points="9,-56.17 9,-77.17 77,-77.17 77,-56.17 9,-56.17"/>
<text text-anchor="start" x="33.5" y="-62.97" font-family="Times,serif" font-size="14.00">25</text>
<polygon fill="none" stroke="crimson" points="9,-34.17 9,-55.17 25,-55.17 25,-34.17 9,-34.17"/>
<text text-anchor="start" x="12" y="-40.97" font-family="Times,serif" font-size="14.00">0</text>
<polygon fill="lightsalmon" stroke="transparent" points="26,-34.17 26,-55.17 51,-55.17 51,-34.17 26,-34.17"/>
<polygon fill="none" stroke="black" points="26,-34.17 26,-55.17 51,-55.17 51,-34.17 26,-34.17"/>
<text text-anchor="start" x="29" y="-40.97" font-family="Times,serif" font-size="14.00">25</text>
<polygon fill="none" stroke="#1c86ee" points="52,-34.17 52,-55.17 77,-55.17 77,-34.17 52,-34.17"/>
<text text-anchor="start" x="55" y="-40.97" font-family="Times,serif" font-size="14.00">23</text>
</g>
<!-- node23&#45;&gt;node25 -->
<g id="edge47" class="edge">
<title>node23:index&#45;&gt;node25:index</title>
<path fill="none" stroke="crimson" d="M130.5,-67.17C110.99,-67.17 103.72,-67.17 88.23,-67.17"/>
<polygon fill="crimson" stroke="crimson" points="88,-63.67 78,-67.17 88,-70.67 88,-63.67"/>
</g>
<!-- node25&#45;&gt;node0 -->
<g id="edge49" class="edge">
<title>node25:index&#45;&gt;node0</title>
<path fill="none" stroke="black" d="M78,-67.17C100.49,-67.17 100.59,-85.27 122,-92.17 197.52,-116.5 220.16,-111.17 299.5,-111.17 299.5,-111.17 299.5,-111.17 2809.5,-111.17 2884.86,-111.17 2904.84,-110.25 2978,-92.17 2999.26,-86.91 3022.16,-78.06 3040.12,-70.34"/>
<polygon fill="black" stroke="black" points="3041.8,-73.42 3049.55,-66.19 3038.99,-67.01 3041.8,-73.42"/>
</g>
<!-- node25&#45;&gt;node0 -->
<g id="edge52" class="edge">
<title>node25:next&#45;&gt;node0</title>
<path fill="none" stroke="black" d="M78,-44.17C100.28,-44.17 100.74,-26.81 122,-20.17 197.73,3.5 220.16,-1.17 299.5,-1.17 299.5,-1.17 299.5,-1.17 2809.5,-1.17 2884.86,-1.17 2904.67,-2.76 2978,-20.17 2998.87,-25.12 3021.43,-33.34 3039.3,-40.56"/>
<polygon fill="black" stroke="black" points="3038.13,-43.86 3048.71,-44.45 3040.8,-37.39 3038.13,-43.86"/>
</g>
<!-- node25&#45;&gt;node23 -->
<g id="edge50" class="edge">
<title>node25:next&#45;&gt;node23:prev</title>
<path fill="none" stroke="#1c86ee" d="M78,-44.17C97.51,-44.17 104.78,-44.17 120.27,-44.17"/>
<polygon fill="#1c86ee" stroke="#1c86ee" points="120.5,-47.67 130.5,-44.17 120.5,-40.67 120.5,-47.67"/>
</g>
</g>
</svg>
