<?xml version="1.0" encoding="UTF-8" standalone="no"?>
<!DOCTYPE svg PUBLIC "-//W3C//DTD SVG 1.1//EN"
 "http://www.w3.org/Graphics/SVG/1.1/DTD/svg11.dtd">
<!-- Generated by graphviz version 2.43.0 (0)
 -->
<!-- Title: list Pages: 1 -->
<svg width="2093pt" height="120pt"
 viewBox="0.00 0.00 2093.49 119.50" xmlns="http://www.w3.org/2000/svg" xmlns:xlink="http://www.w3.org/1999/xlink">
<g id="graph0" class="graph" transform="scale(1 1) rotate(0) translate(4 115.5)">
<title>list</title>
<polygon fill="white" stroke="transparent" points="-4,4 -4,-115.5 2089.49,-115.5 2089.49,4 -4,4"/>
<!-- node16 -->
<g id="node1" class="node">
<title>node16</title>
<polygon fill="#ebebeb" stroke="transparent" points="1853,-55.68 1853,-76.68 1921,-76.68 1921,-55.68 1853,-55.68"/>
<polygon fill="none" stroke="black" points="1853,-55.68 1853,-76.68 1921,-76.68 1921,-55.68 1853,-55.68"/>
<text text-anchor="start" x="1877.5" y="-62.48" font-family="Times,serif" font-size="14.00">16</text>
<polygon fill="none" stroke="crimson" points="1853,-33.68 1853,-54.68 1878,-54.68 1878,-33.68 1853,-33.68"/>
<text text-anchor="start" x="1856" y="-40.48" font-family="Times,serif" font-size="14.00">15</text>
<polygon fill="lightsalmon" stroke="transparent" points="1879,-33.68 1879,-54.68 1904,-54.68 1904,-33.68 1879,-33.68"/>
<polygon fill="none" stroke="black" points="1879,-33.68 1879,-54.68 1904,-54.68 1904,-33.68 1879,-33.68"/>
<text text-anchor="start" x="1882" y="-40.48" font-family="Times,serif" font-size="14.00">16</text>
<polygon fill="none" stroke="#1c86ee" points="1905,-33.68 1905,-54.68 1921,-54.68 1921,-33.68 1905,-33.68"/>
<text text-anchor="start" x="1908" y="-40.48" font-family="Times,serif" font-size="14.00">0</text>
</g>
<!-- node15 -->
<g id="node2" class="node">
<title>node15</title>
<polygon fill="#ebebeb" stroke="transparent" points="1722.5,-55.68 1722.5,-76.68 1799.5,-76.68 1799.5,-55.68 1722.5,-55.68"/>
<polygon fill="none" stroke="black" points="1722.5,-55.68 1722.5,-76.68 1799.5,-76.68 1799.5,-55.68 1722.5,-55.68"/>
<text text-anchor="start" x="1751.5" y="-62.48" font-family="Times,serif" font-size="14.00">15</text>
<polygon fill="none" stroke="crimson" points="1722.5,-33.68 1722.5,-54.68 1747.5,-54.68 1747.5,-33.68 1722.5,-33.68"/>
<text text-anchor="start" x="1725.5" y="-40.48" font-family="Times,serif" font-size="14.00">14</text>
<polygon fill="lightsalmon" stroke="transparent" points="1748.5,-33.68 1748.5,-54.68 1773.5,-54.68 1773.5,-33.68 1748.5,-33.68"/>
<polygon fill="none" stroke="black" points="1748.5,-33.68 1748.5,-54.68 1773.5,-54.68 1773.5,-33.68 1748.5,-33.68"/>
<text text-anchor="start" x="1751.5" y="-40.48" font-family="Times,serif" font-size="14.00">15</text>
<polygon fill="none" stroke="#1c86ee" points="1774.5,-33.68 1774.5,-54.68 1799.5,-54.68 1799.5,-33.68 1774.5,-33.68"/>
<text text-anchor="start" x="1777.5" y="-40.48" font-family="Times,serif" font-size="14.00">16</text>
</g>
<!-- node16&#45;&gt;node15 -->
<g id="edge1" class="edge">
<title>node16:index&#45;&gt;node15:index</title>
<path fill="none" stroke="crimson" d="M1852,-66.68C1832.87,-66.68 1825.73,-66.68 1810.53,-66.68"/>
<polygon fill="crimson" stroke="crimson" points="1810.5,-63.18 1800.5,-66.68 1810.5,-70.18 1810.5,-63.18"/>
</g>
<!-- node0 -->
<g id="node3" class="node">
<title>node0</title>
<polygon fill="none" stroke="black" points="2025.75,-72.68 1965.75,-54.68 2025.75,-36.68 2085.74,-54.68 2025.75,-72.68"/>
<text text-anchor="middle" x="2025.75" y="-50.98" font-family="Times,serif" font-size="14.00">Fictive</text>
</g>
<!-- node16&#45;&gt;node0 -->
<g id="edge2" class="edge">
<title>node16:next&#45;&gt;node0</title>
<path fill="none" stroke="black" d="M1922,-43.68C1939.53,-43.68 1958.65,-45.28 1975.59,-47.26"/>
<polygon fill="black" stroke="black" points="1975.46,-50.77 1985.82,-48.53 1976.33,-43.83 1975.46,-50.77"/>
</g>
<!-- node15&#45;&gt;node16 -->
<g id="edge4" class="edge">
<title>node15:next&#45;&gt;node16:prev</title>
<path fill="none" stroke="#1c86ee" d="M1800.5,-43.68C1819.63,-43.68 1826.77,-43.68 1841.97,-43.68"/>
<polygon fill="#1c86ee" stroke="#1c86ee" points="1842,-47.18 1852,-43.68 1842,-40.18 1842,-47.18"/>
</g>
<!-- node14 -->
<g id="node4" class="node">
<title>node14</title>
<polygon fill="#ebebeb" stroke="transparent" points="1591.5,-55.68 1591.5,-76.68 1668.5,-76.68 1668.5,-55.68 1591.5,-55.68"/>
<polygon fill="none" stroke="black" points="1591.5,-55.68 1591.5,-76.68 1668.5,-76.68 1668.5,-55.68 1591.5,-55.68"/>
<text text-anchor="start" x="1620.5" y="-62.48" font-family="Times,serif" font-size="14.00">14</text>
<polygon fill="none" stroke="crimson" points="1591.5,-33.68 1591.5,-54.68 1616.5,-54.68 1616.5,-33.68 1591.5,-33.68"/>
<text text-anchor="start" x="1594.5" y="-40.48" font-family="Times,serif" font-size="14.00">13</text>
<polygon fill="lightsalmon" stroke="transparent" points="1617.5,-33.68 1617.5,-54.68 1642.5,-54.68 1642.5,-33.68 1617.5,-33.68"/>
<polygon fill="none" stroke="black" points="1617.5,-33.68 1617.5,-54.68 1642.5,-54.68 1642.5,-33.68 1617.5,-33.68"/>
<text text-anchor="start" x="1620.5" y="-40.48" font-family="Times,serif" font-size="14.00">14</text>
<polygon fill="none" stroke="#1c86ee" points="1643.5,-33.68 1643.5,-54.68 1668.5,-54.68 1668.5,-33.68 1643.5,-33.68"/>
<text text-anchor="start" x="1646.5" y="-40.48" font-family="Times,serif" font-size="14.00">15</text>
</g>
<!-- node15&#45;&gt;node14 -->
<g id="edge3" class="edge">
<title>node15:index&#45;&gt;node14:index</title>
<path fill="none" stroke="crimson" d="M1721.5,-66.68C1702.18,-66.68 1694.97,-66.68 1679.63,-66.68"/>
<polygon fill="crimson" stroke="crimson" points="1679.5,-63.18 1669.5,-66.68 1679.5,-70.18 1679.5,-63.18"/>
</g>
<!-- node0&#45;&gt;node16 -->
<g id="edge35" class="edge">
<title>node0&#45;&gt;node16:index</title>
<path fill="none" stroke="black" d="M1987.29,-61.17C1970.83,-63.57 1950.98,-65.86 1932.07,-66.5"/>
<polygon fill="black" stroke="black" points="1931.94,-63 1922,-66.68 1932.06,-70 1931.94,-63"/>
</g>
<!-- node14&#45;&gt;node15 -->
<g id="edge6" class="edge">
<title>node14:next&#45;&gt;node15:prev</title>
<path fill="none" stroke="#1c86ee" d="M1669.5,-43.68C1688.82,-43.68 1696.03,-43.68 1711.37,-43.68"/>
<polygon fill="#1c86ee" stroke="#1c86ee" points="1711.5,-47.18 1721.5,-43.68 1711.5,-40.18 1711.5,-47.18"/>
</g>
<!-- node13 -->
<g id="node5" class="node">
<title>node13</title>
<polygon fill="#ebebeb" stroke="transparent" points="1460.5,-55.68 1460.5,-76.68 1537.5,-76.68 1537.5,-55.68 1460.5,-55.68"/>
<polygon fill="none" stroke="black" points="1460.5,-55.68 1460.5,-76.68 1537.5,-76.68 1537.5,-55.68 1460.5,-55.68"/>
<text text-anchor="start" x="1489.5" y="-62.48" font-family="Times,serif" font-size="14.00">13</text>
<polygon fill="none" stroke="crimson" points="1460.5,-33.68 1460.5,-54.68 1485.5,-54.68 1485.5,-33.68 1460.5,-33.68"/>
<text text-anchor="start" x="1463.5" y="-40.48" font-family="Times,serif" font-size="14.00">12</text>
<polygon fill="lightsalmon" stroke="transparent" points="1486.5,-33.68 1486.5,-54.68 1511.5,-54.68 1511.5,-33.68 1486.5,-33.68"/>
<polygon fill="none" stroke="black" points="1486.5,-33.68 1486.5,-54.68 1511.5,-54.68 1511.5,-33.68 1486.5,-33.68"/>
<text text-anchor="start" x="1489.5" y="-40.48" font-family="Times,serif" font-size="14.00">13</text>
<polygon fill="none" stroke="#1c86ee" points="1512.5,-33.68 1512.5,-54.68 1537.5,-54.68 1537.5,-33.68 1512.5,-33.68"/>
<text text-anchor="start" x="1515.5" y="-40.48" font-family="Times,serif" font-size="14.00">14</text>
</g>
<!-- node14&#45;&gt;node13 -->
<g id="edge5" class="edge">
<title>node14:index&#45;&gt;node13:index</title>
<path fill="none" stroke="crimson" d="M1590.5,-66.68C1571.18,-66.68 1563.97,-66.68 1548.63,-66.68"/>
<polygon fill="crimson" stroke="crimson" points="1548.5,-63.18 1538.5,-66.68 1548.5,-70.18 1548.5,-63.18"/>
</g>
<!-- node13&#45;&gt;node14 -->
<g id="edge8" class="edge">
<title>node13:next&#45;&gt;node14:prev</title>
<path fill="none" stroke="#1c86ee" d="M1538.5,-43.68C1557.82,-43.68 1565.03,-43.68 1580.37,-43.68"/>
<polygon fill="#1c86ee" stroke="#1c86ee" points="1580.5,-47.18 1590.5,-43.68 1580.5,-40.18 1580.5,-47.18"/>
</g>
<!-- node12 -->
<g id="node6" class="node">
<title>node12</title>
<polygon fill="#ebebeb" stroke="transparent" points="1329.5,-55.68 1329.5,-76.68 1406.5,-76.68 1406.5,-55.68 1329.5,-55.68"/>
<polygon fill="none" stroke="black" points="1329.5,-55.68 1329.5,-76.68 1406.5,-76.68 1406.5,-55.68 1329.5,-55.68"/>
<text text-anchor="start" x="1358.5" y="-62.48" font-family="Times,serif" font-size="14.00">12</text>
<polygon fill="none" stroke="crimson" points="1329.5,-33.68 1329.5,-54.68 1354.5,-54.68 1354.5,-33.68 1329.5,-33.68"/>
<text text-anchor="start" x="1332.5" y="-40.48" font-family="Times,serif" font-size="14.00">11</text>
<polygon fill="lightsalmon" stroke="transparent" points="1355.5,-33.68 1355.5,-54.68 1380.5,-54.68 1380.5,-33.68 1355.5,-33.68"/>
<polygon fill="none" stroke="black" points="1355.5,-33.68 1355.5,-54.68 1380.5,-54.68 1380.5,-33.68 1355.5,-33.68"/>
<text text-anchor="start" x="1358.5" y="-40.48" font-family="Times,serif" font-size="14.00">12</text>
<polygon fill="none" stroke="#1c86ee" points="1381.5,-33.68 1381.5,-54.68 1406.5,-54.68 1406.5,-33.68 1381.5,-33.68"/>
<text text-anchor="start" x="1384.5" y="-40.48" font-family="Times,serif" font-size="14.00">13</text>
</g>
<!-- node13&#45;&gt;node12 -->
<g id="edge7" class="edge">
<title>node13:index&#45;&gt;node12:index</title>
<path fill="none" stroke="crimson" d="M1459.5,-66.68C1440.18,-66.68 1432.97,-66.68 1417.63,-66.68"/>
<polygon fill="crimson" stroke="crimson" points="1417.5,-63.18 1407.5,-66.68 1417.5,-70.18 1417.5,-63.18"/>
</g>
<!-- node12&#45;&gt;node13 -->
<g id="edge10" class="edge">
<title>node12:next&#45;&gt;node13:prev</title>
<path fill="none" stroke="#1c86ee" d="M1407.5,-43.68C1426.82,-43.68 1434.03,-43.68 1449.37,-43.68"/>
<polygon fill="#1c86ee" stroke="#1c86ee" points="1449.5,-47.18 1459.5,-43.68 1449.5,-40.18 1449.5,-47.18"/>
</g>
<!-- node11 -->
<g id="node7" class="node">
<title>node11</title>
<polygon fill="#ebebeb" stroke="transparent" points="1207,-55.68 1207,-76.68 1275,-76.68 1275,-55.68 1207,-55.68"/>
<polygon fill="none" stroke="black" points="1207,-55.68 1207,-76.68 1275,-76.68 1275,-55.68 1207,-55.68"/>
<text text-anchor="start" x="1231.5" y="-62.48" font-family="Times,serif" font-size="14.00">11</text>
<polygon fill="none" stroke="crimson" points="1207,-33.68 1207,-54.68 1223,-54.68 1223,-33.68 1207,-33.68"/>
<text text-anchor="start" x="1210" y="-40.48" font-family="Times,serif" font-size="14.00">9</text>
<polygon fill="lightsalmon" stroke="transparent" points="1224,-33.68 1224,-54.68 1249,-54.68 1249,-33.68 1224,-33.68"/>
<polygon fill="none" stroke="black" points="1224,-33.68 1224,-54.68 1249,-54.68 1249,-33.68 1224,-33.68"/>
<text text-anchor="start" x="1227" y="-40.48" font-family="Times,serif" font-size="14.00">11</text>
<polygon fill="none" stroke="#1c86ee" points="1250,-33.68 1250,-54.68 1275,-54.68 1275,-33.68 1250,-33.68"/>
<text text-anchor="start" x="1253" y="-40.48" font-family="Times,serif" font-size="14.00">12</text>
</g>
<!-- node12&#45;&gt;node11 -->
<g id="edge9" class="edge">
<title>node12:index&#45;&gt;node11:index</title>
<path fill="none" stroke="crimson" d="M1328.5,-66.68C1308.99,-66.68 1301.72,-66.68 1286.23,-66.68"/>
<polygon fill="crimson" stroke="crimson" points="1286,-63.18 1276,-66.68 1286,-70.18 1286,-63.18"/>
</g>
<!-- node11&#45;&gt;node12 -->
<g id="edge12" class="edge">
<title>node11:next&#45;&gt;node12:prev</title>
<path fill="none" stroke="#1c86ee" d="M1276,-43.68C1295.51,-43.68 1302.78,-43.68 1318.27,-43.68"/>
<polygon fill="#1c86ee" stroke="#1c86ee" points="1318.5,-47.18 1328.5,-43.68 1318.5,-40.18 1318.5,-47.18"/>
</g>
<!-- node9 -->
<g id="node8" class="node">
<title>node9</title>
<polygon fill="#ebebeb" stroke="transparent" points="1094.5,-55.68 1094.5,-76.68 1153.5,-76.68 1153.5,-55.68 1094.5,-55.68"/>
<polygon fill="none" stroke="black" points="1094.5,-55.68 1094.5,-76.68 1153.5,-76.68 1153.5,-55.68 1094.5,-55.68"/>
<text text-anchor="start" x="1119" y="-62.48" font-family="Times,serif" font-size="14.00">9</text>
<polygon fill="none" stroke="crimson" points="1094.5,-33.68 1094.5,-54.68 1110.5,-54.68 1110.5,-33.68 1094.5,-33.68"/>
<text text-anchor="start" x="1097.5" y="-40.48" font-family="Times,serif" font-size="14.00">7</text>
<polygon fill="lightsalmon" stroke="transparent" points="1111.5,-33.68 1111.5,-54.68 1127.5,-54.68 1127.5,-33.68 1111.5,-33.68"/>
<polygon fill="none" stroke="black" points="1111.5,-33.68 1111.5,-54.68 1127.5,-54.68 1127.5,-33.68 1111.5,-33.68"/>
<text text-anchor="start" x="1114.5" y="-40.48" font-family="Times,serif" font-size="14.00">9</text>
<polygon fill="none" stroke="#1c86ee" points="1128.5,-33.68 1128.5,-54.68 1153.5,-54.68 1153.5,-33.68 1128.5,-33.68"/>
<text text-anchor="start" x="1131.5" y="-40.48" font-family="Times,serif" font-size="14.00">11</text>
</g>
<!-- node11&#45;&gt;node9 -->
<g id="edge11" class="edge">
<title>node11:index&#45;&gt;node9:index</title>
<path fill="none" stroke="crimson" d="M1206,-66.68C1186.87,-66.68 1179.73,-66.68 1164.53,-66.68"/>
<polygon fill="crimson" stroke="crimson" points="1164.5,-63.18 1154.5,-66.68 1164.5,-70.18 1164.5,-63.18"/>
</g>
<!-- node9&#45;&gt;node11 -->
<g id="edge14" class="edge">
<title>node9:next&#45;&gt;node11:prev</title>
<path fill="none" stroke="#1c86ee" d="M1154.5,-43.68C1173.63,-43.68 1180.77,-43.68 1195.97,-43.68"/>
<polygon fill="#1c86ee" stroke="#1c86ee" points="1196,-47.18 1206,-43.68 1196,-40.18 1196,-47.18"/>
</g>
<!-- node7 -->
<g id="node9" class="node">
<title>node7</title>
<polygon fill="#ebebeb" stroke="transparent" points="990,-55.68 990,-76.68 1040,-76.68 1040,-55.68 990,-55.68"/>
<polygon fill="none" stroke="black" points="990,-55.68 990,-76.68 1040,-76.68 1040,-55.68 990,-55.68"/>
<text text-anchor="start" x="1010" y="-62.48" font-family="Times,serif" font-size="14.00">7</text>
<polygon fill="none" stroke="crimson" points="990,-33.68 990,-54.68 1006,-54.68 1006,-33.68 990,-33.68"/>
<text text-anchor="start" x="993" y="-40.48" font-family="Times,serif" font-size="14.00">6</text>
<polygon fill="lightsalmon" stroke="transparent" points="1007,-33.68 1007,-54.68 1023,-54.68 1023,-33.68 1007,-33.68"/>
<polygon fill="none" stroke="black" points="1007,-33.68 1007,-54.68 1023,-54.68 1023,-33.68 1007,-33.68"/>
<text text-anchor="start" x="1010" y="-40.48" font-family="Times,serif" font-size="14.00">7</text>
<polygon fill="none" stroke="#1c86ee" points="1024,-33.68 1024,-54.68 1040,-54.68 1040,-33.68 1024,-33.68"/>
<text text-anchor="start" x="1027" y="-40.48" font-family="Times,serif" font-size="14.00">9</text>
</g>
<!-- node9&#45;&gt;node7 -->
<g id="edge13" class="edge">
<title>node9:index&#45;&gt;node7:index</title>
<path fill="none" stroke="crimson" d="M1093.5,-66.68C1073.99,-66.68 1066.72,-66.68 1051.23,-66.68"/>
<polygon fill="crimson" stroke="crimson" points="1051,-63.18 1041,-66.68 1051,-70.18 1051,-63.18"/>
</g>
<!-- node7&#45;&gt;node9 -->
<g id="edge16" class="edge">
<title>node7:next&#45;&gt;node9:prev</title>
<path fill="none" stroke="#1c86ee" d="M1041,-43.68C1060.51,-43.68 1067.78,-43.68 1083.27,-43.68"/>
<polygon fill="#1c86ee" stroke="#1c86ee" points="1083.5,-47.18 1093.5,-43.68 1083.5,-40.18 1083.5,-47.18"/>
</g>
<!-- node6 -->
<g id="node10" class="node">
<title>node6</title>
<polygon fill="#ebebeb" stroke="transparent" points="886,-55.68 886,-76.68 936,-76.68 936,-55.68 886,-55.68"/>
<polygon fill="none" stroke="black" points="886,-55.68 886,-76.68 936,-76.68 936,-55.68 886,-55.68"/>
<text text-anchor="start" x="906" y="-62.48" font-family="Times,serif" font-size="14.00">6</text>
<polygon fill="none" stroke="crimson" points="886,-33.68 886,-54.68 902,-54.68 902,-33.68 886,-33.68"/>
<text text-anchor="start" x="889" y="-40.48" font-family="Times,serif" font-size="14.00">5</text>
<polygon fill="lightsalmon" stroke="transparent" points="903,-33.68 903,-54.68 919,-54.68 919,-33.68 903,-33.68"/>
<polygon fill="none" stroke="black" points="903,-33.68 903,-54.68 919,-54.68 919,-33.68 903,-33.68"/>
<text text-anchor="start" x="906" y="-40.48" font-family="Times,serif" font-size="14.00">6</text>
<polygon fill="none" stroke="#1c86ee" points="920,-33.68 920,-54.68 936,-54.68 936,-33.68 920,-33.68"/>
<text text-anchor="start" x="923" y="-40.48" font-family="Times,serif" font-size="14.00">7</text>
</g>
<!-- node7&#45;&gt;node6 -->
<g id="edge15" class="edge">
<title>node7:index&#45;&gt;node6:index</title>
<path fill="none" stroke="crimson" d="M989,-66.68C969.68,-66.68 962.47,-66.68 947.13,-66.68"/>
<polygon fill="crimson" stroke="crimson" points="947,-63.18 937,-66.68 947,-70.18 947,-63.18"/>
</g>
<!-- node6&#45;&gt;node7 -->
<g id="edge18" class="edge">
<title>node6:next&#45;&gt;node7:prev</title>
<path fill="none" stroke="#1c86ee" d="M937,-43.68C956.32,-43.68 963.53,-43.68 978.87,-43.68"/>
<polygon fill="#1c86ee" stroke="#1c86ee" points="979,-47.18 989,-43.68 979,-40.18 979,-47.18"/>
</g>
<!-- node5 -->
<g id="node11" class="node">
<title>node5</title>
<polygon fill="#ebebeb" stroke="transparent" points="782,-55.68 782,-76.68 832,-76.68 832,-55.68 782,-55.68"/>
<polygon fill="none" stroke="black" points="782,-55.68 782,-76.68 832,-76.68 832,-55.68 782,-55.68"/>
<text text-anchor="start" x="802" y="-62.48" font-family="Times,serif" font-size="14.00">5</text>
<polygon fill="none" stroke="crimson" points="782,-33.68 782,-54.68 798,-54.68 798,-33.68 782,-33.68"/>
<text text-anchor="start" x="785" y="-40.48" font-family="Times,serif" font-size="14.00">4</text>
<polygon fill="lightsalmon" stroke="transparent" points="799,-33.68 799,-54.68 815,-54.68 815,-33.68 799,-33.68"/>
<polygon fill="none" stroke="black" points="799,-33.68 799,-54.68 815,-54.68 815,-33.68 799,-33.68"/>
<text text-anchor="start" x="802" y="-40.48" font-family="Times,serif" font-size="14.00">5</text>
<polygon fill="none" stroke="#1c86ee" points="816,-33.68 816,-54.68 832,-54.68 832,-33.68 816,-33.68"/>
<text text-anchor="start" x="819" y="-40.48" font-family="Times,serif" font-size="14.00">6</text>
</g>
<!-- node6&#45;&gt;node5 -->
<g id="edge17" class="edge">
<title>node6:index&#45;&gt;node5:index</title>
<path fill="none" stroke="crimson" d="M885,-66.68C865.68,-66.68 858.47,-66.68 843.13,-66.68"/>
<polygon fill="crimson" stroke="crimson" points="843,-63.18 833,-66.68 843,-70.18 843,-63.18"/>
</g>
<!-- node5&#45;&gt;node6 -->
<g id="edge20" class="edge">
<title>node5:next&#45;&gt;node6:prev</title>
<path fill="none" stroke="#1c86ee" d="M833,-43.68C852.32,-43.68 859.53,-43.68 874.87,-43.68"/>
<polygon fill="#1c86ee" stroke="#1c86ee" points="875,-47.18 885,-43.68 875,-40.18 875,-47.18"/>
</g>
<!-- node4 -->
<g id="node12" class="node">
<title>node4</title>
<polygon fill="#ebebeb" stroke="transparent" points="678,-55.68 678,-76.68 728,-76.68 728,-55.68 678,-55.68"/>
<polygon fill="none" stroke="black" points="678,-55.68 678,-76.68 728,-76.68 728,-55.68 678,-55.68"/>
<text text-anchor="start" x="698" y="-62.48" font-family="Times,serif" font-size="14.00">4</text>
<polygon fill="none" stroke="crimson" points="678,-33.68 678,-54.68 694,-54.68 694,-33.68 678,-33.68"/>
<text text-anchor="start" x="681" y="-40.48" font-family="Times,serif" font-size="14.00">3</text>
<polygon fill="lightsalmon" stroke="transparent" points="695,-33.68 695,-54.68 711,-54.68 711,-33.68 695,-33.68"/>
<polygon fill="none" stroke="black" points="695,-33.68 695,-54.68 711,-54.68 711,-33.68 695,-33.68"/>
<text text-anchor="start" x="698" y="-40.48" font-family="Times,serif" font-size="14.00">4</text>
<polygon fill="none" stroke="#1c86ee" points="712,-33.68 712,-54.68 728,-54.68 728,-33.68 712,-33.68"/>
<text text-anchor="start" x="715" y="-40.48" font-family="Times,serif" font-size="14.00">5</text>
</g>
<!-- node5&#45;&gt;node4 -->
<g id="edge19" class="edge">
<title>node5:index&#45;&gt;node4:index</title>
<path fill="none" stroke="crimson" d="M781,-66.68C761.68,-66.68 754.47,-66.68 739.13,-66.68"/>
<polygon fill="crimson" stroke="crimson" points="739,-63.18 729,-66.68 739,-70.18 739,-63.18"/>
</g>
<!-- node4&#45;&gt;node5 -->
<g id="edge22" class="edge">
<title>node4:next&#45;&gt;node5:prev</title>
<path fill="none" stroke="#1c86ee" d="M729,-43.68C748.32,-43.68 755.53,-43.68 770.87,-43.68"/>
<polygon fill="#1c86ee" stroke="#1c86ee" points="771,-47.18 781,-43.68 771,-40.18 771,-47.18"/>
</g>
<!-- node3 -->
<g id="node13" class="node">
<title>node3</title>
<polygon fill="#ebebeb" stroke="transparent" points="574,-55.68 574,-76.68 624,-76.68 624,-55.68 574,-55.68"/>
<polygon fill="none" stroke="black" points="574,-55.68 574,-76.68 624,-76.68 624,-55.68 574,-55.68"/>
<text text-anchor="start" x="594" y="-62.48" font-family="Times,serif" font-size="14.00">3</text>
<polygon fill="none" stroke="crimson" points="574,-33.68 574,-54.68 590,-54.68 590,-33.68 574,-33.68"/>
<text text-anchor="start" x="577" y="-40.48" font-family="Times,serif" font-size="14.00">2</text>
<polygon fill="lightsalmon" stroke="transparent" points="591,-33.68 591,-54.68 607,-54.68 607,-33.68 591,-33.68"/>
<polygon fill="none" stroke="black" points="591,-33.68 591,-54.68 607,-54.68 607,-33.68 591,-33.68"/>
<text text-anchor="start" x="594" y="-40.48" font-family="Times,serif" font-size="14.00">3</text>
<polygon fill="none" stroke="#1c86ee" points="608,-33.68 608,-54.68 624,-54.68 624,-33.68 608,-33.68"/>
<text text-anchor="start" x="611" y="-40.48" font-family="Times,serif" font-size="14.00">4</text>
</g>
<!-- node4&#45;&gt;node3 -->
<g id="edge21" class="edge">
<title>node4:index&#45;&gt;node3:index</title>
<path fill="none" stroke="crimson" d="M677,-66.68C657.68,-66.68 650.47,-66.68 635.13,-66.68"/>
<polygon fill="crimson" stroke="crimson" points="635,-63.18 625,-66.68 635,-70.18 635,-63.18"/>
</g>
<!-- node3&#45;&gt;node4 -->
<g id="edge24" class="edge">
<title>node3:next&#45;&gt;node4:prev</title>
<path fill="none" stroke="#1c86ee" d="M625,-43.68C644.32,-43.68 651.53,-43.68 666.87,-43.68"/>
<polygon fill="#1c86ee" stroke="#1c86ee" points="667,-47.18 677,-43.68 667,-40.18 667,-47.18"/>
</g>
<!-- node2 -->
<g id="node14" class="node">
<title>node2</title>
<polygon fill="#ebebeb" stroke="transparent" points="470,-55.68 470,-76.68 520,-76.68 520,-55.68 470,-55.68"/>
<polygon fill="none" stroke="black" points="470,-55.68 470,-76.68 520,-76.68 520,-55.68 470,-55.68"/>
<text text-anchor="start" x="490" y="-62.48" font-family="Times,serif" font-size="14.00">2</text>
<polygon fill="none" stroke="crimson" points="470,-33.68 470,-54.68 486,-54.68 486,-33.68 470,-33.68"/>
<text text-anchor="start" x="473" y="-40.48" font-family="Times,serif" font-size="14.00">1</text>
<polygon fill="lightsalmon" stroke="transparent" points="487,-33.68 487,-54.68 503,-54.68 503,-33.68 487,-33.68"/>
<polygon fill="none" stroke="black" points="487,-33.68 487,-54.68 503,-54.68 503,-33.68 487,-33.68"/>
<text text-anchor="start" x="490" y="-40.48" font-family="Times,serif" font-size="14.00">2</text>
<polygon fill="none" stroke="#1c86ee" points="504,-33.68 504,-54.68 520,-54.68 520,-33.68 504,-33.68"/>
<text text-anchor="start" x="507" y="-40.48" font-family="Times,serif" font-size="14.00">3</text>
</g>
<!-- node3&#45;&gt;node2 -->
<g id="edge23" class="edge">
<title>node3:index&#45;&gt;node2:index</title>
<path fill="none" stroke="crimson" d="M573,-66.68C553.68,-66.68 546.47,-66.68 531.13,-66.68"/>
<polygon fill="crimson" stroke="crimson" points="531,-63.18 521,-66.68 531,-70.18 531,-63.18"/>
</g>
<!-- node2&#45;&gt;node3 -->
<g id="edge26" class="edge">
<title>node2:next&#45;&gt;node3:prev</title>
<path fill="none" stroke="#1c86ee" d="M521,-43.68C540.32,-43.68 547.53,-43.68 562.87,-43.68"/>
<polygon fill="#1c86ee" stroke="#1c86ee" points="563,-47.18 573,-43.68 563,-40.18 563,-47.18"/>
</g>
<!-- node1 -->
<g id="node15" class="node">
<title>node1</title>
<polygon fill="#ebebeb" stroke="transparent" points="366,-55.68 366,-76.68 416,-76.68 416,-55.68 366,-55.68"/>
<polygon fill="none" stroke="black" points="366,-55.68 366,-76.68 416,-76.68 416,-55.68 366,-55.68"/>
<text text-anchor="start" x="386" y="-62.48" font-family="Times,serif" font-size="14.00">1</text>
<polygon fill="none" stroke="crimson" points="366,-33.68 366,-54.68 382,-54.68 382,-33.68 366,-33.68"/>
<text text-anchor="start" x="369" y="-40.48" font-family="Times,serif" font-size="14.00">8</text>
<polygon fill="lightsalmon" stroke="transparent" points="383,-33.68 383,-54.68 399,-54.68 399,-33.68 383,-33.68"/>
<polygon fill="none" stroke="black" points="383,-33.68 383,-54.68 399,-54.68 399,-33.68 383,-33.68"/>
<text text-anchor="start" x="386" y="-40.48" font-family="Times,serif" font-size="14.00">1</text>
<polygon fill="none" stroke="#1c86ee" points="400,-33.68 400,-54.68 416,-54.68 416,-33.68 400,-33.68"/>
<text text-anchor="start" x="403" y="-40.48" font-family="Times,serif" font-size="14.00">2</text>
</g>
<!-- node2&#45;&gt;node1 -->
<g id="edge25" class="edge">
<title>node2:index&#45;&gt;node1:index</title>
<path fill="none" stroke="crimson" d="M469,-66.68C449.68,-66.68 442.47,-66.68 427.13,-66.68"/>
<polygon fill="crimson" stroke="crimson" points="427,-63.18 417,-66.68 427,-70.18 427,-63.18"/>
</g>
<!-- node1&#45;&gt;node2 -->
<g id="edge28" class="edge">
<title>node1:next&#45;&gt;node2:prev</title>
<path fill="none" stroke="#1c86ee" d="M417,-43.68C436.32,-43.68 443.53,-43.68 458.87,-43.68"/>
<polygon fill="#1c86ee" stroke="#1c86ee" points="459,-47.18 469,-43.68 459,-40.18 459,-47.18"/>
</g>
<!-- node8 -->
<g id="node16" class="node">
<title>node8</title>
<polygon fill="#ebebeb" stroke="transparent" points="253.5,-55.68 253.5,-76.68 312.5,-76.68 312.5,-55.68 253.5,-55.68"/>
<polygon fill="none" stroke="black" points="253.5,-55.68 253.5,-76.68 312.5,-76.68 312.5,-55.68 253.5,-55.68"/>
<text text-anchor="start" x="278" y="-62.48" font-family="Times,serif" font-size="14.00">8</text>
<polygon fill="none" stroke="crimson" points="253.5,-33.68 253.5,-54.68 278.5,-54.68 278.5,-33.68 253.5,-33.68"/>
<text text-anchor="start" x="256.5" y="-40.48" font-family="Times,serif" font-size="14.00">10</text>
<polygon fill="lightsalmon" stroke="transparent" points="279.5,-33.68 279.5,-54.68 295.5,-54.68 295.5,-33.68 279.5,-33.68"/>
<polygon fill="none" stroke="black" points="279.5,-33.68 279.5,-54.68 295.5,-54.68 295.5,-33.68 279.5,-33.68"/>
<text text-anchor="start" x="282.5" y="-40.48" font-family="Times,serif" font-size="14.00">8</text>
<polygon fill="none" stroke="#1c86ee" points="296.5,-33.68 296.5,-54.68 312.5,-54.68 312.5,-33.68 296.5,-33.68"/>
<text text-anchor="start" x="299.5" y="-40.48" font-family="Times,serif" font-size="14.00">1</text>
</g>
<!-- node1&#45;&gt;node8 -->
<g id="edge27" class="edge">
<title>node1:index&#45;&gt;node8:index</title>
<path fill="none" stroke="crimson" d="M365,-66.68C345.87,-66.68 338.73,-66.68 323.53,-66.68"/>
<polygon fill="crimson" stroke="crimson" points="323.5,-63.18 313.5,-66.68 323.5,-70.18 323.5,-63.18"/>
</g>
<!-- node8&#45;&gt;node1 -->
<g id="edge30" class="edge">
<title>node8:next&#45;&gt;node1:prev</title>
<path fill="none" stroke="#1c86ee" d="M313.5,-43.68C332.63,-43.68 339.77,-43.68 354.97,-43.68"/>
<polygon fill="#1c86ee" stroke="#1c86ee" points="355,-47.18 365,-43.68 355,-40.18 355,-47.18"/>
</g>
<!-- node10 -->
<g id="node17" class="node">
<title>node10</title>
<polygon fill="#ebebeb" stroke="transparent" points="131,-55.68 131,-76.68 199,-76.68 199,-55.68 131,-55.68"/>
<polygon fill="none" stroke="black" points="131,-55.68 131,-76.68 199,-76.68 199,-55.68 131,-55.68"/>
<text text-anchor="start" x="155.5" y="-62.48" font-family="Times,serif" font-size="14.00">10</text>
<polygon fill="none" stroke="crimson" points="131,-33.68 131,-54.68 156,-54.68 156,-33.68 131,-33.68"/>
<text text-anchor="start" x="134" y="-40.48" font-family="Times,serif" font-size="14.00">17</text>
<polygon fill="lightsalmon" stroke="transparent" points="157,-33.68 157,-54.68 182,-54.68 182,-33.68 157,-33.68"/>
<polygon fill="none" stroke="black" points="157,-33.68 157,-54.68 182,-54.68 182,-33.68 157,-33.68"/>
<text text-anchor="start" x="160" y="-40.48" font-family="Times,serif" font-size="14.00">10</text>
<polygon fill="none" stroke="#1c86ee" points="183,-33.68 183,-54.68 199,-54.68 199,-33.68 183,-33.68"/>
<text text-anchor="start" x="186" y="-40.48" font-family="Times,serif" font-size="14.00">8</text>
</g>
<!-- node8&#45;&gt;node10 -->
<g id="edge29" class="edge">
<title>node8:index&#45;&gt;node10:index</title>
<path fill="none" stroke="crimson" d="M252.5,-66.68C232.99,-66.68 225.72,-66.68 210.23,-66.68"/>
<polygon fill="crimson" stroke="crimson" points="210,-63.18 200,-66.68 210,-70.18 210,-63.18"/>
</g>
<!-- node10&#45;&gt;node8 -->
<g id="edge32" class="edge">
<title>node10:next&#45;&gt;node8:prev</title>
<path fill="none" stroke="#1c86ee" d="M200,-43.68C219.51,-43.68 226.78,-43.68 242.27,-43.68"/>
<polygon fill="#1c86ee" stroke="#1c86ee" points="242.5,-47.18 252.5,-43.68 242.5,-40.18 242.5,-47.18"/>
</g>
<!-- node17 -->
<g id="node18" class="node">
<title>node17</title>
<polygon fill="#ebebeb" stroke="transparent" points="9,-55.68 9,-76.68 77,-76.68 77,-55.68 9,-55.68"/>
<polygon fill="none" stroke="black" points="9,-55.68 9,-76.68 77,-76.68 77,-55.68 9,-55.68"/>
<text text-anchor="start" x="33.5" y="-62.48" font-family="Times,serif" font-size="14.00">17</text>
<polygon fill="none" stroke="crimson" points="9,-33.68 9,-54.68 25,-54.68 25,-33.68 9,-33.68"/>
<text text-anchor="start" x="12" y="-40.48" font-family="Times,serif" font-size="14.00">0</text>
<polygon fill="lightsalmon" stroke="transparent" points="26,-33.68 26,-54.68 51,-54.68 51,-33.68 26,-33.68"/>
<polygon fill="none" stroke="black" points="26,-33.68 26,-54.68 51,-54.68 51,-33.68 26,-33.68"/>
<text text-anchor="start" x="29" y="-40.48" font-family="Times,serif" font-size="14.00">17</text>
<polygon fill="none" stroke="#1c86ee" points="52,-33.68 52,-54.68 77,-54.68 77,-33.68 52,-33.68"/>
<text text-anchor="start" x="55" y="-40.48" font-family="Times,serif" font-size="14.00">10</text>
</g>
<!-- node10&#45;&gt;node17 -->
<g id="edge31" class="edge">
<title>node10:index&#45;&gt;node17:index</title>
<path fill="none" stroke="crimson" d="M130,-66.68C110.68,-66.68 103.47,-66.68 88.13,-66.68"/>
<polygon fill="crimson" stroke="crimson" points="88,-63.18 78,-66.68 88,-70.18 88,-63.18"/>
</g>
<!-- node17&#45;&gt;node0 -->
<g id="edge33" class="edge">
<title>node17:index&#45;&gt;node0</title>
<path fill="none" stroke="black" d="M78,-66.68C100.49,-66.68 100.63,-84.65 122,-91.68 189.82,-113.97 210.11,-110.68 281.5,-110.68 281.5,-110.68 281.5,-110.68 1761.5,-110.68 1836.86,-110.68 1856.84,-109.76 1930,-91.68 1951.26,-86.42 1974.16,-77.57 1992.12,-69.85"/>
<polygon fill="black" stroke="black" points="1993.8,-72.93 2001.55,-65.7 1990.99,-66.52 1993.8,-72.93"/>
</g>
<!-- node17&#45;&gt;node0 -->
<g id="edge36" class="edge">
<title>node17:next&#45;&gt;node0</title>
<path fill="none" stroke="black" d="M78,-43.68C100.28,-43.68 100.78,-26.45 122,-19.68 190.01,2.03 210.11,-0.68 281.5,-0.68 281.5,-0.68 281.5,-0.68 1761.5,-0.68 1836.86,-0.68 1856.67,-2.27 1930,-19.68 1950.87,-24.63 1973.43,-32.84 1991.3,-40.07"/>
<polygon fill="black" stroke="black" points="1990.13,-43.37 2000.71,-43.95 1992.8,-36.9 1990.13,-43.37"/>
</g>
<!-- node17&#45;&gt;node10 -->
<g id="edge34" class="edge">
<title>node17:next&#45;&gt;node10:prev</title>
<path fill="none" stroke="#1c86ee" d="M78,-43.68C97.32,-43.68 104.53,-43.68 119.87,-43.68"/>
<polygon fill="#1c86ee" stroke="#1c86ee" points="120,-47.18 130,-43.68 120,-40.18 120,-47.18"/>
</g>
</g>
</svg>
