<?xml version="1.0" encoding="UTF-8" standalone="no"?>
<!DOCTYPE svg PUBLIC "-//W3C//DTD SVG 1.1//EN"
 "http://www.w3.org/Graphics/SVG/1.1/DTD/svg11.dtd">
<!-- Generated by graphviz version 2.43.0 (0)
 -->
<!-- Title: list Pages: 1 -->
<svg width="647pt" height="118pt"
 viewBox="0.00 0.00 647.49 118.00" xmlns="http://www.w3.org/2000/svg" xmlns:xlink="http://www.w3.org/1999/xlink">
<g id="graph0" class="graph" transform="scale(1 1) rotate(0) translate(4 114)">
<title>list</title>
<polygon fill="white" stroke="transparent" points="-4,4 -4,-114 643.49,-114 643.49,4 -4,4"/>
<!-- node3 -->
<g id="node1" class="node">
<title>node3</title>
<polygon fill="#ebebeb" stroke="transparent" points="9,-55 9,-76 59,-76 59,-55 9,-55"/>
<polygon fill="none" stroke="black" points="9,-55 9,-76 59,-76 59,-55 9,-55"/>
<text text-anchor="start" x="29" y="-61.8" font-family="Times,serif" font-size="14.00">3</text>
<polygon fill="none" stroke="crimson" points="9,-33 9,-54 25,-54 25,-33 9,-33"/>
<text text-anchor="start" x="12" y="-39.8" font-family="Times,serif" font-size="14.00">0</text>
<polygon fill="lightsalmon" stroke="transparent" points="26,-33 26,-54 42,-54 42,-33 26,-33"/>
<polygon fill="none" stroke="black" points="26,-33 26,-54 42,-54 42,-33 26,-33"/>
<text text-anchor="start" x="29" y="-39.8" font-family="Times,serif" font-size="14.00">5</text>
<polygon fill="none" stroke="#1c86ee" points="43,-33 43,-54 59,-54 59,-33 43,-33"/>
<text text-anchor="start" x="46" y="-39.8" font-family="Times,serif" font-size="14.00">2</text>
</g>
<!-- node2 -->
<g id="node2" class="node">
<title>node2</title>
<polygon fill="#ebebeb" stroke="transparent" points="113,-55 113,-76 163,-76 163,-55 113,-55"/>
<polygon fill="none" stroke="black" points="113,-55 113,-76 163,-76 163,-55 113,-55"/>
<text text-anchor="start" x="133" y="-61.8" font-family="Times,serif" font-size="14.00">2</text>
<polygon fill="none" stroke="crimson" points="113,-33 113,-54 129,-54 129,-33 113,-33"/>
<text text-anchor="start" x="116" y="-39.8" font-family="Times,serif" font-size="14.00">3</text>
<polygon fill="lightsalmon" stroke="transparent" points="130,-33 130,-54 146,-54 146,-33 130,-33"/>
<polygon fill="none" stroke="black" points="130,-33 130,-54 146,-54 146,-33 130,-33"/>
<text text-anchor="start" x="133" y="-39.8" font-family="Times,serif" font-size="14.00">4</text>
<polygon fill="none" stroke="#1c86ee" points="147,-33 147,-54 163,-54 163,-33 147,-33"/>
<text text-anchor="start" x="150" y="-39.8" font-family="Times,serif" font-size="14.00">4</text>
</g>
<!-- node3&#45;&gt;node2 -->
<g id="edge1" class="edge">
<title>node3:next&#45;&gt;node2:index</title>
<path fill="none" stroke="#1c86ee" d="M60,-43C81.32,-43 85.69,-59.37 101.72,-64.49"/>
<polygon fill="#1c86ee" stroke="#1c86ee" points="101.6,-68.01 112,-66 102.61,-61.09 101.6,-68.01"/>
</g>
<!-- node0 -->
<g id="node3" class="node">
<title>node0</title>
<polygon fill="none" stroke="black" points="579.75,-72 519.75,-54 579.75,-36 639.74,-54 579.75,-72"/>
<text text-anchor="middle" x="579.75" y="-50.3" font-family="Times,serif" font-size="14.00">Fictive</text>
</g>
<!-- node3&#45;&gt;node0 -->
<g id="edge2" class="edge">
<title>node3:prev&#45;&gt;node0</title>
<path fill="none" stroke="black" d="M17,-32C17,-25.11 184.41,0 241,0 241,0 241,0 347,0 408.47,0 424.38,-4.04 484,-19 504.81,-24.22 527.37,-32.45 545.25,-39.61"/>
<polygon fill="black" stroke="black" points="544.08,-42.91 554.66,-43.46 546.73,-36.43 544.08,-42.91"/>
</g>
<!-- node2&#45;&gt;node3 -->
<g id="edge4" class="edge">
<title>node2:prev&#45;&gt;node3:index</title>
<path fill="none" stroke="crimson" d="M112,-43C90.68,-43 86.31,-59.37 70.28,-64.49"/>
<polygon fill="crimson" stroke="crimson" points="69.39,-61.09 60,-66 70.4,-68.01 69.39,-61.09"/>
</g>
<!-- node4 -->
<g id="node4" class="node">
<title>node4</title>
<polygon fill="#ebebeb" stroke="transparent" points="217,-55 217,-76 267,-76 267,-55 217,-55"/>
<polygon fill="none" stroke="black" points="217,-55 217,-76 267,-76 267,-55 217,-55"/>
<text text-anchor="start" x="237" y="-61.8" font-family="Times,serif" font-size="14.00">4</text>
<polygon fill="none" stroke="crimson" points="217,-33 217,-54 233,-54 233,-33 217,-33"/>
<text text-anchor="start" x="220" y="-39.8" font-family="Times,serif" font-size="14.00">2</text>
<polygon fill="lightsalmon" stroke="transparent" points="234,-33 234,-54 250,-54 250,-33 234,-33"/>
<polygon fill="none" stroke="black" points="234,-33 234,-54 250,-54 250,-33 234,-33"/>
<text text-anchor="start" x="237" y="-39.8" font-family="Times,serif" font-size="14.00">6</text>
<polygon fill="none" stroke="#1c86ee" points="251,-33 251,-54 267,-54 267,-33 251,-33"/>
<text text-anchor="start" x="254" y="-39.8" font-family="Times,serif" font-size="14.00">5</text>
</g>
<!-- node2&#45;&gt;node4 -->
<g id="edge3" class="edge">
<title>node2:next&#45;&gt;node4:index</title>
<path fill="none" stroke="#1c86ee" d="M164,-43C185.32,-43 189.69,-59.37 205.72,-64.49"/>
<polygon fill="#1c86ee" stroke="#1c86ee" points="205.6,-68.01 216,-66 206.61,-61.09 205.6,-68.01"/>
</g>
<!-- node0&#45;&gt;node3 -->
<g id="edge11" class="edge">
<title>node0&#45;&gt;node3:index</title>
<path fill="none" stroke="black" d="M555.07,-64.65C536.19,-72.74 508.87,-83.54 484,-90 424.44,-105.46 408.53,-110 347,-110 241,-110 241,-110 241,-110 179.47,-110 162.37,-109.48 104,-90 86.67,-84.21 83.15,-71.77 70.15,-67.49"/>
<polygon fill="black" stroke="black" points="70.4,-63.99 60,-66 69.39,-70.91 70.4,-63.99"/>
</g>
<!-- node6 -->
<g id="node6" class="node">
<title>node6</title>
<polygon fill="#ebebeb" stroke="transparent" points="425,-55 425,-76 475,-76 475,-55 425,-55"/>
<polygon fill="none" stroke="black" points="425,-55 425,-76 475,-76 475,-55 425,-55"/>
<text text-anchor="start" x="445" y="-61.8" font-family="Times,serif" font-size="14.00">6</text>
<polygon fill="none" stroke="crimson" points="425,-33 425,-54 441,-54 441,-33 425,-33"/>
<text text-anchor="start" x="428" y="-39.8" font-family="Times,serif" font-size="14.00">5</text>
<polygon fill="lightsalmon" stroke="transparent" points="442,-33 442,-54 458,-54 458,-33 442,-33"/>
<polygon fill="none" stroke="black" points="442,-33 442,-54 458,-54 458,-33 442,-33"/>
<text text-anchor="start" x="445" y="-39.8" font-family="Times,serif" font-size="14.00">8</text>
<polygon fill="none" stroke="#1c86ee" points="459,-33 459,-54 475,-54 475,-33 459,-33"/>
<text text-anchor="start" x="462" y="-39.8" font-family="Times,serif" font-size="14.00">0</text>
</g>
<!-- node0&#45;&gt;node6 -->
<g id="edge12" class="edge">
<title>node0&#45;&gt;node6:index</title>
<path fill="none" stroke="black" d="M541.29,-60.49C524.83,-62.89 504.98,-65.18 486.07,-65.82"/>
<polygon fill="black" stroke="black" points="485.94,-62.32 476,-66 486.06,-69.32 485.94,-62.32"/>
</g>
<!-- node4&#45;&gt;node2 -->
<g id="edge6" class="edge">
<title>node4:prev&#45;&gt;node2:index</title>
<path fill="none" stroke="crimson" d="M216,-43C194.68,-43 190.31,-59.37 174.28,-64.49"/>
<polygon fill="crimson" stroke="crimson" points="173.39,-61.09 164,-66 174.4,-68.01 173.39,-61.09"/>
</g>
<!-- node5 -->
<g id="node5" class="node">
<title>node5</title>
<polygon fill="#ebebeb" stroke="transparent" points="321,-55 321,-76 371,-76 371,-55 321,-55"/>
<polygon fill="none" stroke="black" points="321,-55 321,-76 371,-76 371,-55 321,-55"/>
<text text-anchor="start" x="341" y="-61.8" font-family="Times,serif" font-size="14.00">5</text>
<polygon fill="none" stroke="crimson" points="321,-33 321,-54 337,-54 337,-33 321,-33"/>
<text text-anchor="start" x="324" y="-39.8" font-family="Times,serif" font-size="14.00">4</text>
<polygon fill="lightsalmon" stroke="transparent" points="338,-33 338,-54 354,-54 354,-33 338,-33"/>
<polygon fill="none" stroke="black" points="338,-33 338,-54 354,-54 354,-33 338,-33"/>
<text text-anchor="start" x="341" y="-39.8" font-family="Times,serif" font-size="14.00">7</text>
<polygon fill="none" stroke="#1c86ee" points="355,-33 355,-54 371,-54 371,-33 355,-33"/>
<text text-anchor="start" x="358" y="-39.8" font-family="Times,serif" font-size="14.00">6</text>
</g>
<!-- node4&#45;&gt;node5 -->
<g id="edge5" class="edge">
<title>node4:next&#45;&gt;node5:index</title>
<path fill="none" stroke="#1c86ee" d="M268,-43C289.32,-43 293.69,-59.37 309.72,-64.49"/>
<polygon fill="#1c86ee" stroke="#1c86ee" points="309.6,-68.01 320,-66 310.61,-61.09 309.6,-68.01"/>
</g>
<!-- node5&#45;&gt;node4 -->
<g id="edge8" class="edge">
<title>node5:prev&#45;&gt;node4:index</title>
<path fill="none" stroke="crimson" d="M320,-43C298.68,-43 294.31,-59.37 278.28,-64.49"/>
<polygon fill="crimson" stroke="crimson" points="277.39,-61.09 268,-66 278.4,-68.01 277.39,-61.09"/>
</g>
<!-- node5&#45;&gt;node6 -->
<g id="edge7" class="edge">
<title>node5:next&#45;&gt;node6:index</title>
<path fill="none" stroke="#1c86ee" d="M372,-43C393.32,-43 397.69,-59.37 413.72,-64.49"/>
<polygon fill="#1c86ee" stroke="#1c86ee" points="413.6,-68.01 424,-66 414.61,-61.09 413.6,-68.01"/>
</g>
<!-- node6&#45;&gt;node0 -->
<g id="edge9" class="edge">
<title>node6:next&#45;&gt;node0</title>
<path fill="none" stroke="black" d="M476,-43C493.53,-43 512.65,-44.6 529.59,-46.58"/>
<polygon fill="black" stroke="black" points="529.46,-50.1 539.82,-47.86 530.33,-43.15 529.46,-50.1"/>
</g>
<!-- node6&#45;&gt;node5 -->
<g id="edge10" class="edge">
<title>node6:prev&#45;&gt;node5:index</title>
<path fill="none" stroke="crimson" d="M424,-43C402.68,-43 398.31,-59.37 382.28,-64.49"/>
<polygon fill="crimson" stroke="crimson" points="381.39,-61.09 372,-66 382.4,-68.01 381.39,-61.09"/>
</g>
</g>
</svg>
