<?xml version="1.0" encoding="UTF-8" standalone="no"?>
<!DOCTYPE svg PUBLIC "-//W3C//DTD SVG 1.1//EN"
 "http://www.w3.org/Graphics/SVG/1.1/DTD/svg11.dtd">
<!-- Generated by graphviz version 2.43.0 (0)
 -->
<!-- Title: list Pages: 1 -->
<svg width="1143pt" height="162pt"
 viewBox="0.00 0.00 1143.00 161.67" xmlns="http://www.w3.org/2000/svg" xmlns:xlink="http://www.w3.org/1999/xlink">
<g id="graph0" class="graph" transform="scale(1 1) rotate(0) translate(4 157.67)">
<title>list</title>
<polygon fill="white" stroke="transparent" points="-4,4 -4,-157.67 1139,-157.67 1139,4 -4,4"/>
<!-- node10 -->
<g id="node1" class="node">
<title>node10</title>
<polygon fill="#ebebeb" stroke="transparent" points="9.5,-73.92 9.5,-94.92 68.5,-94.92 68.5,-73.92 9.5,-73.92"/>
<polygon fill="none" stroke="black" points="9.5,-73.92 9.5,-94.92 68.5,-94.92 68.5,-73.92 9.5,-73.92"/>
<text text-anchor="start" x="29.5" y="-80.72" font-family="Times,serif" font-size="14.00">10</text>
<polygon fill="none" stroke="crimson" points="9.5,-51.92 9.5,-72.92 25.5,-72.92 25.5,-51.92 9.5,-51.92"/>
<text text-anchor="start" x="12.5" y="-58.72" font-family="Times,serif" font-size="14.00">9</text>
<polygon fill="lightsalmon" stroke="transparent" points="26.5,-51.92 26.5,-72.92 51.5,-72.92 51.5,-51.92 26.5,-51.92"/>
<polygon fill="none" stroke="black" points="26.5,-51.92 26.5,-72.92 51.5,-72.92 51.5,-51.92 26.5,-51.92"/>
<text text-anchor="start" x="29.5" y="-58.72" font-family="Times,serif" font-size="14.00">10</text>
<polygon fill="none" stroke="#1c86ee" points="52.5,-51.92 52.5,-72.92 68.5,-72.92 68.5,-51.92 52.5,-51.92"/>
<text text-anchor="start" x="55.5" y="-58.72" font-family="Times,serif" font-size="14.00">0</text>
</g>
<!-- node9 -->
<g id="node2" class="node">
<title>node9</title>
<polygon fill="#ebebeb" stroke="transparent" points="1067.5,-73.92 1067.5,-94.92 1126.5,-94.92 1126.5,-73.92 1067.5,-73.92"/>
<polygon fill="none" stroke="black" points="1067.5,-73.92 1067.5,-94.92 1126.5,-94.92 1126.5,-73.92 1067.5,-73.92"/>
<text text-anchor="start" x="1092" y="-80.72" font-family="Times,serif" font-size="14.00">9</text>
<polygon fill="none" stroke="crimson" points="1067.5,-51.92 1067.5,-72.92 1083.5,-72.92 1083.5,-51.92 1067.5,-51.92"/>
<text text-anchor="start" x="1070.5" y="-58.72" font-family="Times,serif" font-size="14.00">7</text>
<polygon fill="lightsalmon" stroke="transparent" points="1084.5,-51.92 1084.5,-72.92 1100.5,-72.92 1100.5,-51.92 1084.5,-51.92"/>
<polygon fill="none" stroke="black" points="1084.5,-51.92 1084.5,-72.92 1100.5,-72.92 1100.5,-51.92 1084.5,-51.92"/>
<text text-anchor="start" x="1087.5" y="-58.72" font-family="Times,serif" font-size="14.00">9</text>
<polygon fill="none" stroke="#1c86ee" points="1101.5,-51.92 1101.5,-72.92 1126.5,-72.92 1126.5,-51.92 1101.5,-51.92"/>
<text text-anchor="start" x="1104.5" y="-58.72" font-family="Times,serif" font-size="14.00">10</text>
</g>
<!-- node10&#45;&gt;node9 -->
<g id="edge1" class="edge">
<title>node10:index&#45;&gt;node9:index</title>
<path fill="none" stroke="crimson" d="M69.5,-84.92C97.96,-84.92 87.71,-118.86 113,-131.92 171.14,-161.94 193.56,-150.92 259,-150.92 259,-150.92 259,-150.92 885,-150.92 946.47,-150.92 967.34,-160.04 1022,-131.92 1043.98,-120.61 1039.8,-94.03 1056.45,-86.77"/>
<polygon fill="crimson" stroke="crimson" points="1057.3,-90.17 1066.5,-84.92 1056.03,-83.29 1057.3,-90.17"/>
</g>
<!-- node0 -->
<g id="node11" class="node">
<title>node0</title>
<polygon fill="#ebebeb" stroke="transparent" points="122.5,-95.92 122.5,-116.92 181.5,-116.92 181.5,-95.92 122.5,-95.92"/>
<polygon fill="none" stroke="black" points="122.5,-95.92 122.5,-116.92 181.5,-116.92 181.5,-95.92 122.5,-95.92"/>
<text text-anchor="start" x="147" y="-102.72" font-family="Times,serif" font-size="14.00">0</text>
<polygon fill="none" stroke="crimson" points="122.5,-73.92 122.5,-94.92 147.5,-94.92 147.5,-73.92 122.5,-73.92"/>
<text text-anchor="start" x="125.5" y="-80.72" font-family="Times,serif" font-size="14.00">10</text>
<polygon fill="lightsalmon" stroke="transparent" points="148.5,-73.92 148.5,-94.92 164.5,-94.92 164.5,-73.92 148.5,-73.92"/>
<polygon fill="none" stroke="black" points="148.5,-73.92 148.5,-94.92 164.5,-94.92 164.5,-73.92 148.5,-73.92"/>
<text text-anchor="start" x="151.5" y="-80.72" font-family="Times,serif" font-size="14.00">0</text>
<polygon fill="none" stroke="#1c86ee" points="165.5,-73.92 165.5,-94.92 181.5,-94.92 181.5,-73.92 165.5,-73.92"/>
<text text-anchor="start" x="168.5" y="-80.72" font-family="Times,serif" font-size="14.00">8</text>
</g>
<!-- node10&#45;&gt;node0 -->
<g id="edge22" class="edge">
<title>node10:next&#45;&gt;node0:prev</title>
<path fill="none" stroke="#1c86ee" d="M69.5,-61.92C90.67,-61.92 95.27,-77.58 111.26,-82.47"/>
<polygon fill="#1c86ee" stroke="#1c86ee" points="111.11,-85.99 121.5,-83.92 112.09,-79.05 111.11,-85.99"/>
</g>
<!-- node9&#45;&gt;node10 -->
<g id="edge2" class="edge">
<title>node9:next&#45;&gt;node10:prev</title>
<path fill="none" stroke="#1c86ee" d="M1114.5,-50.92C1114.5,51.18 987.1,-40.92 885,-40.92 259,-40.92 259,-40.92 259,-40.92 155.14,-40.92 26.37,50.15 17.94,-40.88"/>
<polygon fill="#1c86ee" stroke="#1c86ee" points="14.44,-40.77 17.5,-50.92 21.43,-41.08 14.44,-40.77"/>
</g>
<!-- node7 -->
<g id="node3" class="node">
<title>node7</title>
<polygon fill="#ebebeb" stroke="transparent" points="963,-95.92 963,-116.92 1013,-116.92 1013,-95.92 963,-95.92"/>
<polygon fill="none" stroke="black" points="963,-95.92 963,-116.92 1013,-116.92 1013,-95.92 963,-95.92"/>
<text text-anchor="start" x="983" y="-102.72" font-family="Times,serif" font-size="14.00">7</text>
<polygon fill="none" stroke="crimson" points="963,-73.92 963,-94.92 979,-94.92 979,-73.92 963,-73.92"/>
<text text-anchor="start" x="966" y="-80.72" font-family="Times,serif" font-size="14.00">4</text>
<polygon fill="lightsalmon" stroke="transparent" points="980,-73.92 980,-94.92 996,-94.92 996,-73.92 980,-73.92"/>
<polygon fill="none" stroke="black" points="980,-73.92 980,-94.92 996,-94.92 996,-73.92 980,-73.92"/>
<text text-anchor="start" x="983" y="-80.72" font-family="Times,serif" font-size="14.00">7</text>
<polygon fill="none" stroke="#1c86ee" points="997,-73.92 997,-94.92 1013,-94.92 1013,-73.92 997,-73.92"/>
<text text-anchor="start" x="1000" y="-80.72" font-family="Times,serif" font-size="14.00">9</text>
</g>
<!-- node9&#45;&gt;node7 -->
<g id="edge3" class="edge">
<title>node9:index&#45;&gt;node7:index</title>
<path fill="none" stroke="crimson" d="M1066.5,-84.92C1045.15,-84.92 1040.46,-100.58 1024.32,-105.47"/>
<polygon fill="crimson" stroke="crimson" points="1023.42,-102.07 1014,-106.92 1024.39,-109 1023.42,-102.07"/>
</g>
<!-- node7&#45;&gt;node9 -->
<g id="edge4" class="edge">
<title>node7:next&#45;&gt;node9:prev</title>
<path fill="none" stroke="#1c86ee" d="M1014,-83.92C1035.35,-83.92 1040.04,-68.26 1056.18,-63.36"/>
<polygon fill="#1c86ee" stroke="#1c86ee" points="1057.08,-66.77 1066.5,-61.92 1056.11,-59.84 1057.08,-66.77"/>
</g>
<!-- node4 -->
<g id="node4" class="node">
<title>node4</title>
<polygon fill="#ebebeb" stroke="transparent" points="859,-95.92 859,-116.92 909,-116.92 909,-95.92 859,-95.92"/>
<polygon fill="none" stroke="black" points="859,-95.92 859,-116.92 909,-116.92 909,-95.92 859,-95.92"/>
<text text-anchor="start" x="879" y="-102.72" font-family="Times,serif" font-size="14.00">4</text>
<polygon fill="none" stroke="crimson" points="859,-73.92 859,-94.92 875,-94.92 875,-73.92 859,-73.92"/>
<text text-anchor="start" x="862" y="-80.72" font-family="Times,serif" font-size="14.00">1</text>
<polygon fill="lightsalmon" stroke="transparent" points="876,-73.92 876,-94.92 892,-94.92 892,-73.92 876,-73.92"/>
<polygon fill="none" stroke="black" points="876,-73.92 876,-94.92 892,-94.92 892,-73.92 876,-73.92"/>
<text text-anchor="start" x="879" y="-80.72" font-family="Times,serif" font-size="14.00">4</text>
<polygon fill="none" stroke="#1c86ee" points="893,-73.92 893,-94.92 909,-94.92 909,-73.92 893,-73.92"/>
<text text-anchor="start" x="896" y="-80.72" font-family="Times,serif" font-size="14.00">7</text>
</g>
<!-- node7&#45;&gt;node4 -->
<g id="edge5" class="edge">
<title>node7:index&#45;&gt;node4:index</title>
<path fill="none" stroke="crimson" d="M962,-106.92C942.68,-106.92 935.47,-106.92 920.13,-106.92"/>
<polygon fill="crimson" stroke="crimson" points="920,-103.42 910,-106.92 920,-110.42 920,-103.42"/>
</g>
<!-- node4&#45;&gt;node7 -->
<g id="edge6" class="edge">
<title>node4:next&#45;&gt;node7:prev</title>
<path fill="none" stroke="#1c86ee" d="M910,-83.92C929.32,-83.92 936.53,-83.92 951.87,-83.92"/>
<polygon fill="#1c86ee" stroke="#1c86ee" points="952,-87.42 962,-83.92 952,-80.42 952,-87.42"/>
</g>
<!-- node1 -->
<g id="node5" class="node">
<title>node1</title>
<polygon fill="#ebebeb" stroke="transparent" points="755,-95.92 755,-116.92 805,-116.92 805,-95.92 755,-95.92"/>
<polygon fill="none" stroke="black" points="755,-95.92 755,-116.92 805,-116.92 805,-95.92 755,-95.92"/>
<text text-anchor="start" x="775" y="-102.72" font-family="Times,serif" font-size="14.00">1</text>
<polygon fill="none" stroke="crimson" points="755,-73.92 755,-94.92 771,-94.92 771,-73.92 755,-73.92"/>
<text text-anchor="start" x="758" y="-80.72" font-family="Times,serif" font-size="14.00">2</text>
<polygon fill="lightsalmon" stroke="transparent" points="772,-73.92 772,-94.92 788,-94.92 788,-73.92 772,-73.92"/>
<polygon fill="none" stroke="black" points="772,-73.92 772,-94.92 788,-94.92 788,-73.92 772,-73.92"/>
<text text-anchor="start" x="775" y="-80.72" font-family="Times,serif" font-size="14.00">1</text>
<polygon fill="none" stroke="#1c86ee" points="789,-73.92 789,-94.92 805,-94.92 805,-73.92 789,-73.92"/>
<text text-anchor="start" x="792" y="-80.72" font-family="Times,serif" font-size="14.00">4</text>
</g>
<!-- node4&#45;&gt;node1 -->
<g id="edge7" class="edge">
<title>node4:index&#45;&gt;node1:index</title>
<path fill="none" stroke="crimson" d="M858,-106.92C838.68,-106.92 831.47,-106.92 816.13,-106.92"/>
<polygon fill="crimson" stroke="crimson" points="816,-103.42 806,-106.92 816,-110.42 816,-103.42"/>
</g>
<!-- node1&#45;&gt;node4 -->
<g id="edge8" class="edge">
<title>node1:next&#45;&gt;node4:prev</title>
<path fill="none" stroke="#1c86ee" d="M806,-83.92C825.32,-83.92 832.53,-83.92 847.87,-83.92"/>
<polygon fill="#1c86ee" stroke="#1c86ee" points="848,-87.42 858,-83.92 848,-80.42 848,-87.42"/>
</g>
<!-- node2 -->
<g id="node6" class="node">
<title>node2</title>
<polygon fill="#ebebeb" stroke="transparent" points="651,-95.92 651,-116.92 701,-116.92 701,-95.92 651,-95.92"/>
<polygon fill="none" stroke="black" points="651,-95.92 651,-116.92 701,-116.92 701,-95.92 651,-95.92"/>
<text text-anchor="start" x="671" y="-102.72" font-family="Times,serif" font-size="14.00">2</text>
<polygon fill="none" stroke="crimson" points="651,-73.92 651,-94.92 667,-94.92 667,-73.92 651,-73.92"/>
<text text-anchor="start" x="654" y="-80.72" font-family="Times,serif" font-size="14.00">3</text>
<polygon fill="lightsalmon" stroke="transparent" points="668,-73.92 668,-94.92 684,-94.92 684,-73.92 668,-73.92"/>
<polygon fill="none" stroke="black" points="668,-73.92 668,-94.92 684,-94.92 684,-73.92 668,-73.92"/>
<text text-anchor="start" x="671" y="-80.72" font-family="Times,serif" font-size="14.00">2</text>
<polygon fill="none" stroke="#1c86ee" points="685,-73.92 685,-94.92 701,-94.92 701,-73.92 685,-73.92"/>
<text text-anchor="start" x="688" y="-80.72" font-family="Times,serif" font-size="14.00">1</text>
</g>
<!-- node1&#45;&gt;node2 -->
<g id="edge9" class="edge">
<title>node1:index&#45;&gt;node2:index</title>
<path fill="none" stroke="crimson" d="M754,-106.92C734.68,-106.92 727.47,-106.92 712.13,-106.92"/>
<polygon fill="crimson" stroke="crimson" points="712,-103.42 702,-106.92 712,-110.42 712,-103.42"/>
</g>
<!-- node2&#45;&gt;node1 -->
<g id="edge10" class="edge">
<title>node2:next&#45;&gt;node1:prev</title>
<path fill="none" stroke="#1c86ee" d="M702,-83.92C721.32,-83.92 728.53,-83.92 743.87,-83.92"/>
<polygon fill="#1c86ee" stroke="#1c86ee" points="744,-87.42 754,-83.92 744,-80.42 744,-87.42"/>
</g>
<!-- node3 -->
<g id="node7" class="node">
<title>node3</title>
<polygon fill="#ebebeb" stroke="transparent" points="547,-95.92 547,-116.92 597,-116.92 597,-95.92 547,-95.92"/>
<polygon fill="none" stroke="black" points="547,-95.92 547,-116.92 597,-116.92 597,-95.92 547,-95.92"/>
<text text-anchor="start" x="567" y="-102.72" font-family="Times,serif" font-size="14.00">3</text>
<polygon fill="none" stroke="crimson" points="547,-73.92 547,-94.92 563,-94.92 563,-73.92 547,-73.92"/>
<text text-anchor="start" x="550" y="-80.72" font-family="Times,serif" font-size="14.00">5</text>
<polygon fill="lightsalmon" stroke="transparent" points="564,-73.92 564,-94.92 580,-94.92 580,-73.92 564,-73.92"/>
<polygon fill="none" stroke="black" points="564,-73.92 564,-94.92 580,-94.92 580,-73.92 564,-73.92"/>
<text text-anchor="start" x="567" y="-80.72" font-family="Times,serif" font-size="14.00">3</text>
<polygon fill="none" stroke="#1c86ee" points="581,-73.92 581,-94.92 597,-94.92 597,-73.92 581,-73.92"/>
<text text-anchor="start" x="584" y="-80.72" font-family="Times,serif" font-size="14.00">2</text>
</g>
<!-- node2&#45;&gt;node3 -->
<g id="edge11" class="edge">
<title>node2:index&#45;&gt;node3:index</title>
<path fill="none" stroke="crimson" d="M650,-106.92C630.68,-106.92 623.47,-106.92 608.13,-106.92"/>
<polygon fill="crimson" stroke="crimson" points="608,-103.42 598,-106.92 608,-110.42 608,-103.42"/>
</g>
<!-- node3&#45;&gt;node2 -->
<g id="edge12" class="edge">
<title>node3:next&#45;&gt;node2:prev</title>
<path fill="none" stroke="#1c86ee" d="M598,-83.92C617.32,-83.92 624.53,-83.92 639.87,-83.92"/>
<polygon fill="#1c86ee" stroke="#1c86ee" points="640,-87.42 650,-83.92 640,-80.42 640,-87.42"/>
</g>
<!-- node5 -->
<g id="node8" class="node">
<title>node5</title>
<polygon fill="#ebebeb" stroke="transparent" points="443,-95.92 443,-116.92 493,-116.92 493,-95.92 443,-95.92"/>
<polygon fill="none" stroke="black" points="443,-95.92 443,-116.92 493,-116.92 493,-95.92 443,-95.92"/>
<text text-anchor="start" x="463" y="-102.72" font-family="Times,serif" font-size="14.00">5</text>
<polygon fill="none" stroke="crimson" points="443,-73.92 443,-94.92 459,-94.92 459,-73.92 443,-73.92"/>
<text text-anchor="start" x="446" y="-80.72" font-family="Times,serif" font-size="14.00">6</text>
<polygon fill="lightsalmon" stroke="transparent" points="460,-73.92 460,-94.92 476,-94.92 476,-73.92 460,-73.92"/>
<polygon fill="none" stroke="black" points="460,-73.92 460,-94.92 476,-94.92 476,-73.92 460,-73.92"/>
<text text-anchor="start" x="463" y="-80.72" font-family="Times,serif" font-size="14.00">5</text>
<polygon fill="none" stroke="#1c86ee" points="477,-73.92 477,-94.92 493,-94.92 493,-73.92 477,-73.92"/>
<text text-anchor="start" x="480" y="-80.72" font-family="Times,serif" font-size="14.00">3</text>
</g>
<!-- node3&#45;&gt;node5 -->
<g id="edge13" class="edge">
<title>node3:index&#45;&gt;node5:index</title>
<path fill="none" stroke="crimson" d="M546,-106.92C526.68,-106.92 519.47,-106.92 504.13,-106.92"/>
<polygon fill="crimson" stroke="crimson" points="504,-103.42 494,-106.92 504,-110.42 504,-103.42"/>
</g>
<!-- node5&#45;&gt;node3 -->
<g id="edge14" class="edge">
<title>node5:next&#45;&gt;node3:prev</title>
<path fill="none" stroke="#1c86ee" d="M494,-83.92C513.32,-83.92 520.53,-83.92 535.87,-83.92"/>
<polygon fill="#1c86ee" stroke="#1c86ee" points="536,-87.42 546,-83.92 536,-80.42 536,-87.42"/>
</g>
<!-- node6 -->
<g id="node9" class="node">
<title>node6</title>
<polygon fill="#ebebeb" stroke="transparent" points="339,-95.92 339,-116.92 389,-116.92 389,-95.92 339,-95.92"/>
<polygon fill="none" stroke="black" points="339,-95.92 339,-116.92 389,-116.92 389,-95.92 339,-95.92"/>
<text text-anchor="start" x="359" y="-102.72" font-family="Times,serif" font-size="14.00">6</text>
<polygon fill="none" stroke="crimson" points="339,-73.92 339,-94.92 355,-94.92 355,-73.92 339,-73.92"/>
<text text-anchor="start" x="342" y="-80.72" font-family="Times,serif" font-size="14.00">8</text>
<polygon fill="lightsalmon" stroke="transparent" points="356,-73.92 356,-94.92 372,-94.92 372,-73.92 356,-73.92"/>
<polygon fill="none" stroke="black" points="356,-73.92 356,-94.92 372,-94.92 372,-73.92 356,-73.92"/>
<text text-anchor="start" x="359" y="-80.72" font-family="Times,serif" font-size="14.00">6</text>
<polygon fill="none" stroke="#1c86ee" points="373,-73.92 373,-94.92 389,-94.92 389,-73.92 373,-73.92"/>
<text text-anchor="start" x="376" y="-80.72" font-family="Times,serif" font-size="14.00">5</text>
</g>
<!-- node5&#45;&gt;node6 -->
<g id="edge15" class="edge">
<title>node5:index&#45;&gt;node6:index</title>
<path fill="none" stroke="crimson" d="M442,-106.92C422.68,-106.92 415.47,-106.92 400.13,-106.92"/>
<polygon fill="crimson" stroke="crimson" points="400,-103.42 390,-106.92 400,-110.42 400,-103.42"/>
</g>
<!-- node6&#45;&gt;node5 -->
<g id="edge16" class="edge">
<title>node6:next&#45;&gt;node5:prev</title>
<path fill="none" stroke="#1c86ee" d="M390,-83.92C409.32,-83.92 416.53,-83.92 431.87,-83.92"/>
<polygon fill="#1c86ee" stroke="#1c86ee" points="432,-87.42 442,-83.92 432,-80.42 432,-87.42"/>
</g>
<!-- node8 -->
<g id="node10" class="node">
<title>node8</title>
<polygon fill="#ebebeb" stroke="transparent" points="235,-95.92 235,-116.92 285,-116.92 285,-95.92 235,-95.92"/>
<polygon fill="none" stroke="black" points="235,-95.92 235,-116.92 285,-116.92 285,-95.92 235,-95.92"/>
<text text-anchor="start" x="255" y="-102.72" font-family="Times,serif" font-size="14.00">8</text>
<polygon fill="none" stroke="crimson" points="235,-73.92 235,-94.92 251,-94.92 251,-73.92 235,-73.92"/>
<text text-anchor="start" x="238" y="-80.72" font-family="Times,serif" font-size="14.00">0</text>
<polygon fill="lightsalmon" stroke="transparent" points="252,-73.92 252,-94.92 268,-94.92 268,-73.92 252,-73.92"/>
<polygon fill="none" stroke="black" points="252,-73.92 252,-94.92 268,-94.92 268,-73.92 252,-73.92"/>
<text text-anchor="start" x="255" y="-80.72" font-family="Times,serif" font-size="14.00">8</text>
<polygon fill="none" stroke="#1c86ee" points="269,-73.92 269,-94.92 285,-94.92 285,-73.92 269,-73.92"/>
<text text-anchor="start" x="272" y="-80.72" font-family="Times,serif" font-size="14.00">6</text>
</g>
<!-- node6&#45;&gt;node8 -->
<g id="edge17" class="edge">
<title>node6:index&#45;&gt;node8:index</title>
<path fill="none" stroke="crimson" d="M338,-106.92C318.68,-106.92 311.47,-106.92 296.13,-106.92"/>
<polygon fill="crimson" stroke="crimson" points="296,-103.42 286,-106.92 296,-110.42 296,-103.42"/>
</g>
<!-- node8&#45;&gt;node6 -->
<g id="edge18" class="edge">
<title>node8:next&#45;&gt;node6:prev</title>
<path fill="none" stroke="#1c86ee" d="M286,-83.92C305.32,-83.92 312.53,-83.92 327.87,-83.92"/>
<polygon fill="#1c86ee" stroke="#1c86ee" points="328,-87.42 338,-83.92 328,-80.42 328,-87.42"/>
</g>
<!-- node8&#45;&gt;node0 -->
<g id="edge19" class="edge">
<title>node8:index&#45;&gt;node0:index</title>
<path fill="none" stroke="crimson" d="M234,-106.92C214.87,-106.92 207.73,-106.92 192.53,-106.92"/>
<polygon fill="crimson" stroke="crimson" points="192.5,-103.42 182.5,-106.92 192.5,-110.42 192.5,-103.42"/>
</g>
<!-- node0&#45;&gt;node10 -->
<g id="edge21" class="edge">
<title>node0:index&#45;&gt;node10:index</title>
<path fill="none" stroke="crimson" d="M121.5,-106.92C100.33,-106.92 95.73,-91.26 79.74,-86.36"/>
<polygon fill="crimson" stroke="crimson" points="79.89,-82.85 69.5,-84.92 78.91,-89.78 79.89,-82.85"/>
</g>
<!-- node0&#45;&gt;node8 -->
<g id="edge20" class="edge">
<title>node0:next&#45;&gt;node8:prev</title>
<path fill="none" stroke="#1c86ee" d="M182.5,-83.92C201.63,-83.92 208.77,-83.92 223.97,-83.92"/>
<polygon fill="#1c86ee" stroke="#1c86ee" points="224,-87.42 234,-83.92 224,-80.42 224,-87.42"/>
</g>
</g>
</svg>
