<?xml version="1.0" encoding="UTF-8" standalone="no"?>
<!DOCTYPE svg PUBLIC "-//W3C//DTD SVG 1.1//EN"
 "http://www.w3.org/Graphics/SVG/1.1/DTD/svg11.dtd">
<!-- Generated by graphviz version 2.43.0 (0)
 -->
<!-- Title: list Pages: 1 -->
<svg width="2486pt" height="121pt"
 viewBox="0.00 0.00 2486.49 120.50" xmlns="http://www.w3.org/2000/svg" xmlns:xlink="http://www.w3.org/1999/xlink">
<g id="graph0" class="graph" transform="scale(1 1) rotate(0) translate(4 116.5)">
<title>list</title>
<polygon fill="white" stroke="transparent" points="-4,4 -4,-116.5 2482.49,-116.5 2482.49,4 -4,4"/>
<!-- node16 -->
<g id="node1" class="node">
<title>node16</title>
<polygon fill="#ebebeb" stroke="transparent" points="2246,-56.17 2246,-77.17 2314,-77.17 2314,-56.17 2246,-56.17"/>
<polygon fill="none" stroke="black" points="2246,-56.17 2246,-77.17 2314,-77.17 2314,-56.17 2246,-56.17"/>
<text text-anchor="start" x="2270.5" y="-62.97" font-family="Times,serif" font-size="14.00">16</text>
<polygon fill="none" stroke="crimson" points="2246,-34.17 2246,-55.17 2271,-55.17 2271,-34.17 2246,-34.17"/>
<text text-anchor="start" x="2249" y="-40.97" font-family="Times,serif" font-size="14.00">15</text>
<polygon fill="lightsalmon" stroke="transparent" points="2272,-34.17 2272,-55.17 2297,-55.17 2297,-34.17 2272,-34.17"/>
<polygon fill="none" stroke="black" points="2272,-34.17 2272,-55.17 2297,-55.17 2297,-34.17 2272,-34.17"/>
<text text-anchor="start" x="2275" y="-40.97" font-family="Times,serif" font-size="14.00">16</text>
<polygon fill="none" stroke="#1c86ee" points="2298,-34.17 2298,-55.17 2314,-55.17 2314,-34.17 2298,-34.17"/>
<text text-anchor="start" x="2301" y="-40.97" font-family="Times,serif" font-size="14.00">0</text>
</g>
<!-- node15 -->
<g id="node2" class="node">
<title>node15</title>
<polygon fill="#ebebeb" stroke="transparent" points="2115.5,-56.17 2115.5,-77.17 2192.5,-77.17 2192.5,-56.17 2115.5,-56.17"/>
<polygon fill="none" stroke="black" points="2115.5,-56.17 2115.5,-77.17 2192.5,-77.17 2192.5,-56.17 2115.5,-56.17"/>
<text text-anchor="start" x="2144.5" y="-62.97" font-family="Times,serif" font-size="14.00">15</text>
<polygon fill="none" stroke="crimson" points="2115.5,-34.17 2115.5,-55.17 2140.5,-55.17 2140.5,-34.17 2115.5,-34.17"/>
<text text-anchor="start" x="2118.5" y="-40.97" font-family="Times,serif" font-size="14.00">14</text>
<polygon fill="lightsalmon" stroke="transparent" points="2141.5,-34.17 2141.5,-55.17 2166.5,-55.17 2166.5,-34.17 2141.5,-34.17"/>
<polygon fill="none" stroke="black" points="2141.5,-34.17 2141.5,-55.17 2166.5,-55.17 2166.5,-34.17 2141.5,-34.17"/>
<text text-anchor="start" x="2144.5" y="-40.97" font-family="Times,serif" font-size="14.00">15</text>
<polygon fill="none" stroke="#1c86ee" points="2167.5,-34.17 2167.5,-55.17 2192.5,-55.17 2192.5,-34.17 2167.5,-34.17"/>
<text text-anchor="start" x="2170.5" y="-40.97" font-family="Times,serif" font-size="14.00">16</text>
</g>
<!-- node16&#45;&gt;node15 -->
<g id="edge1" class="edge">
<title>node16:index&#45;&gt;node15:index</title>
<path fill="none" stroke="crimson" d="M2245,-67.17C2225.87,-67.17 2218.73,-67.17 2203.53,-67.17"/>
<polygon fill="crimson" stroke="crimson" points="2203.5,-63.67 2193.5,-67.17 2203.5,-70.67 2203.5,-63.67"/>
</g>
<!-- node0 -->
<g id="node3" class="node">
<title>node0</title>
<polygon fill="none" stroke="black" points="2418.75,-73.17 2358.75,-55.17 2418.75,-37.17 2478.74,-55.17 2418.75,-73.17"/>
<text text-anchor="middle" x="2418.75" y="-51.47" font-family="Times,serif" font-size="14.00">Fictive</text>
</g>
<!-- node16&#45;&gt;node0 -->
<g id="edge2" class="edge">
<title>node16:next&#45;&gt;node0</title>
<path fill="none" stroke="black" d="M2315,-44.17C2332.53,-44.17 2351.65,-45.77 2368.59,-47.75"/>
<polygon fill="black" stroke="black" points="2368.46,-51.26 2378.82,-49.03 2369.33,-44.32 2368.46,-51.26"/>
</g>
<!-- node15&#45;&gt;node16 -->
<g id="edge4" class="edge">
<title>node15:next&#45;&gt;node16:prev</title>
<path fill="none" stroke="#1c86ee" d="M2193.5,-44.17C2212.63,-44.17 2219.77,-44.17 2234.97,-44.17"/>
<polygon fill="#1c86ee" stroke="#1c86ee" points="2235,-47.67 2245,-44.17 2235,-40.67 2235,-47.67"/>
</g>
<!-- node14 -->
<g id="node4" class="node">
<title>node14</title>
<polygon fill="#ebebeb" stroke="transparent" points="1984.5,-56.17 1984.5,-77.17 2061.5,-77.17 2061.5,-56.17 1984.5,-56.17"/>
<polygon fill="none" stroke="black" points="1984.5,-56.17 1984.5,-77.17 2061.5,-77.17 2061.5,-56.17 1984.5,-56.17"/>
<text text-anchor="start" x="2013.5" y="-62.97" font-family="Times,serif" font-size="14.00">14</text>
<polygon fill="none" stroke="crimson" points="1984.5,-34.17 1984.5,-55.17 2009.5,-55.17 2009.5,-34.17 1984.5,-34.17"/>
<text text-anchor="start" x="1987.5" y="-40.97" font-family="Times,serif" font-size="14.00">13</text>
<polygon fill="lightsalmon" stroke="transparent" points="2010.5,-34.17 2010.5,-55.17 2035.5,-55.17 2035.5,-34.17 2010.5,-34.17"/>
<polygon fill="none" stroke="black" points="2010.5,-34.17 2010.5,-55.17 2035.5,-55.17 2035.5,-34.17 2010.5,-34.17"/>
<text text-anchor="start" x="2013.5" y="-40.97" font-family="Times,serif" font-size="14.00">14</text>
<polygon fill="none" stroke="#1c86ee" points="2036.5,-34.17 2036.5,-55.17 2061.5,-55.17 2061.5,-34.17 2036.5,-34.17"/>
<text text-anchor="start" x="2039.5" y="-40.97" font-family="Times,serif" font-size="14.00">15</text>
</g>
<!-- node15&#45;&gt;node14 -->
<g id="edge3" class="edge">
<title>node15:index&#45;&gt;node14:index</title>
<path fill="none" stroke="crimson" d="M2114.5,-67.17C2095.18,-67.17 2087.97,-67.17 2072.63,-67.17"/>
<polygon fill="crimson" stroke="crimson" points="2072.5,-63.67 2062.5,-67.17 2072.5,-70.67 2072.5,-63.67"/>
</g>
<!-- node0&#45;&gt;node16 -->
<g id="edge41" class="edge">
<title>node0&#45;&gt;node16:index</title>
<path fill="none" stroke="black" d="M2380.29,-61.66C2363.83,-64.06 2343.98,-66.35 2325.07,-66.99"/>
<polygon fill="black" stroke="black" points="2324.94,-63.49 2315,-67.17 2325.06,-70.49 2324.94,-63.49"/>
</g>
<!-- node14&#45;&gt;node15 -->
<g id="edge6" class="edge">
<title>node14:next&#45;&gt;node15:prev</title>
<path fill="none" stroke="#1c86ee" d="M2062.5,-44.17C2081.82,-44.17 2089.03,-44.17 2104.37,-44.17"/>
<polygon fill="#1c86ee" stroke="#1c86ee" points="2104.5,-47.67 2114.5,-44.17 2104.5,-40.67 2104.5,-47.67"/>
</g>
<!-- node13 -->
<g id="node5" class="node">
<title>node13</title>
<polygon fill="#ebebeb" stroke="transparent" points="1853.5,-56.17 1853.5,-77.17 1930.5,-77.17 1930.5,-56.17 1853.5,-56.17"/>
<polygon fill="none" stroke="black" points="1853.5,-56.17 1853.5,-77.17 1930.5,-77.17 1930.5,-56.17 1853.5,-56.17"/>
<text text-anchor="start" x="1882.5" y="-62.97" font-family="Times,serif" font-size="14.00">13</text>
<polygon fill="none" stroke="crimson" points="1853.5,-34.17 1853.5,-55.17 1878.5,-55.17 1878.5,-34.17 1853.5,-34.17"/>
<text text-anchor="start" x="1856.5" y="-40.97" font-family="Times,serif" font-size="14.00">12</text>
<polygon fill="lightsalmon" stroke="transparent" points="1879.5,-34.17 1879.5,-55.17 1904.5,-55.17 1904.5,-34.17 1879.5,-34.17"/>
<polygon fill="none" stroke="black" points="1879.5,-34.17 1879.5,-55.17 1904.5,-55.17 1904.5,-34.17 1879.5,-34.17"/>
<text text-anchor="start" x="1882.5" y="-40.97" font-family="Times,serif" font-size="14.00">13</text>
<polygon fill="none" stroke="#1c86ee" points="1905.5,-34.17 1905.5,-55.17 1930.5,-55.17 1930.5,-34.17 1905.5,-34.17"/>
<text text-anchor="start" x="1908.5" y="-40.97" font-family="Times,serif" font-size="14.00">14</text>
</g>
<!-- node14&#45;&gt;node13 -->
<g id="edge5" class="edge">
<title>node14:index&#45;&gt;node13:index</title>
<path fill="none" stroke="crimson" d="M1983.5,-67.17C1964.18,-67.17 1956.97,-67.17 1941.63,-67.17"/>
<polygon fill="crimson" stroke="crimson" points="1941.5,-63.67 1931.5,-67.17 1941.5,-70.67 1941.5,-63.67"/>
</g>
<!-- node13&#45;&gt;node14 -->
<g id="edge8" class="edge">
<title>node13:next&#45;&gt;node14:prev</title>
<path fill="none" stroke="#1c86ee" d="M1931.5,-44.17C1950.82,-44.17 1958.03,-44.17 1973.37,-44.17"/>
<polygon fill="#1c86ee" stroke="#1c86ee" points="1973.5,-47.67 1983.5,-44.17 1973.5,-40.67 1973.5,-47.67"/>
</g>
<!-- node12 -->
<g id="node6" class="node">
<title>node12</title>
<polygon fill="#ebebeb" stroke="transparent" points="1722.5,-56.17 1722.5,-77.17 1799.5,-77.17 1799.5,-56.17 1722.5,-56.17"/>
<polygon fill="none" stroke="black" points="1722.5,-56.17 1722.5,-77.17 1799.5,-77.17 1799.5,-56.17 1722.5,-56.17"/>
<text text-anchor="start" x="1751.5" y="-62.97" font-family="Times,serif" font-size="14.00">12</text>
<polygon fill="none" stroke="crimson" points="1722.5,-34.17 1722.5,-55.17 1747.5,-55.17 1747.5,-34.17 1722.5,-34.17"/>
<text text-anchor="start" x="1725.5" y="-40.97" font-family="Times,serif" font-size="14.00">11</text>
<polygon fill="lightsalmon" stroke="transparent" points="1748.5,-34.17 1748.5,-55.17 1773.5,-55.17 1773.5,-34.17 1748.5,-34.17"/>
<polygon fill="none" stroke="black" points="1748.5,-34.17 1748.5,-55.17 1773.5,-55.17 1773.5,-34.17 1748.5,-34.17"/>
<text text-anchor="start" x="1751.5" y="-40.97" font-family="Times,serif" font-size="14.00">12</text>
<polygon fill="none" stroke="#1c86ee" points="1774.5,-34.17 1774.5,-55.17 1799.5,-55.17 1799.5,-34.17 1774.5,-34.17"/>
<text text-anchor="start" x="1777.5" y="-40.97" font-family="Times,serif" font-size="14.00">13</text>
</g>
<!-- node13&#45;&gt;node12 -->
<g id="edge7" class="edge">
<title>node13:index&#45;&gt;node12:index</title>
<path fill="none" stroke="crimson" d="M1852.5,-67.17C1833.18,-67.17 1825.97,-67.17 1810.63,-67.17"/>
<polygon fill="crimson" stroke="crimson" points="1810.5,-63.67 1800.5,-67.17 1810.5,-70.67 1810.5,-63.67"/>
</g>
<!-- node12&#45;&gt;node13 -->
<g id="edge10" class="edge">
<title>node12:next&#45;&gt;node13:prev</title>
<path fill="none" stroke="#1c86ee" d="M1800.5,-44.17C1819.82,-44.17 1827.03,-44.17 1842.37,-44.17"/>
<polygon fill="#1c86ee" stroke="#1c86ee" points="1842.5,-47.67 1852.5,-44.17 1842.5,-40.67 1842.5,-47.67"/>
</g>
<!-- node11 -->
<g id="node7" class="node">
<title>node11</title>
<polygon fill="#ebebeb" stroke="transparent" points="1600,-56.17 1600,-77.17 1668,-77.17 1668,-56.17 1600,-56.17"/>
<polygon fill="none" stroke="black" points="1600,-56.17 1600,-77.17 1668,-77.17 1668,-56.17 1600,-56.17"/>
<text text-anchor="start" x="1624.5" y="-62.97" font-family="Times,serif" font-size="14.00">11</text>
<polygon fill="none" stroke="crimson" points="1600,-34.17 1600,-55.17 1616,-55.17 1616,-34.17 1600,-34.17"/>
<text text-anchor="start" x="1603" y="-40.97" font-family="Times,serif" font-size="14.00">9</text>
<polygon fill="lightsalmon" stroke="transparent" points="1617,-34.17 1617,-55.17 1642,-55.17 1642,-34.17 1617,-34.17"/>
<polygon fill="none" stroke="black" points="1617,-34.17 1617,-55.17 1642,-55.17 1642,-34.17 1617,-34.17"/>
<text text-anchor="start" x="1620" y="-40.97" font-family="Times,serif" font-size="14.00">11</text>
<polygon fill="none" stroke="#1c86ee" points="1643,-34.17 1643,-55.17 1668,-55.17 1668,-34.17 1643,-34.17"/>
<text text-anchor="start" x="1646" y="-40.97" font-family="Times,serif" font-size="14.00">12</text>
</g>
<!-- node12&#45;&gt;node11 -->
<g id="edge9" class="edge">
<title>node12:index&#45;&gt;node11:index</title>
<path fill="none" stroke="crimson" d="M1721.5,-67.17C1701.99,-67.17 1694.72,-67.17 1679.23,-67.17"/>
<polygon fill="crimson" stroke="crimson" points="1679,-63.67 1669,-67.17 1679,-70.67 1679,-63.67"/>
</g>
<!-- node11&#45;&gt;node12 -->
<g id="edge12" class="edge">
<title>node11:next&#45;&gt;node12:prev</title>
<path fill="none" stroke="#1c86ee" d="M1669,-44.17C1688.51,-44.17 1695.78,-44.17 1711.27,-44.17"/>
<polygon fill="#1c86ee" stroke="#1c86ee" points="1711.5,-47.67 1721.5,-44.17 1711.5,-40.67 1711.5,-47.67"/>
</g>
<!-- node9 -->
<g id="node8" class="node">
<title>node9</title>
<polygon fill="#ebebeb" stroke="transparent" points="1487.5,-56.17 1487.5,-77.17 1546.5,-77.17 1546.5,-56.17 1487.5,-56.17"/>
<polygon fill="none" stroke="black" points="1487.5,-56.17 1487.5,-77.17 1546.5,-77.17 1546.5,-56.17 1487.5,-56.17"/>
<text text-anchor="start" x="1512" y="-62.97" font-family="Times,serif" font-size="14.00">9</text>
<polygon fill="none" stroke="crimson" points="1487.5,-34.17 1487.5,-55.17 1503.5,-55.17 1503.5,-34.17 1487.5,-34.17"/>
<text text-anchor="start" x="1490.5" y="-40.97" font-family="Times,serif" font-size="14.00">7</text>
<polygon fill="lightsalmon" stroke="transparent" points="1504.5,-34.17 1504.5,-55.17 1520.5,-55.17 1520.5,-34.17 1504.5,-34.17"/>
<polygon fill="none" stroke="black" points="1504.5,-34.17 1504.5,-55.17 1520.5,-55.17 1520.5,-34.17 1504.5,-34.17"/>
<text text-anchor="start" x="1507.5" y="-40.97" font-family="Times,serif" font-size="14.00">9</text>
<polygon fill="none" stroke="#1c86ee" points="1521.5,-34.17 1521.5,-55.17 1546.5,-55.17 1546.5,-34.17 1521.5,-34.17"/>
<text text-anchor="start" x="1524.5" y="-40.97" font-family="Times,serif" font-size="14.00">11</text>
</g>
<!-- node11&#45;&gt;node9 -->
<g id="edge11" class="edge">
<title>node11:index&#45;&gt;node9:index</title>
<path fill="none" stroke="crimson" d="M1599,-67.17C1579.87,-67.17 1572.73,-67.17 1557.53,-67.17"/>
<polygon fill="crimson" stroke="crimson" points="1557.5,-63.67 1547.5,-67.17 1557.5,-70.67 1557.5,-63.67"/>
</g>
<!-- node9&#45;&gt;node11 -->
<g id="edge14" class="edge">
<title>node9:next&#45;&gt;node11:prev</title>
<path fill="none" stroke="#1c86ee" d="M1547.5,-44.17C1566.63,-44.17 1573.77,-44.17 1588.97,-44.17"/>
<polygon fill="#1c86ee" stroke="#1c86ee" points="1589,-47.67 1599,-44.17 1589,-40.67 1589,-47.67"/>
</g>
<!-- node7 -->
<g id="node9" class="node">
<title>node7</title>
<polygon fill="#ebebeb" stroke="transparent" points="1383,-56.17 1383,-77.17 1433,-77.17 1433,-56.17 1383,-56.17"/>
<polygon fill="none" stroke="black" points="1383,-56.17 1383,-77.17 1433,-77.17 1433,-56.17 1383,-56.17"/>
<text text-anchor="start" x="1403" y="-62.97" font-family="Times,serif" font-size="14.00">7</text>
<polygon fill="none" stroke="crimson" points="1383,-34.17 1383,-55.17 1399,-55.17 1399,-34.17 1383,-34.17"/>
<text text-anchor="start" x="1386" y="-40.97" font-family="Times,serif" font-size="14.00">6</text>
<polygon fill="lightsalmon" stroke="transparent" points="1400,-34.17 1400,-55.17 1416,-55.17 1416,-34.17 1400,-34.17"/>
<polygon fill="none" stroke="black" points="1400,-34.17 1400,-55.17 1416,-55.17 1416,-34.17 1400,-34.17"/>
<text text-anchor="start" x="1403" y="-40.97" font-family="Times,serif" font-size="14.00">7</text>
<polygon fill="none" stroke="#1c86ee" points="1417,-34.17 1417,-55.17 1433,-55.17 1433,-34.17 1417,-34.17"/>
<text text-anchor="start" x="1420" y="-40.97" font-family="Times,serif" font-size="14.00">9</text>
</g>
<!-- node9&#45;&gt;node7 -->
<g id="edge13" class="edge">
<title>node9:index&#45;&gt;node7:index</title>
<path fill="none" stroke="crimson" d="M1486.5,-67.17C1466.99,-67.17 1459.72,-67.17 1444.23,-67.17"/>
<polygon fill="crimson" stroke="crimson" points="1444,-63.67 1434,-67.17 1444,-70.67 1444,-63.67"/>
</g>
<!-- node7&#45;&gt;node9 -->
<g id="edge16" class="edge">
<title>node7:next&#45;&gt;node9:prev</title>
<path fill="none" stroke="#1c86ee" d="M1434,-44.17C1453.51,-44.17 1460.78,-44.17 1476.27,-44.17"/>
<polygon fill="#1c86ee" stroke="#1c86ee" points="1476.5,-47.67 1486.5,-44.17 1476.5,-40.67 1476.5,-47.67"/>
</g>
<!-- node6 -->
<g id="node10" class="node">
<title>node6</title>
<polygon fill="#ebebeb" stroke="transparent" points="1279,-56.17 1279,-77.17 1329,-77.17 1329,-56.17 1279,-56.17"/>
<polygon fill="none" stroke="black" points="1279,-56.17 1279,-77.17 1329,-77.17 1329,-56.17 1279,-56.17"/>
<text text-anchor="start" x="1299" y="-62.97" font-family="Times,serif" font-size="14.00">6</text>
<polygon fill="none" stroke="crimson" points="1279,-34.17 1279,-55.17 1295,-55.17 1295,-34.17 1279,-34.17"/>
<text text-anchor="start" x="1282" y="-40.97" font-family="Times,serif" font-size="14.00">5</text>
<polygon fill="lightsalmon" stroke="transparent" points="1296,-34.17 1296,-55.17 1312,-55.17 1312,-34.17 1296,-34.17"/>
<polygon fill="none" stroke="black" points="1296,-34.17 1296,-55.17 1312,-55.17 1312,-34.17 1296,-34.17"/>
<text text-anchor="start" x="1299" y="-40.97" font-family="Times,serif" font-size="14.00">6</text>
<polygon fill="none" stroke="#1c86ee" points="1313,-34.17 1313,-55.17 1329,-55.17 1329,-34.17 1313,-34.17"/>
<text text-anchor="start" x="1316" y="-40.97" font-family="Times,serif" font-size="14.00">7</text>
</g>
<!-- node7&#45;&gt;node6 -->
<g id="edge15" class="edge">
<title>node7:index&#45;&gt;node6:index</title>
<path fill="none" stroke="crimson" d="M1382,-67.17C1362.68,-67.17 1355.47,-67.17 1340.13,-67.17"/>
<polygon fill="crimson" stroke="crimson" points="1340,-63.67 1330,-67.17 1340,-70.67 1340,-63.67"/>
</g>
<!-- node6&#45;&gt;node7 -->
<g id="edge18" class="edge">
<title>node6:next&#45;&gt;node7:prev</title>
<path fill="none" stroke="#1c86ee" d="M1330,-44.17C1349.32,-44.17 1356.53,-44.17 1371.87,-44.17"/>
<polygon fill="#1c86ee" stroke="#1c86ee" points="1372,-47.67 1382,-44.17 1372,-40.67 1372,-47.67"/>
</g>
<!-- node5 -->
<g id="node11" class="node">
<title>node5</title>
<polygon fill="#ebebeb" stroke="transparent" points="1175,-56.17 1175,-77.17 1225,-77.17 1225,-56.17 1175,-56.17"/>
<polygon fill="none" stroke="black" points="1175,-56.17 1175,-77.17 1225,-77.17 1225,-56.17 1175,-56.17"/>
<text text-anchor="start" x="1195" y="-62.97" font-family="Times,serif" font-size="14.00">5</text>
<polygon fill="none" stroke="crimson" points="1175,-34.17 1175,-55.17 1191,-55.17 1191,-34.17 1175,-34.17"/>
<text text-anchor="start" x="1178" y="-40.97" font-family="Times,serif" font-size="14.00">4</text>
<polygon fill="lightsalmon" stroke="transparent" points="1192,-34.17 1192,-55.17 1208,-55.17 1208,-34.17 1192,-34.17"/>
<polygon fill="none" stroke="black" points="1192,-34.17 1192,-55.17 1208,-55.17 1208,-34.17 1192,-34.17"/>
<text text-anchor="start" x="1195" y="-40.97" font-family="Times,serif" font-size="14.00">5</text>
<polygon fill="none" stroke="#1c86ee" points="1209,-34.17 1209,-55.17 1225,-55.17 1225,-34.17 1209,-34.17"/>
<text text-anchor="start" x="1212" y="-40.97" font-family="Times,serif" font-size="14.00">6</text>
</g>
<!-- node6&#45;&gt;node5 -->
<g id="edge17" class="edge">
<title>node6:index&#45;&gt;node5:index</title>
<path fill="none" stroke="crimson" d="M1278,-67.17C1258.68,-67.17 1251.47,-67.17 1236.13,-67.17"/>
<polygon fill="crimson" stroke="crimson" points="1236,-63.67 1226,-67.17 1236,-70.67 1236,-63.67"/>
</g>
<!-- node5&#45;&gt;node6 -->
<g id="edge20" class="edge">
<title>node5:next&#45;&gt;node6:prev</title>
<path fill="none" stroke="#1c86ee" d="M1226,-44.17C1245.32,-44.17 1252.53,-44.17 1267.87,-44.17"/>
<polygon fill="#1c86ee" stroke="#1c86ee" points="1268,-47.67 1278,-44.17 1268,-40.67 1268,-47.67"/>
</g>
<!-- node4 -->
<g id="node12" class="node">
<title>node4</title>
<polygon fill="#ebebeb" stroke="transparent" points="1071,-56.17 1071,-77.17 1121,-77.17 1121,-56.17 1071,-56.17"/>
<polygon fill="none" stroke="black" points="1071,-56.17 1071,-77.17 1121,-77.17 1121,-56.17 1071,-56.17"/>
<text text-anchor="start" x="1091" y="-62.97" font-family="Times,serif" font-size="14.00">4</text>
<polygon fill="none" stroke="crimson" points="1071,-34.17 1071,-55.17 1087,-55.17 1087,-34.17 1071,-34.17"/>
<text text-anchor="start" x="1074" y="-40.97" font-family="Times,serif" font-size="14.00">3</text>
<polygon fill="lightsalmon" stroke="transparent" points="1088,-34.17 1088,-55.17 1104,-55.17 1104,-34.17 1088,-34.17"/>
<polygon fill="none" stroke="black" points="1088,-34.17 1088,-55.17 1104,-55.17 1104,-34.17 1088,-34.17"/>
<text text-anchor="start" x="1091" y="-40.97" font-family="Times,serif" font-size="14.00">4</text>
<polygon fill="none" stroke="#1c86ee" points="1105,-34.17 1105,-55.17 1121,-55.17 1121,-34.17 1105,-34.17"/>
<text text-anchor="start" x="1108" y="-40.97" font-family="Times,serif" font-size="14.00">5</text>
</g>
<!-- node5&#45;&gt;node4 -->
<g id="edge19" class="edge">
<title>node5:index&#45;&gt;node4:index</title>
<path fill="none" stroke="crimson" d="M1174,-67.17C1154.68,-67.17 1147.47,-67.17 1132.13,-67.17"/>
<polygon fill="crimson" stroke="crimson" points="1132,-63.67 1122,-67.17 1132,-70.67 1132,-63.67"/>
</g>
<!-- node4&#45;&gt;node5 -->
<g id="edge22" class="edge">
<title>node4:next&#45;&gt;node5:prev</title>
<path fill="none" stroke="#1c86ee" d="M1122,-44.17C1141.32,-44.17 1148.53,-44.17 1163.87,-44.17"/>
<polygon fill="#1c86ee" stroke="#1c86ee" points="1164,-47.67 1174,-44.17 1164,-40.67 1164,-47.67"/>
</g>
<!-- node3 -->
<g id="node13" class="node">
<title>node3</title>
<polygon fill="#ebebeb" stroke="transparent" points="967,-56.17 967,-77.17 1017,-77.17 1017,-56.17 967,-56.17"/>
<polygon fill="none" stroke="black" points="967,-56.17 967,-77.17 1017,-77.17 1017,-56.17 967,-56.17"/>
<text text-anchor="start" x="987" y="-62.97" font-family="Times,serif" font-size="14.00">3</text>
<polygon fill="none" stroke="crimson" points="967,-34.17 967,-55.17 983,-55.17 983,-34.17 967,-34.17"/>
<text text-anchor="start" x="970" y="-40.97" font-family="Times,serif" font-size="14.00">2</text>
<polygon fill="lightsalmon" stroke="transparent" points="984,-34.17 984,-55.17 1000,-55.17 1000,-34.17 984,-34.17"/>
<polygon fill="none" stroke="black" points="984,-34.17 984,-55.17 1000,-55.17 1000,-34.17 984,-34.17"/>
<text text-anchor="start" x="987" y="-40.97" font-family="Times,serif" font-size="14.00">3</text>
<polygon fill="none" stroke="#1c86ee" points="1001,-34.17 1001,-55.17 1017,-55.17 1017,-34.17 1001,-34.17"/>
<text text-anchor="start" x="1004" y="-40.97" font-family="Times,serif" font-size="14.00">4</text>
</g>
<!-- node4&#45;&gt;node3 -->
<g id="edge21" class="edge">
<title>node4:index&#45;&gt;node3:index</title>
<path fill="none" stroke="crimson" d="M1070,-67.17C1050.68,-67.17 1043.47,-67.17 1028.13,-67.17"/>
<polygon fill="crimson" stroke="crimson" points="1028,-63.67 1018,-67.17 1028,-70.67 1028,-63.67"/>
</g>
<!-- node3&#45;&gt;node4 -->
<g id="edge24" class="edge">
<title>node3:next&#45;&gt;node4:prev</title>
<path fill="none" stroke="#1c86ee" d="M1018,-44.17C1037.32,-44.17 1044.53,-44.17 1059.87,-44.17"/>
<polygon fill="#1c86ee" stroke="#1c86ee" points="1060,-47.67 1070,-44.17 1060,-40.67 1060,-47.67"/>
</g>
<!-- node2 -->
<g id="node14" class="node">
<title>node2</title>
<polygon fill="#ebebeb" stroke="transparent" points="863,-56.17 863,-77.17 913,-77.17 913,-56.17 863,-56.17"/>
<polygon fill="none" stroke="black" points="863,-56.17 863,-77.17 913,-77.17 913,-56.17 863,-56.17"/>
<text text-anchor="start" x="883" y="-62.97" font-family="Times,serif" font-size="14.00">2</text>
<polygon fill="none" stroke="crimson" points="863,-34.17 863,-55.17 879,-55.17 879,-34.17 863,-34.17"/>
<text text-anchor="start" x="866" y="-40.97" font-family="Times,serif" font-size="14.00">1</text>
<polygon fill="lightsalmon" stroke="transparent" points="880,-34.17 880,-55.17 896,-55.17 896,-34.17 880,-34.17"/>
<polygon fill="none" stroke="black" points="880,-34.17 880,-55.17 896,-55.17 896,-34.17 880,-34.17"/>
<text text-anchor="start" x="883" y="-40.97" font-family="Times,serif" font-size="14.00">2</text>
<polygon fill="none" stroke="#1c86ee" points="897,-34.17 897,-55.17 913,-55.17 913,-34.17 897,-34.17"/>
<text text-anchor="start" x="900" y="-40.97" font-family="Times,serif" font-size="14.00">3</text>
</g>
<!-- node3&#45;&gt;node2 -->
<g id="edge23" class="edge">
<title>node3:index&#45;&gt;node2:index</title>
<path fill="none" stroke="crimson" d="M966,-67.17C946.68,-67.17 939.47,-67.17 924.13,-67.17"/>
<polygon fill="crimson" stroke="crimson" points="924,-63.67 914,-67.17 924,-70.67 924,-63.67"/>
</g>
<!-- node2&#45;&gt;node3 -->
<g id="edge26" class="edge">
<title>node2:next&#45;&gt;node3:prev</title>
<path fill="none" stroke="#1c86ee" d="M914,-44.17C933.32,-44.17 940.53,-44.17 955.87,-44.17"/>
<polygon fill="#1c86ee" stroke="#1c86ee" points="956,-47.67 966,-44.17 956,-40.67 956,-47.67"/>
</g>
<!-- node1 -->
<g id="node15" class="node">
<title>node1</title>
<polygon fill="#ebebeb" stroke="transparent" points="759,-56.17 759,-77.17 809,-77.17 809,-56.17 759,-56.17"/>
<polygon fill="none" stroke="black" points="759,-56.17 759,-77.17 809,-77.17 809,-56.17 759,-56.17"/>
<text text-anchor="start" x="779" y="-62.97" font-family="Times,serif" font-size="14.00">1</text>
<polygon fill="none" stroke="crimson" points="759,-34.17 759,-55.17 775,-55.17 775,-34.17 759,-34.17"/>
<text text-anchor="start" x="762" y="-40.97" font-family="Times,serif" font-size="14.00">8</text>
<polygon fill="lightsalmon" stroke="transparent" points="776,-34.17 776,-55.17 792,-55.17 792,-34.17 776,-34.17"/>
<polygon fill="none" stroke="black" points="776,-34.17 776,-55.17 792,-55.17 792,-34.17 776,-34.17"/>
<text text-anchor="start" x="779" y="-40.97" font-family="Times,serif" font-size="14.00">1</text>
<polygon fill="none" stroke="#1c86ee" points="793,-34.17 793,-55.17 809,-55.17 809,-34.17 793,-34.17"/>
<text text-anchor="start" x="796" y="-40.97" font-family="Times,serif" font-size="14.00">2</text>
</g>
<!-- node2&#45;&gt;node1 -->
<g id="edge25" class="edge">
<title>node2:index&#45;&gt;node1:index</title>
<path fill="none" stroke="crimson" d="M862,-67.17C842.68,-67.17 835.47,-67.17 820.13,-67.17"/>
<polygon fill="crimson" stroke="crimson" points="820,-63.67 810,-67.17 820,-70.67 820,-63.67"/>
</g>
<!-- node1&#45;&gt;node2 -->
<g id="edge28" class="edge">
<title>node1:next&#45;&gt;node2:prev</title>
<path fill="none" stroke="#1c86ee" d="M810,-44.17C829.32,-44.17 836.53,-44.17 851.87,-44.17"/>
<polygon fill="#1c86ee" stroke="#1c86ee" points="852,-47.67 862,-44.17 852,-40.67 852,-47.67"/>
</g>
<!-- node8 -->
<g id="node16" class="node">
<title>node8</title>
<polygon fill="#ebebeb" stroke="transparent" points="646.5,-56.17 646.5,-77.17 705.5,-77.17 705.5,-56.17 646.5,-56.17"/>
<polygon fill="none" stroke="black" points="646.5,-56.17 646.5,-77.17 705.5,-77.17 705.5,-56.17 646.5,-56.17"/>
<text text-anchor="start" x="671" y="-62.97" font-family="Times,serif" font-size="14.00">8</text>
<polygon fill="none" stroke="crimson" points="646.5,-34.17 646.5,-55.17 671.5,-55.17 671.5,-34.17 646.5,-34.17"/>
<text text-anchor="start" x="649.5" y="-40.97" font-family="Times,serif" font-size="14.00">10</text>
<polygon fill="lightsalmon" stroke="transparent" points="672.5,-34.17 672.5,-55.17 688.5,-55.17 688.5,-34.17 672.5,-34.17"/>
<polygon fill="none" stroke="black" points="672.5,-34.17 672.5,-55.17 688.5,-55.17 688.5,-34.17 672.5,-34.17"/>
<text text-anchor="start" x="675.5" y="-40.97" font-family="Times,serif" font-size="14.00">8</text>
<polygon fill="none" stroke="#1c86ee" points="689.5,-34.17 689.5,-55.17 705.5,-55.17 705.5,-34.17 689.5,-34.17"/>
<text text-anchor="start" x="692.5" y="-40.97" font-family="Times,serif" font-size="14.00">1</text>
</g>
<!-- node1&#45;&gt;node8 -->
<g id="edge27" class="edge">
<title>node1:index&#45;&gt;node8:index</title>
<path fill="none" stroke="crimson" d="M758,-67.17C738.87,-67.17 731.73,-67.17 716.53,-67.17"/>
<polygon fill="crimson" stroke="crimson" points="716.5,-63.67 706.5,-67.17 716.5,-70.67 716.5,-63.67"/>
</g>
<!-- node8&#45;&gt;node1 -->
<g id="edge30" class="edge">
<title>node8:next&#45;&gt;node1:prev</title>
<path fill="none" stroke="#1c86ee" d="M706.5,-44.17C725.63,-44.17 732.77,-44.17 747.97,-44.17"/>
<polygon fill="#1c86ee" stroke="#1c86ee" points="748,-47.67 758,-44.17 748,-40.67 748,-47.67"/>
</g>
<!-- node10 -->
<g id="node17" class="node">
<title>node10</title>
<polygon fill="#ebebeb" stroke="transparent" points="524,-56.17 524,-77.17 592,-77.17 592,-56.17 524,-56.17"/>
<polygon fill="none" stroke="black" points="524,-56.17 524,-77.17 592,-77.17 592,-56.17 524,-56.17"/>
<text text-anchor="start" x="548.5" y="-62.97" font-family="Times,serif" font-size="14.00">10</text>
<polygon fill="none" stroke="crimson" points="524,-34.17 524,-55.17 549,-55.17 549,-34.17 524,-34.17"/>
<text text-anchor="start" x="527" y="-40.97" font-family="Times,serif" font-size="14.00">17</text>
<polygon fill="lightsalmon" stroke="transparent" points="550,-34.17 550,-55.17 575,-55.17 575,-34.17 550,-34.17"/>
<polygon fill="none" stroke="black" points="550,-34.17 550,-55.17 575,-55.17 575,-34.17 550,-34.17"/>
<text text-anchor="start" x="553" y="-40.97" font-family="Times,serif" font-size="14.00">10</text>
<polygon fill="none" stroke="#1c86ee" points="576,-34.17 576,-55.17 592,-55.17 592,-34.17 576,-34.17"/>
<text text-anchor="start" x="579" y="-40.97" font-family="Times,serif" font-size="14.00">8</text>
</g>
<!-- node8&#45;&gt;node10 -->
<g id="edge29" class="edge">
<title>node8:index&#45;&gt;node10:index</title>
<path fill="none" stroke="crimson" d="M645.5,-67.17C625.99,-67.17 618.72,-67.17 603.23,-67.17"/>
<polygon fill="crimson" stroke="crimson" points="603,-63.67 593,-67.17 603,-70.67 603,-63.67"/>
</g>
<!-- node10&#45;&gt;node8 -->
<g id="edge32" class="edge">
<title>node10:next&#45;&gt;node8:prev</title>
<path fill="none" stroke="#1c86ee" d="M593,-44.17C612.51,-44.17 619.78,-44.17 635.27,-44.17"/>
<polygon fill="#1c86ee" stroke="#1c86ee" points="635.5,-47.67 645.5,-44.17 635.5,-40.67 635.5,-47.67"/>
</g>
<!-- node17 -->
<g id="node18" class="node">
<title>node17</title>
<polygon fill="#ebebeb" stroke="transparent" points="393.5,-56.17 393.5,-77.17 470.5,-77.17 470.5,-56.17 393.5,-56.17"/>
<polygon fill="none" stroke="black" points="393.5,-56.17 393.5,-77.17 470.5,-77.17 470.5,-56.17 393.5,-56.17"/>
<text text-anchor="start" x="422.5" y="-62.97" font-family="Times,serif" font-size="14.00">17</text>
<polygon fill="none" stroke="crimson" points="393.5,-34.17 393.5,-55.17 418.5,-55.17 418.5,-34.17 393.5,-34.17"/>
<text text-anchor="start" x="396.5" y="-40.97" font-family="Times,serif" font-size="14.00">18</text>
<polygon fill="lightsalmon" stroke="transparent" points="419.5,-34.17 419.5,-55.17 444.5,-55.17 444.5,-34.17 419.5,-34.17"/>
<polygon fill="none" stroke="black" points="419.5,-34.17 419.5,-55.17 444.5,-55.17 444.5,-34.17 419.5,-34.17"/>
<text text-anchor="start" x="422.5" y="-40.97" font-family="Times,serif" font-size="14.00">17</text>
<polygon fill="none" stroke="#1c86ee" points="445.5,-34.17 445.5,-55.17 470.5,-55.17 470.5,-34.17 445.5,-34.17"/>
<text text-anchor="start" x="448.5" y="-40.97" font-family="Times,serif" font-size="14.00">10</text>
</g>
<!-- node10&#45;&gt;node17 -->
<g id="edge31" class="edge">
<title>node10:index&#45;&gt;node17:index</title>
<path fill="none" stroke="crimson" d="M523,-67.17C503.87,-67.17 496.73,-67.17 481.53,-67.17"/>
<polygon fill="crimson" stroke="crimson" points="481.5,-63.67 471.5,-67.17 481.5,-70.67 481.5,-63.67"/>
</g>
<!-- node17&#45;&gt;node10 -->
<g id="edge34" class="edge">
<title>node17:next&#45;&gt;node10:prev</title>
<path fill="none" stroke="#1c86ee" d="M471.5,-44.17C490.63,-44.17 497.77,-44.17 512.97,-44.17"/>
<polygon fill="#1c86ee" stroke="#1c86ee" points="513,-47.67 523,-44.17 513,-40.67 513,-47.67"/>
</g>
<!-- node18 -->
<g id="node19" class="node">
<title>node18</title>
<polygon fill="#ebebeb" stroke="transparent" points="262.5,-56.17 262.5,-77.17 339.5,-77.17 339.5,-56.17 262.5,-56.17"/>
<polygon fill="none" stroke="black" points="262.5,-56.17 262.5,-77.17 339.5,-77.17 339.5,-56.17 262.5,-56.17"/>
<text text-anchor="start" x="291.5" y="-62.97" font-family="Times,serif" font-size="14.00">18</text>
<polygon fill="none" stroke="crimson" points="262.5,-34.17 262.5,-55.17 287.5,-55.17 287.5,-34.17 262.5,-34.17"/>
<text text-anchor="start" x="265.5" y="-40.97" font-family="Times,serif" font-size="14.00">19</text>
<polygon fill="lightsalmon" stroke="transparent" points="288.5,-34.17 288.5,-55.17 313.5,-55.17 313.5,-34.17 288.5,-34.17"/>
<polygon fill="none" stroke="black" points="288.5,-34.17 288.5,-55.17 313.5,-55.17 313.5,-34.17 288.5,-34.17"/>
<text text-anchor="start" x="291.5" y="-40.97" font-family="Times,serif" font-size="14.00">18</text>
<polygon fill="none" stroke="#1c86ee" points="314.5,-34.17 314.5,-55.17 339.5,-55.17 339.5,-34.17 314.5,-34.17"/>
<text text-anchor="start" x="317.5" y="-40.97" font-family="Times,serif" font-size="14.00">17</text>
</g>
<!-- node17&#45;&gt;node18 -->
<g id="edge33" class="edge">
<title>node17:index&#45;&gt;node18:index</title>
<path fill="none" stroke="crimson" d="M392.5,-67.17C373.18,-67.17 365.97,-67.17 350.63,-67.17"/>
<polygon fill="crimson" stroke="crimson" points="350.5,-63.67 340.5,-67.17 350.5,-70.67 350.5,-63.67"/>
</g>
<!-- node18&#45;&gt;node17 -->
<g id="edge36" class="edge">
<title>node18:next&#45;&gt;node17:prev</title>
<path fill="none" stroke="#1c86ee" d="M340.5,-44.17C359.82,-44.17 367.03,-44.17 382.37,-44.17"/>
<polygon fill="#1c86ee" stroke="#1c86ee" points="382.5,-47.67 392.5,-44.17 382.5,-40.67 382.5,-47.67"/>
</g>
<!-- node19 -->
<g id="node20" class="node">
<title>node19</title>
<polygon fill="#ebebeb" stroke="transparent" points="131.5,-56.17 131.5,-77.17 208.5,-77.17 208.5,-56.17 131.5,-56.17"/>
<polygon fill="none" stroke="black" points="131.5,-56.17 131.5,-77.17 208.5,-77.17 208.5,-56.17 131.5,-56.17"/>
<text text-anchor="start" x="160.5" y="-62.97" font-family="Times,serif" font-size="14.00">19</text>
<polygon fill="none" stroke="crimson" points="131.5,-34.17 131.5,-55.17 156.5,-55.17 156.5,-34.17 131.5,-34.17"/>
<text text-anchor="start" x="134.5" y="-40.97" font-family="Times,serif" font-size="14.00">20</text>
<polygon fill="lightsalmon" stroke="transparent" points="157.5,-34.17 157.5,-55.17 182.5,-55.17 182.5,-34.17 157.5,-34.17"/>
<polygon fill="none" stroke="black" points="157.5,-34.17 157.5,-55.17 182.5,-55.17 182.5,-34.17 157.5,-34.17"/>
<text text-anchor="start" x="160.5" y="-40.97" font-family="Times,serif" font-size="14.00">19</text>
<polygon fill="none" stroke="#1c86ee" points="183.5,-34.17 183.5,-55.17 208.5,-55.17 208.5,-34.17 183.5,-34.17"/>
<text text-anchor="start" x="186.5" y="-40.97" font-family="Times,serif" font-size="14.00">18</text>
</g>
<!-- node18&#45;&gt;node19 -->
<g id="edge35" class="edge">
<title>node18:index&#45;&gt;node19:index</title>
<path fill="none" stroke="crimson" d="M261.5,-67.17C242.18,-67.17 234.97,-67.17 219.63,-67.17"/>
<polygon fill="crimson" stroke="crimson" points="219.5,-63.67 209.5,-67.17 219.5,-70.67 219.5,-63.67"/>
</g>
<!-- node19&#45;&gt;node18 -->
<g id="edge38" class="edge">
<title>node19:next&#45;&gt;node18:prev</title>
<path fill="none" stroke="#1c86ee" d="M209.5,-44.17C228.82,-44.17 236.03,-44.17 251.37,-44.17"/>
<polygon fill="#1c86ee" stroke="#1c86ee" points="251.5,-47.67 261.5,-44.17 251.5,-40.67 251.5,-47.67"/>
</g>
<!-- node20 -->
<g id="node21" class="node">
<title>node20</title>
<polygon fill="#ebebeb" stroke="transparent" points="9,-56.17 9,-77.17 77,-77.17 77,-56.17 9,-56.17"/>
<polygon fill="none" stroke="black" points="9,-56.17 9,-77.17 77,-77.17 77,-56.17 9,-56.17"/>
<text text-anchor="start" x="33.5" y="-62.97" font-family="Times,serif" font-size="14.00">20</text>
<polygon fill="none" stroke="crimson" points="9,-34.17 9,-55.17 25,-55.17 25,-34.17 9,-34.17"/>
<text text-anchor="start" x="12" y="-40.97" font-family="Times,serif" font-size="14.00">0</text>
<polygon fill="lightsalmon" stroke="transparent" points="26,-34.17 26,-55.17 51,-55.17 51,-34.17 26,-34.17"/>
<polygon fill="none" stroke="black" points="26,-34.17 26,-55.17 51,-55.17 51,-34.17 26,-34.17"/>
<text text-anchor="start" x="29" y="-40.97" font-family="Times,serif" font-size="14.00">20</text>
<polygon fill="none" stroke="#1c86ee" points="52,-34.17 52,-55.17 77,-55.17 77,-34.17 52,-34.17"/>
<text text-anchor="start" x="55" y="-40.97" font-family="Times,serif" font-size="14.00">19</text>
</g>
<!-- node19&#45;&gt;node20 -->
<g id="edge37" class="edge">
<title>node19:index&#45;&gt;node20:index</title>
<path fill="none" stroke="crimson" d="M130.5,-67.17C110.99,-67.17 103.72,-67.17 88.23,-67.17"/>
<polygon fill="crimson" stroke="crimson" points="88,-63.67 78,-67.17 88,-70.67 88,-63.67"/>
</g>
<!-- node20&#45;&gt;node0 -->
<g id="edge39" class="edge">
<title>node20:index&#45;&gt;node0</title>
<path fill="none" stroke="black" d="M78,-67.17C100.49,-67.17 100.59,-85.27 122,-92.17 197.52,-116.5 220.16,-111.17 299.5,-111.17 299.5,-111.17 299.5,-111.17 2154.5,-111.17 2229.86,-111.17 2249.84,-110.25 2323,-92.17 2344.26,-86.91 2367.16,-78.06 2385.12,-70.34"/>
<polygon fill="black" stroke="black" points="2386.8,-73.42 2394.55,-66.19 2383.99,-67.01 2386.8,-73.42"/>
</g>
<!-- node20&#45;&gt;node0 -->
<g id="edge42" class="edge">
<title>node20:next&#45;&gt;node0</title>
<path fill="none" stroke="black" d="M78,-44.17C100.28,-44.17 100.74,-26.81 122,-20.17 197.73,3.5 220.16,-1.17 299.5,-1.17 299.5,-1.17 299.5,-1.17 2154.5,-1.17 2229.86,-1.17 2249.67,-2.76 2323,-20.17 2343.87,-25.12 2366.43,-33.34 2384.3,-40.56"/>
<polygon fill="black" stroke="black" points="2383.13,-43.86 2393.71,-44.45 2385.8,-37.39 2383.13,-43.86"/>
</g>
<!-- node20&#45;&gt;node19 -->
<g id="edge40" class="edge">
<title>node20:next&#45;&gt;node19:prev</title>
<path fill="none" stroke="#1c86ee" d="M78,-44.17C97.51,-44.17 104.78,-44.17 120.27,-44.17"/>
<polygon fill="#1c86ee" stroke="#1c86ee" points="120.5,-47.67 130.5,-44.17 120.5,-40.67 120.5,-47.67"/>
</g>
</g>
</svg>
