<?xml version="1.0" encoding="UTF-8" standalone="no"?>
<!DOCTYPE svg PUBLIC "-//W3C//DTD SVG 1.1//EN"
 "http://www.w3.org/Graphics/SVG/1.1/DTD/svg11.dtd">
<!-- Generated by graphviz version 2.43.0 (0)
 -->
<!-- Title: list Pages: 1 -->
<svg width="543pt" height="171pt"
 viewBox="0.00 0.00 543.49 171.40" xmlns="http://www.w3.org/2000/svg" xmlns:xlink="http://www.w3.org/1999/xlink">
<g id="graph0" class="graph" transform="scale(1 1) rotate(0) translate(4 167.4)">
<title>list</title>
<polygon fill="white" stroke="transparent" points="-4,4 -4,-167.4 539.49,-167.4 539.49,4 -4,4"/>
<!-- node3 -->
<g id="node1" class="node">
<title>node3</title>
<polygon fill="#ebebeb" stroke="transparent" points="9,-108.22 9,-129.22 59,-129.22 59,-108.22 9,-108.22"/>
<polygon fill="none" stroke="black" points="9,-108.22 9,-129.22 59,-129.22 59,-108.22 9,-108.22"/>
<text text-anchor="start" x="29" y="-115.02" font-family="Times,serif" font-size="14.00">3</text>
<polygon fill="none" stroke="crimson" points="9,-86.22 9,-107.22 25,-107.22 25,-86.22 9,-86.22"/>
<text text-anchor="start" x="12" y="-93.02" font-family="Times,serif" font-size="14.00">0</text>
<polygon fill="lightsalmon" stroke="transparent" points="26,-86.22 26,-107.22 42,-107.22 42,-86.22 26,-86.22"/>
<polygon fill="none" stroke="black" points="26,-86.22 26,-107.22 42,-107.22 42,-86.22 26,-86.22"/>
<text text-anchor="start" x="29" y="-93.02" font-family="Times,serif" font-size="14.00">5</text>
<polygon fill="none" stroke="#1c86ee" points="43,-86.22 43,-107.22 59,-107.22 59,-86.22 43,-86.22"/>
<text text-anchor="start" x="46" y="-93.02" font-family="Times,serif" font-size="14.00">2</text>
</g>
<!-- node2 -->
<g id="node2" class="node">
<title>node2</title>
<polygon fill="#ebebeb" stroke="transparent" points="113,-108.22 113,-129.22 163,-129.22 163,-108.22 113,-108.22"/>
<polygon fill="none" stroke="black" points="113,-108.22 113,-129.22 163,-129.22 163,-108.22 113,-108.22"/>
<text text-anchor="start" x="133" y="-115.02" font-family="Times,serif" font-size="14.00">2</text>
<polygon fill="none" stroke="crimson" points="113,-86.22 113,-107.22 129,-107.22 129,-86.22 113,-86.22"/>
<text text-anchor="start" x="116" y="-93.02" font-family="Times,serif" font-size="14.00">3</text>
<polygon fill="lightsalmon" stroke="transparent" points="130,-86.22 130,-107.22 146,-107.22 146,-86.22 130,-86.22"/>
<polygon fill="none" stroke="black" points="130,-86.22 130,-107.22 146,-107.22 146,-86.22 130,-86.22"/>
<text text-anchor="start" x="133" y="-93.02" font-family="Times,serif" font-size="14.00">4</text>
<polygon fill="none" stroke="#1c86ee" points="147,-86.22 147,-107.22 163,-107.22 163,-86.22 147,-86.22"/>
<text text-anchor="start" x="150" y="-93.02" font-family="Times,serif" font-size="14.00">1</text>
</g>
<!-- node3&#45;&gt;node2 -->
<g id="edge1" class="edge">
<title>node3:next&#45;&gt;node2:index</title>
<path fill="none" stroke="#1c86ee" d="M60,-96.22C81.32,-96.22 85.69,-112.59 101.72,-117.71"/>
<polygon fill="#1c86ee" stroke="#1c86ee" points="101.6,-121.23 112,-119.22 102.61,-114.3 101.6,-121.23"/>
</g>
<!-- node0 -->
<g id="node3" class="node">
<title>node0</title>
<polygon fill="none" stroke="black" points="475.75,-125.22 415.75,-107.22 475.75,-89.22 535.74,-107.22 475.75,-125.22"/>
<text text-anchor="middle" x="475.75" y="-103.52" font-family="Times,serif" font-size="14.00">Fictive</text>
</g>
<!-- node3&#45;&gt;node0 -->
<g id="edge2" class="edge">
<title>node3:prev&#45;&gt;node0</title>
<path fill="none" stroke="black" d="M17,-85.22C17,85.31 337.87,-45.13 442.32,-92.11"/>
<polygon fill="black" stroke="black" points="441.18,-95.43 451.73,-96.38 444.07,-89.06 441.18,-95.43"/>
</g>
<!-- node2&#45;&gt;node3 -->
<g id="edge4" class="edge">
<title>node2:prev&#45;&gt;node3:index</title>
<path fill="none" stroke="crimson" d="M112,-96.22C90.68,-96.22 86.31,-112.59 70.28,-117.71"/>
<polygon fill="crimson" stroke="crimson" points="69.39,-114.3 60,-119.22 70.4,-121.23 69.39,-114.3"/>
</g>
<!-- node1 -->
<g id="node4" class="node">
<title>node1</title>
<polygon fill="#ebebeb" stroke="transparent" points="217,-108.22 217,-129.22 267,-129.22 267,-108.22 217,-108.22"/>
<polygon fill="none" stroke="black" points="217,-108.22 217,-129.22 267,-129.22 267,-108.22 217,-108.22"/>
<text text-anchor="start" x="237" y="-115.02" font-family="Times,serif" font-size="14.00">1</text>
<polygon fill="none" stroke="crimson" points="217,-86.22 217,-107.22 233,-107.22 233,-86.22 217,-86.22"/>
<text text-anchor="start" x="220" y="-93.02" font-family="Times,serif" font-size="14.00">2</text>
<polygon fill="lightsalmon" stroke="transparent" points="234,-86.22 234,-107.22 250,-107.22 250,-86.22 234,-86.22"/>
<polygon fill="none" stroke="black" points="234,-86.22 234,-107.22 250,-107.22 250,-86.22 234,-86.22"/>
<text text-anchor="start" x="237" y="-93.02" font-family="Times,serif" font-size="14.00">1</text>
<polygon fill="none" stroke="#1c86ee" points="251,-86.22 251,-107.22 267,-107.22 267,-86.22 251,-86.22"/>
<text text-anchor="start" x="254" y="-93.02" font-family="Times,serif" font-size="14.00">4</text>
</g>
<!-- node2&#45;&gt;node1 -->
<g id="edge3" class="edge">
<title>node2:next&#45;&gt;node1:index</title>
<path fill="none" stroke="#1c86ee" d="M164,-96.22C185.32,-96.22 189.69,-112.59 205.72,-117.71"/>
<polygon fill="#1c86ee" stroke="#1c86ee" points="205.6,-121.23 216,-119.22 206.61,-114.3 205.6,-121.23"/>
</g>
<!-- node0&#45;&gt;node3 -->
<g id="edge9" class="edge">
<title>node0&#45;&gt;node3:index</title>
<path fill="none" stroke="black" d="M452.44,-118.35C433.65,-127.06 405.79,-138.48 380,-143.22 259.35,-165.37 222.86,-173.53 104,-143.22 86.29,-138.7 83.02,-125.44 70.12,-120.83"/>
<polygon fill="black" stroke="black" points="70.43,-117.33 60,-119.22 69.33,-124.24 70.43,-117.33"/>
</g>
<!-- node4 -->
<g id="node5" class="node">
<title>node4</title>
<polygon fill="#ebebeb" stroke="transparent" points="321,-108.22 321,-129.22 371,-129.22 371,-108.22 321,-108.22"/>
<polygon fill="none" stroke="black" points="321,-108.22 321,-129.22 371,-129.22 371,-108.22 321,-108.22"/>
<text text-anchor="start" x="341" y="-115.02" font-family="Times,serif" font-size="14.00">4</text>
<polygon fill="none" stroke="crimson" points="321,-86.22 321,-107.22 337,-107.22 337,-86.22 321,-86.22"/>
<text text-anchor="start" x="324" y="-93.02" font-family="Times,serif" font-size="14.00">1</text>
<polygon fill="lightsalmon" stroke="transparent" points="338,-86.22 338,-107.22 354,-107.22 354,-86.22 338,-86.22"/>
<polygon fill="none" stroke="black" points="338,-86.22 338,-107.22 354,-107.22 354,-86.22 338,-86.22"/>
<text text-anchor="start" x="341" y="-93.02" font-family="Times,serif" font-size="14.00">6</text>
<polygon fill="none" stroke="#1c86ee" points="355,-86.22 355,-107.22 371,-107.22 371,-86.22 355,-86.22"/>
<text text-anchor="start" x="358" y="-93.02" font-family="Times,serif" font-size="14.00">0</text>
</g>
<!-- node0&#45;&gt;node4 -->
<g id="edge10" class="edge">
<title>node0&#45;&gt;node4:index</title>
<path fill="none" stroke="black" d="M437.29,-113.71C420.83,-116.1 400.98,-118.4 382.07,-119.04"/>
<polygon fill="black" stroke="black" points="381.94,-115.54 372,-119.22 382.06,-122.54 381.94,-115.54"/>
</g>
<!-- node1&#45;&gt;node2 -->
<g id="edge6" class="edge">
<title>node1:prev&#45;&gt;node2:index</title>
<path fill="none" stroke="crimson" d="M216,-96.22C194.68,-96.22 190.31,-112.59 174.28,-117.71"/>
<polygon fill="crimson" stroke="crimson" points="173.39,-114.3 164,-119.22 174.4,-121.23 173.39,-114.3"/>
</g>
<!-- node1&#45;&gt;node4 -->
<g id="edge5" class="edge">
<title>node1:next&#45;&gt;node4:index</title>
<path fill="none" stroke="#1c86ee" d="M268,-96.22C289.32,-96.22 293.69,-112.59 309.72,-117.71"/>
<polygon fill="#1c86ee" stroke="#1c86ee" points="309.6,-121.23 320,-119.22 310.61,-114.3 309.6,-121.23"/>
</g>
<!-- node4&#45;&gt;node0 -->
<g id="edge7" class="edge">
<title>node4:next&#45;&gt;node0</title>
<path fill="none" stroke="black" d="M372,-96.22C389.53,-96.22 408.65,-97.82 425.59,-99.8"/>
<polygon fill="black" stroke="black" points="425.46,-103.31 435.82,-101.07 426.33,-96.37 425.46,-103.31"/>
</g>
<!-- node4&#45;&gt;node1 -->
<g id="edge8" class="edge">
<title>node4:prev&#45;&gt;node1:index</title>
<path fill="none" stroke="crimson" d="M320,-96.22C298.68,-96.22 294.31,-112.59 278.28,-117.71"/>
<polygon fill="crimson" stroke="crimson" points="277.39,-114.3 268,-119.22 278.4,-121.23 277.39,-114.3"/>
</g>
</g>
</svg>
