<?xml version="1.0" encoding="UTF-8" standalone="no"?>
<!DOCTYPE svg PUBLIC "-//W3C//DTD SVG 1.1//EN"
 "http://www.w3.org/Graphics/SVG/1.1/DTD/svg11.dtd">
<!-- Generated by graphviz version 2.43.0 (0)
 -->
<!-- Title: list Pages: 1 -->
<svg width="180pt" height="81pt"
 viewBox="0.00 0.00 180.00 80.97" xmlns="http://www.w3.org/2000/svg" xmlns:xlink="http://www.w3.org/1999/xlink">
<g id="graph0" class="graph" transform="scale(1 1) rotate(0) translate(4 76.97)">
<title>list</title>
<polygon fill="white" stroke="transparent" points="-4,4 -4,-76.97 176,-76.97 176,4 -4,4"/>
<!-- node1 -->
<g id="node1" class="node">
<title>node1</title>
<polygon fill="#ebebeb" stroke="transparent" points="9,-46.47 9,-67.47 59,-67.47 59,-46.47 9,-46.47"/>
<polygon fill="none" stroke="black" points="9,-46.47 9,-67.47 59,-67.47 59,-46.47 9,-46.47"/>
<text text-anchor="start" x="29" y="-53.27" font-family="Times,serif" font-size="14.00">1</text>
<polygon fill="none" stroke="crimson" points="9,-24.47 9,-45.47 25,-45.47 25,-24.47 9,-24.47"/>
<text text-anchor="start" x="12" y="-31.27" font-family="Times,serif" font-size="14.00">0</text>
<polygon fill="lightsalmon" stroke="transparent" points="26,-24.47 26,-45.47 42,-45.47 42,-24.47 26,-24.47"/>
<polygon fill="none" stroke="black" points="26,-24.47 26,-45.47 42,-45.47 42,-24.47 26,-24.47"/>
<text text-anchor="start" x="29" y="-31.27" font-family="Times,serif" font-size="14.00">1</text>
<polygon fill="none" stroke="#1c86ee" points="43,-24.47 43,-45.47 59,-45.47 59,-24.47 43,-24.47"/>
<text text-anchor="start" x="46" y="-31.27" font-family="Times,serif" font-size="14.00">0</text>
</g>
<!-- node0 -->
<g id="node2" class="node">
<title>node0</title>
<polygon fill="#ebebeb" stroke="transparent" points="113,-46.47 113,-67.47 163,-67.47 163,-46.47 113,-46.47"/>
<polygon fill="none" stroke="black" points="113,-46.47 113,-67.47 163,-67.47 163,-46.47 113,-46.47"/>
<text text-anchor="start" x="133" y="-53.27" font-family="Times,serif" font-size="14.00">0</text>
<polygon fill="none" stroke="crimson" points="113,-24.47 113,-45.47 129,-45.47 129,-24.47 113,-24.47"/>
<text text-anchor="start" x="116" y="-31.27" font-family="Times,serif" font-size="14.00">1</text>
<polygon fill="lightsalmon" stroke="transparent" points="130,-24.47 130,-45.47 146,-45.47 146,-24.47 130,-24.47"/>
<polygon fill="none" stroke="black" points="130,-24.47 130,-45.47 146,-45.47 146,-24.47 130,-24.47"/>
<text text-anchor="start" x="133" y="-31.27" font-family="Times,serif" font-size="14.00">0</text>
<polygon fill="none" stroke="#1c86ee" points="147,-24.47 147,-45.47 163,-45.47 163,-24.47 147,-24.47"/>
<text text-anchor="start" x="150" y="-31.27" font-family="Times,serif" font-size="14.00">1</text>
</g>
<!-- node1&#45;&gt;node0 -->
<g id="edge1" class="edge">
<title>node1:index&#45;&gt;node0:index</title>
<path fill="none" stroke="crimson" d="M60,-57.47C79.32,-57.47 86.53,-57.47 101.87,-57.47"/>
<polygon fill="crimson" stroke="crimson" points="102,-60.97 112,-57.47 102,-53.97 102,-60.97"/>
</g>
<!-- node1&#45;&gt;node0 -->
<g id="edge4" class="edge">
<title>node1:next&#45;&gt;node0:prev</title>
<path fill="none" stroke="#1c86ee" d="M60,-34.47C79.32,-34.47 86.53,-34.47 101.87,-34.47"/>
<polygon fill="#1c86ee" stroke="#1c86ee" points="102,-37.97 112,-34.47 102,-30.97 102,-37.97"/>
</g>
<!-- node0&#45;&gt;node1 -->
<g id="edge2" class="edge">
<title>node0:next&#45;&gt;node1:prev</title>
<path fill="none" stroke="#1c86ee" d="M155,-23.47C155,3.84 45.54,6.83 21.59,-14.51"/>
<polygon fill="#1c86ee" stroke="#1c86ee" points="18.44,-12.98 17,-23.47 24.67,-16.17 18.44,-12.98"/>
</g>
<!-- node0&#45;&gt;node1 -->
<g id="edge3" class="edge">
<title>node0:index&#45;&gt;node1:index</title>
<path fill="none" stroke="crimson" d="M112,-57.47C92.68,-57.47 85.47,-57.47 70.13,-57.47"/>
<polygon fill="crimson" stroke="crimson" points="70,-53.97 60,-57.47 70,-60.97 70,-53.97"/>
</g>
</g>
</svg>
