<?xml version="1.0" encoding="UTF-8" standalone="no"?>
<!DOCTYPE svg PUBLIC "-//W3C//DTD SVG 1.1//EN"
 "http://www.w3.org/Graphics/SVG/1.1/DTD/svg11.dtd">
<!-- Generated by graphviz version 2.43.0 (0)
 -->
<!-- Title: list Pages: 1 -->
<svg width="439pt" height="145pt"
 viewBox="0.00 0.00 439.49 144.71" xmlns="http://www.w3.org/2000/svg" xmlns:xlink="http://www.w3.org/1999/xlink">
<g id="graph0" class="graph" transform="scale(1 1) rotate(0) translate(4 140.71)">
<title>list</title>
<polygon fill="white" stroke="transparent" points="-4,4 -4,-140.71 435.49,-140.71 435.49,4 -4,4"/>
<!-- node2 -->
<g id="node1" class="node">
<title>node2</title>
<polygon fill="#ebebeb" stroke="transparent" points="9,-87.74 9,-108.74 59,-108.74 59,-87.74 9,-87.74"/>
<polygon fill="none" stroke="black" points="9,-87.74 9,-108.74 59,-108.74 59,-87.74 9,-87.74"/>
<text text-anchor="start" x="29" y="-94.54" font-family="Times,serif" font-size="14.00">2</text>
<polygon fill="none" stroke="crimson" points="9,-65.74 9,-86.74 25,-86.74 25,-65.74 9,-65.74"/>
<text text-anchor="start" x="12" y="-72.54" font-family="Times,serif" font-size="14.00">0</text>
<polygon fill="lightsalmon" stroke="transparent" points="26,-65.74 26,-86.74 42,-86.74 42,-65.74 26,-65.74"/>
<polygon fill="none" stroke="black" points="26,-65.74 26,-86.74 42,-86.74 42,-65.74 26,-65.74"/>
<text text-anchor="start" x="29" y="-72.54" font-family="Times,serif" font-size="14.00">2</text>
<polygon fill="none" stroke="#1c86ee" points="43,-65.74 43,-86.74 59,-86.74 59,-65.74 43,-65.74"/>
<text text-anchor="start" x="46" y="-72.54" font-family="Times,serif" font-size="14.00">1</text>
</g>
<!-- node1 -->
<g id="node2" class="node">
<title>node1</title>
<polygon fill="#ebebeb" stroke="transparent" points="113,-87.74 113,-108.74 163,-108.74 163,-87.74 113,-87.74"/>
<polygon fill="none" stroke="black" points="113,-87.74 113,-108.74 163,-108.74 163,-87.74 113,-87.74"/>
<text text-anchor="start" x="133" y="-94.54" font-family="Times,serif" font-size="14.00">1</text>
<polygon fill="none" stroke="crimson" points="113,-65.74 113,-86.74 129,-86.74 129,-65.74 113,-65.74"/>
<text text-anchor="start" x="116" y="-72.54" font-family="Times,serif" font-size="14.00">2</text>
<polygon fill="lightsalmon" stroke="transparent" points="130,-65.74 130,-86.74 146,-86.74 146,-65.74 130,-65.74"/>
<polygon fill="none" stroke="black" points="130,-65.74 130,-86.74 146,-86.74 146,-65.74 130,-65.74"/>
<text text-anchor="start" x="133" y="-72.54" font-family="Times,serif" font-size="14.00">1</text>
<polygon fill="none" stroke="#1c86ee" points="147,-65.74 147,-86.74 163,-86.74 163,-65.74 147,-65.74"/>
<text text-anchor="start" x="150" y="-72.54" font-family="Times,serif" font-size="14.00">3</text>
</g>
<!-- node2&#45;&gt;node1 -->
<g id="edge1" class="edge">
<title>node2:next&#45;&gt;node1:index</title>
<path fill="none" stroke="#1c86ee" d="M60,-75.74C81.32,-75.74 85.69,-92.12 101.72,-97.23"/>
<polygon fill="#1c86ee" stroke="#1c86ee" points="101.6,-100.75 112,-98.74 102.61,-93.83 101.6,-100.75"/>
</g>
<!-- node0 -->
<g id="node3" class="node">
<title>node0</title>
<polygon fill="none" stroke="black" points="371.75,-104.74 311.75,-86.74 371.75,-68.74 431.74,-86.74 371.75,-104.74"/>
<text text-anchor="middle" x="371.75" y="-83.04" font-family="Times,serif" font-size="14.00">Fictive</text>
</g>
<!-- node2&#45;&gt;node0 -->
<g id="edge2" class="edge">
<title>node2:prev&#45;&gt;node0</title>
<path fill="none" stroke="black" d="M17,-64.74C17,63.66 252.05,-31.89 338.95,-71.6"/>
<polygon fill="black" stroke="black" points="337.53,-74.8 348.08,-75.82 340.47,-68.45 337.53,-74.8"/>
</g>
<!-- node1&#45;&gt;node2 -->
<g id="edge4" class="edge">
<title>node1:prev&#45;&gt;node2:index</title>
<path fill="none" stroke="crimson" d="M112,-75.74C90.68,-75.74 86.31,-92.12 70.28,-97.23"/>
<polygon fill="crimson" stroke="crimson" points="69.39,-93.83 60,-98.74 70.4,-100.75 69.39,-93.83"/>
</g>
<!-- node3 -->
<g id="node4" class="node">
<title>node3</title>
<polygon fill="#ebebeb" stroke="transparent" points="217,-87.74 217,-108.74 267,-108.74 267,-87.74 217,-87.74"/>
<polygon fill="none" stroke="black" points="217,-87.74 217,-108.74 267,-108.74 267,-87.74 217,-87.74"/>
<text text-anchor="start" x="237" y="-94.54" font-family="Times,serif" font-size="14.00">3</text>
<polygon fill="none" stroke="crimson" points="217,-65.74 217,-86.74 233,-86.74 233,-65.74 217,-65.74"/>
<text text-anchor="start" x="220" y="-72.54" font-family="Times,serif" font-size="14.00">1</text>
<polygon fill="lightsalmon" stroke="transparent" points="234,-65.74 234,-86.74 250,-86.74 250,-65.74 234,-65.74"/>
<polygon fill="none" stroke="black" points="234,-65.74 234,-86.74 250,-86.74 250,-65.74 234,-65.74"/>
<text text-anchor="start" x="237" y="-72.54" font-family="Times,serif" font-size="14.00">3</text>
<polygon fill="none" stroke="#1c86ee" points="251,-65.74 251,-86.74 267,-86.74 267,-65.74 251,-65.74"/>
<text text-anchor="start" x="254" y="-72.54" font-family="Times,serif" font-size="14.00">0</text>
</g>
<!-- node1&#45;&gt;node3 -->
<g id="edge3" class="edge">
<title>node1:next&#45;&gt;node3:index</title>
<path fill="none" stroke="#1c86ee" d="M164,-75.74C185.32,-75.74 189.69,-92.12 205.72,-97.23"/>
<polygon fill="#1c86ee" stroke="#1c86ee" points="205.6,-100.75 216,-98.74 206.61,-93.83 205.6,-100.75"/>
</g>
<!-- node0&#45;&gt;node2 -->
<g id="edge7" class="edge">
<title>node0&#45;&gt;node2:index</title>
<path fill="none" stroke="black" d="M348.85,-98C330.08,-106.98 302.03,-118.84 276,-123.74 200.88,-137.89 177.91,-143.27 104,-123.74 86.16,-119.03 83.12,-105.23 70.18,-100.42"/>
<polygon fill="black" stroke="black" points="70.44,-96.91 60,-98.74 69.3,-103.82 70.44,-96.91"/>
</g>
<!-- node0&#45;&gt;node3 -->
<g id="edge8" class="edge">
<title>node0&#45;&gt;node3:index</title>
<path fill="none" stroke="black" d="M333.29,-93.23C316.83,-95.63 296.98,-97.92 278.07,-98.56"/>
<polygon fill="black" stroke="black" points="277.94,-95.07 268,-98.74 278.06,-102.07 277.94,-95.07"/>
</g>
<!-- node3&#45;&gt;node1 -->
<g id="edge6" class="edge">
<title>node3:prev&#45;&gt;node1:index</title>
<path fill="none" stroke="crimson" d="M216,-75.74C194.68,-75.74 190.31,-92.12 174.28,-97.23"/>
<polygon fill="crimson" stroke="crimson" points="173.39,-93.83 164,-98.74 174.4,-100.75 173.39,-93.83"/>
</g>
<!-- node3&#45;&gt;node0 -->
<g id="edge5" class="edge">
<title>node3:next&#45;&gt;node0</title>
<path fill="none" stroke="black" d="M268,-75.74C285.53,-75.74 304.65,-77.35 321.59,-79.33"/>
<polygon fill="black" stroke="black" points="321.46,-82.84 331.82,-80.6 322.33,-75.89 321.46,-82.84"/>
</g>
</g>
</svg>
