<?xml version="1.0" encoding="UTF-8" standalone="no"?>
<!DOCTYPE svg PUBLIC "-//W3C//DTD SVG 1.1//EN"
 "http://www.w3.org/Graphics/SVG/1.1/DTD/svg11.dtd">
<!-- Generated by graphviz version 2.43.0 (0)
 -->
<!-- Title: list Pages: 1 -->
<svg width="2748pt" height="121pt"
 viewBox="0.00 0.00 2748.49 120.50" xmlns="http://www.w3.org/2000/svg" xmlns:xlink="http://www.w3.org/1999/xlink">
<g id="graph0" class="graph" transform="scale(1 1) rotate(0) translate(4 116.5)">
<title>list</title>
<polygon fill="white" stroke="transparent" points="-4,4 -4,-116.5 2744.49,-116.5 2744.49,4 -4,4"/>
<!-- node16 -->
<g id="node1" class="node">
<title>node16</title>
<polygon fill="#ebebeb" stroke="transparent" points="2508,-56.17 2508,-77.17 2576,-77.17 2576,-56.17 2508,-56.17"/>
<polygon fill="none" stroke="black" points="2508,-56.17 2508,-77.17 2576,-77.17 2576,-56.17 2508,-56.17"/>
<text text-anchor="start" x="2532.5" y="-62.97" font-family="Times,serif" font-size="14.00">16</text>
<polygon fill="none" stroke="crimson" points="2508,-34.17 2508,-55.17 2533,-55.17 2533,-34.17 2508,-34.17"/>
<text text-anchor="start" x="2511" y="-40.97" font-family="Times,serif" font-size="14.00">15</text>
<polygon fill="lightsalmon" stroke="transparent" points="2534,-34.17 2534,-55.17 2559,-55.17 2559,-34.17 2534,-34.17"/>
<polygon fill="none" stroke="black" points="2534,-34.17 2534,-55.17 2559,-55.17 2559,-34.17 2534,-34.17"/>
<text text-anchor="start" x="2537" y="-40.97" font-family="Times,serif" font-size="14.00">16</text>
<polygon fill="none" stroke="#1c86ee" points="2560,-34.17 2560,-55.17 2576,-55.17 2576,-34.17 2560,-34.17"/>
<text text-anchor="start" x="2563" y="-40.97" font-family="Times,serif" font-size="14.00">0</text>
</g>
<!-- node15 -->
<g id="node2" class="node">
<title>node15</title>
<polygon fill="#ebebeb" stroke="transparent" points="2377.5,-56.17 2377.5,-77.17 2454.5,-77.17 2454.5,-56.17 2377.5,-56.17"/>
<polygon fill="none" stroke="black" points="2377.5,-56.17 2377.5,-77.17 2454.5,-77.17 2454.5,-56.17 2377.5,-56.17"/>
<text text-anchor="start" x="2406.5" y="-62.97" font-family="Times,serif" font-size="14.00">15</text>
<polygon fill="none" stroke="crimson" points="2377.5,-34.17 2377.5,-55.17 2402.5,-55.17 2402.5,-34.17 2377.5,-34.17"/>
<text text-anchor="start" x="2380.5" y="-40.97" font-family="Times,serif" font-size="14.00">14</text>
<polygon fill="lightsalmon" stroke="transparent" points="2403.5,-34.17 2403.5,-55.17 2428.5,-55.17 2428.5,-34.17 2403.5,-34.17"/>
<polygon fill="none" stroke="black" points="2403.5,-34.17 2403.5,-55.17 2428.5,-55.17 2428.5,-34.17 2403.5,-34.17"/>
<text text-anchor="start" x="2406.5" y="-40.97" font-family="Times,serif" font-size="14.00">15</text>
<polygon fill="none" stroke="#1c86ee" points="2429.5,-34.17 2429.5,-55.17 2454.5,-55.17 2454.5,-34.17 2429.5,-34.17"/>
<text text-anchor="start" x="2432.5" y="-40.97" font-family="Times,serif" font-size="14.00">16</text>
</g>
<!-- node16&#45;&gt;node15 -->
<g id="edge1" class="edge">
<title>node16:index&#45;&gt;node15:index</title>
<path fill="none" stroke="crimson" d="M2507,-67.17C2487.87,-67.17 2480.73,-67.17 2465.53,-67.17"/>
<polygon fill="crimson" stroke="crimson" points="2465.5,-63.67 2455.5,-67.17 2465.5,-70.67 2465.5,-63.67"/>
</g>
<!-- node0 -->
<g id="node3" class="node">
<title>node0</title>
<polygon fill="none" stroke="black" points="2680.75,-73.17 2620.75,-55.17 2680.75,-37.17 2740.74,-55.17 2680.75,-73.17"/>
<text text-anchor="middle" x="2680.75" y="-51.47" font-family="Times,serif" font-size="14.00">Fictive</text>
</g>
<!-- node16&#45;&gt;node0 -->
<g id="edge2" class="edge">
<title>node16:next&#45;&gt;node0</title>
<path fill="none" stroke="black" d="M2577,-44.17C2594.53,-44.17 2613.65,-45.77 2630.59,-47.75"/>
<polygon fill="black" stroke="black" points="2630.46,-51.26 2640.82,-49.03 2631.33,-44.32 2630.46,-51.26"/>
</g>
<!-- node15&#45;&gt;node16 -->
<g id="edge4" class="edge">
<title>node15:next&#45;&gt;node16:prev</title>
<path fill="none" stroke="#1c86ee" d="M2455.5,-44.17C2474.63,-44.17 2481.77,-44.17 2496.97,-44.17"/>
<polygon fill="#1c86ee" stroke="#1c86ee" points="2497,-47.67 2507,-44.17 2497,-40.67 2497,-47.67"/>
</g>
<!-- node14 -->
<g id="node4" class="node">
<title>node14</title>
<polygon fill="#ebebeb" stroke="transparent" points="2246.5,-56.17 2246.5,-77.17 2323.5,-77.17 2323.5,-56.17 2246.5,-56.17"/>
<polygon fill="none" stroke="black" points="2246.5,-56.17 2246.5,-77.17 2323.5,-77.17 2323.5,-56.17 2246.5,-56.17"/>
<text text-anchor="start" x="2275.5" y="-62.97" font-family="Times,serif" font-size="14.00">14</text>
<polygon fill="none" stroke="crimson" points="2246.5,-34.17 2246.5,-55.17 2271.5,-55.17 2271.5,-34.17 2246.5,-34.17"/>
<text text-anchor="start" x="2249.5" y="-40.97" font-family="Times,serif" font-size="14.00">13</text>
<polygon fill="lightsalmon" stroke="transparent" points="2272.5,-34.17 2272.5,-55.17 2297.5,-55.17 2297.5,-34.17 2272.5,-34.17"/>
<polygon fill="none" stroke="black" points="2272.5,-34.17 2272.5,-55.17 2297.5,-55.17 2297.5,-34.17 2272.5,-34.17"/>
<text text-anchor="start" x="2275.5" y="-40.97" font-family="Times,serif" font-size="14.00">14</text>
<polygon fill="none" stroke="#1c86ee" points="2298.5,-34.17 2298.5,-55.17 2323.5,-55.17 2323.5,-34.17 2298.5,-34.17"/>
<text text-anchor="start" x="2301.5" y="-40.97" font-family="Times,serif" font-size="14.00">15</text>
</g>
<!-- node15&#45;&gt;node14 -->
<g id="edge3" class="edge">
<title>node15:index&#45;&gt;node14:index</title>
<path fill="none" stroke="crimson" d="M2376.5,-67.17C2357.18,-67.17 2349.97,-67.17 2334.63,-67.17"/>
<polygon fill="crimson" stroke="crimson" points="2334.5,-63.67 2324.5,-67.17 2334.5,-70.67 2334.5,-63.67"/>
</g>
<!-- node0&#45;&gt;node16 -->
<g id="edge45" class="edge">
<title>node0&#45;&gt;node16:index</title>
<path fill="none" stroke="black" d="M2642.29,-61.66C2625.83,-64.06 2605.98,-66.35 2587.07,-66.99"/>
<polygon fill="black" stroke="black" points="2586.94,-63.49 2577,-67.17 2587.06,-70.49 2586.94,-63.49"/>
</g>
<!-- node14&#45;&gt;node15 -->
<g id="edge6" class="edge">
<title>node14:next&#45;&gt;node15:prev</title>
<path fill="none" stroke="#1c86ee" d="M2324.5,-44.17C2343.82,-44.17 2351.03,-44.17 2366.37,-44.17"/>
<polygon fill="#1c86ee" stroke="#1c86ee" points="2366.5,-47.67 2376.5,-44.17 2366.5,-40.67 2366.5,-47.67"/>
</g>
<!-- node13 -->
<g id="node5" class="node">
<title>node13</title>
<polygon fill="#ebebeb" stroke="transparent" points="2115.5,-56.17 2115.5,-77.17 2192.5,-77.17 2192.5,-56.17 2115.5,-56.17"/>
<polygon fill="none" stroke="black" points="2115.5,-56.17 2115.5,-77.17 2192.5,-77.17 2192.5,-56.17 2115.5,-56.17"/>
<text text-anchor="start" x="2144.5" y="-62.97" font-family="Times,serif" font-size="14.00">13</text>
<polygon fill="none" stroke="crimson" points="2115.5,-34.17 2115.5,-55.17 2140.5,-55.17 2140.5,-34.17 2115.5,-34.17"/>
<text text-anchor="start" x="2118.5" y="-40.97" font-family="Times,serif" font-size="14.00">12</text>
<polygon fill="lightsalmon" stroke="transparent" points="2141.5,-34.17 2141.5,-55.17 2166.5,-55.17 2166.5,-34.17 2141.5,-34.17"/>
<polygon fill="none" stroke="black" points="2141.5,-34.17 2141.5,-55.17 2166.5,-55.17 2166.5,-34.17 2141.5,-34.17"/>
<text text-anchor="start" x="2144.5" y="-40.97" font-family="Times,serif" font-size="14.00">13</text>
<polygon fill="none" stroke="#1c86ee" points="2167.5,-34.17 2167.5,-55.17 2192.5,-55.17 2192.5,-34.17 2167.5,-34.17"/>
<text text-anchor="start" x="2170.5" y="-40.97" font-family="Times,serif" font-size="14.00">14</text>
</g>
<!-- node14&#45;&gt;node13 -->
<g id="edge5" class="edge">
<title>node14:index&#45;&gt;node13:index</title>
<path fill="none" stroke="crimson" d="M2245.5,-67.17C2226.18,-67.17 2218.97,-67.17 2203.63,-67.17"/>
<polygon fill="crimson" stroke="crimson" points="2203.5,-63.67 2193.5,-67.17 2203.5,-70.67 2203.5,-63.67"/>
</g>
<!-- node13&#45;&gt;node14 -->
<g id="edge8" class="edge">
<title>node13:next&#45;&gt;node14:prev</title>
<path fill="none" stroke="#1c86ee" d="M2193.5,-44.17C2212.82,-44.17 2220.03,-44.17 2235.37,-44.17"/>
<polygon fill="#1c86ee" stroke="#1c86ee" points="2235.5,-47.67 2245.5,-44.17 2235.5,-40.67 2235.5,-47.67"/>
</g>
<!-- node12 -->
<g id="node6" class="node">
<title>node12</title>
<polygon fill="#ebebeb" stroke="transparent" points="1984.5,-56.17 1984.5,-77.17 2061.5,-77.17 2061.5,-56.17 1984.5,-56.17"/>
<polygon fill="none" stroke="black" points="1984.5,-56.17 1984.5,-77.17 2061.5,-77.17 2061.5,-56.17 1984.5,-56.17"/>
<text text-anchor="start" x="2013.5" y="-62.97" font-family="Times,serif" font-size="14.00">12</text>
<polygon fill="none" stroke="crimson" points="1984.5,-34.17 1984.5,-55.17 2009.5,-55.17 2009.5,-34.17 1984.5,-34.17"/>
<text text-anchor="start" x="1987.5" y="-40.97" font-family="Times,serif" font-size="14.00">11</text>
<polygon fill="lightsalmon" stroke="transparent" points="2010.5,-34.17 2010.5,-55.17 2035.5,-55.17 2035.5,-34.17 2010.5,-34.17"/>
<polygon fill="none" stroke="black" points="2010.5,-34.17 2010.5,-55.17 2035.5,-55.17 2035.5,-34.17 2010.5,-34.17"/>
<text text-anchor="start" x="2013.5" y="-40.97" font-family="Times,serif" font-size="14.00">12</text>
<polygon fill="none" stroke="#1c86ee" points="2036.5,-34.17 2036.5,-55.17 2061.5,-55.17 2061.5,-34.17 2036.5,-34.17"/>
<text text-anchor="start" x="2039.5" y="-40.97" font-family="Times,serif" font-size="14.00">13</text>
</g>
<!-- node13&#45;&gt;node12 -->
<g id="edge7" class="edge">
<title>node13:index&#45;&gt;node12:index</title>
<path fill="none" stroke="crimson" d="M2114.5,-67.17C2095.18,-67.17 2087.97,-67.17 2072.63,-67.17"/>
<polygon fill="crimson" stroke="crimson" points="2072.5,-63.67 2062.5,-67.17 2072.5,-70.67 2072.5,-63.67"/>
</g>
<!-- node12&#45;&gt;node13 -->
<g id="edge10" class="edge">
<title>node12:next&#45;&gt;node13:prev</title>
<path fill="none" stroke="#1c86ee" d="M2062.5,-44.17C2081.82,-44.17 2089.03,-44.17 2104.37,-44.17"/>
<polygon fill="#1c86ee" stroke="#1c86ee" points="2104.5,-47.67 2114.5,-44.17 2104.5,-40.67 2104.5,-47.67"/>
</g>
<!-- node11 -->
<g id="node7" class="node">
<title>node11</title>
<polygon fill="#ebebeb" stroke="transparent" points="1862,-56.17 1862,-77.17 1930,-77.17 1930,-56.17 1862,-56.17"/>
<polygon fill="none" stroke="black" points="1862,-56.17 1862,-77.17 1930,-77.17 1930,-56.17 1862,-56.17"/>
<text text-anchor="start" x="1886.5" y="-62.97" font-family="Times,serif" font-size="14.00">11</text>
<polygon fill="none" stroke="crimson" points="1862,-34.17 1862,-55.17 1878,-55.17 1878,-34.17 1862,-34.17"/>
<text text-anchor="start" x="1865" y="-40.97" font-family="Times,serif" font-size="14.00">9</text>
<polygon fill="lightsalmon" stroke="transparent" points="1879,-34.17 1879,-55.17 1904,-55.17 1904,-34.17 1879,-34.17"/>
<polygon fill="none" stroke="black" points="1879,-34.17 1879,-55.17 1904,-55.17 1904,-34.17 1879,-34.17"/>
<text text-anchor="start" x="1882" y="-40.97" font-family="Times,serif" font-size="14.00">11</text>
<polygon fill="none" stroke="#1c86ee" points="1905,-34.17 1905,-55.17 1930,-55.17 1930,-34.17 1905,-34.17"/>
<text text-anchor="start" x="1908" y="-40.97" font-family="Times,serif" font-size="14.00">12</text>
</g>
<!-- node12&#45;&gt;node11 -->
<g id="edge9" class="edge">
<title>node12:index&#45;&gt;node11:index</title>
<path fill="none" stroke="crimson" d="M1983.5,-67.17C1963.99,-67.17 1956.72,-67.17 1941.23,-67.17"/>
<polygon fill="crimson" stroke="crimson" points="1941,-63.67 1931,-67.17 1941,-70.67 1941,-63.67"/>
</g>
<!-- node11&#45;&gt;node12 -->
<g id="edge12" class="edge">
<title>node11:next&#45;&gt;node12:prev</title>
<path fill="none" stroke="#1c86ee" d="M1931,-44.17C1950.51,-44.17 1957.78,-44.17 1973.27,-44.17"/>
<polygon fill="#1c86ee" stroke="#1c86ee" points="1973.5,-47.67 1983.5,-44.17 1973.5,-40.67 1973.5,-47.67"/>
</g>
<!-- node9 -->
<g id="node8" class="node">
<title>node9</title>
<polygon fill="#ebebeb" stroke="transparent" points="1749.5,-56.17 1749.5,-77.17 1808.5,-77.17 1808.5,-56.17 1749.5,-56.17"/>
<polygon fill="none" stroke="black" points="1749.5,-56.17 1749.5,-77.17 1808.5,-77.17 1808.5,-56.17 1749.5,-56.17"/>
<text text-anchor="start" x="1774" y="-62.97" font-family="Times,serif" font-size="14.00">9</text>
<polygon fill="none" stroke="crimson" points="1749.5,-34.17 1749.5,-55.17 1765.5,-55.17 1765.5,-34.17 1749.5,-34.17"/>
<text text-anchor="start" x="1752.5" y="-40.97" font-family="Times,serif" font-size="14.00">7</text>
<polygon fill="lightsalmon" stroke="transparent" points="1766.5,-34.17 1766.5,-55.17 1782.5,-55.17 1782.5,-34.17 1766.5,-34.17"/>
<polygon fill="none" stroke="black" points="1766.5,-34.17 1766.5,-55.17 1782.5,-55.17 1782.5,-34.17 1766.5,-34.17"/>
<text text-anchor="start" x="1769.5" y="-40.97" font-family="Times,serif" font-size="14.00">9</text>
<polygon fill="none" stroke="#1c86ee" points="1783.5,-34.17 1783.5,-55.17 1808.5,-55.17 1808.5,-34.17 1783.5,-34.17"/>
<text text-anchor="start" x="1786.5" y="-40.97" font-family="Times,serif" font-size="14.00">11</text>
</g>
<!-- node11&#45;&gt;node9 -->
<g id="edge11" class="edge">
<title>node11:index&#45;&gt;node9:index</title>
<path fill="none" stroke="crimson" d="M1861,-67.17C1841.87,-67.17 1834.73,-67.17 1819.53,-67.17"/>
<polygon fill="crimson" stroke="crimson" points="1819.5,-63.67 1809.5,-67.17 1819.5,-70.67 1819.5,-63.67"/>
</g>
<!-- node9&#45;&gt;node11 -->
<g id="edge14" class="edge">
<title>node9:next&#45;&gt;node11:prev</title>
<path fill="none" stroke="#1c86ee" d="M1809.5,-44.17C1828.63,-44.17 1835.77,-44.17 1850.97,-44.17"/>
<polygon fill="#1c86ee" stroke="#1c86ee" points="1851,-47.67 1861,-44.17 1851,-40.67 1851,-47.67"/>
</g>
<!-- node7 -->
<g id="node9" class="node">
<title>node7</title>
<polygon fill="#ebebeb" stroke="transparent" points="1645,-56.17 1645,-77.17 1695,-77.17 1695,-56.17 1645,-56.17"/>
<polygon fill="none" stroke="black" points="1645,-56.17 1645,-77.17 1695,-77.17 1695,-56.17 1645,-56.17"/>
<text text-anchor="start" x="1665" y="-62.97" font-family="Times,serif" font-size="14.00">7</text>
<polygon fill="none" stroke="crimson" points="1645,-34.17 1645,-55.17 1661,-55.17 1661,-34.17 1645,-34.17"/>
<text text-anchor="start" x="1648" y="-40.97" font-family="Times,serif" font-size="14.00">6</text>
<polygon fill="lightsalmon" stroke="transparent" points="1662,-34.17 1662,-55.17 1678,-55.17 1678,-34.17 1662,-34.17"/>
<polygon fill="none" stroke="black" points="1662,-34.17 1662,-55.17 1678,-55.17 1678,-34.17 1662,-34.17"/>
<text text-anchor="start" x="1665" y="-40.97" font-family="Times,serif" font-size="14.00">7</text>
<polygon fill="none" stroke="#1c86ee" points="1679,-34.17 1679,-55.17 1695,-55.17 1695,-34.17 1679,-34.17"/>
<text text-anchor="start" x="1682" y="-40.97" font-family="Times,serif" font-size="14.00">9</text>
</g>
<!-- node9&#45;&gt;node7 -->
<g id="edge13" class="edge">
<title>node9:index&#45;&gt;node7:index</title>
<path fill="none" stroke="crimson" d="M1748.5,-67.17C1728.99,-67.17 1721.72,-67.17 1706.23,-67.17"/>
<polygon fill="crimson" stroke="crimson" points="1706,-63.67 1696,-67.17 1706,-70.67 1706,-63.67"/>
</g>
<!-- node7&#45;&gt;node9 -->
<g id="edge16" class="edge">
<title>node7:next&#45;&gt;node9:prev</title>
<path fill="none" stroke="#1c86ee" d="M1696,-44.17C1715.51,-44.17 1722.78,-44.17 1738.27,-44.17"/>
<polygon fill="#1c86ee" stroke="#1c86ee" points="1738.5,-47.67 1748.5,-44.17 1738.5,-40.67 1738.5,-47.67"/>
</g>
<!-- node6 -->
<g id="node10" class="node">
<title>node6</title>
<polygon fill="#ebebeb" stroke="transparent" points="1541,-56.17 1541,-77.17 1591,-77.17 1591,-56.17 1541,-56.17"/>
<polygon fill="none" stroke="black" points="1541,-56.17 1541,-77.17 1591,-77.17 1591,-56.17 1541,-56.17"/>
<text text-anchor="start" x="1561" y="-62.97" font-family="Times,serif" font-size="14.00">6</text>
<polygon fill="none" stroke="crimson" points="1541,-34.17 1541,-55.17 1557,-55.17 1557,-34.17 1541,-34.17"/>
<text text-anchor="start" x="1544" y="-40.97" font-family="Times,serif" font-size="14.00">5</text>
<polygon fill="lightsalmon" stroke="transparent" points="1558,-34.17 1558,-55.17 1574,-55.17 1574,-34.17 1558,-34.17"/>
<polygon fill="none" stroke="black" points="1558,-34.17 1558,-55.17 1574,-55.17 1574,-34.17 1558,-34.17"/>
<text text-anchor="start" x="1561" y="-40.97" font-family="Times,serif" font-size="14.00">6</text>
<polygon fill="none" stroke="#1c86ee" points="1575,-34.17 1575,-55.17 1591,-55.17 1591,-34.17 1575,-34.17"/>
<text text-anchor="start" x="1578" y="-40.97" font-family="Times,serif" font-size="14.00">7</text>
</g>
<!-- node7&#45;&gt;node6 -->
<g id="edge15" class="edge">
<title>node7:index&#45;&gt;node6:index</title>
<path fill="none" stroke="crimson" d="M1644,-67.17C1624.68,-67.17 1617.47,-67.17 1602.13,-67.17"/>
<polygon fill="crimson" stroke="crimson" points="1602,-63.67 1592,-67.17 1602,-70.67 1602,-63.67"/>
</g>
<!-- node6&#45;&gt;node7 -->
<g id="edge18" class="edge">
<title>node6:next&#45;&gt;node7:prev</title>
<path fill="none" stroke="#1c86ee" d="M1592,-44.17C1611.32,-44.17 1618.53,-44.17 1633.87,-44.17"/>
<polygon fill="#1c86ee" stroke="#1c86ee" points="1634,-47.67 1644,-44.17 1634,-40.67 1634,-47.67"/>
</g>
<!-- node5 -->
<g id="node11" class="node">
<title>node5</title>
<polygon fill="#ebebeb" stroke="transparent" points="1437,-56.17 1437,-77.17 1487,-77.17 1487,-56.17 1437,-56.17"/>
<polygon fill="none" stroke="black" points="1437,-56.17 1437,-77.17 1487,-77.17 1487,-56.17 1437,-56.17"/>
<text text-anchor="start" x="1457" y="-62.97" font-family="Times,serif" font-size="14.00">5</text>
<polygon fill="none" stroke="crimson" points="1437,-34.17 1437,-55.17 1453,-55.17 1453,-34.17 1437,-34.17"/>
<text text-anchor="start" x="1440" y="-40.97" font-family="Times,serif" font-size="14.00">4</text>
<polygon fill="lightsalmon" stroke="transparent" points="1454,-34.17 1454,-55.17 1470,-55.17 1470,-34.17 1454,-34.17"/>
<polygon fill="none" stroke="black" points="1454,-34.17 1454,-55.17 1470,-55.17 1470,-34.17 1454,-34.17"/>
<text text-anchor="start" x="1457" y="-40.97" font-family="Times,serif" font-size="14.00">5</text>
<polygon fill="none" stroke="#1c86ee" points="1471,-34.17 1471,-55.17 1487,-55.17 1487,-34.17 1471,-34.17"/>
<text text-anchor="start" x="1474" y="-40.97" font-family="Times,serif" font-size="14.00">6</text>
</g>
<!-- node6&#45;&gt;node5 -->
<g id="edge17" class="edge">
<title>node6:index&#45;&gt;node5:index</title>
<path fill="none" stroke="crimson" d="M1540,-67.17C1520.68,-67.17 1513.47,-67.17 1498.13,-67.17"/>
<polygon fill="crimson" stroke="crimson" points="1498,-63.67 1488,-67.17 1498,-70.67 1498,-63.67"/>
</g>
<!-- node5&#45;&gt;node6 -->
<g id="edge20" class="edge">
<title>node5:next&#45;&gt;node6:prev</title>
<path fill="none" stroke="#1c86ee" d="M1488,-44.17C1507.32,-44.17 1514.53,-44.17 1529.87,-44.17"/>
<polygon fill="#1c86ee" stroke="#1c86ee" points="1530,-47.67 1540,-44.17 1530,-40.67 1530,-47.67"/>
</g>
<!-- node4 -->
<g id="node12" class="node">
<title>node4</title>
<polygon fill="#ebebeb" stroke="transparent" points="1333,-56.17 1333,-77.17 1383,-77.17 1383,-56.17 1333,-56.17"/>
<polygon fill="none" stroke="black" points="1333,-56.17 1333,-77.17 1383,-77.17 1383,-56.17 1333,-56.17"/>
<text text-anchor="start" x="1353" y="-62.97" font-family="Times,serif" font-size="14.00">4</text>
<polygon fill="none" stroke="crimson" points="1333,-34.17 1333,-55.17 1349,-55.17 1349,-34.17 1333,-34.17"/>
<text text-anchor="start" x="1336" y="-40.97" font-family="Times,serif" font-size="14.00">3</text>
<polygon fill="lightsalmon" stroke="transparent" points="1350,-34.17 1350,-55.17 1366,-55.17 1366,-34.17 1350,-34.17"/>
<polygon fill="none" stroke="black" points="1350,-34.17 1350,-55.17 1366,-55.17 1366,-34.17 1350,-34.17"/>
<text text-anchor="start" x="1353" y="-40.97" font-family="Times,serif" font-size="14.00">4</text>
<polygon fill="none" stroke="#1c86ee" points="1367,-34.17 1367,-55.17 1383,-55.17 1383,-34.17 1367,-34.17"/>
<text text-anchor="start" x="1370" y="-40.97" font-family="Times,serif" font-size="14.00">5</text>
</g>
<!-- node5&#45;&gt;node4 -->
<g id="edge19" class="edge">
<title>node5:index&#45;&gt;node4:index</title>
<path fill="none" stroke="crimson" d="M1436,-67.17C1416.68,-67.17 1409.47,-67.17 1394.13,-67.17"/>
<polygon fill="crimson" stroke="crimson" points="1394,-63.67 1384,-67.17 1394,-70.67 1394,-63.67"/>
</g>
<!-- node4&#45;&gt;node5 -->
<g id="edge22" class="edge">
<title>node4:next&#45;&gt;node5:prev</title>
<path fill="none" stroke="#1c86ee" d="M1384,-44.17C1403.32,-44.17 1410.53,-44.17 1425.87,-44.17"/>
<polygon fill="#1c86ee" stroke="#1c86ee" points="1426,-47.67 1436,-44.17 1426,-40.67 1426,-47.67"/>
</g>
<!-- node3 -->
<g id="node13" class="node">
<title>node3</title>
<polygon fill="#ebebeb" stroke="transparent" points="1229,-56.17 1229,-77.17 1279,-77.17 1279,-56.17 1229,-56.17"/>
<polygon fill="none" stroke="black" points="1229,-56.17 1229,-77.17 1279,-77.17 1279,-56.17 1229,-56.17"/>
<text text-anchor="start" x="1249" y="-62.97" font-family="Times,serif" font-size="14.00">3</text>
<polygon fill="none" stroke="crimson" points="1229,-34.17 1229,-55.17 1245,-55.17 1245,-34.17 1229,-34.17"/>
<text text-anchor="start" x="1232" y="-40.97" font-family="Times,serif" font-size="14.00">2</text>
<polygon fill="lightsalmon" stroke="transparent" points="1246,-34.17 1246,-55.17 1262,-55.17 1262,-34.17 1246,-34.17"/>
<polygon fill="none" stroke="black" points="1246,-34.17 1246,-55.17 1262,-55.17 1262,-34.17 1246,-34.17"/>
<text text-anchor="start" x="1249" y="-40.97" font-family="Times,serif" font-size="14.00">3</text>
<polygon fill="none" stroke="#1c86ee" points="1263,-34.17 1263,-55.17 1279,-55.17 1279,-34.17 1263,-34.17"/>
<text text-anchor="start" x="1266" y="-40.97" font-family="Times,serif" font-size="14.00">4</text>
</g>
<!-- node4&#45;&gt;node3 -->
<g id="edge21" class="edge">
<title>node4:index&#45;&gt;node3:index</title>
<path fill="none" stroke="crimson" d="M1332,-67.17C1312.68,-67.17 1305.47,-67.17 1290.13,-67.17"/>
<polygon fill="crimson" stroke="crimson" points="1290,-63.67 1280,-67.17 1290,-70.67 1290,-63.67"/>
</g>
<!-- node3&#45;&gt;node4 -->
<g id="edge24" class="edge">
<title>node3:next&#45;&gt;node4:prev</title>
<path fill="none" stroke="#1c86ee" d="M1280,-44.17C1299.32,-44.17 1306.53,-44.17 1321.87,-44.17"/>
<polygon fill="#1c86ee" stroke="#1c86ee" points="1322,-47.67 1332,-44.17 1322,-40.67 1322,-47.67"/>
</g>
<!-- node2 -->
<g id="node14" class="node">
<title>node2</title>
<polygon fill="#ebebeb" stroke="transparent" points="1125,-56.17 1125,-77.17 1175,-77.17 1175,-56.17 1125,-56.17"/>
<polygon fill="none" stroke="black" points="1125,-56.17 1125,-77.17 1175,-77.17 1175,-56.17 1125,-56.17"/>
<text text-anchor="start" x="1145" y="-62.97" font-family="Times,serif" font-size="14.00">2</text>
<polygon fill="none" stroke="crimson" points="1125,-34.17 1125,-55.17 1141,-55.17 1141,-34.17 1125,-34.17"/>
<text text-anchor="start" x="1128" y="-40.97" font-family="Times,serif" font-size="14.00">1</text>
<polygon fill="lightsalmon" stroke="transparent" points="1142,-34.17 1142,-55.17 1158,-55.17 1158,-34.17 1142,-34.17"/>
<polygon fill="none" stroke="black" points="1142,-34.17 1142,-55.17 1158,-55.17 1158,-34.17 1142,-34.17"/>
<text text-anchor="start" x="1145" y="-40.97" font-family="Times,serif" font-size="14.00">2</text>
<polygon fill="none" stroke="#1c86ee" points="1159,-34.17 1159,-55.17 1175,-55.17 1175,-34.17 1159,-34.17"/>
<text text-anchor="start" x="1162" y="-40.97" font-family="Times,serif" font-size="14.00">3</text>
</g>
<!-- node3&#45;&gt;node2 -->
<g id="edge23" class="edge">
<title>node3:index&#45;&gt;node2:index</title>
<path fill="none" stroke="crimson" d="M1228,-67.17C1208.68,-67.17 1201.47,-67.17 1186.13,-67.17"/>
<polygon fill="crimson" stroke="crimson" points="1186,-63.67 1176,-67.17 1186,-70.67 1186,-63.67"/>
</g>
<!-- node2&#45;&gt;node3 -->
<g id="edge26" class="edge">
<title>node2:next&#45;&gt;node3:prev</title>
<path fill="none" stroke="#1c86ee" d="M1176,-44.17C1195.32,-44.17 1202.53,-44.17 1217.87,-44.17"/>
<polygon fill="#1c86ee" stroke="#1c86ee" points="1218,-47.67 1228,-44.17 1218,-40.67 1218,-47.67"/>
</g>
<!-- node1 -->
<g id="node15" class="node">
<title>node1</title>
<polygon fill="#ebebeb" stroke="transparent" points="1021,-56.17 1021,-77.17 1071,-77.17 1071,-56.17 1021,-56.17"/>
<polygon fill="none" stroke="black" points="1021,-56.17 1021,-77.17 1071,-77.17 1071,-56.17 1021,-56.17"/>
<text text-anchor="start" x="1041" y="-62.97" font-family="Times,serif" font-size="14.00">1</text>
<polygon fill="none" stroke="crimson" points="1021,-34.17 1021,-55.17 1037,-55.17 1037,-34.17 1021,-34.17"/>
<text text-anchor="start" x="1024" y="-40.97" font-family="Times,serif" font-size="14.00">8</text>
<polygon fill="lightsalmon" stroke="transparent" points="1038,-34.17 1038,-55.17 1054,-55.17 1054,-34.17 1038,-34.17"/>
<polygon fill="none" stroke="black" points="1038,-34.17 1038,-55.17 1054,-55.17 1054,-34.17 1038,-34.17"/>
<text text-anchor="start" x="1041" y="-40.97" font-family="Times,serif" font-size="14.00">1</text>
<polygon fill="none" stroke="#1c86ee" points="1055,-34.17 1055,-55.17 1071,-55.17 1071,-34.17 1055,-34.17"/>
<text text-anchor="start" x="1058" y="-40.97" font-family="Times,serif" font-size="14.00">2</text>
</g>
<!-- node2&#45;&gt;node1 -->
<g id="edge25" class="edge">
<title>node2:index&#45;&gt;node1:index</title>
<path fill="none" stroke="crimson" d="M1124,-67.17C1104.68,-67.17 1097.47,-67.17 1082.13,-67.17"/>
<polygon fill="crimson" stroke="crimson" points="1082,-63.67 1072,-67.17 1082,-70.67 1082,-63.67"/>
</g>
<!-- node1&#45;&gt;node2 -->
<g id="edge28" class="edge">
<title>node1:next&#45;&gt;node2:prev</title>
<path fill="none" stroke="#1c86ee" d="M1072,-44.17C1091.32,-44.17 1098.53,-44.17 1113.87,-44.17"/>
<polygon fill="#1c86ee" stroke="#1c86ee" points="1114,-47.67 1124,-44.17 1114,-40.67 1114,-47.67"/>
</g>
<!-- node8 -->
<g id="node16" class="node">
<title>node8</title>
<polygon fill="#ebebeb" stroke="transparent" points="908.5,-56.17 908.5,-77.17 967.5,-77.17 967.5,-56.17 908.5,-56.17"/>
<polygon fill="none" stroke="black" points="908.5,-56.17 908.5,-77.17 967.5,-77.17 967.5,-56.17 908.5,-56.17"/>
<text text-anchor="start" x="933" y="-62.97" font-family="Times,serif" font-size="14.00">8</text>
<polygon fill="none" stroke="crimson" points="908.5,-34.17 908.5,-55.17 933.5,-55.17 933.5,-34.17 908.5,-34.17"/>
<text text-anchor="start" x="911.5" y="-40.97" font-family="Times,serif" font-size="14.00">10</text>
<polygon fill="lightsalmon" stroke="transparent" points="934.5,-34.17 934.5,-55.17 950.5,-55.17 950.5,-34.17 934.5,-34.17"/>
<polygon fill="none" stroke="black" points="934.5,-34.17 934.5,-55.17 950.5,-55.17 950.5,-34.17 934.5,-34.17"/>
<text text-anchor="start" x="937.5" y="-40.97" font-family="Times,serif" font-size="14.00">8</text>
<polygon fill="none" stroke="#1c86ee" points="951.5,-34.17 951.5,-55.17 967.5,-55.17 967.5,-34.17 951.5,-34.17"/>
<text text-anchor="start" x="954.5" y="-40.97" font-family="Times,serif" font-size="14.00">1</text>
</g>
<!-- node1&#45;&gt;node8 -->
<g id="edge27" class="edge">
<title>node1:index&#45;&gt;node8:index</title>
<path fill="none" stroke="crimson" d="M1020,-67.17C1000.87,-67.17 993.73,-67.17 978.53,-67.17"/>
<polygon fill="crimson" stroke="crimson" points="978.5,-63.67 968.5,-67.17 978.5,-70.67 978.5,-63.67"/>
</g>
<!-- node8&#45;&gt;node1 -->
<g id="edge30" class="edge">
<title>node8:next&#45;&gt;node1:prev</title>
<path fill="none" stroke="#1c86ee" d="M968.5,-44.17C987.63,-44.17 994.77,-44.17 1009.97,-44.17"/>
<polygon fill="#1c86ee" stroke="#1c86ee" points="1010,-47.67 1020,-44.17 1010,-40.67 1010,-47.67"/>
</g>
<!-- node10 -->
<g id="node17" class="node">
<title>node10</title>
<polygon fill="#ebebeb" stroke="transparent" points="786,-56.17 786,-77.17 854,-77.17 854,-56.17 786,-56.17"/>
<polygon fill="none" stroke="black" points="786,-56.17 786,-77.17 854,-77.17 854,-56.17 786,-56.17"/>
<text text-anchor="start" x="810.5" y="-62.97" font-family="Times,serif" font-size="14.00">10</text>
<polygon fill="none" stroke="crimson" points="786,-34.17 786,-55.17 811,-55.17 811,-34.17 786,-34.17"/>
<text text-anchor="start" x="789" y="-40.97" font-family="Times,serif" font-size="14.00">17</text>
<polygon fill="lightsalmon" stroke="transparent" points="812,-34.17 812,-55.17 837,-55.17 837,-34.17 812,-34.17"/>
<polygon fill="none" stroke="black" points="812,-34.17 812,-55.17 837,-55.17 837,-34.17 812,-34.17"/>
<text text-anchor="start" x="815" y="-40.97" font-family="Times,serif" font-size="14.00">10</text>
<polygon fill="none" stroke="#1c86ee" points="838,-34.17 838,-55.17 854,-55.17 854,-34.17 838,-34.17"/>
<text text-anchor="start" x="841" y="-40.97" font-family="Times,serif" font-size="14.00">8</text>
</g>
<!-- node8&#45;&gt;node10 -->
<g id="edge29" class="edge">
<title>node8:index&#45;&gt;node10:index</title>
<path fill="none" stroke="crimson" d="M907.5,-67.17C887.99,-67.17 880.72,-67.17 865.23,-67.17"/>
<polygon fill="crimson" stroke="crimson" points="865,-63.67 855,-67.17 865,-70.67 865,-63.67"/>
</g>
<!-- node10&#45;&gt;node8 -->
<g id="edge32" class="edge">
<title>node10:next&#45;&gt;node8:prev</title>
<path fill="none" stroke="#1c86ee" d="M855,-44.17C874.51,-44.17 881.78,-44.17 897.27,-44.17"/>
<polygon fill="#1c86ee" stroke="#1c86ee" points="897.5,-47.67 907.5,-44.17 897.5,-40.67 897.5,-47.67"/>
</g>
<!-- node17 -->
<g id="node18" class="node">
<title>node17</title>
<polygon fill="#ebebeb" stroke="transparent" points="655.5,-56.17 655.5,-77.17 732.5,-77.17 732.5,-56.17 655.5,-56.17"/>
<polygon fill="none" stroke="black" points="655.5,-56.17 655.5,-77.17 732.5,-77.17 732.5,-56.17 655.5,-56.17"/>
<text text-anchor="start" x="684.5" y="-62.97" font-family="Times,serif" font-size="14.00">17</text>
<polygon fill="none" stroke="crimson" points="655.5,-34.17 655.5,-55.17 680.5,-55.17 680.5,-34.17 655.5,-34.17"/>
<text text-anchor="start" x="658.5" y="-40.97" font-family="Times,serif" font-size="14.00">18</text>
<polygon fill="lightsalmon" stroke="transparent" points="681.5,-34.17 681.5,-55.17 706.5,-55.17 706.5,-34.17 681.5,-34.17"/>
<polygon fill="none" stroke="black" points="681.5,-34.17 681.5,-55.17 706.5,-55.17 706.5,-34.17 681.5,-34.17"/>
<text text-anchor="start" x="684.5" y="-40.97" font-family="Times,serif" font-size="14.00">17</text>
<polygon fill="none" stroke="#1c86ee" points="707.5,-34.17 707.5,-55.17 732.5,-55.17 732.5,-34.17 707.5,-34.17"/>
<text text-anchor="start" x="710.5" y="-40.97" font-family="Times,serif" font-size="14.00">10</text>
</g>
<!-- node10&#45;&gt;node17 -->
<g id="edge31" class="edge">
<title>node10:index&#45;&gt;node17:index</title>
<path fill="none" stroke="crimson" d="M785,-67.17C765.87,-67.17 758.73,-67.17 743.53,-67.17"/>
<polygon fill="crimson" stroke="crimson" points="743.5,-63.67 733.5,-67.17 743.5,-70.67 743.5,-63.67"/>
</g>
<!-- node17&#45;&gt;node10 -->
<g id="edge34" class="edge">
<title>node17:next&#45;&gt;node10:prev</title>
<path fill="none" stroke="#1c86ee" d="M733.5,-44.17C752.63,-44.17 759.77,-44.17 774.97,-44.17"/>
<polygon fill="#1c86ee" stroke="#1c86ee" points="775,-47.67 785,-44.17 775,-40.67 775,-47.67"/>
</g>
<!-- node18 -->
<g id="node19" class="node">
<title>node18</title>
<polygon fill="#ebebeb" stroke="transparent" points="524.5,-56.17 524.5,-77.17 601.5,-77.17 601.5,-56.17 524.5,-56.17"/>
<polygon fill="none" stroke="black" points="524.5,-56.17 524.5,-77.17 601.5,-77.17 601.5,-56.17 524.5,-56.17"/>
<text text-anchor="start" x="553.5" y="-62.97" font-family="Times,serif" font-size="14.00">18</text>
<polygon fill="none" stroke="crimson" points="524.5,-34.17 524.5,-55.17 549.5,-55.17 549.5,-34.17 524.5,-34.17"/>
<text text-anchor="start" x="527.5" y="-40.97" font-family="Times,serif" font-size="14.00">19</text>
<polygon fill="lightsalmon" stroke="transparent" points="550.5,-34.17 550.5,-55.17 575.5,-55.17 575.5,-34.17 550.5,-34.17"/>
<polygon fill="none" stroke="black" points="550.5,-34.17 550.5,-55.17 575.5,-55.17 575.5,-34.17 550.5,-34.17"/>
<text text-anchor="start" x="553.5" y="-40.97" font-family="Times,serif" font-size="14.00">18</text>
<polygon fill="none" stroke="#1c86ee" points="576.5,-34.17 576.5,-55.17 601.5,-55.17 601.5,-34.17 576.5,-34.17"/>
<text text-anchor="start" x="579.5" y="-40.97" font-family="Times,serif" font-size="14.00">17</text>
</g>
<!-- node17&#45;&gt;node18 -->
<g id="edge33" class="edge">
<title>node17:index&#45;&gt;node18:index</title>
<path fill="none" stroke="crimson" d="M654.5,-67.17C635.18,-67.17 627.97,-67.17 612.63,-67.17"/>
<polygon fill="crimson" stroke="crimson" points="612.5,-63.67 602.5,-67.17 612.5,-70.67 612.5,-63.67"/>
</g>
<!-- node18&#45;&gt;node17 -->
<g id="edge36" class="edge">
<title>node18:next&#45;&gt;node17:prev</title>
<path fill="none" stroke="#1c86ee" d="M602.5,-44.17C621.82,-44.17 629.03,-44.17 644.37,-44.17"/>
<polygon fill="#1c86ee" stroke="#1c86ee" points="644.5,-47.67 654.5,-44.17 644.5,-40.67 644.5,-47.67"/>
</g>
<!-- node19 -->
<g id="node20" class="node">
<title>node19</title>
<polygon fill="#ebebeb" stroke="transparent" points="393.5,-56.17 393.5,-77.17 470.5,-77.17 470.5,-56.17 393.5,-56.17"/>
<polygon fill="none" stroke="black" points="393.5,-56.17 393.5,-77.17 470.5,-77.17 470.5,-56.17 393.5,-56.17"/>
<text text-anchor="start" x="422.5" y="-62.97" font-family="Times,serif" font-size="14.00">19</text>
<polygon fill="none" stroke="crimson" points="393.5,-34.17 393.5,-55.17 418.5,-55.17 418.5,-34.17 393.5,-34.17"/>
<text text-anchor="start" x="396.5" y="-40.97" font-family="Times,serif" font-size="14.00">20</text>
<polygon fill="lightsalmon" stroke="transparent" points="419.5,-34.17 419.5,-55.17 444.5,-55.17 444.5,-34.17 419.5,-34.17"/>
<polygon fill="none" stroke="black" points="419.5,-34.17 419.5,-55.17 444.5,-55.17 444.5,-34.17 419.5,-34.17"/>
<text text-anchor="start" x="422.5" y="-40.97" font-family="Times,serif" font-size="14.00">19</text>
<polygon fill="none" stroke="#1c86ee" points="445.5,-34.17 445.5,-55.17 470.5,-55.17 470.5,-34.17 445.5,-34.17"/>
<text text-anchor="start" x="448.5" y="-40.97" font-family="Times,serif" font-size="14.00">18</text>
</g>
<!-- node18&#45;&gt;node19 -->
<g id="edge35" class="edge">
<title>node18:index&#45;&gt;node19:index</title>
<path fill="none" stroke="crimson" d="M523.5,-67.17C504.18,-67.17 496.97,-67.17 481.63,-67.17"/>
<polygon fill="crimson" stroke="crimson" points="481.5,-63.67 471.5,-67.17 481.5,-70.67 481.5,-63.67"/>
</g>
<!-- node19&#45;&gt;node18 -->
<g id="edge38" class="edge">
<title>node19:next&#45;&gt;node18:prev</title>
<path fill="none" stroke="#1c86ee" d="M471.5,-44.17C490.82,-44.17 498.03,-44.17 513.37,-44.17"/>
<polygon fill="#1c86ee" stroke="#1c86ee" points="513.5,-47.67 523.5,-44.17 513.5,-40.67 513.5,-47.67"/>
</g>
<!-- node20 -->
<g id="node21" class="node">
<title>node20</title>
<polygon fill="#ebebeb" stroke="transparent" points="262.5,-56.17 262.5,-77.17 339.5,-77.17 339.5,-56.17 262.5,-56.17"/>
<polygon fill="none" stroke="black" points="262.5,-56.17 262.5,-77.17 339.5,-77.17 339.5,-56.17 262.5,-56.17"/>
<text text-anchor="start" x="291.5" y="-62.97" font-family="Times,serif" font-size="14.00">20</text>
<polygon fill="none" stroke="crimson" points="262.5,-34.17 262.5,-55.17 287.5,-55.17 287.5,-34.17 262.5,-34.17"/>
<text text-anchor="start" x="265.5" y="-40.97" font-family="Times,serif" font-size="14.00">21</text>
<polygon fill="lightsalmon" stroke="transparent" points="288.5,-34.17 288.5,-55.17 313.5,-55.17 313.5,-34.17 288.5,-34.17"/>
<polygon fill="none" stroke="black" points="288.5,-34.17 288.5,-55.17 313.5,-55.17 313.5,-34.17 288.5,-34.17"/>
<text text-anchor="start" x="291.5" y="-40.97" font-family="Times,serif" font-size="14.00">20</text>
<polygon fill="none" stroke="#1c86ee" points="314.5,-34.17 314.5,-55.17 339.5,-55.17 339.5,-34.17 314.5,-34.17"/>
<text text-anchor="start" x="317.5" y="-40.97" font-family="Times,serif" font-size="14.00">19</text>
</g>
<!-- node19&#45;&gt;node20 -->
<g id="edge37" class="edge">
<title>node19:index&#45;&gt;node20:index</title>
<path fill="none" stroke="crimson" d="M392.5,-67.17C373.18,-67.17 365.97,-67.17 350.63,-67.17"/>
<polygon fill="crimson" stroke="crimson" points="350.5,-63.67 340.5,-67.17 350.5,-70.67 350.5,-63.67"/>
</g>
<!-- node20&#45;&gt;node19 -->
<g id="edge40" class="edge">
<title>node20:next&#45;&gt;node19:prev</title>
<path fill="none" stroke="#1c86ee" d="M340.5,-44.17C359.82,-44.17 367.03,-44.17 382.37,-44.17"/>
<polygon fill="#1c86ee" stroke="#1c86ee" points="382.5,-47.67 392.5,-44.17 382.5,-40.67 382.5,-47.67"/>
</g>
<!-- node21 -->
<g id="node22" class="node">
<title>node21</title>
<polygon fill="#ebebeb" stroke="transparent" points="131.5,-56.17 131.5,-77.17 208.5,-77.17 208.5,-56.17 131.5,-56.17"/>
<polygon fill="none" stroke="black" points="131.5,-56.17 131.5,-77.17 208.5,-77.17 208.5,-56.17 131.5,-56.17"/>
<text text-anchor="start" x="160.5" y="-62.97" font-family="Times,serif" font-size="14.00">21</text>
<polygon fill="none" stroke="crimson" points="131.5,-34.17 131.5,-55.17 156.5,-55.17 156.5,-34.17 131.5,-34.17"/>
<text text-anchor="start" x="134.5" y="-40.97" font-family="Times,serif" font-size="14.00">22</text>
<polygon fill="lightsalmon" stroke="transparent" points="157.5,-34.17 157.5,-55.17 182.5,-55.17 182.5,-34.17 157.5,-34.17"/>
<polygon fill="none" stroke="black" points="157.5,-34.17 157.5,-55.17 182.5,-55.17 182.5,-34.17 157.5,-34.17"/>
<text text-anchor="start" x="160.5" y="-40.97" font-family="Times,serif" font-size="14.00">21</text>
<polygon fill="none" stroke="#1c86ee" points="183.5,-34.17 183.5,-55.17 208.5,-55.17 208.5,-34.17 183.5,-34.17"/>
<text text-anchor="start" x="186.5" y="-40.97" font-family="Times,serif" font-size="14.00">20</text>
</g>
<!-- node20&#45;&gt;node21 -->
<g id="edge39" class="edge">
<title>node20:index&#45;&gt;node21:index</title>
<path fill="none" stroke="crimson" d="M261.5,-67.17C242.18,-67.17 234.97,-67.17 219.63,-67.17"/>
<polygon fill="crimson" stroke="crimson" points="219.5,-63.67 209.5,-67.17 219.5,-70.67 219.5,-63.67"/>
</g>
<!-- node21&#45;&gt;node20 -->
<g id="edge42" class="edge">
<title>node21:next&#45;&gt;node20:prev</title>
<path fill="none" stroke="#1c86ee" d="M209.5,-44.17C228.82,-44.17 236.03,-44.17 251.37,-44.17"/>
<polygon fill="#1c86ee" stroke="#1c86ee" points="251.5,-47.67 261.5,-44.17 251.5,-40.67 251.5,-47.67"/>
</g>
<!-- node22 -->
<g id="node23" class="node">
<title>node22</title>
<polygon fill="#ebebeb" stroke="transparent" points="9,-56.17 9,-77.17 77,-77.17 77,-56.17 9,-56.17"/>
<polygon fill="none" stroke="black" points="9,-56.17 9,-77.17 77,-77.17 77,-56.17 9,-56.17"/>
<text text-anchor="start" x="33.5" y="-62.97" font-family="Times,serif" font-size="14.00">22</text>
<polygon fill="none" stroke="crimson" points="9,-34.17 9,-55.17 25,-55.17 25,-34.17 9,-34.17"/>
<text text-anchor="start" x="12" y="-40.97" font-family="Times,serif" font-size="14.00">0</text>
<polygon fill="lightsalmon" stroke="transparent" points="26,-34.17 26,-55.17 51,-55.17 51,-34.17 26,-34.17"/>
<polygon fill="none" stroke="black" points="26,-34.17 26,-55.17 51,-55.17 51,-34.17 26,-34.17"/>
<text text-anchor="start" x="29" y="-40.97" font-family="Times,serif" font-size="14.00">22</text>
<polygon fill="none" stroke="#1c86ee" points="52,-34.17 52,-55.17 77,-55.17 77,-34.17 52,-34.17"/>
<text text-anchor="start" x="55" y="-40.97" font-family="Times,serif" font-size="14.00">21</text>
</g>
<!-- node21&#45;&gt;node22 -->
<g id="edge41" class="edge">
<title>node21:index&#45;&gt;node22:index</title>
<path fill="none" stroke="crimson" d="M130.5,-67.17C110.99,-67.17 103.72,-67.17 88.23,-67.17"/>
<polygon fill="crimson" stroke="crimson" points="88,-63.67 78,-67.17 88,-70.67 88,-63.67"/>
</g>
<!-- node22&#45;&gt;node0 -->
<g id="edge43" class="edge">
<title>node22:index&#45;&gt;node0</title>
<path fill="none" stroke="black" d="M78,-67.17C100.49,-67.17 100.59,-85.27 122,-92.17 197.52,-116.5 220.16,-111.17 299.5,-111.17 299.5,-111.17 299.5,-111.17 2416.5,-111.17 2491.86,-111.17 2511.84,-110.25 2585,-92.17 2606.26,-86.91 2629.16,-78.06 2647.12,-70.34"/>
<polygon fill="black" stroke="black" points="2648.8,-73.42 2656.55,-66.19 2645.99,-67.01 2648.8,-73.42"/>
</g>
<!-- node22&#45;&gt;node0 -->
<g id="edge46" class="edge">
<title>node22:next&#45;&gt;node0</title>
<path fill="none" stroke="black" d="M78,-44.17C100.28,-44.17 100.74,-26.81 122,-20.17 197.73,3.5 220.16,-1.17 299.5,-1.17 299.5,-1.17 299.5,-1.17 2416.5,-1.17 2491.86,-1.17 2511.67,-2.76 2585,-20.17 2605.87,-25.12 2628.43,-33.34 2646.3,-40.56"/>
<polygon fill="black" stroke="black" points="2645.13,-43.86 2655.71,-44.45 2647.8,-37.39 2645.13,-43.86"/>
</g>
<!-- node22&#45;&gt;node21 -->
<g id="edge44" class="edge">
<title>node22:next&#45;&gt;node21:prev</title>
<path fill="none" stroke="#1c86ee" d="M78,-44.17C97.51,-44.17 104.78,-44.17 120.27,-44.17"/>
<polygon fill="#1c86ee" stroke="#1c86ee" points="120.5,-47.67 130.5,-44.17 120.5,-40.67 120.5,-47.67"/>
</g>
</g>
</svg>
