<?xml version="1.0" encoding="UTF-8" standalone="no"?>
<!DOCTYPE svg PUBLIC "-//W3C//DTD SVG 1.1//EN"
 "http://www.w3.org/Graphics/SVG/1.1/DTD/svg11.dtd">
<!-- Generated by graphviz version 2.43.0 (0)
 -->
<!-- Title: list Pages: 1 -->
<svg width="335pt" height="89pt"
 viewBox="0.00 0.00 335.49 89.16" xmlns="http://www.w3.org/2000/svg" xmlns:xlink="http://www.w3.org/1999/xlink">
<g id="graph0" class="graph" transform="scale(1 1) rotate(0) translate(4 85.16)">
<title>list</title>
<polygon fill="white" stroke="transparent" points="-4,4 -4,-85.16 331.49,-85.16 331.49,4 -4,4"/>
<!-- node2 -->
<g id="node1" class="node">
<title>node2</title>
<polygon fill="#ebebeb" stroke="transparent" points="113,-39.9 113,-60.9 163,-60.9 163,-39.9 113,-39.9"/>
<polygon fill="none" stroke="black" points="113,-39.9 113,-60.9 163,-60.9 163,-39.9 113,-39.9"/>
<text text-anchor="start" x="133" y="-46.7" font-family="Times,serif" font-size="14.00">2</text>
<polygon fill="none" stroke="crimson" points="113,-17.9 113,-38.9 129,-38.9 129,-17.9 113,-17.9"/>
<text text-anchor="start" x="116" y="-24.7" font-family="Times,serif" font-size="14.00">1</text>
<polygon fill="lightsalmon" stroke="transparent" points="130,-17.9 130,-38.9 146,-38.9 146,-17.9 130,-17.9"/>
<polygon fill="none" stroke="black" points="130,-17.9 130,-38.9 146,-38.9 146,-17.9 130,-17.9"/>
<text text-anchor="start" x="133" y="-24.7" font-family="Times,serif" font-size="14.00">2</text>
<polygon fill="none" stroke="#1c86ee" points="147,-17.9 147,-38.9 163,-38.9 163,-17.9 147,-17.9"/>
<text text-anchor="start" x="150" y="-24.7" font-family="Times,serif" font-size="14.00">0</text>
</g>
<!-- node1 -->
<g id="node2" class="node">
<title>node1</title>
<polygon fill="#ebebeb" stroke="transparent" points="9,-39.9 9,-60.9 59,-60.9 59,-39.9 9,-39.9"/>
<polygon fill="none" stroke="black" points="9,-39.9 9,-60.9 59,-60.9 59,-39.9 9,-39.9"/>
<text text-anchor="start" x="29" y="-46.7" font-family="Times,serif" font-size="14.00">1</text>
<polygon fill="none" stroke="crimson" points="9,-17.9 9,-38.9 25,-38.9 25,-17.9 9,-17.9"/>
<text text-anchor="start" x="12" y="-24.7" font-family="Times,serif" font-size="14.00">0</text>
<polygon fill="lightsalmon" stroke="transparent" points="26,-17.9 26,-38.9 42,-38.9 42,-17.9 26,-17.9"/>
<polygon fill="none" stroke="black" points="26,-17.9 26,-38.9 42,-38.9 42,-17.9 26,-17.9"/>
<text text-anchor="start" x="29" y="-24.7" font-family="Times,serif" font-size="14.00">1</text>
<polygon fill="none" stroke="#1c86ee" points="43,-17.9 43,-38.9 59,-38.9 59,-17.9 43,-17.9"/>
<text text-anchor="start" x="46" y="-24.7" font-family="Times,serif" font-size="14.00">2</text>
</g>
<!-- node2&#45;&gt;node1 -->
<g id="edge1" class="edge">
<title>node2:index&#45;&gt;node1:index</title>
<path fill="none" stroke="crimson" d="M112,-50.9C92.68,-50.9 85.47,-50.9 70.13,-50.9"/>
<polygon fill="crimson" stroke="crimson" points="70,-47.4 60,-50.9 70,-54.4 70,-47.4"/>
</g>
<!-- node0 -->
<g id="node3" class="node">
<title>node0</title>
<polygon fill="none" stroke="black" points="267.75,-56.9 207.75,-38.9 267.75,-20.9 327.74,-38.9 267.75,-56.9"/>
<text text-anchor="middle" x="267.75" y="-35.2" font-family="Times,serif" font-size="14.00">Fictive</text>
</g>
<!-- node2&#45;&gt;node0 -->
<g id="edge2" class="edge">
<title>node2:next&#45;&gt;node0</title>
<path fill="none" stroke="black" d="M164,-27.9C181.53,-27.9 200.65,-29.5 217.59,-31.48"/>
<polygon fill="black" stroke="black" points="217.46,-35 227.82,-32.76 218.33,-28.05 217.46,-35"/>
</g>
<!-- node1&#45;&gt;node2 -->
<g id="edge4" class="edge">
<title>node1:next&#45;&gt;node2:prev</title>
<path fill="none" stroke="#1c86ee" d="M60,-27.9C79.32,-27.9 86.53,-27.9 101.87,-27.9"/>
<polygon fill="#1c86ee" stroke="#1c86ee" points="102,-31.4 112,-27.9 102,-24.4 102,-31.4"/>
</g>
<!-- node1&#45;&gt;node0 -->
<g id="edge3" class="edge">
<title>node1:index&#45;&gt;node0</title>
<path fill="none" stroke="black" d="M60,-50.9C82.49,-50.9 82.25,-70.15 104,-75.9 133.22,-83.62 142.3,-81.49 172,-75.9 193.96,-71.76 217.37,-62.67 235.42,-54.54"/>
<polygon fill="black" stroke="black" points="237.26,-57.54 244.85,-50.16 234.31,-51.19 237.26,-57.54"/>
</g>
<!-- node1&#45;&gt;node0 -->
<g id="edge6" class="edge">
<title>node1:next&#45;&gt;node0</title>
<path fill="none" stroke="black" d="M60,-27.9C82.07,-27.9 82.57,-10.16 104,-4.9 133.35,2.31 142.23,0.28 172,-4.9 193.35,-8.61 216.26,-16.71 234.19,-24.07"/>
<polygon fill="black" stroke="black" points="233.03,-27.38 243.61,-28.05 235.76,-20.93 233.03,-27.38"/>
</g>
<!-- node0&#45;&gt;node2 -->
<g id="edge5" class="edge">
<title>node0&#45;&gt;node2:index</title>
<path fill="none" stroke="black" d="M229.29,-45.39C212.83,-47.79 192.98,-50.08 174.07,-50.72"/>
<polygon fill="black" stroke="black" points="173.94,-47.22 164,-50.9 174.06,-54.22 173.94,-47.22"/>
</g>
</g>
</svg>
