<?xml version="1.0" encoding="UTF-8" standalone="no"?>
<!DOCTYPE svg PUBLIC "-//W3C//DTD SVG 1.1//EN"
 "http://www.w3.org/Graphics/SVG/1.1/DTD/svg11.dtd">
<!-- Generated by graphviz version 2.43.0 (0)
 -->
<!-- Title: list Pages: 1 -->
<svg width="439pt" height="105pt"
 viewBox="0.00 0.00 439.49 105.43" xmlns="http://www.w3.org/2000/svg" xmlns:xlink="http://www.w3.org/1999/xlink">
<g id="graph0" class="graph" transform="scale(1 1) rotate(0) translate(4 101.43)">
<title>list</title>
<polygon fill="white" stroke="transparent" points="-4,4 -4,-101.43 435.49,-101.43 435.49,4 -4,4"/>
<!-- node3 -->
<g id="node1" class="node">
<title>node3</title>
<polygon fill="#ebebeb" stroke="transparent" points="217,-48.47 217,-69.47 267,-69.47 267,-48.47 217,-48.47"/>
<polygon fill="none" stroke="black" points="217,-48.47 217,-69.47 267,-69.47 267,-48.47 217,-48.47"/>
<text text-anchor="start" x="237" y="-55.27" font-family="Times,serif" font-size="14.00">3</text>
<polygon fill="none" stroke="crimson" points="217,-26.47 217,-47.47 233,-47.47 233,-26.47 217,-26.47"/>
<text text-anchor="start" x="220" y="-33.27" font-family="Times,serif" font-size="14.00">2</text>
<polygon fill="lightsalmon" stroke="transparent" points="234,-26.47 234,-47.47 250,-47.47 250,-26.47 234,-26.47"/>
<polygon fill="none" stroke="black" points="234,-26.47 234,-47.47 250,-47.47 250,-26.47 234,-26.47"/>
<text text-anchor="start" x="237" y="-33.27" font-family="Times,serif" font-size="14.00">3</text>
<polygon fill="none" stroke="#1c86ee" points="251,-26.47 251,-47.47 267,-47.47 267,-26.47 251,-26.47"/>
<text text-anchor="start" x="254" y="-33.27" font-family="Times,serif" font-size="14.00">0</text>
</g>
<!-- node2 -->
<g id="node2" class="node">
<title>node2</title>
<polygon fill="#ebebeb" stroke="transparent" points="113,-48.47 113,-69.47 163,-69.47 163,-48.47 113,-48.47"/>
<polygon fill="none" stroke="black" points="113,-48.47 113,-69.47 163,-69.47 163,-48.47 113,-48.47"/>
<text text-anchor="start" x="133" y="-55.27" font-family="Times,serif" font-size="14.00">2</text>
<polygon fill="none" stroke="crimson" points="113,-26.47 113,-47.47 129,-47.47 129,-26.47 113,-26.47"/>
<text text-anchor="start" x="116" y="-33.27" font-family="Times,serif" font-size="14.00">1</text>
<polygon fill="lightsalmon" stroke="transparent" points="130,-26.47 130,-47.47 146,-47.47 146,-26.47 130,-26.47"/>
<polygon fill="none" stroke="black" points="130,-26.47 130,-47.47 146,-47.47 146,-26.47 130,-26.47"/>
<text text-anchor="start" x="133" y="-33.27" font-family="Times,serif" font-size="14.00">2</text>
<polygon fill="none" stroke="#1c86ee" points="147,-26.47 147,-47.47 163,-47.47 163,-26.47 147,-26.47"/>
<text text-anchor="start" x="150" y="-33.27" font-family="Times,serif" font-size="14.00">3</text>
</g>
<!-- node3&#45;&gt;node2 -->
<g id="edge1" class="edge">
<title>node3:index&#45;&gt;node2:index</title>
<path fill="none" stroke="crimson" d="M216,-59.47C196.68,-59.47 189.47,-59.47 174.13,-59.47"/>
<polygon fill="crimson" stroke="crimson" points="174,-55.97 164,-59.47 174,-62.97 174,-55.97"/>
</g>
<!-- node0 -->
<g id="node3" class="node">
<title>node0</title>
<polygon fill="none" stroke="black" points="371.75,-65.47 311.75,-47.47 371.75,-29.47 431.74,-47.47 371.75,-65.47"/>
<text text-anchor="middle" x="371.75" y="-43.77" font-family="Times,serif" font-size="14.00">Fictive</text>
</g>
<!-- node3&#45;&gt;node0 -->
<g id="edge2" class="edge">
<title>node3:next&#45;&gt;node0</title>
<path fill="none" stroke="black" d="M268,-36.47C285.53,-36.47 304.65,-38.07 321.59,-40.05"/>
<polygon fill="black" stroke="black" points="321.46,-43.56 331.82,-41.33 322.33,-36.62 321.46,-43.56"/>
</g>
<!-- node2&#45;&gt;node3 -->
<g id="edge4" class="edge">
<title>node2:next&#45;&gt;node3:prev</title>
<path fill="none" stroke="#1c86ee" d="M164,-36.47C183.32,-36.47 190.53,-36.47 205.87,-36.47"/>
<polygon fill="#1c86ee" stroke="#1c86ee" points="206,-39.97 216,-36.47 206,-32.97 206,-39.97"/>
</g>
<!-- node1 -->
<g id="node4" class="node">
<title>node1</title>
<polygon fill="#ebebeb" stroke="transparent" points="9,-48.47 9,-69.47 59,-69.47 59,-48.47 9,-48.47"/>
<polygon fill="none" stroke="black" points="9,-48.47 9,-69.47 59,-69.47 59,-48.47 9,-48.47"/>
<text text-anchor="start" x="29" y="-55.27" font-family="Times,serif" font-size="14.00">1</text>
<polygon fill="none" stroke="crimson" points="9,-26.47 9,-47.47 25,-47.47 25,-26.47 9,-26.47"/>
<text text-anchor="start" x="12" y="-33.27" font-family="Times,serif" font-size="14.00">0</text>
<polygon fill="lightsalmon" stroke="transparent" points="26,-26.47 26,-47.47 42,-47.47 42,-26.47 26,-26.47"/>
<polygon fill="none" stroke="black" points="26,-26.47 26,-47.47 42,-47.47 42,-26.47 26,-26.47"/>
<text text-anchor="start" x="29" y="-33.27" font-family="Times,serif" font-size="14.00">1</text>
<polygon fill="none" stroke="#1c86ee" points="43,-26.47 43,-47.47 59,-47.47 59,-26.47 43,-26.47"/>
<text text-anchor="start" x="46" y="-33.27" font-family="Times,serif" font-size="14.00">2</text>
</g>
<!-- node2&#45;&gt;node1 -->
<g id="edge3" class="edge">
<title>node2:index&#45;&gt;node1:index</title>
<path fill="none" stroke="crimson" d="M112,-59.47C92.68,-59.47 85.47,-59.47 70.13,-59.47"/>
<polygon fill="crimson" stroke="crimson" points="70,-55.97 60,-59.47 70,-62.97 70,-55.97"/>
</g>
<!-- node0&#45;&gt;node3 -->
<g id="edge7" class="edge">
<title>node0&#45;&gt;node3:index</title>
<path fill="none" stroke="black" d="M333.29,-53.96C316.83,-56.36 296.98,-58.65 278.07,-59.29"/>
<polygon fill="black" stroke="black" points="277.94,-55.79 268,-59.47 278.06,-62.79 277.94,-55.79"/>
</g>
<!-- node1&#45;&gt;node2 -->
<g id="edge6" class="edge">
<title>node1:next&#45;&gt;node2:prev</title>
<path fill="none" stroke="#1c86ee" d="M60,-36.47C79.32,-36.47 86.53,-36.47 101.87,-36.47"/>
<polygon fill="#1c86ee" stroke="#1c86ee" points="102,-39.97 112,-36.47 102,-32.97 102,-39.97"/>
</g>
<!-- node1&#45;&gt;node0 -->
<g id="edge5" class="edge">
<title>node1:index&#45;&gt;node0</title>
<path fill="none" stroke="black" d="M60,-59.47C82.49,-59.47 82.25,-78.72 104,-84.47 177.91,-104 200.88,-98.62 276,-84.47 297.96,-80.33 321.37,-71.24 339.42,-63.11"/>
<polygon fill="black" stroke="black" points="341.26,-66.11 348.85,-58.72 338.31,-59.76 341.26,-66.11"/>
</g>
<!-- node1&#45;&gt;node0 -->
<g id="edge8" class="edge">
<title>node1:next&#45;&gt;node0</title>
<path fill="none" stroke="black" d="M60,-36.47C82.28,-36.47 82.42,-17.97 104,-12.47 178.07,6.42 200.75,0.99 276,-12.47 297.56,-16.32 320.63,-24.74 338.6,-32.36"/>
<polygon fill="black" stroke="black" points="337.46,-35.68 348.03,-36.48 340.26,-29.27 337.46,-35.68"/>
</g>
</g>
</svg>
