<?xml version="1.0" encoding="UTF-8" standalone="no"?>
<!DOCTYPE svg PUBLIC "-//W3C//DTD SVG 1.1//EN"
 "http://www.w3.org/Graphics/SVG/1.1/DTD/svg11.dtd">
<!-- Generated by graphviz version 2.43.0 (0)
 -->
<!-- Title: list Pages: 1 -->
<svg width="388pt" height="170pt"
 viewBox="0.00 0.00 388.00 169.77" xmlns="http://www.w3.org/2000/svg" xmlns:xlink="http://www.w3.org/1999/xlink">
<g id="graph0" class="graph" transform="scale(1 1) rotate(0) translate(4 165.77)">
<title>list</title>
<polygon fill="white" stroke="transparent" points="-4,4 -4,-165.77 384,-165.77 384,4 -4,4"/>
<!-- node1 -->
<g id="node1" class="node">
<title>node1</title>
<polygon fill="#ebebeb" stroke="transparent" points="9,-80.96 9,-101.96 59,-101.96 59,-80.96 9,-80.96"/>
<polygon fill="none" stroke="black" points="9,-80.96 9,-101.96 59,-101.96 59,-80.96 9,-80.96"/>
<text text-anchor="start" x="29" y="-87.76" font-family="Times,serif" font-size="14.00">1</text>
<polygon fill="none" stroke="crimson" points="9,-58.96 9,-79.96 25,-79.96 25,-58.96 9,-58.96"/>
<text text-anchor="start" x="12" y="-65.76" font-family="Times,serif" font-size="14.00">2</text>
<polygon fill="lightsalmon" stroke="transparent" points="26,-58.96 26,-79.96 42,-79.96 42,-58.96 26,-58.96"/>
<polygon fill="none" stroke="black" points="26,-58.96 26,-79.96 42,-79.96 42,-58.96 26,-58.96"/>
<text text-anchor="start" x="29" y="-65.76" font-family="Times,serif" font-size="14.00">1</text>
<polygon fill="none" stroke="#1c86ee" points="43,-58.96 43,-79.96 59,-79.96 59,-58.96 43,-58.96"/>
<text text-anchor="start" x="46" y="-65.76" font-family="Times,serif" font-size="14.00">0</text>
</g>
<!-- node2 -->
<g id="node2" class="node">
<title>node2</title>
<polygon fill="#ebebeb" stroke="transparent" points="321,-80.96 321,-101.96 371,-101.96 371,-80.96 321,-80.96"/>
<polygon fill="none" stroke="black" points="321,-80.96 321,-101.96 371,-101.96 371,-80.96 321,-80.96"/>
<text text-anchor="start" x="341" y="-87.76" font-family="Times,serif" font-size="14.00">2</text>
<polygon fill="none" stroke="crimson" points="321,-58.96 321,-79.96 337,-79.96 337,-58.96 321,-58.96"/>
<text text-anchor="start" x="324" y="-65.76" font-family="Times,serif" font-size="14.00">3</text>
<polygon fill="lightsalmon" stroke="transparent" points="338,-58.96 338,-79.96 354,-79.96 354,-58.96 338,-58.96"/>
<polygon fill="none" stroke="black" points="338,-58.96 338,-79.96 354,-79.96 354,-58.96 338,-58.96"/>
<text text-anchor="start" x="341" y="-65.76" font-family="Times,serif" font-size="14.00">2</text>
<polygon fill="none" stroke="#1c86ee" points="355,-58.96 355,-79.96 371,-79.96 371,-58.96 355,-58.96"/>
<text text-anchor="start" x="358" y="-65.76" font-family="Times,serif" font-size="14.00">1</text>
</g>
<!-- node1&#45;&gt;node2 -->
<g id="edge1" class="edge">
<title>node1:index&#45;&gt;node2:index</title>
<path fill="none" stroke="crimson" d="M60,-91.96C88.61,-91.96 77.75,-127.58 104,-138.96 174.13,-169.38 205.87,-169.38 276,-138.96 298.56,-129.18 293.71,-101.5 310.06,-93.91"/>
<polygon fill="crimson" stroke="crimson" points="310.86,-97.32 320,-91.96 309.51,-90.45 310.86,-97.32"/>
</g>
<!-- node0 -->
<g id="node4" class="node">
<title>node0</title>
<polygon fill="#ebebeb" stroke="transparent" points="113,-102.96 113,-123.96 163,-123.96 163,-102.96 113,-102.96"/>
<polygon fill="none" stroke="black" points="113,-102.96 113,-123.96 163,-123.96 163,-102.96 113,-102.96"/>
<text text-anchor="start" x="133" y="-109.76" font-family="Times,serif" font-size="14.00">0</text>
<polygon fill="none" stroke="crimson" points="113,-80.96 113,-101.96 129,-101.96 129,-80.96 113,-80.96"/>
<text text-anchor="start" x="116" y="-87.76" font-family="Times,serif" font-size="14.00">1</text>
<polygon fill="lightsalmon" stroke="transparent" points="130,-80.96 130,-101.96 146,-101.96 146,-80.96 130,-80.96"/>
<polygon fill="none" stroke="black" points="130,-80.96 130,-101.96 146,-101.96 146,-80.96 130,-80.96"/>
<text text-anchor="start" x="133" y="-87.76" font-family="Times,serif" font-size="14.00">0</text>
<polygon fill="none" stroke="#1c86ee" points="147,-80.96 147,-101.96 163,-101.96 163,-80.96 147,-80.96"/>
<text text-anchor="start" x="150" y="-87.76" font-family="Times,serif" font-size="14.00">3</text>
</g>
<!-- node1&#45;&gt;node0 -->
<g id="edge8" class="edge">
<title>node1:next&#45;&gt;node0:prev</title>
<path fill="none" stroke="#1c86ee" d="M60,-68.96C81.17,-68.96 85.77,-84.62 101.76,-89.52"/>
<polygon fill="#1c86ee" stroke="#1c86ee" points="101.61,-93.03 112,-90.96 102.59,-86.1 101.61,-93.03"/>
</g>
<!-- node2&#45;&gt;node1 -->
<g id="edge2" class="edge">
<title>node2:next&#45;&gt;node1:prev</title>
<path fill="none" stroke="#1c86ee" d="M363,-57.96C363,15.47 47.39,18.77 19.03,-48.07"/>
<polygon fill="#1c86ee" stroke="#1c86ee" points="15.58,-47.46 17,-57.96 22.44,-48.87 15.58,-47.46"/>
</g>
<!-- node3 -->
<g id="node3" class="node">
<title>node3</title>
<polygon fill="#ebebeb" stroke="transparent" points="217,-102.96 217,-123.96 267,-123.96 267,-102.96 217,-102.96"/>
<polygon fill="none" stroke="black" points="217,-102.96 217,-123.96 267,-123.96 267,-102.96 217,-102.96"/>
<text text-anchor="start" x="237" y="-109.76" font-family="Times,serif" font-size="14.00">3</text>
<polygon fill="none" stroke="crimson" points="217,-80.96 217,-101.96 233,-101.96 233,-80.96 217,-80.96"/>
<text text-anchor="start" x="220" y="-87.76" font-family="Times,serif" font-size="14.00">0</text>
<polygon fill="lightsalmon" stroke="transparent" points="234,-80.96 234,-101.96 250,-101.96 250,-80.96 234,-80.96"/>
<polygon fill="none" stroke="black" points="234,-80.96 234,-101.96 250,-101.96 250,-80.96 234,-80.96"/>
<text text-anchor="start" x="237" y="-87.76" font-family="Times,serif" font-size="14.00">3</text>
<polygon fill="none" stroke="#1c86ee" points="251,-80.96 251,-101.96 267,-101.96 267,-80.96 251,-80.96"/>
<text text-anchor="start" x="254" y="-87.76" font-family="Times,serif" font-size="14.00">2</text>
</g>
<!-- node2&#45;&gt;node3 -->
<g id="edge3" class="edge">
<title>node2:index&#45;&gt;node3:index</title>
<path fill="none" stroke="crimson" d="M320,-91.96C298.83,-91.96 294.23,-107.62 278.24,-112.52"/>
<polygon fill="crimson" stroke="crimson" points="277.41,-109.1 268,-113.96 278.39,-116.03 277.41,-109.1"/>
</g>
<!-- node3&#45;&gt;node2 -->
<g id="edge4" class="edge">
<title>node3:next&#45;&gt;node2:prev</title>
<path fill="none" stroke="#1c86ee" d="M268,-90.96C289.17,-90.96 293.77,-75.3 309.76,-70.41"/>
<polygon fill="#1c86ee" stroke="#1c86ee" points="310.59,-73.82 320,-68.96 309.61,-66.89 310.59,-73.82"/>
</g>
<!-- node3&#45;&gt;node0 -->
<g id="edge5" class="edge">
<title>node3:index&#45;&gt;node0:index</title>
<path fill="none" stroke="crimson" d="M216,-113.96C196.68,-113.96 189.47,-113.96 174.13,-113.96"/>
<polygon fill="crimson" stroke="crimson" points="174,-110.46 164,-113.96 174,-117.46 174,-110.46"/>
</g>
<!-- node0&#45;&gt;node1 -->
<g id="edge7" class="edge">
<title>node0:index&#45;&gt;node1:index</title>
<path fill="none" stroke="crimson" d="M112,-113.96C90.83,-113.96 86.23,-98.3 70.24,-93.41"/>
<polygon fill="crimson" stroke="crimson" points="70.39,-89.89 60,-91.96 69.41,-96.82 70.39,-89.89"/>
</g>
<!-- node0&#45;&gt;node3 -->
<g id="edge6" class="edge">
<title>node0:next&#45;&gt;node3:prev</title>
<path fill="none" stroke="#1c86ee" d="M164,-90.96C183.32,-90.96 190.53,-90.96 205.87,-90.96"/>
<polygon fill="#1c86ee" stroke="#1c86ee" points="206,-94.46 216,-90.96 206,-87.46 206,-94.46"/>
</g>
</g>
</svg>
