<?xml version="1.0" encoding="UTF-8" standalone="no"?>
<!DOCTYPE svg PUBLIC "-//W3C//DTD SVG 1.1//EN"
 "http://www.w3.org/Graphics/SVG/1.1/DTD/svg11.dtd">
<!-- Generated by graphviz version 2.43.0 (0)
 -->
<!-- Title: list Pages: 1 -->
<svg width="760pt" height="143pt"
 viewBox="0.00 0.00 760.49 142.82" xmlns="http://www.w3.org/2000/svg" xmlns:xlink="http://www.w3.org/1999/xlink">
<g id="graph0" class="graph" transform="scale(1 1) rotate(0) translate(4 138.82)">
<title>list</title>
<polygon fill="white" stroke="transparent" points="-4,4 -4,-138.82 756.49,-138.82 756.49,4 -4,4"/>
<!-- node1 -->
<g id="node1" class="node">
<title>node1</title>
<polygon fill="#ebebeb" stroke="transparent" points="9.5,-79.82 9.5,-100.82 68.5,-100.82 68.5,-79.82 9.5,-79.82"/>
<polygon fill="none" stroke="black" points="9.5,-79.82 9.5,-100.82 68.5,-100.82 68.5,-79.82 9.5,-79.82"/>
<text text-anchor="start" x="34" y="-86.62" font-family="Times,serif" font-size="14.00">1</text>
<polygon fill="none" stroke="crimson" points="9.5,-57.82 9.5,-78.82 25.5,-78.82 25.5,-57.82 9.5,-57.82"/>
<text text-anchor="start" x="12.5" y="-64.62" font-family="Times,serif" font-size="14.00">0</text>
<polygon fill="lightsalmon" stroke="transparent" points="26.5,-57.82 26.5,-78.82 51.5,-78.82 51.5,-57.82 26.5,-57.82"/>
<polygon fill="none" stroke="black" points="26.5,-57.82 26.5,-78.82 51.5,-78.82 51.5,-57.82 26.5,-57.82"/>
<text text-anchor="start" x="29.5" y="-64.62" font-family="Times,serif" font-size="14.00">10</text>
<polygon fill="none" stroke="#1c86ee" points="52.5,-57.82 52.5,-78.82 68.5,-78.82 68.5,-57.82 52.5,-57.82"/>
<text text-anchor="start" x="55.5" y="-64.62" font-family="Times,serif" font-size="14.00">3</text>
</g>
<!-- node3 -->
<g id="node2" class="node">
<title>node3</title>
<polygon fill="#ebebeb" stroke="transparent" points="122,-79.82 122,-100.82 172,-100.82 172,-79.82 122,-79.82"/>
<polygon fill="none" stroke="black" points="122,-79.82 122,-100.82 172,-100.82 172,-79.82 122,-79.82"/>
<text text-anchor="start" x="142" y="-86.62" font-family="Times,serif" font-size="14.00">3</text>
<polygon fill="none" stroke="crimson" points="122,-57.82 122,-78.82 138,-78.82 138,-57.82 122,-57.82"/>
<text text-anchor="start" x="125" y="-64.62" font-family="Times,serif" font-size="14.00">1</text>
<polygon fill="lightsalmon" stroke="transparent" points="139,-57.82 139,-78.82 155,-78.82 155,-57.82 139,-57.82"/>
<polygon fill="none" stroke="black" points="139,-57.82 139,-78.82 155,-78.82 155,-57.82 139,-57.82"/>
<text text-anchor="start" x="142" y="-64.62" font-family="Times,serif" font-size="14.00">5</text>
<polygon fill="none" stroke="#1c86ee" points="156,-57.82 156,-78.82 172,-78.82 172,-57.82 156,-57.82"/>
<text text-anchor="start" x="159" y="-64.62" font-family="Times,serif" font-size="14.00">2</text>
</g>
<!-- node1&#45;&gt;node3 -->
<g id="edge1" class="edge">
<title>node1:next&#45;&gt;node3:index</title>
<path fill="none" stroke="#1c86ee" d="M69.5,-67.82C90.65,-67.82 94.93,-84.19 110.8,-89.31"/>
<polygon fill="#1c86ee" stroke="#1c86ee" points="110.6,-92.82 121,-90.82 111.62,-85.89 110.6,-92.82"/>
</g>
<!-- node0 -->
<g id="node3" class="node">
<title>node0</title>
<polygon fill="none" stroke="black" points="692.75,-96.82 632.75,-78.82 692.75,-60.82 752.74,-78.82 692.75,-96.82"/>
<text text-anchor="middle" x="692.75" y="-75.12" font-family="Times,serif" font-size="14.00">Fictive</text>
</g>
<!-- node1&#45;&gt;node0 -->
<g id="edge2" class="edge">
<title>node1:prev&#45;&gt;node0</title>
<path fill="none" stroke="black" d="M17.5,-56.82C17.5,47.49 145.69,-24.82 250,-24.82 250,-24.82 250,-24.82 460,-24.82 521.47,-24.82 537.38,-28.86 597,-43.82 617.81,-49.04 640.37,-57.27 658.25,-64.43"/>
<polygon fill="black" stroke="black" points="657.08,-67.73 667.66,-68.28 659.73,-61.25 657.08,-67.73"/>
</g>
<!-- node3&#45;&gt;node1 -->
<g id="edge4" class="edge">
<title>node3:prev&#45;&gt;node1:index</title>
<path fill="none" stroke="crimson" d="M121,-67.82C99.85,-67.82 95.57,-84.19 79.7,-89.31"/>
<polygon fill="crimson" stroke="crimson" points="78.88,-85.89 69.5,-90.82 79.9,-92.82 78.88,-85.89"/>
</g>
<!-- node2 -->
<g id="node4" class="node">
<title>node2</title>
<polygon fill="#ebebeb" stroke="transparent" points="226,-79.82 226,-100.82 276,-100.82 276,-79.82 226,-79.82"/>
<polygon fill="none" stroke="black" points="226,-79.82 226,-100.82 276,-100.82 276,-79.82 226,-79.82"/>
<text text-anchor="start" x="246" y="-86.62" font-family="Times,serif" font-size="14.00">2</text>
<polygon fill="none" stroke="crimson" points="226,-57.82 226,-78.82 242,-78.82 242,-57.82 226,-57.82"/>
<text text-anchor="start" x="229" y="-64.62" font-family="Times,serif" font-size="14.00">3</text>
<polygon fill="lightsalmon" stroke="transparent" points="243,-57.82 243,-78.82 259,-78.82 259,-57.82 243,-57.82"/>
<polygon fill="none" stroke="black" points="243,-57.82 243,-78.82 259,-78.82 259,-57.82 243,-57.82"/>
<text text-anchor="start" x="246" y="-64.62" font-family="Times,serif" font-size="14.00">4</text>
<polygon fill="none" stroke="#1c86ee" points="260,-57.82 260,-78.82 276,-78.82 276,-57.82 260,-57.82"/>
<text text-anchor="start" x="263" y="-64.62" font-family="Times,serif" font-size="14.00">4</text>
</g>
<!-- node3&#45;&gt;node2 -->
<g id="edge3" class="edge">
<title>node3:next&#45;&gt;node2:index</title>
<path fill="none" stroke="#1c86ee" d="M173,-67.82C194.32,-67.82 198.69,-84.19 214.72,-89.31"/>
<polygon fill="#1c86ee" stroke="#1c86ee" points="214.6,-92.83 225,-90.82 215.61,-85.9 214.6,-92.83"/>
</g>
<!-- node0&#45;&gt;node1 -->
<g id="edge13" class="edge">
<title>node0&#45;&gt;node1:index</title>
<path fill="none" stroke="black" d="M668.07,-89.47C649.19,-97.56 621.87,-108.36 597,-114.82 537.44,-130.28 521.53,-134.82 460,-134.82 250,-134.82 250,-134.82 250,-134.82 188.47,-134.82 171.32,-134.44 113,-114.82 95.83,-109.04 92.42,-96.59 79.56,-92.31"/>
<polygon fill="black" stroke="black" points="79.9,-88.82 69.5,-90.82 78.88,-95.74 79.9,-88.82"/>
</g>
<!-- node6 -->
<g id="node7" class="node">
<title>node6</title>
<polygon fill="#ebebeb" stroke="transparent" points="538,-79.82 538,-100.82 588,-100.82 588,-79.82 538,-79.82"/>
<polygon fill="none" stroke="black" points="538,-79.82 538,-100.82 588,-100.82 588,-79.82 538,-79.82"/>
<text text-anchor="start" x="558" y="-86.62" font-family="Times,serif" font-size="14.00">6</text>
<polygon fill="none" stroke="crimson" points="538,-57.82 538,-78.82 554,-78.82 554,-57.82 538,-57.82"/>
<text text-anchor="start" x="541" y="-64.62" font-family="Times,serif" font-size="14.00">5</text>
<polygon fill="lightsalmon" stroke="transparent" points="555,-57.82 555,-78.82 571,-78.82 571,-57.82 555,-57.82"/>
<polygon fill="none" stroke="black" points="555,-57.82 555,-78.82 571,-78.82 571,-57.82 555,-57.82"/>
<text text-anchor="start" x="558" y="-64.62" font-family="Times,serif" font-size="14.00">8</text>
<polygon fill="none" stroke="#1c86ee" points="572,-57.82 572,-78.82 588,-78.82 588,-57.82 572,-57.82"/>
<text text-anchor="start" x="575" y="-64.62" font-family="Times,serif" font-size="14.00">0</text>
</g>
<!-- node0&#45;&gt;node6 -->
<g id="edge14" class="edge">
<title>node0&#45;&gt;node6:index</title>
<path fill="none" stroke="black" d="M654.29,-85.31C637.83,-87.71 617.98,-90 599.07,-90.64"/>
<polygon fill="black" stroke="black" points="598.94,-87.14 589,-90.82 599.06,-94.14 598.94,-87.14"/>
</g>
<!-- node2&#45;&gt;node3 -->
<g id="edge6" class="edge">
<title>node2:prev&#45;&gt;node3:index</title>
<path fill="none" stroke="crimson" d="M225,-67.82C203.68,-67.82 199.31,-84.19 183.28,-89.31"/>
<polygon fill="crimson" stroke="crimson" points="182.39,-85.9 173,-90.82 183.4,-92.83 182.39,-85.9"/>
</g>
<!-- node4 -->
<g id="node5" class="node">
<title>node4</title>
<polygon fill="#ebebeb" stroke="transparent" points="330,-79.82 330,-100.82 380,-100.82 380,-79.82 330,-79.82"/>
<polygon fill="none" stroke="black" points="330,-79.82 330,-100.82 380,-100.82 380,-79.82 330,-79.82"/>
<text text-anchor="start" x="350" y="-86.62" font-family="Times,serif" font-size="14.00">4</text>
<polygon fill="none" stroke="crimson" points="330,-57.82 330,-78.82 346,-78.82 346,-57.82 330,-57.82"/>
<text text-anchor="start" x="333" y="-64.62" font-family="Times,serif" font-size="14.00">2</text>
<polygon fill="lightsalmon" stroke="transparent" points="347,-57.82 347,-78.82 363,-78.82 363,-57.82 347,-57.82"/>
<polygon fill="none" stroke="black" points="347,-57.82 347,-78.82 363,-78.82 363,-57.82 347,-57.82"/>
<text text-anchor="start" x="350" y="-64.62" font-family="Times,serif" font-size="14.00">6</text>
<polygon fill="none" stroke="#1c86ee" points="364,-57.82 364,-78.82 380,-78.82 380,-57.82 364,-57.82"/>
<text text-anchor="start" x="367" y="-64.62" font-family="Times,serif" font-size="14.00">5</text>
</g>
<!-- node2&#45;&gt;node4 -->
<g id="edge5" class="edge">
<title>node2:next&#45;&gt;node4:index</title>
<path fill="none" stroke="#1c86ee" d="M277,-67.82C298.32,-67.82 302.69,-84.19 318.72,-89.31"/>
<polygon fill="#1c86ee" stroke="#1c86ee" points="318.6,-92.83 329,-90.82 319.61,-85.9 318.6,-92.83"/>
</g>
<!-- node4&#45;&gt;node2 -->
<g id="edge8" class="edge">
<title>node4:prev&#45;&gt;node2:index</title>
<path fill="none" stroke="crimson" d="M329,-67.82C307.68,-67.82 303.31,-84.19 287.28,-89.31"/>
<polygon fill="crimson" stroke="crimson" points="286.39,-85.9 277,-90.82 287.4,-92.83 286.39,-85.9"/>
</g>
<!-- node5 -->
<g id="node6" class="node">
<title>node5</title>
<polygon fill="#ebebeb" stroke="transparent" points="434,-79.82 434,-100.82 484,-100.82 484,-79.82 434,-79.82"/>
<polygon fill="none" stroke="black" points="434,-79.82 434,-100.82 484,-100.82 484,-79.82 434,-79.82"/>
<text text-anchor="start" x="454" y="-86.62" font-family="Times,serif" font-size="14.00">5</text>
<polygon fill="none" stroke="crimson" points="434,-57.82 434,-78.82 450,-78.82 450,-57.82 434,-57.82"/>
<text text-anchor="start" x="437" y="-64.62" font-family="Times,serif" font-size="14.00">4</text>
<polygon fill="lightsalmon" stroke="transparent" points="451,-57.82 451,-78.82 467,-78.82 467,-57.82 451,-57.82"/>
<polygon fill="none" stroke="black" points="451,-57.82 451,-78.82 467,-78.82 467,-57.82 451,-57.82"/>
<text text-anchor="start" x="454" y="-64.62" font-family="Times,serif" font-size="14.00">7</text>
<polygon fill="none" stroke="#1c86ee" points="468,-57.82 468,-78.82 484,-78.82 484,-57.82 468,-57.82"/>
<text text-anchor="start" x="471" y="-64.62" font-family="Times,serif" font-size="14.00">6</text>
</g>
<!-- node4&#45;&gt;node5 -->
<g id="edge7" class="edge">
<title>node4:next&#45;&gt;node5:index</title>
<path fill="none" stroke="#1c86ee" d="M381,-67.82C402.32,-67.82 406.69,-84.19 422.72,-89.31"/>
<polygon fill="#1c86ee" stroke="#1c86ee" points="422.6,-92.83 433,-90.82 423.61,-85.9 422.6,-92.83"/>
</g>
<!-- node5&#45;&gt;node4 -->
<g id="edge10" class="edge">
<title>node5:prev&#45;&gt;node4:index</title>
<path fill="none" stroke="crimson" d="M433,-67.82C411.68,-67.82 407.31,-84.19 391.28,-89.31"/>
<polygon fill="crimson" stroke="crimson" points="390.39,-85.9 381,-90.82 391.4,-92.83 390.39,-85.9"/>
</g>
<!-- node5&#45;&gt;node6 -->
<g id="edge9" class="edge">
<title>node5:next&#45;&gt;node6:index</title>
<path fill="none" stroke="#1c86ee" d="M485,-67.82C506.32,-67.82 510.69,-84.19 526.72,-89.31"/>
<polygon fill="#1c86ee" stroke="#1c86ee" points="526.6,-92.83 537,-90.82 527.61,-85.9 526.6,-92.83"/>
</g>
<!-- node6&#45;&gt;node0 -->
<g id="edge11" class="edge">
<title>node6:next&#45;&gt;node0</title>
<path fill="none" stroke="black" d="M589,-67.82C606.53,-67.82 625.65,-69.42 642.59,-71.4"/>
<polygon fill="black" stroke="black" points="642.46,-74.92 652.82,-72.68 643.33,-67.97 642.46,-74.92"/>
</g>
<!-- node6&#45;&gt;node5 -->
<g id="edge12" class="edge">
<title>node6:prev&#45;&gt;node5:index</title>
<path fill="none" stroke="crimson" d="M537,-67.82C515.68,-67.82 511.31,-84.19 495.28,-89.31"/>
<polygon fill="crimson" stroke="crimson" points="494.39,-85.9 485,-90.82 495.4,-92.83 494.39,-85.9"/>
</g>
</g>
</svg>
