<?xml version="1.0" encoding="UTF-8" standalone="no"?>
<!DOCTYPE svg PUBLIC "-//W3C//DTD SVG 1.1//EN"
 "http://www.w3.org/Graphics/SVG/1.1/DTD/svg11.dtd">
<!-- Generated by graphviz version 2.43.0 (0)
 -->
<!-- Title: list Pages: 1 -->
<svg width="1185pt" height="118pt"
 viewBox="0.00 0.00 1185.49 118.25" xmlns="http://www.w3.org/2000/svg" xmlns:xlink="http://www.w3.org/1999/xlink">
<g id="graph0" class="graph" transform="scale(1 1) rotate(0) translate(4 114.25)">
<title>list</title>
<polygon fill="white" stroke="transparent" points="-4,4 -4,-114.25 1181.49,-114.25 1181.49,4 -4,4"/>
<!-- node10 -->
<g id="node1" class="node">
<title>node10</title>
<polygon fill="#ebebeb" stroke="transparent" points="954.5,-55.06 954.5,-76.06 1013.5,-76.06 1013.5,-55.06 954.5,-55.06"/>
<polygon fill="none" stroke="black" points="954.5,-55.06 954.5,-76.06 1013.5,-76.06 1013.5,-55.06 954.5,-55.06"/>
<text text-anchor="start" x="974.5" y="-61.86" font-family="Times,serif" font-size="14.00">10</text>
<polygon fill="none" stroke="crimson" points="954.5,-33.06 954.5,-54.06 970.5,-54.06 970.5,-33.06 954.5,-33.06"/>
<text text-anchor="start" x="957.5" y="-39.86" font-family="Times,serif" font-size="14.00">7</text>
<polygon fill="lightsalmon" stroke="transparent" points="971.5,-33.06 971.5,-54.06 996.5,-54.06 996.5,-33.06 971.5,-33.06"/>
<polygon fill="none" stroke="black" points="971.5,-33.06 971.5,-54.06 996.5,-54.06 996.5,-33.06 971.5,-33.06"/>
<text text-anchor="start" x="974.5" y="-39.86" font-family="Times,serif" font-size="14.00">10</text>
<polygon fill="none" stroke="#1c86ee" points="997.5,-33.06 997.5,-54.06 1013.5,-54.06 1013.5,-33.06 997.5,-33.06"/>
<text text-anchor="start" x="1000.5" y="-39.86" font-family="Times,serif" font-size="14.00">0</text>
</g>
<!-- node7 -->
<g id="node2" class="node">
<title>node7</title>
<polygon fill="#ebebeb" stroke="transparent" points="841.5,-55.06 841.5,-76.06 900.5,-76.06 900.5,-55.06 841.5,-55.06"/>
<polygon fill="none" stroke="black" points="841.5,-55.06 841.5,-76.06 900.5,-76.06 900.5,-55.06 841.5,-55.06"/>
<text text-anchor="start" x="866" y="-61.86" font-family="Times,serif" font-size="14.00">7</text>
<polygon fill="none" stroke="crimson" points="841.5,-33.06 841.5,-54.06 857.5,-54.06 857.5,-33.06 841.5,-33.06"/>
<text text-anchor="start" x="844.5" y="-39.86" font-family="Times,serif" font-size="14.00">6</text>
<polygon fill="lightsalmon" stroke="transparent" points="858.5,-33.06 858.5,-54.06 874.5,-54.06 874.5,-33.06 858.5,-33.06"/>
<polygon fill="none" stroke="black" points="858.5,-33.06 858.5,-54.06 874.5,-54.06 874.5,-33.06 858.5,-33.06"/>
<text text-anchor="start" x="861.5" y="-39.86" font-family="Times,serif" font-size="14.00">7</text>
<polygon fill="none" stroke="#1c86ee" points="875.5,-33.06 875.5,-54.06 900.5,-54.06 900.5,-33.06 875.5,-33.06"/>
<text text-anchor="start" x="878.5" y="-39.86" font-family="Times,serif" font-size="14.00">10</text>
</g>
<!-- node10&#45;&gt;node7 -->
<g id="edge1" class="edge">
<title>node10:index&#45;&gt;node7:index</title>
<path fill="none" stroke="crimson" d="M953.5,-66.06C934.18,-66.06 926.97,-66.06 911.63,-66.06"/>
<polygon fill="crimson" stroke="crimson" points="911.5,-62.56 901.5,-66.06 911.5,-69.56 911.5,-62.56"/>
</g>
<!-- node0 -->
<g id="node3" class="node">
<title>node0</title>
<polygon fill="none" stroke="black" points="1117.75,-72.06 1057.75,-54.06 1117.75,-36.06 1177.74,-54.06 1117.75,-72.06"/>
<text text-anchor="middle" x="1117.75" y="-50.36" font-family="Times,serif" font-size="14.00">Fictive</text>
</g>
<!-- node10&#45;&gt;node0 -->
<g id="edge2" class="edge">
<title>node10:next&#45;&gt;node0</title>
<path fill="none" stroke="black" d="M1014.5,-43.06C1031.95,-43.06 1050.97,-44.67 1067.83,-46.65"/>
<polygon fill="black" stroke="black" points="1067.65,-50.15 1078.01,-47.92 1068.52,-43.21 1067.65,-50.15"/>
</g>
<!-- node7&#45;&gt;node10 -->
<g id="edge4" class="edge">
<title>node7:next&#45;&gt;node10:prev</title>
<path fill="none" stroke="#1c86ee" d="M901.5,-43.06C920.82,-43.06 928.03,-43.06 943.37,-43.06"/>
<polygon fill="#1c86ee" stroke="#1c86ee" points="943.5,-46.56 953.5,-43.06 943.5,-39.56 943.5,-46.56"/>
</g>
<!-- node6 -->
<g id="node4" class="node">
<title>node6</title>
<polygon fill="#ebebeb" stroke="transparent" points="737,-55.06 737,-76.06 787,-76.06 787,-55.06 737,-55.06"/>
<polygon fill="none" stroke="black" points="737,-55.06 737,-76.06 787,-76.06 787,-55.06 737,-55.06"/>
<text text-anchor="start" x="757" y="-61.86" font-family="Times,serif" font-size="14.00">6</text>
<polygon fill="none" stroke="crimson" points="737,-33.06 737,-54.06 753,-54.06 753,-33.06 737,-33.06"/>
<text text-anchor="start" x="740" y="-39.86" font-family="Times,serif" font-size="14.00">5</text>
<polygon fill="lightsalmon" stroke="transparent" points="754,-33.06 754,-54.06 770,-54.06 770,-33.06 754,-33.06"/>
<polygon fill="none" stroke="black" points="754,-33.06 754,-54.06 770,-54.06 770,-33.06 754,-33.06"/>
<text text-anchor="start" x="757" y="-39.86" font-family="Times,serif" font-size="14.00">6</text>
<polygon fill="none" stroke="#1c86ee" points="771,-33.06 771,-54.06 787,-54.06 787,-33.06 771,-33.06"/>
<text text-anchor="start" x="774" y="-39.86" font-family="Times,serif" font-size="14.00">7</text>
</g>
<!-- node7&#45;&gt;node6 -->
<g id="edge3" class="edge">
<title>node7:index&#45;&gt;node6:index</title>
<path fill="none" stroke="crimson" d="M840.5,-66.06C820.99,-66.06 813.72,-66.06 798.23,-66.06"/>
<polygon fill="crimson" stroke="crimson" points="798,-62.56 788,-66.06 798,-69.56 798,-62.56"/>
</g>
<!-- node0&#45;&gt;node10 -->
<g id="edge21" class="edge">
<title>node0&#45;&gt;node10:index</title>
<path fill="none" stroke="black" d="M1079,-60.63C1062.76,-62.99 1043.28,-65.24 1024.7,-65.88"/>
<polygon fill="black" stroke="black" points="1024.44,-62.38 1014.5,-66.06 1024.56,-69.38 1024.44,-62.38"/>
</g>
<!-- node6&#45;&gt;node7 -->
<g id="edge6" class="edge">
<title>node6:next&#45;&gt;node7:prev</title>
<path fill="none" stroke="#1c86ee" d="M788,-43.06C807.51,-43.06 814.78,-43.06 830.27,-43.06"/>
<polygon fill="#1c86ee" stroke="#1c86ee" points="830.5,-46.56 840.5,-43.06 830.5,-39.56 830.5,-46.56"/>
</g>
<!-- node5 -->
<g id="node5" class="node">
<title>node5</title>
<polygon fill="#ebebeb" stroke="transparent" points="633,-55.06 633,-76.06 683,-76.06 683,-55.06 633,-55.06"/>
<polygon fill="none" stroke="black" points="633,-55.06 633,-76.06 683,-76.06 683,-55.06 633,-55.06"/>
<text text-anchor="start" x="653" y="-61.86" font-family="Times,serif" font-size="14.00">5</text>
<polygon fill="none" stroke="crimson" points="633,-33.06 633,-54.06 649,-54.06 649,-33.06 633,-33.06"/>
<text text-anchor="start" x="636" y="-39.86" font-family="Times,serif" font-size="14.00">4</text>
<polygon fill="lightsalmon" stroke="transparent" points="650,-33.06 650,-54.06 666,-54.06 666,-33.06 650,-33.06"/>
<polygon fill="none" stroke="black" points="650,-33.06 650,-54.06 666,-54.06 666,-33.06 650,-33.06"/>
<text text-anchor="start" x="653" y="-39.86" font-family="Times,serif" font-size="14.00">5</text>
<polygon fill="none" stroke="#1c86ee" points="667,-33.06 667,-54.06 683,-54.06 683,-33.06 667,-33.06"/>
<text text-anchor="start" x="670" y="-39.86" font-family="Times,serif" font-size="14.00">6</text>
</g>
<!-- node6&#45;&gt;node5 -->
<g id="edge5" class="edge">
<title>node6:index&#45;&gt;node5:index</title>
<path fill="none" stroke="crimson" d="M736,-66.06C716.68,-66.06 709.47,-66.06 694.13,-66.06"/>
<polygon fill="crimson" stroke="crimson" points="694,-62.56 684,-66.06 694,-69.56 694,-62.56"/>
</g>
<!-- node5&#45;&gt;node6 -->
<g id="edge8" class="edge">
<title>node5:next&#45;&gt;node6:prev</title>
<path fill="none" stroke="#1c86ee" d="M684,-43.06C703.32,-43.06 710.53,-43.06 725.87,-43.06"/>
<polygon fill="#1c86ee" stroke="#1c86ee" points="726,-46.56 736,-43.06 726,-39.56 726,-46.56"/>
</g>
<!-- node4 -->
<g id="node6" class="node">
<title>node4</title>
<polygon fill="#ebebeb" stroke="transparent" points="529,-55.06 529,-76.06 579,-76.06 579,-55.06 529,-55.06"/>
<polygon fill="none" stroke="black" points="529,-55.06 529,-76.06 579,-76.06 579,-55.06 529,-55.06"/>
<text text-anchor="start" x="549" y="-61.86" font-family="Times,serif" font-size="14.00">4</text>
<polygon fill="none" stroke="crimson" points="529,-33.06 529,-54.06 545,-54.06 545,-33.06 529,-33.06"/>
<text text-anchor="start" x="532" y="-39.86" font-family="Times,serif" font-size="14.00">2</text>
<polygon fill="lightsalmon" stroke="transparent" points="546,-33.06 546,-54.06 562,-54.06 562,-33.06 546,-33.06"/>
<polygon fill="none" stroke="black" points="546,-33.06 546,-54.06 562,-54.06 562,-33.06 546,-33.06"/>
<text text-anchor="start" x="549" y="-39.86" font-family="Times,serif" font-size="14.00">4</text>
<polygon fill="none" stroke="#1c86ee" points="563,-33.06 563,-54.06 579,-54.06 579,-33.06 563,-33.06"/>
<text text-anchor="start" x="566" y="-39.86" font-family="Times,serif" font-size="14.00">5</text>
</g>
<!-- node5&#45;&gt;node4 -->
<g id="edge7" class="edge">
<title>node5:index&#45;&gt;node4:index</title>
<path fill="none" stroke="crimson" d="M632,-66.06C612.68,-66.06 605.47,-66.06 590.13,-66.06"/>
<polygon fill="crimson" stroke="crimson" points="590,-62.56 580,-66.06 590,-69.56 590,-62.56"/>
</g>
<!-- node4&#45;&gt;node5 -->
<g id="edge10" class="edge">
<title>node4:next&#45;&gt;node5:prev</title>
<path fill="none" stroke="#1c86ee" d="M580,-43.06C599.32,-43.06 606.53,-43.06 621.87,-43.06"/>
<polygon fill="#1c86ee" stroke="#1c86ee" points="622,-46.56 632,-43.06 622,-39.56 622,-46.56"/>
</g>
<!-- node2 -->
<g id="node7" class="node">
<title>node2</title>
<polygon fill="#ebebeb" stroke="transparent" points="425,-55.06 425,-76.06 475,-76.06 475,-55.06 425,-55.06"/>
<polygon fill="none" stroke="black" points="425,-55.06 425,-76.06 475,-76.06 475,-55.06 425,-55.06"/>
<text text-anchor="start" x="445" y="-61.86" font-family="Times,serif" font-size="14.00">2</text>
<polygon fill="none" stroke="crimson" points="425,-33.06 425,-54.06 441,-54.06 441,-33.06 425,-33.06"/>
<text text-anchor="start" x="428" y="-39.86" font-family="Times,serif" font-size="14.00">1</text>
<polygon fill="lightsalmon" stroke="transparent" points="442,-33.06 442,-54.06 458,-54.06 458,-33.06 442,-33.06"/>
<polygon fill="none" stroke="black" points="442,-33.06 442,-54.06 458,-54.06 458,-33.06 442,-33.06"/>
<text text-anchor="start" x="445" y="-39.86" font-family="Times,serif" font-size="14.00">2</text>
<polygon fill="none" stroke="#1c86ee" points="459,-33.06 459,-54.06 475,-54.06 475,-33.06 459,-33.06"/>
<text text-anchor="start" x="462" y="-39.86" font-family="Times,serif" font-size="14.00">4</text>
</g>
<!-- node4&#45;&gt;node2 -->
<g id="edge9" class="edge">
<title>node4:index&#45;&gt;node2:index</title>
<path fill="none" stroke="crimson" d="M528,-66.06C508.68,-66.06 501.47,-66.06 486.13,-66.06"/>
<polygon fill="crimson" stroke="crimson" points="486,-62.56 476,-66.06 486,-69.56 486,-62.56"/>
</g>
<!-- node2&#45;&gt;node4 -->
<g id="edge12" class="edge">
<title>node2:next&#45;&gt;node4:prev</title>
<path fill="none" stroke="#1c86ee" d="M476,-43.06C495.32,-43.06 502.53,-43.06 517.87,-43.06"/>
<polygon fill="#1c86ee" stroke="#1c86ee" points="518,-46.56 528,-43.06 518,-39.56 518,-46.56"/>
</g>
<!-- node1 -->
<g id="node8" class="node">
<title>node1</title>
<polygon fill="#ebebeb" stroke="transparent" points="321,-55.06 321,-76.06 371,-76.06 371,-55.06 321,-55.06"/>
<polygon fill="none" stroke="black" points="321,-55.06 321,-76.06 371,-76.06 371,-55.06 321,-55.06"/>
<text text-anchor="start" x="341" y="-61.86" font-family="Times,serif" font-size="14.00">1</text>
<polygon fill="none" stroke="crimson" points="321,-33.06 321,-54.06 337,-54.06 337,-33.06 321,-33.06"/>
<text text-anchor="start" x="324" y="-39.86" font-family="Times,serif" font-size="14.00">3</text>
<polygon fill="lightsalmon" stroke="transparent" points="338,-33.06 338,-54.06 354,-54.06 354,-33.06 338,-33.06"/>
<polygon fill="none" stroke="black" points="338,-33.06 338,-54.06 354,-54.06 354,-33.06 338,-33.06"/>
<text text-anchor="start" x="341" y="-39.86" font-family="Times,serif" font-size="14.00">1</text>
<polygon fill="none" stroke="#1c86ee" points="355,-33.06 355,-54.06 371,-54.06 371,-33.06 355,-33.06"/>
<text text-anchor="start" x="358" y="-39.86" font-family="Times,serif" font-size="14.00">2</text>
</g>
<!-- node2&#45;&gt;node1 -->
<g id="edge11" class="edge">
<title>node2:index&#45;&gt;node1:index</title>
<path fill="none" stroke="crimson" d="M424,-66.06C404.68,-66.06 397.47,-66.06 382.13,-66.06"/>
<polygon fill="crimson" stroke="crimson" points="382,-62.56 372,-66.06 382,-69.56 382,-62.56"/>
</g>
<!-- node1&#45;&gt;node2 -->
<g id="edge14" class="edge">
<title>node1:next&#45;&gt;node2:prev</title>
<path fill="none" stroke="#1c86ee" d="M372,-43.06C391.32,-43.06 398.53,-43.06 413.87,-43.06"/>
<polygon fill="#1c86ee" stroke="#1c86ee" points="414,-46.56 424,-43.06 414,-39.56 414,-46.56"/>
</g>
<!-- node3 -->
<g id="node9" class="node">
<title>node3</title>
<polygon fill="#ebebeb" stroke="transparent" points="217,-55.06 217,-76.06 267,-76.06 267,-55.06 217,-55.06"/>
<polygon fill="none" stroke="black" points="217,-55.06 217,-76.06 267,-76.06 267,-55.06 217,-55.06"/>
<text text-anchor="start" x="237" y="-61.86" font-family="Times,serif" font-size="14.00">3</text>
<polygon fill="none" stroke="crimson" points="217,-33.06 217,-54.06 233,-54.06 233,-33.06 217,-33.06"/>
<text text-anchor="start" x="220" y="-39.86" font-family="Times,serif" font-size="14.00">8</text>
<polygon fill="lightsalmon" stroke="transparent" points="234,-33.06 234,-54.06 250,-54.06 250,-33.06 234,-33.06"/>
<polygon fill="none" stroke="black" points="234,-33.06 234,-54.06 250,-54.06 250,-33.06 234,-33.06"/>
<text text-anchor="start" x="237" y="-39.86" font-family="Times,serif" font-size="14.00">3</text>
<polygon fill="none" stroke="#1c86ee" points="251,-33.06 251,-54.06 267,-54.06 267,-33.06 251,-33.06"/>
<text text-anchor="start" x="254" y="-39.86" font-family="Times,serif" font-size="14.00">1</text>
</g>
<!-- node1&#45;&gt;node3 -->
<g id="edge13" class="edge">
<title>node1:index&#45;&gt;node3:index</title>
<path fill="none" stroke="crimson" d="M320,-66.06C300.68,-66.06 293.47,-66.06 278.13,-66.06"/>
<polygon fill="crimson" stroke="crimson" points="278,-62.56 268,-66.06 278,-69.56 278,-62.56"/>
</g>
<!-- node3&#45;&gt;node1 -->
<g id="edge16" class="edge">
<title>node3:next&#45;&gt;node1:prev</title>
<path fill="none" stroke="#1c86ee" d="M268,-43.06C287.32,-43.06 294.53,-43.06 309.87,-43.06"/>
<polygon fill="#1c86ee" stroke="#1c86ee" points="310,-46.56 320,-43.06 310,-39.56 310,-46.56"/>
</g>
<!-- node8 -->
<g id="node10" class="node">
<title>node8</title>
<polygon fill="#ebebeb" stroke="transparent" points="113,-55.06 113,-76.06 163,-76.06 163,-55.06 113,-55.06"/>
<polygon fill="none" stroke="black" points="113,-55.06 113,-76.06 163,-76.06 163,-55.06 113,-55.06"/>
<text text-anchor="start" x="133" y="-61.86" font-family="Times,serif" font-size="14.00">8</text>
<polygon fill="none" stroke="crimson" points="113,-33.06 113,-54.06 129,-54.06 129,-33.06 113,-33.06"/>
<text text-anchor="start" x="116" y="-39.86" font-family="Times,serif" font-size="14.00">9</text>
<polygon fill="lightsalmon" stroke="transparent" points="130,-33.06 130,-54.06 146,-54.06 146,-33.06 130,-33.06"/>
<polygon fill="none" stroke="black" points="130,-33.06 130,-54.06 146,-54.06 146,-33.06 130,-33.06"/>
<text text-anchor="start" x="133" y="-39.86" font-family="Times,serif" font-size="14.00">8</text>
<polygon fill="none" stroke="#1c86ee" points="147,-33.06 147,-54.06 163,-54.06 163,-33.06 147,-33.06"/>
<text text-anchor="start" x="150" y="-39.86" font-family="Times,serif" font-size="14.00">3</text>
</g>
<!-- node3&#45;&gt;node8 -->
<g id="edge15" class="edge">
<title>node3:index&#45;&gt;node8:index</title>
<path fill="none" stroke="crimson" d="M216,-66.06C196.68,-66.06 189.47,-66.06 174.13,-66.06"/>
<polygon fill="crimson" stroke="crimson" points="174,-62.56 164,-66.06 174,-69.56 174,-62.56"/>
</g>
<!-- node8&#45;&gt;node3 -->
<g id="edge18" class="edge">
<title>node8:next&#45;&gt;node3:prev</title>
<path fill="none" stroke="#1c86ee" d="M164,-43.06C183.32,-43.06 190.53,-43.06 205.87,-43.06"/>
<polygon fill="#1c86ee" stroke="#1c86ee" points="206,-46.56 216,-43.06 206,-39.56 206,-46.56"/>
</g>
<!-- node9 -->
<g id="node11" class="node">
<title>node9</title>
<polygon fill="#ebebeb" stroke="transparent" points="9,-55.06 9,-76.06 59,-76.06 59,-55.06 9,-55.06"/>
<polygon fill="none" stroke="black" points="9,-55.06 9,-76.06 59,-76.06 59,-55.06 9,-55.06"/>
<text text-anchor="start" x="29" y="-61.86" font-family="Times,serif" font-size="14.00">9</text>
<polygon fill="none" stroke="crimson" points="9,-33.06 9,-54.06 25,-54.06 25,-33.06 9,-33.06"/>
<text text-anchor="start" x="12" y="-39.86" font-family="Times,serif" font-size="14.00">0</text>
<polygon fill="lightsalmon" stroke="transparent" points="26,-33.06 26,-54.06 42,-54.06 42,-33.06 26,-33.06"/>
<polygon fill="none" stroke="black" points="26,-33.06 26,-54.06 42,-54.06 42,-33.06 26,-33.06"/>
<text text-anchor="start" x="29" y="-39.86" font-family="Times,serif" font-size="14.00">9</text>
<polygon fill="none" stroke="#1c86ee" points="43,-33.06 43,-54.06 59,-54.06 59,-33.06 43,-33.06"/>
<text text-anchor="start" x="46" y="-39.86" font-family="Times,serif" font-size="14.00">8</text>
</g>
<!-- node8&#45;&gt;node9 -->
<g id="edge17" class="edge">
<title>node8:index&#45;&gt;node9:index</title>
<path fill="none" stroke="crimson" d="M112,-66.06C92.68,-66.06 85.47,-66.06 70.13,-66.06"/>
<polygon fill="crimson" stroke="crimson" points="70,-62.56 60,-66.06 70,-69.56 70,-62.56"/>
</g>
<!-- node9&#45;&gt;node0 -->
<g id="edge19" class="edge">
<title>node9:index&#45;&gt;node0</title>
<path fill="none" stroke="black" d="M60,-66.06C82.49,-66.06 82.7,-83.83 104,-91.06 162.21,-110.82 179.53,-110.06 241,-110.06 241,-110.06 241,-110.06 871.5,-110.06 938.92,-110.06 956.66,-107.67 1022,-91.06 1043.23,-85.67 1066.13,-76.81 1084.09,-69.12"/>
<polygon fill="black" stroke="black" points="1085.77,-72.21 1093.53,-65 1082.96,-65.8 1085.77,-72.21"/>
</g>
<!-- node9&#45;&gt;node0 -->
<g id="edge22" class="edge">
<title>node9:next&#45;&gt;node0</title>
<path fill="none" stroke="black" d="M60,-43.06C82.28,-43.06 82.85,-26.04 104,-19.06 162.38,0.19 179.53,-0.06 241,-0.06 241,-0.06 241,-0.06 871.5,-0.06 938.92,-0.06 956.51,-3.06 1022,-19.06 1042.84,-24.16 1065.4,-32.38 1083.28,-39.57"/>
<polygon fill="black" stroke="black" points="1082.11,-42.87 1092.69,-43.43 1084.76,-36.4 1082.11,-42.87"/>
</g>
<!-- node9&#45;&gt;node8 -->
<g id="edge20" class="edge">
<title>node9:next&#45;&gt;node8:prev</title>
<path fill="none" stroke="#1c86ee" d="M60,-43.06C79.32,-43.06 86.53,-43.06 101.87,-43.06"/>
<polygon fill="#1c86ee" stroke="#1c86ee" points="102,-46.56 112,-43.06 102,-39.56 102,-46.56"/>
</g>
</g>
</svg>
