<?xml version="1.0" encoding="UTF-8" standalone="no"?>
<!DOCTYPE svg PUBLIC "-//W3C//DTD SVG 1.1//EN"
 "http://www.w3.org/Graphics/SVG/1.1/DTD/svg11.dtd">
<!-- Generated by graphviz version 2.43.0 (0)
 -->
<!-- Title: list Pages: 1 -->
<svg width="335pt" height="117pt"
 viewBox="0.00 0.00 335.49 116.73" xmlns="http://www.w3.org/2000/svg" xmlns:xlink="http://www.w3.org/1999/xlink">
<g id="graph0" class="graph" transform="scale(1 1) rotate(0) translate(4 112.73)">
<title>list</title>
<polygon fill="white" stroke="transparent" points="-4,4 -4,-112.73 331.49,-112.73 331.49,4 -4,4"/>
<!-- node2 -->
<g id="node1" class="node">
<title>node2</title>
<polygon fill="#ebebeb" stroke="transparent" points="9,-67.47 9,-88.47 59,-88.47 59,-67.47 9,-67.47"/>
<polygon fill="none" stroke="black" points="9,-67.47 9,-88.47 59,-88.47 59,-67.47 9,-67.47"/>
<text text-anchor="start" x="29" y="-74.27" font-family="Times,serif" font-size="14.00">2</text>
<polygon fill="none" stroke="crimson" points="9,-45.47 9,-66.47 25,-66.47 25,-45.47 9,-45.47"/>
<text text-anchor="start" x="12" y="-52.27" font-family="Times,serif" font-size="14.00">0</text>
<polygon fill="lightsalmon" stroke="transparent" points="26,-45.47 26,-66.47 42,-66.47 42,-45.47 26,-45.47"/>
<polygon fill="none" stroke="black" points="26,-45.47 26,-66.47 42,-66.47 42,-45.47 26,-45.47"/>
<text text-anchor="start" x="29" y="-52.27" font-family="Times,serif" font-size="14.00">2</text>
<polygon fill="none" stroke="#1c86ee" points="43,-45.47 43,-66.47 59,-66.47 59,-45.47 43,-45.47"/>
<text text-anchor="start" x="46" y="-52.27" font-family="Times,serif" font-size="14.00">1</text>
</g>
<!-- node1 -->
<g id="node2" class="node">
<title>node1</title>
<polygon fill="#ebebeb" stroke="transparent" points="113,-67.47 113,-88.47 163,-88.47 163,-67.47 113,-67.47"/>
<polygon fill="none" stroke="black" points="113,-67.47 113,-88.47 163,-88.47 163,-67.47 113,-67.47"/>
<text text-anchor="start" x="133" y="-74.27" font-family="Times,serif" font-size="14.00">1</text>
<polygon fill="none" stroke="crimson" points="113,-45.47 113,-66.47 129,-66.47 129,-45.47 113,-45.47"/>
<text text-anchor="start" x="116" y="-52.27" font-family="Times,serif" font-size="14.00">2</text>
<polygon fill="lightsalmon" stroke="transparent" points="130,-45.47 130,-66.47 146,-66.47 146,-45.47 130,-45.47"/>
<polygon fill="none" stroke="black" points="130,-45.47 130,-66.47 146,-66.47 146,-45.47 130,-45.47"/>
<text text-anchor="start" x="133" y="-52.27" font-family="Times,serif" font-size="14.00">1</text>
<polygon fill="none" stroke="#1c86ee" points="147,-45.47 147,-66.47 163,-66.47 163,-45.47 147,-45.47"/>
<text text-anchor="start" x="150" y="-52.27" font-family="Times,serif" font-size="14.00">0</text>
</g>
<!-- node2&#45;&gt;node1 -->
<g id="edge1" class="edge">
<title>node2:next&#45;&gt;node1:index</title>
<path fill="none" stroke="#1c86ee" d="M60,-55.47C81.32,-55.47 85.69,-71.84 101.72,-76.96"/>
<polygon fill="#1c86ee" stroke="#1c86ee" points="101.6,-80.48 112,-78.47 102.61,-73.55 101.6,-80.48"/>
</g>
<!-- node0 -->
<g id="node3" class="node">
<title>node0</title>
<polygon fill="none" stroke="black" points="267.75,-84.47 207.75,-66.47 267.75,-48.47 327.74,-66.47 267.75,-84.47"/>
<text text-anchor="middle" x="267.75" y="-62.77" font-family="Times,serif" font-size="14.00">Fictive</text>
</g>
<!-- node2&#45;&gt;node0 -->
<g id="edge2" class="edge">
<title>node2:prev&#45;&gt;node0</title>
<path fill="none" stroke="black" d="M17,-44.47C17,42.24 168.22,-19.32 235.32,-50.9"/>
<polygon fill="black" stroke="black" points="234.05,-54.17 244.58,-55.32 237.07,-47.85 234.05,-54.17"/>
</g>
<!-- node1&#45;&gt;node2 -->
<g id="edge4" class="edge">
<title>node1:prev&#45;&gt;node2:index</title>
<path fill="none" stroke="crimson" d="M112,-55.47C90.68,-55.47 86.31,-71.84 70.28,-76.96"/>
<polygon fill="crimson" stroke="crimson" points="69.39,-73.55 60,-78.47 70.4,-80.48 69.39,-73.55"/>
</g>
<!-- node1&#45;&gt;node0 -->
<g id="edge3" class="edge">
<title>node1:next&#45;&gt;node0</title>
<path fill="none" stroke="black" d="M164,-55.47C181.53,-55.47 200.65,-57.07 217.59,-59.05"/>
<polygon fill="black" stroke="black" points="217.46,-62.56 227.82,-60.33 218.33,-55.62 217.46,-62.56"/>
</g>
<!-- node0&#45;&gt;node2 -->
<g id="edge5" class="edge">
<title>node0&#45;&gt;node2:index</title>
<path fill="none" stroke="black" d="M244.85,-77.72C226.08,-86.71 198.03,-98.57 172,-103.47 142.3,-109.06 133.22,-111.19 104,-103.47 86.16,-98.75 83.12,-84.95 70.18,-80.14"/>
<polygon fill="black" stroke="black" points="70.44,-76.64 60,-78.47 69.3,-83.55 70.44,-76.64"/>
</g>
<!-- node0&#45;&gt;node1 -->
<g id="edge6" class="edge">
<title>node0&#45;&gt;node1:index</title>
<path fill="none" stroke="black" d="M229.29,-72.96C212.83,-75.36 192.98,-77.65 174.07,-78.29"/>
<polygon fill="black" stroke="black" points="173.94,-74.79 164,-78.47 174.06,-81.79 173.94,-74.79"/>
</g>
</g>
</svg>
