<?xml version="1.0" encoding="UTF-8" standalone="no"?>
<!DOCTYPE svg PUBLIC "-//W3C//DTD SVG 1.1//EN"
 "http://www.w3.org/Graphics/SVG/1.1/DTD/svg11.dtd">
<!-- Generated by graphviz version 2.43.0 (0)
 -->
<!-- Title: list Pages: 1 -->
<svg width="647pt" height="118pt"
 viewBox="0.00 0.00 647.49 118.25" xmlns="http://www.w3.org/2000/svg" xmlns:xlink="http://www.w3.org/1999/xlink">
<g id="graph0" class="graph" transform="scale(1 1) rotate(0) translate(4 114.25)">
<title>list</title>
<polygon fill="white" stroke="transparent" points="-4,4 -4,-114.25 643.49,-114.25 643.49,4 -4,4"/>
<!-- node5 -->
<g id="node1" class="node">
<title>node5</title>
<polygon fill="#ebebeb" stroke="transparent" points="425,-55.06 425,-76.06 475,-76.06 475,-55.06 425,-55.06"/>
<polygon fill="none" stroke="black" points="425,-55.06 425,-76.06 475,-76.06 475,-55.06 425,-55.06"/>
<text text-anchor="start" x="445" y="-61.86" font-family="Times,serif" font-size="14.00">5</text>
<polygon fill="none" stroke="crimson" points="425,-33.06 425,-54.06 441,-54.06 441,-33.06 425,-33.06"/>
<text text-anchor="start" x="428" y="-39.86" font-family="Times,serif" font-size="14.00">4</text>
<polygon fill="lightsalmon" stroke="transparent" points="442,-33.06 442,-54.06 458,-54.06 458,-33.06 442,-33.06"/>
<polygon fill="none" stroke="black" points="442,-33.06 442,-54.06 458,-54.06 458,-33.06 442,-33.06"/>
<text text-anchor="start" x="445" y="-39.86" font-family="Times,serif" font-size="14.00">5</text>
<polygon fill="none" stroke="#1c86ee" points="459,-33.06 459,-54.06 475,-54.06 475,-33.06 459,-33.06"/>
<text text-anchor="start" x="462" y="-39.86" font-family="Times,serif" font-size="14.00">0</text>
</g>
<!-- node4 -->
<g id="node2" class="node">
<title>node4</title>
<polygon fill="#ebebeb" stroke="transparent" points="321,-55.06 321,-76.06 371,-76.06 371,-55.06 321,-55.06"/>
<polygon fill="none" stroke="black" points="321,-55.06 321,-76.06 371,-76.06 371,-55.06 321,-55.06"/>
<text text-anchor="start" x="341" y="-61.86" font-family="Times,serif" font-size="14.00">4</text>
<polygon fill="none" stroke="crimson" points="321,-33.06 321,-54.06 337,-54.06 337,-33.06 321,-33.06"/>
<text text-anchor="start" x="324" y="-39.86" font-family="Times,serif" font-size="14.00">3</text>
<polygon fill="lightsalmon" stroke="transparent" points="338,-33.06 338,-54.06 354,-54.06 354,-33.06 338,-33.06"/>
<polygon fill="none" stroke="black" points="338,-33.06 338,-54.06 354,-54.06 354,-33.06 338,-33.06"/>
<text text-anchor="start" x="341" y="-39.86" font-family="Times,serif" font-size="14.00">4</text>
<polygon fill="none" stroke="#1c86ee" points="355,-33.06 355,-54.06 371,-54.06 371,-33.06 355,-33.06"/>
<text text-anchor="start" x="358" y="-39.86" font-family="Times,serif" font-size="14.00">5</text>
</g>
<!-- node5&#45;&gt;node4 -->
<g id="edge1" class="edge">
<title>node5:index&#45;&gt;node4:index</title>
<path fill="none" stroke="crimson" d="M424,-66.06C404.68,-66.06 397.47,-66.06 382.13,-66.06"/>
<polygon fill="crimson" stroke="crimson" points="382,-62.56 372,-66.06 382,-69.56 382,-62.56"/>
</g>
<!-- node0 -->
<g id="node3" class="node">
<title>node0</title>
<polygon fill="none" stroke="black" points="579.75,-72.06 519.75,-54.06 579.75,-36.06 639.74,-54.06 579.75,-72.06"/>
<text text-anchor="middle" x="579.75" y="-50.36" font-family="Times,serif" font-size="14.00">Fictive</text>
</g>
<!-- node5&#45;&gt;node0 -->
<g id="edge2" class="edge">
<title>node5:next&#45;&gt;node0</title>
<path fill="none" stroke="black" d="M476,-43.06C493.53,-43.06 512.65,-44.67 529.59,-46.65"/>
<polygon fill="black" stroke="black" points="529.46,-50.16 539.82,-47.92 530.33,-43.21 529.46,-50.16"/>
</g>
<!-- node4&#45;&gt;node5 -->
<g id="edge4" class="edge">
<title>node4:next&#45;&gt;node5:prev</title>
<path fill="none" stroke="#1c86ee" d="M372,-43.06C391.32,-43.06 398.53,-43.06 413.87,-43.06"/>
<polygon fill="#1c86ee" stroke="#1c86ee" points="414,-46.56 424,-43.06 414,-39.56 414,-46.56"/>
</g>
<!-- node3 -->
<g id="node4" class="node">
<title>node3</title>
<polygon fill="#ebebeb" stroke="transparent" points="217,-55.06 217,-76.06 267,-76.06 267,-55.06 217,-55.06"/>
<polygon fill="none" stroke="black" points="217,-55.06 217,-76.06 267,-76.06 267,-55.06 217,-55.06"/>
<text text-anchor="start" x="237" y="-61.86" font-family="Times,serif" font-size="14.00">3</text>
<polygon fill="none" stroke="crimson" points="217,-33.06 217,-54.06 233,-54.06 233,-33.06 217,-33.06"/>
<text text-anchor="start" x="220" y="-39.86" font-family="Times,serif" font-size="14.00">2</text>
<polygon fill="lightsalmon" stroke="transparent" points="234,-33.06 234,-54.06 250,-54.06 250,-33.06 234,-33.06"/>
<polygon fill="none" stroke="black" points="234,-33.06 234,-54.06 250,-54.06 250,-33.06 234,-33.06"/>
<text text-anchor="start" x="237" y="-39.86" font-family="Times,serif" font-size="14.00">3</text>
<polygon fill="none" stroke="#1c86ee" points="251,-33.06 251,-54.06 267,-54.06 267,-33.06 251,-33.06"/>
<text text-anchor="start" x="254" y="-39.86" font-family="Times,serif" font-size="14.00">4</text>
</g>
<!-- node4&#45;&gt;node3 -->
<g id="edge3" class="edge">
<title>node4:index&#45;&gt;node3:index</title>
<path fill="none" stroke="crimson" d="M320,-66.06C300.68,-66.06 293.47,-66.06 278.13,-66.06"/>
<polygon fill="crimson" stroke="crimson" points="278,-62.56 268,-66.06 278,-69.56 278,-62.56"/>
</g>
<!-- node0&#45;&gt;node5 -->
<g id="edge11" class="edge">
<title>node0&#45;&gt;node5:index</title>
<path fill="none" stroke="black" d="M541.29,-60.56C524.83,-62.95 504.98,-65.24 486.07,-65.89"/>
<polygon fill="black" stroke="black" points="485.94,-62.39 476,-66.06 486.06,-69.39 485.94,-62.39"/>
</g>
<!-- node3&#45;&gt;node4 -->
<g id="edge6" class="edge">
<title>node3:next&#45;&gt;node4:prev</title>
<path fill="none" stroke="#1c86ee" d="M268,-43.06C287.32,-43.06 294.53,-43.06 309.87,-43.06"/>
<polygon fill="#1c86ee" stroke="#1c86ee" points="310,-46.56 320,-43.06 310,-39.56 310,-46.56"/>
</g>
<!-- node2 -->
<g id="node5" class="node">
<title>node2</title>
<polygon fill="#ebebeb" stroke="transparent" points="113,-55.06 113,-76.06 163,-76.06 163,-55.06 113,-55.06"/>
<polygon fill="none" stroke="black" points="113,-55.06 113,-76.06 163,-76.06 163,-55.06 113,-55.06"/>
<text text-anchor="start" x="133" y="-61.86" font-family="Times,serif" font-size="14.00">2</text>
<polygon fill="none" stroke="crimson" points="113,-33.06 113,-54.06 129,-54.06 129,-33.06 113,-33.06"/>
<text text-anchor="start" x="116" y="-39.86" font-family="Times,serif" font-size="14.00">1</text>
<polygon fill="lightsalmon" stroke="transparent" points="130,-33.06 130,-54.06 146,-54.06 146,-33.06 130,-33.06"/>
<polygon fill="none" stroke="black" points="130,-33.06 130,-54.06 146,-54.06 146,-33.06 130,-33.06"/>
<text text-anchor="start" x="133" y="-39.86" font-family="Times,serif" font-size="14.00">2</text>
<polygon fill="none" stroke="#1c86ee" points="147,-33.06 147,-54.06 163,-54.06 163,-33.06 147,-33.06"/>
<text text-anchor="start" x="150" y="-39.86" font-family="Times,serif" font-size="14.00">3</text>
</g>
<!-- node3&#45;&gt;node2 -->
<g id="edge5" class="edge">
<title>node3:index&#45;&gt;node2:index</title>
<path fill="none" stroke="crimson" d="M216,-66.06C196.68,-66.06 189.47,-66.06 174.13,-66.06"/>
<polygon fill="crimson" stroke="crimson" points="174,-62.56 164,-66.06 174,-69.56 174,-62.56"/>
</g>
<!-- node2&#45;&gt;node3 -->
<g id="edge8" class="edge">
<title>node2:next&#45;&gt;node3:prev</title>
<path fill="none" stroke="#1c86ee" d="M164,-43.06C183.32,-43.06 190.53,-43.06 205.87,-43.06"/>
<polygon fill="#1c86ee" stroke="#1c86ee" points="206,-46.56 216,-43.06 206,-39.56 206,-46.56"/>
</g>
<!-- node1 -->
<g id="node6" class="node">
<title>node1</title>
<polygon fill="#ebebeb" stroke="transparent" points="9,-55.06 9,-76.06 59,-76.06 59,-55.06 9,-55.06"/>
<polygon fill="none" stroke="black" points="9,-55.06 9,-76.06 59,-76.06 59,-55.06 9,-55.06"/>
<text text-anchor="start" x="29" y="-61.86" font-family="Times,serif" font-size="14.00">1</text>
<polygon fill="none" stroke="crimson" points="9,-33.06 9,-54.06 25,-54.06 25,-33.06 9,-33.06"/>
<text text-anchor="start" x="12" y="-39.86" font-family="Times,serif" font-size="14.00">0</text>
<polygon fill="lightsalmon" stroke="transparent" points="26,-33.06 26,-54.06 42,-54.06 42,-33.06 26,-33.06"/>
<polygon fill="none" stroke="black" points="26,-33.06 26,-54.06 42,-54.06 42,-33.06 26,-33.06"/>
<text text-anchor="start" x="29" y="-39.86" font-family="Times,serif" font-size="14.00">1</text>
<polygon fill="none" stroke="#1c86ee" points="43,-33.06 43,-54.06 59,-54.06 59,-33.06 43,-33.06"/>
<text text-anchor="start" x="46" y="-39.86" font-family="Times,serif" font-size="14.00">2</text>
</g>
<!-- node2&#45;&gt;node1 -->
<g id="edge7" class="edge">
<title>node2:index&#45;&gt;node1:index</title>
<path fill="none" stroke="crimson" d="M112,-66.06C92.68,-66.06 85.47,-66.06 70.13,-66.06"/>
<polygon fill="crimson" stroke="crimson" points="70,-62.56 60,-66.06 70,-69.56 70,-62.56"/>
</g>
<!-- node1&#45;&gt;node0 -->
<g id="edge9" class="edge">
<title>node1:index&#45;&gt;node0</title>
<path fill="none" stroke="black" d="M60,-66.06C82.49,-66.06 82.7,-83.83 104,-91.06 162.21,-110.82 179.53,-110.06 241,-110.06 241,-110.06 241,-110.06 347,-110.06 408.47,-110.06 424.52,-106.57 484,-91.06 505.19,-85.54 528.09,-76.68 546.07,-69.02"/>
<polygon fill="black" stroke="black" points="547.73,-72.11 555.5,-64.91 544.94,-65.69 547.73,-72.11"/>
</g>
<!-- node1&#45;&gt;node0 -->
<g id="edge12" class="edge">
<title>node1:next&#45;&gt;node0</title>
<path fill="none" stroke="black" d="M60,-43.06C82.28,-43.06 82.85,-26.04 104,-19.06 162.38,0.19 179.53,-0.06 241,-0.06 241,-0.06 241,-0.06 347,-0.06 408.47,-0.06 424.38,-4.1 484,-19.06 504.81,-24.28 527.37,-32.51 545.25,-39.67"/>
<polygon fill="black" stroke="black" points="544.08,-42.98 554.66,-43.52 546.73,-36.5 544.08,-42.98"/>
</g>
<!-- node1&#45;&gt;node2 -->
<g id="edge10" class="edge">
<title>node1:next&#45;&gt;node2:prev</title>
<path fill="none" stroke="#1c86ee" d="M60,-43.06C79.32,-43.06 86.53,-43.06 101.87,-43.06"/>
<polygon fill="#1c86ee" stroke="#1c86ee" points="102,-46.56 112,-43.06 102,-39.56 102,-46.56"/>
</g>
</g>
</svg>
