<?xml version="1.0" encoding="UTF-8" standalone="no"?>
<!DOCTYPE svg PUBLIC "-//W3C//DTD SVG 1.1//EN"
 "http://www.w3.org/Graphics/SVG/1.1/DTD/svg11.dtd">
<!-- Generated by graphviz version 2.43.0 (0)
 -->
<!-- Title: list Pages: 1 -->
<svg width="492pt" height="201pt"
 viewBox="0.00 0.00 492.00 200.93" xmlns="http://www.w3.org/2000/svg" xmlns:xlink="http://www.w3.org/1999/xlink">
<g id="graph0" class="graph" transform="scale(1 1) rotate(0) translate(4 196.93)">
<title>list</title>
<polygon fill="white" stroke="transparent" points="-4,4 -4,-196.93 488,-196.93 488,4 -4,4"/>
<!-- node4 -->
<g id="node1" class="node">
<title>node4</title>
<polygon fill="#ebebeb" stroke="transparent" points="9,-98.33 9,-119.33 59,-119.33 59,-98.33 9,-98.33"/>
<polygon fill="none" stroke="black" points="9,-98.33 9,-119.33 59,-119.33 59,-98.33 9,-98.33"/>
<text text-anchor="start" x="29" y="-105.13" font-family="Times,serif" font-size="14.00">4</text>
<polygon fill="none" stroke="crimson" points="9,-76.33 9,-97.33 25,-97.33 25,-76.33 9,-76.33"/>
<text text-anchor="start" x="12" y="-83.13" font-family="Times,serif" font-size="14.00">1</text>
<polygon fill="lightsalmon" stroke="transparent" points="26,-76.33 26,-97.33 42,-97.33 42,-76.33 26,-76.33"/>
<polygon fill="none" stroke="black" points="26,-76.33 26,-97.33 42,-97.33 42,-76.33 26,-76.33"/>
<text text-anchor="start" x="29" y="-83.13" font-family="Times,serif" font-size="14.00">4</text>
<polygon fill="none" stroke="#1c86ee" points="43,-76.33 43,-97.33 59,-97.33 59,-76.33 43,-76.33"/>
<text text-anchor="start" x="46" y="-83.13" font-family="Times,serif" font-size="14.00">0</text>
</g>
<!-- node1 -->
<g id="node2" class="node">
<title>node1</title>
<polygon fill="#ebebeb" stroke="transparent" points="425,-98.33 425,-119.33 475,-119.33 475,-98.33 425,-98.33"/>
<polygon fill="none" stroke="black" points="425,-98.33 425,-119.33 475,-119.33 475,-98.33 425,-98.33"/>
<text text-anchor="start" x="445" y="-105.13" font-family="Times,serif" font-size="14.00">1</text>
<polygon fill="none" stroke="crimson" points="425,-76.33 425,-97.33 441,-97.33 441,-76.33 425,-76.33"/>
<text text-anchor="start" x="428" y="-83.13" font-family="Times,serif" font-size="14.00">2</text>
<polygon fill="lightsalmon" stroke="transparent" points="442,-76.33 442,-97.33 458,-97.33 458,-76.33 442,-76.33"/>
<polygon fill="none" stroke="black" points="442,-76.33 442,-97.33 458,-97.33 458,-76.33 442,-76.33"/>
<text text-anchor="start" x="445" y="-83.13" font-family="Times,serif" font-size="14.00">1</text>
<polygon fill="none" stroke="#1c86ee" points="459,-76.33 459,-97.33 475,-97.33 475,-76.33 459,-76.33"/>
<text text-anchor="start" x="462" y="-83.13" font-family="Times,serif" font-size="14.00">4</text>
</g>
<!-- node4&#45;&gt;node1 -->
<g id="edge1" class="edge">
<title>node4:index&#45;&gt;node1:index</title>
<path fill="none" stroke="crimson" d="M60,-109.33C88.61,-109.33 77.75,-144.94 104,-156.33 216.54,-205.13 267.46,-205.13 380,-156.33 402.56,-146.54 397.71,-118.86 414.06,-111.27"/>
<polygon fill="crimson" stroke="crimson" points="414.86,-114.68 424,-109.33 413.51,-107.81 414.86,-114.68"/>
</g>
<!-- node0 -->
<g id="node5" class="node">
<title>node0</title>
<polygon fill="#ebebeb" stroke="transparent" points="113,-120.33 113,-141.33 163,-141.33 163,-120.33 113,-120.33"/>
<polygon fill="none" stroke="black" points="113,-120.33 113,-141.33 163,-141.33 163,-120.33 113,-120.33"/>
<text text-anchor="start" x="133" y="-127.13" font-family="Times,serif" font-size="14.00">0</text>
<polygon fill="none" stroke="crimson" points="113,-98.33 113,-119.33 129,-119.33 129,-98.33 113,-98.33"/>
<text text-anchor="start" x="116" y="-105.13" font-family="Times,serif" font-size="14.00">4</text>
<polygon fill="lightsalmon" stroke="transparent" points="130,-98.33 130,-119.33 146,-119.33 146,-98.33 130,-98.33"/>
<polygon fill="none" stroke="black" points="130,-98.33 130,-119.33 146,-119.33 146,-98.33 130,-98.33"/>
<text text-anchor="start" x="133" y="-105.13" font-family="Times,serif" font-size="14.00">0</text>
<polygon fill="none" stroke="#1c86ee" points="147,-98.33 147,-119.33 163,-119.33 163,-98.33 147,-98.33"/>
<text text-anchor="start" x="150" y="-105.13" font-family="Times,serif" font-size="14.00">3</text>
</g>
<!-- node4&#45;&gt;node0 -->
<g id="edge10" class="edge">
<title>node4:next&#45;&gt;node0:prev</title>
<path fill="none" stroke="#1c86ee" d="M60,-86.33C81.17,-86.33 85.77,-101.99 101.76,-106.88"/>
<polygon fill="#1c86ee" stroke="#1c86ee" points="101.61,-110.39 112,-108.33 102.59,-103.46 101.61,-110.39"/>
</g>
<!-- node1&#45;&gt;node4 -->
<g id="edge2" class="edge">
<title>node1:next&#45;&gt;node4:prev</title>
<path fill="none" stroke="#1c86ee" d="M467,-75.33C467,21.26 47.24,24.56 18.54,-65.42"/>
<polygon fill="#1c86ee" stroke="#1c86ee" points="15.08,-64.91 17,-75.33 22,-65.98 15.08,-64.91"/>
</g>
<!-- node2 -->
<g id="node3" class="node">
<title>node2</title>
<polygon fill="#ebebeb" stroke="transparent" points="321,-120.33 321,-141.33 371,-141.33 371,-120.33 321,-120.33"/>
<polygon fill="none" stroke="black" points="321,-120.33 321,-141.33 371,-141.33 371,-120.33 321,-120.33"/>
<text text-anchor="start" x="341" y="-127.13" font-family="Times,serif" font-size="14.00">2</text>
<polygon fill="none" stroke="crimson" points="321,-98.33 321,-119.33 337,-119.33 337,-98.33 321,-98.33"/>
<text text-anchor="start" x="324" y="-105.13" font-family="Times,serif" font-size="14.00">3</text>
<polygon fill="lightsalmon" stroke="transparent" points="338,-98.33 338,-119.33 354,-119.33 354,-98.33 338,-98.33"/>
<polygon fill="none" stroke="black" points="338,-98.33 338,-119.33 354,-119.33 354,-98.33 338,-98.33"/>
<text text-anchor="start" x="341" y="-105.13" font-family="Times,serif" font-size="14.00">2</text>
<polygon fill="none" stroke="#1c86ee" points="355,-98.33 355,-119.33 371,-119.33 371,-98.33 355,-98.33"/>
<text text-anchor="start" x="358" y="-105.13" font-family="Times,serif" font-size="14.00">1</text>
</g>
<!-- node1&#45;&gt;node2 -->
<g id="edge3" class="edge">
<title>node1:index&#45;&gt;node2:index</title>
<path fill="none" stroke="crimson" d="M424,-109.33C402.83,-109.33 398.23,-124.99 382.24,-129.88"/>
<polygon fill="crimson" stroke="crimson" points="381.41,-126.46 372,-131.33 382.39,-133.39 381.41,-126.46"/>
</g>
<!-- node2&#45;&gt;node1 -->
<g id="edge4" class="edge">
<title>node2:next&#45;&gt;node1:prev</title>
<path fill="none" stroke="#1c86ee" d="M372,-108.33C393.17,-108.33 397.77,-92.66 413.76,-87.77"/>
<polygon fill="#1c86ee" stroke="#1c86ee" points="414.59,-91.19 424,-86.33 413.61,-84.26 414.59,-91.19"/>
</g>
<!-- node3 -->
<g id="node4" class="node">
<title>node3</title>
<polygon fill="#ebebeb" stroke="transparent" points="217,-120.33 217,-141.33 267,-141.33 267,-120.33 217,-120.33"/>
<polygon fill="none" stroke="black" points="217,-120.33 217,-141.33 267,-141.33 267,-120.33 217,-120.33"/>
<text text-anchor="start" x="237" y="-127.13" font-family="Times,serif" font-size="14.00">3</text>
<polygon fill="none" stroke="crimson" points="217,-98.33 217,-119.33 233,-119.33 233,-98.33 217,-98.33"/>
<text text-anchor="start" x="220" y="-105.13" font-family="Times,serif" font-size="14.00">0</text>
<polygon fill="lightsalmon" stroke="transparent" points="234,-98.33 234,-119.33 250,-119.33 250,-98.33 234,-98.33"/>
<polygon fill="none" stroke="black" points="234,-98.33 234,-119.33 250,-119.33 250,-98.33 234,-98.33"/>
<text text-anchor="start" x="237" y="-105.13" font-family="Times,serif" font-size="14.00">3</text>
<polygon fill="none" stroke="#1c86ee" points="251,-98.33 251,-119.33 267,-119.33 267,-98.33 251,-98.33"/>
<text text-anchor="start" x="254" y="-105.13" font-family="Times,serif" font-size="14.00">2</text>
</g>
<!-- node2&#45;&gt;node3 -->
<g id="edge5" class="edge">
<title>node2:index&#45;&gt;node3:index</title>
<path fill="none" stroke="crimson" d="M320,-131.33C300.68,-131.33 293.47,-131.33 278.13,-131.33"/>
<polygon fill="crimson" stroke="crimson" points="278,-127.83 268,-131.33 278,-134.83 278,-127.83"/>
</g>
<!-- node3&#45;&gt;node2 -->
<g id="edge6" class="edge">
<title>node3:next&#45;&gt;node2:prev</title>
<path fill="none" stroke="#1c86ee" d="M268,-108.33C287.32,-108.33 294.53,-108.33 309.87,-108.33"/>
<polygon fill="#1c86ee" stroke="#1c86ee" points="310,-111.83 320,-108.33 310,-104.83 310,-111.83"/>
</g>
<!-- node3&#45;&gt;node0 -->
<g id="edge7" class="edge">
<title>node3:index&#45;&gt;node0:index</title>
<path fill="none" stroke="crimson" d="M216,-131.33C196.68,-131.33 189.47,-131.33 174.13,-131.33"/>
<polygon fill="crimson" stroke="crimson" points="174,-127.83 164,-131.33 174,-134.83 174,-127.83"/>
</g>
<!-- node0&#45;&gt;node4 -->
<g id="edge9" class="edge">
<title>node0:index&#45;&gt;node4:index</title>
<path fill="none" stroke="crimson" d="M112,-131.33C90.83,-131.33 86.23,-115.66 70.24,-110.77"/>
<polygon fill="crimson" stroke="crimson" points="70.39,-107.26 60,-109.33 69.41,-114.19 70.39,-107.26"/>
</g>
<!-- node0&#45;&gt;node3 -->
<g id="edge8" class="edge">
<title>node0:next&#45;&gt;node3:prev</title>
<path fill="none" stroke="#1c86ee" d="M164,-108.33C183.32,-108.33 190.53,-108.33 205.87,-108.33"/>
<polygon fill="#1c86ee" stroke="#1c86ee" points="206,-111.83 216,-108.33 206,-104.83 206,-111.83"/>
</g>
</g>
</svg>
