<?xml version="1.0" encoding="UTF-8" standalone="no"?>
<!DOCTYPE svg PUBLIC "-//W3C//DTD SVG 1.1//EN"
 "http://www.w3.org/Graphics/SVG/1.1/DTD/svg11.dtd">
<!-- Generated by graphviz version 2.43.0 (0)
 -->
<!-- Title: list Pages: 1 -->
<svg width="2617pt" height="121pt"
 viewBox="0.00 0.00 2617.49 120.50" xmlns="http://www.w3.org/2000/svg" xmlns:xlink="http://www.w3.org/1999/xlink">
<g id="graph0" class="graph" transform="scale(1 1) rotate(0) translate(4 116.5)">
<title>list</title>
<polygon fill="white" stroke="transparent" points="-4,4 -4,-116.5 2613.49,-116.5 2613.49,4 -4,4"/>
<!-- node16 -->
<g id="node1" class="node">
<title>node16</title>
<polygon fill="#ebebeb" stroke="transparent" points="2377,-56.17 2377,-77.17 2445,-77.17 2445,-56.17 2377,-56.17"/>
<polygon fill="none" stroke="black" points="2377,-56.17 2377,-77.17 2445,-77.17 2445,-56.17 2377,-56.17"/>
<text text-anchor="start" x="2401.5" y="-62.97" font-family="Times,serif" font-size="14.00">16</text>
<polygon fill="none" stroke="crimson" points="2377,-34.17 2377,-55.17 2402,-55.17 2402,-34.17 2377,-34.17"/>
<text text-anchor="start" x="2380" y="-40.97" font-family="Times,serif" font-size="14.00">15</text>
<polygon fill="lightsalmon" stroke="transparent" points="2403,-34.17 2403,-55.17 2428,-55.17 2428,-34.17 2403,-34.17"/>
<polygon fill="none" stroke="black" points="2403,-34.17 2403,-55.17 2428,-55.17 2428,-34.17 2403,-34.17"/>
<text text-anchor="start" x="2406" y="-40.97" font-family="Times,serif" font-size="14.00">16</text>
<polygon fill="none" stroke="#1c86ee" points="2429,-34.17 2429,-55.17 2445,-55.17 2445,-34.17 2429,-34.17"/>
<text text-anchor="start" x="2432" y="-40.97" font-family="Times,serif" font-size="14.00">0</text>
</g>
<!-- node15 -->
<g id="node2" class="node">
<title>node15</title>
<polygon fill="#ebebeb" stroke="transparent" points="2246.5,-56.17 2246.5,-77.17 2323.5,-77.17 2323.5,-56.17 2246.5,-56.17"/>
<polygon fill="none" stroke="black" points="2246.5,-56.17 2246.5,-77.17 2323.5,-77.17 2323.5,-56.17 2246.5,-56.17"/>
<text text-anchor="start" x="2275.5" y="-62.97" font-family="Times,serif" font-size="14.00">15</text>
<polygon fill="none" stroke="crimson" points="2246.5,-34.17 2246.5,-55.17 2271.5,-55.17 2271.5,-34.17 2246.5,-34.17"/>
<text text-anchor="start" x="2249.5" y="-40.97" font-family="Times,serif" font-size="14.00">14</text>
<polygon fill="lightsalmon" stroke="transparent" points="2272.5,-34.17 2272.5,-55.17 2297.5,-55.17 2297.5,-34.17 2272.5,-34.17"/>
<polygon fill="none" stroke="black" points="2272.5,-34.17 2272.5,-55.17 2297.5,-55.17 2297.5,-34.17 2272.5,-34.17"/>
<text text-anchor="start" x="2275.5" y="-40.97" font-family="Times,serif" font-size="14.00">15</text>
<polygon fill="none" stroke="#1c86ee" points="2298.5,-34.17 2298.5,-55.17 2323.5,-55.17 2323.5,-34.17 2298.5,-34.17"/>
<text text-anchor="start" x="2301.5" y="-40.97" font-family="Times,serif" font-size="14.00">16</text>
</g>
<!-- node16&#45;&gt;node15 -->
<g id="edge1" class="edge">
<title>node16:index&#45;&gt;node15:index</title>
<path fill="none" stroke="crimson" d="M2376,-67.17C2356.87,-67.17 2349.73,-67.17 2334.53,-67.17"/>
<polygon fill="crimson" stroke="crimson" points="2334.5,-63.67 2324.5,-67.17 2334.5,-70.67 2334.5,-63.67"/>
</g>
<!-- node0 -->
<g id="node3" class="node">
<title>node0</title>
<polygon fill="none" stroke="black" points="2549.75,-73.17 2489.75,-55.17 2549.75,-37.17 2609.74,-55.17 2549.75,-73.17"/>
<text text-anchor="middle" x="2549.75" y="-51.47" font-family="Times,serif" font-size="14.00">Fictive</text>
</g>
<!-- node16&#45;&gt;node0 -->
<g id="edge2" class="edge">
<title>node16:next&#45;&gt;node0</title>
<path fill="none" stroke="black" d="M2446,-44.17C2463.53,-44.17 2482.65,-45.77 2499.59,-47.75"/>
<polygon fill="black" stroke="black" points="2499.46,-51.26 2509.82,-49.03 2500.33,-44.32 2499.46,-51.26"/>
</g>
<!-- node15&#45;&gt;node16 -->
<g id="edge4" class="edge">
<title>node15:next&#45;&gt;node16:prev</title>
<path fill="none" stroke="#1c86ee" d="M2324.5,-44.17C2343.63,-44.17 2350.77,-44.17 2365.97,-44.17"/>
<polygon fill="#1c86ee" stroke="#1c86ee" points="2366,-47.67 2376,-44.17 2366,-40.67 2366,-47.67"/>
</g>
<!-- node14 -->
<g id="node4" class="node">
<title>node14</title>
<polygon fill="#ebebeb" stroke="transparent" points="2115.5,-56.17 2115.5,-77.17 2192.5,-77.17 2192.5,-56.17 2115.5,-56.17"/>
<polygon fill="none" stroke="black" points="2115.5,-56.17 2115.5,-77.17 2192.5,-77.17 2192.5,-56.17 2115.5,-56.17"/>
<text text-anchor="start" x="2144.5" y="-62.97" font-family="Times,serif" font-size="14.00">14</text>
<polygon fill="none" stroke="crimson" points="2115.5,-34.17 2115.5,-55.17 2140.5,-55.17 2140.5,-34.17 2115.5,-34.17"/>
<text text-anchor="start" x="2118.5" y="-40.97" font-family="Times,serif" font-size="14.00">13</text>
<polygon fill="lightsalmon" stroke="transparent" points="2141.5,-34.17 2141.5,-55.17 2166.5,-55.17 2166.5,-34.17 2141.5,-34.17"/>
<polygon fill="none" stroke="black" points="2141.5,-34.17 2141.5,-55.17 2166.5,-55.17 2166.5,-34.17 2141.5,-34.17"/>
<text text-anchor="start" x="2144.5" y="-40.97" font-family="Times,serif" font-size="14.00">14</text>
<polygon fill="none" stroke="#1c86ee" points="2167.5,-34.17 2167.5,-55.17 2192.5,-55.17 2192.5,-34.17 2167.5,-34.17"/>
<text text-anchor="start" x="2170.5" y="-40.97" font-family="Times,serif" font-size="14.00">15</text>
</g>
<!-- node15&#45;&gt;node14 -->
<g id="edge3" class="edge">
<title>node15:index&#45;&gt;node14:index</title>
<path fill="none" stroke="crimson" d="M2245.5,-67.17C2226.18,-67.17 2218.97,-67.17 2203.63,-67.17"/>
<polygon fill="crimson" stroke="crimson" points="2203.5,-63.67 2193.5,-67.17 2203.5,-70.67 2203.5,-63.67"/>
</g>
<!-- node0&#45;&gt;node16 -->
<g id="edge43" class="edge">
<title>node0&#45;&gt;node16:index</title>
<path fill="none" stroke="black" d="M2511.29,-61.66C2494.83,-64.06 2474.98,-66.35 2456.07,-66.99"/>
<polygon fill="black" stroke="black" points="2455.94,-63.49 2446,-67.17 2456.06,-70.49 2455.94,-63.49"/>
</g>
<!-- node14&#45;&gt;node15 -->
<g id="edge6" class="edge">
<title>node14:next&#45;&gt;node15:prev</title>
<path fill="none" stroke="#1c86ee" d="M2193.5,-44.17C2212.82,-44.17 2220.03,-44.17 2235.37,-44.17"/>
<polygon fill="#1c86ee" stroke="#1c86ee" points="2235.5,-47.67 2245.5,-44.17 2235.5,-40.67 2235.5,-47.67"/>
</g>
<!-- node13 -->
<g id="node5" class="node">
<title>node13</title>
<polygon fill="#ebebeb" stroke="transparent" points="1984.5,-56.17 1984.5,-77.17 2061.5,-77.17 2061.5,-56.17 1984.5,-56.17"/>
<polygon fill="none" stroke="black" points="1984.5,-56.17 1984.5,-77.17 2061.5,-77.17 2061.5,-56.17 1984.5,-56.17"/>
<text text-anchor="start" x="2013.5" y="-62.97" font-family="Times,serif" font-size="14.00">13</text>
<polygon fill="none" stroke="crimson" points="1984.5,-34.17 1984.5,-55.17 2009.5,-55.17 2009.5,-34.17 1984.5,-34.17"/>
<text text-anchor="start" x="1987.5" y="-40.97" font-family="Times,serif" font-size="14.00">12</text>
<polygon fill="lightsalmon" stroke="transparent" points="2010.5,-34.17 2010.5,-55.17 2035.5,-55.17 2035.5,-34.17 2010.5,-34.17"/>
<polygon fill="none" stroke="black" points="2010.5,-34.17 2010.5,-55.17 2035.5,-55.17 2035.5,-34.17 2010.5,-34.17"/>
<text text-anchor="start" x="2013.5" y="-40.97" font-family="Times,serif" font-size="14.00">13</text>
<polygon fill="none" stroke="#1c86ee" points="2036.5,-34.17 2036.5,-55.17 2061.5,-55.17 2061.5,-34.17 2036.5,-34.17"/>
<text text-anchor="start" x="2039.5" y="-40.97" font-family="Times,serif" font-size="14.00">14</text>
</g>
<!-- node14&#45;&gt;node13 -->
<g id="edge5" class="edge">
<title>node14:index&#45;&gt;node13:index</title>
<path fill="none" stroke="crimson" d="M2114.5,-67.17C2095.18,-67.17 2087.97,-67.17 2072.63,-67.17"/>
<polygon fill="crimson" stroke="crimson" points="2072.5,-63.67 2062.5,-67.17 2072.5,-70.67 2072.5,-63.67"/>
</g>
<!-- node13&#45;&gt;node14 -->
<g id="edge8" class="edge">
<title>node13:next&#45;&gt;node14:prev</title>
<path fill="none" stroke="#1c86ee" d="M2062.5,-44.17C2081.82,-44.17 2089.03,-44.17 2104.37,-44.17"/>
<polygon fill="#1c86ee" stroke="#1c86ee" points="2104.5,-47.67 2114.5,-44.17 2104.5,-40.67 2104.5,-47.67"/>
</g>
<!-- node12 -->
<g id="node6" class="node">
<title>node12</title>
<polygon fill="#ebebeb" stroke="transparent" points="1853.5,-56.17 1853.5,-77.17 1930.5,-77.17 1930.5,-56.17 1853.5,-56.17"/>
<polygon fill="none" stroke="black" points="1853.5,-56.17 1853.5,-77.17 1930.5,-77.17 1930.5,-56.17 1853.5,-56.17"/>
<text text-anchor="start" x="1882.5" y="-62.97" font-family="Times,serif" font-size="14.00">12</text>
<polygon fill="none" stroke="crimson" points="1853.5,-34.17 1853.5,-55.17 1878.5,-55.17 1878.5,-34.17 1853.5,-34.17"/>
<text text-anchor="start" x="1856.5" y="-40.97" font-family="Times,serif" font-size="14.00">11</text>
<polygon fill="lightsalmon" stroke="transparent" points="1879.5,-34.17 1879.5,-55.17 1904.5,-55.17 1904.5,-34.17 1879.5,-34.17"/>
<polygon fill="none" stroke="black" points="1879.5,-34.17 1879.5,-55.17 1904.5,-55.17 1904.5,-34.17 1879.5,-34.17"/>
<text text-anchor="start" x="1882.5" y="-40.97" font-family="Times,serif" font-size="14.00">12</text>
<polygon fill="none" stroke="#1c86ee" points="1905.5,-34.17 1905.5,-55.17 1930.5,-55.17 1930.5,-34.17 1905.5,-34.17"/>
<text text-anchor="start" x="1908.5" y="-40.97" font-family="Times,serif" font-size="14.00">13</text>
</g>
<!-- node13&#45;&gt;node12 -->
<g id="edge7" class="edge">
<title>node13:index&#45;&gt;node12:index</title>
<path fill="none" stroke="crimson" d="M1983.5,-67.17C1964.18,-67.17 1956.97,-67.17 1941.63,-67.17"/>
<polygon fill="crimson" stroke="crimson" points="1941.5,-63.67 1931.5,-67.17 1941.5,-70.67 1941.5,-63.67"/>
</g>
<!-- node12&#45;&gt;node13 -->
<g id="edge10" class="edge">
<title>node12:next&#45;&gt;node13:prev</title>
<path fill="none" stroke="#1c86ee" d="M1931.5,-44.17C1950.82,-44.17 1958.03,-44.17 1973.37,-44.17"/>
<polygon fill="#1c86ee" stroke="#1c86ee" points="1973.5,-47.67 1983.5,-44.17 1973.5,-40.67 1973.5,-47.67"/>
</g>
<!-- node11 -->
<g id="node7" class="node">
<title>node11</title>
<polygon fill="#ebebeb" stroke="transparent" points="1731,-56.17 1731,-77.17 1799,-77.17 1799,-56.17 1731,-56.17"/>
<polygon fill="none" stroke="black" points="1731,-56.17 1731,-77.17 1799,-77.17 1799,-56.17 1731,-56.17"/>
<text text-anchor="start" x="1755.5" y="-62.97" font-family="Times,serif" font-size="14.00">11</text>
<polygon fill="none" stroke="crimson" points="1731,-34.17 1731,-55.17 1747,-55.17 1747,-34.17 1731,-34.17"/>
<text text-anchor="start" x="1734" y="-40.97" font-family="Times,serif" font-size="14.00">9</text>
<polygon fill="lightsalmon" stroke="transparent" points="1748,-34.17 1748,-55.17 1773,-55.17 1773,-34.17 1748,-34.17"/>
<polygon fill="none" stroke="black" points="1748,-34.17 1748,-55.17 1773,-55.17 1773,-34.17 1748,-34.17"/>
<text text-anchor="start" x="1751" y="-40.97" font-family="Times,serif" font-size="14.00">11</text>
<polygon fill="none" stroke="#1c86ee" points="1774,-34.17 1774,-55.17 1799,-55.17 1799,-34.17 1774,-34.17"/>
<text text-anchor="start" x="1777" y="-40.97" font-family="Times,serif" font-size="14.00">12</text>
</g>
<!-- node12&#45;&gt;node11 -->
<g id="edge9" class="edge">
<title>node12:index&#45;&gt;node11:index</title>
<path fill="none" stroke="crimson" d="M1852.5,-67.17C1832.99,-67.17 1825.72,-67.17 1810.23,-67.17"/>
<polygon fill="crimson" stroke="crimson" points="1810,-63.67 1800,-67.17 1810,-70.67 1810,-63.67"/>
</g>
<!-- node11&#45;&gt;node12 -->
<g id="edge12" class="edge">
<title>node11:next&#45;&gt;node12:prev</title>
<path fill="none" stroke="#1c86ee" d="M1800,-44.17C1819.51,-44.17 1826.78,-44.17 1842.27,-44.17"/>
<polygon fill="#1c86ee" stroke="#1c86ee" points="1842.5,-47.67 1852.5,-44.17 1842.5,-40.67 1842.5,-47.67"/>
</g>
<!-- node9 -->
<g id="node8" class="node">
<title>node9</title>
<polygon fill="#ebebeb" stroke="transparent" points="1618.5,-56.17 1618.5,-77.17 1677.5,-77.17 1677.5,-56.17 1618.5,-56.17"/>
<polygon fill="none" stroke="black" points="1618.5,-56.17 1618.5,-77.17 1677.5,-77.17 1677.5,-56.17 1618.5,-56.17"/>
<text text-anchor="start" x="1643" y="-62.97" font-family="Times,serif" font-size="14.00">9</text>
<polygon fill="none" stroke="crimson" points="1618.5,-34.17 1618.5,-55.17 1634.5,-55.17 1634.5,-34.17 1618.5,-34.17"/>
<text text-anchor="start" x="1621.5" y="-40.97" font-family="Times,serif" font-size="14.00">7</text>
<polygon fill="lightsalmon" stroke="transparent" points="1635.5,-34.17 1635.5,-55.17 1651.5,-55.17 1651.5,-34.17 1635.5,-34.17"/>
<polygon fill="none" stroke="black" points="1635.5,-34.17 1635.5,-55.17 1651.5,-55.17 1651.5,-34.17 1635.5,-34.17"/>
<text text-anchor="start" x="1638.5" y="-40.97" font-family="Times,serif" font-size="14.00">9</text>
<polygon fill="none" stroke="#1c86ee" points="1652.5,-34.17 1652.5,-55.17 1677.5,-55.17 1677.5,-34.17 1652.5,-34.17"/>
<text text-anchor="start" x="1655.5" y="-40.97" font-family="Times,serif" font-size="14.00">11</text>
</g>
<!-- node11&#45;&gt;node9 -->
<g id="edge11" class="edge">
<title>node11:index&#45;&gt;node9:index</title>
<path fill="none" stroke="crimson" d="M1730,-67.17C1710.87,-67.17 1703.73,-67.17 1688.53,-67.17"/>
<polygon fill="crimson" stroke="crimson" points="1688.5,-63.67 1678.5,-67.17 1688.5,-70.67 1688.5,-63.67"/>
</g>
<!-- node9&#45;&gt;node11 -->
<g id="edge14" class="edge">
<title>node9:next&#45;&gt;node11:prev</title>
<path fill="none" stroke="#1c86ee" d="M1678.5,-44.17C1697.63,-44.17 1704.77,-44.17 1719.97,-44.17"/>
<polygon fill="#1c86ee" stroke="#1c86ee" points="1720,-47.67 1730,-44.17 1720,-40.67 1720,-47.67"/>
</g>
<!-- node7 -->
<g id="node9" class="node">
<title>node7</title>
<polygon fill="#ebebeb" stroke="transparent" points="1514,-56.17 1514,-77.17 1564,-77.17 1564,-56.17 1514,-56.17"/>
<polygon fill="none" stroke="black" points="1514,-56.17 1514,-77.17 1564,-77.17 1564,-56.17 1514,-56.17"/>
<text text-anchor="start" x="1534" y="-62.97" font-family="Times,serif" font-size="14.00">7</text>
<polygon fill="none" stroke="crimson" points="1514,-34.17 1514,-55.17 1530,-55.17 1530,-34.17 1514,-34.17"/>
<text text-anchor="start" x="1517" y="-40.97" font-family="Times,serif" font-size="14.00">6</text>
<polygon fill="lightsalmon" stroke="transparent" points="1531,-34.17 1531,-55.17 1547,-55.17 1547,-34.17 1531,-34.17"/>
<polygon fill="none" stroke="black" points="1531,-34.17 1531,-55.17 1547,-55.17 1547,-34.17 1531,-34.17"/>
<text text-anchor="start" x="1534" y="-40.97" font-family="Times,serif" font-size="14.00">7</text>
<polygon fill="none" stroke="#1c86ee" points="1548,-34.17 1548,-55.17 1564,-55.17 1564,-34.17 1548,-34.17"/>
<text text-anchor="start" x="1551" y="-40.97" font-family="Times,serif" font-size="14.00">9</text>
</g>
<!-- node9&#45;&gt;node7 -->
<g id="edge13" class="edge">
<title>node9:index&#45;&gt;node7:index</title>
<path fill="none" stroke="crimson" d="M1617.5,-67.17C1597.99,-67.17 1590.72,-67.17 1575.23,-67.17"/>
<polygon fill="crimson" stroke="crimson" points="1575,-63.67 1565,-67.17 1575,-70.67 1575,-63.67"/>
</g>
<!-- node7&#45;&gt;node9 -->
<g id="edge16" class="edge">
<title>node7:next&#45;&gt;node9:prev</title>
<path fill="none" stroke="#1c86ee" d="M1565,-44.17C1584.51,-44.17 1591.78,-44.17 1607.27,-44.17"/>
<polygon fill="#1c86ee" stroke="#1c86ee" points="1607.5,-47.67 1617.5,-44.17 1607.5,-40.67 1607.5,-47.67"/>
</g>
<!-- node6 -->
<g id="node10" class="node">
<title>node6</title>
<polygon fill="#ebebeb" stroke="transparent" points="1410,-56.17 1410,-77.17 1460,-77.17 1460,-56.17 1410,-56.17"/>
<polygon fill="none" stroke="black" points="1410,-56.17 1410,-77.17 1460,-77.17 1460,-56.17 1410,-56.17"/>
<text text-anchor="start" x="1430" y="-62.97" font-family="Times,serif" font-size="14.00">6</text>
<polygon fill="none" stroke="crimson" points="1410,-34.17 1410,-55.17 1426,-55.17 1426,-34.17 1410,-34.17"/>
<text text-anchor="start" x="1413" y="-40.97" font-family="Times,serif" font-size="14.00">5</text>
<polygon fill="lightsalmon" stroke="transparent" points="1427,-34.17 1427,-55.17 1443,-55.17 1443,-34.17 1427,-34.17"/>
<polygon fill="none" stroke="black" points="1427,-34.17 1427,-55.17 1443,-55.17 1443,-34.17 1427,-34.17"/>
<text text-anchor="start" x="1430" y="-40.97" font-family="Times,serif" font-size="14.00">6</text>
<polygon fill="none" stroke="#1c86ee" points="1444,-34.17 1444,-55.17 1460,-55.17 1460,-34.17 1444,-34.17"/>
<text text-anchor="start" x="1447" y="-40.97" font-family="Times,serif" font-size="14.00">7</text>
</g>
<!-- node7&#45;&gt;node6 -->
<g id="edge15" class="edge">
<title>node7:index&#45;&gt;node6:index</title>
<path fill="none" stroke="crimson" d="M1513,-67.17C1493.68,-67.17 1486.47,-67.17 1471.13,-67.17"/>
<polygon fill="crimson" stroke="crimson" points="1471,-63.67 1461,-67.17 1471,-70.67 1471,-63.67"/>
</g>
<!-- node6&#45;&gt;node7 -->
<g id="edge18" class="edge">
<title>node6:next&#45;&gt;node7:prev</title>
<path fill="none" stroke="#1c86ee" d="M1461,-44.17C1480.32,-44.17 1487.53,-44.17 1502.87,-44.17"/>
<polygon fill="#1c86ee" stroke="#1c86ee" points="1503,-47.67 1513,-44.17 1503,-40.67 1503,-47.67"/>
</g>
<!-- node5 -->
<g id="node11" class="node">
<title>node5</title>
<polygon fill="#ebebeb" stroke="transparent" points="1306,-56.17 1306,-77.17 1356,-77.17 1356,-56.17 1306,-56.17"/>
<polygon fill="none" stroke="black" points="1306,-56.17 1306,-77.17 1356,-77.17 1356,-56.17 1306,-56.17"/>
<text text-anchor="start" x="1326" y="-62.97" font-family="Times,serif" font-size="14.00">5</text>
<polygon fill="none" stroke="crimson" points="1306,-34.17 1306,-55.17 1322,-55.17 1322,-34.17 1306,-34.17"/>
<text text-anchor="start" x="1309" y="-40.97" font-family="Times,serif" font-size="14.00">4</text>
<polygon fill="lightsalmon" stroke="transparent" points="1323,-34.17 1323,-55.17 1339,-55.17 1339,-34.17 1323,-34.17"/>
<polygon fill="none" stroke="black" points="1323,-34.17 1323,-55.17 1339,-55.17 1339,-34.17 1323,-34.17"/>
<text text-anchor="start" x="1326" y="-40.97" font-family="Times,serif" font-size="14.00">5</text>
<polygon fill="none" stroke="#1c86ee" points="1340,-34.17 1340,-55.17 1356,-55.17 1356,-34.17 1340,-34.17"/>
<text text-anchor="start" x="1343" y="-40.97" font-family="Times,serif" font-size="14.00">6</text>
</g>
<!-- node6&#45;&gt;node5 -->
<g id="edge17" class="edge">
<title>node6:index&#45;&gt;node5:index</title>
<path fill="none" stroke="crimson" d="M1409,-67.17C1389.68,-67.17 1382.47,-67.17 1367.13,-67.17"/>
<polygon fill="crimson" stroke="crimson" points="1367,-63.67 1357,-67.17 1367,-70.67 1367,-63.67"/>
</g>
<!-- node5&#45;&gt;node6 -->
<g id="edge20" class="edge">
<title>node5:next&#45;&gt;node6:prev</title>
<path fill="none" stroke="#1c86ee" d="M1357,-44.17C1376.32,-44.17 1383.53,-44.17 1398.87,-44.17"/>
<polygon fill="#1c86ee" stroke="#1c86ee" points="1399,-47.67 1409,-44.17 1399,-40.67 1399,-47.67"/>
</g>
<!-- node4 -->
<g id="node12" class="node">
<title>node4</title>
<polygon fill="#ebebeb" stroke="transparent" points="1202,-56.17 1202,-77.17 1252,-77.17 1252,-56.17 1202,-56.17"/>
<polygon fill="none" stroke="black" points="1202,-56.17 1202,-77.17 1252,-77.17 1252,-56.17 1202,-56.17"/>
<text text-anchor="start" x="1222" y="-62.97" font-family="Times,serif" font-size="14.00">4</text>
<polygon fill="none" stroke="crimson" points="1202,-34.17 1202,-55.17 1218,-55.17 1218,-34.17 1202,-34.17"/>
<text text-anchor="start" x="1205" y="-40.97" font-family="Times,serif" font-size="14.00">3</text>
<polygon fill="lightsalmon" stroke="transparent" points="1219,-34.17 1219,-55.17 1235,-55.17 1235,-34.17 1219,-34.17"/>
<polygon fill="none" stroke="black" points="1219,-34.17 1219,-55.17 1235,-55.17 1235,-34.17 1219,-34.17"/>
<text text-anchor="start" x="1222" y="-40.97" font-family="Times,serif" font-size="14.00">4</text>
<polygon fill="none" stroke="#1c86ee" points="1236,-34.17 1236,-55.17 1252,-55.17 1252,-34.17 1236,-34.17"/>
<text text-anchor="start" x="1239" y="-40.97" font-family="Times,serif" font-size="14.00">5</text>
</g>
<!-- node5&#45;&gt;node4 -->
<g id="edge19" class="edge">
<title>node5:index&#45;&gt;node4:index</title>
<path fill="none" stroke="crimson" d="M1305,-67.17C1285.68,-67.17 1278.47,-67.17 1263.13,-67.17"/>
<polygon fill="crimson" stroke="crimson" points="1263,-63.67 1253,-67.17 1263,-70.67 1263,-63.67"/>
</g>
<!-- node4&#45;&gt;node5 -->
<g id="edge22" class="edge">
<title>node4:next&#45;&gt;node5:prev</title>
<path fill="none" stroke="#1c86ee" d="M1253,-44.17C1272.32,-44.17 1279.53,-44.17 1294.87,-44.17"/>
<polygon fill="#1c86ee" stroke="#1c86ee" points="1295,-47.67 1305,-44.17 1295,-40.67 1295,-47.67"/>
</g>
<!-- node3 -->
<g id="node13" class="node">
<title>node3</title>
<polygon fill="#ebebeb" stroke="transparent" points="1098,-56.17 1098,-77.17 1148,-77.17 1148,-56.17 1098,-56.17"/>
<polygon fill="none" stroke="black" points="1098,-56.17 1098,-77.17 1148,-77.17 1148,-56.17 1098,-56.17"/>
<text text-anchor="start" x="1118" y="-62.97" font-family="Times,serif" font-size="14.00">3</text>
<polygon fill="none" stroke="crimson" points="1098,-34.17 1098,-55.17 1114,-55.17 1114,-34.17 1098,-34.17"/>
<text text-anchor="start" x="1101" y="-40.97" font-family="Times,serif" font-size="14.00">2</text>
<polygon fill="lightsalmon" stroke="transparent" points="1115,-34.17 1115,-55.17 1131,-55.17 1131,-34.17 1115,-34.17"/>
<polygon fill="none" stroke="black" points="1115,-34.17 1115,-55.17 1131,-55.17 1131,-34.17 1115,-34.17"/>
<text text-anchor="start" x="1118" y="-40.97" font-family="Times,serif" font-size="14.00">3</text>
<polygon fill="none" stroke="#1c86ee" points="1132,-34.17 1132,-55.17 1148,-55.17 1148,-34.17 1132,-34.17"/>
<text text-anchor="start" x="1135" y="-40.97" font-family="Times,serif" font-size="14.00">4</text>
</g>
<!-- node4&#45;&gt;node3 -->
<g id="edge21" class="edge">
<title>node4:index&#45;&gt;node3:index</title>
<path fill="none" stroke="crimson" d="M1201,-67.17C1181.68,-67.17 1174.47,-67.17 1159.13,-67.17"/>
<polygon fill="crimson" stroke="crimson" points="1159,-63.67 1149,-67.17 1159,-70.67 1159,-63.67"/>
</g>
<!-- node3&#45;&gt;node4 -->
<g id="edge24" class="edge">
<title>node3:next&#45;&gt;node4:prev</title>
<path fill="none" stroke="#1c86ee" d="M1149,-44.17C1168.32,-44.17 1175.53,-44.17 1190.87,-44.17"/>
<polygon fill="#1c86ee" stroke="#1c86ee" points="1191,-47.67 1201,-44.17 1191,-40.67 1191,-47.67"/>
</g>
<!-- node2 -->
<g id="node14" class="node">
<title>node2</title>
<polygon fill="#ebebeb" stroke="transparent" points="994,-56.17 994,-77.17 1044,-77.17 1044,-56.17 994,-56.17"/>
<polygon fill="none" stroke="black" points="994,-56.17 994,-77.17 1044,-77.17 1044,-56.17 994,-56.17"/>
<text text-anchor="start" x="1014" y="-62.97" font-family="Times,serif" font-size="14.00">2</text>
<polygon fill="none" stroke="crimson" points="994,-34.17 994,-55.17 1010,-55.17 1010,-34.17 994,-34.17"/>
<text text-anchor="start" x="997" y="-40.97" font-family="Times,serif" font-size="14.00">1</text>
<polygon fill="lightsalmon" stroke="transparent" points="1011,-34.17 1011,-55.17 1027,-55.17 1027,-34.17 1011,-34.17"/>
<polygon fill="none" stroke="black" points="1011,-34.17 1011,-55.17 1027,-55.17 1027,-34.17 1011,-34.17"/>
<text text-anchor="start" x="1014" y="-40.97" font-family="Times,serif" font-size="14.00">2</text>
<polygon fill="none" stroke="#1c86ee" points="1028,-34.17 1028,-55.17 1044,-55.17 1044,-34.17 1028,-34.17"/>
<text text-anchor="start" x="1031" y="-40.97" font-family="Times,serif" font-size="14.00">3</text>
</g>
<!-- node3&#45;&gt;node2 -->
<g id="edge23" class="edge">
<title>node3:index&#45;&gt;node2:index</title>
<path fill="none" stroke="crimson" d="M1097,-67.17C1077.68,-67.17 1070.47,-67.17 1055.13,-67.17"/>
<polygon fill="crimson" stroke="crimson" points="1055,-63.67 1045,-67.17 1055,-70.67 1055,-63.67"/>
</g>
<!-- node2&#45;&gt;node3 -->
<g id="edge26" class="edge">
<title>node2:next&#45;&gt;node3:prev</title>
<path fill="none" stroke="#1c86ee" d="M1045,-44.17C1064.32,-44.17 1071.53,-44.17 1086.87,-44.17"/>
<polygon fill="#1c86ee" stroke="#1c86ee" points="1087,-47.67 1097,-44.17 1087,-40.67 1087,-47.67"/>
</g>
<!-- node1 -->
<g id="node15" class="node">
<title>node1</title>
<polygon fill="#ebebeb" stroke="transparent" points="890,-56.17 890,-77.17 940,-77.17 940,-56.17 890,-56.17"/>
<polygon fill="none" stroke="black" points="890,-56.17 890,-77.17 940,-77.17 940,-56.17 890,-56.17"/>
<text text-anchor="start" x="910" y="-62.97" font-family="Times,serif" font-size="14.00">1</text>
<polygon fill="none" stroke="crimson" points="890,-34.17 890,-55.17 906,-55.17 906,-34.17 890,-34.17"/>
<text text-anchor="start" x="893" y="-40.97" font-family="Times,serif" font-size="14.00">8</text>
<polygon fill="lightsalmon" stroke="transparent" points="907,-34.17 907,-55.17 923,-55.17 923,-34.17 907,-34.17"/>
<polygon fill="none" stroke="black" points="907,-34.17 907,-55.17 923,-55.17 923,-34.17 907,-34.17"/>
<text text-anchor="start" x="910" y="-40.97" font-family="Times,serif" font-size="14.00">1</text>
<polygon fill="none" stroke="#1c86ee" points="924,-34.17 924,-55.17 940,-55.17 940,-34.17 924,-34.17"/>
<text text-anchor="start" x="927" y="-40.97" font-family="Times,serif" font-size="14.00">2</text>
</g>
<!-- node2&#45;&gt;node1 -->
<g id="edge25" class="edge">
<title>node2:index&#45;&gt;node1:index</title>
<path fill="none" stroke="crimson" d="M993,-67.17C973.68,-67.17 966.47,-67.17 951.13,-67.17"/>
<polygon fill="crimson" stroke="crimson" points="951,-63.67 941,-67.17 951,-70.67 951,-63.67"/>
</g>
<!-- node1&#45;&gt;node2 -->
<g id="edge28" class="edge">
<title>node1:next&#45;&gt;node2:prev</title>
<path fill="none" stroke="#1c86ee" d="M941,-44.17C960.32,-44.17 967.53,-44.17 982.87,-44.17"/>
<polygon fill="#1c86ee" stroke="#1c86ee" points="983,-47.67 993,-44.17 983,-40.67 983,-47.67"/>
</g>
<!-- node8 -->
<g id="node16" class="node">
<title>node8</title>
<polygon fill="#ebebeb" stroke="transparent" points="777.5,-56.17 777.5,-77.17 836.5,-77.17 836.5,-56.17 777.5,-56.17"/>
<polygon fill="none" stroke="black" points="777.5,-56.17 777.5,-77.17 836.5,-77.17 836.5,-56.17 777.5,-56.17"/>
<text text-anchor="start" x="802" y="-62.97" font-family="Times,serif" font-size="14.00">8</text>
<polygon fill="none" stroke="crimson" points="777.5,-34.17 777.5,-55.17 802.5,-55.17 802.5,-34.17 777.5,-34.17"/>
<text text-anchor="start" x="780.5" y="-40.97" font-family="Times,serif" font-size="14.00">10</text>
<polygon fill="lightsalmon" stroke="transparent" points="803.5,-34.17 803.5,-55.17 819.5,-55.17 819.5,-34.17 803.5,-34.17"/>
<polygon fill="none" stroke="black" points="803.5,-34.17 803.5,-55.17 819.5,-55.17 819.5,-34.17 803.5,-34.17"/>
<text text-anchor="start" x="806.5" y="-40.97" font-family="Times,serif" font-size="14.00">8</text>
<polygon fill="none" stroke="#1c86ee" points="820.5,-34.17 820.5,-55.17 836.5,-55.17 836.5,-34.17 820.5,-34.17"/>
<text text-anchor="start" x="823.5" y="-40.97" font-family="Times,serif" font-size="14.00">1</text>
</g>
<!-- node1&#45;&gt;node8 -->
<g id="edge27" class="edge">
<title>node1:index&#45;&gt;node8:index</title>
<path fill="none" stroke="crimson" d="M889,-67.17C869.87,-67.17 862.73,-67.17 847.53,-67.17"/>
<polygon fill="crimson" stroke="crimson" points="847.5,-63.67 837.5,-67.17 847.5,-70.67 847.5,-63.67"/>
</g>
<!-- node8&#45;&gt;node1 -->
<g id="edge30" class="edge">
<title>node8:next&#45;&gt;node1:prev</title>
<path fill="none" stroke="#1c86ee" d="M837.5,-44.17C856.63,-44.17 863.77,-44.17 878.97,-44.17"/>
<polygon fill="#1c86ee" stroke="#1c86ee" points="879,-47.67 889,-44.17 879,-40.67 879,-47.67"/>
</g>
<!-- node10 -->
<g id="node17" class="node">
<title>node10</title>
<polygon fill="#ebebeb" stroke="transparent" points="655,-56.17 655,-77.17 723,-77.17 723,-56.17 655,-56.17"/>
<polygon fill="none" stroke="black" points="655,-56.17 655,-77.17 723,-77.17 723,-56.17 655,-56.17"/>
<text text-anchor="start" x="679.5" y="-62.97" font-family="Times,serif" font-size="14.00">10</text>
<polygon fill="none" stroke="crimson" points="655,-34.17 655,-55.17 680,-55.17 680,-34.17 655,-34.17"/>
<text text-anchor="start" x="658" y="-40.97" font-family="Times,serif" font-size="14.00">17</text>
<polygon fill="lightsalmon" stroke="transparent" points="681,-34.17 681,-55.17 706,-55.17 706,-34.17 681,-34.17"/>
<polygon fill="none" stroke="black" points="681,-34.17 681,-55.17 706,-55.17 706,-34.17 681,-34.17"/>
<text text-anchor="start" x="684" y="-40.97" font-family="Times,serif" font-size="14.00">10</text>
<polygon fill="none" stroke="#1c86ee" points="707,-34.17 707,-55.17 723,-55.17 723,-34.17 707,-34.17"/>
<text text-anchor="start" x="710" y="-40.97" font-family="Times,serif" font-size="14.00">8</text>
</g>
<!-- node8&#45;&gt;node10 -->
<g id="edge29" class="edge">
<title>node8:index&#45;&gt;node10:index</title>
<path fill="none" stroke="crimson" d="M776.5,-67.17C756.99,-67.17 749.72,-67.17 734.23,-67.17"/>
<polygon fill="crimson" stroke="crimson" points="734,-63.67 724,-67.17 734,-70.67 734,-63.67"/>
</g>
<!-- node10&#45;&gt;node8 -->
<g id="edge32" class="edge">
<title>node10:next&#45;&gt;node8:prev</title>
<path fill="none" stroke="#1c86ee" d="M724,-44.17C743.51,-44.17 750.78,-44.17 766.27,-44.17"/>
<polygon fill="#1c86ee" stroke="#1c86ee" points="766.5,-47.67 776.5,-44.17 766.5,-40.67 766.5,-47.67"/>
</g>
<!-- node17 -->
<g id="node18" class="node">
<title>node17</title>
<polygon fill="#ebebeb" stroke="transparent" points="524.5,-56.17 524.5,-77.17 601.5,-77.17 601.5,-56.17 524.5,-56.17"/>
<polygon fill="none" stroke="black" points="524.5,-56.17 524.5,-77.17 601.5,-77.17 601.5,-56.17 524.5,-56.17"/>
<text text-anchor="start" x="553.5" y="-62.97" font-family="Times,serif" font-size="14.00">17</text>
<polygon fill="none" stroke="crimson" points="524.5,-34.17 524.5,-55.17 549.5,-55.17 549.5,-34.17 524.5,-34.17"/>
<text text-anchor="start" x="527.5" y="-40.97" font-family="Times,serif" font-size="14.00">18</text>
<polygon fill="lightsalmon" stroke="transparent" points="550.5,-34.17 550.5,-55.17 575.5,-55.17 575.5,-34.17 550.5,-34.17"/>
<polygon fill="none" stroke="black" points="550.5,-34.17 550.5,-55.17 575.5,-55.17 575.5,-34.17 550.5,-34.17"/>
<text text-anchor="start" x="553.5" y="-40.97" font-family="Times,serif" font-size="14.00">17</text>
<polygon fill="none" stroke="#1c86ee" points="576.5,-34.17 576.5,-55.17 601.5,-55.17 601.5,-34.17 576.5,-34.17"/>
<text text-anchor="start" x="579.5" y="-40.97" font-family="Times,serif" font-size="14.00">10</text>
</g>
<!-- node10&#45;&gt;node17 -->
<g id="edge31" class="edge">
<title>node10:index&#45;&gt;node17:index</title>
<path fill="none" stroke="crimson" d="M654,-67.17C634.87,-67.17 627.73,-67.17 612.53,-67.17"/>
<polygon fill="crimson" stroke="crimson" points="612.5,-63.67 602.5,-67.17 612.5,-70.67 612.5,-63.67"/>
</g>
<!-- node17&#45;&gt;node10 -->
<g id="edge34" class="edge">
<title>node17:next&#45;&gt;node10:prev</title>
<path fill="none" stroke="#1c86ee" d="M602.5,-44.17C621.63,-44.17 628.77,-44.17 643.97,-44.17"/>
<polygon fill="#1c86ee" stroke="#1c86ee" points="644,-47.67 654,-44.17 644,-40.67 644,-47.67"/>
</g>
<!-- node18 -->
<g id="node19" class="node">
<title>node18</title>
<polygon fill="#ebebeb" stroke="transparent" points="393.5,-56.17 393.5,-77.17 470.5,-77.17 470.5,-56.17 393.5,-56.17"/>
<polygon fill="none" stroke="black" points="393.5,-56.17 393.5,-77.17 470.5,-77.17 470.5,-56.17 393.5,-56.17"/>
<text text-anchor="start" x="422.5" y="-62.97" font-family="Times,serif" font-size="14.00">18</text>
<polygon fill="none" stroke="crimson" points="393.5,-34.17 393.5,-55.17 418.5,-55.17 418.5,-34.17 393.5,-34.17"/>
<text text-anchor="start" x="396.5" y="-40.97" font-family="Times,serif" font-size="14.00">19</text>
<polygon fill="lightsalmon" stroke="transparent" points="419.5,-34.17 419.5,-55.17 444.5,-55.17 444.5,-34.17 419.5,-34.17"/>
<polygon fill="none" stroke="black" points="419.5,-34.17 419.5,-55.17 444.5,-55.17 444.5,-34.17 419.5,-34.17"/>
<text text-anchor="start" x="422.5" y="-40.97" font-family="Times,serif" font-size="14.00">18</text>
<polygon fill="none" stroke="#1c86ee" points="445.5,-34.17 445.5,-55.17 470.5,-55.17 470.5,-34.17 445.5,-34.17"/>
<text text-anchor="start" x="448.5" y="-40.97" font-family="Times,serif" font-size="14.00">17</text>
</g>
<!-- node17&#45;&gt;node18 -->
<g id="edge33" class="edge">
<title>node17:index&#45;&gt;node18:index</title>
<path fill="none" stroke="crimson" d="M523.5,-67.17C504.18,-67.17 496.97,-67.17 481.63,-67.17"/>
<polygon fill="crimson" stroke="crimson" points="481.5,-63.67 471.5,-67.17 481.5,-70.67 481.5,-63.67"/>
</g>
<!-- node18&#45;&gt;node17 -->
<g id="edge36" class="edge">
<title>node18:next&#45;&gt;node17:prev</title>
<path fill="none" stroke="#1c86ee" d="M471.5,-44.17C490.82,-44.17 498.03,-44.17 513.37,-44.17"/>
<polygon fill="#1c86ee" stroke="#1c86ee" points="513.5,-47.67 523.5,-44.17 513.5,-40.67 513.5,-47.67"/>
</g>
<!-- node19 -->
<g id="node20" class="node">
<title>node19</title>
<polygon fill="#ebebeb" stroke="transparent" points="262.5,-56.17 262.5,-77.17 339.5,-77.17 339.5,-56.17 262.5,-56.17"/>
<polygon fill="none" stroke="black" points="262.5,-56.17 262.5,-77.17 339.5,-77.17 339.5,-56.17 262.5,-56.17"/>
<text text-anchor="start" x="291.5" y="-62.97" font-family="Times,serif" font-size="14.00">19</text>
<polygon fill="none" stroke="crimson" points="262.5,-34.17 262.5,-55.17 287.5,-55.17 287.5,-34.17 262.5,-34.17"/>
<text text-anchor="start" x="265.5" y="-40.97" font-family="Times,serif" font-size="14.00">20</text>
<polygon fill="lightsalmon" stroke="transparent" points="288.5,-34.17 288.5,-55.17 313.5,-55.17 313.5,-34.17 288.5,-34.17"/>
<polygon fill="none" stroke="black" points="288.5,-34.17 288.5,-55.17 313.5,-55.17 313.5,-34.17 288.5,-34.17"/>
<text text-anchor="start" x="291.5" y="-40.97" font-family="Times,serif" font-size="14.00">19</text>
<polygon fill="none" stroke="#1c86ee" points="314.5,-34.17 314.5,-55.17 339.5,-55.17 339.5,-34.17 314.5,-34.17"/>
<text text-anchor="start" x="317.5" y="-40.97" font-family="Times,serif" font-size="14.00">18</text>
</g>
<!-- node18&#45;&gt;node19 -->
<g id="edge35" class="edge">
<title>node18:index&#45;&gt;node19:index</title>
<path fill="none" stroke="crimson" d="M392.5,-67.17C373.18,-67.17 365.97,-67.17 350.63,-67.17"/>
<polygon fill="crimson" stroke="crimson" points="350.5,-63.67 340.5,-67.17 350.5,-70.67 350.5,-63.67"/>
</g>
<!-- node19&#45;&gt;node18 -->
<g id="edge38" class="edge">
<title>node19:next&#45;&gt;node18:prev</title>
<path fill="none" stroke="#1c86ee" d="M340.5,-44.17C359.82,-44.17 367.03,-44.17 382.37,-44.17"/>
<polygon fill="#1c86ee" stroke="#1c86ee" points="382.5,-47.67 392.5,-44.17 382.5,-40.67 382.5,-47.67"/>
</g>
<!-- node20 -->
<g id="node21" class="node">
<title>node20</title>
<polygon fill="#ebebeb" stroke="transparent" points="131.5,-56.17 131.5,-77.17 208.5,-77.17 208.5,-56.17 131.5,-56.17"/>
<polygon fill="none" stroke="black" points="131.5,-56.17 131.5,-77.17 208.5,-77.17 208.5,-56.17 131.5,-56.17"/>
<text text-anchor="start" x="160.5" y="-62.97" font-family="Times,serif" font-size="14.00">20</text>
<polygon fill="none" stroke="crimson" points="131.5,-34.17 131.5,-55.17 156.5,-55.17 156.5,-34.17 131.5,-34.17"/>
<text text-anchor="start" x="134.5" y="-40.97" font-family="Times,serif" font-size="14.00">21</text>
<polygon fill="lightsalmon" stroke="transparent" points="157.5,-34.17 157.5,-55.17 182.5,-55.17 182.5,-34.17 157.5,-34.17"/>
<polygon fill="none" stroke="black" points="157.5,-34.17 157.5,-55.17 182.5,-55.17 182.5,-34.17 157.5,-34.17"/>
<text text-anchor="start" x="160.5" y="-40.97" font-family="Times,serif" font-size="14.00">20</text>
<polygon fill="none" stroke="#1c86ee" points="183.5,-34.17 183.5,-55.17 208.5,-55.17 208.5,-34.17 183.5,-34.17"/>
<text text-anchor="start" x="186.5" y="-40.97" font-family="Times,serif" font-size="14.00">19</text>
</g>
<!-- node19&#45;&gt;node20 -->
<g id="edge37" class="edge">
<title>node19:index&#45;&gt;node20:index</title>
<path fill="none" stroke="crimson" d="M261.5,-67.17C242.18,-67.17 234.97,-67.17 219.63,-67.17"/>
<polygon fill="crimson" stroke="crimson" points="219.5,-63.67 209.5,-67.17 219.5,-70.67 219.5,-63.67"/>
</g>
<!-- node20&#45;&gt;node19 -->
<g id="edge40" class="edge">
<title>node20:next&#45;&gt;node19:prev</title>
<path fill="none" stroke="#1c86ee" d="M209.5,-44.17C228.82,-44.17 236.03,-44.17 251.37,-44.17"/>
<polygon fill="#1c86ee" stroke="#1c86ee" points="251.5,-47.67 261.5,-44.17 251.5,-40.67 251.5,-47.67"/>
</g>
<!-- node21 -->
<g id="node22" class="node">
<title>node21</title>
<polygon fill="#ebebeb" stroke="transparent" points="9,-56.17 9,-77.17 77,-77.17 77,-56.17 9,-56.17"/>
<polygon fill="none" stroke="black" points="9,-56.17 9,-77.17 77,-77.17 77,-56.17 9,-56.17"/>
<text text-anchor="start" x="33.5" y="-62.97" font-family="Times,serif" font-size="14.00">21</text>
<polygon fill="none" stroke="crimson" points="9,-34.17 9,-55.17 25,-55.17 25,-34.17 9,-34.17"/>
<text text-anchor="start" x="12" y="-40.97" font-family="Times,serif" font-size="14.00">0</text>
<polygon fill="lightsalmon" stroke="transparent" points="26,-34.17 26,-55.17 51,-55.17 51,-34.17 26,-34.17"/>
<polygon fill="none" stroke="black" points="26,-34.17 26,-55.17 51,-55.17 51,-34.17 26,-34.17"/>
<text text-anchor="start" x="29" y="-40.97" font-family="Times,serif" font-size="14.00">21</text>
<polygon fill="none" stroke="#1c86ee" points="52,-34.17 52,-55.17 77,-55.17 77,-34.17 52,-34.17"/>
<text text-anchor="start" x="55" y="-40.97" font-family="Times,serif" font-size="14.00">20</text>
</g>
<!-- node20&#45;&gt;node21 -->
<g id="edge39" class="edge">
<title>node20:index&#45;&gt;node21:index</title>
<path fill="none" stroke="crimson" d="M130.5,-67.17C110.99,-67.17 103.72,-67.17 88.23,-67.17"/>
<polygon fill="crimson" stroke="crimson" points="88,-63.67 78,-67.17 88,-70.67 88,-63.67"/>
</g>
<!-- node21&#45;&gt;node0 -->
<g id="edge41" class="edge">
<title>node21:index&#45;&gt;node0</title>
<path fill="none" stroke="black" d="M78,-67.17C100.49,-67.17 100.59,-85.27 122,-92.17 197.52,-116.5 220.16,-111.17 299.5,-111.17 299.5,-111.17 299.5,-111.17 2285.5,-111.17 2360.86,-111.17 2380.84,-110.25 2454,-92.17 2475.26,-86.91 2498.16,-78.06 2516.12,-70.34"/>
<polygon fill="black" stroke="black" points="2517.8,-73.42 2525.55,-66.19 2514.99,-67.01 2517.8,-73.42"/>
</g>
<!-- node21&#45;&gt;node0 -->
<g id="edge44" class="edge">
<title>node21:next&#45;&gt;node0</title>
<path fill="none" stroke="black" d="M78,-44.17C100.28,-44.17 100.74,-26.81 122,-20.17 197.73,3.5 220.16,-1.17 299.5,-1.17 299.5,-1.17 299.5,-1.17 2285.5,-1.17 2360.86,-1.17 2380.67,-2.76 2454,-20.17 2474.87,-25.12 2497.43,-33.34 2515.3,-40.56"/>
<polygon fill="black" stroke="black" points="2514.13,-43.86 2524.71,-44.45 2516.8,-37.39 2514.13,-43.86"/>
</g>
<!-- node21&#45;&gt;node20 -->
<g id="edge42" class="edge">
<title>node21:next&#45;&gt;node20:prev</title>
<path fill="none" stroke="#1c86ee" d="M78,-44.17C97.51,-44.17 104.78,-44.17 120.27,-44.17"/>
<polygon fill="#1c86ee" stroke="#1c86ee" points="120.5,-47.67 130.5,-44.17 120.5,-40.67 120.5,-47.67"/>
</g>
</g>
</svg>
