<?xml version="1.0" encoding="UTF-8" standalone="no"?>
<!DOCTYPE svg PUBLIC "-//W3C//DTD SVG 1.1//EN"
 "http://www.w3.org/Graphics/SVG/1.1/DTD/svg11.dtd">
<!-- Generated by graphviz version 2.43.0 (0)
 -->
<!-- Title: list Pages: 1 -->
<svg width="543pt" height="121pt"
 viewBox="0.00 0.00 543.49 120.81" xmlns="http://www.w3.org/2000/svg" xmlns:xlink="http://www.w3.org/1999/xlink">
<g id="graph0" class="graph" transform="scale(1 1) rotate(0) translate(4 116.81)">
<title>list</title>
<polygon fill="white" stroke="transparent" points="-4,4 -4,-116.81 539.49,-116.81 539.49,4 -4,4"/>
<!-- node4 -->
<g id="node1" class="node">
<title>node4</title>
<polygon fill="#ebebeb" stroke="transparent" points="321,-56.01 321,-77.01 371,-77.01 371,-56.01 321,-56.01"/>
<polygon fill="none" stroke="black" points="321,-56.01 321,-77.01 371,-77.01 371,-56.01 321,-56.01"/>
<text text-anchor="start" x="341" y="-62.81" font-family="Times,serif" font-size="14.00">4</text>
<polygon fill="none" stroke="crimson" points="321,-34.01 321,-55.01 337,-55.01 337,-34.01 321,-34.01"/>
<text text-anchor="start" x="324" y="-40.81" font-family="Times,serif" font-size="14.00">2</text>
<polygon fill="lightsalmon" stroke="transparent" points="338,-34.01 338,-55.01 354,-55.01 354,-34.01 338,-34.01"/>
<polygon fill="none" stroke="black" points="338,-34.01 338,-55.01 354,-55.01 354,-34.01 338,-34.01"/>
<text text-anchor="start" x="341" y="-40.81" font-family="Times,serif" font-size="14.00">4</text>
<polygon fill="none" stroke="#1c86ee" points="355,-34.01 355,-55.01 371,-55.01 371,-34.01 355,-34.01"/>
<text text-anchor="start" x="358" y="-40.81" font-family="Times,serif" font-size="14.00">0</text>
</g>
<!-- node2 -->
<g id="node2" class="node">
<title>node2</title>
<polygon fill="#ebebeb" stroke="transparent" points="217,-56.01 217,-77.01 267,-77.01 267,-56.01 217,-56.01"/>
<polygon fill="none" stroke="black" points="217,-56.01 217,-77.01 267,-77.01 267,-56.01 217,-56.01"/>
<text text-anchor="start" x="237" y="-62.81" font-family="Times,serif" font-size="14.00">2</text>
<polygon fill="none" stroke="crimson" points="217,-34.01 217,-55.01 233,-55.01 233,-34.01 217,-34.01"/>
<text text-anchor="start" x="220" y="-40.81" font-family="Times,serif" font-size="14.00">1</text>
<polygon fill="lightsalmon" stroke="transparent" points="234,-34.01 234,-55.01 250,-55.01 250,-34.01 234,-34.01"/>
<polygon fill="none" stroke="black" points="234,-34.01 234,-55.01 250,-55.01 250,-34.01 234,-34.01"/>
<text text-anchor="start" x="237" y="-40.81" font-family="Times,serif" font-size="14.00">2</text>
<polygon fill="none" stroke="#1c86ee" points="251,-34.01 251,-55.01 267,-55.01 267,-34.01 251,-34.01"/>
<text text-anchor="start" x="254" y="-40.81" font-family="Times,serif" font-size="14.00">4</text>
</g>
<!-- node4&#45;&gt;node2 -->
<g id="edge1" class="edge">
<title>node4:index&#45;&gt;node2:index</title>
<path fill="none" stroke="crimson" d="M320,-67.01C300.68,-67.01 293.47,-67.01 278.13,-67.01"/>
<polygon fill="crimson" stroke="crimson" points="278,-63.51 268,-67.01 278,-70.51 278,-63.51"/>
</g>
<!-- node0 -->
<g id="node3" class="node">
<title>node0</title>
<polygon fill="none" stroke="black" points="475.75,-73.01 415.75,-55.01 475.75,-37.01 535.74,-55.01 475.75,-73.01"/>
<text text-anchor="middle" x="475.75" y="-51.31" font-family="Times,serif" font-size="14.00">Fictive</text>
</g>
<!-- node4&#45;&gt;node0 -->
<g id="edge2" class="edge">
<title>node4:next&#45;&gt;node0</title>
<path fill="none" stroke="black" d="M372,-44.01C389.53,-44.01 408.65,-45.61 425.59,-47.59"/>
<polygon fill="black" stroke="black" points="425.46,-51.1 435.82,-48.86 426.33,-44.16 425.46,-51.1"/>
</g>
<!-- node2&#45;&gt;node4 -->
<g id="edge4" class="edge">
<title>node2:next&#45;&gt;node4:prev</title>
<path fill="none" stroke="#1c86ee" d="M268,-44.01C287.32,-44.01 294.53,-44.01 309.87,-44.01"/>
<polygon fill="#1c86ee" stroke="#1c86ee" points="310,-47.51 320,-44.01 310,-40.51 310,-47.51"/>
</g>
<!-- node1 -->
<g id="node4" class="node">
<title>node1</title>
<polygon fill="#ebebeb" stroke="transparent" points="113,-56.01 113,-77.01 163,-77.01 163,-56.01 113,-56.01"/>
<polygon fill="none" stroke="black" points="113,-56.01 113,-77.01 163,-77.01 163,-56.01 113,-56.01"/>
<text text-anchor="start" x="133" y="-62.81" font-family="Times,serif" font-size="14.00">1</text>
<polygon fill="none" stroke="crimson" points="113,-34.01 113,-55.01 129,-55.01 129,-34.01 113,-34.01"/>
<text text-anchor="start" x="116" y="-40.81" font-family="Times,serif" font-size="14.00">3</text>
<polygon fill="lightsalmon" stroke="transparent" points="130,-34.01 130,-55.01 146,-55.01 146,-34.01 130,-34.01"/>
<polygon fill="none" stroke="black" points="130,-34.01 130,-55.01 146,-55.01 146,-34.01 130,-34.01"/>
<text text-anchor="start" x="133" y="-40.81" font-family="Times,serif" font-size="14.00">1</text>
<polygon fill="none" stroke="#1c86ee" points="147,-34.01 147,-55.01 163,-55.01 163,-34.01 147,-34.01"/>
<text text-anchor="start" x="150" y="-40.81" font-family="Times,serif" font-size="14.00">2</text>
</g>
<!-- node2&#45;&gt;node1 -->
<g id="edge3" class="edge">
<title>node2:index&#45;&gt;node1:index</title>
<path fill="none" stroke="crimson" d="M216,-67.01C196.68,-67.01 189.47,-67.01 174.13,-67.01"/>
<polygon fill="crimson" stroke="crimson" points="174,-63.51 164,-67.01 174,-70.51 174,-63.51"/>
</g>
<!-- node0&#45;&gt;node4 -->
<g id="edge9" class="edge">
<title>node0&#45;&gt;node4:index</title>
<path fill="none" stroke="black" d="M437.29,-61.5C420.83,-63.9 400.98,-66.19 382.07,-66.83"/>
<polygon fill="black" stroke="black" points="381.94,-63.33 372,-67.01 382.06,-70.33 381.94,-63.33"/>
</g>
<!-- node1&#45;&gt;node2 -->
<g id="edge6" class="edge">
<title>node1:next&#45;&gt;node2:prev</title>
<path fill="none" stroke="#1c86ee" d="M164,-44.01C183.32,-44.01 190.53,-44.01 205.87,-44.01"/>
<polygon fill="#1c86ee" stroke="#1c86ee" points="206,-47.51 216,-44.01 206,-40.51 206,-47.51"/>
</g>
<!-- node3 -->
<g id="node5" class="node">
<title>node3</title>
<polygon fill="#ebebeb" stroke="transparent" points="9,-56.01 9,-77.01 59,-77.01 59,-56.01 9,-56.01"/>
<polygon fill="none" stroke="black" points="9,-56.01 9,-77.01 59,-77.01 59,-56.01 9,-56.01"/>
<text text-anchor="start" x="29" y="-62.81" font-family="Times,serif" font-size="14.00">3</text>
<polygon fill="none" stroke="crimson" points="9,-34.01 9,-55.01 25,-55.01 25,-34.01 9,-34.01"/>
<text text-anchor="start" x="12" y="-40.81" font-family="Times,serif" font-size="14.00">0</text>
<polygon fill="lightsalmon" stroke="transparent" points="26,-34.01 26,-55.01 42,-55.01 42,-34.01 26,-34.01"/>
<polygon fill="none" stroke="black" points="26,-34.01 26,-55.01 42,-55.01 42,-34.01 26,-34.01"/>
<text text-anchor="start" x="29" y="-40.81" font-family="Times,serif" font-size="14.00">3</text>
<polygon fill="none" stroke="#1c86ee" points="43,-34.01 43,-55.01 59,-55.01 59,-34.01 43,-34.01"/>
<text text-anchor="start" x="46" y="-40.81" font-family="Times,serif" font-size="14.00">1</text>
</g>
<!-- node1&#45;&gt;node3 -->
<g id="edge5" class="edge">
<title>node1:index&#45;&gt;node3:index</title>
<path fill="none" stroke="crimson" d="M112,-67.01C92.68,-67.01 85.47,-67.01 70.13,-67.01"/>
<polygon fill="crimson" stroke="crimson" points="70,-63.51 60,-67.01 70,-70.51 70,-63.51"/>
</g>
<!-- node3&#45;&gt;node0 -->
<g id="edge7" class="edge">
<title>node3:index&#45;&gt;node0</title>
<path fill="none" stroke="black" d="M60,-67.01C82.49,-67.01 82.25,-86.26 104,-92.01 222.6,-123.35 259.45,-114.71 380,-92.01 401.96,-87.87 425.37,-78.78 443.42,-70.65"/>
<polygon fill="black" stroke="black" points="445.26,-73.65 452.85,-66.26 442.31,-67.3 445.26,-73.65"/>
</g>
<!-- node3&#45;&gt;node0 -->
<g id="edge10" class="edge">
<title>node3:next&#45;&gt;node0</title>
<path fill="none" stroke="black" d="M60,-44.01C82.28,-44.01 82.42,-25.51 104,-20.01 222.86,10.3 259.25,1.58 380,-20.01 401.56,-23.86 424.63,-32.28 442.6,-39.9"/>
<polygon fill="black" stroke="black" points="441.46,-43.22 452.03,-44.01 444.26,-36.81 441.46,-43.22"/>
</g>
<!-- node3&#45;&gt;node1 -->
<g id="edge8" class="edge">
<title>node3:next&#45;&gt;node1:prev</title>
<path fill="none" stroke="#1c86ee" d="M60,-44.01C79.32,-44.01 86.53,-44.01 101.87,-44.01"/>
<polygon fill="#1c86ee" stroke="#1c86ee" points="102,-47.51 112,-44.01 102,-40.51 102,-47.51"/>
</g>
</g>
</svg>
