<?xml version="1.0" encoding="UTF-8" standalone="no"?>
<!DOCTYPE svg PUBLIC "-//W3C//DTD SVG 1.1//EN"
 "http://www.w3.org/Graphics/SVG/1.1/DTD/svg11.dtd">
<!-- Generated by graphviz version 2.43.0 (0)
 -->
<!-- Title: list Pages: 1 -->
<svg width="284pt" height="139pt"
 viewBox="0.00 0.00 284.00 138.59" xmlns="http://www.w3.org/2000/svg" xmlns:xlink="http://www.w3.org/1999/xlink">
<g id="graph0" class="graph" transform="scale(1 1) rotate(0) translate(4 134.59)">
<title>list</title>
<polygon fill="white" stroke="transparent" points="-4,4 -4,-134.59 280,-134.59 280,4 -4,4"/>
<!-- node1 -->
<g id="node1" class="node">
<title>node1</title>
<polygon fill="#ebebeb" stroke="transparent" points="9,-63.57 9,-84.57 59,-84.57 59,-63.57 9,-63.57"/>
<polygon fill="none" stroke="black" points="9,-63.57 9,-84.57 59,-84.57 59,-63.57 9,-63.57"/>
<text text-anchor="start" x="29" y="-70.37" font-family="Times,serif" font-size="14.00">1</text>
<polygon fill="none" stroke="crimson" points="9,-41.57 9,-62.57 25,-62.57 25,-41.57 9,-41.57"/>
<text text-anchor="start" x="12" y="-48.37" font-family="Times,serif" font-size="14.00">2</text>
<polygon fill="lightsalmon" stroke="transparent" points="26,-41.57 26,-62.57 42,-62.57 42,-41.57 26,-41.57"/>
<polygon fill="none" stroke="black" points="26,-41.57 26,-62.57 42,-62.57 42,-41.57 26,-41.57"/>
<text text-anchor="start" x="29" y="-48.37" font-family="Times,serif" font-size="14.00">1</text>
<polygon fill="none" stroke="#1c86ee" points="43,-41.57 43,-62.57 59,-62.57 59,-41.57 43,-41.57"/>
<text text-anchor="start" x="46" y="-48.37" font-family="Times,serif" font-size="14.00">0</text>
</g>
<!-- node2 -->
<g id="node2" class="node">
<title>node2</title>
<polygon fill="#ebebeb" stroke="transparent" points="217,-63.57 217,-84.57 267,-84.57 267,-63.57 217,-63.57"/>
<polygon fill="none" stroke="black" points="217,-63.57 217,-84.57 267,-84.57 267,-63.57 217,-63.57"/>
<text text-anchor="start" x="237" y="-70.37" font-family="Times,serif" font-size="14.00">2</text>
<polygon fill="none" stroke="crimson" points="217,-41.57 217,-62.57 233,-62.57 233,-41.57 217,-41.57"/>
<text text-anchor="start" x="220" y="-48.37" font-family="Times,serif" font-size="14.00">0</text>
<polygon fill="lightsalmon" stroke="transparent" points="234,-41.57 234,-62.57 250,-62.57 250,-41.57 234,-41.57"/>
<polygon fill="none" stroke="black" points="234,-41.57 234,-62.57 250,-62.57 250,-41.57 234,-41.57"/>
<text text-anchor="start" x="237" y="-48.37" font-family="Times,serif" font-size="14.00">2</text>
<polygon fill="none" stroke="#1c86ee" points="251,-41.57 251,-62.57 267,-62.57 267,-41.57 251,-41.57"/>
<text text-anchor="start" x="254" y="-48.37" font-family="Times,serif" font-size="14.00">1</text>
</g>
<!-- node1&#45;&gt;node2 -->
<g id="edge1" class="edge">
<title>node1:index&#45;&gt;node2:index</title>
<path fill="none" stroke="crimson" d="M60,-74.57C88.61,-74.57 77.75,-110.19 104,-121.57 131.73,-133.6 144.27,-133.6 172,-121.57 194.56,-111.79 189.71,-84.11 206.06,-76.52"/>
<polygon fill="crimson" stroke="crimson" points="206.86,-79.93 216,-74.57 205.51,-73.06 206.86,-79.93"/>
</g>
<!-- node0 -->
<g id="node3" class="node">
<title>node0</title>
<polygon fill="#ebebeb" stroke="transparent" points="113,-85.57 113,-106.57 163,-106.57 163,-85.57 113,-85.57"/>
<polygon fill="none" stroke="black" points="113,-85.57 113,-106.57 163,-106.57 163,-85.57 113,-85.57"/>
<text text-anchor="start" x="133" y="-92.37" font-family="Times,serif" font-size="14.00">0</text>
<polygon fill="none" stroke="crimson" points="113,-63.57 113,-84.57 129,-84.57 129,-63.57 113,-63.57"/>
<text text-anchor="start" x="116" y="-70.37" font-family="Times,serif" font-size="14.00">1</text>
<polygon fill="lightsalmon" stroke="transparent" points="130,-63.57 130,-84.57 146,-84.57 146,-63.57 130,-63.57"/>
<polygon fill="none" stroke="black" points="130,-63.57 130,-84.57 146,-84.57 146,-63.57 130,-63.57"/>
<text text-anchor="start" x="133" y="-70.37" font-family="Times,serif" font-size="14.00">0</text>
<polygon fill="none" stroke="#1c86ee" points="147,-63.57 147,-84.57 163,-84.57 163,-63.57 147,-63.57"/>
<text text-anchor="start" x="150" y="-70.37" font-family="Times,serif" font-size="14.00">2</text>
</g>
<!-- node1&#45;&gt;node0 -->
<g id="edge6" class="edge">
<title>node1:next&#45;&gt;node0:prev</title>
<path fill="none" stroke="#1c86ee" d="M60,-51.57C81.17,-51.57 85.77,-67.23 101.76,-72.13"/>
<polygon fill="#1c86ee" stroke="#1c86ee" points="101.61,-75.64 112,-73.57 102.59,-68.71 101.61,-75.64"/>
</g>
<!-- node2&#45;&gt;node1 -->
<g id="edge2" class="edge">
<title>node2:next&#45;&gt;node1:prev</title>
<path fill="none" stroke="#1c86ee" d="M259,-40.57C259,9.74 47.19,12.98 19.89,-30.84"/>
<polygon fill="#1c86ee" stroke="#1c86ee" points="16.49,-29.99 17,-40.57 23.2,-31.98 16.49,-29.99"/>
</g>
<!-- node2&#45;&gt;node0 -->
<g id="edge3" class="edge">
<title>node2:index&#45;&gt;node0:index</title>
<path fill="none" stroke="crimson" d="M216,-74.57C194.83,-74.57 190.23,-90.23 174.24,-95.13"/>
<polygon fill="crimson" stroke="crimson" points="173.41,-91.71 164,-96.57 174.39,-98.64 173.41,-91.71"/>
</g>
<!-- node0&#45;&gt;node1 -->
<g id="edge5" class="edge">
<title>node0:index&#45;&gt;node1:index</title>
<path fill="none" stroke="crimson" d="M112,-96.57C90.83,-96.57 86.23,-80.91 70.24,-76.01"/>
<polygon fill="crimson" stroke="crimson" points="70.39,-72.5 60,-74.57 69.41,-79.43 70.39,-72.5"/>
</g>
<!-- node0&#45;&gt;node2 -->
<g id="edge4" class="edge">
<title>node0:next&#45;&gt;node2:prev</title>
<path fill="none" stroke="#1c86ee" d="M164,-73.57C185.17,-73.57 189.77,-57.91 205.76,-53.01"/>
<polygon fill="#1c86ee" stroke="#1c86ee" points="206.59,-56.43 216,-51.57 205.61,-49.5 206.59,-56.43"/>
</g>
</g>
</svg>
