<?xml version="1.0" encoding="UTF-8" standalone="no"?>
<!DOCTYPE svg PUBLIC "-//W3C//DTD SVG 1.1//EN"
 "http://www.w3.org/Graphics/SVG/1.1/DTD/svg11.dtd">
<!-- Generated by graphviz version 2.43.0 (0)
 -->
<!-- Title: list Pages: 1 -->
<svg width="594pt" height="1504pt"
 viewBox="0.00 0.00 594.00 1504.00" xmlns="http://www.w3.org/2000/svg" xmlns:xlink="http://www.w3.org/1999/xlink">
<g id="graph0" class="graph" transform="scale(1 1) rotate(0) translate(4 1500)">
<title>list</title>
<polygon fill="white" stroke="transparent" points="-4,4 -4,-1500 590,-1500 590,4 -4,4"/>
<g id="clust1" class="cluster">
<title>cluster_beb</title>
<polygon fill="none" stroke="black" points="8,-1346 8,-1488 249,-1488 249,-1346 8,-1346"/>
<text text-anchor="middle" x="128.5" y="-1472.8" font-family="Times,serif" font-size="14.00">Legend</text>
</g>
<!-- key -->
<g id="node1" class="node">
<title>key</title>
<text text-anchor="start" x="27" y="-1439.3" font-family="Times,serif" font-size="14.00">action sequence</text>
<text text-anchor="start" x="88" y="-1420.3" font-family="Times,serif" font-size="14.00">var live</text>
<text text-anchor="start" x="72" y="-1401.3" font-family="Times,serif" font-size="14.00">a good op</text>
<text text-anchor="start" x="81" y="-1382.3" font-family="Times,serif" font-size="14.00">a bad op</text>
<text text-anchor="start" x="74" y="-1363.3" font-family="Times,serif" font-size="14.00">other ops</text>
</g>
<!-- key2 -->
<g id="node2" class="node">
<title>key2</title>
<text text-anchor="start" x="212" y="-1439.3" font-family="Times,serif" font-size="14.00"> </text>
<text text-anchor="start" x="212" y="-1420.3" font-family="Times,serif" font-size="14.00"> </text>
<text text-anchor="start" x="212" y="-1401.3" font-family="Times,serif" font-size="14.00"> </text>
<text text-anchor="start" x="212" y="-1382.3" font-family="Times,serif" font-size="14.00"> </text>
<text text-anchor="start" x="212" y="-1363.3" font-family="Times,serif" font-size="14.00"> </text>
</g>
<!-- key&#45;&gt;key2 -->
<g id="edge1" class="edge">
<title>key:e&#45;&gt;key2:w</title>
<path fill="none" stroke="#278ec6" d="M145,-1443.5C169.78,-1443.5 178.37,-1443.5 198.97,-1443.5"/>
<polygon fill="#278ec6" stroke="#278ec6" points="199,-1447 209,-1443.5 199,-1440 199,-1447"/>
</g>
<!-- key&#45;&gt;key2 -->
<g id="edge2" class="edge">
<title>key:e&#45;&gt;key2:w</title>
<path fill="none" stroke="black" stroke-dasharray="5,2" d="M145,-1424.5C169.78,-1424.5 178.37,-1424.5 198.97,-1424.5"/>
<polygon fill="black" stroke="black" points="199,-1428 209,-1424.5 199,-1421 199,-1428"/>
</g>
<!-- key&#45;&gt;key2 -->
<g id="edge3" class="edge">
<title>key:e&#45;&gt;key2:w</title>
<path fill="none" stroke="#108910" d="M145,-1404.5C169.78,-1404.5 178.37,-1404.5 198.97,-1404.5"/>
<polygon fill="#108910" stroke="#108910" points="199,-1408 209,-1404.5 199,-1401 199,-1408"/>
</g>
<!-- key&#45;&gt;key2 -->
<g id="edge4" class="edge">
<title>key:e&#45;&gt;key2:w</title>
<path fill="none" stroke="#ee1c1c" d="M145,-1385.5C169.78,-1385.5 178.37,-1385.5 198.97,-1385.5"/>
<polygon fill="#ee1c1c" stroke="#ee1c1c" points="199,-1389 209,-1385.5 199,-1382 199,-1389"/>
</g>
<!-- key&#45;&gt;key2 -->
<g id="edge5" class="edge">
<title>key:e&#45;&gt;key2:w</title>
<path fill="none" stroke="#691269" d="M145,-1366.5C169.78,-1366.5 178.37,-1366.5 198.97,-1366.5"/>
<polygon fill="#691269" stroke="#691269" points="199,-1370 209,-1366.5 199,-1363 199,-1370"/>
</g>
<!-- node1 -->
<g id="node3" class="node">
<title>node1</title>
<polygon fill="none" stroke="#278ec6" points="401.65,-1423.5 296.35,-1423.5 258.85,-1387.5 439.15,-1387.5 401.65,-1423.5"/>
<text text-anchor="start" x="308" y="-1401.8" font-family="Times,serif" font-size="14.00">Start of log</text>
</g>
<!-- node2 -->
<g id="node4" class="node">
<title>node2</title>
<polygon fill="none" stroke="#44cc44" points="349,-1317 311.13,-1299 349,-1281 386.87,-1299 349,-1317"/>
<text text-anchor="start" x="336.5" y="-1295.3" font-family="Times" font-size="14.00">func</text>
</g>
<!-- node1&#45;&gt;node2 -->
<g id="edge6" class="edge">
<title>node1&#45;&gt;node2</title>
<path fill="none" stroke="#278ec6" d="M349,-1387.24C349,-1370.98 349,-1346.35 349,-1327.4"/>
<polygon fill="#278ec6" stroke="#278ec6" points="352.5,-1327.28 349,-1317.28 345.5,-1327.28 352.5,-1327.28"/>
</g>
<!-- node3 -->
<g id="node5" class="node">
<title>node3</title>
<polygon fill="#d4eacf" stroke="transparent" points="335,-1219 335,-1240 363,-1240 363,-1219 335,-1219"/>
<polygon fill="none" stroke="black" points="335,-1219 335,-1240 363,-1240 363,-1219 335,-1219"/>
<text text-anchor="start" x="345.5" y="-1225.8" font-family="Times" font-size="14.00">a</text>
<polygon fill="none" stroke="black" points="335,-1198 335,-1219 363,-1219 363,-1198 335,-1198"/>
<text text-anchor="start" x="338" y="-1204.8" font-family="Times" font-size="14.00">ctor</text>
</g>
<!-- node2&#45;&gt;node3 -->
<g id="edge7" class="edge">
<title>node2&#45;&gt;node3</title>
<path fill="none" stroke="#278ec6" d="M349,-1280.69C349,-1272.86 349,-1263.33 349,-1254.16"/>
<polygon fill="#278ec6" stroke="#278ec6" points="352.5,-1254.07 349,-1244.07 345.5,-1254.07 352.5,-1254.07"/>
</g>
<!-- node4 -->
<g id="node6" class="node">
<title>node4</title>
<polygon fill="#d4eacf" stroke="transparent" points="251,-1039 251,-1066 264,-1066 264,-1039 251,-1039"/>
<polygon fill="none" stroke="black" points="251,-1039 251,-1066 264,-1066 264,-1039 251,-1039"/>
<text text-anchor="start" x="254" y="-1048.8" font-family="Times" font-size="14.00">a</text>
<polygon fill="#d4eacf" stroke="transparent" points="264,-1039 264,-1066 277,-1066 277,-1039 264,-1039"/>
<polygon fill="none" stroke="black" points="264,-1039 264,-1066 277,-1066 277,-1039 264,-1039"/>
<text text-anchor="start" x="267" y="-1048.8" font-family="Times" font-size="14.00">1</text>
<polygon fill="#d4eacf" stroke="transparent" points="277,-1039 277,-1066 378,-1066 378,-1039 277,-1039"/>
<polygon fill="none" stroke="black" points="277,-1039 277,-1066 378,-1066 378,-1039 277,-1039"/>
<text text-anchor="start" x="283" y="-1048.8" font-family="Times" font-size="14.00">0x7ffd523874c0</text>
<polygon fill="none" stroke="black" points="251,-1018 251,-1039 378,-1039 378,-1018 251,-1018"/>
<text text-anchor="start" x="311" y="-1024.8" font-family="Times" font-size="14.00">1</text>
</g>
<!-- node3&#45;&gt;node4 -->
<g id="edge8" class="edge">
<title>node3&#45;&gt;node4</title>
<path fill="none" stroke="black" stroke-dasharray="5,2" d="M344.13,-1193.67C338.26,-1164.3 328.32,-1114.62 321.48,-1080.38"/>
<polygon fill="black" stroke="black" points="324.85,-1079.41 319.46,-1070.29 317.99,-1080.78 324.85,-1079.41"/>
</g>
<!-- node5 -->
<g id="node7" class="node">
<title>node5</title>
<polygon fill="#d4eacf" stroke="transparent" points="400,-1132 400,-1153 428,-1153 428,-1132 400,-1132"/>
<polygon fill="none" stroke="black" points="400,-1132 400,-1153 428,-1153 428,-1132 400,-1132"/>
<text text-anchor="start" x="410.5" y="-1138.8" font-family="Times" font-size="14.00">b</text>
<polygon fill="none" stroke="black" points="400,-1111 400,-1132 428,-1132 428,-1111 400,-1111"/>
<text text-anchor="start" x="403" y="-1117.8" font-family="Times" font-size="14.00">ctor</text>
</g>
<!-- node3&#45;&gt;node5 -->
<g id="edge9" class="edge">
<title>node3&#45;&gt;node5</title>
<path fill="none" stroke="#278ec6" d="M367.45,-1193.87C374.25,-1184.99 382.05,-1174.78 389.31,-1165.29"/>
<polygon fill="#278ec6" stroke="#278ec6" points="392.21,-1167.26 395.5,-1157.19 386.65,-1163.01 392.21,-1167.26"/>
</g>
<!-- node7 -->
<g id="node9" class="node">
<title>node7</title>
<polygon fill="#d4eacf" stroke="transparent" points="401,-952 401,-973 414,-973 414,-952 401,-952"/>
<polygon fill="none" stroke="black" points="401,-952 401,-973 414,-973 414,-952 401,-952"/>
<text text-anchor="start" x="404" y="-958.8" font-family="Times" font-size="14.00">a</text>
<polygon fill="#d4eacf" stroke="transparent" points="414,-952 414,-973 427,-973 427,-952 414,-952"/>
<polygon fill="none" stroke="black" points="414,-952 414,-973 427,-973 427,-952 414,-952"/>
<text text-anchor="start" x="417" y="-958.8" font-family="Times" font-size="14.00">b</text>
<polygon fill="none" stroke="black" points="401,-931 401,-952 427,-952 427,-931 401,-931"/>
<text text-anchor="start" x="409.5" y="-937.8" font-family="Times" font-size="14.00">+</text>
</g>
<!-- node4&#45;&gt;node7 -->
<g id="edge12" class="edge">
<title>node4&#45;&gt;node7</title>
<path fill="none" stroke="#691269" d="M344.82,-1013.88C355.73,-1004.28 368.08,-993.41 379.29,-983.55"/>
<polygon fill="#691269" stroke="#691269" points="381.64,-986.14 386.84,-976.9 377.02,-980.88 381.64,-986.14"/>
</g>
<!-- node17 -->
<g id="node19" class="node">
<title>node17</title>
<polygon fill="#d4eacf" stroke="transparent" points="214,-171 214,-192 242,-192 242,-171 214,-171"/>
<polygon fill="none" stroke="black" points="214,-171 214,-192 242,-192 242,-171 214,-171"/>
<text text-anchor="start" x="224.5" y="-177.8" font-family="Times" font-size="14.00">a</text>
<polygon fill="none" stroke="black" points="214,-150 214,-171 242,-171 242,-150 214,-150"/>
<text text-anchor="start" x="217" y="-156.8" font-family="Times" font-size="14.00">dtor</text>
</g>
<!-- node4&#45;&gt;node17 -->
<g id="edge28" class="edge">
<title>node4&#45;&gt;node17</title>
<path fill="none" stroke="black" stroke-dasharray="5,2" d="M256.99,-1013.87C235.43,-999.37 216,-979.07 216,-953 216,-953 216,-953 216,-257 216,-240.17 218.34,-221.64 220.95,-206.2"/>
<polygon fill="black" stroke="black" points="224.44,-206.52 222.77,-196.05 217.56,-205.28 224.44,-206.52"/>
</g>
<!-- node6 -->
<g id="node8" class="node">
<title>node6</title>
<polygon fill="#d4eacf" stroke="transparent" points="450,-1039 450,-1066 463,-1066 463,-1039 450,-1039"/>
<polygon fill="none" stroke="black" points="450,-1039 450,-1066 463,-1066 463,-1039 450,-1039"/>
<text text-anchor="start" x="453" y="-1048.8" font-family="Times" font-size="14.00">b</text>
<polygon fill="#d4eacf" stroke="transparent" points="463,-1039 463,-1066 476,-1066 476,-1039 463,-1039"/>
<polygon fill="none" stroke="black" points="463,-1039 463,-1066 476,-1066 476,-1039 463,-1039"/>
<text text-anchor="start" x="466" y="-1048.8" font-family="Times" font-size="14.00">2</text>
<polygon fill="#d4eacf" stroke="transparent" points="476,-1039 476,-1066 578,-1066 578,-1039 476,-1039"/>
<polygon fill="none" stroke="black" points="476,-1039 476,-1066 578,-1066 578,-1039 476,-1039"/>
<text text-anchor="start" x="482" y="-1048.8" font-family="Times" font-size="14.00">0x7ffd52387520</text>
<polygon fill="none" stroke="black" points="450,-1018 450,-1039 578,-1039 578,-1018 450,-1018"/>
<text text-anchor="start" x="507" y="-1024.8" font-family="Times" font-size="14.00">99</text>
</g>
<!-- node5&#45;&gt;node6 -->
<g id="edge10" class="edge">
<title>node5&#45;&gt;node6</title>
<path fill="none" stroke="black" stroke-dasharray="5,2" d="M441.06,-1107.19C451.59,-1097.92 463.85,-1087.13 475.28,-1077.08"/>
<polygon fill="black" stroke="black" points="477.83,-1079.49 483.03,-1070.26 473.21,-1074.23 477.83,-1079.49"/>
</g>
<!-- node5&#45;&gt;node7 -->
<g id="edge11" class="edge">
<title>node5&#45;&gt;node7</title>
<path fill="none" stroke="#278ec6" d="M414,-1106.99C414,-1076.21 414,-1022.6 414,-987.46"/>
<polygon fill="#278ec6" stroke="#278ec6" points="417.5,-987.19 414,-977.19 410.5,-987.19 417.5,-987.19"/>
</g>
<!-- node6&#45;&gt;node7 -->
<g id="edge13" class="edge">
<title>node6&#45;&gt;node7</title>
<path fill="none" stroke="#691269" d="M483.18,-1013.88C472.27,-1004.28 459.92,-993.41 448.71,-983.55"/>
<polygon fill="#691269" stroke="#691269" points="450.98,-980.88 441.16,-976.9 446.36,-986.14 450.98,-980.88"/>
</g>
<!-- node16 -->
<g id="node18" class="node">
<title>node16</title>
<polygon fill="#d4eacf" stroke="transparent" points="384,-258 384,-279 412,-279 412,-258 384,-258"/>
<polygon fill="none" stroke="black" points="384,-258 384,-279 412,-279 412,-258 384,-258"/>
<text text-anchor="start" x="394.5" y="-264.8" font-family="Times" font-size="14.00">b</text>
<polygon fill="none" stroke="black" points="384,-237 384,-258 412,-258 412,-237 384,-237"/>
<text text-anchor="start" x="387" y="-243.8" font-family="Times" font-size="14.00">dtor</text>
</g>
<!-- node6&#45;&gt;node16 -->
<g id="edge26" class="edge">
<title>node6&#45;&gt;node16</title>
<path fill="none" stroke="black" stroke-dasharray="5,2" d="M525.91,-1013.82C532.35,-996.71 539,-973.96 539,-953 539,-953 539,-953 539,-344 539,-295.41 476.83,-273.87 435.06,-264.88"/>
<polygon fill="black" stroke="black" points="435.68,-261.44 425.19,-262.91 434.3,-268.3 435.68,-261.44"/>
</g>
<!-- node8 -->
<g id="node10" class="node">
<title>node8</title>
<polygon fill="#eacfcf" stroke="transparent" points="393,-865 393,-886 436,-886 436,-865 393,-865"/>
<polygon fill="none" stroke="black" points="393,-865 393,-886 436,-886 436,-865 393,-865"/>
<text text-anchor="start" x="396" y="-871.8" font-family="Times" font-size="14.00">TMP1</text>
<polygon fill="none" stroke="black" points="393,-844 393,-865 436,-865 436,-844 393,-844"/>
<text text-anchor="start" x="403.5" y="-850.8" font-family="Times" font-size="14.00">ctor</text>
</g>
<!-- node7&#45;&gt;node8 -->
<g id="edge14" class="edge">
<title>node7&#45;&gt;node8</title>
<path fill="none" stroke="#278ec6" d="M414,-926.87C414,-918.61 414,-909.22 414,-900.31"/>
<polygon fill="#278ec6" stroke="#278ec6" points="417.5,-900.19 414,-890.19 410.5,-900.19 417.5,-900.19"/>
</g>
<!-- node9 -->
<g id="node11" class="node">
<title>node9</title>
<polygon fill="#eacfcf" stroke="transparent" points="252,-772 252,-799 295,-799 295,-772 252,-772"/>
<polygon fill="none" stroke="black" points="252,-772 252,-799 295,-799 295,-772 252,-772"/>
<text text-anchor="start" x="255" y="-781.8" font-family="Times" font-size="14.00">TMP1</text>
<polygon fill="#eacfcf" stroke="transparent" points="295,-772 295,-799 308,-799 308,-772 295,-772"/>
<polygon fill="none" stroke="black" points="295,-772 295,-799 308,-799 308,-772 295,-772"/>
<text text-anchor="start" x="298" y="-781.8" font-family="Times" font-size="14.00">3</text>
<polygon fill="#eacfcf" stroke="transparent" points="308,-772 308,-799 410,-799 410,-772 308,-772"/>
<polygon fill="none" stroke="black" points="308,-772 308,-799 410,-799 410,-772 308,-772"/>
<text text-anchor="start" x="314" y="-781.8" font-family="Times" font-size="14.00">0x7ffd52387360</text>
<polygon fill="none" stroke="black" points="252,-751 252,-772 410,-772 410,-751 252,-751"/>
<text text-anchor="start" x="320.5" y="-757.8" font-family="Times" font-size="14.00">100</text>
</g>
<!-- node8&#45;&gt;node9 -->
<g id="edge15" class="edge">
<title>node8&#45;&gt;node9</title>
<path fill="none" stroke="black" stroke-dasharray="5,2" d="M391.32,-839.95C382.75,-830.87 372.83,-820.35 363.53,-810.49"/>
<polygon fill="black" stroke="black" points="365.99,-807.99 356.58,-803.12 360.9,-812.8 365.99,-807.99"/>
</g>
<!-- node10 -->
<g id="node12" class="node">
<title>node10</title>
<polygon fill="#eacfcf" stroke="transparent" points="371,-671 371,-692 414,-692 414,-671 371,-671"/>
<polygon fill="none" stroke="black" points="371,-671 371,-692 414,-692 414,-671 371,-671"/>
<text text-anchor="start" x="374" y="-677.8" font-family="Times" font-size="14.00">TMP2</text>
<polygon fill="#eacfcf" stroke="transparent" points="414,-671 414,-692 457,-692 457,-671 414,-671"/>
<polygon fill="none" stroke="black" points="414,-671 414,-692 457,-692 457,-671 414,-671"/>
<text text-anchor="start" x="417" y="-677.8" font-family="Times" font-size="14.00">TMP1</text>
<polygon fill="none" stroke="black" points="371,-650 371,-671 457,-671 457,-650 371,-650"/>
<text text-anchor="start" x="386.5" y="-656.8" font-family="Times" font-size="14.00">ctor_copy</text>
</g>
<!-- node8&#45;&gt;node10 -->
<g id="edge16" class="edge">
<title>node8&#45;&gt;node10</title>
<path fill="none" stroke="#278ec6" d="M420.37,-839.85C422.99,-828.72 425.71,-815.28 427,-803 431.15,-763.66 432.08,-753.09 426,-714 425.59,-711.35 425.06,-708.63 424.46,-705.92"/>
<polygon fill="#278ec6" stroke="#278ec6" points="427.85,-705.05 422.02,-696.2 421.06,-706.75 427.85,-705.05"/>
</g>
<!-- node9&#45;&gt;node10 -->
<g id="edge17" class="edge">
<title>node9&#45;&gt;node10</title>
<path fill="none" stroke="#ee1c1c" d="M353.02,-746.93C363.78,-733.71 376.8,-717.71 388.04,-703.9"/>
<polygon fill="#ee1c1c" stroke="#ee1c1c" points="390.83,-706.02 394.42,-696.06 385.4,-701.6 390.83,-706.02"/>
<text text-anchor="start" x="378" y="-718.8" font-family="Times,serif" font-weight="bold" font-size="14.00" fill="#ee1c1c">COPY</text>
</g>
<!-- node12 -->
<g id="node14" class="node">
<title>node12</title>
<polygon fill="#eacfcf" stroke="transparent" points="268,-581 268,-602 311,-602 311,-581 268,-581"/>
<polygon fill="none" stroke="black" points="268,-581 268,-602 311,-602 311,-581 268,-581"/>
<text text-anchor="start" x="271" y="-587.8" font-family="Times" font-size="14.00">TMP1</text>
<polygon fill="none" stroke="black" points="268,-560 268,-581 311,-581 311,-560 268,-560"/>
<text text-anchor="start" x="278.5" y="-566.8" font-family="Times" font-size="14.00">dtor</text>
</g>
<!-- node9&#45;&gt;node12 -->
<g id="edge20" class="edge">
<title>node9&#45;&gt;node12</title>
<path fill="none" stroke="black" stroke-dasharray="5,2" d="M325.07,-746.9C317.57,-712.6 304.64,-653.5 296.47,-616.15"/>
<polygon fill="black" stroke="black" points="299.86,-615.26 294.3,-606.23 293.02,-616.75 299.86,-615.26"/>
</g>
<!-- node11 -->
<g id="node13" class="node">
<title>node11</title>
<polygon fill="#eacfcf" stroke="transparent" points="345,-578 345,-605 388,-605 388,-578 345,-578"/>
<polygon fill="none" stroke="black" points="345,-578 345,-605 388,-605 388,-578 345,-578"/>
<text text-anchor="start" x="348" y="-587.8" font-family="Times" font-size="14.00">TMP2</text>
<polygon fill="#eacfcf" stroke="transparent" points="388,-578 388,-605 401,-605 401,-578 388,-578"/>
<polygon fill="none" stroke="black" points="388,-578 388,-605 401,-605 401,-578 388,-578"/>
<text text-anchor="start" x="391" y="-587.8" font-family="Times" font-size="14.00">4</text>
<polygon fill="#eacfcf" stroke="transparent" points="401,-578 401,-605 503,-605 503,-578 401,-578"/>
<polygon fill="none" stroke="black" points="401,-578 401,-605 503,-605 503,-578 401,-578"/>
<text text-anchor="start" x="407" y="-587.8" font-family="Times" font-size="14.00">0x7ffd52387580</text>
<polygon fill="none" stroke="black" points="345,-557 345,-578 503,-578 503,-557 345,-557"/>
<text text-anchor="start" x="413.5" y="-563.8" font-family="Times" font-size="14.00">100</text>
</g>
<!-- node10&#45;&gt;node11 -->
<g id="edge18" class="edge">
<title>node10&#45;&gt;node11</title>
<path fill="none" stroke="black" stroke-dasharray="5,2" d="M416.73,-645.95C417.67,-637.67 418.75,-628.19 419.78,-619.11"/>
<polygon fill="black" stroke="black" points="423.27,-619.45 420.92,-609.12 416.31,-618.66 423.27,-619.45"/>
</g>
<!-- node10&#45;&gt;node12 -->
<g id="edge19" class="edge">
<title>node10&#45;&gt;node12</title>
<path fill="none" stroke="#278ec6" d="M379.84,-645.95C363.59,-634.51 344.1,-620.79 327.34,-608.99"/>
<polygon fill="#278ec6" stroke="#278ec6" points="329.05,-605.92 318.86,-603.02 325.02,-611.64 329.05,-605.92"/>
</g>
<!-- node15 -->
<g id="node17" class="node">
<title>node15</title>
<polygon fill="#eacfcf" stroke="transparent" points="377,-345 377,-366 420,-366 420,-345 377,-345"/>
<polygon fill="none" stroke="black" points="377,-345 377,-366 420,-366 420,-345 377,-345"/>
<text text-anchor="start" x="380" y="-351.8" font-family="Times" font-size="14.00">TMP2</text>
<polygon fill="none" stroke="black" points="377,-324 377,-345 420,-345 420,-324 377,-324"/>
<text text-anchor="start" x="387.5" y="-330.8" font-family="Times" font-size="14.00">dtor</text>
</g>
<!-- node11&#45;&gt;node15 -->
<g id="edge24" class="edge">
<title>node11&#45;&gt;node15</title>
<path fill="none" stroke="black" stroke-dasharray="5,2" d="M421.05,-552.73C417.34,-518.64 410.78,-458.5 405,-407 404.02,-398.24 402.94,-388.78 401.93,-379.99"/>
<polygon fill="black" stroke="black" points="405.41,-379.58 400.79,-370.04 398.45,-380.38 405.41,-379.58"/>
</g>
<!-- node13 -->
<g id="node15" class="node">
<title>node13</title>
<polygon fill="none" stroke="#44cc44" points="320,-516 243.92,-498 320,-480 396.08,-498 320,-516"/>
<text text-anchor="start" x="286.5" y="-494.3" font-family="Times" font-size="14.00">recieve_tmp</text>
</g>
<!-- node12&#45;&gt;node13 -->
<g id="edge21" class="edge">
<title>node12&#45;&gt;node13</title>
<path fill="none" stroke="#278ec6" d="M298.3,-555.7C302.1,-545.77 306.49,-534.29 310.33,-524.27"/>
<polygon fill="#278ec6" stroke="#278ec6" points="313.63,-525.43 313.94,-514.84 307.09,-522.93 313.63,-525.43"/>
</g>
<!-- node14 -->
<g id="node16" class="node">
<title>node14</title>
<polygon fill="none" stroke="#3333ee" points="320,-443 243.92,-425 320,-407 396.08,-425 320,-443"/>
<text text-anchor="start" x="286.5" y="-421.3" font-family="Times" font-size="14.00">recieve_tmp</text>
</g>
<!-- node13&#45;&gt;node14 -->
<g id="edge22" class="edge">
<title>node13&#45;&gt;node14</title>
<path fill="none" stroke="#278ec6" d="M320,-479.81C320,-471.79 320,-462.05 320,-453.07"/>
<polygon fill="#278ec6" stroke="#278ec6" points="323.5,-453.03 320,-443.03 316.5,-453.03 323.5,-453.03"/>
</g>
<!-- node14&#45;&gt;node15 -->
<g id="edge23" class="edge">
<title>node14&#45;&gt;node15</title>
<path fill="none" stroke="#278ec6" d="M333.94,-410.06C343,-401 355.19,-388.81 366.5,-377.5"/>
<polygon fill="#278ec6" stroke="#278ec6" points="369.17,-379.78 373.76,-370.24 364.22,-374.83 369.17,-379.78"/>
</g>
<!-- node15&#45;&gt;node16 -->
<g id="edge25" class="edge">
<title>node15&#45;&gt;node16</title>
<path fill="none" stroke="#278ec6" d="M398,-319.87C398,-311.61 398,-302.22 398,-293.31"/>
<polygon fill="#278ec6" stroke="#278ec6" points="401.5,-293.19 398,-283.19 394.5,-293.19 401.5,-293.19"/>
</g>
<!-- node16&#45;&gt;node17 -->
<g id="edge27" class="edge">
<title>node16&#45;&gt;node17</title>
<path fill="none" stroke="#278ec6" d="M370.69,-243.34C341.81,-228.91 296.12,-206.06 264.25,-190.13"/>
<polygon fill="#278ec6" stroke="#278ec6" points="265.76,-186.96 255.25,-185.62 262.62,-193.23 265.76,-186.96"/>
</g>
<!-- node18 -->
<g id="node20" class="node">
<title>node18</title>
<polygon fill="none" stroke="#3333ee" points="228,-109 190.13,-91 228,-73 265.87,-91 228,-109"/>
<text text-anchor="start" x="215.5" y="-87.3" font-family="Times" font-size="14.00">func</text>
</g>
<!-- node17&#45;&gt;node18 -->
<g id="edge29" class="edge">
<title>node17&#45;&gt;node18</title>
<path fill="none" stroke="#278ec6" d="M228,-145.75C228,-137.45 228,-128.1 228,-119.56"/>
<polygon fill="#278ec6" stroke="#278ec6" points="231.5,-119.3 228,-109.3 224.5,-119.3 231.5,-119.3"/>
</g>
<!-- node19 -->
<g id="node21" class="node">
<title>node19</title>
<polygon fill="none" stroke="#278ec6" points="180.34,0 275.66,0 309.61,-36 146.39,-36 180.34,0"/>
<text text-anchor="start" x="191.5" y="-14.3" font-family="Times,serif" font-size="14.00">End of log</text>
</g>
<!-- node18&#45;&gt;node19 -->
<g id="edge30" class="edge">
<title>node18&#45;&gt;node19</title>
<path fill="none" stroke="#278ec6" d="M228,-72.81C228,-64.79 228,-55.05 228,-46.07"/>
<polygon fill="#278ec6" stroke="#278ec6" points="231.5,-46.03 228,-36.03 224.5,-46.03 231.5,-46.03"/>
</g>
</g>
</svg>
