<?xml version="1.0" encoding="UTF-8" standalone="no"?>
<!DOCTYPE svg PUBLIC "-//W3C//DTD SVG 1.1//EN"
 "http://www.w3.org/Graphics/SVG/1.1/DTD/svg11.dtd">
<!-- Generated by graphviz version 2.43.0 (0)
 -->
<!-- Title: list Pages: 1 -->
<svg width="592pt" height="1504pt"
 viewBox="0.00 0.00 592.00 1504.00" xmlns="http://www.w3.org/2000/svg" xmlns:xlink="http://www.w3.org/1999/xlink">
<g id="graph0" class="graph" transform="scale(1 1) rotate(0) translate(4 1500)">
<title>list</title>
<polygon fill="white" stroke="transparent" points="-4,4 -4,-1500 588,-1500 588,4 -4,4"/>
<g id="clust1" class="cluster">
<title>cluster_beb</title>
<polygon fill="none" stroke="black" points="8,-1346 8,-1488 249,-1488 249,-1346 8,-1346"/>
<text text-anchor="middle" x="128.5" y="-1472.8" font-family="Times,serif" font-size="14.00">Legend</text>
</g>
<!-- key -->
<g id="node1" class="node">
<title>key</title>
<text text-anchor="start" x="27" y="-1439.3" font-family="Times,serif" font-size="14.00">action sequence</text>
<text text-anchor="start" x="88" y="-1420.3" font-family="Times,serif" font-size="14.00">var live</text>
<text text-anchor="start" x="72" y="-1401.3" font-family="Times,serif" font-size="14.00">a good op</text>
<text text-anchor="start" x="81" y="-1382.3" font-family="Times,serif" font-size="14.00">a bad op</text>
<text text-anchor="start" x="74" y="-1363.3" font-family="Times,serif" font-size="14.00">other ops</text>
</g>
<!-- key2 -->
<g id="node2" class="node">
<title>key2</title>
<text text-anchor="start" x="212" y="-1439.3" font-family="Times,serif" font-size="14.00"> </text>
<text text-anchor="start" x="212" y="-1420.3" font-family="Times,serif" font-size="14.00"> </text>
<text text-anchor="start" x="212" y="-1401.3" font-family="Times,serif" font-size="14.00"> </text>
<text text-anchor="start" x="212" y="-1382.3" font-family="Times,serif" font-size="14.00"> </text>
<text text-anchor="start" x="212" y="-1363.3" font-family="Times,serif" font-size="14.00"> </text>
</g>
<!-- key&#45;&gt;key2 -->
<g id="edge1" class="edge">
<title>key:e&#45;&gt;key2:w</title>
<path fill="none" stroke="#278ec6" d="M145,-1443.5C169.78,-1443.5 178.37,-1443.5 198.97,-1443.5"/>
<polygon fill="#278ec6" stroke="#278ec6" points="199,-1447 209,-1443.5 199,-1440 199,-1447"/>
</g>
<!-- key&#45;&gt;key2 -->
<g id="edge2" class="edge">
<title>key:e&#45;&gt;key2:w</title>
<path fill="none" stroke="black" stroke-dasharray="5,2" d="M145,-1424.5C169.78,-1424.5 178.37,-1424.5 198.97,-1424.5"/>
<polygon fill="black" stroke="black" points="199,-1428 209,-1424.5 199,-1421 199,-1428"/>
</g>
<!-- key&#45;&gt;key2 -->
<g id="edge3" class="edge">
<title>key:e&#45;&gt;key2:w</title>
<path fill="none" stroke="#108910" d="M145,-1404.5C169.78,-1404.5 178.37,-1404.5 198.97,-1404.5"/>
<polygon fill="#108910" stroke="#108910" points="199,-1408 209,-1404.5 199,-1401 199,-1408"/>
</g>
<!-- key&#45;&gt;key2 -->
<g id="edge4" class="edge">
<title>key:e&#45;&gt;key2:w</title>
<path fill="none" stroke="#ee1c1c" d="M145,-1385.5C169.78,-1385.5 178.37,-1385.5 198.97,-1385.5"/>
<polygon fill="#ee1c1c" stroke="#ee1c1c" points="199,-1389 209,-1385.5 199,-1382 199,-1389"/>
</g>
<!-- key&#45;&gt;key2 -->
<g id="edge5" class="edge">
<title>key:e&#45;&gt;key2:w</title>
<path fill="none" stroke="#691269" d="M145,-1366.5C169.78,-1366.5 178.37,-1366.5 198.97,-1366.5"/>
<polygon fill="#691269" stroke="#691269" points="199,-1370 209,-1366.5 199,-1363 199,-1370"/>
</g>
<!-- node1 -->
<g id="node3" class="node">
<title>node1</title>
<polygon fill="none" stroke="#278ec6" points="401.65,-1423.5 296.35,-1423.5 258.85,-1387.5 439.15,-1387.5 401.65,-1423.5"/>
<text text-anchor="start" x="308" y="-1401.8" font-family="Times,serif" font-size="14.00">Start of log</text>
</g>
<!-- node2 -->
<g id="node4" class="node">
<title>node2</title>
<polygon fill="none" stroke="#44cc44" points="349,-1317 311.13,-1299 349,-1281 386.87,-1299 349,-1317"/>
<text text-anchor="start" x="336.5" y="-1295.3" font-family="Times" font-size="14.00">func</text>
</g>
<!-- node1&#45;&gt;node2 -->
<g id="edge6" class="edge">
<title>node1&#45;&gt;node2</title>
<path fill="none" stroke="#278ec6" d="M349,-1387.24C349,-1370.98 349,-1346.35 349,-1327.4"/>
<polygon fill="#278ec6" stroke="#278ec6" points="352.5,-1327.28 349,-1317.28 345.5,-1327.28 352.5,-1327.28"/>
</g>
<!-- node3 -->
<g id="node5" class="node">
<title>node3</title>
<polygon fill="#d4eacf" stroke="transparent" points="335,-1219 335,-1240 363,-1240 363,-1219 335,-1219"/>
<polygon fill="none" stroke="black" points="335,-1219 335,-1240 363,-1240 363,-1219 335,-1219"/>
<text text-anchor="start" x="345.5" y="-1225.8" font-family="Times" font-size="14.00">a</text>
<polygon fill="none" stroke="black" points="335,-1198 335,-1219 363,-1219 363,-1198 335,-1198"/>
<text text-anchor="start" x="338" y="-1204.8" font-family="Times" font-size="14.00">ctor</text>
</g>
<!-- node2&#45;&gt;node3 -->
<g id="edge7" class="edge">
<title>node2&#45;&gt;node3</title>
<path fill="none" stroke="#278ec6" d="M349,-1280.69C349,-1272.86 349,-1263.33 349,-1254.16"/>
<polygon fill="#278ec6" stroke="#278ec6" points="352.5,-1254.07 349,-1244.07 345.5,-1254.07 352.5,-1254.07"/>
</g>
<!-- node4 -->
<g id="node6" class="node">
<title>node4</title>
<polygon fill="#d4eacf" stroke="transparent" points="252,-1039 252,-1066 265,-1066 265,-1039 252,-1039"/>
<polygon fill="none" stroke="black" points="252,-1039 252,-1066 265,-1066 265,-1039 252,-1039"/>
<text text-anchor="start" x="255" y="-1048.8" font-family="Times" font-size="14.00">a</text>
<polygon fill="#d4eacf" stroke="transparent" points="265,-1039 265,-1066 278,-1066 278,-1039 265,-1039"/>
<polygon fill="none" stroke="black" points="265,-1039 265,-1066 278,-1066 278,-1039 265,-1039"/>
<text text-anchor="start" x="268" y="-1048.8" font-family="Times" font-size="14.00">1</text>
<polygon fill="#d4eacf" stroke="transparent" points="278,-1039 278,-1066 378,-1066 378,-1039 278,-1039"/>
<polygon fill="none" stroke="black" points="278,-1039 278,-1066 378,-1066 378,-1039 278,-1039"/>
<text text-anchor="start" x="284" y="-1048.8" font-family="Times" font-size="14.00">0x7ffc0a86e800</text>
<polygon fill="none" stroke="black" points="252,-1018 252,-1039 378,-1039 378,-1018 252,-1018"/>
<text text-anchor="start" x="311.5" y="-1024.8" font-family="Times" font-size="14.00">1</text>
</g>
<!-- node3&#45;&gt;node4 -->
<g id="edge8" class="edge">
<title>node3&#45;&gt;node4</title>
<path fill="none" stroke="black" stroke-dasharray="5,2" d="M344.27,-1193.67C338.57,-1164.3 328.91,-1114.62 322.26,-1080.38"/>
<polygon fill="black" stroke="black" points="325.65,-1079.44 320.3,-1070.29 318.77,-1080.77 325.65,-1079.44"/>
</g>
<!-- node5 -->
<g id="node7" class="node">
<title>node5</title>
<polygon fill="#d4eacf" stroke="transparent" points="400,-1132 400,-1153 428,-1153 428,-1132 400,-1132"/>
<polygon fill="none" stroke="black" points="400,-1132 400,-1153 428,-1153 428,-1132 400,-1132"/>
<text text-anchor="start" x="410.5" y="-1138.8" font-family="Times" font-size="14.00">b</text>
<polygon fill="none" stroke="black" points="400,-1111 400,-1132 428,-1132 428,-1111 400,-1111"/>
<text text-anchor="start" x="403" y="-1117.8" font-family="Times" font-size="14.00">ctor</text>
</g>
<!-- node3&#45;&gt;node5 -->
<g id="edge9" class="edge">
<title>node3&#45;&gt;node5</title>
<path fill="none" stroke="#278ec6" d="M367.45,-1193.87C374.25,-1184.99 382.05,-1174.78 389.31,-1165.29"/>
<polygon fill="#278ec6" stroke="#278ec6" points="392.21,-1167.26 395.5,-1157.19 386.65,-1163.01 392.21,-1167.26"/>
</g>
<!-- node7 -->
<g id="node9" class="node">
<title>node7</title>
<polygon fill="#d4eacf" stroke="transparent" points="401,-952 401,-973 414,-973 414,-952 401,-952"/>
<polygon fill="none" stroke="black" points="401,-952 401,-973 414,-973 414,-952 401,-952"/>
<text text-anchor="start" x="404" y="-958.8" font-family="Times" font-size="14.00">a</text>
<polygon fill="#d4eacf" stroke="transparent" points="414,-952 414,-973 427,-973 427,-952 414,-952"/>
<polygon fill="none" stroke="black" points="414,-952 414,-973 427,-973 427,-952 414,-952"/>
<text text-anchor="start" x="417" y="-958.8" font-family="Times" font-size="14.00">b</text>
<polygon fill="none" stroke="black" points="401,-931 401,-952 427,-952 427,-931 401,-931"/>
<text text-anchor="start" x="409.5" y="-937.8" font-family="Times" font-size="14.00">+</text>
</g>
<!-- node4&#45;&gt;node7 -->
<g id="edge12" class="edge">
<title>node4&#45;&gt;node7</title>
<path fill="none" stroke="#691269" d="M345.51,-1013.88C356.12,-1004.45 368.09,-993.8 379.03,-984.08"/>
<polygon fill="#691269" stroke="#691269" points="381.63,-986.46 386.78,-977.2 376.98,-981.22 381.63,-986.46"/>
</g>
<!-- node17 -->
<g id="node19" class="node">
<title>node17</title>
<polygon fill="#d4eacf" stroke="transparent" points="213,-171 213,-192 241,-192 241,-171 213,-171"/>
<polygon fill="none" stroke="black" points="213,-171 213,-192 241,-192 241,-171 213,-171"/>
<text text-anchor="start" x="223.5" y="-177.8" font-family="Times" font-size="14.00">a</text>
<polygon fill="none" stroke="black" points="213,-150 213,-171 241,-171 241,-150 213,-150"/>
<text text-anchor="start" x="216" y="-156.8" font-family="Times" font-size="14.00">dtor</text>
</g>
<!-- node4&#45;&gt;node17 -->
<g id="edge28" class="edge">
<title>node4&#45;&gt;node17</title>
<path fill="none" stroke="black" stroke-dasharray="5,2" d="M256.54,-1013.95C234.66,-999.52 215,-979.25 215,-953 215,-953 215,-953 215,-257 215,-240.17 217.34,-221.64 219.95,-206.2"/>
<polygon fill="black" stroke="black" points="223.44,-206.52 221.77,-196.05 216.56,-205.28 223.44,-206.52"/>
</g>
<!-- node6 -->
<g id="node8" class="node">
<title>node6</title>
<polygon fill="#d4eacf" stroke="transparent" points="450,-1039 450,-1066 463,-1066 463,-1039 450,-1039"/>
<polygon fill="none" stroke="black" points="450,-1039 450,-1066 463,-1066 463,-1039 450,-1039"/>
<text text-anchor="start" x="453" y="-1048.8" font-family="Times" font-size="14.00">b</text>
<polygon fill="#d4eacf" stroke="transparent" points="463,-1039 463,-1066 476,-1066 476,-1039 463,-1039"/>
<polygon fill="none" stroke="black" points="463,-1039 463,-1066 476,-1066 476,-1039 463,-1039"/>
<text text-anchor="start" x="466" y="-1048.8" font-family="Times" font-size="14.00">2</text>
<polygon fill="#d4eacf" stroke="transparent" points="476,-1039 476,-1066 576,-1066 576,-1039 476,-1039"/>
<polygon fill="none" stroke="black" points="476,-1039 476,-1066 576,-1066 576,-1039 476,-1039"/>
<text text-anchor="start" x="482" y="-1048.8" font-family="Times" font-size="14.00">0x7ffc0a86e860</text>
<polygon fill="none" stroke="black" points="450,-1018 450,-1039 576,-1039 576,-1018 450,-1018"/>
<text text-anchor="start" x="506" y="-1024.8" font-family="Times" font-size="14.00">99</text>
</g>
<!-- node5&#45;&gt;node6 -->
<g id="edge10" class="edge">
<title>node5&#45;&gt;node6</title>
<path fill="none" stroke="black" stroke-dasharray="5,2" d="M441.05,-1106.95C451.47,-1097.69 463.57,-1086.93 474.85,-1076.91"/>
<polygon fill="black" stroke="black" points="477.34,-1079.38 482.49,-1070.12 472.69,-1074.15 477.34,-1079.38"/>
</g>
<!-- node5&#45;&gt;node7 -->
<g id="edge11" class="edge">
<title>node5&#45;&gt;node7</title>
<path fill="none" stroke="#278ec6" d="M414,-1106.99C414,-1076.21 414,-1022.6 414,-987.46"/>
<polygon fill="#278ec6" stroke="#278ec6" points="417.5,-987.19 414,-977.19 410.5,-987.19 417.5,-987.19"/>
</g>
<!-- node6&#45;&gt;node7 -->
<g id="edge13" class="edge">
<title>node6&#45;&gt;node7</title>
<path fill="none" stroke="#691269" d="M482.49,-1013.88C471.88,-1004.45 459.91,-993.8 448.97,-984.08"/>
<polygon fill="#691269" stroke="#691269" points="451.02,-981.22 441.22,-977.2 446.37,-986.46 451.02,-981.22"/>
</g>
<!-- node16 -->
<g id="node18" class="node">
<title>node16</title>
<polygon fill="#d4eacf" stroke="transparent" points="383,-258 383,-279 411,-279 411,-258 383,-258"/>
<polygon fill="none" stroke="black" points="383,-258 383,-279 411,-279 411,-258 383,-258"/>
<text text-anchor="start" x="393.5" y="-264.8" font-family="Times" font-size="14.00">b</text>
<polygon fill="none" stroke="black" points="383,-237 383,-258 411,-258 411,-237 383,-237"/>
<text text-anchor="start" x="386" y="-243.8" font-family="Times" font-size="14.00">dtor</text>
</g>
<!-- node6&#45;&gt;node16 -->
<g id="edge26" class="edge">
<title>node6&#45;&gt;node16</title>
<path fill="none" stroke="black" stroke-dasharray="5,2" d="M524.44,-1013.77C530.62,-996.65 537,-973.9 537,-953 537,-953 537,-953 537,-344 537,-295.8 475.61,-274.16 434.13,-265.04"/>
<polygon fill="black" stroke="black" points="434.82,-261.61 424.33,-263.04 433.42,-268.47 434.82,-261.61"/>
</g>
<!-- node8 -->
<g id="node10" class="node">
<title>node8</title>
<polygon fill="#eacfcf" stroke="transparent" points="393,-865 393,-886 436,-886 436,-865 393,-865"/>
<polygon fill="none" stroke="black" points="393,-865 393,-886 436,-886 436,-865 393,-865"/>
<text text-anchor="start" x="396" y="-871.8" font-family="Times" font-size="14.00">TMP1</text>
<polygon fill="none" stroke="black" points="393,-844 393,-865 436,-865 436,-844 393,-844"/>
<text text-anchor="start" x="403.5" y="-850.8" font-family="Times" font-size="14.00">ctor</text>
</g>
<!-- node7&#45;&gt;node8 -->
<g id="edge14" class="edge">
<title>node7&#45;&gt;node8</title>
<path fill="none" stroke="#278ec6" d="M414,-926.87C414,-918.61 414,-909.22 414,-900.31"/>
<polygon fill="#278ec6" stroke="#278ec6" points="417.5,-900.19 414,-890.19 410.5,-900.19 417.5,-900.19"/>
</g>
<!-- node9 -->
<g id="node11" class="node">
<title>node9</title>
<polygon fill="#eacfcf" stroke="transparent" points="252,-772 252,-799 295,-799 295,-772 252,-772"/>
<polygon fill="none" stroke="black" points="252,-772 252,-799 295,-799 295,-772 252,-772"/>
<text text-anchor="start" x="255" y="-781.8" font-family="Times" font-size="14.00">TMP1</text>
<polygon fill="#eacfcf" stroke="transparent" points="295,-772 295,-799 308,-799 308,-772 295,-772"/>
<polygon fill="none" stroke="black" points="295,-772 295,-799 308,-799 308,-772 295,-772"/>
<text text-anchor="start" x="298" y="-781.8" font-family="Times" font-size="14.00">3</text>
<polygon fill="#eacfcf" stroke="transparent" points="308,-772 308,-799 407,-799 407,-772 308,-772"/>
<polygon fill="none" stroke="black" points="308,-772 308,-799 407,-799 407,-772 308,-772"/>
<text text-anchor="start" x="314" y="-781.8" font-family="Times" font-size="14.00">0x7ffc0a86e6a0</text>
<polygon fill="none" stroke="black" points="252,-751 252,-772 407,-772 407,-751 252,-751"/>
<text text-anchor="start" x="319" y="-757.8" font-family="Times" font-size="14.00">100</text>
</g>
<!-- node8&#45;&gt;node9 -->
<g id="edge15" class="edge">
<title>node8&#45;&gt;node9</title>
<path fill="none" stroke="black" stroke-dasharray="5,2" d="M390.77,-839.95C382,-830.87 371.83,-820.35 362.32,-810.49"/>
<polygon fill="black" stroke="black" points="364.66,-807.88 355.2,-803.12 359.63,-812.75 364.66,-807.88"/>
</g>
<!-- node10 -->
<g id="node12" class="node">
<title>node10</title>
<polygon fill="#eacfcf" stroke="transparent" points="369,-671 369,-692 412,-692 412,-671 369,-671"/>
<polygon fill="none" stroke="black" points="369,-671 369,-692 412,-692 412,-671 369,-671"/>
<text text-anchor="start" x="372" y="-677.8" font-family="Times" font-size="14.00">TMP2</text>
<polygon fill="#eacfcf" stroke="transparent" points="412,-671 412,-692 455,-692 455,-671 412,-671"/>
<polygon fill="none" stroke="black" points="412,-671 412,-692 455,-692 455,-671 412,-671"/>
<text text-anchor="start" x="415" y="-677.8" font-family="Times" font-size="14.00">TMP1</text>
<polygon fill="none" stroke="black" points="369,-650 369,-671 455,-671 455,-650 369,-650"/>
<text text-anchor="start" x="382.5" y="-656.8" font-family="Times" font-size="14.00">ctor_move</text>
</g>
<!-- node8&#45;&gt;node10 -->
<g id="edge16" class="edge">
<title>node8&#45;&gt;node10</title>
<path fill="none" stroke="#278ec6" d="M419.46,-839.96C425.4,-810.21 433.16,-758.1 426,-714 425.56,-711.32 424.98,-708.58 424.3,-705.84"/>
<polygon fill="#278ec6" stroke="#278ec6" points="427.63,-704.74 421.5,-696.1 420.9,-706.67 427.63,-704.74"/>
</g>
<!-- node9&#45;&gt;node10 -->
<g id="edge17" class="edge">
<title>node9&#45;&gt;node10</title>
<path fill="none" stroke="#108910" d="M351.02,-746.93C361.78,-733.71 374.8,-717.71 386.04,-703.9"/>
<polygon fill="#108910" stroke="#108910" points="388.83,-706.02 392.42,-696.06 383.4,-701.6 388.83,-706.02"/>
<text text-anchor="start" x="376" y="-717.8" font-family="Times,serif" font-size="14.00" fill="#108910">MOVE</text>
</g>
<!-- node12 -->
<g id="node14" class="node">
<title>node12</title>
<polygon fill="#eacfcf" stroke="transparent" points="269,-581 269,-602 312,-602 312,-581 269,-581"/>
<polygon fill="none" stroke="black" points="269,-581 269,-602 312,-602 312,-581 269,-581"/>
<text text-anchor="start" x="272" y="-587.8" font-family="Times" font-size="14.00">TMP1</text>
<polygon fill="none" stroke="black" points="269,-560 269,-581 312,-581 312,-560 269,-560"/>
<text text-anchor="start" x="279.5" y="-566.8" font-family="Times" font-size="14.00">dtor</text>
</g>
<!-- node9&#45;&gt;node12 -->
<g id="edge20" class="edge">
<title>node9&#45;&gt;node12</title>
<path fill="none" stroke="black" stroke-dasharray="5,2" d="M323.49,-746.9C316.53,-712.6 304.52,-653.5 296.94,-616.15"/>
<polygon fill="black" stroke="black" points="300.34,-615.34 294.92,-606.23 293.48,-616.73 300.34,-615.34"/>
</g>
<!-- node11 -->
<g id="node13" class="node">
<title>node11</title>
<polygon fill="#eacfcf" stroke="transparent" points="346,-578 346,-605 389,-605 389,-578 346,-578"/>
<polygon fill="none" stroke="black" points="346,-578 346,-605 389,-605 389,-578 346,-578"/>
<text text-anchor="start" x="349" y="-587.8" font-family="Times" font-size="14.00">TMP2</text>
<polygon fill="#eacfcf" stroke="transparent" points="389,-578 389,-605 402,-605 402,-578 389,-578"/>
<polygon fill="none" stroke="black" points="389,-578 389,-605 402,-605 402,-578 389,-578"/>
<text text-anchor="start" x="392" y="-587.8" font-family="Times" font-size="14.00">4</text>
<polygon fill="#eacfcf" stroke="transparent" points="402,-578 402,-605 501,-605 501,-578 402,-578"/>
<polygon fill="none" stroke="black" points="402,-578 402,-605 501,-605 501,-578 402,-578"/>
<text text-anchor="start" x="408" y="-587.8" font-family="Times" font-size="14.00">0x7ffc0a86e8c0</text>
<polygon fill="none" stroke="black" points="346,-557 346,-578 501,-578 501,-557 346,-557"/>
<text text-anchor="start" x="413" y="-563.8" font-family="Times" font-size="14.00">100</text>
</g>
<!-- node10&#45;&gt;node11 -->
<g id="edge18" class="edge">
<title>node10&#45;&gt;node11</title>
<path fill="none" stroke="black" stroke-dasharray="5,2" d="M415.01,-645.95C416.04,-637.67 417.23,-628.19 418.36,-619.11"/>
<polygon fill="black" stroke="black" points="421.84,-619.48 419.61,-609.12 414.9,-618.61 421.84,-619.48"/>
</g>
<!-- node10&#45;&gt;node12 -->
<g id="edge19" class="edge">
<title>node10&#45;&gt;node12</title>
<path fill="none" stroke="#278ec6" d="M378.66,-645.95C362.92,-634.6 344.06,-621 327.79,-609.26"/>
<polygon fill="#278ec6" stroke="#278ec6" points="329.71,-606.33 319.55,-603.32 325.62,-612.01 329.71,-606.33"/>
</g>
<!-- node15 -->
<g id="node17" class="node">
<title>node15</title>
<polygon fill="#eacfcf" stroke="transparent" points="376,-345 376,-366 419,-366 419,-345 376,-345"/>
<polygon fill="none" stroke="black" points="376,-345 376,-366 419,-366 419,-345 376,-345"/>
<text text-anchor="start" x="379" y="-351.8" font-family="Times" font-size="14.00">TMP2</text>
<polygon fill="none" stroke="black" points="376,-324 376,-345 419,-345 419,-324 376,-324"/>
<text text-anchor="start" x="386.5" y="-330.8" font-family="Times" font-size="14.00">dtor</text>
</g>
<!-- node11&#45;&gt;node15 -->
<g id="edge24" class="edge">
<title>node11&#45;&gt;node15</title>
<path fill="none" stroke="black" stroke-dasharray="5,2" d="M420.05,-552.73C416.34,-518.64 409.78,-458.5 404,-407 403.02,-398.24 401.94,-388.78 400.93,-379.99"/>
<polygon fill="black" stroke="black" points="404.41,-379.58 399.79,-370.04 397.45,-380.38 404.41,-379.58"/>
</g>
<!-- node13 -->
<g id="node15" class="node">
<title>node13</title>
<polygon fill="none" stroke="#44cc44" points="319,-516 242.92,-498 319,-480 395.08,-498 319,-516"/>
<text text-anchor="start" x="285.5" y="-494.3" font-family="Times" font-size="14.00">recieve_tmp</text>
</g>
<!-- node12&#45;&gt;node13 -->
<g id="edge21" class="edge">
<title>node12&#45;&gt;node13</title>
<path fill="none" stroke="#278ec6" d="M298.7,-555.7C302.25,-545.77 306.36,-534.29 309.95,-524.27"/>
<polygon fill="#278ec6" stroke="#278ec6" points="313.25,-525.44 313.33,-514.84 306.66,-523.08 313.25,-525.44"/>
</g>
<!-- node14 -->
<g id="node16" class="node">
<title>node14</title>
<polygon fill="none" stroke="#3333ee" points="319,-443 242.92,-425 319,-407 395.08,-425 319,-443"/>
<text text-anchor="start" x="285.5" y="-421.3" font-family="Times" font-size="14.00">recieve_tmp</text>
</g>
<!-- node13&#45;&gt;node14 -->
<g id="edge22" class="edge">
<title>node13&#45;&gt;node14</title>
<path fill="none" stroke="#278ec6" d="M319,-479.81C319,-471.79 319,-462.05 319,-453.07"/>
<polygon fill="#278ec6" stroke="#278ec6" points="322.5,-453.03 319,-443.03 315.5,-453.03 322.5,-453.03"/>
</g>
<!-- node14&#45;&gt;node15 -->
<g id="edge23" class="edge">
<title>node14&#45;&gt;node15</title>
<path fill="none" stroke="#278ec6" d="M332.94,-410.06C342,-401 354.19,-388.81 365.5,-377.5"/>
<polygon fill="#278ec6" stroke="#278ec6" points="368.17,-379.78 372.76,-370.24 363.22,-374.83 368.17,-379.78"/>
</g>
<!-- node15&#45;&gt;node16 -->
<g id="edge25" class="edge">
<title>node15&#45;&gt;node16</title>
<path fill="none" stroke="#278ec6" d="M397,-319.87C397,-311.61 397,-302.22 397,-293.31"/>
<polygon fill="#278ec6" stroke="#278ec6" points="400.5,-293.19 397,-283.19 393.5,-293.19 400.5,-293.19"/>
</g>
<!-- node16&#45;&gt;node17 -->
<g id="edge27" class="edge">
<title>node16&#45;&gt;node17</title>
<path fill="none" stroke="#278ec6" d="M369.69,-243.34C340.81,-228.91 295.12,-206.06 263.25,-190.13"/>
<polygon fill="#278ec6" stroke="#278ec6" points="264.76,-186.96 254.25,-185.62 261.62,-193.23 264.76,-186.96"/>
</g>
<!-- node18 -->
<g id="node20" class="node">
<title>node18</title>
<polygon fill="none" stroke="#3333ee" points="227,-109 189.13,-91 227,-73 264.87,-91 227,-109"/>
<text text-anchor="start" x="214.5" y="-87.3" font-family="Times" font-size="14.00">func</text>
</g>
<!-- node17&#45;&gt;node18 -->
<g id="edge29" class="edge">
<title>node17&#45;&gt;node18</title>
<path fill="none" stroke="#278ec6" d="M227,-145.75C227,-137.45 227,-128.1 227,-119.56"/>
<polygon fill="#278ec6" stroke="#278ec6" points="230.5,-119.3 227,-109.3 223.5,-119.3 230.5,-119.3"/>
</g>
<!-- node19 -->
<g id="node21" class="node">
<title>node19</title>
<polygon fill="none" stroke="#278ec6" points="179.34,0 274.66,0 308.61,-36 145.39,-36 179.34,0"/>
<text text-anchor="start" x="190.5" y="-14.3" font-family="Times,serif" font-size="14.00">End of log</text>
</g>
<!-- node18&#45;&gt;node19 -->
<g id="edge30" class="edge">
<title>node18&#45;&gt;node19</title>
<path fill="none" stroke="#278ec6" d="M227,-72.81C227,-64.79 227,-55.05 227,-46.07"/>
<polygon fill="#278ec6" stroke="#278ec6" points="230.5,-46.03 227,-36.03 223.5,-46.03 230.5,-46.03"/>
</g>
</g>
</svg>
