<?xml version="1.0" encoding="UTF-8" standalone="no"?>
<!DOCTYPE svg PUBLIC "-//W3C//DTD SVG 1.1//EN"
 "http://www.w3.org/Graphics/SVG/1.1/DTD/svg11.dtd">
<!-- Generated by graphviz version 2.43.0 (0)
 -->
<!-- Title: list Pages: 1 -->
<svg width="594pt" height="1224pt"
 viewBox="0.00 0.00 594.00 1224.00" xmlns="http://www.w3.org/2000/svg" xmlns:xlink="http://www.w3.org/1999/xlink">
<g id="graph0" class="graph" transform="scale(1 1) rotate(0) translate(4 1220)">
<title>list</title>
<polygon fill="white" stroke="transparent" points="-4,4 -4,-1220 590,-1220 590,4 -4,4"/>
<g id="clust1" class="cluster">
<title>cluster_beb</title>
<polygon fill="none" stroke="black" points="8,-1066 8,-1208 232,-1208 232,-1066 8,-1066"/>
<text text-anchor="middle" x="120" y="-1192.8" font-family="Times,serif" font-size="14.00">Legend</text>
</g>
<!-- key -->
<g id="node1" class="node">
<title>key</title>
<text text-anchor="start" x="27" y="-1159.3" font-family="Times,serif" font-size="14.00">action sequence</text>
<text text-anchor="start" x="88" y="-1140.3" font-family="Times,serif" font-size="14.00">var live</text>
<text text-anchor="start" x="72" y="-1121.3" font-family="Times,serif" font-size="14.00">a good op</text>
<text text-anchor="start" x="81" y="-1102.3" font-family="Times,serif" font-size="14.00">a bad op</text>
<text text-anchor="start" x="74" y="-1083.3" font-family="Times,serif" font-size="14.00">other ops</text>
</g>
<!-- key2 -->
<g id="node2" class="node">
<title>key2</title>
<text text-anchor="start" x="195" y="-1159.3" font-family="Times,serif" font-size="14.00"> </text>
<text text-anchor="start" x="195" y="-1140.3" font-family="Times,serif" font-size="14.00"> </text>
<text text-anchor="start" x="195" y="-1121.3" font-family="Times,serif" font-size="14.00"> </text>
<text text-anchor="start" x="195" y="-1102.3" font-family="Times,serif" font-size="14.00"> </text>
<text text-anchor="start" x="195" y="-1083.3" font-family="Times,serif" font-size="14.00"> </text>
</g>
<!-- key&#45;&gt;key2 -->
<g id="edge1" class="edge">
<title>key:e&#45;&gt;key2:w</title>
<path fill="none" stroke="#278ec6" d="M145,-1163.5C161.97,-1163.5 168.6,-1163.5 181.7,-1163.5"/>
<polygon fill="#278ec6" stroke="#278ec6" points="182,-1167 192,-1163.5 182,-1160 182,-1167"/>
</g>
<!-- key&#45;&gt;key2 -->
<g id="edge2" class="edge">
<title>key:e&#45;&gt;key2:w</title>
<path fill="none" stroke="black" stroke-dasharray="5,2" d="M145,-1144.5C161.97,-1144.5 168.6,-1144.5 181.7,-1144.5"/>
<polygon fill="black" stroke="black" points="182,-1148 192,-1144.5 182,-1141 182,-1148"/>
</g>
<!-- key&#45;&gt;key2 -->
<g id="edge3" class="edge">
<title>key:e&#45;&gt;key2:w</title>
<path fill="none" stroke="#108910" d="M145,-1124.5C161.97,-1124.5 168.6,-1124.5 181.7,-1124.5"/>
<polygon fill="#108910" stroke="#108910" points="182,-1128 192,-1124.5 182,-1121 182,-1128"/>
</g>
<!-- key&#45;&gt;key2 -->
<g id="edge4" class="edge">
<title>key:e&#45;&gt;key2:w</title>
<path fill="none" stroke="#ee1c1c" d="M145,-1105.5C161.97,-1105.5 168.6,-1105.5 181.7,-1105.5"/>
<polygon fill="#ee1c1c" stroke="#ee1c1c" points="182,-1109 192,-1105.5 182,-1102 182,-1109"/>
</g>
<!-- key&#45;&gt;key2 -->
<g id="edge5" class="edge">
<title>key:e&#45;&gt;key2:w</title>
<path fill="none" stroke="#691269" d="M145,-1086.5C161.97,-1086.5 168.6,-1086.5 181.7,-1086.5"/>
<polygon fill="#691269" stroke="#691269" points="182,-1090 192,-1086.5 182,-1083 182,-1090"/>
</g>
<!-- node1 -->
<g id="node3" class="node">
<title>node1</title>
<polygon fill="none" stroke="#278ec6" points="384.65,-1143.5 279.35,-1143.5 241.85,-1107.5 422.15,-1107.5 384.65,-1143.5"/>
<text text-anchor="start" x="291" y="-1121.8" font-family="Times,serif" font-size="14.00">Start of log</text>
</g>
<!-- node2 -->
<g id="node4" class="node">
<title>node2</title>
<polygon fill="none" stroke="#44cc44" points="332,-1038 294.13,-1020 332,-1002 369.87,-1020 332,-1038"/>
<text text-anchor="start" x="319.5" y="-1016.3" font-family="Times" font-size="14.00">func</text>
</g>
<!-- node1&#45;&gt;node2 -->
<g id="edge6" class="edge">
<title>node1&#45;&gt;node2</title>
<path fill="none" stroke="#278ec6" d="M332,-1107.41C332,-1091.3 332,-1066.91 332,-1048.14"/>
<polygon fill="#278ec6" stroke="#278ec6" points="335.5,-1048.12 332,-1038.12 328.5,-1048.12 335.5,-1048.12"/>
</g>
<!-- node3 -->
<g id="node5" class="node">
<title>node3</title>
<polygon fill="#d4eacf" stroke="transparent" points="318,-941 318,-962 346,-962 346,-941 318,-941"/>
<polygon fill="none" stroke="black" points="318,-941 318,-962 346,-962 346,-941 318,-941"/>
<text text-anchor="start" x="328.5" y="-947.8" font-family="Times" font-size="14.00">a</text>
<polygon fill="none" stroke="black" points="318,-920 318,-941 346,-941 346,-920 318,-920"/>
<text text-anchor="start" x="321" y="-926.8" font-family="Times" font-size="14.00">ctor</text>
</g>
<!-- node2&#45;&gt;node3 -->
<g id="edge7" class="edge">
<title>node2&#45;&gt;node3</title>
<path fill="none" stroke="#278ec6" d="M332,-1001.91C332,-994.33 332,-985.13 332,-976.23"/>
<polygon fill="#278ec6" stroke="#278ec6" points="335.5,-976.05 332,-966.05 328.5,-976.05 335.5,-976.05"/>
</g>
<!-- node4 -->
<g id="node6" class="node">
<title>node4</title>
<polygon fill="#d4eacf" stroke="transparent" points="221,-763 221,-790 234,-790 234,-763 221,-763"/>
<polygon fill="none" stroke="black" points="221,-763 221,-790 234,-790 234,-763 221,-763"/>
<text text-anchor="start" x="224" y="-772.8" font-family="Times" font-size="14.00">a</text>
<polygon fill="#d4eacf" stroke="transparent" points="234,-763 234,-790 247,-790 247,-763 234,-763"/>
<polygon fill="none" stroke="black" points="234,-763 234,-790 247,-790 247,-763 234,-763"/>
<text text-anchor="start" x="237" y="-772.8" font-family="Times" font-size="14.00">1</text>
<polygon fill="#d4eacf" stroke="transparent" points="247,-763 247,-790 346,-790 346,-763 247,-763"/>
<polygon fill="none" stroke="black" points="247,-763 247,-790 346,-790 346,-763 247,-763"/>
<text text-anchor="start" x="253" y="-772.8" font-family="Times" font-size="14.00">0x7fff696000c0</text>
<polygon fill="none" stroke="black" points="221,-742 221,-763 346,-763 346,-742 221,-742"/>
<text text-anchor="start" x="280" y="-748.8" font-family="Times" font-size="14.00">1</text>
</g>
<!-- node3&#45;&gt;node4 -->
<g id="edge8" class="edge">
<title>node3&#45;&gt;node4</title>
<path fill="none" stroke="black" stroke-dasharray="5,2" d="M325.19,-915.95C316.99,-887 303.13,-838.08 293.55,-804.25"/>
<polygon fill="black" stroke="black" points="296.82,-802.94 290.72,-794.27 290.08,-804.84 296.82,-802.94"/>
</g>
<!-- node5 -->
<g id="node7" class="node">
<title>node5</title>
<polygon fill="#d4eacf" stroke="transparent" points="368,-855 368,-876 396,-876 396,-855 368,-855"/>
<polygon fill="none" stroke="black" points="368,-855 368,-876 396,-876 396,-855 368,-855"/>
<text text-anchor="start" x="378.5" y="-861.8" font-family="Times" font-size="14.00">b</text>
<polygon fill="none" stroke="black" points="368,-834 368,-855 396,-855 396,-834 368,-834"/>
<text text-anchor="start" x="371" y="-840.8" font-family="Times" font-size="14.00">ctor</text>
</g>
<!-- node3&#45;&gt;node5 -->
<g id="edge9" class="edge">
<title>node3&#45;&gt;node5</title>
<path fill="none" stroke="#278ec6" d="M346.46,-915.7C351.44,-907.35 357.09,-897.84 362.41,-888.91"/>
<polygon fill="#278ec6" stroke="#278ec6" points="365.46,-890.62 367.57,-880.24 359.45,-887.04 365.46,-890.62"/>
</g>
<!-- node7 -->
<g id="node9" class="node">
<title>node7</title>
<polygon fill="#d4eacf" stroke="transparent" points="369,-677 369,-698 382,-698 382,-677 369,-677"/>
<polygon fill="none" stroke="black" points="369,-677 369,-698 382,-698 382,-677 369,-677"/>
<text text-anchor="start" x="372" y="-683.8" font-family="Times" font-size="14.00">a</text>
<polygon fill="#d4eacf" stroke="transparent" points="382,-677 382,-698 395,-698 395,-677 382,-677"/>
<polygon fill="none" stroke="black" points="382,-677 382,-698 395,-698 395,-677 382,-677"/>
<text text-anchor="start" x="385" y="-683.8" font-family="Times" font-size="14.00">b</text>
<polygon fill="none" stroke="black" points="369,-656 369,-677 395,-677 395,-656 369,-656"/>
<text text-anchor="start" x="377.5" y="-662.8" font-family="Times" font-size="14.00">+</text>
</g>
<!-- node4&#45;&gt;node7 -->
<g id="edge12" class="edge">
<title>node4&#45;&gt;node7</title>
<path fill="none" stroke="#691269" d="M313.78,-737.95C324.38,-728.64 336.32,-718.15 347.21,-708.57"/>
<polygon fill="#691269" stroke="#691269" points="349.72,-711.02 354.92,-701.79 345.1,-705.77 349.72,-711.02"/>
</g>
<!-- node14 -->
<g id="node16" class="node">
<title>node14</title>
<polygon fill="#d4eacf" stroke="transparent" points="226,-169 226,-190 254,-190 254,-169 226,-169"/>
<polygon fill="none" stroke="black" points="226,-169 226,-190 254,-190 254,-169 226,-169"/>
<text text-anchor="start" x="236.5" y="-175.8" font-family="Times" font-size="14.00">a</text>
<polygon fill="none" stroke="black" points="226,-148 226,-169 254,-169 254,-148 226,-148"/>
<text text-anchor="start" x="229" y="-154.8" font-family="Times" font-size="14.00">dtor</text>
</g>
<!-- node4&#45;&gt;node14 -->
<g id="edge23" class="edge">
<title>node4&#45;&gt;node14</title>
<path fill="none" stroke="black" stroke-dasharray="5,2" d="M256.79,-737.85C228.67,-705.74 188,-649.39 188,-592 188,-592 188,-592 188,-340 188,-290.84 208.13,-237.05 223.34,-203.41"/>
<polygon fill="black" stroke="black" points="226.64,-204.61 227.68,-194.07 220.29,-201.66 226.64,-204.61"/>
</g>
<!-- node6 -->
<g id="node8" class="node">
<title>node6</title>
<polygon fill="#d4eacf" stroke="transparent" points="418,-763 418,-790 431,-790 431,-763 418,-763"/>
<polygon fill="none" stroke="black" points="418,-763 418,-790 431,-790 431,-763 418,-763"/>
<text text-anchor="start" x="421" y="-772.8" font-family="Times" font-size="14.00">b</text>
<polygon fill="#d4eacf" stroke="transparent" points="431,-763 431,-790 444,-790 444,-763 431,-763"/>
<polygon fill="none" stroke="black" points="431,-763 431,-790 444,-790 444,-763 431,-763"/>
<text text-anchor="start" x="434" y="-772.8" font-family="Times" font-size="14.00">2</text>
<polygon fill="#d4eacf" stroke="transparent" points="444,-763 444,-790 544,-790 544,-763 444,-763"/>
<polygon fill="none" stroke="black" points="444,-763 444,-790 544,-790 544,-763 444,-763"/>
<text text-anchor="start" x="450" y="-772.8" font-family="Times" font-size="14.00">0x7fff69600120</text>
<polygon fill="none" stroke="black" points="418,-742 418,-763 544,-763 544,-742 418,-742"/>
<text text-anchor="start" x="474" y="-748.8" font-family="Times" font-size="14.00">99</text>
</g>
<!-- node5&#45;&gt;node6 -->
<g id="edge10" class="edge">
<title>node5&#45;&gt;node6</title>
<path fill="none" stroke="black" stroke-dasharray="5,2" d="M409.05,-830.23C419.38,-821.15 431.36,-810.62 442.55,-800.79"/>
<polygon fill="black" stroke="black" points="444.93,-803.36 450.13,-794.12 440.31,-798.1 444.93,-803.36"/>
</g>
<!-- node5&#45;&gt;node7 -->
<g id="edge11" class="edge">
<title>node5&#45;&gt;node7</title>
<path fill="none" stroke="#278ec6" d="M382,-829.9C382,-799.44 382,-746.82 382,-712.21"/>
<polygon fill="#278ec6" stroke="#278ec6" points="385.5,-712.09 382,-702.09 378.5,-712.09 385.5,-712.09"/>
</g>
<!-- node6&#45;&gt;node7 -->
<g id="edge13" class="edge">
<title>node6&#45;&gt;node7</title>
<path fill="none" stroke="#691269" d="M450.22,-737.95C439.62,-728.64 427.68,-718.15 416.79,-708.57"/>
<polygon fill="#691269" stroke="#691269" points="418.9,-705.77 409.08,-701.79 414.28,-711.02 418.9,-705.77"/>
</g>
<!-- node13 -->
<g id="node15" class="node">
<title>node13</title>
<polygon fill="#d4eacf" stroke="transparent" points="368,-255 368,-276 396,-276 396,-255 368,-255"/>
<polygon fill="none" stroke="black" points="368,-255 368,-276 396,-276 396,-255 368,-255"/>
<text text-anchor="start" x="378.5" y="-261.8" font-family="Times" font-size="14.00">b</text>
<polygon fill="none" stroke="black" points="368,-234 368,-255 396,-255 396,-234 368,-234"/>
<text text-anchor="start" x="371" y="-240.8" font-family="Times" font-size="14.00">dtor</text>
</g>
<!-- node6&#45;&gt;node13 -->
<g id="edge21" class="edge">
<title>node6&#45;&gt;node13</title>
<path fill="none" stroke="black" stroke-dasharray="5,2" d="M510.53,-737.8C541.58,-706.08 586,-650.5 586,-592 586,-592 586,-592 586,-419 586,-334.36 477.5,-286.48 418.75,-266.76"/>
<polygon fill="black" stroke="black" points="419.68,-263.38 409.09,-263.62 417.52,-270.04 419.68,-263.38"/>
</g>
<!-- node8 -->
<g id="node10" class="node">
<title>node8</title>
<polygon fill="#eacfcf" stroke="transparent" points="361,-591 361,-612 404,-612 404,-591 361,-591"/>
<polygon fill="none" stroke="black" points="361,-591 361,-612 404,-612 404,-591 361,-591"/>
<text text-anchor="start" x="364" y="-597.8" font-family="Times" font-size="14.00">TMP1</text>
<polygon fill="none" stroke="black" points="361,-570 361,-591 404,-591 404,-570 361,-570"/>
<text text-anchor="start" x="371.5" y="-576.8" font-family="Times" font-size="14.00">ctor</text>
</g>
<!-- node7&#45;&gt;node8 -->
<g id="edge14" class="edge">
<title>node7&#45;&gt;node8</title>
<path fill="none" stroke="#278ec6" d="M382,-651.7C382,-643.78 382,-634.83 382,-626.31"/>
<polygon fill="#278ec6" stroke="#278ec6" points="385.5,-626.24 382,-616.24 378.5,-626.24 385.5,-626.24"/>
</g>
<!-- node9 -->
<g id="node11" class="node">
<title>node9</title>
<polygon fill="#eacfcf" stroke="transparent" points="394,-499 394,-526 437,-526 437,-499 394,-499"/>
<polygon fill="none" stroke="black" points="394,-499 394,-526 437,-526 437,-499 394,-499"/>
<text text-anchor="start" x="397" y="-508.8" font-family="Times" font-size="14.00">TMP1</text>
<polygon fill="#eacfcf" stroke="transparent" points="437,-499 437,-526 450,-526 450,-499 437,-499"/>
<polygon fill="none" stroke="black" points="437,-499 437,-526 450,-526 450,-499 437,-499"/>
<text text-anchor="start" x="440" y="-508.8" font-family="Times" font-size="14.00">3</text>
<polygon fill="#eacfcf" stroke="transparent" points="450,-499 450,-526 550,-526 550,-499 450,-499"/>
<polygon fill="none" stroke="black" points="450,-499 450,-526 550,-526 550,-499 450,-499"/>
<text text-anchor="start" x="456" y="-508.8" font-family="Times" font-size="14.00">0x7fff69600180</text>
<polygon fill="none" stroke="black" points="394,-478 394,-499 550,-499 550,-478 394,-478"/>
<text text-anchor="start" x="461.5" y="-484.8" font-family="Times" font-size="14.00">100</text>
</g>
<!-- node8&#45;&gt;node9 -->
<g id="edge15" class="edge">
<title>node8&#45;&gt;node9</title>
<path fill="none" stroke="black" stroke-dasharray="5,2" d="M407.07,-565.77C416.19,-556.95 426.67,-546.81 436.52,-537.29"/>
<polygon fill="black" stroke="black" points="439.14,-539.63 443.9,-530.17 434.27,-534.6 439.14,-539.63"/>
</g>
<!-- node10 -->
<g id="node12" class="node">
<title>node10</title>
<polygon fill="none" stroke="#44cc44" points="292,-520 215.92,-502 292,-484 368.08,-502 292,-520"/>
<text text-anchor="start" x="258.5" y="-498.3" font-family="Times" font-size="14.00">recieve_tmp</text>
</g>
<!-- node8&#45;&gt;node10 -->
<g id="edge16" class="edge">
<title>node8&#45;&gt;node10</title>
<path fill="none" stroke="#278ec6" d="M356.93,-565.77C343.28,-552.57 326.56,-536.41 313.5,-523.79"/>
<polygon fill="#278ec6" stroke="#278ec6" points="315.92,-521.25 306.29,-516.82 311.05,-526.28 315.92,-521.25"/>
</g>
<!-- node12 -->
<g id="node14" class="node">
<title>node12</title>
<polygon fill="#eacfcf" stroke="transparent" points="361,-341 361,-362 404,-362 404,-341 361,-341"/>
<polygon fill="none" stroke="black" points="361,-341 361,-362 404,-362 404,-341 361,-341"/>
<text text-anchor="start" x="364" y="-347.8" font-family="Times" font-size="14.00">TMP1</text>
<polygon fill="none" stroke="black" points="361,-320 361,-341 404,-341 404,-320 361,-320"/>
<text text-anchor="start" x="371.5" y="-326.8" font-family="Times" font-size="14.00">dtor</text>
</g>
<!-- node9&#45;&gt;node12 -->
<g id="edge19" class="edge">
<title>node9&#45;&gt;node12</title>
<path fill="none" stroke="black" stroke-dasharray="5,2" d="M456.53,-473.67C441.06,-446.35 417.27,-404.31 400.74,-375.11"/>
<polygon fill="black" stroke="black" points="403.62,-373.1 395.65,-366.12 397.53,-376.54 403.62,-373.1"/>
</g>
<!-- node11 -->
<g id="node13" class="node">
<title>node11</title>
<polygon fill="none" stroke="#3333ee" points="311,-438 234.92,-420 311,-402 387.08,-420 311,-438"/>
<text text-anchor="start" x="277.5" y="-416.3" font-family="Times" font-size="14.00">recieve_tmp</text>
</g>
<!-- node10&#45;&gt;node11 -->
<g id="edge17" class="edge">
<title>node10&#45;&gt;node11</title>
<path fill="none" stroke="#278ec6" d="M295.84,-484.81C298.42,-473.97 301.87,-459.45 304.82,-447.01"/>
<polygon fill="#278ec6" stroke="#278ec6" points="308.26,-447.7 307.16,-437.17 301.44,-446.09 308.26,-447.7"/>
</g>
<!-- node11&#45;&gt;node12 -->
<g id="edge18" class="edge">
<title>node11&#45;&gt;node12</title>
<path fill="none" stroke="#278ec6" d="M324.02,-404.88C332.15,-396.06 342.96,-384.34 353.04,-373.41"/>
<polygon fill="#278ec6" stroke="#278ec6" points="355.65,-375.74 359.85,-366.02 350.5,-371 355.65,-375.74"/>
</g>
<!-- node12&#45;&gt;node13 -->
<g id="edge20" class="edge">
<title>node12&#45;&gt;node13</title>
<path fill="none" stroke="#278ec6" d="M382,-315.7C382,-307.78 382,-298.83 382,-290.31"/>
<polygon fill="#278ec6" stroke="#278ec6" points="385.5,-290.24 382,-280.24 378.5,-290.24 385.5,-290.24"/>
</g>
<!-- node13&#45;&gt;node14 -->
<g id="edge22" class="edge">
<title>node13&#45;&gt;node14</title>
<path fill="none" stroke="#278ec6" d="M354.96,-238C332.6,-224.78 300.65,-205.88 276.1,-191.36"/>
<polygon fill="#278ec6" stroke="#278ec6" points="277.82,-188.3 267.43,-186.22 274.25,-194.33 277.82,-188.3"/>
</g>
<!-- node15 -->
<g id="node17" class="node">
<title>node15</title>
<polygon fill="none" stroke="#3333ee" points="240,-108 202.13,-90 240,-72 277.87,-90 240,-108"/>
<text text-anchor="start" x="227.5" y="-86.3" font-family="Times" font-size="14.00">func</text>
</g>
<!-- node14&#45;&gt;node15 -->
<g id="edge24" class="edge">
<title>node14&#45;&gt;node15</title>
<path fill="none" stroke="#278ec6" d="M240,-143.64C240,-135.67 240,-126.77 240,-118.58"/>
<polygon fill="#278ec6" stroke="#278ec6" points="243.5,-118.38 240,-108.38 236.5,-118.38 243.5,-118.38"/>
</g>
<!-- node16 -->
<g id="node18" class="node">
<title>node16</title>
<polygon fill="none" stroke="#278ec6" points="192.34,0 287.66,0 321.61,-36 158.39,-36 192.34,0"/>
<text text-anchor="start" x="203.5" y="-14.3" font-family="Times,serif" font-size="14.00">End of log</text>
</g>
<!-- node15&#45;&gt;node16 -->
<g id="edge25" class="edge">
<title>node15&#45;&gt;node16</title>
<path fill="none" stroke="#278ec6" d="M240,-71.7C240,-63.98 240,-54.71 240,-46.11"/>
<polygon fill="#278ec6" stroke="#278ec6" points="243.5,-46.1 240,-36.1 236.5,-46.1 243.5,-46.1"/>
</g>
</g>
</svg>
