<?xml version="1.0" encoding="UTF-8" standalone="no"?>
<!DOCTYPE svg PUBLIC "-//W3C//DTD SVG 1.1//EN"
 "http://www.w3.org/Graphics/SVG/1.1/DTD/svg11.dtd">
<!-- Generated by graphviz version 2.43.0 (0)
 -->
<!-- Title: list Pages: 1 -->
<svg width="783pt" height="1552pt"
 viewBox="0.00 0.00 783.00 1552.00" xmlns="http://www.w3.org/2000/svg" xmlns:xlink="http://www.w3.org/1999/xlink">
<g id="graph0" class="graph" transform="scale(1 1) rotate(0) translate(4 1548)">
<title>list</title>
<polygon fill="white" stroke="transparent" points="-4,4 -4,-1548 779,-1548 779,4 -4,4"/>
<g id="clust1" class="cluster">
<title>cluster_beb</title>
<polygon fill="none" stroke="black" points="8,-1394 8,-1536 249,-1536 249,-1394 8,-1394"/>
<text text-anchor="middle" x="128.5" y="-1520.8" font-family="Times,serif" font-size="14.00">Legend</text>
</g>
<!-- key -->
<g id="node1" class="node">
<title>key</title>
<text text-anchor="start" x="27" y="-1487.3" font-family="Times,serif" font-size="14.00">action sequence</text>
<text text-anchor="start" x="88" y="-1468.3" font-family="Times,serif" font-size="14.00">var live</text>
<text text-anchor="start" x="72" y="-1449.3" font-family="Times,serif" font-size="14.00">a good op</text>
<text text-anchor="start" x="81" y="-1430.3" font-family="Times,serif" font-size="14.00">a bad op</text>
<text text-anchor="start" x="74" y="-1411.3" font-family="Times,serif" font-size="14.00">other ops</text>
</g>
<!-- key2 -->
<g id="node2" class="node">
<title>key2</title>
<text text-anchor="start" x="212" y="-1487.3" font-family="Times,serif" font-size="14.00"> </text>
<text text-anchor="start" x="212" y="-1468.3" font-family="Times,serif" font-size="14.00"> </text>
<text text-anchor="start" x="212" y="-1449.3" font-family="Times,serif" font-size="14.00"> </text>
<text text-anchor="start" x="212" y="-1430.3" font-family="Times,serif" font-size="14.00"> </text>
<text text-anchor="start" x="212" y="-1411.3" font-family="Times,serif" font-size="14.00"> </text>
</g>
<!-- key&#45;&gt;key2 -->
<g id="edge1" class="edge">
<title>key:e&#45;&gt;key2:w</title>
<path fill="none" stroke="#278ec6" d="M145,-1491.5C169.78,-1491.5 178.37,-1491.5 198.97,-1491.5"/>
<polygon fill="#278ec6" stroke="#278ec6" points="199,-1495 209,-1491.5 199,-1488 199,-1495"/>
</g>
<!-- key&#45;&gt;key2 -->
<g id="edge2" class="edge">
<title>key:e&#45;&gt;key2:w</title>
<path fill="none" stroke="black" stroke-dasharray="5,2" d="M145,-1472.5C169.78,-1472.5 178.37,-1472.5 198.97,-1472.5"/>
<polygon fill="black" stroke="black" points="199,-1476 209,-1472.5 199,-1469 199,-1476"/>
</g>
<!-- key&#45;&gt;key2 -->
<g id="edge3" class="edge">
<title>key:e&#45;&gt;key2:w</title>
<path fill="none" stroke="#108910" d="M145,-1452.5C169.78,-1452.5 178.37,-1452.5 198.97,-1452.5"/>
<polygon fill="#108910" stroke="#108910" points="199,-1456 209,-1452.5 199,-1449 199,-1456"/>
</g>
<!-- key&#45;&gt;key2 -->
<g id="edge4" class="edge">
<title>key:e&#45;&gt;key2:w</title>
<path fill="none" stroke="#ee1c1c" d="M145,-1433.5C169.78,-1433.5 178.37,-1433.5 198.97,-1433.5"/>
<polygon fill="#ee1c1c" stroke="#ee1c1c" points="199,-1437 209,-1433.5 199,-1430 199,-1437"/>
</g>
<!-- key&#45;&gt;key2 -->
<g id="edge5" class="edge">
<title>key:e&#45;&gt;key2:w</title>
<path fill="none" stroke="#691269" d="M145,-1414.5C169.78,-1414.5 178.37,-1414.5 198.97,-1414.5"/>
<polygon fill="#691269" stroke="#691269" points="199,-1418 209,-1414.5 199,-1411 199,-1418"/>
</g>
<!-- node1 -->
<g id="node3" class="node">
<title>node1</title>
<polygon fill="none" stroke="#278ec6" points="401.65,-1471.5 296.35,-1471.5 258.85,-1435.5 439.15,-1435.5 401.65,-1471.5"/>
<text text-anchor="start" x="308" y="-1449.8" font-family="Times,serif" font-size="14.00">Start of log</text>
</g>
<!-- node2 -->
<g id="node4" class="node">
<title>node2</title>
<polygon fill="none" stroke="#44cc44" points="349,-1365 311.13,-1347 349,-1329 386.87,-1347 349,-1365"/>
<text text-anchor="start" x="336.5" y="-1343.3" font-family="Times" font-size="14.00">func</text>
</g>
<!-- node1&#45;&gt;node2 -->
<g id="edge6" class="edge">
<title>node1&#45;&gt;node2</title>
<path fill="none" stroke="#278ec6" d="M349,-1435.24C349,-1418.98 349,-1394.35 349,-1375.4"/>
<polygon fill="#278ec6" stroke="#278ec6" points="352.5,-1375.28 349,-1365.28 345.5,-1375.28 352.5,-1375.28"/>
</g>
<!-- node3 -->
<g id="node5" class="node">
<title>node3</title>
<polygon fill="#d4eacf" stroke="transparent" points="335,-1267 335,-1288 363,-1288 363,-1267 335,-1267"/>
<polygon fill="none" stroke="black" points="335,-1267 335,-1288 363,-1288 363,-1267 335,-1267"/>
<text text-anchor="start" x="345.5" y="-1273.8" font-family="Times" font-size="14.00">a</text>
<polygon fill="none" stroke="black" points="335,-1246 335,-1267 363,-1267 363,-1246 335,-1246"/>
<text text-anchor="start" x="338" y="-1252.8" font-family="Times" font-size="14.00">ctor</text>
</g>
<!-- node2&#45;&gt;node3 -->
<g id="edge7" class="edge">
<title>node2&#45;&gt;node3</title>
<path fill="none" stroke="#278ec6" d="M349,-1328.69C349,-1320.86 349,-1311.33 349,-1302.16"/>
<polygon fill="#278ec6" stroke="#278ec6" points="352.5,-1302.07 349,-1292.07 345.5,-1302.07 352.5,-1302.07"/>
</g>
<!-- node4 -->
<g id="node6" class="node">
<title>node4</title>
<polygon fill="#d4eacf" stroke="transparent" points="429,-345 429,-372 442,-372 442,-345 429,-345"/>
<polygon fill="none" stroke="black" points="429,-345 429,-372 442,-372 442,-345 429,-345"/>
<text text-anchor="start" x="432" y="-354.8" font-family="Times" font-size="14.00">a</text>
<polygon fill="#d4eacf" stroke="transparent" points="442,-345 442,-372 455,-372 455,-345 442,-345"/>
<polygon fill="none" stroke="black" points="442,-345 442,-372 455,-372 455,-345 442,-345"/>
<text text-anchor="start" x="445" y="-354.8" font-family="Times" font-size="14.00">1</text>
<polygon fill="#d4eacf" stroke="transparent" points="455,-345 455,-372 555,-372 555,-345 455,-345"/>
<polygon fill="none" stroke="black" points="455,-345 455,-372 555,-372 555,-345 455,-345"/>
<text text-anchor="start" x="461" y="-354.8" font-family="Times" font-size="14.00">0x7fff75db02d0</text>
<polygon fill="none" stroke="black" points="429,-324 429,-345 555,-345 555,-324 429,-324"/>
<text text-anchor="start" x="488.5" y="-330.8" font-family="Times" font-size="14.00">1</text>
</g>
<!-- node3&#45;&gt;node4 -->
<g id="edge8" class="edge">
<title>node3&#45;&gt;node4</title>
<path fill="none" stroke="black" stroke-dasharray="5,2" d="M343.77,-1241.95C340.54,-1224.99 337,-1201.72 337,-1181 337,-1181 337,-1181 337,-451 337,-410.91 373.63,-385.69 411.28,-370.36"/>
<polygon fill="black" stroke="black" points="412.78,-373.54 420.85,-366.67 410.26,-367 412.78,-373.54"/>
</g>
<!-- node5 -->
<g id="node7" class="node">
<title>node5</title>
<polygon fill="#d4eacf" stroke="transparent" points="515,-1180 515,-1201 543,-1201 543,-1180 515,-1180"/>
<polygon fill="none" stroke="black" points="515,-1180 515,-1201 543,-1201 543,-1180 515,-1180"/>
<text text-anchor="start" x="525.5" y="-1186.8" font-family="Times" font-size="14.00">b</text>
<polygon fill="none" stroke="black" points="515,-1159 515,-1180 543,-1180 543,-1159 515,-1159"/>
<text text-anchor="start" x="518" y="-1165.8" font-family="Times" font-size="14.00">ctor</text>
</g>
<!-- node3&#45;&gt;node5 -->
<g id="edge9" class="edge">
<title>node3&#45;&gt;node5</title>
<path fill="none" stroke="#278ec6" d="M376.34,-1253.09C407.44,-1238.4 458.37,-1214.35 492.76,-1198.11"/>
<polygon fill="#278ec6" stroke="#278ec6" points="494.45,-1201.19 501.99,-1193.75 491.46,-1194.86 494.45,-1201.19"/>
</g>
<!-- node18 -->
<g id="node20" class="node">
<title>node18</title>
<polygon fill="#d4eacf" stroke="transparent" points="522,-171 522,-192 550,-192 550,-171 522,-171"/>
<polygon fill="none" stroke="black" points="522,-171 522,-192 550,-192 550,-171 522,-171"/>
<text text-anchor="start" x="532.5" y="-177.8" font-family="Times" font-size="14.00">a</text>
<polygon fill="none" stroke="black" points="522,-150 522,-171 550,-171 550,-150 522,-150"/>
<text text-anchor="start" x="525" y="-156.8" font-family="Times" font-size="14.00">dtor</text>
</g>
<!-- node4&#45;&gt;node18 -->
<g id="edge30" class="edge">
<title>node4&#45;&gt;node18</title>
<path fill="none" stroke="black" stroke-dasharray="5,2" d="M498.88,-319.66C506.61,-288.9 519.17,-238.94 527.51,-205.77"/>
<polygon fill="black" stroke="black" points="530.91,-206.61 529.95,-196.06 524.12,-204.9 530.91,-206.61"/>
</g>
<!-- node6 -->
<g id="node8" class="node">
<title>node6</title>
<polygon fill="#d4eacf" stroke="transparent" points="641,-1087 641,-1114 654,-1114 654,-1087 641,-1087"/>
<polygon fill="none" stroke="black" points="641,-1087 641,-1114 654,-1114 654,-1087 641,-1087"/>
<text text-anchor="start" x="644" y="-1096.8" font-family="Times" font-size="14.00">b</text>
<polygon fill="#d4eacf" stroke="transparent" points="654,-1087 654,-1114 667,-1114 667,-1087 654,-1087"/>
<polygon fill="none" stroke="black" points="654,-1087 654,-1114 667,-1114 667,-1087 654,-1087"/>
<text text-anchor="start" x="657" y="-1096.8" font-family="Times" font-size="14.00">2</text>
<polygon fill="#d4eacf" stroke="transparent" points="667,-1087 667,-1114 767,-1114 767,-1087 667,-1087"/>
<polygon fill="none" stroke="black" points="667,-1087 667,-1114 767,-1114 767,-1087 667,-1087"/>
<text text-anchor="start" x="673" y="-1096.8" font-family="Times" font-size="14.00">0x7fff75db0330</text>
<polygon fill="none" stroke="black" points="641,-1066 641,-1087 767,-1087 767,-1066 641,-1066"/>
<text text-anchor="start" x="697" y="-1072.8" font-family="Times" font-size="14.00">99</text>
</g>
<!-- node5&#45;&gt;node6 -->
<g id="edge10" class="edge">
<title>node5&#45;&gt;node6</title>
<path fill="none" stroke="black" stroke-dasharray="5,2" d="M556.34,-1165.25C578.9,-1153.91 611.78,-1137.37 640.8,-1122.78"/>
<polygon fill="black" stroke="black" points="642.7,-1125.74 650.07,-1118.12 639.56,-1119.49 642.7,-1125.74"/>
</g>
<!-- node7 -->
<g id="node9" class="node">
<title>node7</title>
<polygon fill="none" stroke="#44cc44" points="529,-1108 458.45,-1090 529,-1072 599.55,-1090 529,-1108"/>
<text text-anchor="start" x="498.5" y="-1086.3" font-family="Times" font-size="14.00">return_tmp</text>
</g>
<!-- node5&#45;&gt;node7 -->
<g id="edge11" class="edge">
<title>node5&#45;&gt;node7</title>
<path fill="none" stroke="#278ec6" d="M529,-1154.95C529,-1143.58 529,-1129.94 529,-1118.19"/>
<polygon fill="#278ec6" stroke="#278ec6" points="532.5,-1118.05 529,-1108.05 525.5,-1118.05 532.5,-1118.05"/>
</g>
<!-- node17 -->
<g id="node19" class="node">
<title>node17</title>
<polygon fill="#d4eacf" stroke="transparent" points="597,-258 597,-279 625,-279 625,-258 597,-258"/>
<polygon fill="none" stroke="black" points="597,-258 597,-279 625,-279 625,-258 597,-258"/>
<text text-anchor="start" x="607.5" y="-264.8" font-family="Times" font-size="14.00">b</text>
<polygon fill="none" stroke="black" points="597,-237 597,-258 625,-258 625,-237 597,-237"/>
<text text-anchor="start" x="600" y="-243.8" font-family="Times" font-size="14.00">dtor</text>
</g>
<!-- node6&#45;&gt;node17 -->
<g id="edge28" class="edge">
<title>node6&#45;&gt;node17</title>
<path fill="none" stroke="black" stroke-dasharray="5,2" d="M714.01,-1061.65C719.42,-1044.48 725,-1021.73 725,-1001 725,-1001 725,-1001 725,-347 725,-307.18 680.87,-282.84 647.52,-270.14"/>
<polygon fill="black" stroke="black" points="648.61,-266.81 638.02,-266.71 646.24,-273.4 648.61,-266.81"/>
</g>
<!-- node8 -->
<g id="node10" class="node">
<title>node8</title>
<polygon fill="#d4eacf" stroke="transparent" points="515,-1000 515,-1021 543,-1021 543,-1000 515,-1000"/>
<polygon fill="none" stroke="black" points="515,-1000 515,-1021 543,-1021 543,-1000 515,-1000"/>
<text text-anchor="start" x="525.5" y="-1006.8" font-family="Times" font-size="14.00">a</text>
<polygon fill="none" stroke="black" points="515,-979 515,-1000 543,-1000 543,-979 515,-979"/>
<text text-anchor="start" x="518" y="-985.8" font-family="Times" font-size="14.00">ctor</text>
</g>
<!-- node7&#45;&gt;node8 -->
<g id="edge12" class="edge">
<title>node7&#45;&gt;node8</title>
<path fill="none" stroke="#278ec6" d="M529,-1071.61C529,-1061.2 529,-1047.61 529,-1035.14"/>
<polygon fill="#278ec6" stroke="#278ec6" points="532.5,-1035.01 529,-1025.01 525.5,-1035.01 532.5,-1035.01"/>
</g>
<!-- node9 -->
<g id="node11" class="node">
<title>node9</title>
<polygon fill="#d4eacf" stroke="transparent" points="416,-907 416,-934 429,-934 429,-907 416,-907"/>
<polygon fill="none" stroke="black" points="416,-907 416,-934 429,-934 429,-907 416,-907"/>
<text text-anchor="start" x="419" y="-916.8" font-family="Times" font-size="14.00">a</text>
<polygon fill="#d4eacf" stroke="transparent" points="429,-907 429,-934 442,-934 442,-907 429,-907"/>
<polygon fill="none" stroke="black" points="429,-907 429,-934 442,-934 442,-907 429,-907"/>
<text text-anchor="start" x="432" y="-916.8" font-family="Times" font-size="14.00">3</text>
<polygon fill="#d4eacf" stroke="transparent" points="442,-907 442,-934 542,-934 542,-907 442,-907"/>
<polygon fill="none" stroke="black" points="442,-907 442,-934 542,-934 542,-907 442,-907"/>
<text text-anchor="start" x="448" y="-916.8" font-family="Times" font-size="14.00">0x7fff75db0170</text>
<polygon fill="none" stroke="black" points="416,-886 416,-907 542,-907 542,-886 416,-886"/>
<text text-anchor="start" x="475.5" y="-892.8" font-family="Times" font-size="14.00">1</text>
</g>
<!-- node8&#45;&gt;node9 -->
<g id="edge13" class="edge">
<title>node8&#45;&gt;node9</title>
<path fill="none" stroke="black" stroke-dasharray="5,2" d="M515.34,-974.95C510.43,-966.32 504.78,-956.37 499.42,-946.95"/>
<polygon fill="black" stroke="black" points="502.39,-945.09 494.41,-938.12 496.31,-948.54 502.39,-945.09"/>
</g>
<!-- node10 -->
<g id="node12" class="node">
<title>node10</title>
<polygon fill="#d4eacf" stroke="transparent" points="500,-820 500,-841 513,-841 513,-820 500,-820"/>
<polygon fill="none" stroke="black" points="500,-820 500,-841 513,-841 513,-820 500,-820"/>
<text text-anchor="start" x="503" y="-826.8" font-family="Times" font-size="14.00">a</text>
<polygon fill="#d4eacf" stroke="transparent" points="513,-820 513,-841 526,-841 526,-820 513,-820"/>
<polygon fill="none" stroke="black" points="513,-820 513,-841 526,-841 526,-820 513,-820"/>
<text text-anchor="start" x="516" y="-826.8" font-family="Times" font-size="14.00">a</text>
<polygon fill="none" stroke="black" points="500,-799 500,-820 526,-820 526,-799 500,-799"/>
<text text-anchor="start" x="508.5" y="-805.8" font-family="Times" font-size="14.00">+</text>
</g>
<!-- node8&#45;&gt;node10 -->
<g id="edge14" class="edge">
<title>node8&#45;&gt;node10</title>
<path fill="none" stroke="#278ec6" d="M544.11,-974.74C550,-963.92 556.03,-950.76 559,-938 564.64,-913.76 566.9,-905.6 559,-882 555.59,-871.8 549.72,-861.94 543.3,-853.23"/>
<polygon fill="#278ec6" stroke="#278ec6" points="545.96,-850.96 537.03,-845.26 540.46,-855.29 545.96,-850.96"/>
</g>
<!-- node9&#45;&gt;node10 -->
<g id="edge15" class="edge">
<title>node9&#45;&gt;node10</title>
<path fill="none" stroke="#691269" d="M483.27,-881.64C486.11,-873.04 489.72,-863.45 493.49,-854.48"/>
<polygon fill="#691269" stroke="#691269" points="496.81,-855.63 497.61,-845.07 490.39,-852.83 496.81,-855.63"/>
</g>
<!-- node9&#45;&gt;node10 -->
<g id="edge16" class="edge">
<title>node9&#45;&gt;node10</title>
<path fill="none" stroke="#691269" d="M495.87,-881.64C499.64,-873.13 503.4,-863.66 506.54,-854.77"/>
<polygon fill="#691269" stroke="#691269" points="509.93,-855.66 509.79,-845.07 503.29,-853.44 509.93,-855.66"/>
</g>
<!-- node13 -->
<g id="node15" class="node">
<title>node13</title>
<polygon fill="#d4eacf" stroke="transparent" points="443,-646 443,-667 471,-667 471,-646 443,-646"/>
<polygon fill="none" stroke="black" points="443,-646 443,-667 471,-667 471,-646 443,-646"/>
<text text-anchor="start" x="453.5" y="-652.8" font-family="Times" font-size="14.00">a</text>
<polygon fill="none" stroke="black" points="443,-625 443,-646 471,-646 471,-625 443,-625"/>
<text text-anchor="start" x="446" y="-631.8" font-family="Times" font-size="14.00">dtor</text>
</g>
<!-- node9&#45;&gt;node13 -->
<g id="edge20" class="edge">
<title>node9&#45;&gt;node13</title>
<path fill="none" stroke="black" stroke-dasharray="5,2" d="M476.73,-881.95C472.7,-834 464.32,-734.2 459.89,-681.43"/>
<polygon fill="black" stroke="black" points="463.36,-680.89 459.03,-671.22 456.38,-681.48 463.36,-680.89"/>
</g>
<!-- node11 -->
<g id="node13" class="node">
<title>node11</title>
<polygon fill="#eacfcf" stroke="transparent" points="494,-733 494,-754 537,-754 537,-733 494,-733"/>
<polygon fill="none" stroke="black" points="494,-733 494,-754 537,-754 537,-733 494,-733"/>
<text text-anchor="start" x="497" y="-739.8" font-family="Times" font-size="14.00">TMP1</text>
<polygon fill="none" stroke="black" points="494,-712 494,-733 537,-733 537,-712 494,-712"/>
<text text-anchor="start" x="504.5" y="-718.8" font-family="Times" font-size="14.00">ctor</text>
</g>
<!-- node10&#45;&gt;node11 -->
<g id="edge17" class="edge">
<title>node10&#45;&gt;node11</title>
<path fill="none" stroke="#278ec6" d="M513.57,-794.87C513.76,-786.61 513.98,-777.22 514.19,-768.31"/>
<polygon fill="#278ec6" stroke="#278ec6" points="517.69,-768.27 514.43,-758.19 510.7,-768.11 517.69,-768.27"/>
</g>
<!-- node12 -->
<g id="node14" class="node">
<title>node12</title>
<polygon fill="#eacfcf" stroke="transparent" points="533,-553 533,-580 576,-580 576,-553 533,-553"/>
<polygon fill="none" stroke="black" points="533,-553 533,-580 576,-580 576,-553 533,-553"/>
<text text-anchor="start" x="536" y="-562.8" font-family="Times" font-size="14.00">TMP1</text>
<polygon fill="#eacfcf" stroke="transparent" points="576,-553 576,-580 589,-580 589,-553 576,-553"/>
<polygon fill="none" stroke="black" points="576,-553 576,-580 589,-580 589,-553 576,-553"/>
<text text-anchor="start" x="579" y="-562.8" font-family="Times" font-size="14.00">4</text>
<polygon fill="#eacfcf" stroke="transparent" points="589,-553 589,-580 689,-580 689,-553 589,-553"/>
<polygon fill="none" stroke="black" points="589,-553 589,-580 689,-580 689,-553 589,-553"/>
<text text-anchor="start" x="595" y="-562.8" font-family="Times" font-size="14.00">0x7fff75db0390</text>
<polygon fill="none" stroke="black" points="533,-532 533,-553 689,-553 689,-532 533,-532"/>
<text text-anchor="start" x="607.5" y="-538.8" font-family="Times" font-size="14.00">2</text>
</g>
<!-- node11&#45;&gt;node12 -->
<g id="edge18" class="edge">
<title>node11&#45;&gt;node12</title>
<path fill="none" stroke="black" stroke-dasharray="5,2" d="M528.35,-707.67C544.66,-677.92 572.42,-627.33 591.22,-593.06"/>
<polygon fill="black" stroke="black" points="594.29,-594.74 596.03,-584.29 588.15,-591.37 594.29,-594.74"/>
</g>
<!-- node11&#45;&gt;node13 -->
<g id="edge19" class="edge">
<title>node11&#45;&gt;node13</title>
<path fill="none" stroke="#278ec6" d="M498.53,-707.87C492.53,-699.08 485.65,-688.98 479.23,-679.58"/>
<polygon fill="#278ec6" stroke="#278ec6" points="482.03,-677.48 473.51,-671.19 476.25,-681.42 482.03,-677.48"/>
</g>
<!-- node15 -->
<g id="node17" class="node">
<title>node15</title>
<polygon fill="#d4eacf" stroke="transparent" points="503,-452 503,-473 520,-473 520,-452 503,-452"/>
<polygon fill="none" stroke="black" points="503,-452 503,-473 520,-473 520,-452 503,-452"/>
<text text-anchor="start" x="508" y="-458.8" font-family="Times" font-size="14.00">a</text>
<polygon fill="#eacfcf" stroke="transparent" points="520,-452 520,-473 567,-473 567,-452 520,-452"/>
<polygon fill="none" stroke="black" points="520,-452 520,-473 567,-473 567,-452 520,-452"/>
<text text-anchor="start" x="525" y="-458.8" font-family="Times" font-size="14.00">TMP1</text>
<polygon fill="none" stroke="black" points="503,-431 503,-452 567,-452 567,-431 503,-431"/>
<text text-anchor="start" x="506" y="-437.8" font-family="Times" font-size="14.00">asgn_copy</text>
</g>
<!-- node12&#45;&gt;node15 -->
<g id="edge24" class="edge">
<title>node12&#45;&gt;node15</title>
<path fill="none" stroke="#ee1c1c" d="M569.34,-527.81C563.25,-522.47 557.52,-516.48 553,-510 548.19,-503.1 544.63,-494.85 541.99,-486.81"/>
<polygon fill="#ee1c1c" stroke="#ee1c1c" points="545.36,-485.84 539.23,-477.2 538.63,-487.77 545.36,-485.84"/>
<text text-anchor="start" x="553" y="-499.8" font-family="Times,serif" font-weight="bold" font-size="14.00" fill="#ee1c1c">COPY</text>
</g>
<!-- node16 -->
<g id="node18" class="node">
<title>node16</title>
<polygon fill="#eacfcf" stroke="transparent" points="590,-348 590,-369 633,-369 633,-348 590,-348"/>
<polygon fill="none" stroke="black" points="590,-348 590,-369 633,-369 633,-348 590,-348"/>
<text text-anchor="start" x="593" y="-354.8" font-family="Times" font-size="14.00">TMP1</text>
<polygon fill="none" stroke="black" points="590,-327 590,-348 633,-348 633,-327 590,-327"/>
<text text-anchor="start" x="600.5" y="-333.8" font-family="Times" font-size="14.00">dtor</text>
</g>
<!-- node12&#45;&gt;node16 -->
<g id="edge26" class="edge">
<title>node12&#45;&gt;node16</title>
<path fill="none" stroke="black" stroke-dasharray="5,2" d="M611,-527.64C611,-490.47 611,-424 611,-383.46"/>
<polygon fill="black" stroke="black" points="614.5,-383.26 611,-373.26 607.5,-383.26 614.5,-383.26"/>
</g>
<!-- node14 -->
<g id="node16" class="node">
<title>node14</title>
<polygon fill="none" stroke="#3333ee" points="436,-574 365.45,-556 436,-538 506.55,-556 436,-574"/>
<text text-anchor="start" x="405.5" y="-552.3" font-family="Times" font-size="14.00">return_tmp</text>
</g>
<!-- node13&#45;&gt;node14 -->
<g id="edge21" class="edge">
<title>node13&#45;&gt;node14</title>
<path fill="none" stroke="#278ec6" d="M451.26,-620.95C448.46,-609.22 445.09,-595.1 442.23,-583.1"/>
<polygon fill="#278ec6" stroke="#278ec6" points="445.6,-582.14 439.87,-573.23 438.79,-583.77 445.6,-582.14"/>
</g>
<!-- node14&#45;&gt;node15 -->
<g id="edge22" class="edge">
<title>node14&#45;&gt;node15</title>
<path fill="none" stroke="#278ec6" d="M449.35,-541.24C463.42,-526.75 486.06,-503.42 504.53,-484.39"/>
<polygon fill="#278ec6" stroke="#278ec6" points="507.19,-486.68 511.64,-477.07 502.16,-481.81 507.19,-486.68"/>
</g>
<!-- node15&#45;&gt;node4 -->
<g id="edge23" class="edge">
<title>node15&#45;&gt;node4</title>
<path fill="none" stroke="#ee1c1c" d="M524.81,-426.83C519.6,-414.48 513.16,-399.19 507.37,-385.45"/>
<polygon fill="#ee1c1c" stroke="#ee1c1c" points="510.59,-384.09 503.48,-376.24 504.14,-386.81 510.59,-384.09"/>
<text text-anchor="start" x="516" y="-398.8" font-family="Times,serif" font-weight="bold" font-size="14.00" fill="#ee1c1c">COPY</text>
</g>
<!-- node15&#45;&gt;node16 -->
<g id="edge25" class="edge">
<title>node15&#45;&gt;node16</title>
<path fill="none" stroke="#278ec6" d="M553.01,-426.83C563.06,-413.33 575.73,-396.34 586.66,-381.67"/>
<polygon fill="#278ec6" stroke="#278ec6" points="589.69,-383.46 592.85,-373.35 584.07,-379.28 589.69,-383.46"/>
</g>
<!-- node16&#45;&gt;node17 -->
<g id="edge27" class="edge">
<title>node16&#45;&gt;node17</title>
<path fill="none" stroke="#278ec6" d="M611,-322.95C611,-313.74 611,-303.04 611,-293.06"/>
<polygon fill="#278ec6" stroke="#278ec6" points="614.5,-293.02 611,-283.02 607.5,-293.02 614.5,-293.02"/>
</g>
<!-- node17&#45;&gt;node18 -->
<g id="edge29" class="edge">
<title>node17&#45;&gt;node18</title>
<path fill="none" stroke="#278ec6" d="M589.71,-232.87C581.71,-223.81 572.5,-213.37 563.99,-203.72"/>
<polygon fill="#278ec6" stroke="#278ec6" points="566.59,-201.37 557.34,-196.19 561.34,-206 566.59,-201.37"/>
</g>
<!-- node19 -->
<g id="node21" class="node">
<title>node19</title>
<polygon fill="none" stroke="#3333ee" points="536,-109 498.13,-91 536,-73 573.87,-91 536,-109"/>
<text text-anchor="start" x="523.5" y="-87.3" font-family="Times" font-size="14.00">func</text>
</g>
<!-- node18&#45;&gt;node19 -->
<g id="edge31" class="edge">
<title>node18&#45;&gt;node19</title>
<path fill="none" stroke="#278ec6" d="M536,-145.75C536,-137.45 536,-128.1 536,-119.56"/>
<polygon fill="#278ec6" stroke="#278ec6" points="539.5,-119.3 536,-109.3 532.5,-119.3 539.5,-119.3"/>
</g>
<!-- node20 -->
<g id="node22" class="node">
<title>node20</title>
<polygon fill="none" stroke="#278ec6" points="488.34,0 583.66,0 617.61,-36 454.39,-36 488.34,0"/>
<text text-anchor="start" x="499.5" y="-14.3" font-family="Times,serif" font-size="14.00">End of log</text>
</g>
<!-- node19&#45;&gt;node20 -->
<g id="edge32" class="edge">
<title>node19&#45;&gt;node20</title>
<path fill="none" stroke="#278ec6" d="M536,-72.81C536,-64.79 536,-55.05 536,-46.07"/>
<polygon fill="#278ec6" stroke="#278ec6" points="539.5,-46.03 536,-36.03 532.5,-46.03 539.5,-46.03"/>
</g>
</g>
</svg>
