<?xml version="1.0" encoding="UTF-8" standalone="no"?>
<!DOCTYPE svg PUBLIC "-//W3C//DTD SVG 1.1//EN"
 "http://www.w3.org/Graphics/SVG/1.1/DTD/svg11.dtd">
<!-- Generated by graphviz version 2.43.0 (0)
 -->
<!-- Title: list Pages: 1 -->
<svg width="547pt" height="1176pt"
 viewBox="0.00 0.00 547.00 1176.00" xmlns="http://www.w3.org/2000/svg" xmlns:xlink="http://www.w3.org/1999/xlink">
<g id="graph0" class="graph" transform="scale(1 1) rotate(0) translate(4 1172)">
<title>list</title>
<polygon fill="white" stroke="transparent" points="-4,4 -4,-1172 543,-1172 543,4 -4,4"/>
<g id="clust1" class="cluster">
<title>cluster_beb</title>
<polygon fill="none" stroke="black" points="8,-1018 8,-1160 249,-1160 249,-1018 8,-1018"/>
<text text-anchor="middle" x="128.5" y="-1144.8" font-family="Times,serif" font-size="14.00">Legend</text>
</g>
<!-- key -->
<g id="node1" class="node">
<title>key</title>
<text text-anchor="start" x="27" y="-1111.3" font-family="Times,serif" font-size="14.00">action sequence</text>
<text text-anchor="start" x="88" y="-1092.3" font-family="Times,serif" font-size="14.00">var live</text>
<text text-anchor="start" x="72" y="-1073.3" font-family="Times,serif" font-size="14.00">a good op</text>
<text text-anchor="start" x="81" y="-1054.3" font-family="Times,serif" font-size="14.00">a bad op</text>
<text text-anchor="start" x="74" y="-1035.3" font-family="Times,serif" font-size="14.00">other ops</text>
</g>
<!-- key2 -->
<g id="node2" class="node">
<title>key2</title>
<text text-anchor="start" x="212" y="-1111.3" font-family="Times,serif" font-size="14.00"> </text>
<text text-anchor="start" x="212" y="-1092.3" font-family="Times,serif" font-size="14.00"> </text>
<text text-anchor="start" x="212" y="-1073.3" font-family="Times,serif" font-size="14.00"> </text>
<text text-anchor="start" x="212" y="-1054.3" font-family="Times,serif" font-size="14.00"> </text>
<text text-anchor="start" x="212" y="-1035.3" font-family="Times,serif" font-size="14.00"> </text>
</g>
<!-- key&#45;&gt;key2 -->
<g id="edge1" class="edge">
<title>key:e&#45;&gt;key2:w</title>
<path fill="none" stroke="#278ec6" d="M145,-1115.5C169.78,-1115.5 178.37,-1115.5 198.97,-1115.5"/>
<polygon fill="#278ec6" stroke="#278ec6" points="199,-1119 209,-1115.5 199,-1112 199,-1119"/>
</g>
<!-- key&#45;&gt;key2 -->
<g id="edge2" class="edge">
<title>key:e&#45;&gt;key2:w</title>
<path fill="none" stroke="black" stroke-dasharray="5,2" d="M145,-1096.5C169.78,-1096.5 178.37,-1096.5 198.97,-1096.5"/>
<polygon fill="black" stroke="black" points="199,-1100 209,-1096.5 199,-1093 199,-1100"/>
</g>
<!-- key&#45;&gt;key2 -->
<g id="edge3" class="edge">
<title>key:e&#45;&gt;key2:w</title>
<path fill="none" stroke="#108910" d="M145,-1076.5C169.78,-1076.5 178.37,-1076.5 198.97,-1076.5"/>
<polygon fill="#108910" stroke="#108910" points="199,-1080 209,-1076.5 199,-1073 199,-1080"/>
</g>
<!-- key&#45;&gt;key2 -->
<g id="edge4" class="edge">
<title>key:e&#45;&gt;key2:w</title>
<path fill="none" stroke="#ee1c1c" d="M145,-1057.5C169.78,-1057.5 178.37,-1057.5 198.97,-1057.5"/>
<polygon fill="#ee1c1c" stroke="#ee1c1c" points="199,-1061 209,-1057.5 199,-1054 199,-1061"/>
</g>
<!-- key&#45;&gt;key2 -->
<g id="edge5" class="edge">
<title>key:e&#45;&gt;key2:w</title>
<path fill="none" stroke="#691269" d="M145,-1038.5C169.78,-1038.5 178.37,-1038.5 198.97,-1038.5"/>
<polygon fill="#691269" stroke="#691269" points="199,-1042 209,-1038.5 199,-1035 199,-1042"/>
</g>
<!-- node1 -->
<g id="node3" class="node">
<title>node1</title>
<polygon fill="none" stroke="#278ec6" points="401.65,-1095.5 296.35,-1095.5 258.85,-1059.5 439.15,-1059.5 401.65,-1095.5"/>
<text text-anchor="start" x="308" y="-1073.8" font-family="Times,serif" font-size="14.00">Start of log</text>
</g>
<!-- node2 -->
<g id="node4" class="node">
<title>node2</title>
<polygon fill="none" stroke="#44cc44" points="349,-989 311.13,-971 349,-953 386.87,-971 349,-989"/>
<text text-anchor="start" x="336.5" y="-967.3" font-family="Times" font-size="14.00">func</text>
</g>
<!-- node1&#45;&gt;node2 -->
<g id="edge6" class="edge">
<title>node1&#45;&gt;node2</title>
<path fill="none" stroke="#278ec6" d="M349,-1059.24C349,-1042.98 349,-1018.35 349,-999.4"/>
<polygon fill="#278ec6" stroke="#278ec6" points="352.5,-999.28 349,-989.28 345.5,-999.28 352.5,-999.28"/>
</g>
<!-- node3 -->
<g id="node5" class="node">
<title>node3</title>
<polygon fill="#d4eacf" stroke="transparent" points="330,-891 330,-912 368,-912 368,-891 330,-891"/>
<polygon fill="none" stroke="black" points="330,-891 330,-912 368,-912 368,-891 330,-891"/>
<text text-anchor="start" x="333" y="-897.8" font-family="Times" font-size="14.00">initial</text>
<polygon fill="none" stroke="black" points="330,-870 330,-891 368,-891 368,-870 330,-870"/>
<text text-anchor="start" x="338" y="-876.8" font-family="Times" font-size="14.00">ctor</text>
</g>
<!-- node2&#45;&gt;node3 -->
<g id="edge7" class="edge">
<title>node2&#45;&gt;node3</title>
<path fill="none" stroke="#278ec6" d="M349,-952.69C349,-944.86 349,-935.33 349,-926.16"/>
<polygon fill="#278ec6" stroke="#278ec6" points="352.5,-926.07 349,-916.07 345.5,-926.07 352.5,-926.07"/>
</g>
<!-- node4 -->
<g id="node6" class="node">
<title>node4</title>
<polygon fill="#d4eacf" stroke="transparent" points="343,-725 343,-752 381,-752 381,-725 343,-725"/>
<polygon fill="none" stroke="black" points="343,-725 343,-752 381,-752 381,-725 343,-725"/>
<text text-anchor="start" x="346" y="-734.8" font-family="Times" font-size="14.00">initial</text>
<polygon fill="#d4eacf" stroke="transparent" points="381,-725 381,-752 394,-752 394,-725 381,-725"/>
<polygon fill="none" stroke="black" points="381,-725 381,-752 394,-752 394,-725 381,-725"/>
<text text-anchor="start" x="384" y="-734.8" font-family="Times" font-size="14.00">1</text>
<polygon fill="#d4eacf" stroke="transparent" points="394,-725 394,-752 493,-752 493,-725 394,-725"/>
<polygon fill="none" stroke="black" points="394,-725 394,-752 493,-752 493,-725 394,-725"/>
<text text-anchor="start" x="400" y="-734.8" font-family="Times" font-size="14.00">0x7fff2c6b5040</text>
<polygon fill="none" stroke="black" points="343,-704 343,-725 493,-725 493,-704 343,-704"/>
<text text-anchor="start" x="382.5" y="-710.8" font-family="Times" font-size="14.00">Feature Film</text>
</g>
<!-- node3&#45;&gt;node4 -->
<g id="edge8" class="edge">
<title>node3&#45;&gt;node4</title>
<path fill="none" stroke="black" stroke-dasharray="5,2" d="M359.75,-866C364.74,-854.78 370.73,-841.23 376,-829 385.02,-808.09 394.89,-784.62 402.79,-765.68"/>
<polygon fill="black" stroke="black" points="406.12,-766.8 406.73,-756.22 399.65,-764.11 406.12,-766.8"/>
</g>
<!-- node5 -->
<g id="node7" class="node">
<title>node5</title>
<polygon fill="none" stroke="#44cc44" points="282,-829 196.54,-811 282,-793 367.46,-811 282,-829"/>
<text text-anchor="start" x="243.5" y="-807.3" font-family="Times" font-size="14.00">Gona forward</text>
</g>
<!-- node3&#45;&gt;node5 -->
<g id="edge9" class="edge">
<title>node3&#45;&gt;node5</title>
<path fill="none" stroke="#278ec6" d="M328.17,-865.75C319.52,-855.69 309.56,-844.09 301.11,-834.25"/>
<polygon fill="#278ec6" stroke="#278ec6" points="303.6,-831.77 294.43,-826.47 298.29,-836.33 303.6,-831.77"/>
</g>
<!-- node7 -->
<g id="node9" class="node">
<title>node7</title>
<polygon fill="#eacfcf" stroke="transparent" points="176,-624 176,-645 219,-645 219,-624 176,-624"/>
<polygon fill="none" stroke="black" points="176,-624 176,-645 219,-645 219,-624 176,-624"/>
<text text-anchor="start" x="179" y="-630.8" font-family="Times" font-size="14.00">TMP1</text>
<polygon fill="#d4eacf" stroke="transparent" points="219,-624 219,-645 257,-645 257,-624 219,-624"/>
<polygon fill="none" stroke="black" points="219,-624 219,-645 257,-645 257,-624 219,-624"/>
<text text-anchor="start" x="222" y="-630.8" font-family="Times" font-size="14.00">initial</text>
<polygon fill="none" stroke="black" points="176,-603 176,-624 257,-624 257,-603 176,-603"/>
<text text-anchor="start" x="189" y="-609.8" font-family="Times" font-size="14.00">ctor_copy</text>
</g>
<!-- node4&#45;&gt;node7 -->
<g id="edge12" class="edge">
<title>node4&#45;&gt;node7</title>
<path fill="none" stroke="#ee1c1c" d="M364.4,-699.93C336.13,-685.66 301.46,-668.15 272.74,-653.65"/>
<polygon fill="#ee1c1c" stroke="#ee1c1c" points="274.15,-650.44 263.64,-649.06 270.99,-656.69 274.15,-650.44"/>
<text text-anchor="start" x="324" y="-671.8" font-family="Times,serif" font-weight="bold" font-size="14.00" fill="#ee1c1c">COPY</text>
</g>
<!-- node13 -->
<g id="node15" class="node">
<title>node13</title>
<polygon fill="#d4eacf" stroke="transparent" points="361,-191 361,-212 399,-212 399,-191 361,-191"/>
<polygon fill="none" stroke="black" points="361,-191 361,-212 399,-212 399,-191 361,-191"/>
<text text-anchor="start" x="364" y="-197.8" font-family="Times" font-size="14.00">initial</text>
<polygon fill="none" stroke="black" points="361,-170 361,-191 399,-191 399,-170 361,-170"/>
<text text-anchor="start" x="369" y="-176.8" font-family="Times" font-size="14.00">dtor</text>
</g>
<!-- node4&#45;&gt;node13 -->
<g id="edge21" class="edge">
<title>node4&#45;&gt;node13</title>
<path fill="none" stroke="#be8607" d="M418,-699.73C418,-679.18 418,-650.32 418,-625 418,-625 418,-625 418,-270 418,-254.21 411.63,-238.28 404.11,-224.96"/>
<polygon fill="#be8607" stroke="#be8607" points="406.96,-222.92 398.78,-216.2 400.98,-226.56 406.96,-222.92"/>
</g>
<!-- node14 -->
<g id="node16" class="node">
<title>node14</title>
<polygon fill="#d4eacf" stroke="transparent" points="381,-98 381,-125 419,-125 419,-98 381,-98"/>
<polygon fill="none" stroke="black" points="381,-98 381,-125 419,-125 419,-98 381,-98"/>
<text text-anchor="start" x="384" y="-107.8" font-family="Times" font-size="14.00">initial</text>
<polygon fill="#d4eacf" stroke="transparent" points="419,-98 419,-125 432,-125 432,-98 419,-98"/>
<polygon fill="none" stroke="black" points="419,-98 419,-125 432,-125 432,-98 419,-98"/>
<text text-anchor="start" x="422" y="-107.8" font-family="Times" font-size="14.00">1</text>
<polygon fill="#d4eacf" stroke="transparent" points="432,-98 432,-125 531,-125 531,-98 432,-98"/>
<polygon fill="none" stroke="black" points="432,-98 432,-125 531,-125 531,-98 432,-98"/>
<text text-anchor="start" x="438" y="-107.8" font-family="Times" font-size="14.00">0x7fff2c6b5040</text>
<polygon fill="none" stroke="black" points="381,-77 381,-98 531,-98 531,-77 381,-77"/>
<text text-anchor="start" x="420.5" y="-83.8" font-family="Times" font-size="14.00">Feature Film</text>
</g>
<!-- node4&#45;&gt;node14 -->
<g id="edge23" class="edge">
<title>node4&#45;&gt;node14</title>
<path fill="none" stroke="black" stroke-dasharray="5,2" d="M434.12,-699.87C444.47,-679.88 456,-651.65 456,-625 456,-625 456,-625 456,-190 456,-173.49 456,-155.24 456,-139.66"/>
<polygon fill="black" stroke="black" points="459.5,-139.35 456,-129.35 452.5,-139.35 459.5,-139.35"/>
</g>
<!-- node6 -->
<g id="node8" class="node">
<title>node6</title>
<polygon fill="none" stroke="#44cc44" points="216,-746 114.79,-728 216,-710 317.21,-728 216,-746"/>
<text text-anchor="start" x="169" y="-724.3" font-family="Times" font-size="14.00">TO_UPERCASE</text>
</g>
<!-- node5&#45;&gt;node6 -->
<g id="edge10" class="edge">
<title>node5&#45;&gt;node6</title>
<path fill="none" stroke="#278ec6" d="M269.89,-795.14C260.09,-783.12 246.12,-765.96 234.85,-752.14"/>
<polygon fill="#278ec6" stroke="#278ec6" points="237.28,-749.58 228.25,-744.04 231.86,-754 237.28,-749.58"/>
</g>
<!-- node6&#45;&gt;node7 -->
<g id="edge11" class="edge">
<title>node6&#45;&gt;node7</title>
<path fill="none" stroke="#278ec6" d="M216,-709.7C216,-695.95 216,-676.3 216,-659.38"/>
<polygon fill="#278ec6" stroke="#278ec6" points="219.5,-659.28 216,-649.28 212.5,-659.28 219.5,-659.28"/>
</g>
<!-- node8 -->
<g id="node10" class="node">
<title>node8</title>
<polygon fill="#eacfcf" stroke="transparent" points="26,-531 26,-558 69,-558 69,-531 26,-531"/>
<polygon fill="none" stroke="black" points="26,-531 26,-558 69,-558 69,-531 26,-531"/>
<text text-anchor="start" x="29" y="-540.8" font-family="Times" font-size="14.00">TMP1</text>
<polygon fill="#eacfcf" stroke="transparent" points="69,-531 69,-558 82,-558 82,-531 69,-531"/>
<polygon fill="none" stroke="black" points="69,-531 69,-558 82,-558 82,-531 69,-531"/>
<text text-anchor="start" x="72" y="-540.8" font-family="Times" font-size="14.00">2</text>
<polygon fill="#eacfcf" stroke="transparent" points="82,-531 82,-558 180,-558 180,-531 82,-531"/>
<polygon fill="none" stroke="black" points="82,-531 82,-558 180,-558 180,-531 82,-531"/>
<text text-anchor="start" x="88" y="-540.8" font-family="Times" font-size="14.00">0x7fff2c6b4e40</text>
<polygon fill="none" stroke="black" points="26,-510 26,-531 180,-531 180,-510 26,-510"/>
<text text-anchor="start" x="67.5" y="-516.8" font-family="Times" font-size="14.00">Feature Film</text>
</g>
<!-- node7&#45;&gt;node8 -->
<g id="edge13" class="edge">
<title>node7&#45;&gt;node8</title>
<path fill="none" stroke="black" stroke-dasharray="5,2" d="M185.12,-598.95C173,-589.51 158.88,-578.52 145.81,-568.34"/>
<polygon fill="black" stroke="black" points="147.87,-565.5 137.83,-562.12 143.57,-571.03 147.87,-565.5"/>
</g>
<!-- node9 -->
<g id="node11" class="node">
<title>node9</title>
<polygon fill="#eacfcf" stroke="transparent" points="177,-444 177,-465 220,-465 220,-444 177,-444"/>
<polygon fill="none" stroke="black" points="177,-444 177,-465 220,-465 220,-444 177,-444"/>
<text text-anchor="start" x="180" y="-450.8" font-family="Times" font-size="14.00">TMP1</text>
<polygon fill="none" stroke="black" points="177,-423 177,-444 220,-444 220,-423 177,-423"/>
<text text-anchor="start" x="187.5" y="-429.8" font-family="Times" font-size="14.00">dtor</text>
</g>
<!-- node7&#45;&gt;node9 -->
<g id="edge14" class="edge">
<title>node7&#45;&gt;node9</title>
<path fill="none" stroke="#278ec6" d="M213.57,-598.99C210.46,-568.21 205.04,-514.6 201.48,-479.46"/>
<polygon fill="#278ec6" stroke="#278ec6" points="204.94,-478.79 200.45,-469.19 197.97,-479.5 204.94,-478.79"/>
</g>
<!-- node8&#45;&gt;node9 -->
<g id="edge15" class="edge">
<title>node8&#45;&gt;node9</title>
<path fill="none" stroke="#be8607" d="M132.28,-505.88C142.46,-496.45 153.95,-485.8 164.45,-476.08"/>
<polygon fill="#be8607" stroke="#be8607" points="166.92,-478.56 171.88,-469.2 162.17,-473.42 166.92,-478.56"/>
</g>
<!-- node10 -->
<g id="node12" class="node">
<title>node10</title>
<polygon fill="#eacfcf" stroke="transparent" points="8,-351 8,-378 51,-378 51,-351 8,-351"/>
<polygon fill="none" stroke="black" points="8,-351 8,-378 51,-378 51,-351 8,-351"/>
<text text-anchor="start" x="11" y="-360.8" font-family="Times" font-size="14.00">TMP1</text>
<polygon fill="#eacfcf" stroke="transparent" points="51,-351 51,-378 64,-378 64,-351 51,-351"/>
<polygon fill="none" stroke="black" points="51,-351 51,-378 64,-378 64,-351 51,-351"/>
<text text-anchor="start" x="54" y="-360.8" font-family="Times" font-size="14.00">2</text>
<polygon fill="#eacfcf" stroke="transparent" points="64,-351 64,-378 162,-378 162,-351 64,-351"/>
<polygon fill="none" stroke="black" points="64,-351 64,-378 162,-378 162,-351 64,-351"/>
<text text-anchor="start" x="70" y="-360.8" font-family="Times" font-size="14.00">0x7fff2c6b4e40</text>
<polygon fill="none" stroke="black" points="8,-330 8,-351 162,-351 162,-330 8,-330"/>
<text text-anchor="start" x="35.5" y="-336.8" font-family="Times" font-size="14.00">FEATURE FILM</text>
</g>
<!-- node8&#45;&gt;node10 -->
<g id="edge17" class="edge">
<title>node8&#45;&gt;node10</title>
<path fill="none" stroke="black" stroke-dasharray="5,2" d="M100.27,-505.97C97.2,-475.65 92.21,-426.28 88.77,-392.3"/>
<polygon fill="black" stroke="black" points="92.25,-391.89 87.76,-382.29 85.28,-392.59 92.25,-391.89"/>
</g>
<!-- node9&#45;&gt;node10 -->
<g id="edge16" class="edge">
<title>node9&#45;&gt;node10</title>
<path fill="none" stroke="#be8607" d="M168.31,-419.88C155.96,-410.26 141.39,-398.92 127.92,-388.42"/>
<polygon fill="#be8607" stroke="#be8607" points="129.74,-385.41 119.7,-382.02 125.44,-390.93 129.74,-385.41"/>
</g>
<!-- node11 -->
<g id="node13" class="node">
<title>node11</title>
<polygon fill="none" stroke="#3333ee" points="289,-372 187.79,-354 289,-336 390.21,-354 289,-372"/>
<text text-anchor="start" x="242" y="-350.3" font-family="Times" font-size="14.00">TO_UPERCASE</text>
</g>
<!-- node9&#45;&gt;node11 -->
<g id="edge18" class="edge">
<title>node9&#45;&gt;node11</title>
<path fill="none" stroke="#278ec6" d="M222.87,-418.95C236.59,-405.68 253.49,-389.34 266.78,-376.49"/>
<polygon fill="#278ec6" stroke="#278ec6" points="269.37,-378.85 274.13,-369.38 264.5,-373.82 269.37,-378.85"/>
</g>
<!-- node12 -->
<g id="node14" class="node">
<title>node12</title>
<polygon fill="none" stroke="#3333ee" points="301,-289 215.54,-271 301,-253 386.46,-271 301,-289"/>
<text text-anchor="start" x="262.5" y="-267.3" font-family="Times" font-size="14.00">Gona forward</text>
</g>
<!-- node11&#45;&gt;node12 -->
<g id="edge19" class="edge">
<title>node11&#45;&gt;node12</title>
<path fill="none" stroke="#278ec6" d="M291.49,-336.22C293.08,-325.46 295.18,-311.27 297.01,-298.96"/>
<polygon fill="#278ec6" stroke="#278ec6" points="300.51,-299.17 298.52,-288.76 293.59,-298.14 300.51,-299.17"/>
</g>
<!-- node12&#45;&gt;node13 -->
<g id="edge20" class="edge">
<title>node12&#45;&gt;node13</title>
<path fill="none" stroke="#278ec6" d="M315.49,-255.69C324.7,-246.6 336.99,-234.47 348.37,-223.23"/>
<polygon fill="#278ec6" stroke="#278ec6" points="351.02,-225.54 355.67,-216.02 346.1,-220.55 351.02,-225.54"/>
</g>
<!-- node13&#45;&gt;node14 -->
<g id="edge22" class="edge">
<title>node13&#45;&gt;node14</title>
<path fill="none" stroke="#be8607" d="M400.77,-165.95C408.54,-156.96 417.52,-146.55 425.96,-136.78"/>
<polygon fill="#be8607" stroke="#be8607" points="428.69,-138.98 432.58,-129.12 423.39,-134.4 428.69,-138.98"/>
</g>
<!-- node15 -->
<g id="node17" class="node">
<title>node15</title>
<polygon fill="none" stroke="#3333ee" points="317,-119 279.13,-101 317,-83 354.87,-101 317,-119"/>
<text text-anchor="start" x="304.5" y="-97.3" font-family="Times" font-size="14.00">func</text>
</g>
<!-- node13&#45;&gt;node15 -->
<g id="edge24" class="edge">
<title>node13&#45;&gt;node15</title>
<path fill="none" stroke="#278ec6" d="M362.78,-165.95C353.19,-152.56 341.36,-136.03 332.13,-123.13"/>
<polygon fill="#278ec6" stroke="#278ec6" points="334.88,-120.96 326.21,-114.87 329.19,-125.04 334.88,-120.96"/>
</g>
<!-- node16 -->
<g id="node18" class="node">
<title>node16</title>
<polygon fill="none" stroke="#278ec6" points="269.34,0 364.66,0 398.61,-36 235.39,-36 269.34,0"/>
<text text-anchor="start" x="280.5" y="-14.3" font-family="Times,serif" font-size="14.00">End of log</text>
</g>
<!-- node15&#45;&gt;node16 -->
<g id="edge25" class="edge">
<title>node15&#45;&gt;node16</title>
<path fill="none" stroke="#278ec6" d="M317,-82.82C317,-72.19 317,-58.31 317,-46.2"/>
<polygon fill="#278ec6" stroke="#278ec6" points="320.5,-46.15 317,-36.15 313.5,-46.15 320.5,-46.15"/>
</g>
</g>
</svg>
