<?xml version="1.0" encoding="UTF-8" standalone="no"?>
<!DOCTYPE svg PUBLIC "-//W3C//DTD SVG 1.1//EN"
 "http://www.w3.org/Graphics/SVG/1.1/DTD/svg11.dtd">
<!-- Generated by graphviz version 2.43.0 (0)
 -->
<!-- Title: list Pages: 1 -->
<svg width="570pt" height="931pt"
 viewBox="0.00 0.00 569.50 931.00" xmlns="http://www.w3.org/2000/svg" xmlns:xlink="http://www.w3.org/1999/xlink">
<g id="graph0" class="graph" transform="scale(1 1) rotate(0) translate(4 927)">
<title>list</title>
<polygon fill="white" stroke="transparent" points="-4,4 -4,-927 565.5,-927 565.5,4 -4,4"/>
<g id="clust1" class="cluster">
<title>cluster_beb</title>
<polygon fill="none" stroke="black" points="8,-773 8,-915 249,-915 249,-773 8,-773"/>
<text text-anchor="middle" x="128.5" y="-899.8" font-family="Times,serif" font-size="14.00">Legend</text>
</g>
<!-- key -->
<g id="node1" class="node">
<title>key</title>
<text text-anchor="start" x="27" y="-866.3" font-family="Times,serif" font-size="14.00">action sequence</text>
<text text-anchor="start" x="88" y="-847.3" font-family="Times,serif" font-size="14.00">var live</text>
<text text-anchor="start" x="72" y="-828.3" font-family="Times,serif" font-size="14.00">a good op</text>
<text text-anchor="start" x="81" y="-809.3" font-family="Times,serif" font-size="14.00">a bad op</text>
<text text-anchor="start" x="74" y="-790.3" font-family="Times,serif" font-size="14.00">other ops</text>
</g>
<!-- key2 -->
<g id="node2" class="node">
<title>key2</title>
<text text-anchor="start" x="212" y="-866.3" font-family="Times,serif" font-size="14.00"> </text>
<text text-anchor="start" x="212" y="-847.3" font-family="Times,serif" font-size="14.00"> </text>
<text text-anchor="start" x="212" y="-828.3" font-family="Times,serif" font-size="14.00"> </text>
<text text-anchor="start" x="212" y="-809.3" font-family="Times,serif" font-size="14.00"> </text>
<text text-anchor="start" x="212" y="-790.3" font-family="Times,serif" font-size="14.00"> </text>
</g>
<!-- key&#45;&gt;key2 -->
<g id="edge1" class="edge">
<title>key:e&#45;&gt;key2:w</title>
<path fill="none" stroke="#278ec6" d="M145,-870.5C169.78,-870.5 178.37,-870.5 198.97,-870.5"/>
<polygon fill="#278ec6" stroke="#278ec6" points="199,-874 209,-870.5 199,-867 199,-874"/>
</g>
<!-- key&#45;&gt;key2 -->
<g id="edge2" class="edge">
<title>key:e&#45;&gt;key2:w</title>
<path fill="none" stroke="black" stroke-dasharray="5,2" d="M145,-851.5C169.78,-851.5 178.37,-851.5 198.97,-851.5"/>
<polygon fill="black" stroke="black" points="199,-855 209,-851.5 199,-848 199,-855"/>
</g>
<!-- key&#45;&gt;key2 -->
<g id="edge3" class="edge">
<title>key:e&#45;&gt;key2:w</title>
<path fill="none" stroke="#108910" d="M145,-831.5C169.78,-831.5 178.37,-831.5 198.97,-831.5"/>
<polygon fill="#108910" stroke="#108910" points="199,-835 209,-831.5 199,-828 199,-835"/>
</g>
<!-- key&#45;&gt;key2 -->
<g id="edge4" class="edge">
<title>key:e&#45;&gt;key2:w</title>
<path fill="none" stroke="#ee1c1c" d="M145,-812.5C169.78,-812.5 178.37,-812.5 198.97,-812.5"/>
<polygon fill="#ee1c1c" stroke="#ee1c1c" points="199,-816 209,-812.5 199,-809 199,-816"/>
</g>
<!-- key&#45;&gt;key2 -->
<g id="edge5" class="edge">
<title>key:e&#45;&gt;key2:w</title>
<path fill="none" stroke="#691269" d="M145,-793.5C169.78,-793.5 178.37,-793.5 198.97,-793.5"/>
<polygon fill="#691269" stroke="#691269" points="199,-797 209,-793.5 199,-790 199,-797"/>
</g>
<!-- node1 -->
<g id="node3" class="node">
<title>node1</title>
<polygon fill="none" stroke="#278ec6" points="401.65,-850.5 296.35,-850.5 258.85,-814.5 439.15,-814.5 401.65,-850.5"/>
<text text-anchor="start" x="308" y="-828.8" font-family="Times,serif" font-size="14.00">Start of log</text>
</g>
<!-- node2 -->
<g id="node4" class="node">
<title>node2</title>
<polygon fill="none" stroke="#44cc44" points="349,-744 311.13,-726 349,-708 386.87,-726 349,-744"/>
<text text-anchor="start" x="336.5" y="-722.3" font-family="Times" font-size="14.00">func</text>
</g>
<!-- node1&#45;&gt;node2 -->
<g id="edge6" class="edge">
<title>node1&#45;&gt;node2</title>
<path fill="none" stroke="#278ec6" d="M349,-814.24C349,-797.98 349,-773.35 349,-754.4"/>
<polygon fill="#278ec6" stroke="#278ec6" points="352.5,-754.28 349,-744.28 345.5,-754.28 352.5,-754.28"/>
</g>
<!-- node3 -->
<g id="node5" class="node">
<title>node3</title>
<polygon fill="#d4eacf" stroke="transparent" points="335,-646 335,-667 363,-667 363,-646 335,-646"/>
<polygon fill="none" stroke="black" points="335,-646 335,-667 363,-667 363,-646 335,-646"/>
<text text-anchor="start" x="340" y="-652.8" font-family="Times" font-size="14.00">obj</text>
<polygon fill="none" stroke="black" points="335,-625 335,-646 363,-646 363,-625 335,-625"/>
<text text-anchor="start" x="338" y="-631.8" font-family="Times" font-size="14.00">ctor</text>
</g>
<!-- node2&#45;&gt;node3 -->
<g id="edge7" class="edge">
<title>node2&#45;&gt;node3</title>
<path fill="none" stroke="#278ec6" d="M349,-707.69C349,-699.86 349,-690.33 349,-681.16"/>
<polygon fill="#278ec6" stroke="#278ec6" points="352.5,-681.07 349,-671.07 345.5,-681.07 352.5,-681.07"/>
</g>
<!-- node4 -->
<g id="node6" class="node">
<title>node4</title>
<polygon fill="#d4eacf" stroke="transparent" points="221,-553 221,-580 245,-580 245,-553 221,-553"/>
<polygon fill="none" stroke="black" points="221,-553 221,-580 245,-580 245,-553 221,-553"/>
<text text-anchor="start" x="224" y="-562.8" font-family="Times" font-size="14.00">obj</text>
<polygon fill="#d4eacf" stroke="transparent" points="245,-553 245,-580 258,-580 258,-553 245,-553"/>
<polygon fill="none" stroke="black" points="245,-553 245,-580 258,-580 258,-553 245,-553"/>
<text text-anchor="start" x="248" y="-562.8" font-family="Times" font-size="14.00">1</text>
<polygon fill="#d4eacf" stroke="transparent" points="258,-553 258,-580 357,-580 357,-553 258,-553"/>
<polygon fill="none" stroke="black" points="258,-553 258,-580 357,-580 357,-553 258,-553"/>
<text text-anchor="start" x="264" y="-562.8" font-family="Times" font-size="14.00">0x7ffc0521fd50</text>
<polygon fill="none" stroke="black" points="221,-532 221,-553 357,-553 357,-532 221,-532"/>
<text text-anchor="start" x="268" y="-538.8" font-family="Times" font-size="14.00">a string</text>
</g>
<!-- node3&#45;&gt;node4 -->
<g id="edge8" class="edge">
<title>node3&#45;&gt;node4</title>
<path fill="none" stroke="black" stroke-dasharray="5,2" d="M332.6,-620.95C326.65,-612.23 319.8,-602.17 313.31,-592.65"/>
<polygon fill="black" stroke="black" points="316.02,-590.41 307.49,-584.12 310.23,-594.35 316.02,-590.41"/>
</g>
<!-- node5 -->
<g id="node7" class="node">
<title>node5</title>
<polygon fill="#d4eacf" stroke="transparent" points="393,-556 393,-577 427,-577 427,-556 393,-556"/>
<polygon fill="none" stroke="black" points="393,-556 393,-577 427,-577 427,-556 393,-556"/>
<text text-anchor="start" x="396" y="-562.8" font-family="Times" font-size="14.00">other</text>
<polygon fill="none" stroke="black" points="393,-535 393,-556 427,-556 427,-535 393,-535"/>
<text text-anchor="start" x="399" y="-541.8" font-family="Times" font-size="14.00">ctor</text>
</g>
<!-- node3&#45;&gt;node5 -->
<g id="edge9" class="edge">
<title>node3&#45;&gt;node5</title>
<path fill="none" stroke="#278ec6" d="M365.67,-620.95C372.39,-611.25 380.26,-599.91 387.48,-589.49"/>
<polygon fill="#278ec6" stroke="#278ec6" points="390.53,-591.23 393.35,-581.02 384.78,-587.24 390.53,-591.23"/>
</g>
<!-- node7 -->
<g id="node9" class="node">
<title>node7</title>
<polygon fill="#d4eacf" stroke="transparent" points="310,-452 310,-473 347,-473 347,-452 310,-452"/>
<polygon fill="none" stroke="black" points="310,-452 310,-473 347,-473 347,-452 310,-452"/>
<text text-anchor="start" x="314.5" y="-458.8" font-family="Times" font-size="14.00">other</text>
<polygon fill="#d4eacf" stroke="transparent" points="347,-452 347,-473 374,-473 374,-452 347,-452"/>
<polygon fill="none" stroke="black" points="347,-452 347,-473 374,-473 374,-452 347,-452"/>
<text text-anchor="start" x="351.5" y="-458.8" font-family="Times" font-size="14.00">obj</text>
<polygon fill="none" stroke="black" points="310,-431 310,-452 374,-452 374,-431 310,-431"/>
<text text-anchor="start" x="313" y="-437.8" font-family="Times" font-size="14.00">asgn_copy</text>
</g>
<!-- node4&#45;&gt;node7 -->
<g id="edge14" class="edge">
<title>node4&#45;&gt;node7</title>
<path fill="none" stroke="#ee1c1c" d="M303.06,-527.93C309.74,-515.08 317.78,-499.61 324.82,-486.07"/>
<polygon fill="#ee1c1c" stroke="#ee1c1c" points="327.99,-487.54 329.5,-477.06 321.78,-484.32 327.99,-487.54"/>
<text text-anchor="start" x="319" y="-499.8" font-family="Times,serif" font-weight="bold" font-size="14.00" fill="#ee1c1c">COPY</text>
</g>
<!-- node10 -->
<g id="node12" class="node">
<title>node10</title>
<polygon fill="#d4eacf" stroke="transparent" points="272,-171 272,-192 300,-192 300,-171 272,-171"/>
<polygon fill="none" stroke="black" points="272,-171 272,-192 300,-192 300,-171 272,-171"/>
<text text-anchor="start" x="277" y="-177.8" font-family="Times" font-size="14.00">obj</text>
<polygon fill="none" stroke="black" points="272,-150 272,-171 300,-171 300,-150 272,-150"/>
<text text-anchor="start" x="275" y="-156.8" font-family="Times" font-size="14.00">dtor</text>
</g>
<!-- node4&#45;&gt;node10 -->
<g id="edge18" class="edge">
<title>node4&#45;&gt;node10</title>
<path fill="none" stroke="black" stroke-dasharray="5,2" d="M282.81,-527.88C278.68,-507.42 274,-478.6 274,-453 274,-453 274,-453 274,-257 274,-240.17 276.34,-221.64 278.95,-206.2"/>
<polygon fill="black" stroke="black" points="282.44,-206.52 280.77,-196.05 275.56,-205.28 282.44,-206.52"/>
</g>
<!-- node6 -->
<g id="node8" class="node">
<title>node6</title>
<polygon fill="#d4eacf" stroke="transparent" points="409,-441 409,-468 443,-468 443,-441 409,-441"/>
<polygon fill="none" stroke="black" points="409,-441 409,-468 443,-468 443,-441 409,-441"/>
<text text-anchor="start" x="412" y="-450.8" font-family="Times" font-size="14.00">other</text>
<polygon fill="#d4eacf" stroke="transparent" points="443,-441 443,-468 456,-468 456,-441 443,-441"/>
<polygon fill="none" stroke="black" points="443,-441 443,-468 456,-468 456,-441 443,-441"/>
<text text-anchor="start" x="446" y="-450.8" font-family="Times" font-size="14.00">2</text>
<polygon fill="#d4eacf" stroke="transparent" points="456,-441 456,-468 554,-468 554,-441 456,-441"/>
<polygon fill="none" stroke="black" points="456,-441 456,-468 554,-468 554,-441 456,-441"/>
<text text-anchor="start" x="462" y="-450.8" font-family="Times" font-size="14.00">0x7ffc0521fc10</text>
<polygon fill="none" stroke="black" points="409,-435 409,-441 554,-441 554,-435 409,-435"/>
</g>
<!-- node5&#45;&gt;node6 -->
<g id="edge10" class="edge">
<title>node5&#45;&gt;node6</title>
<path fill="none" stroke="black" stroke-dasharray="5,2" d="M426.83,-530.83C437.28,-515.82 450.74,-496.47 461.63,-480.82"/>
<polygon fill="black" stroke="black" points="464.54,-482.77 467.39,-472.56 458.8,-478.77 464.54,-482.77"/>
</g>
<!-- node5&#45;&gt;node7 -->
<g id="edge11" class="edge">
<title>node5&#45;&gt;node7</title>
<path fill="none" stroke="#278ec6" d="M393.88,-530.83C384.89,-517.33 373.56,-500.34 363.78,-485.67"/>
<polygon fill="#278ec6" stroke="#278ec6" points="366.69,-483.73 358.24,-477.35 360.87,-487.61 366.69,-483.73"/>
</g>
<!-- node8 -->
<g id="node10" class="node">
<title>node8</title>
<polygon fill="#d4eacf" stroke="transparent" points="372,-345 372,-372 406,-372 406,-345 372,-345"/>
<polygon fill="none" stroke="black" points="372,-345 372,-372 406,-372 406,-345 372,-345"/>
<text text-anchor="start" x="375" y="-354.8" font-family="Times" font-size="14.00">other</text>
<polygon fill="#d4eacf" stroke="transparent" points="406,-345 406,-372 419,-372 419,-345 406,-345"/>
<polygon fill="none" stroke="black" points="406,-345 406,-372 419,-372 419,-345 406,-345"/>
<text text-anchor="start" x="409" y="-354.8" font-family="Times" font-size="14.00">2</text>
<polygon fill="#d4eacf" stroke="transparent" points="419,-345 419,-372 517,-372 517,-345 419,-345"/>
<polygon fill="none" stroke="black" points="419,-345 419,-372 517,-372 517,-345 419,-345"/>
<text text-anchor="start" x="425" y="-354.8" font-family="Times" font-size="14.00">0x7ffc0521fc10</text>
<polygon fill="none" stroke="black" points="372,-324 372,-345 517,-345 517,-324 372,-324"/>
<text text-anchor="start" x="423.5" y="-330.8" font-family="Times" font-size="14.00">a string</text>
</g>
<!-- node6&#45;&gt;node8 -->
<g id="edge12" class="edge">
<title>node6&#45;&gt;node8</title>
<path fill="none" stroke="black" stroke-dasharray="5,2" d="M473.87,-431.33C469.21,-418.51 463,-401.38 457.44,-386.06"/>
<polygon fill="black" stroke="black" points="460.61,-384.52 453.91,-376.32 454.03,-386.91 460.61,-384.52"/>
</g>
<!-- node7&#45;&gt;node8 -->
<g id="edge13" class="edge">
<title>node7&#45;&gt;node8</title>
<path fill="none" stroke="#ee1c1c" d="M366.17,-426.83C379.12,-413.88 395.28,-397.72 409.52,-383.48"/>
<polygon fill="#ee1c1c" stroke="#ee1c1c" points="412.17,-385.78 416.76,-376.24 407.22,-380.83 412.17,-385.78"/>
<text text-anchor="start" x="396" y="-398.8" font-family="Times,serif" font-weight="bold" font-size="14.00" fill="#ee1c1c">COPY</text>
</g>
<!-- node9 -->
<g id="node11" class="node">
<title>node9</title>
<polygon fill="#d4eacf" stroke="transparent" points="318,-258 318,-279 352,-279 352,-258 318,-258"/>
<polygon fill="none" stroke="black" points="318,-258 318,-279 352,-279 352,-258 318,-258"/>
<text text-anchor="start" x="321" y="-264.8" font-family="Times" font-size="14.00">other</text>
<polygon fill="none" stroke="black" points="318,-237 318,-258 352,-258 352,-237 318,-237"/>
<text text-anchor="start" x="324" y="-243.8" font-family="Times" font-size="14.00">dtor</text>
</g>
<!-- node7&#45;&gt;node9 -->
<g id="edge15" class="edge">
<title>node7&#45;&gt;node9</title>
<path fill="none" stroke="#278ec6" d="M341.11,-426.68C339.88,-392.92 337.65,-331.69 336.25,-293.3"/>
<polygon fill="#278ec6" stroke="#278ec6" points="339.74,-292.99 335.88,-283.12 332.75,-293.24 339.74,-292.99"/>
</g>
<!-- node8&#45;&gt;node9 -->
<g id="edge16" class="edge">
<title>node8&#45;&gt;node9</title>
<path fill="none" stroke="black" stroke-dasharray="5,2" d="M410.41,-319.88C397.56,-309.51 382.89,-297.66 369.92,-287.19"/>
<polygon fill="black" stroke="black" points="372.08,-284.43 362.1,-280.88 367.68,-289.88 372.08,-284.43"/>
</g>
<!-- node9&#45;&gt;node10 -->
<g id="edge17" class="edge">
<title>node9&#45;&gt;node10</title>
<path fill="none" stroke="#278ec6" d="M321.09,-232.87C316.07,-224.17 310.32,-214.19 304.95,-204.87"/>
<polygon fill="#278ec6" stroke="#278ec6" points="307.97,-203.11 299.95,-196.19 301.91,-206.6 307.97,-203.11"/>
</g>
<!-- node11 -->
<g id="node13" class="node">
<title>node11</title>
<polygon fill="none" stroke="#3333ee" points="286,-109 248.13,-91 286,-73 323.87,-91 286,-109"/>
<text text-anchor="start" x="273.5" y="-87.3" font-family="Times" font-size="14.00">func</text>
</g>
<!-- node10&#45;&gt;node11 -->
<g id="edge19" class="edge">
<title>node10&#45;&gt;node11</title>
<path fill="none" stroke="#278ec6" d="M286,-145.75C286,-137.45 286,-128.1 286,-119.56"/>
<polygon fill="#278ec6" stroke="#278ec6" points="289.5,-119.3 286,-109.3 282.5,-119.3 289.5,-119.3"/>
</g>
<!-- node12 -->
<g id="node14" class="node">
<title>node12</title>
<polygon fill="none" stroke="#278ec6" points="238.34,0 333.66,0 367.61,-36 204.39,-36 238.34,0"/>
<text text-anchor="start" x="249.5" y="-14.3" font-family="Times,serif" font-size="14.00">End of log</text>
</g>
<!-- node11&#45;&gt;node12 -->
<g id="edge20" class="edge">
<title>node11&#45;&gt;node12</title>
<path fill="none" stroke="#278ec6" d="M286,-72.81C286,-64.79 286,-55.05 286,-46.07"/>
<polygon fill="#278ec6" stroke="#278ec6" points="289.5,-46.03 286,-36.03 282.5,-46.03 289.5,-46.03"/>
</g>
</g>
</svg>
