<?xml version="1.0" encoding="UTF-8" standalone="no"?>
<!DOCTYPE svg PUBLIC "-//W3C//DTD SVG 1.1//EN"
 "http://www.w3.org/Graphics/SVG/1.1/DTD/svg11.dtd">
<!-- Generated by graphviz version 2.43.0 (0)
 -->
<!-- Title: list Pages: 1 -->
<svg width="644pt" height="2187pt"
 viewBox="0.00 0.00 643.50 2187.00" xmlns="http://www.w3.org/2000/svg" xmlns:xlink="http://www.w3.org/1999/xlink">
<g id="graph0" class="graph" transform="scale(1 1) rotate(0) translate(4 2183)">
<title>list</title>
<polygon fill="white" stroke="transparent" points="-4,4 -4,-2183 639.5,-2183 639.5,4 -4,4"/>
<g id="clust1" class="cluster">
<title>cluster_beb</title>
<polygon fill="none" stroke="black" points="8,-2029 8,-2171 249,-2171 249,-2029 8,-2029"/>
<text text-anchor="middle" x="128.5" y="-2155.8" font-family="Times,serif" font-size="14.00">Legend</text>
</g>
<!-- key -->
<g id="node1" class="node">
<title>key</title>
<text text-anchor="start" x="27" y="-2122.3" font-family="Times,serif" font-size="14.00">action sequence</text>
<text text-anchor="start" x="88" y="-2103.3" font-family="Times,serif" font-size="14.00">var live</text>
<text text-anchor="start" x="72" y="-2084.3" font-family="Times,serif" font-size="14.00">a good op</text>
<text text-anchor="start" x="81" y="-2065.3" font-family="Times,serif" font-size="14.00">a bad op</text>
<text text-anchor="start" x="74" y="-2046.3" font-family="Times,serif" font-size="14.00">other ops</text>
</g>
<!-- key2 -->
<g id="node2" class="node">
<title>key2</title>
<text text-anchor="start" x="212" y="-2122.3" font-family="Times,serif" font-size="14.00"> </text>
<text text-anchor="start" x="212" y="-2103.3" font-family="Times,serif" font-size="14.00"> </text>
<text text-anchor="start" x="212" y="-2084.3" font-family="Times,serif" font-size="14.00"> </text>
<text text-anchor="start" x="212" y="-2065.3" font-family="Times,serif" font-size="14.00"> </text>
<text text-anchor="start" x="212" y="-2046.3" font-family="Times,serif" font-size="14.00"> </text>
</g>
<!-- key&#45;&gt;key2 -->
<g id="edge1" class="edge">
<title>key:e&#45;&gt;key2:w</title>
<path fill="none" stroke="#278ec6" d="M145,-2126.5C169.78,-2126.5 178.37,-2126.5 198.97,-2126.5"/>
<polygon fill="#278ec6" stroke="#278ec6" points="199,-2130 209,-2126.5 199,-2123 199,-2130"/>
</g>
<!-- key&#45;&gt;key2 -->
<g id="edge2" class="edge">
<title>key:e&#45;&gt;key2:w</title>
<path fill="none" stroke="black" stroke-dasharray="5,2" d="M145,-2107.5C169.78,-2107.5 178.37,-2107.5 198.97,-2107.5"/>
<polygon fill="black" stroke="black" points="199,-2111 209,-2107.5 199,-2104 199,-2111"/>
</g>
<!-- key&#45;&gt;key2 -->
<g id="edge3" class="edge">
<title>key:e&#45;&gt;key2:w</title>
<path fill="none" stroke="#108910" d="M145,-2087.5C169.78,-2087.5 178.37,-2087.5 198.97,-2087.5"/>
<polygon fill="#108910" stroke="#108910" points="199,-2091 209,-2087.5 199,-2084 199,-2091"/>
</g>
<!-- key&#45;&gt;key2 -->
<g id="edge4" class="edge">
<title>key:e&#45;&gt;key2:w</title>
<path fill="none" stroke="#ee1c1c" d="M145,-2068.5C169.78,-2068.5 178.37,-2068.5 198.97,-2068.5"/>
<polygon fill="#ee1c1c" stroke="#ee1c1c" points="199,-2072 209,-2068.5 199,-2065 199,-2072"/>
</g>
<!-- key&#45;&gt;key2 -->
<g id="edge5" class="edge">
<title>key:e&#45;&gt;key2:w</title>
<path fill="none" stroke="#691269" d="M145,-2049.5C169.78,-2049.5 178.37,-2049.5 198.97,-2049.5"/>
<polygon fill="#691269" stroke="#691269" points="199,-2053 209,-2049.5 199,-2046 199,-2053"/>
</g>
<!-- node1 -->
<g id="node3" class="node">
<title>node1</title>
<polygon fill="none" stroke="black" points="401.65,-2106.5 296.35,-2106.5 258.85,-2070.5 439.15,-2070.5 401.65,-2106.5"/>
<text text-anchor="start" x="308" y="-2084.8" font-family="Times,serif" font-size="14.00">Start of log</text>
</g>
<!-- node2 -->
<g id="node4" class="node">
<title>node2</title>
<polygon fill="none" stroke="#44cc44" points="349,-2000 311.13,-1982 349,-1964 386.87,-1982 349,-2000"/>
<text text-anchor="start" x="336.5" y="-1978.3" font-family="Times" font-size="14.00">func</text>
</g>
<!-- node1&#45;&gt;node2 -->
<g id="edge6" class="edge">
<title>node1&#45;&gt;node2</title>
<path fill="none" stroke="#278ec6" d="M349,-2070.24C349,-2053.98 349,-2029.35 349,-2010.4"/>
<polygon fill="#278ec6" stroke="#278ec6" points="352.5,-2010.28 349,-2000.28 345.5,-2010.28 352.5,-2010.28"/>
</g>
<!-- node3 -->
<g id="node5" class="node">
<title>node3</title>
<polygon fill="#d4eacf" stroke="transparent" points="335,-1902 335,-1923 363,-1923 363,-1902 335,-1902"/>
<polygon fill="none" stroke="black" points="335,-1902 335,-1923 363,-1923 363,-1902 335,-1902"/>
<text text-anchor="start" x="345.5" y="-1908.8" font-family="Times" font-size="14.00">a</text>
<polygon fill="none" stroke="black" points="335,-1881 335,-1902 363,-1902 363,-1881 335,-1881"/>
<text text-anchor="start" x="338" y="-1887.8" font-family="Times" font-size="14.00">ctor</text>
</g>
<!-- node2&#45;&gt;node3 -->
<g id="edge7" class="edge">
<title>node2&#45;&gt;node3</title>
<path fill="none" stroke="#278ec6" d="M349,-1963.69C349,-1955.86 349,-1946.33 349,-1937.16"/>
<polygon fill="#278ec6" stroke="#278ec6" points="352.5,-1937.07 349,-1927.07 345.5,-1937.07 352.5,-1937.07"/>
</g>
<!-- node4 -->
<g id="node6" class="node">
<title>node4</title>
<polygon fill="#d4eacf" stroke="transparent" points="245,-1722 245,-1749 258,-1749 258,-1722 245,-1722"/>
<polygon fill="none" stroke="black" points="245,-1722 245,-1749 258,-1749 258,-1722 245,-1722"/>
<text text-anchor="start" x="248" y="-1731.8" font-family="Times" font-size="14.00">a</text>
<polygon fill="#d4eacf" stroke="transparent" points="258,-1722 258,-1749 271,-1749 271,-1722 258,-1722"/>
<polygon fill="none" stroke="black" points="258,-1722 258,-1749 271,-1749 271,-1722 258,-1722"/>
<text text-anchor="start" x="261" y="-1731.8" font-family="Times" font-size="14.00">1</text>
<polygon fill="#d4eacf" stroke="transparent" points="271,-1722 271,-1749 370,-1749 370,-1722 271,-1722"/>
<polygon fill="none" stroke="black" points="271,-1722 271,-1749 370,-1749 370,-1722 271,-1722"/>
<text text-anchor="start" x="277" y="-1731.8" font-family="Times" font-size="14.00">0x7ffc13fd8030</text>
<polygon fill="none" stroke="black" points="245,-1701 245,-1722 370,-1722 370,-1701 245,-1701"/>
<text text-anchor="start" x="304" y="-1707.8" font-family="Times" font-size="14.00">3</text>
</g>
<!-- node3&#45;&gt;node4 -->
<g id="edge8" class="edge">
<title>node3&#45;&gt;node4</title>
<path fill="none" stroke="black" stroke-dasharray="5,2" d="M343.16,-1876.67C336.11,-1847.3 324.19,-1797.62 315.97,-1763.38"/>
<polygon fill="black" stroke="black" points="319.29,-1762.2 313.55,-1753.29 312.48,-1763.83 319.29,-1762.2"/>
</g>
<!-- node5 -->
<g id="node7" class="node">
<title>node5</title>
<polygon fill="#d4eacf" stroke="transparent" points="414,-1815 414,-1836 442,-1836 442,-1815 414,-1815"/>
<polygon fill="none" stroke="black" points="414,-1815 414,-1836 442,-1836 442,-1815 414,-1815"/>
<text text-anchor="start" x="424.5" y="-1821.8" font-family="Times" font-size="14.00">b</text>
<polygon fill="none" stroke="black" points="414,-1794 414,-1815 442,-1815 442,-1794 414,-1794"/>
<text text-anchor="start" x="417" y="-1800.8" font-family="Times" font-size="14.00">ctor</text>
</g>
<!-- node3&#45;&gt;node5 -->
<g id="edge9" class="edge">
<title>node3&#45;&gt;node5</title>
<path fill="none" stroke="#278ec6" d="M371.43,-1876.87C379.85,-1867.81 389.55,-1857.37 398.52,-1847.72"/>
<polygon fill="#278ec6" stroke="#278ec6" points="401.27,-1849.9 405.52,-1840.19 396.15,-1845.13 401.27,-1849.9"/>
</g>
<!-- node9 -->
<g id="node11" class="node">
<title>node9</title>
<polygon fill="#d4eacf" stroke="transparent" points="239,-1635 239,-1656 266,-1656 266,-1635 239,-1635"/>
<polygon fill="none" stroke="black" points="239,-1635 239,-1656 266,-1656 266,-1635 239,-1635"/>
<text text-anchor="start" x="249" y="-1641.8" font-family="Times" font-size="14.00">a</text>
<polygon fill="none" stroke="black" points="239,-1614 239,-1635 266,-1635 266,-1614 239,-1614"/>
<text text-anchor="start" x="242" y="-1620.8" font-family="Times" font-size="14.00">.++</text>
</g>
<!-- node4&#45;&gt;node9 -->
<g id="edge14" class="edge">
<title>node4&#45;&gt;node9</title>
<path fill="none" stroke="#691269" d="M289.9,-1696.64C284.36,-1687.77 278.15,-1677.84 272.39,-1668.63"/>
<polygon fill="#691269" stroke="#691269" points="275.31,-1666.69 267.04,-1660.07 269.37,-1670.4 275.31,-1666.69"/>
</g>
<!-- node10 -->
<g id="node12" class="node">
<title>node10</title>
<polygon fill="#d4eacf" stroke="transparent" points="190,-1542 190,-1569 203,-1569 203,-1542 190,-1542"/>
<polygon fill="none" stroke="black" points="190,-1542 190,-1569 203,-1569 203,-1542 190,-1542"/>
<text text-anchor="start" x="193" y="-1551.8" font-family="Times" font-size="14.00">a</text>
<polygon fill="#d4eacf" stroke="transparent" points="203,-1542 203,-1569 216,-1569 216,-1542 203,-1542"/>
<polygon fill="none" stroke="black" points="203,-1542 203,-1569 216,-1569 216,-1542 203,-1542"/>
<text text-anchor="start" x="206" y="-1551.8" font-family="Times" font-size="14.00">1</text>
<polygon fill="#d4eacf" stroke="transparent" points="216,-1542 216,-1569 315,-1569 315,-1542 216,-1542"/>
<polygon fill="none" stroke="black" points="216,-1542 216,-1569 315,-1569 315,-1542 216,-1542"/>
<text text-anchor="start" x="222" y="-1551.8" font-family="Times" font-size="14.00">0x7ffc13fd8030</text>
<polygon fill="none" stroke="black" points="190,-1521 190,-1542 315,-1542 315,-1521 190,-1521"/>
<text text-anchor="start" x="249" y="-1527.8" font-family="Times" font-size="14.00">3</text>
</g>
<!-- node4&#45;&gt;node10 -->
<g id="edge16" class="edge">
<title>node4&#45;&gt;node10</title>
<path fill="none" stroke="black" stroke-dasharray="5,2" d="M305.11,-1696.62C302.87,-1673.1 298.07,-1638.58 288,-1610 284.67,-1600.54 279.98,-1590.85 275.09,-1581.97"/>
<polygon fill="black" stroke="black" points="277.98,-1579.97 269.97,-1573.04 271.91,-1583.46 277.98,-1579.97"/>
</g>
<!-- node6 -->
<g id="node8" class="node">
<title>node6</title>
<polygon fill="#d4eacf" stroke="transparent" points="503,-606 503,-633 516,-633 516,-606 503,-606"/>
<polygon fill="none" stroke="black" points="503,-606 503,-633 516,-633 516,-606 503,-606"/>
<text text-anchor="start" x="506" y="-615.8" font-family="Times" font-size="14.00">b</text>
<polygon fill="#d4eacf" stroke="transparent" points="516,-606 516,-633 529,-633 529,-606 516,-606"/>
<polygon fill="none" stroke="black" points="516,-606 516,-633 529,-633 529,-606 516,-606"/>
<text text-anchor="start" x="519" y="-615.8" font-family="Times" font-size="14.00">2</text>
<polygon fill="#d4eacf" stroke="transparent" points="529,-606 529,-633 628,-633 628,-606 529,-606"/>
<polygon fill="none" stroke="black" points="529,-606 529,-633 628,-633 628,-606 529,-606"/>
<text text-anchor="start" x="535" y="-615.8" font-family="Times" font-size="14.00">0x7ffc13fd8090</text>
<polygon fill="none" stroke="black" points="503,-585 503,-606 628,-606 628,-585 503,-585"/>
<text text-anchor="start" x="562" y="-591.8" font-family="Times" font-size="14.00">3</text>
</g>
<!-- node5&#45;&gt;node6 -->
<g id="edge10" class="edge">
<title>node5&#45;&gt;node6</title>
<path fill="none" stroke="black" stroke-dasharray="5,2" d="M455.07,-1809.23C494.99,-1800.47 565,-1777.73 565,-1726 565,-1726 565,-1726 565,-712 565,-690.63 565,-666.75 565,-647.47"/>
<polygon fill="black" stroke="black" points="568.5,-647.27 565,-637.27 561.5,-647.27 568.5,-647.27"/>
</g>
<!-- node7 -->
<g id="node9" class="node">
<title>node7</title>
<polygon fill="#d4eacf" stroke="transparent" points="414,-1725 414,-1746 442,-1746 442,-1725 414,-1725"/>
<polygon fill="none" stroke="black" points="414,-1725 414,-1746 442,-1746 442,-1725 414,-1725"/>
<text text-anchor="start" x="424.5" y="-1731.8" font-family="Times" font-size="14.00">c</text>
<polygon fill="none" stroke="black" points="414,-1704 414,-1725 442,-1725 442,-1704 414,-1704"/>
<text text-anchor="start" x="417" y="-1710.8" font-family="Times" font-size="14.00">ctor</text>
</g>
<!-- node5&#45;&gt;node7 -->
<g id="edge11" class="edge">
<title>node5&#45;&gt;node7</title>
<path fill="none" stroke="#278ec6" d="M428,-1789.95C428,-1780.74 428,-1770.04 428,-1760.06"/>
<polygon fill="#278ec6" stroke="#278ec6" points="431.5,-1760.02 428,-1750.02 424.5,-1760.02 431.5,-1760.02"/>
</g>
<!-- node24 -->
<g id="node26" class="node">
<title>node24</title>
<polygon fill="#d4eacf" stroke="transparent" points="385,-258 385,-279 413,-279 413,-258 385,-258"/>
<polygon fill="none" stroke="black" points="385,-258 385,-279 413,-279 413,-258 385,-258"/>
<text text-anchor="start" x="395.5" y="-264.8" font-family="Times" font-size="14.00">b</text>
<polygon fill="none" stroke="black" points="385,-237 385,-258 413,-258 413,-237 385,-237"/>
<text text-anchor="start" x="388" y="-243.8" font-family="Times" font-size="14.00">dtor</text>
</g>
<!-- node6&#45;&gt;node24 -->
<g id="edge42" class="edge">
<title>node6&#45;&gt;node24</title>
<path fill="none" stroke="black" stroke-dasharray="5,2" d="M550.04,-580.72C542.12,-563.77 534,-541.22 534,-520 534,-520 534,-520 534,-344 534,-297.63 476.26,-275.56 436.3,-265.83"/>
<polygon fill="black" stroke="black" points="436.85,-262.37 426.32,-263.57 435.3,-269.19 436.85,-262.37"/>
</g>
<!-- node8 -->
<g id="node10" class="node">
<title>node8</title>
<polygon fill="#d4eacf" stroke="transparent" points="406,-1081 406,-1108 419,-1108 419,-1081 406,-1081"/>
<polygon fill="none" stroke="black" points="406,-1081 406,-1108 419,-1108 419,-1081 406,-1081"/>
<text text-anchor="start" x="409" y="-1090.8" font-family="Times" font-size="14.00">c</text>
<polygon fill="#d4eacf" stroke="transparent" points="419,-1081 419,-1108 432,-1108 432,-1081 419,-1081"/>
<polygon fill="none" stroke="black" points="419,-1081 419,-1108 432,-1108 432,-1081 419,-1081"/>
<text text-anchor="start" x="422" y="-1090.8" font-family="Times" font-size="14.00">3</text>
<polygon fill="#d4eacf" stroke="transparent" points="432,-1081 432,-1108 529,-1108 529,-1081 432,-1081"/>
<polygon fill="none" stroke="black" points="432,-1081 432,-1108 529,-1108 529,-1081 432,-1081"/>
<text text-anchor="start" x="438" y="-1090.8" font-family="Times" font-size="14.00">0x7ffc13fd80f0</text>
<polygon fill="none" stroke="black" points="406,-1060 406,-1081 529,-1081 529,-1060 406,-1060"/>
<text text-anchor="start" x="464" y="-1066.8" font-family="Times" font-size="14.00">3</text>
</g>
<!-- node7&#45;&gt;node8 -->
<g id="edge12" class="edge">
<title>node7&#45;&gt;node8</title>
<path fill="none" stroke="black" stroke-dasharray="5,2" d="M431.82,-1699.79C434.27,-1682.15 437,-1657.65 437,-1636 437,-1636 437,-1636 437,-1173 437,-1155.49 442.39,-1137.02 448.6,-1121.54"/>
<polygon fill="black" stroke="black" points="451.82,-1122.9 452.53,-1112.33 445.38,-1120.15 451.82,-1122.9"/>
</g>
<!-- node7&#45;&gt;node9 -->
<g id="edge13" class="edge">
<title>node7&#45;&gt;node9</title>
<path fill="none" stroke="#278ec6" d="M400.58,-1705.09C396.11,-1702.26 391.48,-1699.47 387,-1697 354.65,-1679.19 316.13,-1662.17 288.53,-1650.66"/>
<polygon fill="#278ec6" stroke="#278ec6" points="289.83,-1647.41 279.25,-1646.82 287.15,-1653.87 289.83,-1647.41"/>
</g>
<!-- node16 -->
<g id="node18" class="node">
<title>node16</title>
<polygon fill="#d4eacf" stroke="transparent" points="341,-994 341,-1015 354,-1015 354,-994 341,-994"/>
<polygon fill="none" stroke="black" points="341,-994 341,-1015 354,-1015 354,-994 341,-994"/>
<text text-anchor="start" x="344" y="-1000.8" font-family="Times" font-size="14.00">c</text>
<polygon fill="#eacfcf" stroke="transparent" points="354,-994 354,-1015 397,-1015 397,-994 354,-994"/>
<polygon fill="none" stroke="black" points="354,-994 354,-1015 397,-1015 397,-994 354,-994"/>
<text text-anchor="start" x="357" y="-1000.8" font-family="Times" font-size="14.00">TMP2</text>
<polygon fill="none" stroke="black" points="341,-973 341,-994 397,-994 397,-973 341,-973"/>
<text text-anchor="start" x="365.5" y="-979.8" font-family="Times" font-size="14.00">*</text>
</g>
<!-- node8&#45;&gt;node16 -->
<g id="edge26" class="edge">
<title>node8&#45;&gt;node16</title>
<path fill="none" stroke="#691269" d="M436.8,-1055.88C426.3,-1046.45 414.44,-1035.8 403.61,-1026.08"/>
<polygon fill="#691269" stroke="#691269" points="405.72,-1023.27 395.95,-1019.2 401.05,-1028.48 405.72,-1023.27"/>
</g>
<!-- node23 -->
<g id="node25" class="node">
<title>node23</title>
<polygon fill="#d4eacf" stroke="transparent" points="385,-345 385,-366 413,-366 413,-345 385,-345"/>
<polygon fill="none" stroke="black" points="385,-345 385,-366 413,-366 413,-345 385,-345"/>
<text text-anchor="start" x="395.5" y="-351.8" font-family="Times" font-size="14.00">c</text>
<polygon fill="none" stroke="black" points="385,-324 385,-345 413,-345 413,-324 385,-324"/>
<text text-anchor="start" x="388" y="-330.8" font-family="Times" font-size="14.00">dtor</text>
</g>
<!-- node8&#45;&gt;node23 -->
<g id="edge40" class="edge">
<title>node8&#45;&gt;node23</title>
<path fill="none" stroke="black" stroke-dasharray="5,2" d="M466.53,-1055.65C466.27,-1038.28 466,-1015.32 466,-995 466,-995 466,-995 466,-431 466,-407.75 450.34,-387.11 434.17,-372"/>
<polygon fill="black" stroke="black" points="436.07,-369.01 426.25,-365.04 431.45,-374.27 436.07,-369.01"/>
</g>
<!-- node9&#45;&gt;node10 -->
<g id="edge15" class="edge">
<title>node9&#45;&gt;node10</title>
<path fill="none" stroke="#691269" d="M252,-1609.95C252,-1601.76 252,-1592.4 252,-1583.41"/>
<polygon fill="#691269" stroke="#691269" points="255.5,-1583.12 252,-1573.12 248.5,-1583.12 255.5,-1583.12"/>
</g>
<!-- node11 -->
<g id="node13" class="node">
<title>node11</title>
<polygon fill="#eacfcf" stroke="transparent" points="200,-1441 200,-1462 245,-1462 245,-1441 200,-1441"/>
<polygon fill="none" stroke="black" points="200,-1441 200,-1462 245,-1462 245,-1441 200,-1441"/>
<text text-anchor="start" x="204" y="-1447.8" font-family="Times" font-size="14.00">TMP1</text>
<polygon fill="#d4eacf" stroke="transparent" points="245,-1441 245,-1462 261,-1462 261,-1441 245,-1441"/>
<polygon fill="none" stroke="black" points="245,-1441 245,-1462 261,-1462 261,-1441 245,-1441"/>
<text text-anchor="start" x="249.5" y="-1447.8" font-family="Times" font-size="14.00">a</text>
<polygon fill="none" stroke="black" points="200,-1420 200,-1441 261,-1441 261,-1420 200,-1420"/>
<text text-anchor="start" x="203" y="-1426.8" font-family="Times" font-size="14.00">ctor_copy</text>
</g>
<!-- node9&#45;&gt;node11 -->
<g id="edge17" class="edge">
<title>node9&#45;&gt;node11</title>
<path fill="none" stroke="#278ec6" d="M224.69,-1621.49C206.08,-1611.33 182.93,-1595.07 172,-1573 160.96,-1550.69 163.96,-1540.55 172,-1517 177.37,-1501.28 187.51,-1486.31 197.84,-1473.92"/>
<polygon fill="#278ec6" stroke="#278ec6" points="200.66,-1476.02 204.6,-1466.18 195.39,-1471.41 200.66,-1476.02"/>
</g>
<!-- node10&#45;&gt;node11 -->
<g id="edge18" class="edge">
<title>node10&#45;&gt;node11</title>
<path fill="none" stroke="#ee1c1c" d="M246.16,-1516.93C243.44,-1504.33 240.18,-1489.2 237.3,-1475.85"/>
<polygon fill="#ee1c1c" stroke="#ee1c1c" points="240.72,-1475.09 235.19,-1466.06 233.88,-1476.57 240.72,-1475.09"/>
<text text-anchor="start" x="242" y="-1488.8" font-family="Times,serif" font-weight="bold" font-size="14.00" fill="#ee1c1c">COPY</text>
</g>
<!-- node13 -->
<g id="node15" class="node">
<title>node13</title>
<polygon fill="#eacfcf" stroke="transparent" points="303,-1261 303,-1282 346,-1282 346,-1261 303,-1261"/>
<polygon fill="none" stroke="black" points="303,-1261 303,-1282 346,-1282 346,-1261 303,-1261"/>
<text text-anchor="start" x="306" y="-1267.8" font-family="Times" font-size="14.00">TMP1</text>
<polygon fill="#d4eacf" stroke="transparent" points="346,-1261 346,-1282 359,-1282 359,-1261 346,-1261"/>
<polygon fill="none" stroke="black" points="346,-1261 346,-1282 359,-1282 359,-1261 346,-1261"/>
<text text-anchor="start" x="349" y="-1267.8" font-family="Times" font-size="14.00">a</text>
<polygon fill="none" stroke="black" points="303,-1240 303,-1261 359,-1261 359,-1240 303,-1240"/>
<text text-anchor="start" x="326.5" y="-1246.8" font-family="Times" font-size="14.00">+</text>
</g>
<!-- node10&#45;&gt;node13 -->
<g id="edge22" class="edge">
<title>node10&#45;&gt;node13</title>
<path fill="none" stroke="#691269" d="M277.69,-1516.54C282.16,-1510.99 286.48,-1505 290,-1499 318.8,-1449.85 320.73,-1434.14 335,-1379 343.44,-1346.38 351.75,-1337.2 346,-1304 345.53,-1301.3 344.91,-1298.55 344.18,-1295.81"/>
<polygon fill="#691269" stroke="#691269" points="347.46,-1294.58 341.18,-1286.05 340.77,-1296.64 347.46,-1294.58"/>
</g>
<!-- node25 -->
<g id="node27" class="node">
<title>node25</title>
<polygon fill="#d4eacf" stroke="transparent" points="101,-171 101,-192 129,-192 129,-171 101,-171"/>
<polygon fill="none" stroke="black" points="101,-171 101,-192 129,-192 129,-171 101,-171"/>
<text text-anchor="start" x="111.5" y="-177.8" font-family="Times" font-size="14.00">a</text>
<polygon fill="none" stroke="black" points="101,-150 101,-171 129,-171 129,-150 101,-150"/>
<text text-anchor="start" x="104" y="-156.8" font-family="Times" font-size="14.00">dtor</text>
</g>
<!-- node10&#45;&gt;node25 -->
<g id="edge44" class="edge">
<title>node10&#45;&gt;node25</title>
<path fill="none" stroke="black" stroke-dasharray="5,2" d="M181.43,-1524.69C142.92,-1509.4 103,-1483.54 103,-1442 103,-1442 103,-1442 103,-257 103,-240.17 105.34,-221.64 107.95,-206.2"/>
<polygon fill="black" stroke="black" points="111.44,-206.52 109.77,-196.05 104.56,-205.28 111.44,-206.52"/>
</g>
<!-- node12 -->
<g id="node14" class="node">
<title>node12</title>
<polygon fill="#eacfcf" stroke="transparent" points="140,-1348 140,-1375 183,-1375 183,-1348 140,-1348"/>
<polygon fill="none" stroke="black" points="140,-1348 140,-1375 183,-1375 183,-1348 140,-1348"/>
<text text-anchor="start" x="143" y="-1357.8" font-family="Times" font-size="14.00">TMP1</text>
<polygon fill="#eacfcf" stroke="transparent" points="183,-1348 183,-1375 196,-1375 196,-1348 183,-1348"/>
<polygon fill="none" stroke="black" points="183,-1348 183,-1375 196,-1375 196,-1348 183,-1348"/>
<text text-anchor="start" x="186" y="-1357.8" font-family="Times" font-size="14.00">4</text>
<polygon fill="#eacfcf" stroke="transparent" points="196,-1348 196,-1375 295,-1375 295,-1348 196,-1348"/>
<polygon fill="none" stroke="black" points="196,-1348 196,-1375 295,-1375 295,-1348 196,-1348"/>
<text text-anchor="start" x="202" y="-1357.8" font-family="Times" font-size="14.00">0x7ffc13fd8150</text>
<polygon fill="none" stroke="black" points="140,-1327 140,-1348 295,-1348 295,-1327 140,-1327"/>
<text text-anchor="start" x="214" y="-1333.8" font-family="Times" font-size="14.00">3</text>
</g>
<!-- node11&#45;&gt;node12 -->
<g id="edge19" class="edge">
<title>node11&#45;&gt;node12</title>
<path fill="none" stroke="black" stroke-dasharray="5,2" d="M226.45,-1415.95C225.22,-1407.67 223.82,-1398.19 222.48,-1389.11"/>
<polygon fill="black" stroke="black" points="225.93,-1388.5 221.01,-1379.12 219.01,-1389.53 225.93,-1388.5"/>
</g>
<!-- node11&#45;&gt;node13 -->
<g id="edge20" class="edge">
<title>node11&#45;&gt;node13</title>
<path fill="none" stroke="#278ec6" d="M268.73,-1419.52C284.25,-1409.37 300.83,-1395.69 311,-1379 326.13,-1354.17 330.66,-1321.16 331.67,-1296.54"/>
<polygon fill="#278ec6" stroke="#278ec6" points="335.18,-1296.29 331.92,-1286.21 328.18,-1296.12 335.18,-1296.29"/>
</g>
<!-- node12&#45;&gt;node13 -->
<g id="edge21" class="edge">
<title>node12&#45;&gt;node13</title>
<path fill="none" stroke="#691269" d="M252.13,-1322.88C264.58,-1313.27 278.68,-1302.39 291.47,-1292.52"/>
<polygon fill="#691269" stroke="#691269" points="293.88,-1295.08 299.66,-1286.2 289.6,-1289.54 293.88,-1295.08"/>
</g>
<!-- node22 -->
<g id="node24" class="node">
<title>node22</title>
<polygon fill="#eacfcf" stroke="transparent" points="213,-432 213,-453 256,-453 256,-432 213,-432"/>
<polygon fill="none" stroke="black" points="213,-432 213,-453 256,-453 256,-432 213,-432"/>
<text text-anchor="start" x="216" y="-438.8" font-family="Times" font-size="14.00">TMP1</text>
<polygon fill="none" stroke="black" points="213,-411 213,-432 256,-432 256,-411 213,-411"/>
<text text-anchor="start" x="223.5" y="-417.8" font-family="Times" font-size="14.00">dtor</text>
</g>
<!-- node12&#45;&gt;node22 -->
<g id="edge38" class="edge">
<title>node12&#45;&gt;node22</title>
<path fill="none" stroke="black" stroke-dasharray="5,2" d="M175.89,-1322.77C157.98,-1307.42 141,-1286.43 141,-1262 141,-1262 141,-1262 141,-518 141,-486.93 169.64,-464.17 195.13,-450.06"/>
<polygon fill="black" stroke="black" points="197.08,-452.99 204.32,-445.26 193.83,-446.79 197.08,-452.99"/>
</g>
<!-- node14 -->
<g id="node16" class="node">
<title>node14</title>
<polygon fill="#eacfcf" stroke="transparent" points="310,-1174 310,-1195 353,-1195 353,-1174 310,-1174"/>
<polygon fill="none" stroke="black" points="310,-1174 310,-1195 353,-1195 353,-1174 310,-1174"/>
<text text-anchor="start" x="313" y="-1180.8" font-family="Times" font-size="14.00">TMP2</text>
<polygon fill="none" stroke="black" points="310,-1153 310,-1174 353,-1174 353,-1153 310,-1153"/>
<text text-anchor="start" x="320.5" y="-1159.8" font-family="Times" font-size="14.00">ctor</text>
</g>
<!-- node13&#45;&gt;node14 -->
<g id="edge23" class="edge">
<title>node13&#45;&gt;node14</title>
<path fill="none" stroke="#278ec6" d="M331,-1235.87C331,-1227.61 331,-1218.22 331,-1209.31"/>
<polygon fill="#278ec6" stroke="#278ec6" points="334.5,-1209.19 331,-1199.19 327.5,-1209.19 334.5,-1209.19"/>
</g>
<!-- node15 -->
<g id="node17" class="node">
<title>node15</title>
<polygon fill="#eacfcf" stroke="transparent" points="178,-1081 178,-1108 221,-1108 221,-1081 178,-1081"/>
<polygon fill="none" stroke="black" points="178,-1081 178,-1108 221,-1108 221,-1081 178,-1081"/>
<text text-anchor="start" x="181" y="-1090.8" font-family="Times" font-size="14.00">TMP2</text>
<polygon fill="#eacfcf" stroke="transparent" points="221,-1081 221,-1108 234,-1108 234,-1081 221,-1081"/>
<polygon fill="none" stroke="black" points="221,-1081 221,-1108 234,-1108 234,-1081 221,-1081"/>
<text text-anchor="start" x="224" y="-1090.8" font-family="Times" font-size="14.00">5</text>
<polygon fill="#eacfcf" stroke="transparent" points="234,-1081 234,-1108 333,-1108 333,-1081 234,-1081"/>
<polygon fill="none" stroke="black" points="234,-1081 234,-1108 333,-1108 333,-1081 234,-1081"/>
<text text-anchor="start" x="240" y="-1090.8" font-family="Times" font-size="14.00">0x7ffc13fd81b0</text>
<polygon fill="none" stroke="black" points="178,-1060 178,-1081 333,-1081 333,-1060 178,-1060"/>
<text text-anchor="start" x="252" y="-1066.8" font-family="Times" font-size="14.00">7</text>
</g>
<!-- node14&#45;&gt;node15 -->
<g id="edge24" class="edge">
<title>node14&#45;&gt;node15</title>
<path fill="none" stroke="black" stroke-dasharray="5,2" d="M310.23,-1148.95C302.46,-1139.96 293.48,-1129.55 285.04,-1119.78"/>
<polygon fill="black" stroke="black" points="287.61,-1117.4 278.42,-1112.12 282.31,-1121.98 287.61,-1117.4"/>
</g>
<!-- node14&#45;&gt;node16 -->
<g id="edge25" class="edge">
<title>node14&#45;&gt;node16</title>
<path fill="none" stroke="#278ec6" d="M338.84,-1148.83C342.27,-1137.7 346.15,-1124.26 349,-1112 355.39,-1084.5 360.66,-1052.92 364.19,-1029.51"/>
<polygon fill="#278ec6" stroke="#278ec6" points="367.69,-1029.77 365.69,-1019.37 360.77,-1028.75 367.69,-1029.77"/>
</g>
<!-- node15&#45;&gt;node16 -->
<g id="edge27" class="edge">
<title>node15&#45;&gt;node16</title>
<path fill="none" stroke="#691269" d="M290.13,-1055.88C302.58,-1046.27 316.68,-1035.39 329.47,-1025.52"/>
<polygon fill="#691269" stroke="#691269" points="331.88,-1028.08 337.66,-1019.2 327.6,-1022.54 331.88,-1028.08"/>
</g>
<!-- node21 -->
<g id="node23" class="node">
<title>node21</title>
<polygon fill="#eacfcf" stroke="transparent" points="213,-519 213,-540 256,-540 256,-519 213,-519"/>
<polygon fill="none" stroke="black" points="213,-519 213,-540 256,-540 256,-519 213,-519"/>
<text text-anchor="start" x="216" y="-525.8" font-family="Times" font-size="14.00">TMP2</text>
<polygon fill="none" stroke="black" points="213,-498 213,-519 256,-519 256,-498 213,-498"/>
<text text-anchor="start" x="223.5" y="-504.8" font-family="Times" font-size="14.00">dtor</text>
</g>
<!-- node15&#45;&gt;node21 -->
<g id="edge36" class="edge">
<title>node15&#45;&gt;node21</title>
<path fill="none" stroke="black" stroke-dasharray="5,2" d="M227.18,-1055.91C213.54,-1039.72 200,-1017.88 200,-995 200,-995 200,-995 200,-608 200,-588.97 207,-569.08 214.65,-553.04"/>
<polygon fill="black" stroke="black" points="217.8,-554.58 219.19,-544.08 211.55,-551.42 217.8,-554.58"/>
</g>
<!-- node17 -->
<g id="node19" class="node">
<title>node17</title>
<polygon fill="#eacfcf" stroke="transparent" points="348,-907 348,-928 391,-928 391,-907 348,-907"/>
<polygon fill="none" stroke="black" points="348,-907 348,-928 391,-928 391,-907 348,-907"/>
<text text-anchor="start" x="351" y="-913.8" font-family="Times" font-size="14.00">TMP3</text>
<polygon fill="none" stroke="black" points="348,-886 348,-907 391,-907 391,-886 348,-886"/>
<text text-anchor="start" x="358.5" y="-892.8" font-family="Times" font-size="14.00">ctor</text>
</g>
<!-- node16&#45;&gt;node17 -->
<g id="edge28" class="edge">
<title>node16&#45;&gt;node17</title>
<path fill="none" stroke="#278ec6" d="M369,-968.87C369,-960.61 369,-951.22 369,-942.31"/>
<polygon fill="#278ec6" stroke="#278ec6" points="372.5,-942.19 369,-932.19 365.5,-942.19 372.5,-942.19"/>
</g>
<!-- node18 -->
<g id="node20" class="node">
<title>node18</title>
<polygon fill="#eacfcf" stroke="transparent" points="237,-814 237,-841 280,-841 280,-814 237,-814"/>
<polygon fill="none" stroke="black" points="237,-814 237,-841 280,-841 280,-814 237,-814"/>
<text text-anchor="start" x="240" y="-823.8" font-family="Times" font-size="14.00">TMP3</text>
<polygon fill="#eacfcf" stroke="transparent" points="280,-814 280,-841 293,-841 293,-814 280,-814"/>
<polygon fill="none" stroke="black" points="280,-814 280,-841 293,-841 293,-814 280,-814"/>
<text text-anchor="start" x="283" y="-823.8" font-family="Times" font-size="14.00">6</text>
<polygon fill="#eacfcf" stroke="transparent" points="293,-814 293,-841 392,-841 392,-814 293,-814"/>
<polygon fill="none" stroke="black" points="293,-814 293,-841 392,-841 392,-814 293,-814"/>
<text text-anchor="start" x="299" y="-823.8" font-family="Times" font-size="14.00">0x7ffc13fd8210</text>
<polygon fill="none" stroke="black" points="237,-793 237,-814 392,-814 392,-793 237,-793"/>
<text text-anchor="start" x="307.5" y="-799.8" font-family="Times" font-size="14.00">21</text>
</g>
<!-- node17&#45;&gt;node18 -->
<g id="edge29" class="edge">
<title>node17&#45;&gt;node18</title>
<path fill="none" stroke="black" stroke-dasharray="5,2" d="M353.97,-881.95C348.52,-873.23 342.23,-863.17 336.28,-853.65"/>
<polygon fill="black" stroke="black" points="339.22,-851.75 330.95,-845.12 333.28,-855.46 339.22,-851.75"/>
</g>
<!-- node19 -->
<g id="node21" class="node">
<title>node19</title>
<polygon fill="#d4eacf" stroke="transparent" points="354,-713 354,-734 373,-734 373,-713 354,-713"/>
<polygon fill="none" stroke="black" points="354,-713 354,-734 373,-734 373,-713 354,-713"/>
<text text-anchor="start" x="360" y="-719.8" font-family="Times" font-size="14.00">b</text>
<polygon fill="#eacfcf" stroke="transparent" points="373,-713 373,-734 423,-734 423,-713 373,-713"/>
<polygon fill="none" stroke="black" points="373,-713 373,-734 423,-734 423,-713 373,-713"/>
<text text-anchor="start" x="379.5" y="-719.8" font-family="Times" font-size="14.00">TMP3</text>
<polygon fill="none" stroke="black" points="354,-692 354,-713 423,-713 423,-692 354,-692"/>
<text text-anchor="start" x="357" y="-698.8" font-family="Times" font-size="14.00">asgn_move</text>
</g>
<!-- node17&#45;&gt;node19 -->
<g id="edge30" class="edge">
<title>node17&#45;&gt;node19</title>
<path fill="none" stroke="#278ec6" d="M389.51,-881.84C397.21,-871.25 405.05,-858.23 409,-845 420.32,-807.08 415.71,-794.37 406,-756 405.33,-753.35 404.51,-750.66 403.6,-747.97"/>
<polygon fill="#278ec6" stroke="#278ec6" points="406.8,-746.54 399.99,-738.42 400.26,-749.02 406.8,-746.54"/>
</g>
<!-- node18&#45;&gt;node19 -->
<g id="edge32" class="edge">
<title>node18&#45;&gt;node19</title>
<path fill="none" stroke="#108910" d="M333.64,-788.93C343.14,-775.84 354.62,-760.01 364.58,-746.29"/>
<polygon fill="#108910" stroke="#108910" points="367.51,-748.21 370.55,-738.06 361.84,-744.1 367.51,-748.21"/>
<text text-anchor="start" x="356" y="-759.8" font-family="Times,serif" font-size="14.00" fill="#108910">MOVE</text>
</g>
<!-- node20 -->
<g id="node22" class="node">
<title>node20</title>
<polygon fill="#eacfcf" stroke="transparent" points="293,-609 293,-630 336,-630 336,-609 293,-609"/>
<polygon fill="none" stroke="black" points="293,-609 293,-630 336,-630 336,-609 293,-609"/>
<text text-anchor="start" x="296" y="-615.8" font-family="Times" font-size="14.00">TMP3</text>
<polygon fill="none" stroke="black" points="293,-588 293,-609 336,-609 336,-588 293,-588"/>
<text text-anchor="start" x="303.5" y="-594.8" font-family="Times" font-size="14.00">dtor</text>
</g>
<!-- node18&#45;&gt;node20 -->
<g id="edge34" class="edge">
<title>node18&#45;&gt;node20</title>
<path fill="none" stroke="black" stroke-dasharray="5,2" d="M314,-788.64C314,-751.47 314,-685 314,-644.46"/>
<polygon fill="black" stroke="black" points="317.5,-644.26 314,-634.26 310.5,-644.26 317.5,-644.26"/>
</g>
<!-- node19&#45;&gt;node6 -->
<g id="edge31" class="edge">
<title>node19&#45;&gt;node6</title>
<path fill="none" stroke="#108910" d="M429.95,-687.83C453.63,-674.18 483.53,-656.95 509.18,-642.17"/>
<polygon fill="#108910" stroke="#108910" points="511.14,-645.08 518.06,-637.05 507.64,-639.01 511.14,-645.08"/>
<text text-anchor="start" x="481" y="-658.8" font-family="Times,serif" font-size="14.00" fill="#108910">TO</text>
</g>
<!-- node19&#45;&gt;node20 -->
<g id="edge33" class="edge">
<title>node19&#45;&gt;node20</title>
<path fill="none" stroke="#278ec6" d="M370.46,-687.83C360.67,-674.33 348.34,-657.34 337.7,-642.67"/>
<polygon fill="#278ec6" stroke="#278ec6" points="340.37,-640.39 331.67,-634.35 334.71,-644.5 340.37,-640.39"/>
</g>
<!-- node20&#45;&gt;node21 -->
<g id="edge35" class="edge">
<title>node20&#45;&gt;node21</title>
<path fill="none" stroke="#278ec6" d="M292.14,-583.95C283.06,-573.96 272.39,-562.23 262.69,-551.56"/>
<polygon fill="#278ec6" stroke="#278ec6" points="265.15,-549.06 255.83,-544.02 259.97,-553.77 265.15,-549.06"/>
</g>
<!-- node21&#45;&gt;node22 -->
<g id="edge37" class="edge">
<title>node21&#45;&gt;node22</title>
<path fill="none" stroke="#278ec6" d="M234,-493.87C234,-485.61 234,-476.22 234,-467.31"/>
<polygon fill="#278ec6" stroke="#278ec6" points="237.5,-467.19 234,-457.19 230.5,-467.19 237.5,-467.19"/>
</g>
<!-- node22&#45;&gt;node23 -->
<g id="edge39" class="edge">
<title>node22&#45;&gt;node23</title>
<path fill="none" stroke="#278ec6" d="M263.88,-415.61C291.62,-401.32 332.97,-380.01 362.62,-364.74"/>
<polygon fill="#278ec6" stroke="#278ec6" points="364.52,-367.7 371.8,-360.01 361.31,-361.48 364.52,-367.7"/>
</g>
<!-- node23&#45;&gt;node24 -->
<g id="edge41" class="edge">
<title>node23&#45;&gt;node24</title>
<path fill="none" stroke="#278ec6" d="M399,-319.87C399,-311.61 399,-302.22 399,-293.31"/>
<polygon fill="#278ec6" stroke="#278ec6" points="402.5,-293.19 399,-283.19 395.5,-293.19 402.5,-293.19"/>
</g>
<!-- node24&#45;&gt;node25 -->
<g id="edge43" class="edge">
<title>node24&#45;&gt;node25</title>
<path fill="none" stroke="#278ec6" d="M371.77,-248.85C320.56,-233.52 209.87,-200.39 151.98,-183.07"/>
<polygon fill="#278ec6" stroke="#278ec6" points="152.73,-179.64 142.15,-180.13 150.73,-186.35 152.73,-179.64"/>
</g>
<!-- node26 -->
<g id="node28" class="node">
<title>node26</title>
<polygon fill="none" stroke="#4444ee" points="115,-109 77.13,-91 115,-73 152.87,-91 115,-109"/>
<text text-anchor="start" x="102.5" y="-87.3" font-family="Times" font-size="14.00">func</text>
</g>
<!-- node25&#45;&gt;node26 -->
<g id="edge45" class="edge">
<title>node25&#45;&gt;node26</title>
<path fill="none" stroke="#278ec6" d="M115,-145.75C115,-137.45 115,-128.1 115,-119.56"/>
<polygon fill="#278ec6" stroke="#278ec6" points="118.5,-119.3 115,-109.3 111.5,-119.3 118.5,-119.3"/>
</g>
<!-- node27 -->
<g id="node29" class="node">
<title>node27</title>
<polygon fill="none" stroke="black" points="67.34,0 162.66,0 196.61,-36 33.39,-36 67.34,0"/>
<text text-anchor="start" x="78.5" y="-14.3" font-family="Times,serif" font-size="14.00">End of log</text>
</g>
<!-- node26&#45;&gt;node27 -->
<g id="edge46" class="edge">
<title>node26&#45;&gt;node27</title>
<path fill="none" stroke="#278ec6" d="M115,-72.81C115,-64.79 115,-55.05 115,-46.07"/>
<polygon fill="#278ec6" stroke="#278ec6" points="118.5,-46.03 115,-36.03 111.5,-46.03 118.5,-46.03"/>
</g>
</g>
</svg>
