<?xml version="1.0" encoding="UTF-8" standalone="no"?>
<!DOCTYPE svg PUBLIC "-//W3C//DTD SVG 1.1//EN"
 "http://www.w3.org/Graphics/SVG/1.1/DTD/svg11.dtd">
<!-- Generated by graphviz version 2.43.0 (0)
 -->
<!-- Title: list Pages: 1 -->
<svg width="604pt" height="1906pt"
 viewBox="0.00 0.00 603.50 1906.00" xmlns="http://www.w3.org/2000/svg" xmlns:xlink="http://www.w3.org/1999/xlink">
<g id="graph0" class="graph" transform="scale(1 1) rotate(0) translate(4 1902)">
<title>list</title>
<polygon fill="white" stroke="transparent" points="-4,4 -4,-1902 599.5,-1902 599.5,4 -4,4"/>
<g id="clust1" class="cluster">
<title>cluster_beb</title>
<polygon fill="none" stroke="black" points="8,-1748 8,-1890 249,-1890 249,-1748 8,-1748"/>
<text text-anchor="middle" x="128.5" y="-1874.8" font-family="Times,serif" font-size="14.00">Legend</text>
</g>
<!-- key -->
<g id="node1" class="node">
<title>key</title>
<text text-anchor="start" x="27" y="-1841.3" font-family="Times,serif" font-size="14.00">action sequence</text>
<text text-anchor="start" x="88" y="-1822.3" font-family="Times,serif" font-size="14.00">var live</text>
<text text-anchor="start" x="72" y="-1803.3" font-family="Times,serif" font-size="14.00">a good op</text>
<text text-anchor="start" x="81" y="-1784.3" font-family="Times,serif" font-size="14.00">a bad op</text>
<text text-anchor="start" x="74" y="-1765.3" font-family="Times,serif" font-size="14.00">other ops</text>
</g>
<!-- key2 -->
<g id="node2" class="node">
<title>key2</title>
<text text-anchor="start" x="212" y="-1841.3" font-family="Times,serif" font-size="14.00"> </text>
<text text-anchor="start" x="212" y="-1822.3" font-family="Times,serif" font-size="14.00"> </text>
<text text-anchor="start" x="212" y="-1803.3" font-family="Times,serif" font-size="14.00"> </text>
<text text-anchor="start" x="212" y="-1784.3" font-family="Times,serif" font-size="14.00"> </text>
<text text-anchor="start" x="212" y="-1765.3" font-family="Times,serif" font-size="14.00"> </text>
</g>
<!-- key&#45;&gt;key2 -->
<g id="edge1" class="edge">
<title>key:e&#45;&gt;key2:w</title>
<path fill="none" stroke="#278ec6" d="M145,-1845.5C169.78,-1845.5 178.37,-1845.5 198.97,-1845.5"/>
<polygon fill="#278ec6" stroke="#278ec6" points="199,-1849 209,-1845.5 199,-1842 199,-1849"/>
</g>
<!-- key&#45;&gt;key2 -->
<g id="edge2" class="edge">
<title>key:e&#45;&gt;key2:w</title>
<path fill="none" stroke="black" stroke-dasharray="5,2" d="M145,-1826.5C169.78,-1826.5 178.37,-1826.5 198.97,-1826.5"/>
<polygon fill="black" stroke="black" points="199,-1830 209,-1826.5 199,-1823 199,-1830"/>
</g>
<!-- key&#45;&gt;key2 -->
<g id="edge3" class="edge">
<title>key:e&#45;&gt;key2:w</title>
<path fill="none" stroke="#108910" d="M145,-1806.5C169.78,-1806.5 178.37,-1806.5 198.97,-1806.5"/>
<polygon fill="#108910" stroke="#108910" points="199,-1810 209,-1806.5 199,-1803 199,-1810"/>
</g>
<!-- key&#45;&gt;key2 -->
<g id="edge4" class="edge">
<title>key:e&#45;&gt;key2:w</title>
<path fill="none" stroke="#ee1c1c" d="M145,-1787.5C169.78,-1787.5 178.37,-1787.5 198.97,-1787.5"/>
<polygon fill="#ee1c1c" stroke="#ee1c1c" points="199,-1791 209,-1787.5 199,-1784 199,-1791"/>
</g>
<!-- key&#45;&gt;key2 -->
<g id="edge5" class="edge">
<title>key:e&#45;&gt;key2:w</title>
<path fill="none" stroke="#691269" d="M145,-1768.5C169.78,-1768.5 178.37,-1768.5 198.97,-1768.5"/>
<polygon fill="#691269" stroke="#691269" points="199,-1772 209,-1768.5 199,-1765 199,-1772"/>
</g>
<!-- node1 -->
<g id="node3" class="node">
<title>node1</title>
<polygon fill="none" stroke="#278ec6" points="401.65,-1825.5 296.35,-1825.5 258.85,-1789.5 439.15,-1789.5 401.65,-1825.5"/>
<text text-anchor="start" x="308" y="-1803.8" font-family="Times,serif" font-size="14.00">Start of log</text>
</g>
<!-- node2 -->
<g id="node4" class="node">
<title>node2</title>
<polygon fill="none" stroke="#44cc44" points="349,-1719 311.13,-1701 349,-1683 386.87,-1701 349,-1719"/>
<text text-anchor="start" x="336.5" y="-1697.3" font-family="Times" font-size="14.00">func</text>
</g>
<!-- node1&#45;&gt;node2 -->
<g id="edge6" class="edge">
<title>node1&#45;&gt;node2</title>
<path fill="none" stroke="#278ec6" d="M349,-1789.24C349,-1772.98 349,-1748.35 349,-1729.4"/>
<polygon fill="#278ec6" stroke="#278ec6" points="352.5,-1729.28 349,-1719.28 345.5,-1729.28 352.5,-1729.28"/>
</g>
<!-- node3 -->
<g id="node5" class="node">
<title>node3</title>
<polygon fill="#d4eacf" stroke="transparent" points="335,-1621 335,-1642 363,-1642 363,-1621 335,-1621"/>
<polygon fill="none" stroke="black" points="335,-1621 335,-1642 363,-1642 363,-1621 335,-1621"/>
<text text-anchor="start" x="345.5" y="-1627.8" font-family="Times" font-size="14.00">a</text>
<polygon fill="none" stroke="black" points="335,-1600 335,-1621 363,-1621 363,-1600 335,-1600"/>
<text text-anchor="start" x="338" y="-1606.8" font-family="Times" font-size="14.00">ctor</text>
</g>
<!-- node2&#45;&gt;node3 -->
<g id="edge7" class="edge">
<title>node2&#45;&gt;node3</title>
<path fill="none" stroke="#278ec6" d="M349,-1682.69C349,-1674.86 349,-1665.33 349,-1656.16"/>
<polygon fill="#278ec6" stroke="#278ec6" points="352.5,-1656.07 349,-1646.07 345.5,-1656.07 352.5,-1656.07"/>
</g>
<!-- node4 -->
<g id="node6" class="node">
<title>node4</title>
<polygon fill="#d4eacf" stroke="transparent" points="243,-1441 243,-1468 256,-1468 256,-1441 243,-1441"/>
<polygon fill="none" stroke="black" points="243,-1441 243,-1468 256,-1468 256,-1441 243,-1441"/>
<text text-anchor="start" x="246" y="-1450.8" font-family="Times" font-size="14.00">a</text>
<polygon fill="#d4eacf" stroke="transparent" points="256,-1441 256,-1468 269,-1468 269,-1441 256,-1441"/>
<polygon fill="none" stroke="black" points="256,-1441 256,-1468 269,-1468 269,-1441 256,-1441"/>
<text text-anchor="start" x="259" y="-1450.8" font-family="Times" font-size="14.00">1</text>
<polygon fill="#d4eacf" stroke="transparent" points="269,-1441 269,-1468 370,-1468 370,-1441 269,-1441"/>
<polygon fill="none" stroke="black" points="269,-1441 269,-1468 370,-1468 370,-1441 269,-1441"/>
<text text-anchor="start" x="275" y="-1450.8" font-family="Times" font-size="14.00">0x7ffe902275d0</text>
<polygon fill="none" stroke="black" points="243,-1420 243,-1441 370,-1441 370,-1420 243,-1420"/>
<text text-anchor="start" x="303" y="-1426.8" font-family="Times" font-size="14.00">3</text>
</g>
<!-- node3&#45;&gt;node4 -->
<g id="edge8" class="edge">
<title>node3&#45;&gt;node4</title>
<path fill="none" stroke="black" stroke-dasharray="5,2" d="M343.02,-1595.67C335.81,-1566.3 323.6,-1516.62 315.18,-1482.38"/>
<polygon fill="black" stroke="black" points="318.49,-1481.17 312.71,-1472.29 311.69,-1482.84 318.49,-1481.17"/>
</g>
<!-- node5 -->
<g id="node7" class="node">
<title>node5</title>
<polygon fill="#d4eacf" stroke="transparent" points="409,-1534 409,-1555 437,-1555 437,-1534 409,-1534"/>
<polygon fill="none" stroke="black" points="409,-1534 409,-1555 437,-1555 437,-1534 409,-1534"/>
<text text-anchor="start" x="419.5" y="-1540.8" font-family="Times" font-size="14.00">b</text>
<polygon fill="none" stroke="black" points="409,-1513 409,-1534 437,-1534 437,-1513 409,-1513"/>
<text text-anchor="start" x="412" y="-1519.8" font-family="Times" font-size="14.00">ctor</text>
</g>
<!-- node3&#45;&gt;node5 -->
<g id="edge9" class="edge">
<title>node3&#45;&gt;node5</title>
<path fill="none" stroke="#278ec6" d="M370.01,-1595.87C377.82,-1586.9 386.81,-1576.57 395.14,-1567"/>
<polygon fill="#278ec6" stroke="#278ec6" points="398.01,-1569.03 401.94,-1559.19 392.73,-1564.43 398.01,-1569.03"/>
</g>
<!-- node9 -->
<g id="node11" class="node">
<title>node9</title>
<polygon fill="#d4eacf" stroke="transparent" points="322,-1354 322,-1375 349,-1375 349,-1354 322,-1354"/>
<polygon fill="none" stroke="black" points="322,-1354 322,-1375 349,-1375 349,-1354 322,-1354"/>
<text text-anchor="start" x="332" y="-1360.8" font-family="Times" font-size="14.00">a</text>
<polygon fill="none" stroke="black" points="322,-1333 322,-1354 349,-1354 349,-1333 322,-1333"/>
<text text-anchor="start" x="325" y="-1339.8" font-family="Times" font-size="14.00">++.</text>
</g>
<!-- node4&#45;&gt;node9 -->
<g id="edge14" class="edge">
<title>node4&#45;&gt;node9</title>
<path fill="none" stroke="#691269" d="M315.02,-1415.64C317.82,-1407.13 320.94,-1397.66 323.87,-1388.77"/>
<polygon fill="#691269" stroke="#691269" points="327.26,-1389.66 327.07,-1379.07 320.61,-1387.47 327.26,-1389.66"/>
</g>
<!-- node10 -->
<g id="node12" class="node">
<title>node10</title>
<polygon fill="#d4eacf" stroke="transparent" points="174,-1261 174,-1288 187,-1288 187,-1261 174,-1261"/>
<polygon fill="none" stroke="black" points="174,-1261 174,-1288 187,-1288 187,-1261 174,-1261"/>
<text text-anchor="start" x="177" y="-1270.8" font-family="Times" font-size="14.00">a</text>
<polygon fill="#d4eacf" stroke="transparent" points="187,-1261 187,-1288 200,-1288 200,-1261 187,-1261"/>
<polygon fill="none" stroke="black" points="187,-1261 187,-1288 200,-1288 200,-1261 187,-1261"/>
<text text-anchor="start" x="190" y="-1270.8" font-family="Times" font-size="14.00">1</text>
<polygon fill="#d4eacf" stroke="transparent" points="200,-1261 200,-1288 301,-1288 301,-1261 200,-1261"/>
<polygon fill="none" stroke="black" points="200,-1261 200,-1288 301,-1288 301,-1261 200,-1261"/>
<text text-anchor="start" x="206" y="-1270.8" font-family="Times" font-size="14.00">0x7ffe902275d0</text>
<polygon fill="none" stroke="black" points="174,-1240 174,-1261 301,-1261 301,-1240 174,-1240"/>
<text text-anchor="start" x="234" y="-1246.8" font-family="Times" font-size="14.00">3</text>
</g>
<!-- node4&#45;&gt;node10 -->
<g id="edge16" class="edge">
<title>node4&#45;&gt;node10</title>
<path fill="none" stroke="black" stroke-dasharray="5,2" d="M295.52,-1415.97C283.72,-1385.52 264.47,-1335.85 251.29,-1301.86"/>
<polygon fill="black" stroke="black" points="254.46,-1300.35 247.58,-1292.29 247.93,-1302.88 254.46,-1300.35"/>
</g>
<!-- node6 -->
<g id="node8" class="node">
<title>node6</title>
<polygon fill="#d4eacf" stroke="transparent" points="461,-519 461,-546 474,-546 474,-519 461,-519"/>
<polygon fill="none" stroke="black" points="461,-519 461,-546 474,-546 474,-519 461,-519"/>
<text text-anchor="start" x="464" y="-528.8" font-family="Times" font-size="14.00">b</text>
<polygon fill="#d4eacf" stroke="transparent" points="474,-519 474,-546 487,-546 487,-519 474,-519"/>
<polygon fill="none" stroke="black" points="474,-519 474,-546 487,-546 487,-519 474,-519"/>
<text text-anchor="start" x="477" y="-528.8" font-family="Times" font-size="14.00">2</text>
<polygon fill="#d4eacf" stroke="transparent" points="487,-519 487,-546 588,-546 588,-519 487,-519"/>
<polygon fill="none" stroke="black" points="487,-519 487,-546 588,-546 588,-519 487,-519"/>
<text text-anchor="start" x="493" y="-528.8" font-family="Times" font-size="14.00">0x7ffe90227630</text>
<polygon fill="none" stroke="black" points="461,-498 461,-519 588,-519 588,-498 461,-498"/>
<text text-anchor="start" x="521" y="-504.8" font-family="Times" font-size="14.00">3</text>
</g>
<!-- node5&#45;&gt;node6 -->
<g id="edge10" class="edge">
<title>node5&#45;&gt;node6</title>
<path fill="none" stroke="black" stroke-dasharray="5,2" d="M450.06,-1522.84C479.68,-1509.76 523,-1483.97 523,-1445 523,-1445 523,-1445 523,-625 523,-603.63 523.22,-579.75 523.46,-560.47"/>
<polygon fill="black" stroke="black" points="526.96,-560.32 523.59,-550.27 519.96,-560.23 526.96,-560.32"/>
</g>
<!-- node7 -->
<g id="node9" class="node">
<title>node7</title>
<polygon fill="#d4eacf" stroke="transparent" points="409,-1444 409,-1465 437,-1465 437,-1444 409,-1444"/>
<polygon fill="none" stroke="black" points="409,-1444 409,-1465 437,-1465 437,-1444 409,-1444"/>
<text text-anchor="start" x="419.5" y="-1450.8" font-family="Times" font-size="14.00">c</text>
<polygon fill="none" stroke="black" points="409,-1423 409,-1444 437,-1444 437,-1423 409,-1423"/>
<text text-anchor="start" x="412" y="-1429.8" font-family="Times" font-size="14.00">ctor</text>
</g>
<!-- node5&#45;&gt;node7 -->
<g id="edge11" class="edge">
<title>node5&#45;&gt;node7</title>
<path fill="none" stroke="#278ec6" d="M423,-1508.95C423,-1499.74 423,-1489.04 423,-1479.06"/>
<polygon fill="#278ec6" stroke="#278ec6" points="426.5,-1479.02 423,-1469.02 419.5,-1479.02 426.5,-1479.02"/>
</g>
<!-- node21 -->
<g id="node23" class="node">
<title>node21</title>
<polygon fill="#d4eacf" stroke="transparent" points="388,-258 388,-279 416,-279 416,-258 388,-258"/>
<polygon fill="none" stroke="black" points="388,-258 388,-279 416,-279 416,-258 388,-258"/>
<text text-anchor="start" x="398.5" y="-264.8" font-family="Times" font-size="14.00">b</text>
<polygon fill="none" stroke="black" points="388,-237 388,-258 416,-258 416,-237 388,-237"/>
<text text-anchor="start" x="391" y="-243.8" font-family="Times" font-size="14.00">dtor</text>
</g>
<!-- node6&#45;&gt;node21 -->
<g id="edge37" class="edge">
<title>node6&#45;&gt;node21</title>
<path fill="none" stroke="black" stroke-dasharray="5,2" d="M513.67,-493.84C498.51,-454.73 468.69,-380.61 438,-320 433.29,-310.7 427.76,-300.88 422.46,-291.89"/>
<polygon fill="black" stroke="black" points="425.41,-290.01 417.27,-283.23 419.41,-293.61 425.41,-290.01"/>
</g>
<!-- node8 -->
<g id="node10" class="node">
<title>node8</title>
<polygon fill="#d4eacf" stroke="transparent" points="360,-994 360,-1021 373,-1021 373,-994 360,-994"/>
<polygon fill="none" stroke="black" points="360,-994 360,-1021 373,-1021 373,-994 360,-994"/>
<text text-anchor="start" x="363" y="-1003.8" font-family="Times" font-size="14.00">c</text>
<polygon fill="#d4eacf" stroke="transparent" points="373,-994 373,-1021 386,-1021 386,-994 373,-994"/>
<polygon fill="none" stroke="black" points="373,-994 373,-1021 386,-1021 386,-994 373,-994"/>
<text text-anchor="start" x="376" y="-1003.8" font-family="Times" font-size="14.00">3</text>
<polygon fill="#d4eacf" stroke="transparent" points="386,-994 386,-1021 487,-1021 487,-994 386,-994"/>
<polygon fill="none" stroke="black" points="386,-994 386,-1021 487,-1021 487,-994 386,-994"/>
<text text-anchor="start" x="392" y="-1003.8" font-family="Times" font-size="14.00">0x7ffe90227690</text>
<polygon fill="none" stroke="black" points="360,-973 360,-994 487,-994 487,-973 360,-973"/>
<text text-anchor="start" x="420" y="-979.8" font-family="Times" font-size="14.00">3</text>
</g>
<!-- node7&#45;&gt;node8 -->
<g id="edge12" class="edge">
<title>node7&#45;&gt;node8</title>
<path fill="none" stroke="black" stroke-dasharray="5,2" d="M423,-1418.72C423,-1401.05 423,-1376.54 423,-1355 423,-1355 423,-1355 423,-1086 423,-1069.49 423,-1051.24 423,-1035.66"/>
<polygon fill="black" stroke="black" points="426.5,-1035.35 423,-1025.35 419.5,-1035.35 426.5,-1035.35"/>
</g>
<!-- node7&#45;&gt;node9 -->
<g id="edge13" class="edge">
<title>node7&#45;&gt;node9</title>
<path fill="none" stroke="#278ec6" d="M398.95,-1418.95C388.86,-1408.86 377,-1397 366.25,-1386.25"/>
<polygon fill="#278ec6" stroke="#278ec6" points="368.56,-1383.61 359.02,-1379.02 363.61,-1388.56 368.56,-1383.61"/>
</g>
<!-- node14 -->
<g id="node16" class="node">
<title>node14</title>
<polygon fill="#d4eacf" stroke="transparent" points="245,-907 245,-928 258,-928 258,-907 245,-907"/>
<polygon fill="none" stroke="black" points="245,-907 245,-928 258,-928 258,-907 245,-907"/>
<text text-anchor="start" x="248" y="-913.8" font-family="Times" font-size="14.00">c</text>
<polygon fill="#eacfcf" stroke="transparent" points="258,-907 258,-928 301,-928 301,-907 258,-907"/>
<polygon fill="none" stroke="black" points="258,-907 258,-928 301,-928 301,-907 258,-907"/>
<text text-anchor="start" x="261" y="-913.8" font-family="Times" font-size="14.00">TMP1</text>
<polygon fill="none" stroke="black" points="245,-886 245,-907 301,-907 301,-886 245,-886"/>
<text text-anchor="start" x="269.5" y="-892.8" font-family="Times" font-size="14.00">*</text>
</g>
<!-- node8&#45;&gt;node14 -->
<g id="edge23" class="edge">
<title>node8&#45;&gt;node14</title>
<path fill="none" stroke="#691269" d="M376.77,-968.88C358.13,-957.94 336.69,-945.37 318.16,-934.49"/>
<polygon fill="#691269" stroke="#691269" points="319.72,-931.35 309.32,-929.31 316.17,-937.39 319.72,-931.35"/>
</g>
<!-- node20 -->
<g id="node22" class="node">
<title>node20</title>
<polygon fill="#d4eacf" stroke="transparent" points="388,-345 388,-366 416,-366 416,-345 388,-345"/>
<polygon fill="none" stroke="black" points="388,-345 388,-366 416,-366 416,-345 388,-345"/>
<text text-anchor="start" x="398.5" y="-351.8" font-family="Times" font-size="14.00">c</text>
<polygon fill="none" stroke="black" points="388,-324 388,-345 416,-345 416,-324 388,-324"/>
<text text-anchor="start" x="391" y="-330.8" font-family="Times" font-size="14.00">dtor</text>
</g>
<!-- node8&#45;&gt;node20 -->
<g id="edge35" class="edge">
<title>node8&#45;&gt;node20</title>
<path fill="none" stroke="black" stroke-dasharray="5,2" d="M424.41,-968.66C425.19,-951.29 426,-928.33 426,-908 426,-908 426,-908 426,-729 426,-599.99 412.27,-447.01 405.58,-380.14"/>
<polygon fill="black" stroke="black" points="409.06,-379.76 404.57,-370.16 402.09,-380.47 409.06,-379.76"/>
</g>
<!-- node9&#45;&gt;node10 -->
<g id="edge15" class="edge">
<title>node9&#45;&gt;node10</title>
<path fill="none" stroke="#691269" d="M308.22,-1328.95C297.91,-1319.69 285.93,-1308.93 274.77,-1298.91"/>
<polygon fill="#691269" stroke="#691269" points="276.98,-1296.2 267.2,-1292.12 272.3,-1301.41 276.98,-1296.2"/>
</g>
<!-- node11 -->
<g id="node13" class="node">
<title>node11</title>
<polygon fill="#d4eacf" stroke="transparent" points="224,-1174 224,-1195 237,-1195 237,-1174 224,-1174"/>
<polygon fill="none" stroke="black" points="224,-1174 224,-1195 237,-1195 237,-1174 224,-1174"/>
<text text-anchor="start" x="227" y="-1180.8" font-family="Times" font-size="14.00">a</text>
<polygon fill="#d4eacf" stroke="transparent" points="237,-1174 237,-1195 250,-1195 250,-1174 237,-1174"/>
<polygon fill="none" stroke="black" points="237,-1174 237,-1195 250,-1195 250,-1174 237,-1174"/>
<text text-anchor="start" x="240" y="-1180.8" font-family="Times" font-size="14.00">a</text>
<polygon fill="none" stroke="black" points="224,-1153 224,-1174 250,-1174 250,-1153 224,-1153"/>
<text text-anchor="start" x="232.5" y="-1159.8" font-family="Times" font-size="14.00">+</text>
</g>
<!-- node9&#45;&gt;node11 -->
<g id="edge17" class="edge">
<title>node9&#45;&gt;node11</title>
<path fill="none" stroke="#278ec6" d="M336.38,-1328.84C336.69,-1303.87 334,-1264.62 317,-1236 306.54,-1218.39 288.87,-1204.11 272.8,-1193.81"/>
<polygon fill="#278ec6" stroke="#278ec6" points="274.45,-1190.72 264.09,-1188.5 270.8,-1196.69 274.45,-1190.72"/>
</g>
<!-- node10&#45;&gt;node11 -->
<g id="edge18" class="edge">
<title>node10&#45;&gt;node11</title>
<path fill="none" stroke="#691269" d="M230.7,-1235.64C230.22,-1227.23 230.13,-1217.86 230.41,-1209.06"/>
<polygon fill="#691269" stroke="#691269" points="233.9,-1209.23 230.91,-1199.07 226.91,-1208.88 233.9,-1209.23"/>
</g>
<!-- node10&#45;&gt;node11 -->
<g id="edge19" class="edge">
<title>node10&#45;&gt;node11</title>
<path fill="none" stroke="#691269" d="M243.3,-1235.64C243.78,-1227.23 243.87,-1217.86 243.59,-1209.06"/>
<polygon fill="#691269" stroke="#691269" points="247.09,-1208.88 243.09,-1199.07 240.1,-1209.23 247.09,-1208.88"/>
</g>
<!-- node22 -->
<g id="node24" class="node">
<title>node22</title>
<polygon fill="#d4eacf" stroke="transparent" points="94,-171 94,-192 122,-192 122,-171 94,-171"/>
<polygon fill="none" stroke="black" points="94,-171 94,-192 122,-192 122,-171 94,-171"/>
<text text-anchor="start" x="104.5" y="-177.8" font-family="Times" font-size="14.00">a</text>
<polygon fill="none" stroke="black" points="94,-150 94,-171 122,-171 122,-150 94,-150"/>
<text text-anchor="start" x="97" y="-156.8" font-family="Times" font-size="14.00">dtor</text>
</g>
<!-- node10&#45;&gt;node22 -->
<g id="edge39" class="edge">
<title>node10&#45;&gt;node22</title>
<path fill="none" stroke="black" stroke-dasharray="5,2" d="M165.26,-1246.25C130.43,-1233.42 96,-1211.5 96,-1175 96,-1175 96,-1175 96,-257 96,-240.17 98.34,-221.64 100.95,-206.2"/>
<polygon fill="black" stroke="black" points="104.44,-206.52 102.77,-196.05 97.56,-205.28 104.44,-206.52"/>
</g>
<!-- node12 -->
<g id="node14" class="node">
<title>node12</title>
<polygon fill="#eacfcf" stroke="transparent" points="216,-1087 216,-1108 259,-1108 259,-1087 216,-1087"/>
<polygon fill="none" stroke="black" points="216,-1087 216,-1108 259,-1108 259,-1087 216,-1087"/>
<text text-anchor="start" x="219" y="-1093.8" font-family="Times" font-size="14.00">TMP1</text>
<polygon fill="none" stroke="black" points="216,-1066 216,-1087 259,-1087 259,-1066 216,-1066"/>
<text text-anchor="start" x="226.5" y="-1072.8" font-family="Times" font-size="14.00">ctor</text>
</g>
<!-- node11&#45;&gt;node12 -->
<g id="edge20" class="edge">
<title>node11&#45;&gt;node12</title>
<path fill="none" stroke="#278ec6" d="M237,-1148.87C237,-1140.61 237,-1131.22 237,-1122.31"/>
<polygon fill="#278ec6" stroke="#278ec6" points="240.5,-1122.19 237,-1112.19 233.5,-1122.19 240.5,-1122.19"/>
</g>
<!-- node13 -->
<g id="node15" class="node">
<title>node13</title>
<polygon fill="#eacfcf" stroke="transparent" points="171,-994 171,-1021 214,-1021 214,-994 171,-994"/>
<polygon fill="none" stroke="black" points="171,-994 171,-1021 214,-1021 214,-994 171,-994"/>
<text text-anchor="start" x="174" y="-1003.8" font-family="Times" font-size="14.00">TMP1</text>
<polygon fill="#eacfcf" stroke="transparent" points="214,-994 214,-1021 227,-1021 227,-994 214,-994"/>
<polygon fill="none" stroke="black" points="214,-994 214,-1021 227,-1021 227,-994 214,-994"/>
<text text-anchor="start" x="217" y="-1003.8" font-family="Times" font-size="14.00">4</text>
<polygon fill="#eacfcf" stroke="transparent" points="227,-994 227,-1021 326,-1021 326,-994 227,-994"/>
<polygon fill="none" stroke="black" points="227,-994 227,-1021 326,-1021 326,-994 227,-994"/>
<text text-anchor="start" x="233" y="-1003.8" font-family="Times" font-size="14.00">0x7ffe902276f0</text>
<polygon fill="none" stroke="black" points="171,-973 171,-994 326,-994 326,-973 171,-973"/>
<text text-anchor="start" x="245" y="-979.8" font-family="Times" font-size="14.00">8</text>
</g>
<!-- node12&#45;&gt;node13 -->
<g id="edge21" class="edge">
<title>node12&#45;&gt;node13</title>
<path fill="none" stroke="black" stroke-dasharray="5,2" d="M240.01,-1061.95C241.04,-1053.67 242.23,-1044.19 243.36,-1035.11"/>
<polygon fill="black" stroke="black" points="246.84,-1035.48 244.61,-1025.12 239.9,-1034.61 246.84,-1035.48"/>
</g>
<!-- node12&#45;&gt;node14 -->
<g id="edge22" class="edge">
<title>node12&#45;&gt;node14</title>
<path fill="none" stroke="#278ec6" d="M207.11,-1073.19C187.82,-1063.15 164.29,-1047.16 153,-1025 141.7,-1002.83 139.99,-990.22 153,-969 169.16,-942.65 200.65,-927.25 227.32,-918.51"/>
<polygon fill="#278ec6" stroke="#278ec6" points="228.35,-921.86 236.89,-915.59 226.3,-915.16 228.35,-921.86"/>
</g>
<!-- node13&#45;&gt;node14 -->
<g id="edge24" class="edge">
<title>node13&#45;&gt;node14</title>
<path fill="none" stroke="#691269" d="M255.77,-968.64C258.19,-960.13 260.88,-950.66 263.41,-941.77"/>
<polygon fill="#691269" stroke="#691269" points="266.8,-942.64 266.16,-932.07 260.06,-940.73 266.8,-942.64"/>
</g>
<!-- node19 -->
<g id="node21" class="node">
<title>node19</title>
<polygon fill="#eacfcf" stroke="transparent" points="291,-432 291,-453 334,-453 334,-432 291,-432"/>
<polygon fill="none" stroke="black" points="291,-432 291,-453 334,-453 334,-432 291,-432"/>
<text text-anchor="start" x="294" y="-438.8" font-family="Times" font-size="14.00">TMP1</text>
<polygon fill="none" stroke="black" points="291,-411 291,-432 334,-432 334,-411 291,-411"/>
<text text-anchor="start" x="301.5" y="-417.8" font-family="Times" font-size="14.00">dtor</text>
</g>
<!-- node13&#45;&gt;node19 -->
<g id="edge33" class="edge">
<title>node13&#45;&gt;node19</title>
<path fill="none" stroke="black" stroke-dasharray="5,2" d="M234.72,-968.62C209.69,-914.4 158,-788.97 158,-677.5 158,-677.5 158,-677.5 158,-521 158,-468.32 226.76,-446.75 272.39,-438.24"/>
<polygon fill="black" stroke="black" points="273.05,-441.68 282.31,-436.52 271.86,-434.78 273.05,-441.68"/>
</g>
<!-- node15 -->
<g id="node17" class="node">
<title>node15</title>
<polygon fill="#eacfcf" stroke="transparent" points="252,-820 252,-841 295,-841 295,-820 252,-820"/>
<polygon fill="none" stroke="black" points="252,-820 252,-841 295,-841 295,-820 252,-820"/>
<text text-anchor="start" x="255" y="-826.8" font-family="Times" font-size="14.00">TMP2</text>
<polygon fill="none" stroke="black" points="252,-799 252,-820 295,-820 295,-799 252,-799"/>
<text text-anchor="start" x="262.5" y="-805.8" font-family="Times" font-size="14.00">ctor</text>
</g>
<!-- node14&#45;&gt;node15 -->
<g id="edge25" class="edge">
<title>node14&#45;&gt;node15</title>
<path fill="none" stroke="#278ec6" d="M273,-881.87C273,-873.61 273,-864.22 273,-855.31"/>
<polygon fill="#278ec6" stroke="#278ec6" points="276.5,-855.19 273,-845.19 269.5,-855.19 276.5,-855.19"/>
</g>
<!-- node16 -->
<g id="node18" class="node">
<title>node16</title>
<polygon fill="#eacfcf" stroke="transparent" points="195,-727 195,-754 238,-754 238,-727 195,-727"/>
<polygon fill="none" stroke="black" points="195,-727 195,-754 238,-754 238,-727 195,-727"/>
<text text-anchor="start" x="198" y="-736.8" font-family="Times" font-size="14.00">TMP2</text>
<polygon fill="#eacfcf" stroke="transparent" points="238,-727 238,-754 251,-754 251,-727 238,-727"/>
<polygon fill="none" stroke="black" points="238,-727 238,-754 251,-754 251,-727 238,-727"/>
<text text-anchor="start" x="241" y="-736.8" font-family="Times" font-size="14.00">5</text>
<polygon fill="#eacfcf" stroke="transparent" points="251,-727 251,-754 352,-754 352,-727 251,-727"/>
<polygon fill="none" stroke="black" points="251,-727 251,-754 352,-754 352,-727 251,-727"/>
<text text-anchor="start" x="257" y="-736.8" font-family="Times" font-size="14.00">0x7ffe90227750</text>
<polygon fill="none" stroke="black" points="195,-706 195,-727 352,-727 352,-706 195,-706"/>
<text text-anchor="start" x="266.5" y="-712.8" font-family="Times" font-size="14.00">24</text>
</g>
<!-- node15&#45;&gt;node16 -->
<g id="edge26" class="edge">
<title>node15&#45;&gt;node16</title>
<path fill="none" stroke="black" stroke-dasharray="5,2" d="M273,-794.95C273,-786.76 273,-777.4 273,-768.41"/>
<polygon fill="black" stroke="black" points="276.5,-768.12 273,-758.12 269.5,-768.12 276.5,-768.12"/>
</g>
<!-- node17 -->
<g id="node19" class="node">
<title>node17</title>
<polygon fill="#d4eacf" stroke="transparent" points="317,-626 317,-647 336,-647 336,-626 317,-626"/>
<polygon fill="none" stroke="black" points="317,-626 317,-647 336,-647 336,-626 317,-626"/>
<text text-anchor="start" x="323" y="-632.8" font-family="Times" font-size="14.00">b</text>
<polygon fill="#eacfcf" stroke="transparent" points="336,-626 336,-647 386,-647 386,-626 336,-626"/>
<polygon fill="none" stroke="black" points="336,-626 336,-647 386,-647 386,-626 336,-626"/>
<text text-anchor="start" x="342.5" y="-632.8" font-family="Times" font-size="14.00">TMP2</text>
<polygon fill="none" stroke="black" points="317,-605 317,-626 386,-626 386,-605 317,-605"/>
<text text-anchor="start" x="320" y="-611.8" font-family="Times" font-size="14.00">asgn_move</text>
</g>
<!-- node15&#45;&gt;node17 -->
<g id="edge27" class="edge">
<title>node15&#45;&gt;node17</title>
<path fill="none" stroke="#278ec6" d="M302.79,-809.08C325.44,-799.78 355.02,-783.44 369,-758 385.44,-728.07 376.7,-688.7 366.49,-660.96"/>
<polygon fill="#278ec6" stroke="#278ec6" points="369.62,-659.34 362.71,-651.31 363.1,-661.89 369.62,-659.34"/>
</g>
<!-- node16&#45;&gt;node17 -->
<g id="edge29" class="edge">
<title>node16&#45;&gt;node17</title>
<path fill="none" stroke="#108910" d="M293.7,-701.93C303.71,-688.84 315.81,-673.01 326.31,-659.29"/>
<polygon fill="#108910" stroke="#108910" points="329.31,-661.13 332.6,-651.06 323.75,-656.88 329.31,-661.13"/>
<text text-anchor="start" x="317" y="-672.8" font-family="Times,serif" font-size="14.00" fill="#108910">MOVE</text>
</g>
<!-- node18 -->
<g id="node20" class="node">
<title>node18</title>
<polygon fill="#eacfcf" stroke="transparent" points="291,-522 291,-543 334,-543 334,-522 291,-522"/>
<polygon fill="none" stroke="black" points="291,-522 291,-543 334,-543 334,-522 291,-522"/>
<text text-anchor="start" x="294" y="-528.8" font-family="Times" font-size="14.00">TMP2</text>
<polygon fill="none" stroke="black" points="291,-501 291,-522 334,-522 334,-501 291,-501"/>
<text text-anchor="start" x="301.5" y="-507.8" font-family="Times" font-size="14.00">dtor</text>
</g>
<!-- node16&#45;&gt;node18 -->
<g id="edge31" class="edge">
<title>node16&#45;&gt;node18</title>
<path fill="none" stroke="black" stroke-dasharray="5,2" d="M278.18,-701.64C285.23,-664.39 297.85,-597.72 305.52,-557.21"/>
<polygon fill="black" stroke="black" points="308.99,-557.73 307.41,-547.26 302.11,-556.43 308.99,-557.73"/>
</g>
<!-- node17&#45;&gt;node6 -->
<g id="edge28" class="edge">
<title>node17&#45;&gt;node6</title>
<path fill="none" stroke="#108910" d="M392,-600.83C415.15,-587.18 444.38,-569.95 469.44,-555.17"/>
<polygon fill="#108910" stroke="#108910" points="471.28,-558.15 478.12,-550.05 467.72,-552.12 471.28,-558.15"/>
<text text-anchor="start" x="442" y="-571.8" font-family="Times,serif" font-size="14.00" fill="#108910">TO</text>
</g>
<!-- node17&#45;&gt;node18 -->
<g id="edge30" class="edge">
<title>node17&#45;&gt;node18</title>
<path fill="none" stroke="#278ec6" d="M341.76,-600.83C336.74,-587.71 330.46,-571.29 324.97,-556.91"/>
<polygon fill="#278ec6" stroke="#278ec6" points="328.15,-555.44 321.31,-547.35 321.61,-557.94 328.15,-555.44"/>
</g>
<!-- node18&#45;&gt;node19 -->
<g id="edge32" class="edge">
<title>node18&#45;&gt;node19</title>
<path fill="none" stroke="#278ec6" d="M312,-496.95C312,-487.74 312,-477.04 312,-467.06"/>
<polygon fill="#278ec6" stroke="#278ec6" points="315.5,-467.02 312,-457.02 308.5,-467.02 315.5,-467.02"/>
</g>
<!-- node19&#45;&gt;node20 -->
<g id="edge34" class="edge">
<title>node19&#45;&gt;node20</title>
<path fill="none" stroke="#278ec6" d="M337.55,-406.87C347.34,-397.63 358.64,-386.95 369.02,-377.14"/>
<polygon fill="#278ec6" stroke="#278ec6" points="371.52,-379.6 376.39,-370.19 366.71,-374.51 371.52,-379.6"/>
</g>
<!-- node20&#45;&gt;node21 -->
<g id="edge36" class="edge">
<title>node20&#45;&gt;node21</title>
<path fill="none" stroke="#278ec6" d="M402,-319.87C402,-311.61 402,-302.22 402,-293.31"/>
<polygon fill="#278ec6" stroke="#278ec6" points="405.5,-293.19 402,-283.19 398.5,-293.19 405.5,-293.19"/>
</g>
<!-- node21&#45;&gt;node22 -->
<g id="edge38" class="edge">
<title>node21&#45;&gt;node22</title>
<path fill="none" stroke="#278ec6" d="M374.87,-249.16C321.92,-233.85 204.79,-199.98 144.87,-182.66"/>
<polygon fill="#278ec6" stroke="#278ec6" points="145.64,-179.24 135.07,-179.83 143.7,-185.97 145.64,-179.24"/>
</g>
<!-- node23 -->
<g id="node25" class="node">
<title>node23</title>
<polygon fill="none" stroke="#3333ee" points="108,-109 70.13,-91 108,-73 145.87,-91 108,-109"/>
<text text-anchor="start" x="95.5" y="-87.3" font-family="Times" font-size="14.00">func</text>
</g>
<!-- node22&#45;&gt;node23 -->
<g id="edge40" class="edge">
<title>node22&#45;&gt;node23</title>
<path fill="none" stroke="#278ec6" d="M108,-145.75C108,-137.45 108,-128.1 108,-119.56"/>
<polygon fill="#278ec6" stroke="#278ec6" points="111.5,-119.3 108,-109.3 104.5,-119.3 111.5,-119.3"/>
</g>
<!-- node24 -->
<g id="node26" class="node">
<title>node24</title>
<polygon fill="none" stroke="#278ec6" points="60.34,0 155.66,0 189.61,-36 26.39,-36 60.34,0"/>
<text text-anchor="start" x="71.5" y="-14.3" font-family="Times,serif" font-size="14.00">End of log</text>
</g>
<!-- node23&#45;&gt;node24 -->
<g id="edge41" class="edge">
<title>node23&#45;&gt;node24</title>
<path fill="none" stroke="#278ec6" d="M108,-72.81C108,-64.79 108,-55.05 108,-46.07"/>
<polygon fill="#278ec6" stroke="#278ec6" points="111.5,-46.03 108,-36.03 104.5,-46.03 111.5,-46.03"/>
</g>
</g>
</svg>
