<?xml version="1.0" encoding="UTF-8" standalone="no"?>
<!DOCTYPE svg PUBLIC "-//W3C//DTD SVG 1.1//EN"
 "http://www.w3.org/Graphics/SVG/1.1/DTD/svg11.dtd">
<!-- Generated by graphviz version 2.43.0 (0)
 -->
<!-- Title: list Pages: 1 -->
<svg width="600pt" height="1906pt"
 viewBox="0.00 0.00 599.50 1906.00" xmlns="http://www.w3.org/2000/svg" xmlns:xlink="http://www.w3.org/1999/xlink">
<g id="graph0" class="graph" transform="scale(1 1) rotate(0) translate(4 1902)">
<title>list</title>
<polygon fill="white" stroke="transparent" points="-4,4 -4,-1902 595.5,-1902 595.5,4 -4,4"/>
<g id="clust1" class="cluster">
<title>cluster_beb</title>
<polygon fill="none" stroke="black" points="8,-1748 8,-1890 249,-1890 249,-1748 8,-1748"/>
<text text-anchor="middle" x="128.5" y="-1874.8" font-family="Times,serif" font-size="14.00">Legend</text>
</g>
<!-- key -->
<g id="node1" class="node">
<title>key</title>
<text text-anchor="start" x="27" y="-1841.3" font-family="Times,serif" font-size="14.00">action sequence</text>
<text text-anchor="start" x="88" y="-1822.3" font-family="Times,serif" font-size="14.00">var live</text>
<text text-anchor="start" x="72" y="-1803.3" font-family="Times,serif" font-size="14.00">a good op</text>
<text text-anchor="start" x="81" y="-1784.3" font-family="Times,serif" font-size="14.00">a bad op</text>
<text text-anchor="start" x="74" y="-1765.3" font-family="Times,serif" font-size="14.00">other ops</text>
</g>
<!-- key2 -->
<g id="node2" class="node">
<title>key2</title>
<text text-anchor="start" x="212" y="-1841.3" font-family="Times,serif" font-size="14.00"> </text>
<text text-anchor="start" x="212" y="-1822.3" font-family="Times,serif" font-size="14.00"> </text>
<text text-anchor="start" x="212" y="-1803.3" font-family="Times,serif" font-size="14.00"> </text>
<text text-anchor="start" x="212" y="-1784.3" font-family="Times,serif" font-size="14.00"> </text>
<text text-anchor="start" x="212" y="-1765.3" font-family="Times,serif" font-size="14.00"> </text>
</g>
<!-- key&#45;&gt;key2 -->
<g id="edge1" class="edge">
<title>key:e&#45;&gt;key2:w</title>
<path fill="none" stroke="#278ec6" d="M145,-1845.5C169.78,-1845.5 178.37,-1845.5 198.97,-1845.5"/>
<polygon fill="#278ec6" stroke="#278ec6" points="199,-1849 209,-1845.5 199,-1842 199,-1849"/>
</g>
<!-- key&#45;&gt;key2 -->
<g id="edge2" class="edge">
<title>key:e&#45;&gt;key2:w</title>
<path fill="none" stroke="black" stroke-dasharray="5,2" d="M145,-1826.5C169.78,-1826.5 178.37,-1826.5 198.97,-1826.5"/>
<polygon fill="black" stroke="black" points="199,-1830 209,-1826.5 199,-1823 199,-1830"/>
</g>
<!-- key&#45;&gt;key2 -->
<g id="edge3" class="edge">
<title>key:e&#45;&gt;key2:w</title>
<path fill="none" stroke="#108910" d="M145,-1806.5C169.78,-1806.5 178.37,-1806.5 198.97,-1806.5"/>
<polygon fill="#108910" stroke="#108910" points="199,-1810 209,-1806.5 199,-1803 199,-1810"/>
</g>
<!-- key&#45;&gt;key2 -->
<g id="edge4" class="edge">
<title>key:e&#45;&gt;key2:w</title>
<path fill="none" stroke="#ee1c1c" d="M145,-1787.5C169.78,-1787.5 178.37,-1787.5 198.97,-1787.5"/>
<polygon fill="#ee1c1c" stroke="#ee1c1c" points="199,-1791 209,-1787.5 199,-1784 199,-1791"/>
</g>
<!-- key&#45;&gt;key2 -->
<g id="edge5" class="edge">
<title>key:e&#45;&gt;key2:w</title>
<path fill="none" stroke="#691269" d="M145,-1768.5C169.78,-1768.5 178.37,-1768.5 198.97,-1768.5"/>
<polygon fill="#691269" stroke="#691269" points="199,-1772 209,-1768.5 199,-1765 199,-1772"/>
</g>
<!-- node1 -->
<g id="node3" class="node">
<title>node1</title>
<polygon fill="none" stroke="black" points="401.65,-1825.5 296.35,-1825.5 258.85,-1789.5 439.15,-1789.5 401.65,-1825.5"/>
<text text-anchor="start" x="308" y="-1803.8" font-family="Times,serif" font-size="14.00">Start of log</text>
</g>
<!-- node2 -->
<g id="node4" class="node">
<title>node2</title>
<polygon fill="none" stroke="#44cc44" points="349,-1719 311.13,-1701 349,-1683 386.87,-1701 349,-1719"/>
<text text-anchor="start" x="336.5" y="-1697.3" font-family="Times" font-size="14.00">func</text>
</g>
<!-- node1&#45;&gt;node2 -->
<g id="edge6" class="edge">
<title>node1&#45;&gt;node2</title>
<path fill="none" stroke="#278ec6" d="M349,-1789.24C349,-1772.98 349,-1748.35 349,-1729.4"/>
<polygon fill="#278ec6" stroke="#278ec6" points="352.5,-1729.28 349,-1719.28 345.5,-1729.28 352.5,-1729.28"/>
</g>
<!-- node3 -->
<g id="node5" class="node">
<title>node3</title>
<polygon fill="#d4eacf" stroke="transparent" points="335,-1621 335,-1642 363,-1642 363,-1621 335,-1621"/>
<polygon fill="none" stroke="black" points="335,-1621 335,-1642 363,-1642 363,-1621 335,-1621"/>
<text text-anchor="start" x="345.5" y="-1627.8" font-family="Times" font-size="14.00">a</text>
<polygon fill="none" stroke="black" points="335,-1600 335,-1621 363,-1621 363,-1600 335,-1600"/>
<text text-anchor="start" x="338" y="-1606.8" font-family="Times" font-size="14.00">ctor</text>
</g>
<!-- node2&#45;&gt;node3 -->
<g id="edge7" class="edge">
<title>node2&#45;&gt;node3</title>
<path fill="none" stroke="#278ec6" d="M349,-1682.69C349,-1674.86 349,-1665.33 349,-1656.16"/>
<polygon fill="#278ec6" stroke="#278ec6" points="352.5,-1656.07 349,-1646.07 345.5,-1656.07 352.5,-1656.07"/>
</g>
<!-- node4 -->
<g id="node6" class="node">
<title>node4</title>
<polygon fill="#d4eacf" stroke="transparent" points="244,-1441 244,-1468 257,-1468 257,-1441 244,-1441"/>
<polygon fill="none" stroke="black" points="244,-1441 244,-1468 257,-1468 257,-1441 244,-1441"/>
<text text-anchor="start" x="247" y="-1450.8" font-family="Times" font-size="14.00">a</text>
<polygon fill="#d4eacf" stroke="transparent" points="257,-1441 257,-1468 270,-1468 270,-1441 257,-1441"/>
<polygon fill="none" stroke="black" points="257,-1441 257,-1468 270,-1468 270,-1441 257,-1441"/>
<text text-anchor="start" x="260" y="-1450.8" font-family="Times" font-size="14.00">1</text>
<polygon fill="#d4eacf" stroke="transparent" points="270,-1441 270,-1468 369,-1468 369,-1441 270,-1441"/>
<polygon fill="none" stroke="black" points="270,-1441 270,-1468 369,-1468 369,-1441 270,-1441"/>
<text text-anchor="start" x="276" y="-1450.8" font-family="Times" font-size="14.00">0x7ffe1fb25700</text>
<polygon fill="none" stroke="black" points="244,-1420 244,-1441 369,-1441 369,-1420 244,-1420"/>
<text text-anchor="start" x="303" y="-1426.8" font-family="Times" font-size="14.00">3</text>
</g>
<!-- node3&#45;&gt;node4 -->
<g id="edge8" class="edge">
<title>node3&#45;&gt;node4</title>
<path fill="none" stroke="black" stroke-dasharray="5,2" d="M343.02,-1595.67C335.81,-1566.3 323.6,-1516.62 315.18,-1482.38"/>
<polygon fill="black" stroke="black" points="318.49,-1481.17 312.71,-1472.29 311.69,-1482.84 318.49,-1481.17"/>
</g>
<!-- node5 -->
<g id="node7" class="node">
<title>node5</title>
<polygon fill="#d4eacf" stroke="transparent" points="408,-1534 408,-1555 436,-1555 436,-1534 408,-1534"/>
<polygon fill="none" stroke="black" points="408,-1534 408,-1555 436,-1555 436,-1534 408,-1534"/>
<text text-anchor="start" x="418.5" y="-1540.8" font-family="Times" font-size="14.00">b</text>
<polygon fill="none" stroke="black" points="408,-1513 408,-1534 436,-1534 436,-1513 408,-1513"/>
<text text-anchor="start" x="411" y="-1519.8" font-family="Times" font-size="14.00">ctor</text>
</g>
<!-- node3&#45;&gt;node5 -->
<g id="edge9" class="edge">
<title>node3&#45;&gt;node5</title>
<path fill="none" stroke="#278ec6" d="M369.72,-1595.87C377.43,-1586.9 386.3,-1576.57 394.51,-1567"/>
<polygon fill="#278ec6" stroke="#278ec6" points="397.36,-1569.06 401.22,-1559.19 392.05,-1564.5 397.36,-1569.06"/>
</g>
<!-- node9 -->
<g id="node11" class="node">
<title>node9</title>
<polygon fill="#d4eacf" stroke="transparent" points="322,-1354 322,-1375 349,-1375 349,-1354 322,-1354"/>
<polygon fill="none" stroke="black" points="322,-1354 322,-1375 349,-1375 349,-1354 322,-1354"/>
<text text-anchor="start" x="332" y="-1360.8" font-family="Times" font-size="14.00">a</text>
<polygon fill="none" stroke="black" points="322,-1333 322,-1354 349,-1354 349,-1333 322,-1333"/>
<text text-anchor="start" x="325" y="-1339.8" font-family="Times" font-size="14.00">++.</text>
</g>
<!-- node4&#45;&gt;node9 -->
<g id="edge14" class="edge">
<title>node4&#45;&gt;node9</title>
<path fill="none" stroke="#691269" d="M315.02,-1415.64C317.82,-1407.13 320.94,-1397.66 323.87,-1388.77"/>
<polygon fill="#691269" stroke="#691269" points="327.26,-1389.66 327.07,-1379.07 320.61,-1387.47 327.26,-1389.66"/>
</g>
<!-- node10 -->
<g id="node12" class="node">
<title>node10</title>
<polygon fill="#d4eacf" stroke="transparent" points="176,-1261 176,-1288 189,-1288 189,-1261 176,-1261"/>
<polygon fill="none" stroke="black" points="176,-1261 176,-1288 189,-1288 189,-1261 176,-1261"/>
<text text-anchor="start" x="179" y="-1270.8" font-family="Times" font-size="14.00">a</text>
<polygon fill="#d4eacf" stroke="transparent" points="189,-1261 189,-1288 202,-1288 202,-1261 189,-1261"/>
<polygon fill="none" stroke="black" points="189,-1261 189,-1288 202,-1288 202,-1261 189,-1261"/>
<text text-anchor="start" x="192" y="-1270.8" font-family="Times" font-size="14.00">1</text>
<polygon fill="#d4eacf" stroke="transparent" points="202,-1261 202,-1288 301,-1288 301,-1261 202,-1261"/>
<polygon fill="none" stroke="black" points="202,-1261 202,-1288 301,-1288 301,-1261 202,-1261"/>
<text text-anchor="start" x="208" y="-1270.8" font-family="Times" font-size="14.00">0x7ffe1fb25700</text>
<polygon fill="none" stroke="black" points="176,-1240 176,-1261 301,-1261 301,-1240 176,-1240"/>
<text text-anchor="start" x="235" y="-1246.8" font-family="Times" font-size="14.00">3</text>
</g>
<!-- node4&#45;&gt;node10 -->
<g id="edge16" class="edge">
<title>node4&#45;&gt;node10</title>
<path fill="none" stroke="black" stroke-dasharray="5,2" d="M295.67,-1415.97C284.04,-1385.52 265.07,-1335.85 252.08,-1301.86"/>
<polygon fill="black" stroke="black" points="255.26,-1300.38 248.42,-1292.29 248.72,-1302.88 255.26,-1300.38"/>
</g>
<!-- node6 -->
<g id="node8" class="node">
<title>node6</title>
<polygon fill="#d4eacf" stroke="transparent" points="459,-519 459,-546 472,-546 472,-519 459,-519"/>
<polygon fill="none" stroke="black" points="459,-519 459,-546 472,-546 472,-519 459,-519"/>
<text text-anchor="start" x="462" y="-528.8" font-family="Times" font-size="14.00">b</text>
<polygon fill="#d4eacf" stroke="transparent" points="472,-519 472,-546 485,-546 485,-519 472,-519"/>
<polygon fill="none" stroke="black" points="472,-519 472,-546 485,-546 485,-519 472,-519"/>
<text text-anchor="start" x="475" y="-528.8" font-family="Times" font-size="14.00">2</text>
<polygon fill="#d4eacf" stroke="transparent" points="485,-519 485,-546 584,-546 584,-519 485,-519"/>
<polygon fill="none" stroke="black" points="485,-519 485,-546 584,-546 584,-519 485,-519"/>
<text text-anchor="start" x="491" y="-528.8" font-family="Times" font-size="14.00">0x7ffe1fb25760</text>
<polygon fill="none" stroke="black" points="459,-498 459,-519 584,-519 584,-498 459,-498"/>
<text text-anchor="start" x="518" y="-504.8" font-family="Times" font-size="14.00">3</text>
</g>
<!-- node5&#45;&gt;node6 -->
<g id="edge10" class="edge">
<title>node5&#45;&gt;node6</title>
<path fill="none" stroke="black" stroke-dasharray="5,2" d="M449.04,-1522.45C478.05,-1509.16 520,-1483.3 520,-1445 520,-1445 520,-1445 520,-625 520,-603.63 520.22,-579.75 520.46,-560.47"/>
<polygon fill="black" stroke="black" points="523.96,-560.32 520.59,-550.27 516.96,-560.23 523.96,-560.32"/>
</g>
<!-- node7 -->
<g id="node9" class="node">
<title>node7</title>
<polygon fill="#d4eacf" stroke="transparent" points="408,-1444 408,-1465 436,-1465 436,-1444 408,-1444"/>
<polygon fill="none" stroke="black" points="408,-1444 408,-1465 436,-1465 436,-1444 408,-1444"/>
<text text-anchor="start" x="418.5" y="-1450.8" font-family="Times" font-size="14.00">c</text>
<polygon fill="none" stroke="black" points="408,-1423 408,-1444 436,-1444 436,-1423 408,-1423"/>
<text text-anchor="start" x="411" y="-1429.8" font-family="Times" font-size="14.00">ctor</text>
</g>
<!-- node5&#45;&gt;node7 -->
<g id="edge11" class="edge">
<title>node5&#45;&gt;node7</title>
<path fill="none" stroke="#278ec6" d="M422,-1508.95C422,-1499.74 422,-1489.04 422,-1479.06"/>
<polygon fill="#278ec6" stroke="#278ec6" points="425.5,-1479.02 422,-1469.02 418.5,-1479.02 425.5,-1479.02"/>
</g>
<!-- node21 -->
<g id="node23" class="node">
<title>node21</title>
<polygon fill="#d4eacf" stroke="transparent" points="386,-258 386,-279 414,-279 414,-258 386,-258"/>
<polygon fill="none" stroke="black" points="386,-258 386,-279 414,-279 414,-258 386,-258"/>
<text text-anchor="start" x="396.5" y="-264.8" font-family="Times" font-size="14.00">b</text>
<polygon fill="none" stroke="black" points="386,-237 386,-258 414,-258 414,-237 386,-237"/>
<text text-anchor="start" x="389" y="-243.8" font-family="Times" font-size="14.00">dtor</text>
</g>
<!-- node6&#45;&gt;node21 -->
<g id="edge37" class="edge">
<title>node6&#45;&gt;node21</title>
<path fill="none" stroke="black" stroke-dasharray="5,2" d="M510.84,-493.82C495.91,-454.71 466.51,-380.57 436,-320 431.31,-310.69 425.78,-300.86 420.48,-291.88"/>
<polygon fill="black" stroke="black" points="423.44,-290 415.3,-283.22 417.43,-293.6 423.44,-290"/>
</g>
<!-- node8 -->
<g id="node10" class="node">
<title>node8</title>
<polygon fill="#d4eacf" stroke="transparent" points="360,-994 360,-1021 373,-1021 373,-994 360,-994"/>
<polygon fill="none" stroke="black" points="360,-994 360,-1021 373,-1021 373,-994 360,-994"/>
<text text-anchor="start" x="363" y="-1003.8" font-family="Times" font-size="14.00">c</text>
<polygon fill="#d4eacf" stroke="transparent" points="373,-994 373,-1021 386,-1021 386,-994 373,-994"/>
<polygon fill="none" stroke="black" points="373,-994 373,-1021 386,-1021 386,-994 373,-994"/>
<text text-anchor="start" x="376" y="-1003.8" font-family="Times" font-size="14.00">3</text>
<polygon fill="#d4eacf" stroke="transparent" points="386,-994 386,-1021 484,-1021 484,-994 386,-994"/>
<polygon fill="none" stroke="black" points="386,-994 386,-1021 484,-1021 484,-994 386,-994"/>
<text text-anchor="start" x="392" y="-1003.8" font-family="Times" font-size="14.00">0x7ffe1fb257c0</text>
<polygon fill="none" stroke="black" points="360,-973 360,-994 484,-994 484,-973 360,-973"/>
<text text-anchor="start" x="418.5" y="-979.8" font-family="Times" font-size="14.00">3</text>
</g>
<!-- node7&#45;&gt;node8 -->
<g id="edge12" class="edge">
<title>node7&#45;&gt;node8</title>
<path fill="none" stroke="black" stroke-dasharray="5,2" d="M422,-1418.72C422,-1401.05 422,-1376.54 422,-1355 422,-1355 422,-1355 422,-1086 422,-1069.49 422,-1051.24 422,-1035.66"/>
<polygon fill="black" stroke="black" points="425.5,-1035.35 422,-1025.35 418.5,-1035.35 425.5,-1035.35"/>
</g>
<!-- node7&#45;&gt;node9 -->
<g id="edge13" class="edge">
<title>node7&#45;&gt;node9</title>
<path fill="none" stroke="#278ec6" d="M398.23,-1418.95C388.25,-1408.86 376.52,-1397 365.89,-1386.25"/>
<polygon fill="#278ec6" stroke="#278ec6" points="368.26,-1383.67 358.74,-1379.02 363.29,-1388.59 368.26,-1383.67"/>
</g>
<!-- node14 -->
<g id="node16" class="node">
<title>node14</title>
<polygon fill="#d4eacf" stroke="transparent" points="236,-907 236,-928 249,-928 249,-907 236,-907"/>
<polygon fill="none" stroke="black" points="236,-907 236,-928 249,-928 249,-907 236,-907"/>
<text text-anchor="start" x="239" y="-913.8" font-family="Times" font-size="14.00">c</text>
<polygon fill="#eacfcf" stroke="transparent" points="249,-907 249,-928 292,-928 292,-907 249,-907"/>
<polygon fill="none" stroke="black" points="249,-907 249,-928 292,-928 292,-907 249,-907"/>
<text text-anchor="start" x="252" y="-913.8" font-family="Times" font-size="14.00">TMP1</text>
<polygon fill="none" stroke="black" points="236,-886 236,-907 292,-907 292,-886 236,-886"/>
<text text-anchor="start" x="260.5" y="-892.8" font-family="Times" font-size="14.00">*</text>
</g>
<!-- node8&#45;&gt;node14 -->
<g id="edge23" class="edge">
<title>node8&#45;&gt;node14</title>
<path fill="none" stroke="#691269" d="M373.31,-968.88C352.86,-957.49 329.23,-944.33 309.18,-933.16"/>
<polygon fill="#691269" stroke="#691269" points="310.68,-929.99 300.24,-928.18 307.27,-936.11 310.68,-929.99"/>
</g>
<!-- node20 -->
<g id="node22" class="node">
<title>node20</title>
<polygon fill="#d4eacf" stroke="transparent" points="386,-345 386,-366 414,-366 414,-345 386,-345"/>
<polygon fill="none" stroke="black" points="386,-345 386,-366 414,-366 414,-345 386,-345"/>
<text text-anchor="start" x="396.5" y="-351.8" font-family="Times" font-size="14.00">c</text>
<polygon fill="none" stroke="black" points="386,-324 386,-345 414,-345 414,-324 386,-324"/>
<text text-anchor="start" x="389" y="-330.8" font-family="Times" font-size="14.00">dtor</text>
</g>
<!-- node8&#45;&gt;node20 -->
<g id="edge35" class="edge">
<title>node8&#45;&gt;node20</title>
<path fill="none" stroke="black" stroke-dasharray="5,2" d="M423.41,-968.66C424.19,-951.29 425,-928.33 425,-908 425,-908 425,-908 425,-776 425,-628.46 410.15,-452.93 403.34,-380.19"/>
<polygon fill="black" stroke="black" points="406.82,-379.84 402.4,-370.22 399.85,-380.5 406.82,-379.84"/>
</g>
<!-- node9&#45;&gt;node10 -->
<g id="edge15" class="edge">
<title>node9&#45;&gt;node10</title>
<path fill="none" stroke="#691269" d="M308.49,-1328.95C298.29,-1319.69 286.43,-1308.93 275.38,-1298.91"/>
<polygon fill="#691269" stroke="#691269" points="277.65,-1296.25 267.89,-1292.12 272.95,-1301.43 277.65,-1296.25"/>
</g>
<!-- node11 -->
<g id="node13" class="node">
<title>node11</title>
<polygon fill="#d4eacf" stroke="transparent" points="225,-1174 225,-1195 238,-1195 238,-1174 225,-1174"/>
<polygon fill="none" stroke="black" points="225,-1174 225,-1195 238,-1195 238,-1174 225,-1174"/>
<text text-anchor="start" x="228" y="-1180.8" font-family="Times" font-size="14.00">a</text>
<polygon fill="#d4eacf" stroke="transparent" points="238,-1174 238,-1195 251,-1195 251,-1174 238,-1174"/>
<polygon fill="none" stroke="black" points="238,-1174 238,-1195 251,-1195 251,-1174 238,-1174"/>
<text text-anchor="start" x="241" y="-1180.8" font-family="Times" font-size="14.00">a</text>
<polygon fill="none" stroke="black" points="225,-1153 225,-1174 251,-1174 251,-1153 225,-1153"/>
<text text-anchor="start" x="233.5" y="-1159.8" font-family="Times" font-size="14.00">+</text>
</g>
<!-- node9&#45;&gt;node11 -->
<g id="edge17" class="edge">
<title>node9&#45;&gt;node11</title>
<path fill="none" stroke="#278ec6" d="M336.34,-1328.86C336.63,-1303.91 333.92,-1264.68 317,-1236 306.75,-1218.62 289.48,-1204.43 273.7,-1194.13"/>
<polygon fill="#278ec6" stroke="#278ec6" points="275.48,-1191.11 265.14,-1188.81 271.78,-1197.06 275.48,-1191.11"/>
</g>
<!-- node10&#45;&gt;node11 -->
<g id="edge18" class="edge">
<title>node10&#45;&gt;node11</title>
<path fill="none" stroke="#691269" d="M231.7,-1235.64C231.22,-1227.23 231.13,-1217.86 231.41,-1209.06"/>
<polygon fill="#691269" stroke="#691269" points="234.9,-1209.23 231.91,-1199.07 227.91,-1208.88 234.9,-1209.23"/>
</g>
<!-- node10&#45;&gt;node11 -->
<g id="edge19" class="edge">
<title>node10&#45;&gt;node11</title>
<path fill="none" stroke="#691269" d="M244.3,-1235.64C244.78,-1227.23 244.87,-1217.86 244.59,-1209.06"/>
<polygon fill="#691269" stroke="#691269" points="248.09,-1208.88 244.09,-1199.07 241.1,-1209.23 248.09,-1208.88"/>
</g>
<!-- node22 -->
<g id="node24" class="node">
<title>node22</title>
<polygon fill="#d4eacf" stroke="transparent" points="94,-171 94,-192 122,-192 122,-171 94,-171"/>
<polygon fill="none" stroke="black" points="94,-171 94,-192 122,-192 122,-171 94,-171"/>
<text text-anchor="start" x="104.5" y="-177.8" font-family="Times" font-size="14.00">a</text>
<polygon fill="none" stroke="black" points="94,-150 94,-171 122,-171 122,-150 94,-150"/>
<text text-anchor="start" x="97" y="-156.8" font-family="Times" font-size="14.00">dtor</text>
</g>
<!-- node10&#45;&gt;node22 -->
<g id="edge39" class="edge">
<title>node10&#45;&gt;node22</title>
<path fill="none" stroke="black" stroke-dasharray="5,2" d="M167.42,-1246.99C131.78,-1234.3 96,-1212.27 96,-1175 96,-1175 96,-1175 96,-257 96,-240.17 98.34,-221.64 100.95,-206.2"/>
<polygon fill="black" stroke="black" points="104.44,-206.52 102.77,-196.05 97.56,-205.28 104.44,-206.52"/>
</g>
<!-- node12 -->
<g id="node14" class="node">
<title>node12</title>
<polygon fill="#eacfcf" stroke="transparent" points="217,-1087 217,-1108 260,-1108 260,-1087 217,-1087"/>
<polygon fill="none" stroke="black" points="217,-1087 217,-1108 260,-1108 260,-1087 217,-1087"/>
<text text-anchor="start" x="220" y="-1093.8" font-family="Times" font-size="14.00">TMP1</text>
<polygon fill="none" stroke="black" points="217,-1066 217,-1087 260,-1087 260,-1066 217,-1066"/>
<text text-anchor="start" x="227.5" y="-1072.8" font-family="Times" font-size="14.00">ctor</text>
</g>
<!-- node11&#45;&gt;node12 -->
<g id="edge20" class="edge">
<title>node11&#45;&gt;node12</title>
<path fill="none" stroke="#278ec6" d="M238,-1148.87C238,-1140.61 238,-1131.22 238,-1122.31"/>
<polygon fill="#278ec6" stroke="#278ec6" points="241.5,-1122.19 238,-1112.19 234.5,-1122.19 241.5,-1122.19"/>
</g>
<!-- node13 -->
<g id="node15" class="node">
<title>node13</title>
<polygon fill="#eacfcf" stroke="transparent" points="171,-994 171,-1021 214,-1021 214,-994 171,-994"/>
<polygon fill="none" stroke="black" points="171,-994 171,-1021 214,-1021 214,-994 171,-994"/>
<text text-anchor="start" x="174" y="-1003.8" font-family="Times" font-size="14.00">TMP1</text>
<polygon fill="#eacfcf" stroke="transparent" points="214,-994 214,-1021 227,-1021 227,-994 214,-994"/>
<polygon fill="none" stroke="black" points="214,-994 214,-1021 227,-1021 227,-994 214,-994"/>
<text text-anchor="start" x="217" y="-1003.8" font-family="Times" font-size="14.00">4</text>
<polygon fill="#eacfcf" stroke="transparent" points="227,-994 227,-1021 326,-1021 326,-994 227,-994"/>
<polygon fill="none" stroke="black" points="227,-994 227,-1021 326,-1021 326,-994 227,-994"/>
<text text-anchor="start" x="233" y="-1003.8" font-family="Times" font-size="14.00">0x7ffe1fb25820</text>
<polygon fill="none" stroke="black" points="171,-973 171,-994 326,-994 326,-973 171,-973"/>
<text text-anchor="start" x="245" y="-979.8" font-family="Times" font-size="14.00">8</text>
</g>
<!-- node12&#45;&gt;node13 -->
<g id="edge21" class="edge">
<title>node12&#45;&gt;node13</title>
<path fill="none" stroke="black" stroke-dasharray="5,2" d="M240.73,-1061.95C241.67,-1053.67 242.75,-1044.19 243.78,-1035.11"/>
<polygon fill="black" stroke="black" points="247.27,-1035.45 244.92,-1025.12 240.31,-1034.66 247.27,-1035.45"/>
</g>
<!-- node12&#45;&gt;node14 -->
<g id="edge22" class="edge">
<title>node12&#45;&gt;node14</title>
<path fill="none" stroke="#278ec6" d="M208.19,-1073.5C188.6,-1063.52 164.53,-1047.46 153,-1025 141.64,-1002.86 140.33,-990.42 153,-969 167.12,-945.13 194.27,-929.97 218.18,-920.74"/>
<polygon fill="#278ec6" stroke="#278ec6" points="219.62,-923.94 227.84,-917.25 217.24,-917.36 219.62,-923.94"/>
</g>
<!-- node13&#45;&gt;node14 -->
<g id="edge24" class="edge">
<title>node13&#45;&gt;node14</title>
<path fill="none" stroke="#691269" d="M252.97,-968.64C254.5,-960.23 256.21,-950.86 257.81,-942.06"/>
<polygon fill="#691269" stroke="#691269" points="261.28,-942.53 259.62,-932.07 254.39,-941.28 261.28,-942.53"/>
</g>
<!-- node19 -->
<g id="node21" class="node">
<title>node19</title>
<polygon fill="#eacfcf" stroke="transparent" points="290,-432 290,-453 333,-453 333,-432 290,-432"/>
<polygon fill="none" stroke="black" points="290,-432 290,-453 333,-453 333,-432 290,-432"/>
<text text-anchor="start" x="293" y="-438.8" font-family="Times" font-size="14.00">TMP1</text>
<polygon fill="none" stroke="black" points="290,-411 290,-432 333,-432 333,-411 290,-411"/>
<text text-anchor="start" x="300.5" y="-417.8" font-family="Times" font-size="14.00">dtor</text>
</g>
<!-- node13&#45;&gt;node19 -->
<g id="edge33" class="edge">
<title>node13&#45;&gt;node19</title>
<path fill="none" stroke="black" stroke-dasharray="5,2" d="M197.78,-968.83C177.59,-953.99 159,-933.42 159,-908 159,-908 159,-908 159,-521 159,-469.09 226.22,-447.3 271.25,-438.53"/>
<polygon fill="black" stroke="black" points="272.11,-441.94 281.33,-436.71 270.87,-435.05 272.11,-441.94"/>
</g>
<!-- node15 -->
<g id="node17" class="node">
<title>node15</title>
<polygon fill="#eacfcf" stroke="transparent" points="252,-820 252,-841 295,-841 295,-820 252,-820"/>
<polygon fill="none" stroke="black" points="252,-820 252,-841 295,-841 295,-820 252,-820"/>
<text text-anchor="start" x="255" y="-826.8" font-family="Times" font-size="14.00">TMP2</text>
<polygon fill="none" stroke="black" points="252,-799 252,-820 295,-820 295,-799 252,-799"/>
<text text-anchor="start" x="262.5" y="-805.8" font-family="Times" font-size="14.00">ctor</text>
</g>
<!-- node14&#45;&gt;node15 -->
<g id="edge25" class="edge">
<title>node14&#45;&gt;node15</title>
<path fill="none" stroke="#278ec6" d="M266.55,-881.87C267.43,-873.61 268.42,-864.22 269.37,-855.31"/>
<polygon fill="#278ec6" stroke="#278ec6" points="272.87,-855.5 270.44,-845.19 265.91,-854.77 272.87,-855.5"/>
</g>
<!-- node16 -->
<g id="node18" class="node">
<title>node16</title>
<polygon fill="#eacfcf" stroke="transparent" points="196,-727 196,-754 239,-754 239,-727 196,-727"/>
<polygon fill="none" stroke="black" points="196,-727 196,-754 239,-754 239,-727 196,-727"/>
<text text-anchor="start" x="199" y="-736.8" font-family="Times" font-size="14.00">TMP2</text>
<polygon fill="#eacfcf" stroke="transparent" points="239,-727 239,-754 252,-754 252,-727 239,-727"/>
<polygon fill="none" stroke="black" points="239,-727 239,-754 252,-754 252,-727 239,-727"/>
<text text-anchor="start" x="242" y="-736.8" font-family="Times" font-size="14.00">5</text>
<polygon fill="#eacfcf" stroke="transparent" points="252,-727 252,-754 351,-754 351,-727 252,-727"/>
<polygon fill="none" stroke="black" points="252,-727 252,-754 351,-754 351,-727 252,-727"/>
<text text-anchor="start" x="258" y="-736.8" font-family="Times" font-size="14.00">0x7ffe1fb25880</text>
<polygon fill="none" stroke="black" points="196,-706 196,-727 351,-727 351,-706 196,-706"/>
<text text-anchor="start" x="266.5" y="-712.8" font-family="Times" font-size="14.00">24</text>
</g>
<!-- node15&#45;&gt;node16 -->
<g id="edge26" class="edge">
<title>node15&#45;&gt;node16</title>
<path fill="none" stroke="black" stroke-dasharray="5,2" d="M273,-794.95C273,-786.76 273,-777.4 273,-768.41"/>
<polygon fill="black" stroke="black" points="276.5,-768.12 273,-758.12 269.5,-768.12 276.5,-768.12"/>
</g>
<!-- node17 -->
<g id="node19" class="node">
<title>node17</title>
<polygon fill="#d4eacf" stroke="transparent" points="315,-626 315,-647 334,-647 334,-626 315,-626"/>
<polygon fill="none" stroke="black" points="315,-626 315,-647 334,-647 334,-626 315,-626"/>
<text text-anchor="start" x="321" y="-632.8" font-family="Times" font-size="14.00">b</text>
<polygon fill="#eacfcf" stroke="transparent" points="334,-626 334,-647 384,-647 384,-626 334,-626"/>
<polygon fill="none" stroke="black" points="334,-626 334,-647 384,-647 384,-626 334,-626"/>
<text text-anchor="start" x="340.5" y="-632.8" font-family="Times" font-size="14.00">TMP2</text>
<polygon fill="none" stroke="black" points="315,-605 315,-626 384,-626 384,-605 315,-605"/>
<text text-anchor="start" x="318" y="-611.8" font-family="Times" font-size="14.00">asgn_move</text>
</g>
<!-- node15&#45;&gt;node17 -->
<g id="edge27" class="edge">
<title>node15&#45;&gt;node17</title>
<path fill="none" stroke="#278ec6" d="M302.95,-808.8C325.31,-799.42 354.28,-783.11 368,-758 384.46,-727.87 375.24,-688.3 364.7,-660.56"/>
<polygon fill="#278ec6" stroke="#278ec6" points="367.95,-659.25 360.96,-651.28 361.46,-661.86 367.95,-659.25"/>
</g>
<!-- node16&#45;&gt;node17 -->
<g id="edge29" class="edge">
<title>node16&#45;&gt;node17</title>
<path fill="none" stroke="#108910" d="M293.17,-701.93C302.93,-688.84 314.72,-673.01 324.94,-659.29"/>
<polygon fill="#108910" stroke="#108910" points="327.91,-661.17 331.07,-651.06 322.29,-656.99 327.91,-661.17"/>
<text text-anchor="start" x="316" y="-672.8" font-family="Times,serif" font-size="14.00" fill="#108910">MOVE</text>
</g>
<!-- node18 -->
<g id="node20" class="node">
<title>node18</title>
<polygon fill="#eacfcf" stroke="transparent" points="290,-522 290,-543 333,-543 333,-522 290,-522"/>
<polygon fill="none" stroke="black" points="290,-522 290,-543 333,-543 333,-522 290,-522"/>
<text text-anchor="start" x="293" y="-528.8" font-family="Times" font-size="14.00">TMP2</text>
<polygon fill="none" stroke="black" points="290,-501 290,-522 333,-522 333,-501 290,-501"/>
<text text-anchor="start" x="300.5" y="-507.8" font-family="Times" font-size="14.00">dtor</text>
</g>
<!-- node16&#45;&gt;node18 -->
<g id="edge31" class="edge">
<title>node16&#45;&gt;node18</title>
<path fill="none" stroke="black" stroke-dasharray="5,2" d="M278.05,-701.64C284.92,-664.39 297.22,-597.72 304.69,-557.21"/>
<polygon fill="black" stroke="black" points="308.15,-557.73 306.53,-547.26 301.27,-556.46 308.15,-557.73"/>
</g>
<!-- node17&#45;&gt;node6 -->
<g id="edge28" class="edge">
<title>node17&#45;&gt;node6</title>
<path fill="none" stroke="#108910" d="M389.76,-600.83C412.78,-587.18 441.84,-569.95 466.76,-555.17"/>
<polygon fill="#108910" stroke="#108910" points="468.57,-558.16 475.38,-550.05 465,-552.14 468.57,-558.16"/>
<text text-anchor="start" x="440" y="-571.8" font-family="Times,serif" font-size="14.00" fill="#108910">TO</text>
</g>
<!-- node17&#45;&gt;node18 -->
<g id="edge30" class="edge">
<title>node17&#45;&gt;node18</title>
<path fill="none" stroke="#278ec6" d="M339.99,-600.83C335.11,-587.71 328.99,-571.29 323.63,-556.91"/>
<polygon fill="#278ec6" stroke="#278ec6" points="326.84,-555.5 320.07,-547.35 320.28,-557.95 326.84,-555.5"/>
</g>
<!-- node18&#45;&gt;node19 -->
<g id="edge32" class="edge">
<title>node18&#45;&gt;node19</title>
<path fill="none" stroke="#278ec6" d="M311,-496.95C311,-487.74 311,-477.04 311,-467.06"/>
<polygon fill="#278ec6" stroke="#278ec6" points="314.5,-467.02 311,-457.02 307.5,-467.02 314.5,-467.02"/>
</g>
<!-- node19&#45;&gt;node20 -->
<g id="edge34" class="edge">
<title>node19&#45;&gt;node20</title>
<path fill="none" stroke="#278ec6" d="M336.27,-406.87C345.94,-397.63 357.12,-386.95 367.39,-377.14"/>
<polygon fill="#278ec6" stroke="#278ec6" points="369.86,-379.63 374.67,-370.19 365.02,-374.57 369.86,-379.63"/>
</g>
<!-- node20&#45;&gt;node21 -->
<g id="edge36" class="edge">
<title>node20&#45;&gt;node21</title>
<path fill="none" stroke="#278ec6" d="M400,-319.87C400,-311.61 400,-302.22 400,-293.31"/>
<polygon fill="#278ec6" stroke="#278ec6" points="403.5,-293.19 400,-283.19 396.5,-293.19 403.5,-293.19"/>
</g>
<!-- node21&#45;&gt;node22 -->
<g id="edge38" class="edge">
<title>node21&#45;&gt;node22</title>
<path fill="none" stroke="#278ec6" d="M372.79,-249.08C320.19,-233.77 204.51,-200.09 144.99,-182.77"/>
<polygon fill="#278ec6" stroke="#278ec6" points="145.83,-179.37 135.25,-179.93 143.87,-186.09 145.83,-179.37"/>
</g>
<!-- node23 -->
<g id="node25" class="node">
<title>node23</title>
<polygon fill="none" stroke="#4444ee" points="108,-109 70.13,-91 108,-73 145.87,-91 108,-109"/>
<text text-anchor="start" x="95.5" y="-87.3" font-family="Times" font-size="14.00">func</text>
</g>
<!-- node22&#45;&gt;node23 -->
<g id="edge40" class="edge">
<title>node22&#45;&gt;node23</title>
<path fill="none" stroke="#278ec6" d="M108,-145.75C108,-137.45 108,-128.1 108,-119.56"/>
<polygon fill="#278ec6" stroke="#278ec6" points="111.5,-119.3 108,-109.3 104.5,-119.3 111.5,-119.3"/>
</g>
<!-- node24 -->
<g id="node26" class="node">
<title>node24</title>
<polygon fill="none" stroke="black" points="60.34,0 155.66,0 189.61,-36 26.39,-36 60.34,0"/>
<text text-anchor="start" x="71.5" y="-14.3" font-family="Times,serif" font-size="14.00">End of log</text>
</g>
<!-- node23&#45;&gt;node24 -->
<g id="edge41" class="edge">
<title>node23&#45;&gt;node24</title>
<path fill="none" stroke="#278ec6" d="M108,-72.81C108,-64.79 108,-55.05 108,-46.07"/>
<polygon fill="#278ec6" stroke="#278ec6" points="111.5,-46.03 108,-36.03 104.5,-46.03 111.5,-46.03"/>
</g>
</g>
</svg>
