<?xml version="1.0" encoding="UTF-8" standalone="no"?>
<!DOCTYPE svg PUBLIC "-//W3C//DTD SVG 1.1//EN"
 "http://www.w3.org/Graphics/SVG/1.1/DTD/svg11.dtd">
<!-- Generated by graphviz version 2.43.0 (0)
 -->
<!-- Title: list Pages: 1 -->
<svg width="552pt" height="1176pt"
 viewBox="0.00 0.00 551.50 1176.00" xmlns="http://www.w3.org/2000/svg" xmlns:xlink="http://www.w3.org/1999/xlink">
<g id="graph0" class="graph" transform="scale(1 1) rotate(0) translate(4 1172)">
<title>list</title>
<polygon fill="white" stroke="transparent" points="-4,4 -4,-1172 547.5,-1172 547.5,4 -4,4"/>
<g id="clust1" class="cluster">
<title>cluster_beb</title>
<polygon fill="none" stroke="black" points="16.5,-1018 16.5,-1160 257.5,-1160 257.5,-1018 16.5,-1018"/>
<text text-anchor="middle" x="137" y="-1144.8" font-family="Times,serif" font-size="14.00">Legend</text>
</g>
<!-- key -->
<g id="node1" class="node">
<title>key</title>
<text text-anchor="start" x="35.5" y="-1111.3" font-family="Times,serif" font-size="14.00">action sequence</text>
<text text-anchor="start" x="96.5" y="-1092.3" font-family="Times,serif" font-size="14.00">var live</text>
<text text-anchor="start" x="80.5" y="-1073.3" font-family="Times,serif" font-size="14.00">a good op</text>
<text text-anchor="start" x="89.5" y="-1054.3" font-family="Times,serif" font-size="14.00">a bad op</text>
<text text-anchor="start" x="82.5" y="-1035.3" font-family="Times,serif" font-size="14.00">other ops</text>
</g>
<!-- key2 -->
<g id="node2" class="node">
<title>key2</title>
<text text-anchor="start" x="220.5" y="-1111.3" font-family="Times,serif" font-size="14.00"> </text>
<text text-anchor="start" x="220.5" y="-1092.3" font-family="Times,serif" font-size="14.00"> </text>
<text text-anchor="start" x="220.5" y="-1073.3" font-family="Times,serif" font-size="14.00"> </text>
<text text-anchor="start" x="220.5" y="-1054.3" font-family="Times,serif" font-size="14.00"> </text>
<text text-anchor="start" x="220.5" y="-1035.3" font-family="Times,serif" font-size="14.00"> </text>
</g>
<!-- key&#45;&gt;key2 -->
<g id="edge1" class="edge">
<title>key:e&#45;&gt;key2:w</title>
<path fill="none" stroke="#278ec6" d="M153.5,-1115.5C178.28,-1115.5 186.87,-1115.5 207.47,-1115.5"/>
<polygon fill="#278ec6" stroke="#278ec6" points="207.5,-1119 217.5,-1115.5 207.5,-1112 207.5,-1119"/>
</g>
<!-- key&#45;&gt;key2 -->
<g id="edge2" class="edge">
<title>key:e&#45;&gt;key2:w</title>
<path fill="none" stroke="black" stroke-dasharray="5,2" d="M153.5,-1096.5C178.28,-1096.5 186.87,-1096.5 207.47,-1096.5"/>
<polygon fill="black" stroke="black" points="207.5,-1100 217.5,-1096.5 207.5,-1093 207.5,-1100"/>
</g>
<!-- key&#45;&gt;key2 -->
<g id="edge3" class="edge">
<title>key:e&#45;&gt;key2:w</title>
<path fill="none" stroke="#108910" d="M153.5,-1076.5C178.28,-1076.5 186.87,-1076.5 207.47,-1076.5"/>
<polygon fill="#108910" stroke="#108910" points="207.5,-1080 217.5,-1076.5 207.5,-1073 207.5,-1080"/>
</g>
<!-- key&#45;&gt;key2 -->
<g id="edge4" class="edge">
<title>key:e&#45;&gt;key2:w</title>
<path fill="none" stroke="#ee1c1c" d="M153.5,-1057.5C178.28,-1057.5 186.87,-1057.5 207.47,-1057.5"/>
<polygon fill="#ee1c1c" stroke="#ee1c1c" points="207.5,-1061 217.5,-1057.5 207.5,-1054 207.5,-1061"/>
</g>
<!-- key&#45;&gt;key2 -->
<g id="edge5" class="edge">
<title>key:e&#45;&gt;key2:w</title>
<path fill="none" stroke="#691269" d="M153.5,-1038.5C178.28,-1038.5 186.87,-1038.5 207.47,-1038.5"/>
<polygon fill="#691269" stroke="#691269" points="207.5,-1042 217.5,-1038.5 207.5,-1035 207.5,-1042"/>
</g>
<!-- node1 -->
<g id="node3" class="node">
<title>node1</title>
<polygon fill="none" stroke="#278ec6" points="410.15,-1095.5 304.85,-1095.5 267.35,-1059.5 447.65,-1059.5 410.15,-1095.5"/>
<text text-anchor="start" x="316.5" y="-1073.8" font-family="Times,serif" font-size="14.00">Start of log</text>
</g>
<!-- node2 -->
<g id="node4" class="node">
<title>node2</title>
<polygon fill="none" stroke="#44cc44" points="357.5,-989 319.63,-971 357.5,-953 395.37,-971 357.5,-989"/>
<text text-anchor="start" x="345" y="-967.3" font-family="Times" font-size="14.00">func</text>
</g>
<!-- node1&#45;&gt;node2 -->
<g id="edge6" class="edge">
<title>node1&#45;&gt;node2</title>
<path fill="none" stroke="#278ec6" d="M357.5,-1059.24C357.5,-1042.98 357.5,-1018.35 357.5,-999.4"/>
<polygon fill="#278ec6" stroke="#278ec6" points="361,-999.28 357.5,-989.28 354,-999.28 361,-999.28"/>
</g>
<!-- node3 -->
<g id="node5" class="node">
<title>node3</title>
<polygon fill="#d4eacf" stroke="transparent" points="338.5,-891 338.5,-912 376.5,-912 376.5,-891 338.5,-891"/>
<polygon fill="none" stroke="black" points="338.5,-891 338.5,-912 376.5,-912 376.5,-891 338.5,-891"/>
<text text-anchor="start" x="341.5" y="-897.8" font-family="Times" font-size="14.00">initial</text>
<polygon fill="none" stroke="black" points="338.5,-870 338.5,-891 376.5,-891 376.5,-870 338.5,-870"/>
<text text-anchor="start" x="346.5" y="-876.8" font-family="Times" font-size="14.00">ctor</text>
</g>
<!-- node2&#45;&gt;node3 -->
<g id="edge7" class="edge">
<title>node2&#45;&gt;node3</title>
<path fill="none" stroke="#278ec6" d="M357.5,-952.69C357.5,-944.86 357.5,-935.33 357.5,-926.16"/>
<polygon fill="#278ec6" stroke="#278ec6" points="361,-926.07 357.5,-916.07 354,-926.07 361,-926.07"/>
</g>
<!-- node4 -->
<g id="node6" class="node">
<title>node4</title>
<polygon fill="#d4eacf" stroke="transparent" points="345.5,-725 345.5,-752 383.5,-752 383.5,-725 345.5,-725"/>
<polygon fill="none" stroke="black" points="345.5,-725 345.5,-752 383.5,-752 383.5,-725 345.5,-725"/>
<text text-anchor="start" x="348.5" y="-734.8" font-family="Times" font-size="14.00">initial</text>
<polygon fill="#d4eacf" stroke="transparent" points="383.5,-725 383.5,-752 396.5,-752 396.5,-725 383.5,-725"/>
<polygon fill="none" stroke="black" points="383.5,-725 383.5,-752 396.5,-752 396.5,-725 383.5,-725"/>
<text text-anchor="start" x="386.5" y="-734.8" font-family="Times" font-size="14.00">1</text>
<polygon fill="#d4eacf" stroke="transparent" points="396.5,-725 396.5,-752 497.5,-752 497.5,-725 396.5,-725"/>
<polygon fill="none" stroke="black" points="396.5,-725 396.5,-752 497.5,-752 497.5,-725 396.5,-725"/>
<text text-anchor="start" x="402.5" y="-734.8" font-family="Times" font-size="14.00">0x7ffd523c1390</text>
<polygon fill="none" stroke="black" points="345.5,-704 345.5,-725 497.5,-725 497.5,-704 345.5,-704"/>
<text text-anchor="start" x="386" y="-710.8" font-family="Times" font-size="14.00">Feature Film</text>
</g>
<!-- node3&#45;&gt;node4 -->
<g id="edge8" class="edge">
<title>node3&#45;&gt;node4</title>
<path fill="none" stroke="black" stroke-dasharray="5,2" d="M367.08,-865.9C377.62,-839.38 394.69,-796.46 406.89,-765.74"/>
<polygon fill="black" stroke="black" points="410.23,-766.82 410.67,-756.23 403.73,-764.23 410.23,-766.82"/>
</g>
<!-- node5 -->
<g id="node7" class="node">
<title>node5</title>
<polygon fill="none" stroke="#44cc44" points="293.5,-829 219.93,-811 293.5,-793 367.07,-811 293.5,-829"/>
<text text-anchor="start" x="261.5" y="-807.3" font-family="Times" font-size="14.00">Gona move</text>
</g>
<!-- node3&#45;&gt;node5 -->
<g id="edge9" class="edge">
<title>node3&#45;&gt;node5</title>
<path fill="none" stroke="#278ec6" d="M337.6,-865.75C329.34,-855.69 319.83,-844.09 311.75,-834.25"/>
<polygon fill="#278ec6" stroke="#278ec6" points="314.42,-831.98 305.37,-826.47 309.01,-836.42 314.42,-831.98"/>
</g>
<!-- node7 -->
<g id="node9" class="node">
<title>node7</title>
<polygon fill="#eacfcf" stroke="transparent" points="178.5,-624 178.5,-645 221.5,-645 221.5,-624 178.5,-624"/>
<polygon fill="none" stroke="black" points="178.5,-624 178.5,-645 221.5,-645 221.5,-624 178.5,-624"/>
<text text-anchor="start" x="181.5" y="-630.8" font-family="Times" font-size="14.00">TMP1</text>
<polygon fill="#d4eacf" stroke="transparent" points="221.5,-624 221.5,-645 259.5,-645 259.5,-624 221.5,-624"/>
<polygon fill="none" stroke="black" points="221.5,-624 221.5,-645 259.5,-645 259.5,-624 221.5,-624"/>
<text text-anchor="start" x="224.5" y="-630.8" font-family="Times" font-size="14.00">initial</text>
<polygon fill="none" stroke="black" points="178.5,-603 178.5,-624 259.5,-624 259.5,-603 178.5,-603"/>
<text text-anchor="start" x="189.5" y="-609.8" font-family="Times" font-size="14.00">ctor_move</text>
</g>
<!-- node4&#45;&gt;node7 -->
<g id="edge12" class="edge">
<title>node4&#45;&gt;node7</title>
<path fill="none" stroke="#108910" d="M367.63,-699.93C339.23,-685.66 304.39,-668.15 275.52,-653.65"/>
<polygon fill="#108910" stroke="#108910" points="276.89,-650.42 266.38,-649.06 273.74,-656.67 276.89,-650.42"/>
<text text-anchor="start" x="326.5" y="-670.8" font-family="Times,serif" font-size="14.00" fill="#108910">MOVE</text>
</g>
<!-- node13 -->
<g id="node15" class="node">
<title>node13</title>
<polygon fill="#d4eacf" stroke="transparent" points="364.5,-191 364.5,-212 402.5,-212 402.5,-191 364.5,-191"/>
<polygon fill="none" stroke="black" points="364.5,-191 364.5,-212 402.5,-212 402.5,-191 364.5,-191"/>
<text text-anchor="start" x="367.5" y="-197.8" font-family="Times" font-size="14.00">initial</text>
<polygon fill="none" stroke="black" points="364.5,-170 364.5,-191 402.5,-191 402.5,-170 364.5,-170"/>
<text text-anchor="start" x="372.5" y="-176.8" font-family="Times" font-size="14.00">dtor</text>
</g>
<!-- node4&#45;&gt;node13 -->
<g id="edge21" class="edge">
<title>node4&#45;&gt;node13</title>
<path fill="none" stroke="#be8607" d="M421.5,-699.73C421.5,-679.18 421.5,-650.32 421.5,-625 421.5,-625 421.5,-625 421.5,-270 421.5,-254.21 415.13,-238.28 407.61,-224.96"/>
<polygon fill="#be8607" stroke="#be8607" points="410.46,-222.92 402.28,-216.2 404.48,-226.56 410.46,-222.92"/>
</g>
<!-- node14 -->
<g id="node16" class="node">
<title>node14</title>
<polygon fill="#d4eacf" stroke="transparent" points="383.5,-98 383.5,-125 421.5,-125 421.5,-98 383.5,-98"/>
<polygon fill="none" stroke="black" points="383.5,-98 383.5,-125 421.5,-125 421.5,-98 383.5,-98"/>
<text text-anchor="start" x="386.5" y="-107.8" font-family="Times" font-size="14.00">initial</text>
<polygon fill="#d4eacf" stroke="transparent" points="421.5,-98 421.5,-125 434.5,-125 434.5,-98 421.5,-98"/>
<polygon fill="none" stroke="black" points="421.5,-98 421.5,-125 434.5,-125 434.5,-98 421.5,-98"/>
<text text-anchor="start" x="424.5" y="-107.8" font-family="Times" font-size="14.00">1</text>
<polygon fill="#d4eacf" stroke="transparent" points="434.5,-98 434.5,-125 535.5,-125 535.5,-98 434.5,-98"/>
<polygon fill="none" stroke="black" points="434.5,-98 434.5,-125 535.5,-125 535.5,-98 434.5,-98"/>
<text text-anchor="start" x="440.5" y="-107.8" font-family="Times" font-size="14.00">0x7ffd523c1390</text>
<polygon fill="none" stroke="black" points="383.5,-77 383.5,-98 535.5,-98 535.5,-77 383.5,-77"/>
<text text-anchor="start" x="418.5" y="-83.8" font-family="Times" font-size="14.00">~~~Snatch~~~</text>
</g>
<!-- node4&#45;&gt;node14 -->
<g id="edge23" class="edge">
<title>node4&#45;&gt;node14</title>
<path fill="none" stroke="black" stroke-dasharray="5,2" d="M437.62,-699.87C447.97,-679.88 459.5,-651.65 459.5,-625 459.5,-625 459.5,-625 459.5,-190 459.5,-173.49 459.5,-155.24 459.5,-139.66"/>
<polygon fill="black" stroke="black" points="463,-139.35 459.5,-129.35 456,-139.35 463,-139.35"/>
</g>
<!-- node6 -->
<g id="node8" class="node">
<title>node6</title>
<polygon fill="none" stroke="#44cc44" points="218.5,-746 117.29,-728 218.5,-710 319.71,-728 218.5,-746"/>
<text text-anchor="start" x="171.5" y="-724.3" font-family="Times" font-size="14.00">TO_UPERCASE</text>
</g>
<!-- node5&#45;&gt;node6 -->
<g id="edge10" class="edge">
<title>node5&#45;&gt;node6</title>
<path fill="none" stroke="#278ec6" d="M280.44,-795.89C269.03,-783.58 252.29,-765.5 239.09,-751.24"/>
<polygon fill="#278ec6" stroke="#278ec6" points="241.54,-748.73 232.17,-743.77 236.4,-753.48 241.54,-748.73"/>
</g>
<!-- node6&#45;&gt;node7 -->
<g id="edge11" class="edge">
<title>node6&#45;&gt;node7</title>
<path fill="none" stroke="#278ec6" d="M218.5,-709.7C218.5,-695.95 218.5,-676.3 218.5,-659.38"/>
<polygon fill="#278ec6" stroke="#278ec6" points="222,-659.28 218.5,-649.28 215,-659.28 222,-659.28"/>
</g>
<!-- node8 -->
<g id="node10" class="node">
<title>node8</title>
<polygon fill="#eacfcf" stroke="transparent" points="25.5,-531 25.5,-558 68.5,-558 68.5,-531 25.5,-531"/>
<polygon fill="none" stroke="black" points="25.5,-531 25.5,-558 68.5,-558 68.5,-531 25.5,-531"/>
<text text-anchor="start" x="28.5" y="-540.8" font-family="Times" font-size="14.00">TMP1</text>
<polygon fill="#eacfcf" stroke="transparent" points="68.5,-531 68.5,-558 81.5,-558 81.5,-531 68.5,-531"/>
<polygon fill="none" stroke="black" points="68.5,-531 68.5,-558 81.5,-558 81.5,-531 68.5,-531"/>
<text text-anchor="start" x="71.5" y="-540.8" font-family="Times" font-size="14.00">2</text>
<polygon fill="#eacfcf" stroke="transparent" points="81.5,-531 81.5,-558 182.5,-558 182.5,-531 81.5,-531"/>
<polygon fill="none" stroke="black" points="81.5,-531 81.5,-558 182.5,-558 182.5,-531 81.5,-531"/>
<text text-anchor="start" x="87.5" y="-540.8" font-family="Times" font-size="14.00">0x7ffd523c1190</text>
<polygon fill="none" stroke="black" points="25.5,-510 25.5,-531 182.5,-531 182.5,-510 25.5,-510"/>
<text text-anchor="start" x="68.5" y="-516.8" font-family="Times" font-size="14.00">Feature Film</text>
</g>
<!-- node7&#45;&gt;node8 -->
<g id="edge13" class="edge">
<title>node7&#45;&gt;node8</title>
<path fill="none" stroke="black" stroke-dasharray="5,2" d="M187.08,-598.95C174.74,-589.51 160.37,-578.52 147.06,-568.34"/>
<polygon fill="black" stroke="black" points="149.01,-565.42 138.94,-562.12 144.76,-570.98 149.01,-565.42"/>
</g>
<!-- node9 -->
<g id="node11" class="node">
<title>node9</title>
<polygon fill="#eacfcf" stroke="transparent" points="179.5,-444 179.5,-465 222.5,-465 222.5,-444 179.5,-444"/>
<polygon fill="none" stroke="black" points="179.5,-444 179.5,-465 222.5,-465 222.5,-444 179.5,-444"/>
<text text-anchor="start" x="182.5" y="-450.8" font-family="Times" font-size="14.00">TMP1</text>
<polygon fill="none" stroke="black" points="179.5,-423 179.5,-444 222.5,-444 222.5,-423 179.5,-423"/>
<text text-anchor="start" x="190" y="-429.8" font-family="Times" font-size="14.00">dtor</text>
</g>
<!-- node7&#45;&gt;node9 -->
<g id="edge14" class="edge">
<title>node7&#45;&gt;node9</title>
<path fill="none" stroke="#278ec6" d="M216.07,-598.99C212.96,-568.21 207.54,-514.6 203.98,-479.46"/>
<polygon fill="#278ec6" stroke="#278ec6" points="207.44,-478.79 202.95,-469.19 200.47,-479.5 207.44,-478.79"/>
</g>
<!-- node8&#45;&gt;node9 -->
<g id="edge15" class="edge">
<title>node8&#45;&gt;node9</title>
<path fill="none" stroke="#be8607" d="M133.39,-505.88C143.79,-496.45 155.52,-485.8 166.24,-476.08"/>
<polygon fill="#be8607" stroke="#be8607" points="168.78,-478.51 173.83,-469.2 164.07,-473.32 168.78,-478.51"/>
</g>
<!-- node10 -->
<g id="node12" class="node">
<title>node10</title>
<polygon fill="#eacfcf" stroke="transparent" points="8.5,-351 8.5,-378 51.5,-378 51.5,-351 8.5,-351"/>
<polygon fill="none" stroke="black" points="8.5,-351 8.5,-378 51.5,-378 51.5,-351 8.5,-351"/>
<text text-anchor="start" x="11.5" y="-360.8" font-family="Times" font-size="14.00">TMP1</text>
<polygon fill="#eacfcf" stroke="transparent" points="51.5,-351 51.5,-378 64.5,-378 64.5,-351 51.5,-351"/>
<polygon fill="none" stroke="black" points="51.5,-351 51.5,-378 64.5,-378 64.5,-351 51.5,-351"/>
<text text-anchor="start" x="54.5" y="-360.8" font-family="Times" font-size="14.00">2</text>
<polygon fill="#eacfcf" stroke="transparent" points="64.5,-351 64.5,-378 165.5,-378 165.5,-351 64.5,-351"/>
<polygon fill="none" stroke="black" points="64.5,-351 64.5,-378 165.5,-378 165.5,-351 64.5,-351"/>
<text text-anchor="start" x="70.5" y="-360.8" font-family="Times" font-size="14.00">0x7ffd523c1190</text>
<polygon fill="none" stroke="black" points="8.5,-330 8.5,-351 165.5,-351 165.5,-330 8.5,-330"/>
<text text-anchor="start" x="37.5" y="-336.8" font-family="Times" font-size="14.00">FEATURE FILM</text>
</g>
<!-- node8&#45;&gt;node10 -->
<g id="edge17" class="edge">
<title>node8&#45;&gt;node10</title>
<path fill="none" stroke="black" stroke-dasharray="5,2" d="M100.92,-505.97C98.02,-475.65 93.31,-426.28 90.06,-392.3"/>
<polygon fill="black" stroke="black" points="93.54,-391.91 89.11,-382.29 86.57,-392.58 93.54,-391.91"/>
</g>
<!-- node9&#45;&gt;node10 -->
<g id="edge16" class="edge">
<title>node9&#45;&gt;node10</title>
<path fill="none" stroke="#be8607" d="M170.85,-420.11C158.27,-410.4 143.37,-398.9 129.62,-388.28"/>
<polygon fill="#be8607" stroke="#be8607" points="131.73,-385.5 121.68,-382.16 127.46,-391.04 131.73,-385.5"/>
</g>
<!-- node11 -->
<g id="node13" class="node">
<title>node11</title>
<polygon fill="none" stroke="#3333ee" points="292.5,-372 191.29,-354 292.5,-336 393.71,-354 292.5,-372"/>
<text text-anchor="start" x="245.5" y="-350.3" font-family="Times" font-size="14.00">TO_UPERCASE</text>
</g>
<!-- node9&#45;&gt;node11 -->
<g id="edge18" class="edge">
<title>node9&#45;&gt;node11</title>
<path fill="none" stroke="#278ec6" d="M225.64,-418.95C239.52,-405.68 256.6,-389.34 270.03,-376.49"/>
<polygon fill="#278ec6" stroke="#278ec6" points="272.66,-378.83 277.46,-369.38 267.82,-373.77 272.66,-378.83"/>
</g>
<!-- node12 -->
<g id="node14" class="node">
<title>node12</title>
<polygon fill="none" stroke="#3333ee" points="312.5,-289 238.93,-271 312.5,-253 386.07,-271 312.5,-289"/>
<text text-anchor="start" x="280.5" y="-267.3" font-family="Times" font-size="14.00">Gona move</text>
</g>
<!-- node11&#45;&gt;node12 -->
<g id="edge19" class="edge">
<title>node11&#45;&gt;node12</title>
<path fill="none" stroke="#278ec6" d="M296.55,-336.61C299.28,-325.56 302.93,-310.74 306.06,-298.08"/>
<polygon fill="#278ec6" stroke="#278ec6" points="309.53,-298.64 308.53,-288.09 302.73,-296.96 309.53,-298.64"/>
</g>
<!-- node12&#45;&gt;node13 -->
<g id="edge20" class="edge">
<title>node12&#45;&gt;node13</title>
<path fill="none" stroke="#278ec6" d="M325.19,-256.06C333.36,-247.08 344.32,-235.04 354.53,-223.82"/>
<polygon fill="#278ec6" stroke="#278ec6" points="357.3,-225.99 361.44,-216.24 352.12,-221.27 357.3,-225.99"/>
</g>
<!-- node13&#45;&gt;node14 -->
<g id="edge22" class="edge">
<title>node13&#45;&gt;node14</title>
<path fill="none" stroke="#be8607" d="M404.27,-165.95C412.04,-156.96 421.02,-146.55 429.46,-136.78"/>
<polygon fill="#be8607" stroke="#be8607" points="432.19,-138.98 436.08,-129.12 426.89,-134.4 432.19,-138.98"/>
</g>
<!-- node15 -->
<g id="node17" class="node">
<title>node15</title>
<polygon fill="none" stroke="#3333ee" points="319.5,-119 281.63,-101 319.5,-83 357.37,-101 319.5,-119"/>
<text text-anchor="start" x="307" y="-97.3" font-family="Times" font-size="14.00">func</text>
</g>
<!-- node13&#45;&gt;node15 -->
<g id="edge24" class="edge">
<title>node13&#45;&gt;node15</title>
<path fill="none" stroke="#278ec6" d="M366.01,-165.95C356.27,-152.56 344.25,-136.03 334.87,-123.13"/>
<polygon fill="#278ec6" stroke="#278ec6" points="337.57,-120.9 328.86,-114.87 331.91,-125.01 337.57,-120.9"/>
</g>
<!-- node16 -->
<g id="node18" class="node">
<title>node16</title>
<polygon fill="none" stroke="#278ec6" points="271.84,0 367.16,0 401.11,-36 237.89,-36 271.84,0"/>
<text text-anchor="start" x="283" y="-14.3" font-family="Times,serif" font-size="14.00">End of log</text>
</g>
<!-- node15&#45;&gt;node16 -->
<g id="edge25" class="edge">
<title>node15&#45;&gt;node16</title>
<path fill="none" stroke="#278ec6" d="M319.5,-82.82C319.5,-72.19 319.5,-58.31 319.5,-46.2"/>
<polygon fill="#278ec6" stroke="#278ec6" points="323,-46.15 319.5,-36.15 316,-46.15 323,-46.15"/>
</g>
</g>
</svg>
