<?xml version="1.0" encoding="UTF-8" standalone="no"?>
<!DOCTYPE svg PUBLIC "-//W3C//DTD SVG 1.1//EN"
 "http://www.w3.org/Graphics/SVG/1.1/DTD/svg11.dtd">
<!-- Generated by graphviz version 2.43.0 (0)
 -->
<!-- Title: list Pages: 1 -->
<svg width="545pt" height="1176pt"
 viewBox="0.00 0.00 545.00 1176.00" xmlns="http://www.w3.org/2000/svg" xmlns:xlink="http://www.w3.org/1999/xlink">
<g id="graph0" class="graph" transform="scale(1 1) rotate(0) translate(4 1172)">
<title>list</title>
<polygon fill="white" stroke="transparent" points="-4,4 -4,-1172 541,-1172 541,4 -4,4"/>
<g id="clust1" class="cluster">
<title>cluster_beb</title>
<polygon fill="none" stroke="black" points="15,-1018 15,-1160 256,-1160 256,-1018 15,-1018"/>
<text text-anchor="middle" x="135.5" y="-1144.8" font-family="Times,serif" font-size="14.00">Legend</text>
</g>
<!-- key -->
<g id="node1" class="node">
<title>key</title>
<text text-anchor="start" x="34" y="-1111.3" font-family="Times,serif" font-size="14.00">action sequence</text>
<text text-anchor="start" x="95" y="-1092.3" font-family="Times,serif" font-size="14.00">var live</text>
<text text-anchor="start" x="79" y="-1073.3" font-family="Times,serif" font-size="14.00">a good op</text>
<text text-anchor="start" x="88" y="-1054.3" font-family="Times,serif" font-size="14.00">a bad op</text>
<text text-anchor="start" x="81" y="-1035.3" font-family="Times,serif" font-size="14.00">other ops</text>
</g>
<!-- key2 -->
<g id="node2" class="node">
<title>key2</title>
<text text-anchor="start" x="219" y="-1111.3" font-family="Times,serif" font-size="14.00"> </text>
<text text-anchor="start" x="219" y="-1092.3" font-family="Times,serif" font-size="14.00"> </text>
<text text-anchor="start" x="219" y="-1073.3" font-family="Times,serif" font-size="14.00"> </text>
<text text-anchor="start" x="219" y="-1054.3" font-family="Times,serif" font-size="14.00"> </text>
<text text-anchor="start" x="219" y="-1035.3" font-family="Times,serif" font-size="14.00"> </text>
</g>
<!-- key&#45;&gt;key2 -->
<g id="edge1" class="edge">
<title>key:e&#45;&gt;key2:w</title>
<path fill="none" stroke="#278ec6" d="M152,-1115.5C176.78,-1115.5 185.37,-1115.5 205.97,-1115.5"/>
<polygon fill="#278ec6" stroke="#278ec6" points="206,-1119 216,-1115.5 206,-1112 206,-1119"/>
</g>
<!-- key&#45;&gt;key2 -->
<g id="edge2" class="edge">
<title>key:e&#45;&gt;key2:w</title>
<path fill="none" stroke="black" stroke-dasharray="5,2" d="M152,-1096.5C176.78,-1096.5 185.37,-1096.5 205.97,-1096.5"/>
<polygon fill="black" stroke="black" points="206,-1100 216,-1096.5 206,-1093 206,-1100"/>
</g>
<!-- key&#45;&gt;key2 -->
<g id="edge3" class="edge">
<title>key:e&#45;&gt;key2:w</title>
<path fill="none" stroke="#108910" d="M152,-1076.5C176.78,-1076.5 185.37,-1076.5 205.97,-1076.5"/>
<polygon fill="#108910" stroke="#108910" points="206,-1080 216,-1076.5 206,-1073 206,-1080"/>
</g>
<!-- key&#45;&gt;key2 -->
<g id="edge4" class="edge">
<title>key:e&#45;&gt;key2:w</title>
<path fill="none" stroke="#ee1c1c" d="M152,-1057.5C176.78,-1057.5 185.37,-1057.5 205.97,-1057.5"/>
<polygon fill="#ee1c1c" stroke="#ee1c1c" points="206,-1061 216,-1057.5 206,-1054 206,-1061"/>
</g>
<!-- key&#45;&gt;key2 -->
<g id="edge5" class="edge">
<title>key:e&#45;&gt;key2:w</title>
<path fill="none" stroke="#691269" d="M152,-1038.5C176.78,-1038.5 185.37,-1038.5 205.97,-1038.5"/>
<polygon fill="#691269" stroke="#691269" points="206,-1042 216,-1038.5 206,-1035 206,-1042"/>
</g>
<!-- node1 -->
<g id="node3" class="node">
<title>node1</title>
<polygon fill="none" stroke="#278ec6" points="408.65,-1095.5 303.35,-1095.5 265.85,-1059.5 446.15,-1059.5 408.65,-1095.5"/>
<text text-anchor="start" x="315" y="-1073.8" font-family="Times,serif" font-size="14.00">Start of log</text>
</g>
<!-- node2 -->
<g id="node4" class="node">
<title>node2</title>
<polygon fill="none" stroke="#44cc44" points="356,-989 318.13,-971 356,-953 393.87,-971 356,-989"/>
<text text-anchor="start" x="343.5" y="-967.3" font-family="Times" font-size="14.00">func</text>
</g>
<!-- node1&#45;&gt;node2 -->
<g id="edge6" class="edge">
<title>node1&#45;&gt;node2</title>
<path fill="none" stroke="#278ec6" d="M356,-1059.24C356,-1042.98 356,-1018.35 356,-999.4"/>
<polygon fill="#278ec6" stroke="#278ec6" points="359.5,-999.28 356,-989.28 352.5,-999.28 359.5,-999.28"/>
</g>
<!-- node3 -->
<g id="node5" class="node">
<title>node3</title>
<polygon fill="#d4eacf" stroke="transparent" points="337,-891 337,-912 375,-912 375,-891 337,-891"/>
<polygon fill="none" stroke="black" points="337,-891 337,-912 375,-912 375,-891 337,-891"/>
<text text-anchor="start" x="340" y="-897.8" font-family="Times" font-size="14.00">initial</text>
<polygon fill="none" stroke="black" points="337,-870 337,-891 375,-891 375,-870 337,-870"/>
<text text-anchor="start" x="345" y="-876.8" font-family="Times" font-size="14.00">ctor</text>
</g>
<!-- node2&#45;&gt;node3 -->
<g id="edge7" class="edge">
<title>node2&#45;&gt;node3</title>
<path fill="none" stroke="#278ec6" d="M356,-952.69C356,-944.86 356,-935.33 356,-926.16"/>
<polygon fill="#278ec6" stroke="#278ec6" points="359.5,-926.07 356,-916.07 352.5,-926.07 359.5,-926.07"/>
</g>
<!-- node4 -->
<g id="node6" class="node">
<title>node4</title>
<polygon fill="#d4eacf" stroke="transparent" points="345,-725 345,-752 383,-752 383,-725 345,-725"/>
<polygon fill="none" stroke="black" points="345,-725 345,-752 383,-752 383,-725 345,-725"/>
<text text-anchor="start" x="348" y="-734.8" font-family="Times" font-size="14.00">initial</text>
<polygon fill="#d4eacf" stroke="transparent" points="383,-725 383,-752 396,-752 396,-725 383,-725"/>
<polygon fill="none" stroke="black" points="383,-725 383,-752 396,-752 396,-725 383,-725"/>
<text text-anchor="start" x="386" y="-734.8" font-family="Times" font-size="14.00">1</text>
<polygon fill="#d4eacf" stroke="transparent" points="396,-725 396,-752 491,-752 491,-725 396,-725"/>
<polygon fill="none" stroke="black" points="396,-725 396,-752 491,-752 491,-725 396,-725"/>
<text text-anchor="start" x="402" y="-734.8" font-family="Times" font-size="14.00">0x7ffc6e19ffb0</text>
<polygon fill="none" stroke="black" points="345,-704 345,-725 491,-725 491,-704 345,-704"/>
<text text-anchor="start" x="382.5" y="-710.8" font-family="Times" font-size="14.00">Feature Film</text>
</g>
<!-- node3&#45;&gt;node4 -->
<g id="edge8" class="edge">
<title>node3&#45;&gt;node4</title>
<path fill="none" stroke="black" stroke-dasharray="5,2" d="M365.28,-865.9C375.49,-839.38 392.02,-796.46 403.85,-765.74"/>
<polygon fill="black" stroke="black" points="407.18,-766.82 407.51,-756.23 400.65,-764.31 407.18,-766.82"/>
</g>
<!-- node5 -->
<g id="node7" class="node">
<title>node5</title>
<polygon fill="none" stroke="#44cc44" points="296,-829 228.8,-811 296,-793 363.2,-811 296,-829"/>
<text text-anchor="start" x="267.5" y="-807.3" font-family="Times" font-size="14.00">Gona pass</text>
</g>
<!-- node3&#45;&gt;node5 -->
<g id="edge9" class="edge">
<title>node3&#45;&gt;node5</title>
<path fill="none" stroke="#278ec6" d="M337.34,-865.75C329.68,-855.79 320.86,-844.32 313.34,-834.54"/>
<polygon fill="#278ec6" stroke="#278ec6" points="316,-832.26 307.13,-826.47 310.45,-836.53 316,-832.26"/>
</g>
<!-- node7 -->
<g id="node9" class="node">
<title>node7</title>
<polygon fill="#eacfcf" stroke="transparent" points="178,-624 178,-645 221,-645 221,-624 178,-624"/>
<polygon fill="none" stroke="black" points="178,-624 178,-645 221,-645 221,-624 178,-624"/>
<text text-anchor="start" x="181" y="-630.8" font-family="Times" font-size="14.00">TMP1</text>
<polygon fill="#d4eacf" stroke="transparent" points="221,-624 221,-645 259,-645 259,-624 221,-624"/>
<polygon fill="none" stroke="black" points="221,-624 221,-645 259,-645 259,-624 221,-624"/>
<text text-anchor="start" x="224" y="-630.8" font-family="Times" font-size="14.00">initial</text>
<polygon fill="none" stroke="black" points="178,-603 178,-624 259,-624 259,-603 178,-603"/>
<text text-anchor="start" x="191" y="-609.8" font-family="Times" font-size="14.00">ctor_copy</text>
</g>
<!-- node4&#45;&gt;node7 -->
<g id="edge12" class="edge">
<title>node4&#45;&gt;node7</title>
<path fill="none" stroke="#ee1c1c" d="M364.93,-699.93C336.94,-685.66 302.62,-668.15 274.18,-653.65"/>
<polygon fill="#ee1c1c" stroke="#ee1c1c" points="275.67,-650.48 265.17,-649.06 272.49,-656.72 275.67,-650.48"/>
<text text-anchor="start" x="324" y="-671.8" font-family="Times,serif" font-weight="bold" font-size="14.00" fill="#ee1c1c">COPY</text>
</g>
<!-- node13 -->
<g id="node15" class="node">
<title>node13</title>
<polygon fill="#d4eacf" stroke="transparent" points="362,-191 362,-212 400,-212 400,-191 362,-191"/>
<polygon fill="none" stroke="black" points="362,-191 362,-212 400,-212 400,-191 362,-191"/>
<text text-anchor="start" x="365" y="-197.8" font-family="Times" font-size="14.00">initial</text>
<polygon fill="none" stroke="black" points="362,-170 362,-191 400,-191 400,-170 362,-170"/>
<text text-anchor="start" x="370" y="-176.8" font-family="Times" font-size="14.00">dtor</text>
</g>
<!-- node4&#45;&gt;node13 -->
<g id="edge21" class="edge">
<title>node4&#45;&gt;node13</title>
<path fill="none" stroke="#be8607" d="M418,-699.73C418,-679.18 418,-650.32 418,-625 418,-625 418,-625 418,-270 418,-254.29 411.8,-238.37 404.47,-225.04"/>
<polygon fill="#be8607" stroke="#be8607" points="407.39,-223.09 399.28,-216.27 401.36,-226.66 407.39,-223.09"/>
</g>
<!-- node14 -->
<g id="node16" class="node">
<title>node14</title>
<polygon fill="#d4eacf" stroke="transparent" points="383,-98 383,-125 421,-125 421,-98 383,-98"/>
<polygon fill="none" stroke="black" points="383,-98 383,-125 421,-125 421,-98 383,-98"/>
<text text-anchor="start" x="386" y="-107.8" font-family="Times" font-size="14.00">initial</text>
<polygon fill="#d4eacf" stroke="transparent" points="421,-98 421,-125 434,-125 434,-98 421,-98"/>
<polygon fill="none" stroke="black" points="421,-98 421,-125 434,-125 434,-98 421,-98"/>
<text text-anchor="start" x="424" y="-107.8" font-family="Times" font-size="14.00">1</text>
<polygon fill="#d4eacf" stroke="transparent" points="434,-98 434,-125 529,-125 529,-98 434,-98"/>
<polygon fill="none" stroke="black" points="434,-98 434,-125 529,-125 529,-98 434,-98"/>
<text text-anchor="start" x="440" y="-107.8" font-family="Times" font-size="14.00">0x7ffc6e19ffb0</text>
<polygon fill="none" stroke="black" points="383,-77 383,-98 529,-98 529,-77 383,-77"/>
<text text-anchor="start" x="420.5" y="-83.8" font-family="Times" font-size="14.00">Feature Film</text>
</g>
<!-- node4&#45;&gt;node14 -->
<g id="edge23" class="edge">
<title>node4&#45;&gt;node14</title>
<path fill="none" stroke="black" stroke-dasharray="5,2" d="M434.12,-699.87C444.47,-679.88 456,-651.65 456,-625 456,-625 456,-625 456,-190 456,-173.49 456,-155.24 456,-139.66"/>
<polygon fill="black" stroke="black" points="459.5,-139.35 456,-129.35 452.5,-139.35 459.5,-139.35"/>
</g>
<!-- node6 -->
<g id="node8" class="node">
<title>node6</title>
<polygon fill="none" stroke="#44cc44" points="218,-746 116.79,-728 218,-710 319.21,-728 218,-746"/>
<text text-anchor="start" x="171" y="-724.3" font-family="Times" font-size="14.00">TO_UPERCASE</text>
</g>
<!-- node5&#45;&gt;node6 -->
<g id="edge10" class="edge">
<title>node5&#45;&gt;node6</title>
<path fill="none" stroke="#278ec6" d="M282.77,-796.26C270.89,-783.92 253.23,-765.58 239.35,-751.17"/>
<polygon fill="#278ec6" stroke="#278ec6" points="241.55,-748.41 232.09,-743.63 236.5,-753.26 241.55,-748.41"/>
</g>
<!-- node6&#45;&gt;node7 -->
<g id="edge11" class="edge">
<title>node6&#45;&gt;node7</title>
<path fill="none" stroke="#278ec6" d="M218,-709.7C218,-695.95 218,-676.3 218,-659.38"/>
<polygon fill="#278ec6" stroke="#278ec6" points="221.5,-659.28 218,-649.28 214.5,-659.28 221.5,-659.28"/>
</g>
<!-- node8 -->
<g id="node10" class="node">
<title>node8</title>
<polygon fill="#eacfcf" stroke="transparent" points="28,-531 28,-558 71,-558 71,-531 28,-531"/>
<polygon fill="none" stroke="black" points="28,-531 28,-558 71,-558 71,-531 28,-531"/>
<text text-anchor="start" x="31" y="-540.8" font-family="Times" font-size="14.00">TMP1</text>
<polygon fill="#eacfcf" stroke="transparent" points="71,-531 71,-558 84,-558 84,-531 71,-531"/>
<polygon fill="none" stroke="black" points="71,-531 71,-558 84,-558 84,-531 71,-531"/>
<text text-anchor="start" x="74" y="-540.8" font-family="Times" font-size="14.00">2</text>
<polygon fill="#eacfcf" stroke="transparent" points="84,-531 84,-558 182,-558 182,-531 84,-531"/>
<polygon fill="none" stroke="black" points="84,-531 84,-558 182,-558 182,-531 84,-531"/>
<text text-anchor="start" x="90" y="-540.8" font-family="Times" font-size="14.00">0x7ffc6e19fdb0</text>
<polygon fill="none" stroke="black" points="28,-510 28,-531 182,-531 182,-510 28,-510"/>
<text text-anchor="start" x="69.5" y="-516.8" font-family="Times" font-size="14.00">Feature Film</text>
</g>
<!-- node7&#45;&gt;node8 -->
<g id="edge13" class="edge">
<title>node7&#45;&gt;node8</title>
<path fill="none" stroke="black" stroke-dasharray="5,2" d="M187.12,-598.95C175,-589.51 160.88,-578.52 147.81,-568.34"/>
<polygon fill="black" stroke="black" points="149.87,-565.5 139.83,-562.12 145.57,-571.03 149.87,-565.5"/>
</g>
<!-- node9 -->
<g id="node11" class="node">
<title>node9</title>
<polygon fill="#eacfcf" stroke="transparent" points="179,-444 179,-465 222,-465 222,-444 179,-444"/>
<polygon fill="none" stroke="black" points="179,-444 179,-465 222,-465 222,-444 179,-444"/>
<text text-anchor="start" x="182" y="-450.8" font-family="Times" font-size="14.00">TMP1</text>
<polygon fill="none" stroke="black" points="179,-423 179,-444 222,-444 222,-423 179,-423"/>
<text text-anchor="start" x="189.5" y="-429.8" font-family="Times" font-size="14.00">dtor</text>
</g>
<!-- node7&#45;&gt;node9 -->
<g id="edge14" class="edge">
<title>node7&#45;&gt;node9</title>
<path fill="none" stroke="#278ec6" d="M215.57,-598.99C212.46,-568.21 207.04,-514.6 203.48,-479.46"/>
<polygon fill="#278ec6" stroke="#278ec6" points="206.94,-478.79 202.45,-469.19 199.97,-479.5 206.94,-478.79"/>
</g>
<!-- node8&#45;&gt;node9 -->
<g id="edge15" class="edge">
<title>node8&#45;&gt;node9</title>
<path fill="none" stroke="#be8607" d="M134.28,-505.88C144.46,-496.45 155.95,-485.8 166.45,-476.08"/>
<polygon fill="#be8607" stroke="#be8607" points="168.92,-478.56 173.88,-469.2 164.17,-473.42 168.92,-478.56"/>
</g>
<!-- node10 -->
<g id="node12" class="node">
<title>node10</title>
<polygon fill="#eacfcf" stroke="transparent" points="8,-351 8,-378 51,-378 51,-351 8,-351"/>
<polygon fill="none" stroke="black" points="8,-351 8,-378 51,-378 51,-351 8,-351"/>
<text text-anchor="start" x="11" y="-360.8" font-family="Times" font-size="14.00">TMP1</text>
<polygon fill="#eacfcf" stroke="transparent" points="51,-351 51,-378 64,-378 64,-351 51,-351"/>
<polygon fill="none" stroke="black" points="51,-351 51,-378 64,-378 64,-351 51,-351"/>
<text text-anchor="start" x="54" y="-360.8" font-family="Times" font-size="14.00">2</text>
<polygon fill="#eacfcf" stroke="transparent" points="64,-351 64,-378 162,-378 162,-351 64,-351"/>
<polygon fill="none" stroke="black" points="64,-351 64,-378 162,-378 162,-351 64,-351"/>
<text text-anchor="start" x="70" y="-360.8" font-family="Times" font-size="14.00">0x7ffc6e19fdb0</text>
<polygon fill="none" stroke="black" points="8,-330 8,-351 162,-351 162,-330 8,-330"/>
<text text-anchor="start" x="35.5" y="-336.8" font-family="Times" font-size="14.00">FEATURE FILM</text>
</g>
<!-- node8&#45;&gt;node10 -->
<g id="edge17" class="edge">
<title>node8&#45;&gt;node10</title>
<path fill="none" stroke="black" stroke-dasharray="5,2" d="M101.96,-505.97C98.56,-475.65 93.01,-426.28 89.19,-392.3"/>
<polygon fill="black" stroke="black" points="92.66,-391.84 88.07,-382.29 85.7,-392.62 92.66,-391.84"/>
</g>
<!-- node9&#45;&gt;node10 -->
<g id="edge16" class="edge">
<title>node9&#45;&gt;node10</title>
<path fill="none" stroke="#be8607" d="M170.38,-420.34C157.7,-410.63 142.63,-399.1 128.7,-388.44"/>
<polygon fill="#be8607" stroke="#be8607" points="130.73,-385.59 120.66,-382.29 126.48,-391.15 130.73,-385.59"/>
</g>
<!-- node11 -->
<g id="node13" class="node">
<title>node11</title>
<polygon fill="none" stroke="#3333ee" points="289,-372 187.79,-354 289,-336 390.21,-354 289,-372"/>
<text text-anchor="start" x="242" y="-350.3" font-family="Times" font-size="14.00">TO_UPERCASE</text>
</g>
<!-- node9&#45;&gt;node11 -->
<g id="edge18" class="edge">
<title>node9&#45;&gt;node11</title>
<path fill="none" stroke="#278ec6" d="M224.32,-418.95C237.66,-405.77 254.06,-389.54 267.01,-376.74"/>
<polygon fill="#278ec6" stroke="#278ec6" points="269.54,-379.16 274.19,-369.64 264.62,-374.18 269.54,-379.16"/>
</g>
<!-- node12 -->
<g id="node14" class="node">
<title>node12</title>
<polygon fill="none" stroke="#3333ee" points="315,-289 247.8,-271 315,-253 382.2,-271 315,-289"/>
<text text-anchor="start" x="286.5" y="-267.3" font-family="Times" font-size="14.00">Gona pass</text>
</g>
<!-- node11&#45;&gt;node12 -->
<g id="edge19" class="edge">
<title>node11&#45;&gt;node12</title>
<path fill="none" stroke="#278ec6" d="M294.26,-336.61C297.87,-325.37 302.72,-310.25 306.83,-297.46"/>
<polygon fill="#278ec6" stroke="#278ec6" points="310.2,-298.41 309.92,-287.82 303.53,-296.27 310.2,-298.41"/>
</g>
<!-- node12&#45;&gt;node13 -->
<g id="edge20" class="edge">
<title>node12&#45;&gt;node13</title>
<path fill="none" stroke="#278ec6" d="M326.8,-256.06C334.32,-247.17 344.38,-235.27 353.8,-224.15"/>
<polygon fill="#278ec6" stroke="#278ec6" points="356.71,-226.13 360.49,-216.24 351.36,-221.61 356.71,-226.13"/>
</g>
<!-- node13&#45;&gt;node14 -->
<g id="edge22" class="edge">
<title>node13&#45;&gt;node14</title>
<path fill="none" stroke="#be8607" d="M401.49,-165.95C409.16,-156.96 418.03,-146.55 426.36,-136.78"/>
<polygon fill="#be8607" stroke="#be8607" points="429.06,-139 432.89,-129.12 423.74,-134.46 429.06,-139"/>
</g>
<!-- node15 -->
<g id="node17" class="node">
<title>node15</title>
<polygon fill="none" stroke="#3333ee" points="319,-119 281.13,-101 319,-83 356.87,-101 319,-119"/>
<text text-anchor="start" x="306.5" y="-97.3" font-family="Times" font-size="14.00">func</text>
</g>
<!-- node13&#45;&gt;node15 -->
<g id="edge24" class="edge">
<title>node13&#45;&gt;node15</title>
<path fill="none" stroke="#278ec6" d="M364.06,-165.95C354.62,-152.56 342.98,-136.03 333.89,-123.13"/>
<polygon fill="#278ec6" stroke="#278ec6" points="336.69,-121.03 328.07,-114.87 330.96,-125.06 336.69,-121.03"/>
</g>
<!-- node16 -->
<g id="node18" class="node">
<title>node16</title>
<polygon fill="none" stroke="#278ec6" points="271.34,0 366.66,0 400.61,-36 237.39,-36 271.34,0"/>
<text text-anchor="start" x="282.5" y="-14.3" font-family="Times,serif" font-size="14.00">End of log</text>
</g>
<!-- node15&#45;&gt;node16 -->
<g id="edge25" class="edge">
<title>node15&#45;&gt;node16</title>
<path fill="none" stroke="#278ec6" d="M319,-82.82C319,-72.19 319,-58.31 319,-46.2"/>
<polygon fill="#278ec6" stroke="#278ec6" points="322.5,-46.15 319,-36.15 315.5,-46.15 322.5,-46.15"/>
</g>
</g>
</svg>
