<?xml version="1.0" encoding="UTF-8" standalone="no"?>
<!DOCTYPE svg PUBLIC "-//W3C//DTD SVG 1.1//EN"
 "http://www.w3.org/Graphics/SVG/1.1/DTD/svg11.dtd">
<!-- Generated by graphviz version 2.43.0 (0)
 -->
<!-- Title: list Pages: 1 -->
<svg width="231pt" height="82pt"
 viewBox="0.00 0.00 231.49 81.74" xmlns="http://www.w3.org/2000/svg" xmlns:xlink="http://www.w3.org/1999/xlink">
<g id="graph0" class="graph" transform="scale(1 1) rotate(0) translate(4 77.74)">
<title>list</title>
<polygon fill="white" stroke="transparent" points="-4,4 -4,-77.74 227.49,-77.74 227.49,4 -4,4"/>
<!-- node1 -->
<g id="node1" class="node">
<title>node1</title>
<polygon fill="#ebebeb" stroke="transparent" points="9,-47.24 9,-68.24 59,-68.24 59,-47.24 9,-47.24"/>
<polygon fill="none" stroke="black" points="9,-47.24 9,-68.24 59,-68.24 59,-47.24 9,-47.24"/>
<text text-anchor="start" x="29" y="-54.04" font-family="Times,serif" font-size="14.00">1</text>
<polygon fill="none" stroke="crimson" points="9,-25.24 9,-46.24 25,-46.24 25,-25.24 9,-25.24"/>
<text text-anchor="start" x="12" y="-32.04" font-family="Times,serif" font-size="14.00">0</text>
<polygon fill="lightsalmon" stroke="transparent" points="26,-25.24 26,-46.24 42,-46.24 42,-25.24 26,-25.24"/>
<polygon fill="none" stroke="black" points="26,-25.24 26,-46.24 42,-46.24 42,-25.24 26,-25.24"/>
<text text-anchor="start" x="29" y="-32.04" font-family="Times,serif" font-size="14.00">1</text>
<polygon fill="none" stroke="#1c86ee" points="43,-25.24 43,-46.24 59,-46.24 59,-25.24 43,-25.24"/>
<text text-anchor="start" x="46" y="-32.04" font-family="Times,serif" font-size="14.00">0</text>
</g>
<!-- node0 -->
<g id="node2" class="node">
<title>node0</title>
<polygon fill="none" stroke="black" points="163.75,-65.24 103.75,-47.24 163.75,-29.24 223.74,-47.24 163.75,-65.24"/>
<text text-anchor="middle" x="163.75" y="-43.54" font-family="Times,serif" font-size="14.00">Fictive</text>
</g>
<!-- node1&#45;&gt;node0 -->
<g id="edge1" class="edge">
<title>node1:next&#45;&gt;node0</title>
<path fill="none" stroke="black" d="M60,-35.24C78.17,-35.24 98.02,-37.11 115.38,-39.38"/>
<polygon fill="black" stroke="black" points="114.91,-42.85 125.29,-40.75 115.86,-35.91 114.91,-42.85"/>
</g>
<!-- node1&#45;&gt;node0 -->
<g id="edge2" class="edge">
<title>node1:prev&#45;&gt;node0</title>
<path fill="none" stroke="black" d="M17,-24.24C17,22.32 90.47,-8.83 133.08,-30.81"/>
<polygon fill="black" stroke="black" points="131.69,-34.04 142.17,-35.6 134.96,-27.84 131.69,-34.04"/>
</g>
<!-- node0&#45;&gt;node1 -->
<g id="edge3" class="edge">
<title>node0&#45;&gt;node1:index</title>
<path fill="none" stroke="black" d="M109.27,-49.01C96.66,-51.15 83.06,-53.74 69.92,-56.3"/>
<polygon fill="black" stroke="black" points="69.14,-52.89 60,-58.24 70.49,-59.76 69.14,-52.89"/>
</g>
<!-- node0&#45;&gt;node1 -->
<g id="edge4" class="edge">
<title>node0&#45;&gt;node1:index</title>
<path fill="none" stroke="black" d="M138.83,-57.79C120.63,-61.38 94.64,-63.11 70.24,-59.9"/>
<polygon fill="black" stroke="black" points="70.7,-56.43 60.27,-58.29 69.58,-63.34 70.7,-56.43"/>
</g>
</g>
</svg>
